#  wavefront obj file written by the visualization toolkit

mtllib leftsurretumor.mtl

v 231.83999633789062 210.37600708007812 98.3124008178711
v 233.43699645996094 210.26199340820312 96.86540222167969
v 244.82699584960938 225.58200073242188 120.38500213623047
v 245.0240020751953 224.55799865722656 120.47000122070312
v 230.86000061035156 208.23300170898438 108.21199798583984
v 230.08200073242188 209.718994140625 106.48200225830078
v 235.0240020751953 205.32899475097656 105.11799621582031
v 232.59100341796875 205.25999450683594 105.91300201416016
v 230.0850067138672 213.8159942626953 106.30000305175781
v 230.6959991455078 215.9949951171875 106.61499786376953
v 231.3459930419922 220.50799560546875 119.23699951171875
v 230.18499755859375 219.54800415039062 117.6520004272461
v 231.28399658203125 201.6230010986328 96.7615966796875
v 230.7689971923828 202.593994140625 97.04900360107422
v 238.97300720214844 212.97500610351562 104.24700164794922
v 239.6269989013672 211.22000122070312 104.947998046875
v 236.70199584960938 207.00999450683594 91.39640045166016
v 236.67799377441406 206.15199279785156 91.9303970336914
v 237.42599487304688 206.90899658203125 91.5261001586914
v 237.4239959716797 221.0919952392578 108.43499755859375
v 240.03900146484375 221.28700256347656 110.43499755859375
v 236.677001953125 227.55599975585938 116.4260025024414
v 237.52200317382812 226.86500549316406 114.71299743652344
v 237.63699340820312 206.21299743652344 92.05979919433594
v 237.63699340820312 216.64999389648438 105.14199829101562
v 238.7270050048828 219.02000427246094 107.8290023803711
v 236.4149932861328 214.93099975585938 118.28800201416016
v 237.57699584960938 216.17999267578125 118.4749984741211
v 232.97900390625 208.74099731445312 95.07859802246094
v 244.35000610351562 226.91000366210938 123.41799926757812
v 244.53500366210938 225.96400451660156 124.08799743652344
v 236.68699645996094 228.17999267578125 122.18299865722656
v 237.98800659179688 228.23199462890625 121.36599731445312
v 239.11199951171875 214.79800415039062 115.18099975585938
v 236.45399475097656 214.1009979248047 117.20600128173828
v 235.76100158691406 206.83200073242188 91.84339904785156
v 237.35499572753906 204.36399841308594 99.7947006225586
v 235.8459930419922 203.13400268554688 99.77420043945312
v 237.36300659179688 225.02099609375 124.86100006103516
v 237.22900390625 224.3350067138672 124.26000213623047
v 236.25 207.68899536132812 91.3655014038086
v 237.20799255371094 207.6490020751953 91.3228988647461
v 238.25799560546875 206.93099975585938 92.37359619140625
v 237.927001953125 207.61700439453125 91.71099853515625
v 233.3350067138672 207.34800720214844 93.46769714355469
v 233.2310028076172 205.822998046875 93.19000244140625
v 237.03199768066406 227.57899475097656 124.39399719238281
v 235.8000030517578 227.37600708007812 123.3010025024414
v 236.0749969482422 222.72799682617188 122.02100372314453
v 235.04400634765625 224.69900512695312 121.86199951171875
v 241.30799865722656 225.49099731445312 126.2020034790039
v 240.51699829101562 225.71099853515625 126.4000015258789
v 239.1219940185547 226.26400756835938 115.25399780273438
v 240.0229949951172 226.30499267578125 117.75299835205078
v 235.2220001220703 207.92999267578125 91.88680267333984
v 234.91000366210938 227.5449981689453 120.5270004272461
v 234.16400146484375 226.6719970703125 120.0270004272461
v 235.32699584960938 203.9040069580078 101.87200164794922
v 236.43699645996094 212.33999633789062 114.15899658203125
v 233.88099670410156 212.50900268554688 116.56700134277344
v 235.95700073242188 208.41299438476562 91.37100219726562
v 233.6199951171875 204.2449951171875 104.1709976196289
v 231.53199768066406 213.718994140625 102.33999633789062
v 230.1959991455078 212.3800048828125 104.20700073242188
v 240.8730010986328 214.7209930419922 109.74500274658203
v 240.2270050048828 213.42799377441406 111.18499755859375
v 236.80099487304688 208.36300659179688 91.32160186767578
v 237.69900512695312 208.36399841308594 91.72879791259766
v 233.4029998779297 200.85299682617188 97.25749969482422
v 232.2239990234375 201.1510009765625 97.5459976196289
v 238.4510040283203 208.1199951171875 92.87370300292969
v 230.97000122070312 223.48699951171875 117.86000061035156
v 231.77999877929688 224.843994140625 116.6709976196289
v 231.53700256347656 223.87600708007812 118.95700073242188
v 233.08900451660156 224.24400329589844 120.47100067138672
v 231.48199462890625 201.3780059814453 95.597900390625
v 231.67599487304688 201.9149932861328 94.89019775390625
v 233.10699462890625 225.05499267578125 120.23400115966797
v 235.73199462890625 209.031005859375 91.6250991821289
v 236.37899780273438 208.95799255371094 91.38189697265625
v 238.2169952392578 209.07699584960938 93.86380004882812
v 238.50599670410156 208.71600341796875 95.97820281982422
v 238.30299377441406 223.41400146484375 124.48699951171875
v 236.9600067138672 223.4219970703125 123.05500030517578
v 230.4429931640625 221.78700256347656 117.94499969482422
v 230.7220001220703 214.36900329589844 104.2979965209961
v 237.12100219726562 209.16299438476562 91.78919982910156
v 241.1230010986328 224.61599731445312 125.83100128173828
v 240.43800354003906 223.8070068359375 125.44999694824219
v 243.68899536132812 226.53799438476562 124.55799865722656
v 242.86700439453125 225.88699340820312 124.98400115966797
v 235.11700439453125 209.05099487304688 92.41649627685547
v 235.7779998779297 209.57699584960938 91.908203125
v 236.33599853515625 209.5709991455078 91.75679779052734
v 236.8040008544922 209.83999633789062 92.41339874267578
v 237.4709930419922 209.62399291992188 93.02860260009766
v 237.89700317382812 208.99099731445312 92.45919799804688
v 237.5709991455078 203.76400756835938 96.27420043945312
v 236.72000122070312 203.07000732421875 97.99030303955078
v 238.99000549316406 211.7270050048828 110.03199768066406
v 238.0500030517578 212.10499572753906 112.29499816894531
v 235.9409942626953 209.89700317382812 92.716796875
v 235.33700561523438 215.77999877929688 118.88600158691406
v 243.98800659179688 225.82400512695312 120.27100372314453
v 244.7899932861328 226.38600158691406 121.0989990234375
v 235.0679931640625 209.66200256347656 93.55760192871094
v 235.75399780273438 210.2100067138672 94.55819702148438
v 237.96099853515625 209.50900268554688 97.21479797363281
v 238.60800170898438 208.26499938964844 98.52739715576172
v 238.9929962158203 220.66400146484375 121.50700378417969
v 238.5679931640625 222.35299682617188 122.92400360107422
v 242.4810028076172 218.9290008544922 116.23300170898438
v 242.51800537109375 222.00799560546875 117.59500122070312
v 240.89300537109375 215.92100524902344 113.84500122070312
v 239.5989990234375 213.9550018310547 112.76499938964844
v 235.21299743652344 208.79400634765625 109.8270034790039
v 236.0760040283203 210.40199279785156 111.71700286865234
v 241.73599243164062 218.14999389648438 117.76799774169922
v 241.4340057373047 219.25599670410156 119.26899719238281
v 236.625 221.4250030517578 121.66899871826172
v 235.26699829101562 218.81500244140625 120.47000122070312
v 237.74099731445312 222.8800048828125 109.91999816894531
v 230.53199768066406 217.11399841308594 117.41600036621094
v 233.947998046875 216.47300720214844 119.62000274658203
v 232.125 216.35299682617188 119.09600067138672
v 239.16000366210938 223.96800231933594 125.7030029296875
v 238.1790008544922 224.5070037841797 125.427001953125
v 238.81300354003906 226.91700744628906 125.14700317382812
v 237.2469940185547 226.39199829101562 124.83599853515625
v 233.2239990234375 208.3820037841797 110.01200103759766
v 229.59100341796875 206.13099670410156 102.14099884033203
v 229.6999969482422 207.0070037841797 104.35900115966797
v 234.1320037841797 208.78599548339844 93.63569641113281
v 234.31900024414062 207.8679962158203 92.72200012207031
v 235.8209991455078 227.10400390625 114.98999786376953
v 236.4759979248047 226.6750030517578 113.23500061035156
v 235.45599365234375 210.822998046875 96.94380187988281
v 231.5030059814453 204.56700134277344 104.49600219726562
v 230.09800720214844 205.42100524902344 103.96900177001953
v 237.4010009765625 224.18800354003906 110.80500030517578
v 239.71200561523438 222.96099853515625 111.11399841308594
v 230.01199340820312 216.41900634765625 110.18900299072266
v 230.6219940185547 217.76600646972656 109.18599700927734
v 232.8350067138672 214.9550018310547 118.60800170898438
v 230.41799926757812 207.34800720214844 106.7979965209961
v 233.81700134277344 209.71499633789062 111.7979965209961
v 231.7989959716797 210.04100036621094 111.36599731445312
v 233.1580047607422 220.05099487304688 107.60700225830078
v 232.75599670410156 217.79600524902344 105.32099914550781
v 239.52000427246094 211.3300018310547 107.28399658203125
v 235.73800659179688 203.42999267578125 93.47160339355469
v 234.5659942626953 203.5240020751953 93.38610076904297
v 235.66600036621094 204.40499877929688 92.89839935302734
v 236.55599975585938 204.4720001220703 92.96420288085938
v 229.9080047607422 210.4340057373047 102.86100006103516
v 232.85400390625 225.64300537109375 118.28900146484375
v 234.9600067138672 227.3300018310547 117.45800018310547
v 236.60899353027344 203.59300231933594 93.87950134277344
v 237.343994140625 204.65499877929688 93.24909973144531
v 238.7259979248047 209.78399658203125 106.78399658203125
v 236.97000122070312 208.6490020751953 107.77999877929688
v 232.69700622558594 203.61700439453125 102.66899871826172
v 234.8719940185547 225.15199279785156 111.38800048828125
v 230.92799377441406 211.92799377441406 101.26100158691406
v 232.95799255371094 212.89500427246094 100.39900207519531
v 231.84800720214844 215.7899932861328 104.2979965209961
v 230.01400756835938 212.68600463867188 108.88200378417969
v 229.93499755859375 214.31700134277344 110.35600280761719
v 239.1300048828125 228.08700561523438 122.26399993896484
v 238.01600646972656 228.1280059814453 123.53700256347656
v 233.46299743652344 204.46499633789062 93.25450134277344
v 234.72799682617188 205.15199279785156 92.81950378417969
v 232.2779998779297 207.65199279785156 108.78199768066406
v 229.93499755859375 211.68499755859375 107.16300201416016
v 232.83200073242188 215.16400146484375 102.76000213623047
v 233.13999938964844 214.30799865722656 101.71600341796875
v 236.4029998779297 219.13600158691406 106.18900299072266
v 236.1909942626953 205.2570037841797 92.57759857177734
v 237.24600219726562 205.38099670410156 92.56590270996094
v 238.88800048828125 206.80099487304688 94.38729858398438
v 238.92100524902344 205.91600036621094 96.38580322265625
v 238.13800048828125 205.65499877929688 93.21320343017578
v 237.54299926757812 204.1699981689453 94.40640258789062
v 229.57899475097656 208.65499877929688 101.85199737548828
v 231.98199462890625 211.58599853515625 99.43440246582031
v 231.0019989013672 214.9600067138672 117.41100311279297
v 230.39599609375 214.3070068359375 115.6760025024414
v 245.01600646972656 226.2729949951172 122.5780029296875
v 245.23599243164062 225.66400146484375 121.177001953125
v 236.76800537109375 210.08799743652344 93.74150085449219
v 236.6490020751953 210.31100463867188 95.51290130615234
v 238.93099975585938 227.87600708007812 120.77400207519531
v 230.5709991455078 211.84100341796875 111.16000366210938
v 234.47799682617188 206.61599731445312 92.589599609375
v 229.9720001220703 207.08099365234375 98.3115005493164
v 231.35299682617188 208.5780029296875 97.01719665527344
v 231.69900512695312 212.1529998779297 115.41699981689453
v 231.25900268554688 213.55499267578125 117.1760025024414
v 230.38999938964844 213.46299743652344 113.23600006103516
v 237.906005859375 212.17599487304688 101.74099731445312
v 235.51600646972656 205.93899536132812 92.41480255126953
v 236.1790008544922 228.0330047607422 119.54399871826172
v 231.20399475097656 218.3249969482422 118.88600158691406
v 231.1020050048828 220.9969940185547 111.47899627685547
v 232.63900756835938 223.18800354003906 111.03600311279297
v 242.54800415039062 219.43099975585938 114.72200012207031
v 240.10800170898438 217.68699645996094 118.5719985961914
v 235.38400268554688 227.89500427246094 121.13300323486328
v 233.74099731445312 216.74200439453125 104.0270004272461
v 231.2969970703125 211.88299560546875 113.38800048828125
v 230.01300048828125 216.2760009765625 115.71900177001953
v 229.9810028076172 215.16299438476562 112.83200073242188
v 231.93099975585938 206.83099365234375 94.652099609375
v 235.6529998779297 225.99600219726562 123.67900085449219
v 235.0850067138672 227.02499389648438 122.23999786376953
v 231.38900756835938 223.58999633789062 114.18599700927734
v 233.68899536132812 211.5970001220703 98.52189636230469
v 244.37399291992188 223.27000427246094 120.41300201416016
v 245.08900451660156 223.86500549316406 120.97599792480469
v 235.71400451660156 204.71800231933594 103.45099639892578
v 237.15199279785156 206.3260040283203 104.15499877929688
v 244.6320037841797 226.85800170898438 122.0250015258789
v 244.02200317382812 226.69400024414062 120.99099731445312
v 243.61199951171875 222.38400268554688 121.13300323486328
v 244.45899963378906 223.072998046875 121.65599822998047
v 236.9320068359375 213.6510009765625 102.25800323486328
v 238.6269989013672 214.66000366210938 104.88200378417969
v 242.83200073242188 222.79200744628906 123.23999786376953
v 241.447998046875 221.7779998779297 122.57499694824219
v 244.4759979248047 223.5919952392578 122.92400360107422
v 244.66400146484375 224.92300415039062 123.80699920654297
v 239.4810028076172 215.9969940185547 106.43699645996094
v 240.36399841308594 217.5050048828125 108.95500183105469
v 236.1269989013672 226.5279998779297 124.50900268554688
v 231.4770050048828 219.4720001220703 109.3499984741211
v 232.42300415039062 221.19000244140625 109.46299743652344
v 230.96800231933594 223.91000366210938 116.28099822998047
v 242.4980010986328 227.43099975585938 124.01799774169922
v 241.80799865722656 227.3730010986328 125.16200256347656
v 235 222.01499938964844 108.71800231933594
v 237.7790069580078 227.8509979248047 118.65899658203125
v 238.4510040283203 205.13499450683594 95.13590240478516
v 240.35400390625 222.9530029296875 124.4010009765625
v 240.46099853515625 225.13600158691406 115.66899871826172
v 242.06399536132812 222.12100219726562 115.86799621582031
v 243.58700561523438 222.6300048828125 122.47100067138672
v 241.38699340820312 217.0590057373047 111.0790023803711
v 241.14300537109375 215.37899780273438 111.71399688720703
v 230.66000366210938 203.1060028076172 98.20939636230469
v 238.13099670410156 226.16200256347656 113.18099975585938
v 238.56700134277344 225.10000610351562 112.12200164794922
v 230.20899963378906 204.19400024414062 98.4636001586914
v 230.4720001220703 203.9010009765625 96.60179901123047
v 242.95799255371094 226.1840057373047 120.3030014038086
v 242.60000610351562 225.0489959716797 119.56099700927734
v 229.93899536132812 217.41000366210938 113.18299865722656
v 236.51800537109375 207.0800018310547 106.197998046875
v 233.95399475097656 206.40499877929688 107.1500015258789
v 229.75599670410156 208.63999938964844 104.74099731445312
v 233.83700561523438 211.0800018310547 114.06300354003906
v 230.63600158691406 206.87600708007812 96.4677963256836
v 231.3090057373047 208.96600341796875 109.67400360107422
v 230.56199645996094 205.94400024414062 105.78299713134766
v 234.89100646972656 225.80299377441406 122.3550033569336
v 239.99600219726562 213.37399291992188 106.16500091552734
v 230.27099609375 218.99000549316406 111.80999755859375
v 243.24899291992188 222.03199768066406 120.08499908447266
v 242.4969940185547 221.7689971923828 121.47799682617188
v 238.55499267578125 207.67799377441406 101.80899810791016
v 238.40699768066406 208.6280059814453 105.14800262451172
v 239.01600646972656 215.7169952392578 117.48699951171875
v 230.98500061035156 202.60699462890625 95.64759826660156
v 231.75399780273438 203.11399841308594 94.56430053710938
v 232.39599609375 213.0260009765625 117.39700317382812
v 239.3820037841797 225.46800231933594 126.31700134277344
v 239.66799926757812 226.47999572753906 126.09700012207031
v 241.9669952392578 217.48300170898438 113.875
v 231.56199645996094 206.49099731445312 107.4469985961914
v 242.8280029296875 224.31900024414062 124.46299743652344
v 242.84300231933594 221.19000244140625 119.01499938964844
v 241.4550018310547 220.38800048828125 120.50900268554688
v 229.91799926757812 204.927001953125 100.30500030517578
v 240.4250030517578 226.58999633789062 126.11699676513672
v 234.8780059814453 207.66700744628906 108.14600372314453
v 240.6300048828125 227.60499572753906 124.1780014038086
v 240.8679962158203 227.6840057373047 122.677001953125
v 231.45199584960938 202.27200317382812 98.49939727783203
v 231.656005859375 217.98199462890625 107.08200073242188
v 241.01300048828125 227.4080047607422 125.26399993896484
v 237.4320068359375 209.88900756835938 109.06999969482422
v 229.9949951171875 220.93600463867188 116.51000213623047
v 237.43499755859375 205.447998046875 101.81300354003906
v 235.7899932861328 217.2779998779297 104.55599975585938
v 236.41400146484375 215.46600341796875 103.54499816894531
v 243.1540069580078 223.5760040283203 119.34600067138672
v 234.8179931640625 214.1649932861328 101.5790023803711
v 239.7570037841797 219.28799438476562 120.21499633789062
v 245.49099731445312 224.73800659179688 121.25399780273438
v 229.53599548339844 206.96400451660156 100.1510009765625
v 241.61300659179688 227.52699279785156 123.99400329589844
v 233.05499267578125 203.27699279785156 93.91020202636719
v 232.11500549316406 204.7779998779297 94.0343017578125
v 240.75599670410156 223.64300537109375 113.46299743652344
v 241.57699584960938 221.41600036621094 112.9229965209961
v 242.07400512695312 225.02200317382812 125.34700012207031
v 230.55799865722656 210.46400451660156 100.18399810791016
v 242.2050018310547 226.51499938964844 125.44499969482422
v 230.197998046875 221.44200134277344 114.59200286865234
v 232.31900024414062 211.61900329589844 115.53700256347656
v 233.2530059814453 200.6300048828125 95.68199920654297
v 232.27999877929688 201.0330047607422 95.06620025634766
v 232.0780029296875 200.77200317382812 96.17669677734375
v 234.468994140625 219.02099609375 105.72599792480469
v 234.24200439453125 201.25799560546875 94.7864990234375
v 233.25900268554688 201.1719970703125 94.70079803466797
v 232.6009979248047 202.02099609375 94.46430206298828
v 236.9429931640625 211.97000122070312 100.06600189208984
v 232.78700256347656 200.58999633789062 96.69879913330078
v 241.17799377441406 216.88900756835938 116.1989974975586
v 235.04299926757812 220.76300048828125 107.21800231933594
v 235.22000122070312 201.67300415039062 95.12699890136719
v 234.41799926757812 200.98699951171875 96.0530014038086
v 230.3730010986328 222.69200134277344 116.20899963378906
v 238.3470001220703 225.7469940185547 125.68000030517578
v 238.80599975585938 208.19700622558594 94.74109649658203
v 230.91600036621094 205.52000427246094 95.40840148925781
v 233.22900390625 225.59800720214844 113.54499816894531
v 233.73699951171875 226.4949951171875 115.58799743652344
v 233.89599609375 202.1540069580078 94.17949676513672
v 234.9739990234375 202.2969970703125 94.14720153808594
v 235.406005859375 201.72000122070312 96.80909729003906
v 236.43899536132812 202.67799377441406 95.635498046875
v 235.81199645996094 202.56399536132812 94.4198989868164
v 240.17599487304688 224.80799865722656 126.24800109863281
v 232.07200622558594 202.94200134277344 100.65299987792969
v 230.8070068359375 203.4739990234375 99.94550323486328
v 232.95799255371094 218.2899932861328 119.85199737548828
v 239.49200439453125 227.2550048828125 119.34300231933594
v 238.2169952392578 227.25900268554688 117.02899932861328
v 241.55599975585938 224.7239990234375 117.99199676513672
v 239.3090057373047 227.77699279785156 123.86399841308594
v 242.20899963378906 227.4250030517578 122.66100311279297
v 241.86099243164062 223.57000732421875 124.43399810791016
v 240.11399841308594 227.22300720214844 125.24800109863281
v 243.1719970703125 227.1750030517578 124.27799987792969
v 243.45899963378906 227.26699829101562 122.45899963378906
v 230.16799926757812 208.86599731445312 99.34310150146484
v 241.20799255371094 226.6300048828125 126.0989990234375
v 231.0570068359375 204.0959930419922 95.07820129394531
v 234.9010009765625 202.06900024414062 98.60659790039062
v 238.57200622558594 209.83900451660156 100.9000015258789
v 234.62899780273438 223.14100646972656 109.8280029296875
v 238.60899353027344 206.1060028076172 98.91200256347656
v 241.6510009765625 219.2779998779297 112.24299621582031
v 243.55799865722656 225.31399536132812 124.73400115966797
v 234.49400329589844 209.88900756835938 95.13990020751953
v 241.83999633789062 226.97500610351562 121.16600036621094
v 241.41099548339844 226.2449951171875 119.59300231933594
v 234.48300170898438 215.64500427246094 102.93699645996094
v 232.2429962158203 211.1490020751953 113.63700103759766
v 233.9929962158203 202.76400756835938 100.43099975585938
v 238.031005859375 227.67300415039062 124.43900299072266
v 239.41400146484375 225.44900512695312 113.35099792480469
v 239.447998046875 224.20899963378906 111.88099670410156
v 238.9600067138672 211.50999450683594 102.95099639892578
v 239.0659942626953 209.81700134277344 102.89800262451172
v 230.75799560546875 204.26100158691406 102.3479995727539
v 229.802001953125 205.5850067138672 98.73639678955078
v 230.16299438476562 205.5290069580078 97.16519927978516
v 236.2740020751953 227.87899780273438 117.5530014038086
v 240.2740020751953 227.39100646972656 120.83699798583984
v 237.5970001220703 209.76199340820312 95.16290283203125
v 234.2469940185547 201.23800659179688 97.6321029663086
v 234.87100219726562 226.427001953125 113.11000061035156
v 234.4080047607422 214.43299865722656 118.4010009765625
v 229.94700622558594 219.23199462890625 115.56199645996094
v 242.8459930419922 226.9600067138672 121.28600311279297
v 237.4810028076172 218.33700561523438 119.8489990234375
v 233.73800659179688 221.84800720214844 120.5989990234375
v 230.0850067138672 215.38999938964844 108.5780029296875
v 235.12899780273438 227.63999938964844 118.95899963378906
v 236.5570068359375 225.49099731445312 124.27200317382812
v 236.7449951171875 225.87399291992188 112.13800048828125
v 233.08700561523438 201.7550048828125 98.83159637451172
v 230.96400451660156 213.14100646972656 115.56900024414062
v 245.3260040283203 225.36399841308594 122.65699768066406
v 234.30499267578125 225.6699981689453 121.43199920654297
v 240.52999877929688 219.6179962158203 110.49700164794922
v 236.96299743652344 210.65199279785156 97.64790344238281
v 230.47500610351562 210.15199279785156 109.28600311279297
v 242.42799377441406 219.53599548339844 117.68199920654297
v 243.64100646972656 223.7239990234375 123.7750015258789
v 237.8070068359375 210.39999389648438 99.20359802246094
v 236.03399658203125 224.78500366210938 123.0989990234375
v 231.33399963378906 222.70899963378906 119.22799682617188
v 245.22300720214844 224.2030029296875 122.20899963378906
v 234.5229949951172 226.75 121.36900329589844
v 235.4739990234375 212.30099487304688 99.56610107421875
v 240.39599609375 214.19500732421875 108.06199645996094
v 244.01400756835938 224.5469970703125 119.9540023803711
v 238.99400329589844 207.28799438476562 96.54170227050781
v 238.17799377441406 204.6510009765625 97.50199890136719

g grp1
usemtl mtl1
f 217 2 1 
f 196 1 2 
f 189 4 3 
f 400 3 4 
f 390 6 5 
f 145 5 6 
f 258 8 7 
f 62 7 8 
f 380 10 9 
f 86 9 10 
f 85 12 11 
f 203 11 12 
f 287 14 13 
f 272 13 14 
f 265 16 15 
f 365 15 16 
f 19 18 17 
f 36 17 18 
f 24 18 19 
f 122 21 20 
f 26 20 21 
f 339 23 22 
f 135 22 23 
f 43 24 19 
f 177 26 25 
f 232 25 26 
f 271 28 27 
f 103 27 28 
f 356 29 2 
f 196 2 29 
f 90 31 30 
f 188 30 31 
f 170 33 32 
f 202 32 33 
f 271 35 34 
f 59 34 35 
f 41 17 36 
f 58 38 37 
f 99 37 38 
f 382 40 39 
f 127 39 40 
f 42 19 17 
f 42 17 41 
f 44 43 19 
f 44 19 42 
f 194 46 45 
f 213 45 46 
f 32 48 47 
f 234 47 48 
f 394 50 49 
f 379 49 50 
f 348 52 51 
f 334 51 52 
f 339 54 53 
f 244 53 54 
f 61 41 55 
f 36 55 41 
f 381 57 56 
f 397 56 57 
f 361 38 58 
f 35 60 59 
f 260 59 60 
f 67 41 61 
f 220 62 58 
f 162 58 62 
f 67 42 41 
f 164 64 63 
f 86 63 64 
f 248 66 65 
f 100 65 66 
f 68 44 42 
f 68 42 67 
f 384 70 69 
f 318 69 70 
f 71 44 68 
f 43 44 71 
f 74 73 72 
f 237 72 73 
f 395 75 74 
f 78 74 75 
f 272 77 76 
f 311 76 77 
f 387 78 75 
f 61 55 79 
f 92 79 55 
f 80 67 61 
f 80 61 79 
f 372 82 81 
f 325 81 82 
f 87 67 80 
f 40 84 83 
f 111 83 84 
f 395 85 11 
f 64 9 86 
f 87 68 67 
f 97 68 87 
f 334 89 88 
f 343 88 89 
f 97 71 68 
f 345 91 90 
f 355 90 91 
f 102 93 92 
f 79 92 93 
f 94 80 79 
f 94 79 93 
f 94 95 87 
f 96 87 95 
f 87 80 94 
f 97 87 96 
f 402 99 98 
f 332 98 99 
f 66 101 100 
f 117 100 101 
f 102 94 93 
f 95 94 102 
f 378 103 28 
f 223 105 104 
f 3 104 105 
f 356 107 106 
f 102 106 107 
f 393 109 108 
f 82 108 109 
f 229 111 110 
f 120 110 111 
f 245 113 112 
f 391 112 113 
f 34 115 114 
f 248 114 115 
f 290 117 116 
f 146 116 117 
f 391 119 118 
f 207 118 119 
f 49 121 120 
f 378 120 121 
f 141 21 122 
f 203 12 123 
f 376 123 12 
f 337 125 124 
f 144 124 125 
f 275 127 126 
f 83 126 127 
f 362 129 128 
f 324 128 129 
f 146 130 116 
f 284 116 130 
f 139 132 131 
f 184 131 132 
f 92 134 133 
f 45 133 134 
f 23 136 135 
f 374 135 136 
f 290 100 117 
f 217 137 2 
f 356 2 137 
f 263 139 138 
f 367 138 139 
f 337 124 121 
f 103 121 124 
f 364 141 140 
f 122 140 141 
f 266 143 142 
f 380 142 143 
f 186 144 125 
f 278 5 145 
f 360 147 146 
f 130 146 147 
f 313 149 148 
f 288 148 149 
f 83 127 40 
f 399 100 150 
f 290 150 100 
f 330 152 151 
f 153 151 152 
f 154 151 153 
f 158 151 154 
f 6 64 155 
f 164 155 64 
f 57 157 156 
f 328 156 157 
f 159 158 154 
f 183 158 159 
f 290 161 160 
f 270 160 161 
f 138 162 62 
f 115 101 66 
f 383 140 163 
f 352 163 140 
f 63 165 164 
f 185 164 165 
f 288 166 10 
f 86 10 166 
f 193 168 167 
f 380 167 168 
f 33 170 169 
f 341 169 170 
f 46 172 171 
f 152 171 172 
f 262 5 173 
f 278 173 5 
f 390 167 174 
f 9 174 167 
f 203 123 125 
f 186 125 123 
f 359 176 175 
f 63 175 176 
f 293 177 25 
f 250 136 23 
f 178 154 153 
f 178 153 172 
f 152 172 153 
f 179 159 154 
f 179 154 178 
f 189 3 105 
f 401 181 180 
f 242 180 181 
f 182 159 179 
f 183 159 182 
f 242 183 182 
f 259 155 184 
f 306 184 155 
f 217 1 185 
f 306 185 1 
f 211 187 186 
f 198 186 187 
f 386 189 188 
f 105 188 189 
f 96 95 190 
f 102 190 95 
f 194 172 46 
f 372 190 191 
f 107 191 190 
f 169 192 33 
f 241 33 192 
f 390 193 167 
f 201 172 194 
f 347 196 195 
f 261 195 196 
f 274 198 197 
f 385 197 198 
f 385 187 199 
f 212 199 187 
f 226 15 200 
f 365 200 15 
f 178 201 18 
f 36 18 201 
f 172 201 178 
f 241 202 33 
f 168 193 199 
f 210 199 193 
f 212 168 199 
f 18 179 178 
f 216 205 204 
f 236 204 205 
f 24 179 18 
f 182 179 24 
f 245 112 206 
f 277 206 112 
f 378 28 207 
f 271 207 28 
f 20 26 177 
f 48 32 208 
f 202 208 32 
f 313 209 149 
f 166 149 209 
f 147 210 193 
f 256 212 211 
f 187 211 212 
f 302 213 46 
f 48 215 214 
f 264 214 215 
f 222 30 188 
f 327 216 73 
f 237 73 216 
f 165 217 185 
f 4 219 218 
f 225 218 219 
f 292 221 220 
f 7 220 221 
f 385 199 210 
f 105 223 222 
f 346 222 223 
f 218 225 224 
f 246 224 225 
f 302 46 171 
f 294 227 226 
f 15 226 227 
f 262 173 130 
f 284 130 173 
f 343 229 228 
f 268 228 229 
f 96 81 97 
f 71 97 81 
f 298 219 4 
f 396 231 230 
f 392 230 231 
f 26 233 232 
f 399 232 233 
f 48 214 234 
f 382 234 214 
f 204 236 235 
f 148 235 236 
f 300 239 238 
f 307 238 239 
f 352 240 236 
f 148 236 240 
f 370 202 241 
f 138 62 8 
f 98 183 242 
f 126 83 243 
f 111 243 83 
f 340 245 244 
f 303 244 245 
f 392 246 230 
f 225 230 246 
f 277 248 247 
f 65 247 248 
f 63 86 166 
f 287 249 14 
f 253 14 249 
f 363 251 250 
f 383 250 251 
f 134 194 45 
f 369 253 252 
f 249 252 253 
f 104 255 254 
f 358 254 255 
f 266 142 256 
f 212 256 142 
f 284 258 257 
f 7 257 258 
f 6 259 145 
f 132 145 259 
f 115 59 101 
f 117 101 59 
f 117 59 260 
f 36 194 55 
f 134 55 194 
f 213 261 196 
f 390 5 262 
f 208 215 48 
f 198 144 186 
f 320 148 240 
f 8 263 138 
f 397 264 215 
f 399 265 232 
f 227 232 265 
f 308 204 266 
f 235 266 204 
f 352 122 240 
f 20 240 122 
f 224 268 267 
f 281 267 268 
f 366 270 269 
f 221 269 270 
f 319 271 34 
f 349 273 272 
f 77 272 273 
f 144 198 274 
f 16 160 270 
f 283 276 275 
f 324 275 276 
f 338 241 192 
f 319 114 277 
f 248 277 114 
f 145 263 278 
f 8 278 263 
f 339 22 241 
f 370 241 22 
f 396 225 219 
f 355 91 279 
f 305 279 91 
f 360 210 147 
f 267 281 280 
f 119 280 281 
f 55 134 92 
f 298 4 189 
f 132 263 145 
f 367 131 282 
f 299 282 131 
f 367 139 131 
f 348 283 52 
f 275 52 283 
f 258 284 173 
f 300 286 285 
f 341 285 286 
f 325 71 81 
f 384 287 70 
f 13 70 287 
f 235 288 143 
f 10 143 288 
f 348 239 289 
f 300 289 239 
f 150 290 160 
f 12 85 291 
f 323 291 85 
f 221 292 269 
f 353 269 292 
f 116 284 161 
f 257 161 284 
f 227 25 232 
f 45 213 29 
f 196 29 213 
f 106 102 92 
f 25 294 293 
f 359 293 294 
f 400 295 255 
f 340 255 295 
f 359 294 296 
f 226 296 294 
f 281 110 297 
f 378 297 110 
f 347 195 299 
f 368 299 195 
f 342 300 238 
f 273 302 301 
f 171 301 302 
f 245 304 303 
f 141 303 304 
f 51 88 305 
f 343 305 88 
f 350 99 38 
f 107 190 102 
f 347 184 306 
f 391 280 119 
f 51 305 307 
f 91 307 305 
f 78 57 156 
f 216 204 308 
f 304 21 141 
f 274 197 309 
f 360 309 197 
f 312 311 310 
f 315 310 311 
f 76 311 312 
f 143 266 235 
f 270 161 257 
f 177 293 313 
f 209 313 293 
f 347 1 196 
f 322 310 314 
f 315 314 310 
f 342 286 300 
f 316 315 311 
f 316 311 77 
f 226 200 317 
f 393 317 200 
f 176 296 165 
f 398 165 296 
f 13 76 312 
f 304 245 206 
f 70 312 318 
f 310 318 312 
f 114 319 34 
f 20 320 240 
f 152 301 171 
f 347 306 1 
f 331 322 321 
f 314 321 322 
f 399 65 100 
f 59 115 34 
f 319 207 271 
f 398 296 226 
f 216 308 323 
f 291 323 308 
f 316 273 301 
f 128 324 276 
f 401 325 82 
f 213 302 326 
f 349 326 302 
f 73 328 327 
f 374 327 328 
f 316 329 315 
f 314 315 329 
f 299 131 184 
f 330 314 329 
f 321 314 330 
f 332 331 321 
f 333 332 321 
f 333 321 330 
f 88 51 334 
f 129 39 324 
f 127 324 39 
f 36 201 194 
f 221 257 7 
f 367 336 335 
f 287 335 336 
f 148 320 313 
f 177 313 320 
f 388 26 21 
f 329 301 152 
f 378 121 103 
f 395 74 72 
f 316 301 329 
f 54 339 338 
f 241 338 339 
f 388 233 26 
f 173 278 258 
f 8 258 278 
f 113 245 340 
f 152 330 329 
f 53 250 23 
f 333 330 151 
f 47 234 129 
f 382 129 234 
f 344 285 341 
f 390 147 193 
f 396 230 225 
f 386 298 189 
f 279 305 343 
f 128 344 341 
f 220 58 292 
f 37 292 58 
f 119 281 297 
f 112 319 277 
f 30 346 345 
f 238 345 346 
f 184 347 299 
f 239 348 307 
f 51 307 348 
f 253 349 272 
f 361 350 38 
f 365 351 200 
f 393 200 351 
f 142 168 212 
f 363 53 244 
f 205 163 352 
f 116 161 290 
f 109 269 353 
f 304 206 354 
f 277 354 206 
f 31 355 231 
f 392 231 355 
f 333 158 332 
f 183 332 158 
f 345 238 307 
f 133 356 106 
f 254 358 357 
f 371 357 358 
f 253 326 349 
f 176 359 296 
f 69 318 310 
f 349 302 273 
f 385 198 187 
f 71 180 43 
f 182 43 180 
f 374 163 327 
f 205 327 163 
f 398 137 217 
f 285 289 300 
f 197 210 360 
f 379 337 121 
f 369 326 253 
f 390 262 147 
f 130 147 262 
f 132 259 184 
f 162 361 58 
f 402 242 181 
f 124 144 103 
f 375 103 144 
f 341 362 128 
f 303 364 363 
f 251 363 364 
f 379 121 49 
f 23 339 53 
f 16 366 365 
f 351 365 366 
f 394 214 264 
f 162 138 367 
f 195 369 368 
f 252 368 369 
f 106 92 133 
f 164 306 155 
f 263 132 139 
f 13 312 70 
f 162 367 335 
f 156 74 78 
f 292 37 353 
f 402 353 37 
f 248 115 66 
f 354 21 304 
f 169 371 192 
f 338 192 371 
f 82 372 108 
f 389 108 372 
f 25 227 294 
f 350 373 331 
f 322 331 373 
f 324 127 275 
f 267 280 295 
f 113 295 280 
f 363 250 53 
f 195 261 369 
f 326 369 261 
f 383 374 136 
f 326 261 213 
f 103 375 27 
f 35 27 375 
f 60 274 309 
f 291 376 12 
f 391 113 280 
f 303 141 364 
f 346 377 342 
f 357 342 377 
f 162 335 361 
f 384 361 335 
f 133 29 356 
f 281 229 110 
f 380 9 167 
f 99 331 332 
f 319 118 207 
f 133 45 29 
f 247 354 277 
f 316 77 273 
f 358 340 54 
f 244 54 340 
f 297 378 207 
f 50 75 379 
f 395 379 75 
f 142 380 168 
f 69 322 373 
f 157 57 381 
f 143 10 380 
f 223 104 254 
f 394 40 382 
f 90 30 345 
f 401 82 109 
f 352 236 205 
f 251 364 140 
f 39 129 382 
f 343 243 229 
f 111 229 243 
f 169 341 286 
f 136 250 383 
f 287 384 335 
f 366 16 270 
f 283 289 344 
f 285 344 289 
f 188 31 386 
f 231 386 31 
f 372 81 96 
f 274 375 144 
f 378 110 120 
f 268 229 281 
f 166 288 149 
f 336 367 282 
f 397 387 264 
f 50 264 387 
f 185 306 164 
f 247 388 354 
f 21 354 388 
f 398 389 137 
f 191 137 389 
f 6 390 174 
f 140 383 251 
f 227 265 15 
f 372 96 190 
f 188 105 222 
f 332 183 98 
f 317 393 389 
f 108 389 393 
f 118 112 391 
f 358 338 371 
f 357 286 342 
f 358 54 338 
f 394 382 214 
f 40 394 84 
f 49 84 394 
f 180 71 325 
f 269 351 366 
f 363 244 303 
f 13 272 76 
f 283 344 276 
f 128 276 344 
f 120 111 84 
f 297 207 119 
f 293 359 209 
f 175 209 359 
f 85 395 72 
f 157 22 135 
f 386 231 396 
f 215 56 397 
f 56 208 202 
f 346 30 222 
f 346 342 238 
f 166 209 175 
f 113 340 295 
f 368 252 282 
f 336 282 252 
f 210 197 385 
f 165 398 217 
f 14 253 272 
f 123 211 186 
f 211 376 256 
f 266 256 376 
f 368 282 299 
f 376 308 266 
f 150 265 399 
f 85 72 323 
f 237 323 72 
f 252 249 336 
f 287 336 249 
f 112 118 319 
f 402 98 242 
f 56 202 381 
f 370 381 202 
f 348 289 283 
f 387 75 50 
f 170 362 341 
f 90 355 31 
f 394 264 50 
f 233 388 247 
f 104 400 255 
f 317 398 226 
f 150 160 16 
f 3 400 104 
f 65 233 247 
f 84 49 120 
f 257 221 270 
f 228 268 246 
f 224 246 268 
f 337 203 125 
f 340 358 255 
f 384 373 350 
f 180 325 401 
f 123 376 211 
f 265 150 16 
f 78 387 57 
f 397 57 387 
f 11 379 395 
f 384 350 361 
f 271 27 35 
f 384 69 373 
f 24 43 182 
f 260 309 360 
f 148 288 235 
f 60 375 274 
f 137 191 107 
f 396 219 298 
f 377 346 223 
f 337 11 203 
f 156 73 74 
f 356 137 107 
f 11 337 379 
f 242 182 180 
f 392 279 228 
f 343 228 279 
f 191 389 372 
f 218 295 400 
f 174 9 64 
f 377 254 357 
f 126 243 89 
f 343 89 243 
f 233 65 399 
f 386 396 298 
f 322 69 310 
f 62 220 7 
f 157 135 328 
f 374 328 135 
f 295 218 267 
f 224 267 218 
f 323 237 216 
f 279 392 355 
f 327 205 216 
f 371 169 286 
f 376 291 308 
f 259 6 155 
f 370 157 381 
f 345 307 91 
f 20 177 320 
f 156 328 73 
f 350 331 99 
f 146 260 360 
f 223 254 377 
f 35 375 60 
f 47 362 170 
f 22 157 370 
f 334 275 126 
f 351 269 109 
f 228 246 392 
f 353 402 181 
f 260 60 309 
f 63 166 175 
f 353 181 401 
f 109 353 401 
f 47 129 362 
f 117 260 146 
f 352 140 122 
f 400 4 218 
f 374 383 163 
f 89 334 126 
f 99 402 37 
f 64 6 174 
f 158 333 151 
f 165 63 176 
f 52 275 334 
f 286 357 371 
f 389 398 317 
f 215 208 56 
f 32 47 170 
f 393 351 109 
