#  wavefront obj file written by the visualization toolkit

mtllib leftsurrenalgland.mtl

v 232.10899353027344 204.73300170898438 93.37840270996094
v 233.61199951171875 203.2949981689453 92.6520004272461
v 252.8350067138672 222.5919952392578 113.7490005493164
v 253.60699462890625 221.12100219726562 112.85600280761719
v 243.4029998779297 197.927001953125 87.30549621582031
v 243.16299438476562 198.45199584960938 86.75240325927734
v 246.3990020751953 201.3040008544922 87.07060241699219
v 245.79600524902344 200.56500244140625 86.72319793701172
v 244.31399536132812 197.88900756835938 87.58650207519531
v 243.88400268554688 198.40899658203125 86.78700256347656
v 245.14700317382812 198.0679931640625 87.53949737548828
v 244.7209930419922 198.4250030517578 86.83540344238281
v 253.22799682617188 218.8040008544922 110.80599975585938
v 254.2050018310547 219.2760009765625 111.69599914550781
v 246.5489959716797 198.38499450683594 89.21080017089844
v 247.61500549316406 198.77999877929688 90.13269805908203
v 234.39999389648438 199.0590057373047 93.40630340576172
v 235.51199340820312 198.4810028076172 92.30220031738281
v 249.44500732421875 203.08700561523438 87.35099792480469
v 248.76800537109375 202.0709991455078 86.79039764404297
v 229.927001953125 212.29200744628906 100.89900207519531
v 231.17300415039062 213.75599670410156 100.1969985961914
v 245.6739959716797 198.5800018310547 94.46990203857422
v 243.56300354003906 198.84800720214844 97.36669921875
v 242.18899536132812 199.06199645996094 87.10749816894531
v 242.53900146484375 198.23699951171875 87.19409942626953
v 242.89500427246094 199.02699279785156 86.65699768066406
v 243.66000366210938 199.052001953125 86.50630187988281
v 244.44500732421875 199.05799865722656 86.497802734375
v 245.75 198.53599548339844 87.0145034790039
v 245.25999450683594 199.05999755859375 86.52159881591797
v 236.1009979248047 198.4739990234375 91.27410125732422
v 230.9250030517578 205.74600219726562 119.24600219726562
v 231.2169952392578 206.87100219726562 120.42500305175781
v 237.16600036621094 222.08999633789062 107.43000030517578
v 238.3159942626953 222.71400451660156 108.9739990234375
v 246.80299377441406 198.68099975585938 87.73709869384766
v 229.67999267578125 220.4510040283203 122.31300354003906
v 230.33399963378906 222.1750030517578 119.73799896240234
v 246.77699279785156 199.14300537109375 86.8739013671875
v 239.8350067138672 199.36000061035156 88.73690032958984
v 239.15199279785156 199.92999267578125 89.22329711914062
v 242.69000244140625 225.03599548339844 125.85900115966797
v 244.12100219726562 225.18600463867188 124.89600372314453
v 233.08900451660156 218.13600158691406 103.91699981689453
v 234.38800048828125 220.66299438476562 105.66500091552734
v 252.5469970703125 205.91600036621094 103.4530029296875
v 249.76699829101562 205.58999633789062 104.90799713134766
v 242.83099365234375 199.66000366210938 86.81430053710938
v 243.54100036621094 199.73500061035156 86.55999755859375
v 244.31399536132812 199.76300048828125 86.49659729003906
v 245.11500549316406 199.78399658203125 86.48380279541016
v 246.03500366210938 199.16900634765625 86.55359649658203
v 245.92799377441406 199.80299377441406 86.46029663085938
v 246.7449951171875 199.8179931640625 86.50379943847656
v 251.78199768066406 221.45399475097656 117.88099670410156
v 252.00900268554688 222.9219970703125 118.99600219726562
v 231.22900390625 199.39300537109375 100.62999725341797
v 229.6719970703125 200.2779998779297 100.9469985961914
v 247.6219940185547 199.8560028076172 86.69660186767578
v 255.01100158691406 215.4949951171875 108.38200378417969
v 256.0419921875 215.28700256347656 109.31400299072266
v 236.90899658203125 210.54100036621094 93.93379974365234
v 237.5780029296875 210.00599670410156 92.69309997558594
v 249.13900756835938 199.61399841308594 87.57319641113281
v 248.5489959716797 199.9530029296875 86.82440185546875
v 247.94700622558594 199.30299377441406 87.51439666748047
v 232.1959991455078 203.0449981689453 93.21659851074219
v 231.7469940185547 201.7689971923828 93.65010070800781
v 249.33200073242188 200.05799865722656 86.83540344238281
v 237.56900024414062 202.1020050048828 91.1709976196289
v 238.78500366210938 201.12600708007812 89.9990005493164
v 244.78500366210938 215.16299438476562 108.9229965209961
v 248.0500030517578 217.04600524902344 110.07599639892578
v 231.3459930419922 223.91099548339844 121.91799926757812
v 233.15899658203125 225.8470001220703 124.04399871826172
v 243.36300659179688 200.30299377441406 86.96070098876953
v 242.2050018310547 199.93699645996094 87.49310302734375
v 244.13400268554688 200.39100646972656 86.76360321044922
v 244.9409942626953 200.4949951171875 86.78179931640625
v 246.66900634765625 200.59100341796875 86.57319641113281
v 247.5189971923828 200.61199951171875 86.51100158691406
v 248.33399963378906 200.6020050048828 86.49120330810547
v 249.1439971923828 200.6280059814453 86.49720001220703
v 249.38400268554688 218.42999267578125 111.09200286865234
v 249.75 219.8459930419922 112.52999877929688
v 249.93299865722656 200.61900329589844 86.5988998413086
v 250.94000244140625 207.74200439453125 107.01799774169922
v 234.7989959716797 200.4949951171875 91.65019989013672
v 236.0780029296875 200.8699951171875 91.06929779052734
v 250.22500610351562 200.04299926757812 87.38009643554688
v 230.08099365234375 221.2449951171875 124.27300262451172
v 229.4340057373047 219.7830047607422 124.18900299072266
v 229.7760009765625 217.08900451660156 126.3280029296875
v 230.3179931640625 218.2050018310547 126.34500122070312
v 242.03799438476562 203.52000427246094 106.33300018310547
v 239.531005859375 203.16799926757812 108.12100219726562
v 238.9149932861328 218.072998046875 106.03299713134766
v 241.4459991455078 215.4929962158203 107.4530029296875
v 243.16099548339844 201.08700561523438 87.90470123291016
v 243.95199584960938 200.93099975585938 87.27469635009766
v 244.61099243164062 201.03599548339844 87.24590301513672
v 245.48899841308594 201.36199951171875 87.3864974975586
v 230.43299865722656 198.37100219726562 104.92900085449219
v 231.19000244140625 198.24000549316406 103.82599639892578
v 235.18099975585938 218.3040008544922 103.47100067138672
v 236.10499572753906 219.8159942626953 104.96900177001953
v 241.61099243164062 213.0290069580078 105.76699829101562
v 241.70799255371094 212.55299377441406 104.89399719238281
v 247.47999572753906 201.59800720214844 86.9219970703125
v 248.27200317382812 201.28799438476562 86.52469635009766
v 249.05299377441406 201.36000061035156 86.45559692382812
v 249.85000610351562 201.36599731445312 86.427001953125
v 250.73699951171875 200.71499633789062 86.73999786376953
v 250.65199279785156 201.3730010986328 86.45709991455078
v 237.7239990234375 222.58700561523438 126.14099884033203
v 236.1510009765625 221.61000061035156 126.69999694824219
v 251.47300720214844 201.38699340820312 86.5730972290039
v 251.83700561523438 219.17100524902344 111.26899719238281
v 238.96400451660156 213.6269989013672 119.58599853515625
v 238.6999969482422 211.40199279785156 118.2300033569336
v 251.54200744628906 200.68099975585938 87.29789733886719
v 252.31300354003906 201.468994140625 86.74739837646484
v 230.20899963378906 210.98500061035156 109.83200073242188
v 229.82899475097656 214.40899658203125 109.68900299072266
v 239.59500122070312 202.84500122070312 91.22779846191406
v 241.197998046875 202.3780059814453 90.18219757080078
v 253.02999877929688 201.6199951171875 87.02429962158203
v 252.5399932861328 201.07699584960938 87.47239685058594
v 256.1549987792969 210.3159942626953 100.97100067138672
v 256.2430114746094 210.88499450683594 103.42400360107422
v 234.9429931640625 199.0290069580078 103.95899963378906
v 234.81900024414062 198.71600341796875 106.45600128173828
v 239.56900024414062 228.677001953125 126.36799621582031
v 238.1959991455078 228.7209930419922 126.3290023803711
v 248.73599243164062 223.8070068359375 114.71399688720703
v 249.9409942626953 223.04400634765625 114.03500366210938
v 229.46800231933594 205.9409942626953 97.2865982055664
v 229.51499938964844 208.36500549316406 98.55500030517578
v 238.42100524902344 209.1510009765625 92.78250122070312
v 238.22999572753906 208.13999938964844 91.8147964477539
v 230.8520050048828 199.7100067138672 98.74240112304688
v 231.52499389648438 208.26300048828125 121.36399841308594
v 230.54600524902344 208.08099365234375 120.38700103759766
v 235.61000061035156 228.16299438476562 112.73699951171875
v 237.04600524902344 228.11399841308594 112.8290023803711
v 249.74600219726562 202.1269989013672 86.58090209960938
v 250.58200073242188 202.1230010986328 86.48100280761719
v 251.39599609375 202.14300537109375 86.4540023803711
v 252.2030029296875 202.1510009765625 86.46949768066406
v 252.98899841308594 202.1739959716797 86.6436996459961
v 253.2480010986328 201.43499755859375 88.03240203857422
v 235.39300537109375 231.09500122070312 118.23799896240234
v 236.86000061035156 231.05499267578125 118.88400268554688
v 235.89100646972656 231.33200073242188 119.54000091552734
v 236.99000549316406 231.3470001220703 120.58599853515625
v 241.14300537109375 214.1269989013672 105.88899993896484
v 247.24200439453125 198.79299926757812 92.30619812011719
v 245.92100524902344 198.21299743652344 91.38790130615234
v 247.9250030517578 202.81100463867188 87.70240020751953
v 230.4949951171875 207.21600341796875 119.36299896240234
v 230.1790008544922 207.07200622558594 118.0479965209961
v 230.7050018310547 200.38299560546875 113.36199951171875
v 230.04600524902344 200.77699279785156 112.23600006103516
v 231.41400146484375 211.1820068359375 123.14299774169922
v 230.3699951171875 210.93600463867188 122.88099670410156
v 250.3560028076172 202.7429962158203 86.77780151367188
v 251.20799255371094 202.8560028076172 86.6937026977539
v 252.10000610351562 202.88299560546875 86.55889892578125
v 252.8800048828125 202.8820037841797 86.55400085449219
v 253.68099975585938 202.09100341796875 87.38490295410156
v 253.5749969482422 202.8350067138672 86.84190368652344
v 233.7570037841797 215.17599487304688 100.03700256347656
v 234.20599365234375 213.6540069580078 98.93419647216797
v 253.97900390625 211.83200073242188 110.33200073242188
v 254.03399658203125 211.02099609375 109.11599731445312
v 235.18299865722656 229.07899475097656 123.35199737548828
v 234.71299743652344 229.7899932861328 121.23899841308594
v 240.552001953125 228.9510040283203 126.1500015258789
v 241.08099365234375 229.7449951171875 124.77799987792969
v 244.71800231933594 207.60400390625 110.822998046875
v 240.58799743652344 205.51300048828125 110.43099975585938
v 235.55999755859375 230.7830047607422 117.00199890136719
v 236.91799926757812 230.35800170898438 117.18900299072266
v 250.67599487304688 203.4810028076172 87.33499908447266
v 248.18600463867188 199.40199279785156 93.760498046875
v 235.42300415039062 209.01400756835938 91.41570281982422
v 236.09500122070312 209.906005859375 91.87560272216797
v 230.33599853515625 211.4320068359375 112.73600006103516
v 251.82400512695312 203.61300659179688 87.10189819335938
v 252.73599243164062 203.51699829101562 86.8147964477539
v 253.40199279785156 203.42100524902344 86.85389709472656
v 254.1199951171875 202.74000549316406 87.43209838867188
v 254.00999450683594 203.39300537109375 87.30030059814453
v 234.85699462890625 200.70899963378906 112.4729995727539
v 233.79600524902344 199.95399475097656 112.56900024414062
v 236.99600219726562 208.46400451660156 117.85900115966797
v 237.60400390625 210.23599243164062 118.83599853515625
v 252.58900451660156 204.0330047607422 87.2833023071289
v 253.49099731445312 203.97799682617188 87.33899688720703
v 254.01800537109375 204.63499450683594 88.06549835205078
v 254.36599731445312 205.2570037841797 88.76719665527344
v 252.50100708007812 211.93299865722656 111.30400085449219
v 251.74000549316406 213.17300415039062 112.14199829101562
v 243.16700744628906 197.34800720214844 88.83499908447266
v 242.22999572753906 197.70700073242188 88.17610168457031
v 242.29299926757812 197.33299255371094 89.56809997558594
v 245.0260009765625 227.2760009765625 120.375
v 246.0229949951172 227.21299743652344 121.01200103759766
v 253.6750030517578 212.96200561523438 111.60299682617188
v 242.92799377441406 218.6719970703125 110.95899963378906
v 244.29100036621094 220.31100463867188 112.97599792480469
v 243.70199584960938 197.54400634765625 88.0770034790039
v 231.37600708007812 201.63699340820312 116.39900207519531
v 231.44700622558594 202.3990020751953 117.10099792480469
v 232.53199768066406 202.10000610351562 116.76200103759766
v 232.4199981689453 201.31399536132812 115.80699920654297
v 229.6320037841797 221.9040069580078 115.0250015258789
v 230.64599609375 222.80299377441406 112.56800079345703
v 231.7480010986328 199.2550048828125 111.53700256347656
v 236.64300537109375 212.7429962158203 99.02580261230469
v 238.21200561523438 213.8489990234375 100.7959976196289
v 244.3800048828125 221.7469940185547 122.18299865722656
v 244.18800354003906 224.0709991455078 124.1709976196289
v 250.60000610351562 199.78799438476562 89.9136962890625
v 249.99200439453125 199.6269989013672 88.74140167236328
v 237.572998046875 197.98300170898438 95.0259017944336
v 236.58700561523438 198.57400512695312 96.39209747314453
v 241.8209991455078 198.36900329589844 87.57939910888672
v 255.0989990234375 204.60299682617188 88.67630004882812
v 239.677001953125 230.56399536132812 122.86399841308594
v 240.53399658203125 230.07699584960938 123.88500213623047
v 235.02499389648438 230.93299865722656 119.23899841308594
v 242.99899291992188 197.61399841308594 87.94029998779297
v 246.83399963378906 209.7740020751953 95.42970275878906
v 248.7689971923828 209.3509979248047 94.36540222167969
v 247.0469970703125 226.89700317382812 120.71399688720703
v 246.7449951171875 226.72300720214844 122.05899810791016
v 244.24400329589844 197.50900268554688 88.81510162353516
v 245.0330047607422 197.82000732421875 88.46410369873047
v 243.60400390625 228.6540069580078 124.00599670410156
v 244.94700622558594 227.64100646972656 123.61399841308594
v 245.83900451660156 198.1510009765625 88.23059844970703
v 228.91600036621094 217.0919952392578 121.81500244140625
v 228.89999389648438 215.66900634765625 121.31600189208984
v 238.35299682617188 201.24000549316406 106.33699798583984
v 234.69000244140625 199.4219970703125 92.01750183105469
v 235.51499938964844 199.46400451660156 91.3104019165039
v 252.53599548339844 210.67300415039062 110.31700134277344
v 250.88099670410156 211.24200439453125 111.30799865722656
v 236.07699584960938 207.03799438476562 90.81719970703125
v 236.8470001220703 207.83200073242188 90.57990264892578
v 231.68800354003906 222.36700439453125 110.47100067138672
v 232.802001953125 223.9969940185547 110.80599975585938
v 229.06300354003906 208.843994140625 103.1760025024414
v 229.52099609375 211.7969970703125 103.41100311279297
v 234.85899353027344 214.6699981689453 122.9800033569336
v 233.2689971923828 212.82200622558594 123.08399963378906
v 234.95399475097656 208.42100524902344 119.98600006103516
v 232.92999267578125 207.42300415039062 120.63999938964844
v 230.33099365234375 216.4040069580078 106.4739990234375
v 230.74600219726562 215.69900512695312 103.78399658203125
v 242.42100524902344 203.09800720214844 90.52290344238281
v 244.0279998779297 202.89700317382812 89.54419708251953
v 241.29400634765625 197.99400329589844 88.61669921875
v 241.41000366210938 198.96800231933594 87.79090118408203
v 257.3580017089844 206.5019989013672 96.43669891357422
v 257.2969970703125 207.57899475097656 97.52400207519531
v 240.08900451660156 198.18699645996094 89.4115982055664
v 238.99600219726562 198.8990020751953 89.45490264892578
v 241.28900146484375 209.4080047607422 97.22000122070312
v 242.63299560546875 208.58399963378906 96.11029815673828
v 247.73399353027344 198.89599609375 88.58470153808594
v 230.18899536132812 199.08399963378906 102.94300079345703
v 229.5449981689453 199.5540008544922 104.6520004272461
v 232.27099609375 213.70199584960938 99.21489715576172
v 246.05299377441406 204.81900024414062 90.89250183105469
v 248.5279998779297 204.89500427246094 89.74189758300781
v 232 197.9429931640625 104.98999786376953
v 229.9149932861328 205.781005859375 115.9530029296875
v 229.82000732421875 205.52499389648438 114.21900177001953
v 229.99400329589844 214.27999877929688 104.23400115966797
v 246.53900146484375 226.6490020751953 119.13099670410156
v 247.70199584960938 226.29400634765625 118.41799926757812
v 252.35499572753906 211.88499450683594 99.96630096435547
v 252.98199462890625 211.33900451660156 98.11139678955078
v 230.31199645996094 221.99000549316406 122.43900299072266
v 251.8419952392578 223.46600341796875 114.23799896240234
v 255.76499938964844 212.1490020751953 104.66200256347656
v 254.91000366210938 211.6320037841797 102.01899719238281
v 232.14599609375 215.22999572753906 124.78700256347656
v 231.46600341796875 216.1269989013672 125.91100311279297
v 240.8560028076172 199.73699951171875 88.1592025756836
v 235.48899841308594 223.41200256347656 127.72899627685547
v 234.51600646972656 221.88800048828125 127.29499816894531
v 230.8040008544922 212.40199279785156 99.42630004882812
v 251.5570068359375 208.9530029296875 93.80069732666016
v 248.71200561523438 207.92599487304688 93.08799743652344
v 229.77000427246094 200.51300048828125 98.53060150146484
v 230.6529998779297 199.95700073242188 96.82839965820312
v 236.38800048828125 205.7949981689453 91.42369842529297
v 237.60899353027344 205.9499969482422 91.47959899902344
v 243.54600524902344 204.5330047607422 91.7406005859375
v 254.2209930419922 218.60299682617188 114.87300109863281
v 253.38099670410156 217.77000427246094 114.50599670410156
v 248.79600524902344 199.26699829101562 88.83110046386719
v 229.78700256347656 210.86099243164062 121.8489990234375
v 229.14700317382812 218.48599243164062 122.50199890136719
v 253.718994140625 222.20199584960938 116.71800231933594
v 254.2449951171875 221.10299682617188 116.55899810791016
v 233.83200073242188 201.04600524902344 114.23100280761719
v 233.33799743652344 202.11199951171875 115.91999816894531
v 231.06100463867188 212.45899963378906 123.26499938964844
v 230.3419952392578 201.58799743652344 115.4219970703125
v 249.96499633789062 224.0290069580078 114.8030014038086
v 230.86300659179688 199.46099853515625 109.75599670410156
v 230.5760040283203 199.2270050048828 108.19599914550781
v 251.468994140625 200.21499633789062 90.19419860839844
v 251.4499969482422 200.5260009765625 92.16819763183594
v 240.031005859375 200.44700622558594 88.89640045166016
v 233.01699829101562 222.80999755859375 126.53399658203125
v 231.55299377441406 222.00900268554688 126.03500366210938
v 231.17799377441406 203.45899963378906 117.802001953125
v 230.15899658203125 204.64599609375 117.09300231933594
v 247.97999572753906 211.2550048828125 98.62889862060547
v 248.9810028076172 210.53599548339844 96.13890075683594
v 230.7779998779297 222.37600708007812 124.02300262451172
v 231.82899475097656 223.92100524902344 124.14099884033203
v 240.6719970703125 201.29400634765625 103.75
v 229.48599243164062 214.00900268554688 119.61100006103516
v 230.2519989013672 207.96400451660156 96.84929656982422
v 231.78500366210938 210.08099365234375 96.77249908447266
v 241.43699645996094 200.86599731445312 88.59310150146484
v 242.65499877929688 205.53700256347656 92.9822006225586
v 233.02099609375 217.18299865722656 125.72699737548828
v 231.33099365234375 217.29800415039062 126.36699676513672
v 232.67799377441406 210.5679931640625 122.41300201416016
v 237.9530029296875 197.531005859375 92.94139862060547
v 236.61700439453125 197.8419952392578 92.74729919433594
v 240.4499969482422 222.61300659179688 124.70700073242188
v 239.16799926757812 223.9929962158203 126.19200134277344
v 251.13600158691406 200.09300231933594 88.61589813232422
v 257.3550109863281 205.56500244140625 93.63809967041016
v 257.26800537109375 205.6739959716797 95.27739715576172
v 256.3450012207031 209.58299255371094 101.8270034790039
v 229.26199340820312 203.51400756835938 112.75800323486328
v 229.6739959716797 204.91900634765625 112.63200378417969
v 237.7050018310547 224.64700317382812 127.34300231933594
v 236.88499450683594 217.7259979248047 103.5270004272461
v 235.54100036621094 216.45899963378906 101.63300323486328
v 230.04200744628906 206.031005859375 117.25
v 257.4490051269531 208.2310028076172 96.31719970703125
v 256.9989929199219 208.843994140625 98.13169860839844
v 229.43899536132812 215.9459991455078 112.99700164794922
v 230.0970001220703 217.3520050048828 109.41999816894531
v 253.24000549316406 201.3489990234375 89.98280334472656
v 252.61199951171875 201.2030029296875 92.0165023803711
v 256.9179992675781 204.80499267578125 92.89430236816406
v 256.135986328125 204.5709991455078 95.13990020751953
v 242.18299865722656 213.9929962158203 107.03500366210938
v 229.86399841308594 202.3090057373047 96.0270004272461
v 229.3769989013672 201.89700317382812 97.94979858398438
v 242.3470001220703 226.40699768066406 126.34600067138672
v 240.29100036621094 226.84100341796875 126.40699768066406
v 237.8070068359375 209.18600463867188 91.7938003540039
v 231.31500244140625 217.20199584960938 104.86900329589844
v 228.86399841308594 201.2100067138672 104.49700164794922
v 228.78900146484375 201.86500549316406 102.36000061035156
v 233.9340057373047 205.53599548339844 92.60160064697266
v 244.77099609375 201.93800354003906 88.0553970336914
v 230.5030059814453 219.4029998779297 126.18099975585938
v 231.06300354003906 220.7050018310547 126.13300323486328
v 255.01300048828125 209.8000030517578 95.29679870605469
v 255.04299926757812 209.23300170898438 94.46610260009766
v 228.8249969482422 203.7239990234375 105.39099884033203
v 237.4149932861328 220.7239990234375 106.58999633789062
v 239.86300659179688 219.48599243164062 107.61299896240234
v 241.54600524902344 210.4429931640625 99.0696029663086
v 255.21800231933594 219.6999969482422 114.11299896240234
v 255.09500122070312 220.71499633789062 115.66500091552734
v 249.97900390625 204.21800231933594 102.29299926757812
v 229.63099670410156 219.0290069580078 119.90399932861328
v 252.06500244140625 200.5749969482422 88.59310150146484
v 252.73699951171875 200.98300170898438 88.68180084228516
v 243.53199768066406 226.322998046875 125.74099731445312
v 229.6269989013672 210.9980010986328 120.16600036621094
v 229.43600463867188 212.39199829101562 120.50700378417969
v 231.60699462890625 198.73199462890625 102.3280029296875
v 251.60699462890625 222.69200134277344 113.75700378417969
v 235.78199768066406 205.25999450683594 116.48899841308594
v 234.61199951171875 204.3280029296875 117.0260009765625
v 256.4830017089844 209.85499572753906 99.17469787597656
v 255.00599670410156 210.98899841308594 99.29000091552734
v 236.49600219726562 228.06700134277344 126.26499938964844
v 238.60400390625 227.0760040283203 126.53500366210938
v 235.81700134277344 202.39599609375 112.99500274658203
v 255.10400390625 218.0030059814453 113.16400146484375
v 255.32000732421875 218.26100158691406 112.11900329589844
v 255.156005859375 211.2570037841797 107.93099975585938
v 255.14999389648438 212.31700134277344 109.27300262451172
v 254.08700561523438 204.27200317382812 97.80960083007812
v 251.0850067138672 203.23800659179688 99.35590362548828
v 244.17300415039062 211.13099670410156 101.08000183105469
v 246.1909942626953 211.62100219726562 101.71499633789062
v 246.427001953125 202.24000549316406 87.80619812011719
v 250.56399536132812 224.39100646972656 115.16699981689453
v 250.8509979248047 223.64199829101562 114.39600372314453
v 229.8730010986328 206.66600036621094 111.65499877929688
v 229.85299682617188 208.48599243164062 108.50499725341797
v 245.843994140625 218.03500366210938 118.4469985961914
v 243.77999877929688 219.1510009765625 120.64600372314453
v 232.76600646972656 226.8040008544922 121.0999984741211
v 233.95599365234375 229.54400634765625 119.75499725341797
v 251.5850067138672 216.01100158691406 108.322998046875
v 253.3939971923828 216.46499633789062 108.7490005493164
v 232.19900512695312 227.53799438476562 115.9489974975586
v 232.4080047607422 227.6439971923828 118.58799743652344
v 231.1280059814453 207.7790069580078 95.38279724121094
v 253.8159942626953 201.74400329589844 88.75650024414062
v 233.61900329589844 216.49899291992188 101.52799987792969
v 255.79800415039062 217.39300537109375 111.14299774169922
v 256.13800048828125 216.38400268554688 110.36100006103516
v 243.44400024414062 208.63099670410156 111.9229965209961
v 230.0260009765625 207.2209930419922 116.26200103759766
v 247.24200439453125 225.71499633789062 122.0459976196289
v 247.5 226.3179931640625 121.30400085449219
v 233.2239990234375 209.16000366210938 121.25
v 228.57400512695312 214.98800659179688 123.03399658203125
v 228.4600067138672 216.17799377441406 122.64099884033203
v 236.67999267578125 206.97799682617188 116.61599731445312
v 231.64599609375 219.177001953125 126.4000015258789
v 255.7429962158203 205.92999267578125 90.08370208740234
v 256.3039855957031 205.2899932861328 90.01080322265625
v 243.93099975585938 227.68600463867188 125.19000244140625
v 239.12399291992188 225.38999938964844 126.61699676513672
v 237.6179962158203 225.67599487304688 127.19999694824219
v 253.59500122070312 201.71299743652344 91.47160339355469
v 255.7760009765625 216.77000427246094 112.19000244140625
v 255.43499755859375 215.52699279785156 112.14299774169922
v 234.60499572753906 225.7209930419922 111.01899719238281
v 236.14500427246094 229.23800659179688 114.18099975585938
v 237.281005859375 229.48300170898438 115.86599731445312
v 254.27999877929688 219.656005859375 116.00700378417969
v 238.68600463867188 199.68899536132812 100.98300170898438
v 237.1300048828125 200.06500244140625 103.35800170898438
v 236.06199645996094 199.22900390625 98.87159729003906
v 233.03500366210938 199.48300170898438 98.56009674072266
v 228.7310028076172 217.63099670410156 123.61699676513672
v 228.98899841308594 218.5709991455078 124.08200073242188
v 251.34500122070312 223.93499755859375 119.6719970703125
v 229.33299255371094 211.63699340820312 121.86399841308594
v 229.30299377441406 212.35299682617188 122.11299896240234
v 253.0850067138672 209.572998046875 108.11100006103516
v 256.2539978027344 215.55999755859375 110.87899780273438
v 254.31199645996094 202.28700256347656 88.42479705810547
v 241.875 225.86399841308594 117.88700103759766
v 242.85499572753906 225.32200622558594 117.56099700927734
v 253.83399963378906 217.0260009765625 113.67400360107422
v 254.6529998779297 203.125 88.17839813232422
v 235.98699951171875 225.93499755859375 126.81400299072266
v 234.81100463867188 226.5260009765625 125.71499633789062
v 239.31300354003906 208.8179931640625 94.05239868164062
v 239.09300231933594 207.6719970703125 92.77519989013672
v 233.57000732421875 198.1490020751953 105.52799987792969
v 255.8090057373047 214.16700744628906 109.43499755859375
v 255.5570068359375 214.51699829101562 108.11100006103516
v 246.41299438476562 222.56900024414062 121.36299896240234
v 245.5780029296875 223.99899291992188 122.91600036621094
v 245.40499877929688 225.33399963378906 117.52999877929688
v 246.6510009765625 224.86599731445312 122.36000061035156
v 238.21299743652344 220.26499938964844 124.18699645996094
v 236.66600036621094 216.78199768066406 122.83399963378906
v 254.4739990234375 203.947998046875 87.90450286865234
v 234.552001953125 226.70700073242188 111.91300201416016
v 236.55999755859375 226.99099731445312 111.64800262451172
v 229.8679962158203 210.59800720214844 99.44200134277344
v 230.52099609375 209.8090057373047 97.77200317382812
v 256.36199951171875 210.68299865722656 104.66699981689453
v 255.66400146484375 209.71400451660156 105.28700256347656
v 233.76499938964844 223.98199462890625 126.56700134277344
v 233.9759979248047 225.1529998779297 125.9280014038086
v 246.61199951171875 203.51199340820312 88.95359802246094
v 238.6479949951172 210.11500549316406 116.5719985961914
v 239.48399353027344 216.07000732421875 104.99299621582031
v 239.80999755859375 214.73199462890625 103.80799865722656
v 235.08399963378906 224.06100463867188 109.64199829101562
v 236.0659942626953 222.69700622558594 107.83200073242188
v 233.677001953125 210.7449951171875 95.93370056152344
v 233.0240020751953 212.2530059814453 97.8678970336914
v 247.92100524902344 216.9340057373047 116.07599639892578
v 232.02999877929688 216.11599731445312 102.23600006103516
v 244.8520050048828 209.13099670410156 95.89810180664062
v 243.5709991455078 207.32699584960938 94.40129852294922
v 245.44000244140625 206.42100524902344 92.74629974365234
v 248.70799255371094 220.98800659179688 119.47100067138672
v 247.04800415039062 219.31399536132812 118.7699966430664
v 232.78799438476562 220.98199462890625 126.49500274658203
v 235.86700439453125 204.1230010986328 114.74500274658203
v 234.5780029296875 202.51100158691406 114.89399719238281
v 247.00100708007812 220.37399291992188 113.29900360107422
v 244.13999938964844 226.2259979248047 118.49299621582031
v 254.81900024414062 202.5760040283203 89.46399688720703
v 255.23800659179688 203.2790069580078 89.0779037475586
v 255.11599731445312 203.79400634765625 88.4988021850586
v 237.3249969482422 200.5500030517578 90.26339721679688
v 249.43899536132812 224.76100158691406 115.56099700927734
v 233.531005859375 199.13299560546875 110.95099639892578
v 241.9770050048828 223.58099365234375 115.55799865722656
v 243.04600524902344 223.9250030517578 116.63200378417969
v 235.8300018310547 230.21299743652344 115.66000366210938
v 246.4340057373047 222.51600646972656 114.4229965209961
v 247.60499572753906 224.38299560546875 115.74199676513672
v 230.02999877929688 200.9530029296875 96.4386978149414
v 230.61900329589844 201.57200622558594 94.86820220947266
v 252.64100646972656 214.24400329589844 105.99700164794922
v 254.6580047607422 214.45399475097656 106.88300323486328
v 250.16700744628906 204.44900512695312 88.48310089111328
v 230.6649932861328 209.07899475097656 121.32599639892578
v 243.04100036621094 215.0780029296875 108.48699951171875
v 242.53799438476562 213.01600646972656 106.35700225830078
v 237.45899963378906 202.4409942626953 110.5979995727539
v 255.39599609375 213.81399536132812 106.80699920654297
v 255.67300415039062 212.90699768066406 106.42500305175781
v 240.65699768066406 208.54600524902344 95.39540100097656
v 252.2259979248047 204.43800354003906 87.79949951171875
v 229.13999938964844 215.2949981689453 125.197998046875
v 228.88600158691406 216.13999938964844 125.5989990234375
v 248.95199584960938 214.2310028076172 106.41899871826172
v 250.85400390625 205.8939971923828 90.10099792480469
v 252.59500122070312 205.90899658203125 89.54280090332031
v 253.0500030517578 204.49400329589844 87.7322006225586
v 248.51600646972656 221.82000732421875 113.74500274658203
v 238.50900268554688 204.9709930419922 92.26090240478516
v 238.5749969482422 203.52000427246094 91.97229766845703
v 233.2989959716797 208.42999267578125 93.18080139160156
v 233.78199768066406 209.677001953125 93.68669891357422
v 230.36300659179688 223.93800354003906 116.9800033569336
v 231.5279998779297 226.27699279785156 115.5469970703125
v 255.41000366210938 208.44700622558594 93.53579711914062
v 230.5279998779297 214.9739990234375 125.30899810791016
v 229.43499755859375 214.552001953125 124.44200134277344
v 243.66700744628906 214.0959930419922 107.83599853515625
v 239.64199829101562 229.53199768066406 126.12100219726562
v 248.5279998779297 203.87399291992188 88.4364013671875
v 256.5450134277344 206.61399841308594 98.12149810791016
v 255.4739990234375 206.42100524902344 99.52050018310547
v 246.5330047607422 199.7779998779297 96.89730072021484
v 244.2449951171875 200.86099243164062 100.54100036621094
v 234.44200134277344 219.44500732421875 125.95700073242188
v 229.79400634765625 212.78799438476562 123.14299774169922
v 229.41400146484375 213.7270050048828 123.58599853515625
v 253.55999755859375 219.79200744628906 116.56199645996094
v 253.2779998779297 220.9429931640625 116.83899688720703
v 228.89100646972656 205.77099609375 104.91400146484375
v 256.6499938964844 204.28500366210938 91.7583999633789
v 251.77000427246094 205.05099487304688 88.60690307617188
v 253.14599609375 205.13699340820312 88.43170166015625
v 237.77200317382812 210.2689971923828 95.82150268554688
v 239.4149932861328 210.0989990234375 97.720703125
v 250.5260009765625 224.7220001220703 119.79900360107422
v 251.29800415039062 225.13099670410156 118.88800048828125
v 254.1999969482422 210.79100036621094 97.19529724121094
v 251.86599731445312 210.7519989013672 96.30870056152344
v 234.11399841308594 216.63999938964844 124.53800201416016
v 253.7779998779297 217.56900024414062 109.4540023803711
v 249.94200134277344 225.49200439453125 119.16999816894531
v 237.10299682617188 209.56100463867188 91.62169647216797
v 248.7270050048828 226.1529998779297 118.97799682617188
v 248.85499572753906 225.96800231933594 117.97699737548828
v 255.05799865722656 217.25599670410156 109.447998046875
v 255.21499633789062 218.02000427246094 110.65499877929688
v 253.91799926757812 206.76300048828125 90.77880096435547
v 255.65199279785156 207.27699279785156 91.99320220947266
v 253.29400634765625 220.07400512695312 112.02100372314453
v 254.57899475097656 219.98599243164062 112.7030029296875
v 232.37899780273438 200.2050018310547 113.81400299072266
v 241.50900268554688 204.031005859375 91.85469818115234
v 230.822998046875 220.61199951171875 110.1520004272461
v 233.04400634765625 221.91299438476562 107.76899719238281
v 255.29200744628906 207.61000061035156 102.12100219726562
v 254.53399658203125 207.8350067138672 104.40899658203125
v 231.5240020751953 199.78799438476562 95.47250366210938
v 230.68600463867188 200.4709930419922 95.44830322265625
v 241.40499877929688 197.38800048828125 90.41380310058594
v 231.69500732421875 198.01800537109375 106.36299896240234
v 241.8260040283203 207.44000244140625 94.8124008178711
v 242.7790069580078 197.20799255371094 91.16419982910156
v 243.6580047607422 197.31500244140625 90.13610076904297
v 240.3679962158203 207.31399536132812 93.85479736328125
v 255.4080047607422 203.12399291992188 90.38349914550781
v 254.78199768066406 202.7310028076172 92.2760009765625
v 238 198.5540008544922 90.01899719238281
v 237.96200561523438 197.72799682617188 91.11170196533203
v 254.78700256347656 218.85699462890625 111.50499725341797
v 237.01600646972656 229.3040008544922 125.78700256347656
v 236.89300537109375 229.88400268554688 124.82499694824219
v 245.1219940185547 197.78199768066406 89.82009887695312
v 229.70599365234375 211.68499755859375 122.75599670410156
v 228.61000061035156 203.718994140625 102.0260009765625
v 228.85499572753906 203.88800048828125 99.58039855957031
v 248.76800537109375 225.38299560546875 116.73100280761719
v 230.15499877929688 205.83599853515625 95.61219787597656
v 231.3090057373047 206.18899536132812 94.19249725341797
v 254.52499389648438 212.46400451660156 103.42900085449219
v 234.3939971923828 205.18800354003906 118.45700073242188
v 241.2259979248047 224.72799682617188 126.00900268554688
v 252.4080047607422 216.61700439453125 114.24299621582031
v 231.00399780273438 224.69900512695312 113.91100311279297
v 250.57000732421875 225.3070068359375 116.44499969482422
v 229.9949951171875 206.8820037841797 114.0530014038086
v 251.41600036621094 209.89700317382812 94.86219787597656
v 238.50999450683594 230.0570068359375 125.90299987792969
v 231.6199951171875 222.89300537109375 125.24600219726562
v 236.677001953125 223.62600708007812 127.56600189208984
v 236.32200622558594 224.83599853515625 127.6989974975586
v 234.97500610351562 224.7429962158203 126.91200256347656
v 242.41900634765625 201.7830047607422 89.04039764404297
v 228.5019989013672 215.5469970703125 124.13899993896484
v 232.2010040283203 215.12399291992188 100.60700225830078
v 254.86399841308594 216.33599853515625 108.81099700927734
v 251.5489959716797 207.6479949951172 92.37100219726562
v 252.39199829101562 206.8780059814453 91.08200073242188
v 255.6909942626953 213.48899841308594 108.0260009765625
v 248.36700439453125 215.0970001220703 114.78399658203125
v 245.11700439453125 213.57699584960938 114.6969985961914
v 236.71299743652344 210.343994140625 92.5425033569336
v 228.70599365234375 205.98500061035156 101.77300262451172
v 229.04100036621094 208.61199951171875 100.78700256347656
v 229.02499389648438 213.73199462890625 122.27100372314453
v 229.8719940185547 203.9949951171875 95.7863998413086
v 229.5240020751953 216.4759979248047 117.87200164794922
v 229.4149932861328 219.35800170898438 115.63099670410156
v 237.2779998779297 199.3820037841797 89.96649932861328
v 233.447998046875 203.0449981689453 117.0459976196289
v 233.37600708007812 204.10800170898438 118.28199768066406
v 237.29200744628906 210.9929962158203 97.56340026855469
v 239.14599609375 211.64599609375 99.52239990234375
v 239.37399291992188 226.4199981689453 113.6729965209961
v 240.5709991455078 224.5540008544922 113.4530029296875
v 245.11599731445312 226.86000061035156 119.37200164794922
v 239.0500030517578 197.9199981689453 90.35330200195312
v 238.23300170898438 226.7519989013672 112.13800048828125
v 229.81500244140625 221.33700561523438 117.66400146484375
v 231.07899475097656 210.3820037841797 122.90599822998047
v 229.63999938964844 201.9320068359375 113.19300079345703
v 253.31500244140625 222.70199584960938 117.25299835205078
v 252.60000610351562 221.48399353027344 117.22599792480469
v 245.61700439453125 214.24400329589844 107.68399810791016
v 254.95799255371094 209.947998046875 106.71299743652344
v 253.57899475097656 208.43499755859375 106.16000366210938
v 229.28399658203125 200.36199951171875 106.23100280761719
v 242.10000610351562 197.29800415039062 92.69349670410156
v 250.0800018310547 220.9219970703125 118.54900360107422
v 238.6060028076172 221.14300537109375 107.69999694824219
v 230.21499633789062 199.06700134277344 106.66500091552734
v 251.62600708007812 217.70899963378906 109.87999725341797
v 236.41900634765625 199.531005859375 90.5270004272461
v 255.93800354003906 214.77499389648438 110.70899963378906
v 234.4949951171875 206.39100646972656 119.4229965209961
v 238.7790069580078 231.0290069580078 122.71099853515625
v 238.4320068359375 230.70899963378906 124.84100341796875
v 248.60699462890625 209.70700073242188 110.97599792480469
v 238.23899841308594 199.80599975585938 89.69229888916016
v 233.68299865722656 199.29100036621094 101.11000061035156
v 232.99899291992188 198.40499877929688 103.39299774169922
v 234.6269989013672 199.031005859375 96.10690307617188
v 242.1280059814453 221.4669952392578 112.13800048828125
v 240.6820068359375 220.61199951171875 109.57499694824219
v 232.26199340820312 199.48599243164062 96.7031021118164
v 251.32200622558594 204.21499633789062 87.8718032836914
v 249.11099243164062 199.33799743652344 90.81079864501953
v 230.08700561523438 211.7310028076172 116.83899688720703
v 229.87399291992188 214.02999877929688 114.22200012207031
v 240.0070037841797 213.2830047607422 102.38400268554688
v 241.14100646972656 213.3000030517578 104.75800323486328
v 233.08900451660156 218.6529998779297 126.26300048828125
v 233.3470001220703 229.5590057373047 117.02200317382812
v 233.26100158691406 228.80799865722656 114.72699737548828
v 229.68899536132812 220.7169952392578 112.92400360107422
v 254.5050048828125 203.4199981689453 95.2437973022461
v 253.70399475097656 202.51800537109375 94.29119873046875
v 253.36900329589844 205.2949981689453 100.9540023803711
v 256.6300048828125 207.6280059814453 98.87169647216797
v 249.427001953125 212.75599670410156 112.71900177001953
v 242.95599365234375 228.58599853515625 125.44599914550781
v 242.36300659179688 229.29400634765625 124.22100067138672
v 228.9980010986328 206.13299560546875 99.29029846191406
v 243.57200622558594 205.84500122070312 108.93000030517578
v 247.85800170898438 215.468994140625 108.49800109863281
v 246.1750030517578 210.5050048828125 97.80840301513672
v 247.8260040283203 222.54200744628906 120.73899841308594
v 248.5989990234375 224.22900390625 121.01399993896484
v 238.2270050048828 209.9320068359375 94.21600341796875
v 236.14999389648438 199.56199645996094 106.52300262451172
v 235.93099975585938 214.60800170898438 100.052001953125
v 240.1750030517578 201.59500122070312 89.77770233154297
v 232.89700317382812 206.80599975585938 93.0447998046875
v 246.13099670410156 218.52099609375 111.71800231933594
v 243.93699645996094 216.6320037841797 109.85600280761719
v 256.62701416015625 207.86500549316406 93.55699920654297
v 257.4739990234375 207.52099609375 94.39420318603516
v 252.30099487304688 200.7239990234375 90.29900360107422
v 230.01600646972656 208.5679931640625 119.01200103759766
v 232.48899841308594 209.14599609375 94.90799713134766
v 239.28799438476562 197.4029998779297 92.08830261230469
v 240.33799743652344 197.42999267578125 91.11389923095703
v 256.1260070800781 210.0760040283203 97.71769714355469
v 250.68299865722656 222.4810028076172 119.74099731445312
v 247.13299560546875 225.25799560546875 117.09200286865234
v 232.67599487304688 202.97799682617188 117.75599670410156
v 238.06300354003906 225.82400512695312 111.10600280761719
v 238.2239990234375 224.2010040283203 110.27999877929688
v 250.4290008544922 219.6529998779297 117.1510009765625
v 257.7099914550781 207.33900451660156 95.80599975585938
v 236.03399658203125 207.58799743652344 118.93800354003906
v 243.8179931640625 227.45899963378906 120.25299835205078
v 244.63499450683594 227.94400024414062 122.25
v 229.86300659179688 210.85400390625 118.6760025024414
v 234.91000366210938 211.29200744628906 121.25900268554688
v 232.3679962158203 206.0760040283203 120.01200103759766
v 238.46200561523438 215.6219940185547 120.6760025024414
v 238.66400146484375 218.11099243164062 122.24099731445312
v 254.156005859375 201.927001953125 89.96939849853516
v 246.97000122070312 211.33799743652344 112.71399688720703
v 228.49099731445312 216.6179962158203 123.90499877929688
v 235.9600067138672 208.1300048828125 90.77490234375
v 241.00799560546875 199.3820037841797 99.48390197753906
v 250.45399475097656 221.4250030517578 113.36799621582031
v 240.54600524902344 225.3560028076172 115.38700103759766
v 241.6199951171875 225.0229949951172 116.8219985961914
v 231.27200317382812 198.42799377441406 107.88300323486328
v 241.29400634765625 220.1280059814453 122.43399810791016
v 250.50999450683594 225.6540069580078 117.78299713134766
v 235.02499389648438 211.95399475097656 97.68499755859375
v 247.6750030517578 226.5749969482422 119.91100311279297
v 245.6479949951172 225.47900390625 123.83499908447266
v 231.6179962158203 200.4320068359375 94.36000061035156
v 241.47900390625 211.92100524902344 102.09400177001953
v 239.38900756835938 197.58700561523438 94.63849639892578
v 252.81700134277344 222.77499389648438 118.05599975585938
v 252.73599243164062 223.95199584960938 118.25
v 241.28799438476562 214.88600158691406 118.69200134277344
v 240.78599548339844 212.89599609375 117.14399719238281
v 256.0899963378906 211.86300659179688 105.6719970703125
v 250.96499633789062 209.34500122070312 109.5
v 236.66400146484375 230.30999755859375 124.03800201416016
v 241.51300048828125 216.65199279785156 119.91400146484375
v 240.48500061035156 217.69700622558594 121.03299713134766
v 253.6219940185547 210.31399536132812 95.68840026855469
v 234.34800720214844 208.79200744628906 92.17890167236328
v 234.95599365234375 209.906005859375 92.45600128173828
v 241.75599670410156 229.03399658203125 125.7239990234375
v 229.81100463867188 200.44700622558594 108.50499725341797
v 252.1699981689453 220.968994140625 112.68299865722656
v 247.3520050048828 204.19400024414062 103.93000030517578
v 247.31700134277344 202.51300048828125 101.04499816894531
v 244.6020050048828 227.39199829101562 124.45500183105469
v 255.62600708007812 203.9340057373047 89.26429748535156
v 230.4759979248047 200.0989990234375 111.45700073242188
v 234.78199768066406 229.36000061035156 114.21800231933594
v 232.6179962158203 225.0019989013672 111.86000061035156
v 230.48500061035156 205.13999938964844 118.25499725341797
v 243.09100341796875 212.14599609375 104.47000122070312
v 241.1479949951172 217.57200622558594 108.16500091552734
v 235.2830047607422 204.23300170898438 92.19529724121094
v 236.1529998779297 202.5570068359375 91.68379974365234
v 255.32400512695312 213.74000549316406 110.96499633789062
v 230.20899963378906 220.36500549316406 125.54499816894531
v 236.3000030517578 209.9320068359375 119.6729965209961
v 241.57899475097656 222.9530029296875 112.97000122070312
v 240.15499877929688 222.89100646972656 110.5270004272461
v 249.6280059814453 224.85499572753906 120.1729965209961
v 246.13600158691406 208.406005859375 94.16850280761719
v 255.08900451660156 203.22300720214844 93.40760040283203
v 250.51400756835938 211.4239959716797 98.05120086669922
v 230.44200134277344 210.0679931640625 122.06900024414062
v 255.97500610351562 204.66700744628906 89.54190063476562
v 256.1860046386719 203.9720001220703 90.45149993896484
v 256.6180114746094 204.60899353027344 90.45390319824219
v 241.8179931640625 210.8419952392578 114.43699645996094
v 240.0279998779297 210.78900146484375 115.4469985961914
v 229.26400756835938 210.81199645996094 101.53800201416016
v 238.51800537109375 230.79299926757812 120.53900146484375
v 234.072998046875 201.51800537109375 92.21749877929688
v 252.156005859375 212.4340057373047 101.86699676513672
v 239.8560028076172 230.06100463867188 121.51000213623047
v 242.73899841308594 222.49400329589844 123.7509994506836
v 255.8179931640625 203.49400329589844 91.8938980102539
v 238.56300354003906 228.47799682617188 116.02899932861328
v 237.3159942626953 228.72999572753906 114.12999725341797
v 229.0260009765625 201.95599365234375 100.08300018310547
v 230.36500549316406 208.70899963378906 114.73999786376953
v 230.3040008544922 208.3470001220703 111.78500366210938
v 230.843994140625 213.74400329589844 124.04499816894531
v 236.51300048828125 208.9429931640625 91.03900146484375
v 247.06199645996094 205.5760040283203 106.41200256347656
v 255.29299926757812 205.44700622558594 89.42530059814453
v 245.87600708007812 227.11700439453125 122.95999908447266
v 248.7570037841797 212.13099670410156 101.33200073242188
v 239.17999267578125 225.6219940185547 111.98200225830078
v 235.56300354003906 230.2429962158203 122.50399780273438
v 235.77000427246094 231.1179962158203 120.86699676513672
v 230.0240020751953 200.66200256347656 110.7509994506836
v 239.8070068359375 224.25599670410156 111.30699920654297
v 233.1510009765625 198.38900756835938 108.15399932861328
v 231.97799682617188 198.5780029296875 109.73600006103516
v 253.73399353027344 215.80599975585938 113.16200256347656
v 251.1999969482422 214.68899536132812 113.51100158691406
v 235.46400451660156 228.1750030517578 125.10399627685547
v 243.73899841308594 209.8000030517578 97.77539825439453
v 229.46499633789062 202.83900451660156 114.625
v 229.89500427246094 212.41600036621094 106.5979995727539
v 253.98699951171875 205.85000610351562 89.43789672851562
v 254.83999633789062 206.19200134277344 90.09880065917969
v 229.9409942626953 209.6479949951172 118.96499633789062
v 230.093994140625 208.89999389648438 117.4260025024414
v 245.3090057373047 226.45700073242188 124.15799713134766
v 236.9459991455078 226.97000122070312 126.55400085449219
v 256.9150085449219 205.1300048828125 91.1500015258789
v 255.73500061035156 216.25399780273438 109.13700103759766
v 240.5850067138672 197.26800537109375 93.13099670410156
v 250.35499572753906 216.61199951171875 115.4540023803711
v 237.72500610351562 207.35299682617188 91.08209991455078
v 253.67300415039062 209.63999938964844 94.64219665527344
v 253.77200317382812 208.83099365234375 93.71189880371094
v 231.77200317382812 204.27499389648438 118.53800201416016
v 232.74899291992188 205.11300659179688 119.15399932861328
v 237.58799743652344 215.9320068359375 102.2300033569336
v 254.3730010986328 218.4969940185547 110.44200134277344
v 246.41099548339844 212.843994140625 105.21199798583984
v 250.947998046875 213.0229949951172 103.88700103759766
v 255.2530059814453 206.56900024414062 90.72679901123047
v 254.677001953125 213.2469940185547 105.1510009765625
v 239.3990020751953 209.5399932861328 95.92340087890625
v 241.51499938964844 206.21099853515625 93.62830352783203
v 231.49000549316406 200.85299682617188 115.34400177001953
v 228.78700256347656 217.03799438476562 125.51100158691406
v 231.3070068359375 225.2469940185547 118.62000274658203
v 255.71499633789062 212.55999755859375 107.85099792480469
v 231.66000366210938 219.54100036621094 107.02100372314453
v 252.5399932861328 224.26100158691406 115.89900207519531
v 253.177001953125 223.67100524902344 115.62100219726562
v 234.375 230.1909942626953 115.77899932861328
v 236.4459991455078 200.42799377441406 108.91400146484375
v 254.343994140625 221.3769989013672 113.5530014038086
v 236.89500427246094 197.7949981689453 91.50920104980469
v 230.875 203.1699981689453 94.3396987915039
v 252.9770050048828 218.6719970703125 115.96499633789062
v 240.21099853515625 204.71099853515625 92.57099914550781
v 241.28599548339844 197.81900024414062 95.80599975585938
v 255.55299377441406 213.2310028076172 109.49600219726562
v 232.927001953125 200.28399658203125 93.30909729003906
v 233.04800415039062 201.7519989013672 92.82050323486328
v 230.2779998779297 203.197998046875 116.63099670410156
v 229.3939971923828 208.6750030517578 105.83799743652344
v 235.1060028076172 200.10800170898438 111.12699890136719
v 241.73599243164062 218.06300354003906 109.30000305175781
v 253.86399841308594 207.86199951171875 92.42870330810547
v 255.96600341796875 203.91000366210938 93.46659851074219
v 241.99099731445312 227.85499572753906 126.33200073242188
v 246.3090057373047 226.23899841308594 123.09600067138672
v 235.7259979248047 210.7949981689453 95.42880249023438
v 253.9510040283203 222.5260009765625 114.7249984741211
v 254.9010009765625 221.08999633789062 114.34700012207031
v 249.48899841308594 223.75100708007812 120.27300262451172
v 252.31399536132812 202.5449981689453 96.54049682617188
v 254.83700561523438 216.88699340820312 113.4010009765625
v 236.57400512695312 225.1909942626953 110.46199798583984
v 244.21200561523438 197.625 92.18879699707031
v 232.60400390625 214.3209991455078 123.84700012207031
v 229.29200744628906 200.32699584960938 103.02300262451172
v 248.60899353027344 206.2760009765625 91.49369812011719
v 238.95199584960938 229.62399291992188 118.83699798583984
v 240.35899353027344 229.00399780273438 120.24199676513672
v 257.0790100097656 208.35000610351562 95.03679656982422
v 229.49400329589844 206.2220001220703 108.98699951171875
v 229.3679962158203 203.8520050048828 109.94300079345703
v 239.4949951171875 208.86099243164062 114.16200256347656
v 238.15499877929688 208.29800415039062 115.09500122070312
v 236.89199829101562 198.4290008544922 90.52369689941406
v 229.98199462890625 216.1199951171875 126.15699768066406
v 254.92999267578125 212.86900329589844 110.61399841308594
v 240.32699584960938 229.8679962158203 125.4229965209961
v 244.02000427246094 213.11500549316406 106.70600128173828
v 252.20599365234375 207.03599548339844 105.49199676513672
v 251.84300231933594 201.3679962158203 94.29029846191406
v 234.46600341796875 230.68600463867188 117.53800201416016
v 230.54100036621094 214.0399932861328 101.66799926757812
v 229.20599365234375 217.84800720214844 125.59300231933594
v 237.71600341796875 206.04299926757812 114.1709976196289
v 249.2030029296875 222.16600036621094 119.9530029296875
v 254.3719940185547 222.06700134277344 115.75499725341797
v 234.13299560546875 207.36500549316406 92.22200012207031
v 254.9510040283203 219.0959930419922 112.78099822998047
v 231.3470001220703 211.55999755859375 98.23729705810547
v 234.2100067138672 227.93600463867188 123.26499938964844
v 238.23899841308594 229.89700317382812 118.04900360107422
v 252.32899475097656 224.7209930419922 117.31400299072266
v 253.0279998779297 223.7259979248047 117.09700012207031
v 229.6540069580078 219.09300231933594 125.46800231933594
v 254.92300415039062 218.66400146484375 113.9540023803711
v 244.42799377441406 203.0780029296875 104.04900360107422
v 244.5290069580078 216.18699645996094 117.21700286865234
v 241.4600067138672 229.39599609375 122.69300079345703
v 255.72000122070312 217.0070037841797 109.8239974975586
v 234.9739990234375 202.03599548339844 91.84989929199219
v 243.29800415039062 227.6999969482422 126.125
v 239.93499755859375 226.74600219726562 116.25199890136719
v 229.10299682617188 201.83599853515625 106.93800354003906
v 243.49099731445312 222.40499877929688 114.78600311279297
v 245.3300018310547 223.64999389648438 116.06900024414062
v 254.46400451660156 202.26800537109375 91.13929748535156
v 256.4679870605469 206.1009979248047 90.96269989013672
v 257.1929931640625 205.6719970703125 92.04989624023438
v 249.4720001220703 218.17999267578125 116.86499786376953
v 256.3940124511719 208.66900634765625 100.11599731445312
v 236.25999450683594 219.3730010986328 124.96600341796875
v 242.3489990234375 227.5679931640625 120.19000244140625
v 230.04100036621094 209.65199279785156 120.4530029296875
v 235.56500244140625 221.87600708007812 106.77200317382812
v 237.16299438476562 231.0229949951172 122.80899810791016
v 249.49899291992188 200.31399536132812 94.7780990600586
v 229.27200317382812 203.73800659179688 97.54820251464844
v 234.36900329589844 223.26199340820312 127.34100341796875
v 253.4969940185547 201.9219970703125 92.83999633789062
v 253.33799743652344 223.20199584960938 114.7490005493164
v 253.55499267578125 222.97799682617188 116.05599975585938
v 251.593994140625 224.81700134277344 116.1449966430664
v 251.61599731445312 224.0449981689453 115.01000213623047
v 238.28500366210938 204.8070068359375 112.38800048828125
v 256.8240051269531 209.1280059814453 96.4032974243164
v 235.95799255371094 198.27999877929688 94.25659942626953
v 237.1320037841797 204.02999877929688 91.90560150146484
v 229.7530059814453 201.281005859375 111.4489974975586
v 229.4499969482422 202.02099609375 110.4540023803711
v 243.00399780273438 228.802001953125 122.64399719238281
v 235.5399932861328 206.21499633789062 118.13500213623047
v 233.9029998779297 200.30599975585938 92.41609954833984
v 254.84500122070312 214.25599670410156 111.75499725341797
v 251.79600524902344 217.65199279785156 115.7239990234375
v 247.33700561523438 200.88999938964844 98.33409881591797
v 230.1929931640625 202.43699645996094 116.10199737548828
v 246.36000061035156 220.75999450683594 120.36199951171875
v 250.2530059814453 199.87100219726562 91.82649993896484
v 231.61399841308594 209.63400268554688 122.04299926757812
v 253.6719970703125 222.36900329589844 113.94300079345703
v 256.1470031738281 208.97300720214844 94.88760375976562
v 230.7270050048828 221.52499389648438 125.38800048828125
v 248.35499572753906 225.30499267578125 121.12300109863281
v 253.95899963378906 215.2209930419922 107.63999938964844
v 234.1199951171875 222.99200439453125 108.59700012207031
v 250.51400756835938 223.5019989013672 119.94400024414062
v 251.67999267578125 225.3350067138672 117.45800018310547
v 235.08399963378906 207.73899841308594 91.33309936523438
v 237.05299377441406 206.79800415039062 90.7322006225586
v 240.38800048828125 227.6219940185547 118.05899810791016
v 239.6529998779297 230.34500122070312 125.01000213623047
v 238.46499633789062 206.64500427246094 92.00360107421875
v 253.47900390625 214.19000244140625 112.19400024414062
v 232.64100646972656 224.23800659179688 125.38500213623047
v 257.1730041503906 206.64199829101562 92.71700286865234
v 235.1320037841797 206.34300231933594 91.76180267333984
v 237.7530059814453 212.46499633789062 119.8219985961914
v 242.1320037841797 216.50399780273438 108.98100280761719
v 248.71200561523438 225.84300231933594 120.19300079345703
v 240.57000732421875 198.822998046875 88.39029693603516
v 256.14599609375 209.64100646972656 103.54900360107422
v 235.1280059814453 199.19200134277344 109.0790023803711
v 252.18499755859375 224.53399658203125 118.5719985961914
v 242.60899353027344 224.13400268554688 125.12200164794922
v 236.82400512695312 213.6699981689453 120.81900024414062
v 229.7239990234375 203.9949951171875 115.48100280761719
v 229.4429931640625 204.1540069580078 113.83499908447266
v 256.156005859375 205.50999450683594 97.15540313720703
v 232.97000122070312 199.468994140625 94.70330047607422
v 252.67599487304688 223.63999938964844 114.71399688720703
v 244.67999267578125 212.18099975585938 104.6500015258789
v 232.18699645996094 207.7480010986328 93.96640014648438
v 249.7220001220703 201.51800537109375 97.28690338134766
v 237.42100524902344 208.54600524902344 91.10150146484375
v 238.6820068359375 198.4929962158203 97.47709655761719
v 234.68299865722656 210.4459991455078 93.98529815673828
v 255.52099609375 210.01300048828125 96.26139831542969
v 240.57400512695312 207.85400390625 112.89600372314453
v 243.5399932861328 197.86399841308594 94.79540252685547
v 252.1320037841797 219.3090057373047 116.6709976196289
v 232.77099609375 226.6909942626953 113.20899963378906
v 254.4720001220703 217.78500366210938 113.80000305175781
v 244.52099609375 226.41000366210938 124.96099853515625
v 235.7550048828125 227.20599365234375 126.21600341796875
v 248.31500244140625 207.84100341796875 109.08899688720703
v 239.6060028076172 206.09500122070312 92.8563003540039
v 229.38999938964844 218.56100463867188 112.41400146484375
v 230.67799377441406 204.60499572753906 94.5186996459961
v 247.51100158691406 224.21200561523438 121.5739974975586
v 236.80299377441406 223.33900451660156 108.97899627685547
v 255.0050048828125 219.4040069580078 115.0260009765625
v 256.0270080566406 211.31900024414062 106.61799621582031
v 257.7099914550781 206.5469970703125 94.43379974365234
v 238.3560028076172 227.62899780273438 113.80999755859375
v 235.77200317382812 210.5500030517578 93.22530364990234
v 234.16299438476562 227.8249969482422 112.96099853515625

g grp1
usemtl mtl1
f 369 2 1 
f 68 1 2 
f 946 4 3 
f 754 3 4 
f 26 6 5 
f 10 5 6 
f 81 8 7 
f 103 7 8 
f 5 10 9 
f 12 9 10 
f 9 12 11 
f 30 11 12 
f 574 14 13 
f 829 13 14 
f 273 16 15 
f 159 15 16 
f 247 18 17 
f 932 17 18 
f 147 20 19 
f 160 19 20 
f 888 22 21 
f 296 21 22 
f 547 24 23 
f 985 23 24 
f 27 26 25 
f 229 25 26 
f 6 26 27 
f 28 10 6 
f 28 6 27 
f 29 12 10 
f 29 10 28 
f 31 30 12 
f 31 12 29 
f 248 32 18 
f 339 18 32 
f 53 30 31 
f 720 34 33 
f 161 33 34 
f 996 36 35 
f 654 35 36 
f 40 37 30 
f 243 30 37 
f 287 39 38 
f 382 38 39 
f 53 40 30 
f 67 37 40 
f 270 42 41 
f 320 41 42 
f 970 44 43 
f 385 43 44 
f 840 46 45 
f 106 45 46 
f 49 27 25 
f 885 48 47 
f 381 47 48 
f 50 28 27 
f 50 27 49 
f 51 29 28 
f 51 28 50 
f 52 31 29 
f 52 29 51 
f 54 53 31 
f 54 31 52 
f 55 40 53 
f 55 53 54 
f 740 57 56 
f 653 56 57 
f 274 59 58 
f 142 58 59 
f 60 40 55 
f 67 40 60 
f 820 62 61 
f 466 61 62 
f 693 64 63 
f 626 63 64 
f 67 66 65 
f 70 65 66 
f 60 66 67 
f 853 69 68 
f 847 68 69 
f 91 65 70 
f 126 72 71 
f 505 71 72 
f 699 74 73 
f 689 73 74 
f 328 76 75 
f 412 75 76 
f 49 78 77 
f 100 77 78 
f 77 50 49 
f 79 51 50 
f 79 50 77 
f 80 52 51 
f 80 51 79 
f 8 54 52 
f 8 52 80 
f 81 55 54 
f 81 54 8 
f 82 60 55 
f 82 55 81 
f 83 66 60 
f 83 60 82 
f 84 70 66 
f 84 66 83 
f 698 86 85 
f 119 85 86 
f 87 70 84 
f 91 70 87 
f 885 88 48 
f 796 48 88 
f 906 90 89 
f 248 89 90 
f 114 91 87 
f 38 93 92 
f 768 92 93 
f 336 95 94 
f 889 94 95 
f 688 97 96 
f 246 96 97 
f 764 99 98 
f 484 98 99 
f 101 77 100 
f 79 77 101 
f 102 79 101 
f 80 79 102 
f 103 80 102 
f 8 80 103 
f 274 105 104 
f 279 104 105 
f 46 107 106 
f 349 106 107 
f 520 109 108 
f 675 108 109 
f 110 82 81 
f 110 81 7 
f 111 83 82 
f 111 82 110 
f 112 84 83 
f 112 83 111 
f 113 87 84 
f 113 84 112 
f 115 114 87 
f 115 87 113 
f 614 117 116 
f 917 116 117 
f 118 114 115 
f 122 114 118 
f 574 13 119 
f 656 119 13 
f 963 121 120 
f 743 120 121 
f 123 122 118 
f 129 122 123 
f 189 125 124 
f 812 124 125 
f 577 127 126 
f 696 126 127 
f 152 129 128 
f 123 128 129 
f 290 131 130 
f 345 130 131 
f 694 133 132 
f 464 132 133 
f 543 135 134 
f 395 134 135 
f 315 137 136 
f 532 136 137 
f 687 139 138 
f 331 138 139 
f 463 141 140 
f 365 140 141 
f 299 142 59 
f 518 144 143 
f 34 143 144 
f 20 112 111 
f 441 146 145 
f 475 145 146 
f 110 20 111 
f 147 113 112 
f 147 112 20 
f 148 115 113 
f 148 113 147 
f 149 118 115 
f 149 115 148 
f 150 123 118 
f 150 118 149 
f 151 128 123 
f 151 123 150 
f 171 152 128 
f 155 154 153 
f 183 153 154 
f 171 128 151 
f 802 156 155 
f 154 155 156 
f 484 99 157 
f 360 157 99 
f 260 143 34 
f 23 159 158 
f 16 158 159 
f 160 20 110 
f 703 162 161 
f 33 161 162 
f 645 164 163 
f 759 163 164 
f 313 166 165 
f 644 165 166 
f 167 148 147 
f 167 147 19 
f 168 149 148 
f 168 148 167 
f 169 150 149 
f 169 149 168 
f 170 151 150 
f 170 150 169 
f 172 171 151 
f 172 151 170 
f 695 174 173 
f 276 173 174 
f 193 171 172 
f 249 176 175 
f 400 175 176 
f 801 178 177 
f 896 177 178 
f 752 180 179 
f 883 179 180 
f 185 167 19 
f 423 182 181 
f 688 181 182 
f 154 184 183 
f 510 183 184 
f 185 168 167 
f 190 168 185 
f 547 23 186 
f 158 186 23 
f 751 188 187 
f 795 187 188 
f 190 169 168 
f 673 125 189 
f 191 170 169 
f 191 169 190 
f 192 172 170 
f 192 170 191 
f 194 193 172 
f 194 172 192 
f 311 196 195 
f 856 195 196 
f 483 198 197 
f 769 197 198 
f 199 191 190 
f 200 191 199 
f 192 191 200 
f 557 202 201 
f 230 201 202 
f 210 204 203 
f 250 203 204 
f 200 194 192 
f 207 206 205 
f 234 205 206 
f 265 206 207 
f 717 209 208 
f 640 208 209 
f 175 210 203 
f 667 212 211 
f 698 211 212 
f 239 205 213 
f 234 213 205 
f 216 215 214 
f 942 214 215 
f 214 217 216 
f 312 216 217 
f 608 219 218 
f 679 218 219 
f 507 196 220 
f 576 220 196 
f 695 222 221 
f 637 221 222 
f 468 224 223 
f 787 223 224 
f 671 226 225 
f 342 225 226 
f 981 228 227 
f 932 227 228 
f 26 206 229 
f 265 229 206 
f 473 201 230 
f 957 232 231 
f 786 231 232 
f 155 153 233 
f 887 233 153 
f 26 234 206 
f 234 26 5 
f 213 234 5 
f 213 5 9 
f 239 213 9 
f 326 236 235 
f 773 235 236 
f 209 238 237 
f 426 237 238 
f 9 240 239 
f 597 239 240 
f 11 240 9 
f 757 242 241 
f 717 241 242 
f 243 240 11 
f 30 243 11 
f 631 245 244 
f 429 244 245 
f 329 96 246 
f 89 248 247 
f 18 247 248 
f 203 250 249 
f 745 249 250 
f 726 252 251 
f 955 251 252 
f 219 254 253 
f 951 253 254 
f 855 256 255 
f 782 255 256 
f 870 258 257 
f 719 257 258 
f 427 260 259 
f 659 259 260 
f 366 262 261 
f 282 261 262 
f 303 264 263 
f 617 263 264 
f 266 229 265 
f 25 229 266 
f 966 266 265 
f 714 268 267 
f 545 267 268 
f 15 243 37 
f 641 270 269 
f 41 269 270 
f 273 37 67 
f 810 272 271 
f 524 271 272 
f 273 15 37 
f 104 275 274 
f 871 274 275 
f 619 276 22 
f 296 22 276 
f 872 278 277 
f 482 277 278 
f 665 279 105 
f 610 281 280 
f 972 280 281 
f 812 282 256 
f 888 256 282 
f 735 284 283 
f 469 283 284 
f 393 286 285 
f 775 285 286 
f 327 287 92 
f 38 92 287 
f 976 3 288 
f 389 288 3 
f 131 290 289 
f 604 289 290 
f 663 72 42 
f 320 42 72 
f 335 292 291 
f 540 291 292 
f 78 25 266 
f 293 78 266 
f 966 293 266 
f 924 295 294 
f 117 294 295 
f 476 21 296 
f 621 298 297 
f 236 297 298 
f 513 300 299 
f 142 299 300 
f 882 210 175 
f 955 302 301 
f 933 301 302 
f 494 277 303 
f 264 303 277 
f 848 305 304 
f 988 304 305 
f 67 306 273 
f 16 273 306 
f 598 307 166 
f 776 166 307 
f 65 306 67 
f 226 65 91 
f 226 306 65 
f 382 244 308 
f 448 308 244 
f 553 310 309 
f 892 309 310 
f 499 312 311 
f 217 311 312 
f 258 313 165 
f 836 314 163 
f 645 163 314 
f 506 315 136 
f 337 258 165 
f 577 263 127 
f 617 127 263 
f 320 293 41 
f 966 41 293 
f 753 317 316 
f 731 316 317 
f 702 319 318 
f 944 318 319 
f 333 293 320 
f 613 322 321 
f 497 321 322 
f 333 78 293 
f 762 324 323 
f 854 323 324 
f 775 326 325 
f 690 325 326 
f 613 328 327 
f 75 327 328 
f 445 329 246 
f 629 245 330 
f 631 330 245 
f 477 332 331 
f 418 331 332 
f 100 78 333 
f 494 303 334 
f 577 334 303 
f 676 336 335 
f 292 335 336 
f 719 258 337 
f 227 339 338 
f 846 338 339 
f 606 341 340 
f 116 340 341 
f 91 342 226 
f 999 344 343 
f 359 343 344 
f 122 342 91 
f 114 122 91 
f 754 119 86 
f 916 130 345 
f 383 342 122 
f 973 347 346 
f 877 346 347 
f 614 116 348 
f 341 348 116 
f 679 219 253 
f 828 350 349 
f 106 349 350 
f 762 351 324 
f 280 324 351 
f 931 353 352 
f 268 352 353 
f 993 355 354 
f 125 354 355 
f 437 357 356 
f 702 356 357 
f 343 359 358 
f 859 358 359 
f 519 360 99 
f 513 362 361 
f 923 361 362 
f 617 100 333 
f 860 364 363 
f 606 363 364 
f 64 140 365 
f 840 366 261 
f 881 336 94 
f 375 368 367 
f 871 367 368 
f 370 102 101 
f 765 2 369 
f 100 370 101 
f 431 372 371 
f 768 371 372 
f 103 102 370 
f 947 374 373 
f 824 373 374 
f 599 368 375 
f 654 377 376 
f 98 376 377 
f 559 378 271 
f 810 271 378 
f 938 89 247 
f 864 380 379 
f 997 379 380 
f 682 47 381 
f 643 382 39 
f 129 384 383 
f 702 383 384 
f 122 129 383 
f 989 385 44 
f 261 125 355 
f 384 129 152 
f 75 39 287 
f 356 384 152 
f 451 387 386 
f 718 386 387 
f 274 388 105 
f 665 105 388 
f 754 389 3 
f 605 391 390 
f 498 390 391 
f 897 184 154 
f 707 393 392 
f 130 392 393 
f 370 100 264 
f 617 264 100 
f 595 394 135 
f 818 135 394 
f 405 103 370 
f 818 395 135 
f 499 195 396 
f 521 396 195 
f 438 398 397 
f 894 397 398 
f 839 400 399 
f 176 399 400 
f 682 402 401 
f 866 401 402 
f 977 404 403 
f 690 403 404 
f 103 405 7 
f 110 7 405 
f 929 407 406 
f 315 406 407 
f 793 409 408 
f 876 408 409 
f 496 411 410 
f 747 410 411 
f 896 413 412 
f 417 412 413 
f 656 415 414 
f 950 414 415 
f 793 189 124 
f 838 417 416 
f 677 416 417 
f 704 418 332 
f 419 356 152 
f 419 152 171 
f 350 173 420 
f 619 420 173 
f 447 58 142 
f 455 419 171 
f 916 392 130 
f 438 422 421 
f 905 421 422 
f 984 182 423 
f 376 98 107 
f 349 107 98 
f 695 173 350 
f 351 424 280 
f 610 280 424 
f 949 426 425 
f 238 425 426 
f 143 260 427 
f 544 19 160 
f 618 429 428 
f 245 428 429 
f 937 390 430 
f 890 430 390 
f 497 372 431 
f 534 126 71 
f 913 433 432 
f 797 432 433 
f 907 385 434 
f 989 434 385 
f 308 93 38 
f 395 436 435 
f 348 435 436 
f 723 437 356 
f 867 439 438 
f 454 438 439 
f 486 254 440 
f 761 440 254 
f 510 442 441 
f 790 441 442 
f 380 310 443 
f 552 443 310 
f 329 445 444 
f 446 444 445 
f 664 447 446 
f 666 446 447 
f 889 449 448 
f 308 448 449 
f 969 450 57 
f 708 57 450 
f 598 452 451 
f 387 451 452 
f 649 399 453 
f 176 453 399 
f 438 454 422 
f 62 422 454 
f 171 193 455 
f 459 455 193 
f 501 457 456 
f 730 456 457 
f 988 305 458 
f 607 458 305 
f 502 455 459 
f 990 461 460 
f 616 460 461 
f 589 463 462 
f 140 462 463 
f 665 132 464 
f 623 466 465 
f 62 465 466 
f 470 468 467 
f 223 467 468 
f 501 469 457 
f 509 457 469 
f 736 468 470 
f 917 472 471 
f 722 471 472 
f 200 201 473 
f 145 475 474 
f 440 474 475 
f 895 477 476 
f 139 476 477 
f 998 479 478 
f 967 478 479 
f 616 481 480 
f 960 480 481 
f 544 160 482 
f 405 482 160 
f 198 483 121 
f 781 121 483 
f 157 485 484 
f 828 484 485 
f 996 487 486 
f 951 486 487 
f 332 489 488 
f 734 488 489 
f 915 410 490 
f 903 490 410 
f 45 420 491 
f 619 491 420 
f 773 493 492 
f 272 492 493 
f 773 494 493 
f 334 493 494 
f 943 496 495 
f 653 495 496 
f 295 321 497 
f 391 499 498 
f 396 498 499 
f 670 190 185 
f 882 175 400 
f 619 173 276 
f 532 86 500 
f 698 500 86 
f 194 459 193 
f 473 459 194 
f 503 502 459 
f 504 503 459 
f 504 459 473 
f 758 503 504 
f 802 155 233 
f 90 71 505 
f 697 369 1 
f 512 506 136 
f 806 507 220 
f 730 509 508 
f 910 508 509 
f 843 183 510 
f 911 512 511 
f 136 511 512 
f 361 514 513 
f 583 513 514 
f 950 516 515 
f 833 515 516 
f 544 517 19 
f 185 19 517 
f 945 518 143 
f 964 519 99 
f 542 520 360 
f 108 360 520 
f 407 288 389 
f 182 521 97 
f 844 97 521 
f 623 523 522 
f 833 522 523 
f 834 271 524 
f 670 525 190 
f 199 190 525 
f 881 527 526 
f 618 526 527 
f 414 515 528 
f 831 528 515 
f 622 530 529 
f 556 529 530 
f 531 200 199 
f 531 199 525 
f 330 387 452 
f 201 200 531 
f 728 532 137 
f 473 194 200 
f 849 534 533 
f 933 533 534 
f 704 536 535 
f 750 535 536 
f 230 504 473 
f 838 538 537 
f 608 537 538 
f 947 539 374 
f 825 374 539 
f 758 504 230 
f 526 541 540 
f 794 540 541 
f 519 73 542 
f 648 542 73 
f 883 543 179 
f 134 179 543 
f 278 517 544 
f 683 546 545 
f 974 545 546 
f 941 548 547 
f 24 547 548 
f 888 282 262 
f 295 497 549 
f 676 549 497 
f 794 551 550 
f 629 550 551 
f 276 174 489 
f 734 489 174 
f 310 553 552 
f 986 552 553 
f 855 255 554 
f 627 554 255 
f 909 375 367 
f 859 555 358 
f 819 358 555 
f 689 414 528 
f 557 531 525 
f 557 525 556 
f 670 556 525 
f 557 201 531 
f 759 316 220 
f 806 220 316 
f 636 559 558 
f 834 558 559 
f 450 561 560 
f 566 560 561 
f 749 563 562 
f 286 562 563 
f 364 134 395 
f 917 564 472 
f 257 472 564 
f 656 565 415 
f 620 415 565 
f 952 450 560 
f 733 566 561 
f 64 365 567 
f 980 567 365 
f 566 569 568 
f 284 568 569 
f 829 571 570 
f 905 570 571 
f 858 573 572 
f 832 572 573 
f 530 557 556 
f 813 557 530 
f 4 575 574 
f 14 574 575 
f 163 220 576 
f 813 202 557 
f 253 579 578 
f 840 578 579 
f 967 581 580 
f 47 580 581 
f 435 348 341 
f 300 583 582 
f 737 582 583 
f 706 269 584 
f 265 584 269 
f 464 585 279 
f 104 279 585 
f 207 584 265 
f 272 586 524 
f 589 524 586 
f 587 584 207 
f 588 207 205 
f 588 587 207 
f 283 209 237 
f 992 463 589 
f 788 591 590 
f 912 590 591 
f 588 205 239 
f 641 593 592 
f 880 592 593 
f 894 594 14 
f 829 14 594 
f 612 596 595 
f 809 595 596 
f 597 588 239 
f 869 588 597 
f 550 598 313 
f 166 313 598 
f 627 600 599 
f 791 599 600 
f 709 601 512 
f 506 512 601 
f 418 603 602 
f 994 602 603 
f 833 289 604 
f 635 391 605 
f 435 341 606 
f 807 458 607 
f 218 537 608 
f 928 406 609 
f 506 609 406 
f 326 611 236 
f 297 236 611 
f 828 485 222 
f 674 222 485 
f 661 596 612 
f 948 613 327 
f 348 615 614 
f 294 614 615 
f 481 616 461 
f 725 429 618 
f 820 620 570 
f 565 570 620 
f 858 622 621 
f 529 621 622 
f 522 466 623 
f 872 298 621 
f 597 240 243 
f 490 625 624 
f 724 624 625 
f 58 388 274 
f 805 585 464 
f 15 597 243 
f 159 597 15 
f 567 626 64 
f 255 628 627 
f 687 627 628 
f 428 629 551 
f 138 602 630 
f 994 630 602 
f 382 632 631 
f 354 631 632 
f 663 592 633 
f 880 633 592 
f 391 635 634 
f 710 634 635 
f 858 572 622 
f 530 622 572 
f 221 637 636 
f 559 636 637 
f 663 270 592 
f 641 592 270 
f 966 269 41 
f 729 639 638 
f 800 638 639 
f 716 208 640 
f 146 642 475 
f 711 475 642 
f 39 537 643 
f 218 643 537 
f 834 524 462 
f 589 462 524 
f 337 165 644 
f 934 164 645 
f 740 647 646 
f 309 646 647 
f 689 648 73 
f 453 650 649 
f 479 649 650 
f 367 275 651 
f 655 651 275 
f 869 652 587 
f 584 587 652 
f 713 56 653 
f 668 377 654 
f 275 104 655 
f 585 655 104 
f 668 654 36 
f 505 633 657 
f 880 657 633 
f 454 439 658 
f 939 658 439 
f 720 659 260 
f 461 76 481 
f 960 481 76 
f 921 661 660 
f 957 660 661 
f 684 662 250 
f 745 250 662 
f 42 270 663 
f 132 665 664 
f 388 664 665 
f 228 446 666 
f 211 668 667 
f 771 667 668 
f 532 511 136 
f 671 16 306 
f 975 669 582 
f 300 582 669 
f 671 306 226 
f 249 175 203 
f 517 670 185 
f 794 550 313 
f 734 221 636 
f 366 45 491 
f 330 673 672 
f 189 672 673 
f 485 675 674 
f 738 674 675 
f 335 549 676 
f 453 88 650 
f 885 650 88 
f 482 370 264 
f 843 678 677 
f 416 677 678 
f 663 633 505 
f 505 72 663 
f 578 679 253 
f 761 219 608 
f 866 681 680 
f 774 680 681 
f 1002 145 474 
f 139 477 331 
f 47 682 580 
f 546 580 682 
f 268 683 545 
f 724 662 684 
f 241 686 685 
f 752 685 686 
f 318 225 342 
f 944 225 318 
f 318 342 383 
f 628 139 687 
f 493 586 272 
f 702 318 383 
f 182 97 688 
f 528 648 689 
f 810 690 492 
f 235 492 690 
f 865 692 691 
f 995 691 692 
f 335 291 564 
f 870 564 291 
f 987 608 538 
f 462 140 693 
f 64 693 140 
f 968 133 694 
f 847 69 514 
f 737 514 69 
f 431 336 676 
f 72 696 320 
f 333 320 696 
f 936 686 241 
f 845 575 4 
f 836 163 576 
f 603 697 1 
f 127 333 696 
f 543 612 135 
f 595 135 612 
f 58 664 388 
f 74 699 698 
f 211 698 699 
f 762 33 162 
f 875 701 700 
f 961 700 701 
f 714 701 352 
f 875 352 701 
f 356 702 384 
f 816 162 703 
f 993 354 632 
f 978 418 704 
f 641 706 705 
f 821 705 706 
f 392 353 707 
f 931 707 353 
f 952 708 450 
f 162 424 351 
f 958 533 302 
f 933 302 533 
f 57 708 653 
f 495 653 708 
f 932 228 666 
f 284 709 469 
f 911 469 709 
f 323 215 710 
f 216 710 215 
f 804 712 711 
f 868 711 712 
f 647 56 713 
f 352 268 714 
f 25 78 49 
f 333 127 617 
f 460 615 436 
f 348 436 615 
f 769 715 197 
f 430 197 715 
f 936 717 716 
f 208 716 717 
f 672 718 387 
f 337 427 719 
f 259 719 427 
f 827 659 720 
f 363 43 385 
f 132 664 445 
f 446 445 664 
f 840 45 366 
f 884 520 542 
f 748 722 721 
f 472 721 722 
f 723 419 455 
f 356 419 723 
f 447 664 58 
f 502 723 455 
f 625 423 724 
f 181 724 423 
f 690 326 235 
f 653 496 713 
f 915 713 496 
f 485 157 675 
f 108 675 157 
f 837 448 725 
f 244 725 448 
f 759 220 163 
f 959 204 210 
f 900 93 449 
f 308 449 93 
f 795 252 726 
f 548 329 727 
f 444 727 329 
f 389 728 137 
f 908 730 729 
f 508 729 730 
f 655 731 317 
f 787 732 223 
f 411 223 732 
f 609 601 733 
f 569 733 601 
f 738 637 674 
f 222 674 637 
f 862 734 636 
f 426 735 237 
f 283 237 735 
f 776 644 166 
f 861 736 470 
f 975 582 737 
f 403 378 738 
f 637 738 378 
f 431 676 497 
f 821 739 705 
f 338 705 739 
f 899 741 740 
f 57 740 741 
f 120 743 742 
f 903 742 743 
f 523 744 289 
f 131 289 744 
f 991 88 745 
f 453 745 88 
f 801 177 746 
f 596 746 177 
f 871 368 59 
f 791 59 368 
f 466 522 516 
f 833 516 522 
f 411 748 747 
f 721 747 748 
f 983 749 562 
f 536 751 750 
f 187 750 751 
f 860 685 752 
f 881 526 540 
f 857 211 699 
f 803 753 316 
f 849 334 577 
f 471 722 732 
f 748 732 722 
f 908 456 730 
f 488 536 704 
f 389 754 728 
f 86 728 754 
f 760 441 145 
f 902 756 755 
f 381 755 756 
f 817 242 757 
f 590 502 503 
f 503 758 590 
f 778 590 758 
f 516 61 466 
f 803 316 759 
f 843 760 678 
f 1002 678 760 
f 907 363 385 
f 254 219 761 
f 162 351 762 
f 109 763 738 
f 403 738 763 
f 277 482 264 
f 964 99 764 
f 669 666 447 
f 837 725 527 
f 618 527 725 
f 746 596 661 
f 733 569 566 
f 933 766 765 
f 906 765 766 
f 939 210 767 
f 882 767 210 
f 948 92 768 
f 629 428 245 
f 971 719 769 
f 259 769 719 
f 667 771 770 
f 804 770 771 
f 544 482 278 
f 560 566 772 
f 965 772 566 
f 681 591 774 
f 788 774 591 
f 799 775 325 
f 881 540 292 
f 671 186 158 
f 779 778 777 
f 758 777 778 
f 555 778 779 
f 743 781 780 
f 984 780 781 
f 21 782 256 
f 660 783 156 
f 154 156 783 
f 938 784 89 
f 906 89 784 
f 604 290 785 
f 285 785 290 
f 231 786 783 
f 873 783 786 
f 340 732 787 
f 555 788 778 
f 590 778 788 
f 377 764 98 
f 871 59 274 
f 897 789 442 
f 790 442 789 
f 364 179 134 
f 1000 790 789 
f 872 529 278 
f 517 278 529 
f 428 551 541 
f 794 541 551 
f 299 59 791 
f 529 556 517 
f 670 517 556 
f 609 506 601 
f 189 793 792 
f 610 792 793 
f 291 540 794 
f 937 605 390 
f 188 567 795 
f 980 795 567 
f 755 48 796 
f 230 777 758 
f 797 777 230 
f 202 797 230 
f 433 777 797 
f 433 779 777 
f 500 511 532 
f 819 779 433 
f 879 197 430 
f 238 209 798 
f 717 798 209 
f 311 195 499 
f 285 775 799 
f 909 367 651 
f 994 603 1 
f 642 800 711 
f 804 711 800 
f 885 47 581 
f 921 802 801 
f 178 801 802 
f 164 803 759 
f 639 770 804 
f 249 745 453 
f 699 73 519 
f 507 806 805 
f 731 805 806 
f 607 808 807 
f 959 807 808 
f 896 809 177 
f 596 177 809 
f 856 521 195 
f 696 72 126 
f 403 810 378 
f 479 650 581 
f 885 581 650 
f 435 606 364 
f 314 811 645 
f 346 645 811 
f 284 569 709 
f 601 709 569 
f 261 812 125 
f 554 599 375 
f 814 797 813 
f 202 813 797 
f 432 797 814 
f 654 376 35 
f 920 35 376 
f 718 816 815 
f 703 815 816 
f 798 242 817 
f 436 395 818 
f 688 96 796 
f 902 796 96 
f 913 819 433 
f 856 196 507 
f 627 599 554 
f 509 730 457 
f 888 491 619 
f 428 541 618 
f 526 618 541 
f 510 184 442 
f 897 442 184 
f 905 820 570 
f 850 739 821 
f 422 62 820 
f 915 490 822 
f 624 822 490 
f 775 286 563 
f 813 530 572 
f 980 141 823 
f 958 823 141 
f 374 825 824 
f 297 824 825 
f 635 827 826 
f 33 826 827 
f 349 484 828 
f 565 13 829 
f 528 831 830 
f 799 830 831 
f 832 432 814 
f 913 432 832 
f 831 833 604 
f 954 726 251 
f 493 334 835 
f 849 835 334 
f 217 836 576 
f 889 837 94 
f 527 94 837 
f 75 838 39 
f 537 39 838 
f 615 616 294 
f 924 294 616 
f 381 48 755 
f 620 820 61 
f 840 261 355 
f 594 398 571 
f 421 571 398 
f 528 830 648 
f 884 648 830 
f 851 839 623 
f 523 623 839 
f 899 842 841 
f 976 841 842 
f 586 835 589 
f 992 589 835 
f 675 109 738 
f 968 694 844 
f 246 844 694 
f 946 845 4 
f 492 235 773 
f 593 338 846 
f 940 305 848 
f 408 347 281 
f 973 281 347 
f 505 657 90 
f 248 90 657 
f 922 547 186 
f 126 849 577 
f 981 739 850 
f 400 839 851 
f 69 853 852 
f 938 852 853 
f 652 706 584 
f 652 821 706 
f 919 386 815 
f 718 815 386 
f 972 854 324 
f 256 855 812 
f 409 812 855 
f 919 776 307 
f 844 521 856 
f 999 701 714 
f 668 211 857 
f 414 689 74 
f 178 233 413 
f 887 413 233 
f 680 859 359 
f 672 816 718 
f 179 860 752 
f 846 339 32 
f 470 425 861 
f 238 861 425 
f 880 846 32 
f 734 862 488 
f 982 488 862 
f 46 840 579 
f 892 864 863 
f 845 863 864 
f 753 651 655 
f 880 593 846 
f 560 772 865 
f 692 865 772 
f 886 681 866 
f 397 867 438 
f 695 828 222 
f 987 761 608 
f 454 658 62 
f 465 62 658 
f 876 409 855 
f 475 868 440 
f 486 440 868 
f 641 269 706 
f 721 120 747 
f 742 747 120 
f 465 851 623 
f 953 609 733 
f 982 751 536 
f 698 85 74 
f 656 74 85 
f 23 869 159 
f 597 159 869 
f 903 625 490 
f 24 727 850 
f 981 850 727 
f 291 794 870 
f 313 870 794 
f 621 529 872 
f 786 874 873 
f 956 873 874 
f 968 805 133 
f 464 133 805 
f 931 352 875 
f 877 876 375 
f 554 375 876 
f 876 877 347 
f 483 879 878 
f 890 878 879 
f 32 657 880 
f 94 527 881 
f 34 720 260 
f 851 882 400 
f 957 543 883 
f 665 464 279 
f 648 884 542 
f 326 563 611 
f 749 611 563 
f 424 162 816 
f 364 395 435 
f 494 298 872 
f 298 773 236 
f 157 360 108 
f 731 655 585 
f 925 886 357 
f 319 357 886 
f 488 704 332 
f 857 377 668 
f 838 416 538 
f 987 538 416 
f 224 468 736 
f 331 602 138 
f 248 657 32 
f 991 181 688 
f 262 491 888 
f 686 180 752 
f 214 836 217 
f 656 414 74 
f 900 449 889 
f 546 682 401 
f 430 890 879 
f 865 691 891 
f 943 891 691 
f 380 892 310 
f 987 474 761 
f 440 761 474 
f 535 893 697 
f 369 697 893 
f 960 328 613 
f 901 397 894 
f 834 559 271 
f 795 726 187 
f 954 187 726 
f 465 767 851 
f 882 851 767 
f 985 652 869 
f 276 489 895 
f 332 895 489 
f 413 896 178 
f 119 656 85 
f 793 124 409 
f 812 409 124 
f 741 899 898 
f 841 898 899 
f 799 785 285 
f 371 900 95 
f 889 95 900 
f 988 397 901 
f 916 353 392 
f 731 806 316 
f 687 600 627 
f 548 756 902 
f 197 879 483 
f 453 176 249 
f 783 873 897 
f 789 897 873 
f 631 354 673 
f 125 673 354 
f 142 300 669 
f 298 494 773 
f 984 423 780 
f 625 780 423 
f 393 290 130 
f 313 258 870 
f 807 439 867 
f 410 747 903 
f 742 903 747 
f 319 702 357 
f 925 357 437 
f 390 498 890 
f 930 890 498 
f 686 904 180 
f 232 180 904 
f 658 767 465 
f 571 421 905 
f 766 90 906 
f 434 685 907 
f 860 907 685 
f 22 888 619 
f 4 574 754 
f 119 754 574 
f 956 908 789 
f 1000 789 908 
f 782 628 255 
f 933 71 766 
f 90 766 71 
f 655 317 753 
f 860 363 907 
f 876 855 554 
f 935 909 753 
f 651 753 909 
f 605 827 635 
f 952 891 708 
f 495 708 891 
f 943 495 891 
f 509 911 910 
f 511 910 911 
f 974 267 545 
f 723 912 437 
f 925 437 912 
f 371 768 900 
f 93 900 768 
f 502 912 723 
f 961 914 913 
f 819 913 914 
f 598 451 307 
f 386 307 451 
f 1001 862 63 
f 558 63 862 
f 919 815 703 
f 209 283 640 
f 501 640 283 
f 986 713 915 
f 353 916 683 
f 546 683 916 
f 471 116 917 
f 785 799 831 
f 904 918 874 
f 956 874 918 
f 833 523 289 
f 870 257 564 
f 953 733 561 
f 864 892 380 
f 221 174 695 
f 579 920 46 
f 107 46 920 
f 156 921 660 
f 944 922 186 
f 912 502 590 
f 138 630 923 
f 361 923 630 
f 311 217 576 
f 997 304 901 
f 988 901 304 
f 576 196 311 
f 421 398 438 
f 321 295 924 
f 393 562 286 
f 591 925 912 
f 842 927 926 
f 863 926 927 
f 946 926 863 
f 841 929 928 
f 406 928 929 
f 957 612 543 
f 498 396 930 
f 521 930 396 
f 378 559 637 
f 227 932 339 
f 18 339 932 
f 246 97 844 
f 534 71 933 
f 372 497 322 
f 645 935 934 
f 803 934 935 
f 919 144 518 
f 520 763 109 
f 686 936 904 
f 918 904 936 
f 500 698 212 
f 408 610 793 
f 854 215 323 
f 628 476 139 
f 991 796 88 
f 107 920 376 
f 377 857 764 
f 964 764 857 
f 978 697 603 
f 831 515 833 
f 786 232 904 
f 564 549 335 
f 693 558 834 
f 671 158 16 
f 767 658 939 
f 798 861 238 
f 415 620 61 
f 984 930 182 
f 521 182 930 
f 740 56 647 
f 986 915 940 
f 822 940 915 
f 756 548 941 
f 469 501 283 
f 303 263 577 
f 942 215 854 
f 539 858 825 
f 621 825 858 
f 780 625 743 
f 903 743 625 
f 406 315 506 
f 319 922 944 
f 818 460 436 
f 461 809 896 
f 935 645 346 
f 76 461 896 
f 575 894 14 
f 985 850 652 
f 821 652 850 
f 643 632 382 
f 314 836 214 
f 427 945 143 
f 734 174 221 
f 476 628 782 
f 272 810 492 
f 487 35 920 
f 845 946 863 
f 983 931 947 
f 875 947 931 
f 935 753 803 
f 822 808 607 
f 990 460 818 
f 639 508 770 
f 910 770 508 
f 586 493 835 
f 92 948 327 
f 770 910 667 
f 212 667 910 
f 960 321 480 
f 924 480 321 
f 447 142 669 
f 965 426 949 
f 594 571 829 
f 779 819 555 
f 24 548 727 
f 1000 638 642 
f 800 642 638 
f 61 950 415 
f 475 711 868 
f 322 613 948 
f 98 484 349 
f 814 813 572 
f 991 745 662 
f 953 928 609 
f 532 728 86 
f 146 441 790 
f 254 486 951 
f 951 920 579 
f 496 410 915 
f 672 387 330 
f 656 13 565 
f 268 353 683 
f 904 874 786 
f 393 285 290 
f 478 131 744 
f 600 923 362 
f 1001 626 188 
f 567 188 626 
f 979 886 866 
f 861 798 817 
f 914 358 819 
f 932 666 17 
f 975 17 666 
f 542 360 519 
f 791 600 362 
f 974 344 267 
f 999 267 344 
f 962 954 251 
f 965 568 735 
f 284 735 568 
f 301 251 955 
f 996 35 487 
f 947 700 539 
f 573 539 700 
f 984 890 930 
f 792 610 424 
f 823 958 302 
f 340 471 732 
f 703 144 919 
f 439 807 959 
f 771 36 712 
f 996 712 36 
f 549 564 917 
f 842 899 927 
f 646 927 899 
f 661 612 957 
f 593 705 338 
f 624 684 808 
f 204 808 684 
f 968 844 856 
f 76 328 960 
f 997 901 379 
f 894 379 901 
f 973 346 811 
f 832 814 572 
f 256 888 21 
f 403 690 810 
f 573 913 832 
f 218 632 643 
f 393 707 562 
f 983 562 707 
f 872 277 494 
f 736 861 817 
f 710 635 826 
f 178 802 233 
f 974 401 359 
f 680 359 401 
f 61 516 950 
f 573 961 913 
f 282 812 261 
f 943 467 223 
f 809 394 595 
f 588 869 587 
f 848 443 552 
f 875 700 947 
f 301 962 251 
f 624 724 684 
f 523 839 744 
f 998 744 839 
f 971 769 963 
f 198 963 769 
f 925 681 886 
f 887 183 843 
f 44 224 736 
f 641 705 593 
f 699 964 857 
f 414 950 515 
f 965 566 568 
f 772 965 949 
f 265 269 966 
f 131 478 967 
f 362 513 299 
f 979 941 922 
f 547 922 941 
f 695 350 828 
f 450 969 561 
f 953 561 969 
f 606 970 43 
f 204 959 808 
f 700 961 573 
f 407 389 137 
f 187 954 750 
f 893 750 954 
f 721 971 963 
f 854 972 942 
f 811 942 972 
f 972 973 811 
f 918 936 716 
f 558 862 636 
f 884 763 520 
f 715 769 259 
f 669 975 666 
f 63 558 693 
f 926 3 976 
f 350 420 106 
f 45 106 420 
f 472 257 971 
f 719 971 257 
f 607 940 822 
f 884 977 763 
f 403 763 977 
f 978 603 418 
f 704 535 978 
f 697 978 535 
f 898 969 741 
f 57 741 969 
f 363 606 43 
f 995 467 691 
f 943 691 467 
f 843 510 760 
f 441 760 510 
f 439 959 939 
f 210 939 959 
f 962 893 954 
f 371 95 431 
f 336 431 95 
f 511 212 910 
f 402 756 979 
f 941 979 756 
f 980 252 795 
f 365 141 980 
f 33 827 720 
f 372 948 768 
f 782 21 476 
f 300 513 583 
f 816 672 792 
f 189 792 672 
f 877 935 346 
f 404 799 325 
f 716 501 918 
f 456 918 501 
f 1001 982 862 
f 931 983 707 
f 405 160 110 
f 452 550 629 
f 715 659 937 
f 605 937 659 
f 534 849 126 
f 942 811 314 
f 878 890 984 
f 487 920 951 
f 967 580 345 
f 916 345 580 
f 36 771 668 
f 581 967 479 
f 789 873 956 
f 743 121 781 
f 955 823 302 
f 563 326 775 
f 998 399 649 
f 638 908 729 
f 212 511 500 
f 850 985 24 
f 673 330 631 
f 315 407 137 
f 491 262 366 
f 422 820 905 
f 962 765 369 
f 553 647 986 
f 713 986 647 
f 179 364 860 
f 980 823 252 
f 955 252 823 
f 919 307 386 
f 444 446 981 
f 228 981 446 
f 253 951 579 
f 615 460 616 
f 397 988 867 
f 458 867 988 
f 945 776 518 
f 919 518 776 
f 972 281 973 
f 953 969 898 
f 692 772 949 
f 3 926 946 
f 892 927 309 
f 646 309 927 
f 864 575 845 
f 394 809 990 
f 461 990 809 
f 247 17 938 
f 852 938 17 
f 935 877 909 
f 375 909 877 
f 799 404 830 
f 977 830 404 
f 671 944 186 
f 928 953 898 
f 921 156 802 
f 275 367 871 
f 981 227 739 
f 338 739 227 
f 995 470 467 
f 762 826 33 
f 337 644 945 
f 776 945 644 
f 990 818 394 
f 765 962 301 
f 699 519 964 
f 616 480 924 
f 929 288 407 
f 223 411 943 
f 496 943 411 
f 312 634 216 
f 710 216 634 
f 853 784 938 
f 727 444 981 
f 765 301 933 
f 2 784 853 
f 816 792 424 
f 430 715 937 
f 296 276 895 
f 482 405 370 
f 343 914 961 
f 952 865 891 
f 976 842 926 
f 928 898 841 
f 958 992 533 
f 849 533 992 
f 2 853 68 
f 765 906 2 
f 784 2 906 
f 329 902 96 
f 757 989 817 
f 44 817 989 
f 246 694 445 
f 132 445 694 
f 38 382 308 
f 681 925 591 
f 613 321 960 
f 1 68 847 
f 679 993 632 
f 594 894 398 
f 847 994 1 
f 294 117 614 
f 884 830 977 
f 144 703 161 
f 578 840 355 
f 685 434 241 
f 757 241 434 
f 218 679 632 
f 508 639 729 
f 323 710 826 
f 986 848 552 
f 309 647 553 
f 949 425 995 
f 470 995 425 
f 580 546 916 
f 659 715 259 
f 852 975 737 
f 452 598 550 
f 677 413 887 
f 181 991 662 
f 783 897 154 
f 803 164 934 
f 630 994 847 
f 75 287 327 
f 1001 63 626 
f 868 712 996 
f 324 280 972 
f 214 942 314 
f 948 372 322 
f 999 714 267 
f 859 788 555 
f 929 976 288 
f 507 968 856 
f 781 878 984 
f 899 740 646 
f 578 355 993 
f 299 791 362 
f 183 887 153 
f 839 399 998 
f 512 911 709 
f 867 458 807 
f 701 999 961 
f 343 961 999 
f 507 805 968 
f 347 408 876 
f 986 940 848 
f 602 331 418 
f 755 796 902 
f 427 337 945 
f 250 204 684 
f 774 788 859 
f 548 902 329 
f 725 244 429 
f 970 224 44 
f 724 181 662 
f 443 304 997 
f 575 379 894 
f 456 956 918 
f 412 417 838 
f 242 798 717 
f 23 985 869 
f 957 231 660 
f 783 660 231 
f 121 963 198 
f 865 952 560 
f 358 914 343 
f 796 991 688 
f 456 908 956 
f 868 996 486 
f 808 822 624 
f 323 826 762 
f 717 936 241 
f 463 992 958 
f 682 381 402 
f 756 402 381 
f 332 477 895 
f 1000 908 638 
f 849 992 835 
f 180 232 883 
f 957 883 232 
f 469 911 509 
f 892 863 927 
f 974 546 401 
f 161 34 144 
f 732 748 411 
f 923 687 138 
f 117 295 549 
f 736 817 44 
f 944 671 225 
f 413 677 417 
f 340 970 606 
f 141 463 958 
f 829 570 565 
f 896 412 76 
f 539 573 858 
f 843 677 887 
f 499 634 312 
f 1002 474 987 
f 680 401 866 
f 292 336 881 
f 847 361 630 
f 737 69 852 
f 483 878 781 
f 452 629 330 
f 731 585 805 
f 488 982 536 
f 678 987 416 
f 472 971 721 
f 831 604 785 
f 750 893 535 
f 929 841 976 
f 478 744 998 
f 962 369 893 
f 120 721 963 
f 825 621 297 
f 224 970 787 
f 340 787 970 
f 368 599 791 
f 373 749 983 
f 382 631 244 
f 827 605 659 
f 993 679 578 
f 751 982 1001 
f 940 607 305 
f 886 979 922 
f 895 476 296 
f 746 661 921 
f 949 995 692 
f 1001 188 751 
f 866 402 979 
f 824 297 611 
f 479 998 649 
f 712 804 771 
f 359 344 974 
f 404 325 690 
f 864 379 575 
f 117 549 917 
f 1000 146 790 
f 501 716 640 
f 852 17 975 
f 448 837 889 
f 345 131 967 
f 1002 987 678 
f 848 304 443 
f 434 989 757 
f 922 319 886 
f 600 687 923 
f 735 426 965 
f 514 737 583 
f 639 804 800 
f 859 680 774 
f 847 514 361 
f 281 610 408 
f 116 471 340 
f 947 373 983 
f 380 443 997 
f 801 746 921 
f 634 499 391 
f 749 373 824 
f 146 1000 642 
f 838 75 412 
f 462 693 834 
f 760 145 1002 
f 824 611 749 
