#  wavefront obj file written by the visualization toolkit

mtllib rightsurretumor.mtl

v 164.5330047607422 208.2469940185547 103.50299835205078
v 164.0679931640625 208.7480010986328 103.19999694824219
v 163.3000030517578 215.5850067138672 108.34700012207031
v 162.83599853515625 214.72500610351562 107.16999816894531
v 165.2519989013672 208.10499572753906 103.89199829101562
v 164.9239959716797 208.5919952392578 102.91999816894531
v 161.5919952392578 224.92300415039062 117.71600341796875
v 161.74200439453125 224.9429931640625 115.33599853515625
v 174.0449981689453 221.75599670410156 125.24299621582031
v 174.33700561523438 220.81399536132812 125.69499969482422
v 166.8280029296875 210.95199584960938 111.37799835205078
v 166.09800720214844 209.75900268554688 110.29199981689453
v 167.82400512695312 222.552001953125 111.7239990234375
v 166.4669952392578 224.68499755859375 113.06300354003906
v 169.01499938964844 211.5970001220703 107.09300231933594
v 168.64599609375 210.5 106.8489990234375
v 168.0030059814453 211.39100646972656 112.48899841308594
v 164.71600341796875 209.31399536132812 102.58599853515625
v 165.83999633789062 208.55999755859375 103.26699829101562
v 165.45700073242188 209.2050018310547 102.62000274658203
v 162.24600219726562 222.9320068359375 119.2490005493164
v 163.81700134277344 211.56700134277344 103.66799926757812
v 163.8070068359375 210.9550018310547 103.26200103759766
v 175.1750030517578 220.1490020751953 119.29900360107422
v 174.0850067138672 220.21400451660156 121.00399780273438
v 167.44400024414062 209.5850067138672 105.35399627685547
v 167.92300415039062 210.19700622558594 105.77999877929688
v 166.51800537109375 209.0050048828125 103.73200225830078
v 167.99600219726562 209.531005859375 106.875
v 161.53599548339844 223.21499633789062 114.34700012207031
v 163.15499877929688 224.6999969482422 113.65599822998047
v 164.07400512695312 209.68099975585938 102.82599639892578
v 164.625 226.8939971923828 114.03700256347656
v 170.52999877929688 224.18299865722656 125.25700378417969
v 168.60000610351562 225.11700439453125 124.50299835205078
v 164.89999389648438 210.25799560546875 102.56900024414062
v 165.36500549316406 209.89999389648438 102.5250015258789
v 166.0780029296875 209.2729949951172 102.927001953125
v 165.8990020751953 209.86700439453125 102.71700286865234
v 166.4080047607422 210.0959930419922 103.2979965209961
v 163.5659942626953 210.2100067138672 103.28800201416016
v 164.28900146484375 210.66099548339844 102.822998046875
v 174.49899291992188 214.34100341796875 116.1709976196289
v 173.67599487304688 213.3090057373047 115.92500305175781
v 171.2779998779297 218.2050018310547 110.60600280761719
v 173.13600158691406 217.24200439453125 111.1729965209961
v 171.67999267578125 225.0050048828125 123.55500030517578
v 172.96099853515625 223.96200561523438 123.25299835205078
v 166.66799926757812 212.4530029296875 113.31800079345703
v 166.13800048828125 213.75100708007812 115.04100036621094
v 174.48899841308594 223.44500732421875 119.50900268554688
v 174.04600524902344 222.39999389648438 121.5739974975586
v 164.61000061035156 214.6320037841797 114.16500091552734
v 174.4600067138672 215.6179962158203 117.63700103759766
v 173.04400634765625 214.23599243164062 117.27100372314453
v 165.75599670410156 210.6439971923828 102.83200073242188
v 170.69700622558594 222.25999450683594 128.08299255371094
v 170.73699951171875 222.9949951171875 127.47599792480469
v 162.17100524902344 211.781005859375 105.05400085449219
v 163.01199340820312 212.49099731445312 104.44599914550781
v 166.60299682617188 217.99000549316406 110.14199829101562
v 167.78900146484375 216.11300659179688 109.13700103759766
v 172.4980010986328 223.0279998779297 127.80599975585938
v 171.68800354003906 223.05599975585938 128.06300354003906
v 162.89700317382812 209.3159942626953 107.79100036621094
v 162.5989990234375 210.3350067138672 108.8290023803711
v 169.09800720214844 217.80499267578125 110.1729965209961
v 174.0240020751953 213.93299865722656 112.93900299072266
v 174.7899932861328 214.5 114.69300079345703
v 173.64999389648438 219.21800231933594 126.94400024414062
v 173.76400756835938 219.99200439453125 128.0050048828125
v 165.39100646972656 207.88299560546875 105.58300018310547
v 164.7239990234375 208.03500366210938 106.39199829101562
v 165.07400512695312 211.156005859375 102.84600067138672
v 165.63299560546875 211.48599243164062 103.24600219726562
v 166.21099853515625 211.0229949951172 103.37200164794922
v 166.9510040283203 209.81900024414062 104.23699951171875
v 169.36000061035156 228.75100708007812 115.34300231933594
v 169.4980010986328 227.88400268554688 114.44000244140625
v 164.406005859375 211.43800354003906 103.16999816894531
v 164.98899841308594 211.76600646972656 103.2959976196289
v 169.28500366210938 214.4720001220703 108.6780014038086
v 170.80099487304688 213.6479949951172 109.54499816894531
v 167.25799560546875 209.5 109.97799682617188
v 168.7989959716797 210.05799865722656 108.20899963378906
v 169.67999267578125 210.61300659179688 109.5510025024414
v 163.55099487304688 208.65699768066406 104.42900085449219
v 164.06700134277344 208.2779998779297 104.03099822998047
v 174.36099243164062 217.63099670410156 118.97200012207031
v 172.9669952392578 216.7830047607422 119.20700073242188
v 164.01699829101562 208.21800231933594 105.31700134277344
v 164.63800048828125 208.00599670410156 104.6729965209961
v 162.51400756835938 213.82699584960938 109.76499938964844
v 162.33700561523438 214.64999389648438 108.41000366210938
v 166.29600524902344 208.35899353027344 108.18299865722656
v 165.08200073242188 208.41200256347656 108.13899993896484
v 165.35299682617188 217.93899536132812 120.00499725341797
v 163.30799865722656 218.9929962158203 118.83200073242188
v 162.8159942626953 216.56700134277344 114.88700103759766
v 162.78799438476562 216.96400451660156 116.60099792480469
v 166.08599853515625 208.13499450683594 104.69300079345703
v 167.8470001220703 229.447998046875 116.427001953125
v 169.31500244140625 229.21499633789062 117.43000030517578
v 165.74400329589844 225.41700744628906 113.49600219726562
v 166.31700134277344 208.45399475097656 103.89199829101562
v 163.13999938964844 209.2310028076172 104.38300323486328
v 163.11199951171875 208.96600341796875 105.37999725341797
v 163.48599243164062 209.3350067138672 103.56199645996094
v 166.9929962158203 208.91799926757812 104.98300170898438
v 166.5989990234375 208.49200439453125 104.60099792480469
v 162.76600646972656 209.66700744628906 104.90899658203125
v 170.3990020751953 220.25599670410156 127.90899658203125
v 170.89100646972656 220.58299255371094 128.7239990234375
v 163.05499267578125 209.93899536132812 104.01699829101562
v 172.56700134277344 226.0780029296875 115.62899780273438
v 173.4040069580078 224.54600524902344 115.15599822998047
v 171.42300415039062 217.18099975585938 124.10199737548828
v 170.9029998779297 217.63999938964844 125.73200225830078
v 172.67999267578125 225.49099731445312 121.43699645996094
v 163.8280029296875 210.76600646972656 110.10800170898438
v 163.875 212.57200622558594 110.71199798583984
v 162.64500427246094 210.63499450683594 104.45700073242188
v 162.35299682617188 210.10800170898438 105.53600311279297
v 173.24200439453125 221.16400146484375 128.78700256347656
v 173.0189971923828 220.38900756835938 128.83999633789062
v 163.2449951171875 210.78799438476562 103.76399993896484
v 170.51199340820312 225.16299438476562 124.2509994506836
v 171.77200317382812 217.48399353027344 125.4260025024414
v 163.70899963378906 213.03700256347656 104.48400115966797
v 165.531005859375 208.03799438476562 107.1989974975586
v 166.7220001220703 210.8560028076172 103.98400115966797
v 167.35400390625 210.5260009765625 104.83999633789062
v 162.197998046875 210.90899658203125 105.05799865722656
v 162.50900268554688 211.51499938964844 104.4530029296875
v 163.13699340820312 211.58099365234375 104.05799865722656
v 173.63400268554688 222.25999450683594 126.75
v 173.6230010986328 221.57200622558594 127.9489974975586
v 165.94200134277344 215.6580047607422 117.48699951171875
v 164.88400268554688 216.625 118.04299926757812
v 170.3699951171875 226.8489990234375 114.3280029296875
v 171.42799377441406 225.6020050048828 113.9800033569336
v 166.1820068359375 211.62899780273438 103.85600280761719
v 162.72500610351562 212.0260009765625 109.86399841308594
v 162.53599548339844 217.16799926757812 112.78500366210938
v 161.95199584960938 217.56700134277344 114.18499755859375
v 170.01699829101562 212.55099487304688 116.3759994506836
v 169.447998046875 211.83399963378906 114.58000183105469
v 172.468994140625 221.99099731445312 112.29900360107422
v 173.69900512695312 222.26100158691406 113.43299865722656
v 164.01199340820312 212.51300048828125 104.17900085449219
v 164.59800720214844 219.73899841308594 120.9010009765625
v 164.6230010986328 212.14100646972656 103.76399993896484
v 165.4550018310547 212.12399291992188 103.8290023803711
v 175.3520050048828 215.57400512695312 116.23699951171875
v 175.48699951171875 216.97900390625 117.03900146484375
v 161.20899963378906 219.83299255371094 115.83999633789062
v 161.19400024414062 221.09800720214844 114.59400177001953
v 167.11399841308594 227.51499938964844 114.05899810791016
v 170.4770050048828 220.54800415039062 111.08799743652344
v 173.15699768066406 219.26300048828125 111.85399627685547
v 166.22799682617188 212.3280029296875 104.572998046875
v 166.96400451660156 211.50599670410156 104.67500305175781
v 175.23199462890625 218.7949981689453 118.38800048828125
v 168.42300415039062 213.96499633789062 117.02400207519531
v 164.34300231933594 214.2100067138672 105.78099822998047
v 165.01699829101562 214.6999969482422 106.61000061035156
v 171.7969970703125 211.83700561523438 114.44100189208984
v 170.9550018310547 211.4980010986328 114.01499938964844
v 173.9409942626953 213.19700622558594 114.45899963378906
v 161.97900390625 210.76499938964844 106.06999969482422
v 172.43499755859375 212.21099853515625 112.78199768066406
v 172.79400634765625 212.31199645996094 114.6969985961914
v 165.04299926757812 226.8179931640625 122.29299926757812
v 164.98399353027344 227.95700073242188 121.01100158691406
v 165.4239959716797 225.9010009765625 123.66699981689453
v 166.10899353027344 218.63900756835938 121.79199981689453
v 163.4040069580078 214.60400390625 111.34700012207031
v 169.88900756835938 210.9810028076172 111.8280029296875
v 165.2570037841797 212.89599609375 104.5719985961914
v 171.86599731445312 220.41000366210938 129.03500366210938
v 171.16600036621094 221.5449981689453 128.927001953125
v 172.88900756835938 218.50799560546875 121.6969985961914
v 168.45899963378906 210.16700744628906 110.27899932861328
v 174.21600341796875 221.14300537109375 126.87799835205078
v 171.39199829101562 226.62100219726562 121.57599639892578
v 163.4929962158203 213.57200622558594 105.15399932861328
v 164.41900634765625 223.197998046875 122.62899780273438
v 163.58799743652344 224.37399291992188 121.34500122070312
v 164.41799926757812 213.4080047607422 104.86199951171875
v 173.55799865722656 218.7969970703125 125.1050033569336
v 162.3300018310547 222.79600524902344 113.31600189208984
v 163.77499389648438 222.1009979248047 112.22799682617188
v 162.98699951171875 226.4510040283203 114.73799896240234
v 172.302001953125 218.15899658203125 126.66000366210938
v 174.22500610351562 220.37899780273438 126.9229965209961
v 167.47300720214844 228.68699645996094 114.88899993896484
v 166.31300354003906 228.67799377441406 120.26399993896484
v 168.09100341796875 228.77499389648438 120.36199951171875
v 165.21499633789062 215.27200317382812 116.60700225830078
v 175.28199768066406 220.25 115.31500244140625
v 175.55999755859375 221.093994140625 117.38400268554688
v 163.531005859375 208.5229949951172 105.80599975585938
v 163.97300720214844 208.39599609375 106.86000061035156
v 173.48899841308594 225.45599365234375 118.01499938964844
v 173.5500030517578 224.35699462890625 120.85399627685547
v 169.61599731445312 211.0919952392578 108.20800018310547
v 164.1020050048828 228.86199951171875 118.44000244140625
v 165.7259979248047 229.25799560546875 118.90699768066406
v 172.52499389648438 219.22300720214844 128.05299377441406
v 169.27200317382812 217.36300659179688 122.45800018310547
v 168.96499633789062 218.2050018310547 124.64900207519531
v 166.1909942626953 208.06199645996094 106.57599639892578
v 166.7530059814453 208.36500549316406 105.8280029296875
v 165.26800537109375 213.8040008544922 105.5530014038086
v 166.16200256347656 214.07699584960938 106.46800231933594
v 162.71600341796875 209.39100646972656 106.16500091552734
v 163.24600219726562 208.8509979248047 106.78399658203125
v 164.30799865722656 228.39199829101562 119.93699645996094
v 171.947998046875 223.3979949951172 127.11699676513672
v 162.5659942626953 224.97300720214844 119.91400146484375
v 173.91900634765625 215.61199951171875 111.99700164794922
v 174.71099853515625 215.03500366210938 113.33100128173828
v 173.88299560546875 220.7550048828125 127.9489974975586
v 162.30599975585938 209.91900634765625 106.99800109863281
v 173.8070068359375 221.2779998779297 122.64700317382812
v 174.10400390625 221 124.0260009765625
v 171.49000549316406 214.54299926757812 117.83699798583984
v 167.60000610351562 212.6699981689453 114.61399841308594
v 162.4949951171875 226.63800048828125 119.80699920654297
v 162.8979949951172 227.66900634765625 119.59600067138672
v 167.0260009765625 226.61900329589844 123.94100189208984
v 172.2689971923828 227.11399841308594 117.63400268554688
v 172.9459991455078 226.21299743652344 119.3239974975586
v 173.66099548339844 219.66000366210938 123.10199737548828
v 165.25999450683594 211.04800415039062 110.78299713134766
v 172.55599975585938 212.88499450683594 116.4010009765625
v 171.76600646972656 212.22900390625 115.97100067138672
v 174.3419952392578 217.4149932861328 112.56500244140625
v 163.8249969482422 208.81199645996094 108.17400360107422
v 161.93600463867188 211.5850067138672 108.78600311279297
v 161.83599853515625 210.94400024414062 107.49800109863281
v 167.07699584960938 214.08799743652344 116.40899658203125
v 167.49200439453125 223.11300659179688 124.81600189208984
v 165.6840057373047 223.68099975585938 124.0739974975586
v 161.80599975585938 211.9429931640625 106.10600280761719
v 172.3040008544922 223.6479949951172 125.83399963378906
v 172.7429962158203 223.63299560546875 124.75900268554688
v 173.01699829101562 223.12100219726562 125.90299987792969
v 167.99600219726562 211.0970001220703 105.76200103759766
v 168.32200622558594 221.906005859375 125.44400024414062
v 167.19500732421875 212.1959991455078 105.46700286865234
v 163.2689971923828 226.1300048828125 120.83799743652344
v 171.59100341796875 227.31900024414062 116.07099914550781
v 162.19200134277344 226.74899291992188 118.7239990234375
v 162.20399475097656 226.82400512695312 116.58599853515625
v 170.58299255371094 218.5850067138672 126.60299682617188
v 166.98399353027344 229.5919952392578 118.16100311279297
v 171.7570037841797 224.12899780273438 124.99199676513672
v 164.2949981689453 224.18299865722656 112.95700073242188
v 169.6540069580078 221.8070068359375 127.0790023803711
v 174.2310028076172 219.93299865722656 124.2979965209961
v 174.66799926757812 223.33999633789062 117.2770004272461
v 171.6929931640625 222.58700561523438 128.79800415039062
v 164.24899291992188 216.3730010986328 117.41100311279297
v 163.22300720214844 217.55299377441406 117.99500274658203
v 170.8990020751953 212.02000427246094 115.70600128173828
v 174.1300048828125 220.6490020751953 113.43299865722656
v 161.9739990234375 219.48199462890625 117.65399932861328
v 171.19000244140625 227.91099548339844 119.99600219726562
v 164.6699981689453 221.47900390625 122.40899658203125
v 162.02999877929688 213.156005859375 106.26000213623047
v 162.48699951171875 212.91900634765625 105.25399780273438
v 173.59800720214844 220.46299743652344 128.5540008544922
v 166.21499633789062 213.13299560546875 105.42400360107422
v 173.427001953125 212.81199645996094 113.13700103759766
v 168.10499572753906 217.46800231933594 121.31400299072266
v 171.43899536132812 211.64999389648438 112.0199966430664
v 163.96499633789062 215.8730010986328 116.23300170898438
v 163.36099243164062 215.8249969482422 113.41000366210938
v 170.5189971923828 216.9250030517578 120.8030014038086
v 170.6020050048828 217.1649932861328 122.58799743652344
v 167.56300354003906 216.0449981689453 118.81800079345703
v 162.74400329589844 213.93800354003906 106.06900024414062
v 166.0260009765625 215.20799255371094 107.74400329589844
v 170.0260009765625 212.56199645996094 108.54100036621094
v 164.93600463867188 224.79600524902344 123.53199768066406
v 163.97000122070312 228.62399291992188 116.43299865722656
v 165.36199951171875 229.35899353027344 116.83100128173828
v 171.21800231933594 218.4219970703125 126.7969970703125
v 167.94400024414062 209.33599853515625 108.6969985961914
v 175.15499877929688 221.66799926757812 119.11499786376953
v 173.9550018310547 219.25100708007812 120.17400360107422
v 163.56500244140625 227.6820068359375 115.51100158691406
v 170.54400634765625 211.46200561523438 109.83999633789062
v 167.3730010986328 213.14100646972656 106.40599822998047
v 172.91299438476562 212.98199462890625 111.91000366210938
v 162.1529998779297 213.9720001220703 107.0770034790039
v 167.34100341796875 208.83299255371094 106.38500213623047
v 172.56900024414062 222.3300018310547 128.59100341796875
v 172.375 221.64700317382812 129.3159942626953
v 167.55099487304688 208.89199829101562 107.78500366210938
v 163.09300231933594 216.61099243164062 111.19599914550781
v 163.41200256347656 227.29600524902344 120.4729995727539
v 168.48399353027344 226.32400512695312 113.60700225830078
v 169.19900512695312 224.5919952392578 112.84700012207031
v 163.4720001220703 214.41000366210938 106.1729965209961
v 172.88999938964844 218.18299865722656 123.72100067138672
v 161.05099487304688 221.68499755859375 116.08100128173828
v 161.10000610351562 223.39999389648438 116.06600189208984
v 163.66799926757812 209.42300415039062 109.2030029296875
v 172.3040008544922 227.02499389648438 119.61599731445312
v 169.24200439453125 226.54200744628906 123.23300170898438
v 165.62100219726562 216.4980010986328 109.16000366210938
v 172.3699951171875 217.65199279785156 124.74700164794922
v 171.4720001220703 223.92100524902344 112.59200286865234
v 173.1439971923828 223.52699279785156 113.43599700927734
v 163.906005859375 214.99400329589844 106.9209976196289
v 170.32000732421875 213.9290008544922 117.43800354003906
v 175.78799438476562 219.92799377441406 117.16799926757812
v 175.39500427246094 217.23899841308594 114.86499786376953
v 175.04100036621094 215.94500732421875 114.01599884033203
v 165.69000244140625 222.0800018310547 123.89299774169922
v 164.64500427246094 215.64100646972656 107.94499969482422
v 173.57400512695312 222.6790008544922 123.73899841308594
v 166.9510040283203 208.44500732421875 107.46700286865234
v 162.50900268554688 221.3300018310547 119.10299682617188
v 169.7790069580078 218.3979949951172 125.96399688720703
v 171.68299865722656 216.64199829101562 119.95600128173828
v 167.66700744628906 219.97799682617188 124.68699645996094
v 168.73500061035156 213.06500244140625 107.40399932861328
v 165.80799865722656 220.23899841308594 122.98400115966797
v 161.88299560546875 212.8179931640625 108.75299835205078
v 161.92799377441406 213.69900512695312 108.22200012207031
v 162.82400512695312 215.5760040283203 109.8489990234375
v 161.58900451660156 220.81500244140625 117.53700256347656
v 171.3209991455078 228.01600646972656 118.2020034790039
v 173.53199768066406 222.677001953125 125.28199768066406
v 163.37100219726562 220.6529998779297 119.91000366210938
v 164.85499572753906 219.81199645996094 111.05599975585938
v 164.4709930419922 217.72300720214844 110.43699645996094
v 163.61599731445312 222.32400512695312 121.08300018310547
v 167.61500549316406 214.41299438476562 107.68900299072266
v 168.73199462890625 212.7469940185547 115.78199768066406
v 165.7530059814453 222.8000030517578 112.05899810791016
v 174.43699645996094 222.19500732421875 115.08300018310547
v 166.8000030517578 221.49400329589844 124.61799621582031
v 173.11500549316406 222.4810028076172 127.7969970703125
v 170.1909942626953 215.82899475097656 118.9540023803711
v 166.17999267578125 229.4040069580078 115.88500213623047
v 161.6230010986328 212.26600646972656 107.41300201416016
v 170.39300537109375 219.42799377441406 127.18900299072266
v 169.54100036621094 219.5709991455078 126.41500091552734
v 168.1840057373047 212.0469970703125 106.3219985961914
v 169.96400451660156 222.67799377441406 111.75700378417969
v 167.24000549316406 227.5959930419922 122.2760009765625
v 170.0070037841797 217.4320068359375 124.35299682617188
v 167.62399291992188 218.36000061035156 123.1050033569336
v 162.9499969482422 227.91099548339844 117.70700073242188
v 171.2989959716797 223.67999267578125 126.30500030517578
v 168.10499572753906 229.6320037841797 118.7300033569336
v 161.77000427246094 213.2310028076172 107.33399963378906
v 165.2760009765625 212.81900024414062 112.15399932861328
v 163.01400756835938 219.96600341796875 112.01799774169922
v 162.093994140625 218.69900512695312 112.97200012207031
v 171.625 218.8179931640625 127.65299987792969
v 167.96800231933594 219.78199768066406 110.70999908447266
v 172.91099548339844 214.11000061035156 111.16999816894531
v 161.6719970703125 218.1750030517578 116.12300109863281
v 168.67599487304688 219.46800231933594 125.59400177001953
v 168.5850067138672 220.7790069580078 125.98699951171875
v 164.1699981689453 225.1060028076172 122.3499984741211
v 171.18699645996094 219.60000610351562 128.09100341796875
v 171.8820037841797 217.51400756835938 122.697998046875
v 171.3300018310547 212.89700317382812 116.67500305175781
v 169.71099853515625 227.7100067138672 121.45500183105469
v 169.75900268554688 223.25900268554688 125.98400115966797
v 161.4929962158203 222.3350067138672 117.87300109863281
v 170.18299865722656 221.07000732421875 127.98600006103516
v 172.36099243164062 224.70599365234375 113.45999908447266
v 171.68499755859375 214.2469940185547 110.23600006103516
v 172.281005859375 215.80099487304688 110.61900329589844
v 164.99899291992188 208.9969940185547 109.36299896240234
v 172.7760009765625 223.1320037841797 126.91699981689453
v 170.3939971923828 215.85899353027344 109.84300231933594
v 166.3070068359375 208.8730010986328 109.36599731445312
v 167.1490020751953 208.81700134277344 108.86199951171875
v 174.28799438476562 220.0070037841797 125.49400329589844
v 169.7969970703125 228.79400634765625 119.25599670410156
v 163.97799682617188 216.50599670410156 109.58799743652344
v 169.7530059814453 220.48199462890625 127.15399932861328
v 174.81199645996094 218.80099487304688 113.76599884033203
v 161.38699340820312 219.03599548339844 114.49500274658203
v 161.94500732421875 220.62899780273438 113.33300018310547
v 171.2030029296875 212.24899291992188 110.12899780273438
v 175.60699462890625 218.6959991455078 115.69499969482422
v 165.0449981689453 228.57200622558594 115.14900207519531
v 166.48399353027344 225.2469940185547 124.67400360107422
v 170.40699768066406 228.32699584960938 116.33999633789062
v 164.77200317382812 209.79800415039062 110.072998046875
v 163.12399291992188 218.3280029296875 111.55500030517578
v 171.9810028076172 212.23199462890625 111.39700317382812
v 171.93499755859375 212.96499633789062 110.60800170898438

g grp1
usemtl mtl1
f 88 2 1 
f 6 1 2 
f 317 4 3 
f 94 3 4 
f 1 6 5 
f 19 5 6 
f 255 8 7 
f 309 7 8 
f 184 10 9 
f 226 9 10 
f 235 12 11 
f 84 11 12 
f 344 14 13 
f 305 13 14 
f 206 16 15 
f 249 15 16 
f 18 6 2 
f 49 11 17 
f 183 17 11 
f 32 18 2 
f 20 19 6 
f 20 6 18 
f 220 7 21 
f 377 21 7 
f 38 19 20 
f 80 23 22 
f 126 22 23 
f 291 25 24 
f 292 24 25 
f 132 27 26 
f 29 26 27 
f 38 28 19 
f 105 19 28 
f 298 26 29 
f 8 31 30 
f 191 30 31 
f 36 18 32 
f 193 33 31 
f 104 31 33 
f 127 35 34 
f 376 34 35 
f 37 20 18 
f 37 18 36 
f 39 38 20 
f 39 20 37 
f 40 28 38 
f 40 38 39 
f 42 32 41 
f 108 41 32 
f 23 42 41 
f 55 44 43 
f 169 43 44 
f 160 46 45 
f 381 45 46 
f 247 48 47 
f 119 47 48 
f 228 50 49 
f 362 49 50 
f 205 52 51 
f 291 51 52 
f 199 53 50 
f 362 50 53 
f 56 39 37 
f 90 55 54 
f 43 54 55 
f 36 56 37 
f 64 58 57 
f 260 57 58 
f 40 39 56 
f 272 60 59 
f 134 59 60 
f 67 62 61 
f 313 61 62 
f 219 64 63 
f 299 63 64 
f 310 66 65 
f 224 65 66 
f 366 45 67 
f 384 67 45 
f 222 69 68 
f 169 68 69 
f 195 71 70 
f 209 70 71 
f 130 73 72 
f 92 72 73 
f 80 74 42 
f 36 42 74 
f 74 75 56 
f 76 56 75 
f 56 36 74 
f 40 56 76 
f 131 77 40 
f 28 40 77 
f 398 79 78 
f 196 78 79 
f 81 74 80 
f 75 74 81 
f 384 83 82 
f 285 82 83 
f 183 11 84 
f 206 86 85 
f 183 85 86 
f 2 88 87 
f 91 87 88 
f 292 90 89 
f 54 89 90 
f 92 88 1 
f 92 91 88 
f 206 85 16 
f 29 16 85 
f 334 94 93 
f 333 93 94 
f 1 5 92 
f 72 92 5 
f 385 96 95 
f 130 95 96 
f 151 98 97 
f 265 97 98 
f 278 100 99 
f 145 99 100 
f 19 101 5 
f 72 5 101 
f 360 103 102 
f 78 102 103 
f 158 104 33 
f 105 101 19 
f 110 101 105 
f 87 107 106 
f 111 106 107 
f 108 87 106 
f 2 87 108 
f 32 2 108 
f 110 28 109 
f 77 109 28 
f 105 28 110 
f 26 109 77 
f 114 106 111 
f 372 113 112 
f 378 112 113 
f 114 41 108 
f 114 108 106 
f 204 116 115 
f 379 115 116 
f 128 118 117 
f 356 117 118 
f 185 47 119 
f 235 121 120 
f 143 120 121 
f 111 123 122 
f 133 122 123 
f 300 125 124 
f 273 124 125 
f 114 111 122 
f 126 114 122 
f 126 23 41 
f 126 41 114 
f 258 47 127 
f 312 127 47 
f 314 128 117 
f 186 129 60 
f 150 60 129 
f 212 130 72 
f 132 77 131 
f 26 77 132 
f 134 122 133 
f 59 134 133 
f 135 126 122 
f 135 122 134 
f 347 137 136 
f 184 136 137 
f 282 139 138 
f 264 138 139 
f 135 22 126 
f 253 141 140 
f 305 140 141 
f 142 76 75 
f 131 40 76 
f 142 131 76 
f 162 131 142 
f 162 132 131 
f 66 120 143 
f 99 145 144 
f 364 144 145 
f 309 8 30 
f 343 147 146 
f 266 146 147 
f 60 135 134 
f 316 149 148 
f 267 148 149 
f 150 22 135 
f 150 135 60 
f 338 98 151 
f 22 152 80 
f 81 80 152 
f 150 152 22 
f 153 75 81 
f 153 81 152 
f 320 155 154 
f 54 154 155 
f 308 157 156 
f 392 156 157 
f 304 104 158 
f 142 75 153 
f 161 142 153 
f 148 160 159 
f 45 159 160 
f 162 142 161 
f 89 155 163 
f 395 163 155 
f 318 164 146 
f 343 146 164 
f 317 166 165 
f 214 165 166 
f 266 168 167 
f 277 167 168 
f 172 169 44 
f 59 133 170 
f 123 170 133 
f 275 172 171 
f 167 171 172 
f 355 174 173 
f 303 173 174 
f 231 173 175 
f 371 175 173 
f 151 97 176 
f 276 176 97 
f 42 23 80 
f 334 93 177 
f 121 177 93 
f 179 153 152 
f 147 178 168 
f 277 168 178 
f 150 179 152 
f 300 181 180 
f 113 180 181 
f 161 153 179 
f 234 182 25 
f 292 25 182 
f 223 184 137 
f 311 185 119 
f 272 186 60 
f 371 188 187 
f 341 187 188 
f 189 129 186 
f 150 129 189 
f 387 70 190 
f 194 190 70 
f 165 189 186 
f 259 192 191 
f 393 191 192 
f 189 179 150 
f 293 33 193 
f 42 36 32 
f 289 128 194 
f 314 194 128 
f 223 71 195 
f 158 196 79 
f 355 198 197 
f 257 197 198 
f 264 199 138 
f 242 138 199 
f 345 201 200 
f 319 200 201 
f 87 91 202 
f 203 202 91 
f 73 91 92 
f 73 203 91 
f 233 205 204 
f 51 204 205 
f 285 206 15 
f 324 52 48 
f 205 48 52 
f 218 208 207 
f 288 207 208 
f 223 137 124 
f 299 124 137 
f 70 209 194 
f 365 194 209 
f 213 101 110 
f 356 211 210 
f 357 210 211 
f 213 212 101 
f 72 101 212 
f 166 215 214 
f 274 214 215 
f 111 107 216 
f 217 216 107 
f 107 87 202 
f 217 107 202 
f 197 208 218 
f 213 110 109 
f 383 219 63 
f 298 109 26 
f 298 213 109 
f 254 7 220 
f 321 222 221 
f 68 221 222 
f 273 223 124 
f 216 224 123 
f 170 123 224 
f 111 216 123 
f 324 226 225 
f 234 225 226 
f 236 172 44 
f 90 227 55 
f 374 55 227 
f 17 228 49 
f 303 230 229 
f 254 229 230 
f 397 231 175 
f 311 233 232 
f 204 232 233 
f 261 234 226 
f 399 235 120 
f 374 237 236 
f 172 236 237 
f 46 160 238 
f 391 238 160 
f 292 182 90 
f 328 90 182 
f 203 239 217 
f 65 217 239 
f 350 241 240 
f 66 240 241 
f 50 242 199 
f 249 27 132 
f 16 29 27 
f 249 16 27 
f 397 244 243 
f 322 243 244 
f 272 59 245 
f 170 245 59 
f 248 247 246 
f 258 246 247 
f 25 225 234 
f 241 245 170 
f 337 247 248 
f 162 249 132 
f 251 249 162 
f 376 243 250 
f 346 250 243 
f 353 249 251 
f 229 220 252 
f 188 252 220 
f 115 141 253 
f 358 255 254 
f 7 254 255 
f 353 15 249 
f 289 256 118 
f 327 118 256 
f 208 197 257 
f 359 246 258 
f 344 192 259 
f 383 248 246 
f 104 14 259 
f 344 259 14 
f 376 260 58 
f 387 190 261 
f 234 261 190 
f 204 51 262 
f 291 262 51 
f 154 54 43 
f 64 57 263 
f 181 263 57 
f 398 253 140 
f 139 265 264 
f 100 264 265 
f 55 236 44 
f 374 266 237 
f 167 237 266 
f 345 267 149 
f 368 265 268 
f 98 268 265 
f 375 185 269 
f 311 269 185 
f 331 270 151 
f 338 151 270 
f 272 245 271 
f 350 271 245 
f 397 35 231 
f 312 231 35 
f 378 57 260 
f 332 240 143 
f 66 143 240 
f 205 119 48 
f 334 3 94 
f 387 226 10 
f 9 136 184 
f 251 161 274 
f 179 274 161 
f 295 251 274 
f 296 68 275 
f 169 275 68 
f 357 176 276 
f 147 228 17 
f 171 167 277 
f 99 279 278 
f 53 278 279 
f 373 281 280 
f 210 280 281 
f 312 47 185 
f 138 164 282 
f 318 282 164 
f 283 186 272 
f 271 283 272 
f 230 218 207 
f 323 284 166 
f 215 166 284 
f 276 97 282 
f 139 282 97 
f 294 206 285 
f 397 175 286 
f 371 286 175 
f 330 82 285 
f 306 186 283 
f 207 288 287 
f 396 287 288 
f 351 256 289 
f 84 290 183 
f 85 183 290 
f 201 291 24 
f 165 214 189 
f 179 189 214 
f 385 84 12 
f 24 292 163 
f 89 163 292 
f 358 293 255 
f 193 255 293 
f 274 179 214 
f 277 178 294 
f 86 294 178 
f 295 274 215 
f 171 296 275 
f 283 271 297 
f 361 297 271 
f 263 300 299 
f 124 299 300 
f 29 301 298 
f 325 298 301 
f 144 302 279 
f 177 279 302 
f 358 287 293 
f 396 293 287 
f 218 303 174 
f 169 172 275 
f 140 305 304 
f 14 304 305 
f 165 186 306 
f 373 182 307 
f 234 307 182 
f 377 309 308 
f 30 308 309 
f 382 310 239 
f 65 239 310 
f 278 264 100 
f 218 230 303 
f 336 269 311 
f 375 312 185 
f 284 313 62 
f 194 314 190 
f 307 190 314 
f 379 316 315 
f 148 315 316 
f 317 165 306 
f 224 241 170 
f 263 181 300 
f 348 282 318 
f 24 319 201 
f 223 195 184 
f 10 184 195 
f 377 7 309 
f 154 321 320 
f 238 320 321 
f 96 203 73 
f 177 53 279 
f 346 243 322 
f 96 73 130 
f 317 323 166 
f 9 226 324 
f 95 130 212 
f 325 212 213 
f 325 95 212 
f 178 183 86 
f 298 325 213 
f 208 257 288 
f 349 288 257 
f 216 217 65 
f 356 210 281 
f 203 217 202 
f 348 318 227 
f 374 227 318 
f 172 237 167 
f 338 326 268 
f 335 268 326 
f 96 239 203 
f 369 211 327 
f 356 327 211 
f 315 305 141 
f 90 328 227 
f 348 227 328 
f 290 301 29 
f 66 241 224 
f 224 216 65 
f 104 304 14 
f 17 183 178 
f 370 250 329 
f 346 329 250 
f 15 330 285 
f 379 141 115 
f 376 250 260 
f 370 260 250 
f 162 161 251 
f 346 331 329 
f 357 329 331 
f 93 333 332 
f 361 332 333 
f 302 334 177 
f 383 246 219 
f 359 219 246 
f 387 261 226 
f 156 268 335 
f 310 120 66 
f 388 269 336 
f 248 136 337 
f 9 337 136 
f 98 338 268 
f 61 340 339 
f 400 339 340 
f 220 341 188 
f 82 342 62 
f 284 62 342 
f 354 148 159 
f 242 343 164 
f 303 252 173 
f 371 173 252 
f 267 345 200 
f 341 21 326 
f 377 326 21 
f 319 24 163 
f 342 82 330 
f 299 137 347 
f 280 276 348 
f 282 348 276 
f 259 31 104 
f 257 102 349 
f 196 349 102 
f 361 271 350 
f 390 352 351 
f 256 351 352 
f 373 314 117 
f 160 148 267 
f 35 127 312 
f 362 11 49 
f 330 353 295 
f 251 295 353 
f 305 315 354 
f 148 354 315 
f 197 174 355 
f 331 176 357 
f 58 219 359 
f 379 315 141 
f 378 181 57 
f 372 180 113 
f 8 193 31 
f 388 360 198 
f 257 198 360 
f 333 297 361 
f 235 11 362 
f 347 63 299 
f 30 191 157 
f 393 157 191 
f 400 364 363 
f 393 363 364 
f 372 289 365 
f 194 365 289 
f 339 366 61 
f 67 61 366 
f 242 228 343 
f 147 343 228 
f 68 296 367 
f 402 367 296 
f 50 228 242 
f 289 118 128 
f 54 155 89 
f 332 361 350 
f 100 265 368 
f 4 283 297 
f 94 4 297 
f 94 297 333 
f 13 305 354 
f 352 370 369 
f 329 369 370 
f 71 273 125 
f 396 349 196 
f 188 371 252 
f 180 372 209 
f 365 209 372 
f 328 373 280 
f 284 342 215 
f 295 215 342 
f 119 233 311 
f 116 204 262 
f 210 357 276 
f 358 207 287 
f 211 369 329 
f 256 352 327 
f 369 327 352 
f 312 375 355 
f 198 355 375 
f 337 9 324 
f 324 48 247 
f 69 154 43 
f 97 265 139 
f 53 177 362 
f 121 362 177 
f 360 102 257 
f 337 324 247 
f 286 371 187 
f 336 232 253 
f 115 253 232 
f 262 291 201 
f 359 34 376 
f 263 299 64 
f 372 112 351 
f 390 351 112 
f 79 140 304 
f 52 225 25 
f 220 21 341 
f 262 201 345 
f 85 290 29 
f 181 378 113 
f 335 326 377 
f 383 347 136 
f 387 195 70 
f 401 171 277 
f 392 145 368 
f 100 368 145 
f 243 376 35 
f 396 33 293 
f 236 55 374 
f 116 316 379 
f 281 117 356 
f 258 34 359 
f 13 366 344 
f 339 344 366 
f 344 339 192 
f 363 192 339 
f 384 381 380 
f 367 380 381 
f 46 221 381 
f 367 381 221 
f 397 243 35 
f 314 373 307 
f 400 363 339 
f 96 382 239 
f 63 347 383 
f 341 338 270 
f 401 296 171 
f 83 384 380 
f 382 96 385 
f 386 385 95 
f 335 308 156 
f 325 386 95 
f 301 386 325 
f 290 386 301 
f 398 78 103 
f 402 83 380 
f 178 147 17 
f 394 285 83 
f 313 340 61 
f 240 332 350 
f 366 159 45 
f 400 302 144 
f 387 10 195 
f 241 350 245 
f 117 281 373 
f 234 190 307 
f 199 278 53 
f 342 330 295 
f 331 346 322 
f 306 4 317 
f 229 252 303 
f 268 156 368 
f 392 368 156 
f 62 67 384 
f 193 8 255 
f 360 388 103 
f 398 103 388 
f 4 306 283 
f 340 313 389 
f 323 389 313 
f 370 352 390 
f 389 323 3 
f 317 3 323 
f 395 391 200 
f 267 200 391 
f 331 151 176 
f 169 69 43 
f 402 380 367 
f 86 206 294 
f 230 207 358 
f 394 294 285 
f 229 254 220 
f 289 372 351 
f 136 248 383 
f 157 393 392 
f 364 392 393 
f 319 395 200 
f 374 146 266 
f 221 46 238 
f 377 308 335 
f 164 138 242 
f 143 93 332 
f 304 158 79 
f 269 388 375 
f 198 375 388 
f 196 158 396 
f 33 396 158 
f 279 99 144 
f 52 324 225 
f 358 254 230 
f 277 294 394 
f 345 116 262 
f 264 278 199 
f 320 391 395 
f 392 364 145 
f 353 330 15 
f 25 291 52 
f 266 147 168 
f 231 312 355 
f 159 366 13 
f 400 144 364 
f 390 378 260 
f 308 30 157 
f 238 391 320 
f 316 345 149 
f 62 384 82 
f 391 160 267 
f 69 222 321 
f 381 384 45 
f 334 389 3 
f 112 378 390 
f 328 280 348 
f 232 204 115 
f 341 326 338 
f 284 323 313 
f 328 182 373 
f 336 398 388 
f 163 395 319 
f 146 374 318 
f 180 125 300 
f 174 197 218 
f 210 276 280 
f 311 232 336 
f 120 310 399 
f 382 399 310 
f 390 260 370 
f 93 143 121 
f 327 356 118 
f 316 116 345 
f 58 64 219 
f 286 244 397 
f 258 247 47 
f 235 362 121 
f 12 382 385 
f 399 382 12 
f 290 84 386 
f 385 386 84 
f 154 69 321 
f 235 399 12 
f 288 349 396 
f 393 192 363 
f 321 221 238 
f 244 286 187 
f 336 253 398 
f 340 302 400 
f 125 180 209 
f 205 233 119 
f 394 401 277 
f 270 331 322 
f 322 244 187 
f 395 155 320 
f 223 273 71 
f 191 31 259 
f 102 78 196 
f 302 340 389 
f 355 173 231 
f 354 159 13 
f 296 401 402 
f 394 402 401 
f 270 322 187 
f 341 270 187 
f 367 221 68 
f 83 402 394 
f 34 258 127 
f 329 357 211 
f 71 125 209 
f 302 389 334 
f 140 79 398 
f 359 376 58 
