#  wavefront obj file written by the visualization toolkit

mtllib rightsurrenalgland.mtl

v 164.92599487304688 237.91099548339844 123.5469970703125
v 164.1750030517578 237.5850067138672 124.46499633789062
v 181.1199951171875 212.4029998779297 131.88999938964844
v 179.9510040283203 212.5540008544922 132.84100341796875
v 162.04800415039062 201.8730010986328 92.05979919433594
v 161.71499633789062 202.7469940185547 91.51029968261719
v 169.48300170898438 232.2449951171875 126.72000122070312
v 168.51800537109375 234.0659942626953 125.95700073242188
v 162.9250030517578 201.8040008544922 92.21820068359375
v 162.5240020751953 202.35400390625 91.54660034179688
v 163.78799438476562 201.9499969482422 92.41799926757812
v 163.24400329589844 202.28900146484375 91.6613998413086
v 163.9530029296875 202.73599243164062 91.60279846191406
v 169.052001953125 233.82200622558594 118.0250015258789
v 170.24200439453125 232.81700134277344 116.125
v 160.47000122070312 202.37399291992188 92.24259948730469
v 160.9080047607422 202.94700622558594 91.71089935302734
v 166.15699768066406 203.28599548339844 91.90869903564453
v 166.8459930419922 202.67100524902344 92.63580322265625
v 161.1790008544922 202.0919952392578 92.03009796142578
v 175.43600463867188 216.41400146484375 109.69000244140625
v 176.7969970703125 214.7949981689453 112.09100341796875
v 177.96099853515625 214.70799255371094 115.0979995727539
v 157.5330047607422 208.1750030517578 97.7979965209961
v 157.4550018310547 207.302001953125 96.96150207519531
v 162.41600036621094 203.0469970703125 91.31670379638672
v 163.0989990234375 202.91400146484375 91.32279968261719
v 182.89100646972656 210.9510040283203 126.51599884033203
v 182.45599365234375 210.7429962158203 127.53600311279297
v 174.64999389648438 221.39599609375 136.7989959716797
v 175.18099975585938 220.85499572753906 136.42300415039062
v 155.69700622558594 219.26499938964844 109.38400268554688
v 155.95899963378906 218.86099243164062 108.25599670410156
v 158.4010009765625 229.39500427246094 116.20099639892578
v 158.7270050048828 229.6439971923828 117.33999633789062
v 176.58799743652344 213.7550048828125 109.13899993896484
v 175.90899658203125 213.0279998779297 104.04299926757812
v 176.67100524902344 213.1219940185547 105.97599792480469
v 181.24400329589844 206.38800048828125 116.43900299072266
v 180.83599853515625 207.61099243164062 115.01799774169922
v 168.86700439453125 215.70899963378906 107.11000061035156
v 171.26499938964844 215.86599731445312 105.94000244140625
v 169.4409942626953 223.83099365234375 129.73699951171875
v 168.03599548339844 224.77699279785156 127.9469985961914
v 163.59500122070312 238.06399536132812 121.72599792480469
v 164.34100341796875 237.61000061035156 121.33499908447266
v 155.8179931640625 208.02000427246094 102.0270004272461
v 155.13099670410156 208.30499267578125 101.10900115966797
v 165.87399291992188 202.43800354003906 92.58580017089844
v 176.67300415039062 204.88600158691406 103.37999725341797
v 175.6840057373047 204.80799865722656 105.07499694824219
v 160.35699462890625 203.10299682617188 92.11740112304688
v 176.2969970703125 219.34300231933594 135.75100708007812
v 176.16600036621094 219.45399475097656 133.8159942626953
v 160.85899353027344 203.906005859375 92.09529876708984
v 161.42599487304688 203.60499572753906 91.595703125
v 178.15499877929688 205.02499389648438 108.23999786376953
v 162.1929931640625 203.8489990234375 91.51010131835938
v 162.96600341796875 203.6699981689453 91.32479858398438
v 163.62100219726562 203.48599243164062 91.34030151367188
v 161.7530059814453 204.4199981689453 92.02290344238281
v 164.3769989013672 203.69700622558594 91.58519744873047
v 155.8820037841797 213.13499450683594 103.18599700927734
v 156.2790069580078 211.69200134277344 101.96900177001953
v 165.04100036621094 202.94500732421875 91.74659729003906
v 170.38400268554688 209.78599548339844 97.78800201416016
v 169.41299438476562 209.08799743652344 95.96019744873047
v 175.81700134277344 219.9040069580078 136.35899353027344
v 175.03199768066406 220.13999938964844 137.18600463867188
v 156.57699584960938 219.60899353027344 108.84400177001953
v 158.7899932861328 218.79100036621094 108.5199966430664
v 161.35699462890625 201.74099731445312 96.28230285644531
v 160.25100708007812 202.302001953125 97.1978988647461
v 177.0800018310547 211.8260040283203 104.02400207519531
v 167.39999389648438 213.06300354003906 103.75499725341797
v 170 212.40199279785156 102.54900360107422
v 174.30099487304688 206.29200744628906 111.34600067138672
v 173.5070037841797 205.58299255371094 108.55899810791016
v 164.3489990234375 202.43499755859375 97.49870300292969
v 162.93899536132812 201.7790069580078 96.35299682617188
v 166.33399963378906 206.37399291992188 93.260498046875
v 168.10899353027344 207.2429962158203 93.48210144042969
v 171.60000610351562 225.90699768066406 135.6929931640625
v 170.88800048828125 226.8000030517578 135.44900512695312
v 157.8509979248047 215.88699340820312 104.56199645996094
v 157.125 214.72900390625 103.81900024414062
v 165.96400451660156 235.3939971923828 126.1719970703125
v 165.5050048828125 236.36399841308594 125.37200164794922
v 160.0970001220703 207.34500122070312 104.77899932861328
v 159.10000610351562 209.08700561523438 106.40899658203125
v 173.0780029296875 224.14100646972656 132.04800415039062
v 173.20700073242188 224.77499389648438 134.33900451660156
v 168.58799743652344 228.10400390625 131.6580047607422
v 168.125 228.5570068359375 129.66299438476562
v 157.3260040283203 220.42799377441406 109.4280014038086
v 159.07400512695312 221.70599365234375 110.25399780273438
v 166.50100708007812 211.5449981689453 101.31800079345703
v 169.82899475097656 207.50399780273438 93.60430145263672
v 169.20899963378906 206.39599609375 92.99130249023438
v 171.26499938964844 224.66099548339844 134.9530029296875
v 171.68299865722656 223.91400146484375 135.81900024414062
v 162.8979949951172 204.32200622558594 91.59809875488281
v 163.60800170898438 204.177001953125 91.58830261230469
v 164.34500122070312 204.697998046875 92.18820190429688
v 165.00599670410156 204.2030029296875 91.97019958496094
v 165.2220001220703 203.63699340820312 91.65299987792969
v 165.77499389648438 204.1219940185547 92.03510284423828
v 166.32899475097656 236.79600524902344 124.54000091552734
v 167.06100463867188 236.57400512695312 123.51499938964844
v 181.93600463867188 208.87100219726562 108.7249984741211
v 182.20399475097656 207.71299743652344 108.90299987792969
v 169.97999572753906 227.47300720214844 113.5469970703125
v 170.88800048828125 229.76199340820312 114.67900085449219
v 172.5189971923828 217.7220001220703 107.07099914550781
v 173.94700622558594 217.91200256347656 107.8550033569336
v 174.28700256347656 219.38900756835938 136.15499877929688
v 173.9810028076172 218.72500610351562 134.4320068359375
v 153.947998046875 217.63299560546875 107.55000305175781
v 154.06700134277344 217.04400634765625 108.30500030517578
v 162.5850067138672 204.75 92.03690338134766
v 170.94400024414062 231.71299743652344 124.31999969482422
v 171.40499877929688 232.48300170898438 121.0250015258789
v 163.3350067138672 204.75999450683594 92.00399780273438
v 156.34800720214844 218.87399291992188 111.37899780273438
v 156.093994140625 220.5850067138672 111.44499969482422
v 172.07400512695312 226.12399291992188 131.92799377441406
v 172.36199951171875 225.11599731445312 130.95399475097656
v 161.48599243164062 201.2760009765625 93.79219818115234
v 160.843994140625 201.66299438476562 92.89430236816406
v 167.156005859375 234.4720001220703 118.65599822998047
v 168.15199279785156 235.11000061035156 120.3030014038086
v 162.4010009765625 201.25100708007812 93.84140014648438
v 161.7010040283203 201.47500610351562 92.85759735107422
v 163.0919952392578 231.53700256347656 115.9520034790039
v 164.75999450683594 233.29800415039062 117.41899871826172
v 162.5050048828125 201.45899963378906 92.83480072021484
v 161.76499938964844 205.8489990234375 93.46320343017578
v 162.677001953125 206.23899841308594 93.71849822998047
v 157.11300659179688 203.1060028076172 93.34110260009766
v 158.13099670410156 202.86599731445312 93.1146011352539
v 161.86500549316406 235.78399658203125 120.9209976196289
v 162.2830047607422 235.34300231933594 119.2020034790039
v 161.96800231933594 217.74200439453125 117.18199920654297
v 162.552001953125 220.6020050048828 119.68199920654297
v 161.69200134277344 203.72999572753906 100.44999694824219
v 160.48500061035156 203.04100036621094 98.73989868164062
v 163.34800720214844 233.41400146484375 124.50199890136719
v 162.406005859375 234.27499389648438 123.7979965209961
v 170.5290069580078 228.81399536132812 131.99099731445312
v 170.99000549316406 227.86599731445312 131.11900329589844
v 159.33200073242188 201.88499450683594 94.3375015258789
v 159.39199829101562 202.28700256347656 93.1803970336914
v 173.2209930419922 220.70599365234375 135.14199829101562
v 173.38099670410156 221.63499450683594 136.61199951171875
v 160.04100036621094 201.99600219726562 93.08219909667969
v 160.64199829101562 201.5030059814453 94.31199645996094
v 160.3509979248047 233.27200317382812 119.12999725341797
v 161.322998046875 234.73699951171875 119.57099914550781
v 184.08900451660156 209.74400329589844 120.15499877929688
v 182.6199951171875 211.15499877929688 120.62999725341797
v 176.2989959716797 211.80299377441406 128.75
v 175.67300415039062 210.52699279785156 127.29199981689453
v 180.76699829101562 213.4810028076172 132.69700622558594
v 170.5800018310547 203.5749969482422 97.466796875
v 169.18499755859375 203.2030029296875 97.50520324707031
v 168.72999572753906 208.1739959716797 94.44819641113281
v 167.14199829101562 208.94700622558594 96.23280334472656
v 163.4459991455078 201.50999450683594 93.54840087890625
v 168.70700073242188 231.08999633789062 127.73899841308594
v 170.02999877929688 229.6529998779297 128.67999267578125
v 173.16600036621094 229.45399475097656 122.0739974975586
v 174.20899963378906 228.45700073242188 118.72599792480469
v 175.51300048828125 208.76800537109375 124.24700164794922
v 164.70700073242188 202.23199462890625 92.48709869384766
v 164.51100158691406 201.83399963378906 93.7332992553711
v 177.1929931640625 217.5030059814453 135.13900756835938
v 176.98800659179688 217.46299743652344 136.05999755859375
v 181.85000610351562 208.97900390625 125.22599792480469
v 180.35299682617188 207.9980010986328 122.9489974975586
v 159.00799560546875 206.40699768066406 95.1321029663086
v 159.12600708007812 205.78799438476562 94.20210266113281
v 165.57699584960938 202.02099609375 93.76360321044922
v 170.67100524902344 225.28500366210938 134.1199951171875
v 170.0850067138672 225.8719940185547 133.46299743652344
v 168.00999450683594 209.9499969482422 98.13729858398438
v 167.41600036621094 204.60499572753906 92.6155014038086
v 167.74400329589844 203.9010009765625 92.57749938964844
v 173.3280029296875 226.71299743652344 114.08000183105469
v 174.052001953125 224.83799743652344 113.1719970703125
v 154.8679962158203 217.33799743652344 109.37899780273438
v 155.61099243164062 218.40199279785156 110.11199951171875
v 156.92999267578125 202.7169952392578 94.39939880371094
v 164.08099365234375 230.84100341796875 125.00399780273438
v 157.6230010986328 202.3470001220703 93.96029663085938
v 174.9409942626953 219.38900756835938 137.14599609375
v 178.7310028076172 209.66200256347656 111.87999725341797
v 179.2010040283203 207.53399658203125 112.62000274658203
v 160.4290008544922 220.42999267578125 110.02100372314453
v 163.58999633789062 219.1230010986328 110.19499969482422
v 170.47999572753906 229.04200744628906 134.7830047607422
v 170.27200317382812 228.58299255371094 135.49099731445312
v 164.64500427246094 224.4459991455078 112.61199951171875
v 167.7100067138672 223.3070068359375 111.38300323486328
v 169.25399780273438 226.0780029296875 131.73800659179688
v 169.12100219726562 226.9669952392578 132.40199279785156
v 158.62100219726562 202.23599243164062 93.62059783935547
v 159.14599609375 202.875 92.87660217285156
v 159.86300659179688 202.70799255371094 92.59089660644531
v 179.76300048828125 215.43699645996094 127.76799774169922
v 180.2570037841797 215.3489990234375 129.8679962158203
v 166.18499755859375 209.375 111.31400299072266
v 166.0469970703125 212.4709930419922 115.94999694824219
v 155.2530059814453 218.56100463867188 108.88400268554688
v 177.67799377441406 211.89300537109375 130.18699645996094
v 177.05099487304688 213.39700317382812 131.68600463867188
v 175.02999877929688 204.73899841308594 101.9749984741211
v 164.1959991455078 236.2310028076172 124.88899993896484
v 176.56100463867188 210.64100646972656 102.2030029296875
v 178.30299377441406 210.2010040283203 103.45500183105469
v 170.9980010986328 208.47500610351562 119.29299926757812
v 169.83900451660156 208.54200744628906 117.8949966430664
v 156.69700622558594 222.906005859375 111.39099884033203
v 158.2429962158203 223.97799682617188 110.99400329589844
v 181.83799743652344 212.5679931640625 130.53199768066406
v 181.38600158691406 213.4510040283203 131.80499267578125
v 172.7469940185547 213.2480010986328 103.20800018310547
v 172.61000061035156 211.44000244140625 101.53299713134766
v 177.90199279785156 215.93800354003906 134.3459930419922
v 178.74899291992188 215.7270050048828 133.57000732421875
v 167.63900756835938 202.68800354003906 93.42489624023438
v 167.2449951171875 203.2550048828125 92.41819763183594
v 161.1999969482422 209.052001953125 108.18900299072266
v 154.5469970703125 212.6790008544922 105.87799835205078
v 154.18800354003906 213.0489959716797 104.83699798583984
v 176.40499877929688 218.58299255371094 113.69499969482422
v 175.76199340820312 217.87600708007812 111.57499694824219
v 168.3820037841797 202.8249969482422 94.07830047607422
v 168.06700134277344 203.21099853515625 93.02439880371094
v 161.10899353027344 206.66600036621094 94.8010025024414
v 161.94000244140625 207.55799865722656 95.94629669189453
v 181.19000244140625 206.1269989013672 118.21600341796875
v 156.51300048828125 203.17100524902344 93.9220962524414
v 156.531005859375 203.6439971923828 93.44439697265625
v 183.50599670410156 206.68699645996094 117.41200256347656
v 182.68499755859375 206.08599853515625 118.2699966430664
v 157.26400756835938 204.08700561523438 93.19029998779297
v 158.1219940185547 203.79200744628906 92.95559692382812
v 162.21600341796875 202.5260009765625 98.11519622802734
v 175.19000244140625 205.8489990234375 97.92890167236328
v 175.08399963378906 206.72300720214844 97.65640258789062
v 165.5679931640625 231.572998046875 116.08300018310547
v 168.08299255371094 232.7729949951172 116.63700103759766
v 158.96800231933594 203.58099365234375 92.81410217285156
v 159.9040069580078 203.656005859375 92.5635986328125
v 172.9530029296875 224.1020050048828 136.91299438476562
v 172.1179962158203 224.17599487304688 136.68699645996094
v 169.7209930419922 228.51400756835938 135.08700561523438
v 169.322998046875 228.21299743652344 134.18899536132812
v 157.3820037841797 208.57400512695312 104.26200103759766
v 172.32000732421875 220.61099243164062 109.13099670410156
v 172.93499755859375 219.34800720214844 108.04900360107422
v 169.07400512695312 203.25100708007812 93.83679962158203
v 168.6219940185547 203.81300354003906 92.91560363769531
v 164.66700744628906 204.05599975585938 101.89199829101562
v 162.20599365234375 205.3780059814453 103.32599639892578
v 179.9429931640625 206.78700256347656 102.2030029296875
v 180.5709991455078 206.43800354003906 103.75199890136719
v 174.45700073242188 218.4720001220703 135.3979949951172
v 169.98699951171875 203.61399841308594 93.85269927978516
v 169.4239959716797 203.80099487304688 93.1958999633789
v 178.24899291992188 206.3780059814453 112.52799987792969
v 176.4219970703125 206.16600036621094 112.2979965209961
v 170.15199279785156 204.3719940185547 93.22550201416016
v 179.60699462890625 205.8300018310547 102.87699890136719
v 157.2050018310547 224.25799560546875 113.68900299072266
v 157.5399932861328 225.37600708007812 112.84400177001953
v 159.8820037841797 223.61300659179688 110.93399810791016
v 158.72000122070312 223.72300720214844 117.18399810791016
v 157.96200561523438 225.30499267578125 116.26599884033203
v 169.8419952392578 233.4600067138672 124.87699890136719
v 153.7169952392578 217.0399932861328 106.4800033569336
v 154.2949981689453 216.7100067138672 105.36199951171875
v 168.68499755859375 234.83799743652344 124.66999816894531
v 156.6300048828125 204.28599548339844 93.61920166015625
v 173.6739959716797 204.82000732421875 105.50900268554688
v 173.20199584960938 216.72300720214844 106.57099914550781
v 173.02499389648438 215.16400146484375 105.13700103759766
v 184.76699829101562 208.80499267578125 120.66400146484375
v 184.75999450683594 207.88999938964844 119.75199890136719
v 159.3560028076172 204.46099853515625 92.95570373535156
v 170.83200073242188 208.91200256347656 95.83769989013672
v 171.93099975585938 209.34800720214844 97.37129974365234
v 178.74099731445312 206.76400756835938 114.48400115966797
v 179.57000732421875 206.40699768066406 118.2239990234375
v 180.9929962158203 207.375 104.1520004272461
v 160.4029998779297 204.77200317382812 92.9113998413086
v 175.63699340820312 217.16099548339844 136.19000244140625
v 175.03500366210938 218.3179931640625 136.53900146484375
v 161.33900451660156 204.99400329589844 92.76090240478516
v 165.41900634765625 237.16099548339844 124.41899871826172
v 160.67799377441406 212.57699584960938 111.47699737548828
v 158.89999389648438 213.3520050048828 110.65399932861328
v 155.41099548339844 210.7030029296875 101.73899841308594
v 156.3260040283203 210.51300048828125 100.79100036621094
v 165.6820068359375 204.98399353027344 92.55149841308594
v 166.7530059814453 203.98899841308594 92.2030029296875
v 166.41900634765625 204.6009979248047 92.46219635009766
v 162.7760009765625 237.6199951171875 121.35800170898438
v 163.38999938964844 237.17999267578125 120.58499908447266
v 178.59300231933594 205.7830047607422 111.10900115966797
v 179.86399841308594 206.80499267578125 111.98100280761719
v 176.6840057373047 214.781005859375 133.5229949951172
v 175.97799682617188 215.4739990234375 133.66099548339844
v 173.67100524902344 220.7790069580078 136.38400268554688
v 173.4250030517578 221.8419952392578 110.35099792480469
v 168.45599365234375 204.5489959716797 92.76080322265625
v 169.33399963378906 204.52000427246094 92.86930084228516
v 174.38099670410156 225.93800354003906 115.31199645996094
v 174.61300659179688 220.32699584960938 130.6739959716797
v 174.91299438476562 220.08099365234375 127.44300079345703
v 155.74000549316406 219.3979949951172 110.50499725341797
v 155.7469940185547 220.4510040283203 109.80799865722656
v 174.22500610351562 221.6529998779297 132.0780029296875
v 165.28900146484375 217.0279998779297 109.4219970703125
v 170.98800659179688 205.25999450683594 93.3738021850586
v 170.81700134277344 204.0679931640625 94.1146011352539
v 178.83299255371094 210.86700439453125 106.06800079345703
v 169.26199340820312 220.6540069580078 127.42900085449219
v 168.76600646972656 222.54200744628906 127.8499984741211
v 155.48899841308594 207.11599731445312 101.05899810791016
v 160.23500061035156 227.9149932861328 119.85299682617188
v 158.74400329589844 228.16200256347656 118.33200073242188
v 157.32899475097656 225.32899475097656 114.48500061035156
v 158.0760040283203 223.3990020751953 115.52999877929688
v 158.46099853515625 204.9010009765625 93.44100189208984
v 174.2259979248047 207.81500244140625 121.38800048828125
v 172.99099731445312 208.03199768066406 120.02200317382812
v 174.41200256347656 221.96600341796875 136.44400024414062
v 174.10299682617188 221.60000610351562 137.14300537109375
v 160.5989990234375 225.8800048828125 119.91699981689453
v 163.37600708007812 223.98899841308594 122.27999877929688
v 173.20700073242188 219.6490020751953 133.40699768066406
v 173.61500549316406 219.9949951171875 135.21200561523438
v 175.2010040283203 223.5469970703125 115.1259994506836
v 179.64599609375 209.46200561523438 104.34600067138672
v 180.7519989013672 209.3730010986328 106.85199737548828
v 157.35800170898438 203.44400024414062 97.28450012207031
v 157.72000122070312 203.99099731445312 98.78459930419922
v 180.5959930419922 215.0290069580078 130.4810028076172
v 158.00799560546875 204.80499267578125 100.65399932861328
v 166.63299560546875 202.2449951171875 95.26300048828125
v 167.83900451660156 202.7729949951172 96.8230972290039
v 166.7209930419922 236.18600463867188 125.322998046875
v 155.74400329589844 210.0189971923828 104.26599884033203
v 154.7740020751953 211.57699584960938 104.74700164794922
v 161.8209991455078 227.50100708007812 121.7509994506836
v 162.27499389648438 205.26699829101562 92.67009735107422
v 173.5050048828125 210.1490020751953 125.09300231933594
v 184.12600708007812 208.09800720214844 122.54499816894531
v 184.0189971923828 208.625 123.2959976196289
v 165.50599670410156 225.06700134277344 124.95500183105469
v 163.48500061035156 205.42999267578125 92.69960021972656
v 168.8699951171875 202.9250030517578 95.55000305175781
v 173.6219940185547 220.38299560546875 109.06300354003906
v 179.3990020751953 214.427001953125 134.0850067138672
v 180.2050018310547 214.23199462890625 133.47999572753906
v 158.43299865722656 228.3090057373047 114.1520004272461
v 158.74600219726562 227.44700622558594 113.47599792480469
v 163.92999267578125 214.2270050048828 115.18199920654297
v 163.74400329589844 209.08900451660156 109.85900115966797
v 162.2760009765625 210.94900512695312 111.13099670410156
v 162.31100463867188 236.5919952392578 120.8010025024414
v 162.1479949951172 237.49899291992188 122.51200103759766
v 169.13699340820312 218.86599731445312 109.7770004272461
v 170.28199768066406 219.85800170898438 109.45099639892578
v 171.7429962158203 203.9239959716797 97.83149719238281
v 171.29100036621094 203.88900756835938 99.73780059814453
v 169.83799743652344 229.45399475097656 134.3719940185547
v 169.0850067138672 229.38400268554688 133.6060028076172
v 172.2790069580078 204.15899658203125 96.67109680175781
v 157.98800659179688 210.68600463867188 100.40499877929688
v 159.1739959716797 209.90199279785156 99.37740325927734
v 166.9499969482422 205.36900329589844 92.78269958496094
v 172.7989959716797 221.61300659179688 135.23500061035156
v 153.6179962158203 216.4459991455078 107.06400299072266
v 153.6219940185547 216.18499755859375 105.6520004272461
v 168.1820068359375 205.38499450683594 92.79429626464844
v 169.13900756835938 205.28399658203125 92.80490112304688
v 170.02999877929688 205.51800537109375 92.93389892578125
v 167.7689971923828 235.7050018310547 124.78500366210938
v 159.50100708007812 225.4290008544922 112.13300323486328
v 161.322998046875 224.38499450683594 111.85399627685547
v 171.8800048828125 226.45199584960938 135.33099365234375
v 181.2689971923828 209.70199584960938 126.89199829101562
v 178.947998046875 209.72799682617188 127.51100158691406
v 172.36599731445312 225.4499969482422 135.8520050048828
v 181.82699584960938 210.16900634765625 115.63400268554688
v 181.79600524902344 210.75 118.08599853515625
v 180.50900268554688 211.81700134277344 131.41700744628906
v 178.94400024414062 212.08200073242188 131.58399963378906
v 174.4550018310547 210.76100158691406 101.18000030517578
v 175.48800659179688 209.5970001220703 100.39600372314453
v 169.91099548339844 229.08200073242188 135.1020050048828
v 169.33200073242188 228.9459991455078 134.35299682617188
v 159.66200256347656 205.35000610351562 93.51840209960938
v 160.48699951171875 205.84300231933594 93.90519714355469
v 161.93600463867188 235.23699951171875 122.8740005493164
v 161.9810028076172 236.38699340820312 123.01799774169922
v 183.81500244140625 210.46200561523438 122.89600372314453
v 184.50599670410156 209.04299926757812 122.2760009765625
v 177.19700622558594 217.92799377441406 133.64700317382812
v 177.5959930419922 217.08399963378906 133.69500732421875
v 181.33999633789062 209.86700439453125 113.27200317382812
v 181.13600158691406 208.96499633789062 113.66200256347656
v 154.67999267578125 207.73500061035156 99.25540161132812
v 155.06300354003906 207.93600463867188 98.29350280761719
v 156.04800415039062 204.53199768066406 97.4177017211914
v 155.81199645996094 204.88699340820312 96.57530212402344
v 154.63699340820312 213.77099609375 104.0250015258789
v 155.53799438476562 214.84100341796875 103.94599914550781
v 172.71499633789062 225.47799682617188 111.9990005493164
v 156.3040008544922 215.93699645996094 104.41999816894531
v 183.42799377441406 209.55799865722656 118.61900329589844
v 164.9040069580078 205.60800170898438 92.89440155029297
v 179.88600158691406 205.4029998779297 105.13500213623047
v 158.0800018310547 228.21299743652344 117.31099700927734
v 157.93600463867188 228.26199340820312 115.3759994506836
v 175.66200256347656 223.74000549316406 121.65399932861328
v 176.31900024414062 221.8090057373047 118.5
v 177.8300018310547 217.13400268554688 132.125
v 171.75599670410156 226.23599243164062 129.95399475097656
v 179.06500244140625 206.5489959716797 101.3949966430664
v 156.8509979248047 217.59800720214844 106.36199951171875
v 157.343994140625 216.7570037841797 105.34600067138672
v 167.7310028076172 206.28900146484375 92.97840118408203
v 181.7949981689453 208.26600646972656 111.98400115966797
v 181.74099731445312 208.82200622558594 112.67900085449219
v 175.91200256347656 213.11599731445312 129.6320037841797
v 159.27099609375 226.70399475097656 118.57499694824219
v 171.36399841308594 219.15699768066406 129.22000122070312
v 154.8679962158203 207.00999450683594 98.47730255126953
v 155.49099731445312 207.32699584960938 97.73069763183594
v 157.61900329589844 226.61700439453125 113.95999908447266
v 156.47000122070312 207.5989990234375 97.50279998779297
v 173.531005859375 206.83999633789062 95.5999984741211
v 174.48199462890625 206.41400146484375 96.67829895019531
v 171.7689971923828 225.01600646972656 135.9510040283203
v 171.01499938964844 217.98800659179688 107.61499786376953
v 174.79800415039062 216.60899353027344 133.29100036621094
v 174.44900512695312 215.9720001220703 131.3800048828125
v 159.7570037841797 218.16700744628906 114.052001953125
v 158.08200073242188 226.27099609375 112.75199890136719
v 159.33599853515625 226.66099548339844 112.91100311279297
v 161.2100067138672 234.0919952392578 118.08399963378906
v 162.81700134277344 234.21499633789062 117.86100006103516
v 169.92599487304688 210.6320037841797 100.0250015258789
v 171.94700622558594 232.26800537109375 117.66899871826172
v 174.8509979248047 215.58099365234375 106.86900329589844
v 174.63499450683594 213.9709930419922 104.4020004272461
v 157.64599609375 213.0919952392578 102.80999755859375
v 171.66400146484375 222.968994140625 134.66799926757812
v 172.07400512695312 223.16400146484375 136.2790069580078
v 164.36700439453125 206.73399353027344 94.08219909667969
v 174.8699951171875 217.53900146484375 135.1280059814453
v 174.27699279785156 217.6750030517578 133.61900329589844
v 177.61199951171875 212.0590057373047 111.58499908447266
v 177.98300170898438 211.41900634765625 109.16699981689453
v 174.68099975585938 220.93800354003906 137.1959991455078
v 173.55299377441406 223.125 136.96800231933594
v 174.01100158691406 223.125 136.08700561523438
v 181.38800048828125 209.49400329589844 109.70500183105469
v 179.94900512695312 208.62100219726562 110.58100128173828
v 168.31700134277344 210.09500122070312 118.25
v 169.43899536132812 208.60499572753906 114.59400177001953
v 183.427001953125 207.68499755859375 115.13600158691406
v 182.3280029296875 208.35000610351562 114.3479995727539
v 172.33799743652344 230.67100524902344 115.98899841308594
v 173.48199462890625 229.6020050048828 116.28900146484375
v 182.92799377441406 209.9029998779297 125.83399963378906
v 178.48500061035156 207.4029998779297 100.67500305175781
v 174.96200561523438 206.86099243164062 118.40299987792969
v 181.61199951171875 211.13800048828125 129.44500732421875
v 180.8070068359375 210.23199462890625 128.27000427246094
v 173.28700256347656 230.67799377441406 118.90299987792969
v 171.52000427246094 227.79100036621094 134.18299865722656
v 170.9600067138672 228.6179962158203 133.49200439453125
v 166.04299926757812 203.20899963378906 99.61360168457031
v 163.8769989013672 203.125 99.49469757080078
v 173.9040069580078 204.61599731445312 100.00800323486328
v 173.59300231933594 204.4510040283203 102.43299865722656
v 168.45899963378906 227.00799560546875 130.30799865722656
v 157.6580047607422 222.61099243164062 110.58699798583984
v 156.51699829101562 221.5279998779297 110.08599853515625
v 177.9739990234375 213.13900756835938 132.4600067138672
v 177.67999267578125 214.05499267578125 133.60499572753906
v 175.5570068359375 216.21600341796875 134.3800048828125
v 178.71299743652344 213.9199981689453 134.1060028076172
v 174.43299865722656 219.11900329589844 109.34400177001953
v 170.78199768066406 206.63900756835938 93.4136962890625
v 157.00900268554688 221.73199462890625 112.60900115966797
v 178.28799438476562 206.80299377441406 119.73400115966797
v 177.22300720214844 207.79200744628906 122.21399688720703
v 180.1580047607422 205.34800720214844 107.58699798583984
v 178.1840057373047 204.95599365234375 105.54199981689453
v 179.52699279785156 214.95599365234375 133.55599975585938
v 176.08999633789062 220.5019989013672 123.6760025024414
v 177.13600158691406 219.47999572753906 120.59500122070312
v 179.58999633789062 209.0850067138672 125.81199645996094
v 177.5469970703125 209.1959991455078 126.13300323486328
v 173.7429962158203 222.53199768066406 131.906005859375
v 181.6020050048828 211.82699584960938 130.49099731445312
v 158.1929931640625 226.6439971923828 117.49299621582031
v 157.51300048828125 226.75399780273438 115.8290023803711
v 156.96400451660156 223.19400024414062 113.00199890136719
v 173.593994140625 223.52200317382812 133.13400268554688
v 169.5850067138672 227.33700561523438 133.95199584960938
v 169.677001953125 227.927001953125 134.74400329589844
v 184.36500549316406 209.9290008544922 121.23799896240234
v 173.0330047607422 224.92799377441406 136
v 178.906005859375 213.1219940185547 133.3509979248047
v 158.23899841308594 205.65199279785156 94.34110260009766
v 166.2480010986328 236.13400268554688 120.40899658203125
v 181.3820037841797 213.09100341796875 123.12799835205078
v 180.5330047607422 212.62899780273438 119.69400024414062
v 154.9739990234375 208.50100708007812 99.94450378417969
v 155.3990020751953 208.54600524902344 98.79979705810547
v 172.16000366210938 214.78199768066406 127.55500030517578
v 171.33999633789062 217.4219970703125 128.1929931640625
v 174.82400512695312 220.96400451660156 111.51100158691406
v 175.7570037841797 221.41900634765625 114.5739974975586
v 170.177001953125 226.71099853515625 134.4810028076172
v 169.6999969482422 226.30999755859375 133.16600036621094
v 172.46200561523438 224.94400024414062 136.4810028076172
v 162.0399932861328 237.3260040283203 123.78500366210938
v 165.9219970703125 233.59500122070312 126.33899688720703
v 164.48500061035156 233.00399780273438 125.8239974975586
v 174.16400146484375 220.2239990234375 136.7050018310547
v 174.4929962158203 221.91900634765625 133.77699279785156
v 174.29600524902344 222.6269989013672 135.2480010986328
v 158.85000610351562 229.50100708007812 115.05000305175781
v 159.46400451660156 228.85699462890625 114.23400115966797
v 170.49000549316406 228.46200561523438 130.16200256347656
v 173.99099731445312 222.76300048828125 133.40699768066406
v 170.29100036621094 224.89199829101562 132.8679962158203
v 160.40699768066406 232.77499389648438 117.66899871826172
v 161.7050018310547 233.23699951171875 117.11699676513672
v 162.02099609375 201.34300231933594 95.07510375976562
v 154.6790008544922 212.24000549316406 103.71199798583984
v 174.0540008544922 222.03799438476562 127.50900268554688
v 173.8260040283203 221.76499938964844 130.1840057373047
v 163.11199951171875 201.406005859375 94.89700317382812
v 159.75999450683594 221.23500061035156 117.05000305175781
v 157.51600646972656 211.64300537109375 101.59100341796875
v 169.60400390625 209.56100463867188 120.21900177001953
v 168.92300415039062 211.53799438476562 121.27200317382812
v 173.42599487304688 224.22799682617188 136.12399291992188
v 173.61500549316406 223.56300354003906 136.49600219726562
v 160.74400329589844 228.8470001220703 114.43099975585938
v 162.1790008544922 229.78399658203125 115.0530014038086
v 179.05099487304688 216.0260009765625 130.0240020751953
v 158.30099487304688 202.0469970703125 94.71800231933594
v 177.74899291992188 208.36399841308594 100.53700256347656
v 177.64199829101562 207.35400390625 99.98149871826172
v 180.5679931640625 206.12399291992188 111.61399841308594
v 163.43699645996094 234.71499633789062 124.697998046875
v 175.0540008544922 207.4759979248047 98.11409759521484
v 174.1060028076172 216.91600036621094 131.9669952392578
v 159.2570037841797 230.50100708007812 115.822998046875
v 160.03399658203125 231.67100524902344 116.66600036621094
v 157.35000610351562 224.3489990234375 111.89199829101562
v 176.72799682617188 216.80499267578125 135.9199981689453
v 177.47999572753906 216.56100463867188 134.77699279785156
v 164.29100036621094 201.85800170898438 95.42530059814453
v 165.39100646972656 202.01199340820312 95.05280303955078
v 166.81900024414062 202.26600646972656 93.74579620361328
v 174.1009979248047 220.93600463867188 137.1199951171875
v 162.62899780273438 213.1060028076172 112.28900146484375
v 164.87100219726562 235.2949981689453 125.46399688720703
v 165.66799926757812 207.46800231933594 108.19200134277344
v 156.468994140625 203.24099731445312 95.10569763183594
v 155.9340057373047 216.53900146484375 110.50700378417969
v 155.01600646972656 215.8800048828125 109.072998046875
v 157.57699584960938 202.38999938964844 95.22200012207031
v 157.03599548339844 203.0070037841797 95.93099975585938
v 178.52499389648438 214.94700622558594 134.1479949951172
v 177.4600067138672 215.16799926757812 134.36700439453125
v 167.85899353027344 202.53399658203125 94.9363021850586
v 171.56500244140625 207.89199829101562 94.77429962158203
v 172.55499267578125 207.06100463867188 94.7697982788086
v 176.2209930419922 214.31100463867188 131.85899353027344
v 167.09500122070312 227.01199340820312 113.61699676513672
v 181.56399536132812 206.3979949951172 120.37799835205078
v 156.1959991455078 203.87399291992188 94.31649780273438
v 174.16600036621094 220.72500610351562 128.97300720214844
v 155.23699951171875 211.74400329589844 102.61599731445312
v 181.71200561523438 213.71299743652344 130.47000122070312
v 174.125 207.4250030517578 96.7842025756836
v 176.7100067138672 218.65699768066406 135.1009979248047
v 176.50100708007812 218.69900512695312 136.4250030517578
v 174.031005859375 227.8679962158203 116.06500244140625
v 156.5590057373047 204.81300354003906 94.31410217285156
v 160.2530059814453 210.9550018310547 109.68800354003906
v 156.10499572753906 205.00599670410156 95.40399932861328
v 174.85499572753906 214.76499938964844 130.3090057373047
v 175.4980010986328 215.31300354003906 132.41299438476562
v 159.24899291992188 216.27099609375 105.49500274658203
v 171.0330047607422 227.66700744628906 135.28700256347656
v 171.69700622558594 204.77200317382812 94.1978988647461
v 156.72500610351562 204.68299865722656 99.16259765625
v 157.29400634765625 205.75900268554688 101.36900329589844
v 175.41600036621094 218.70700073242188 137.2570037841797
v 175.87399291992188 219.1540069580078 137.03500366210938
v 178.04800415039062 216.48500061035156 133.49099731445312
v 174.9219970703125 226.22000122070312 118.73100280761719
v 158.90199279785156 214.81199645996094 104.08000183105469
v 159.6179962158203 204.4669952392578 100.88899993896484
v 175.38699340820312 220.71499633789062 135.2100067138672
v 163.5919952392578 238.33099365234375 123.7229995727539
v 157.6909942626953 218.36599731445312 112.03199768066406
v 164.25900268554688 208.4669952392578 96.53309631347656
v 166.53599548339844 207.71099853515625 94.56099700927734
v 163.5590057373047 235.6479949951172 119.35099792480469
v 173.3489990234375 223.18299865722656 128.37100219726562
v 155.83399963378906 218.13499450683594 106.97200012207031
v 172.83599853515625 220.39199829101562 133.40899658203125
v 173.5489959716797 216.66299438476562 130.4810028076172
v 181.18099975585938 208.42300415039062 111.84300231933594
v 158.6580047607422 220.5189971923828 114.375
v 170.51699829101562 226.18899536132812 134.69000244140625
v 179.41000366210938 209.32699584960938 113.86499786376953
v 172.406005859375 205.3249969482422 94.42250061035156
v 181.66400146484375 205.98800659179688 109.58200073242188
v 181.5240020751953 206.3419952392578 107.36100006103516
v 177.7989959716797 217.21800231933594 122.86799621582031
v 179.33799743652344 214.9510040283203 121.37100219726562
v 156.49000549316406 213.96499633789062 109.0270004272461
v 156.98399353027344 215.51400756835938 110.65799713134766
v 172.4239959716797 204.58999633789062 95.30999755859375
v 178.8090057373047 211.72900390625 114.0479965209961
v 173.18299865722656 215.58399963378906 128.91900634765625
v 171.29100036621094 231.85400390625 115.41600036621094
v 157.50599670410156 220.29200744628906 112.64700317382812
v 182.3470001220703 207.22900390625 111.23899841308594
v 175.66200256347656 218.79299926757812 129.49099731445312
v 176.86500549316406 217.38699340820312 129.10800170898438
v 154.4429931640625 218.0279998779297 108.41200256347656
v 174.43800354003906 206.7429962158203 114.67400360107422
v 171.55099487304688 207.72999572753906 117.2509994506836
v 180.86199951171875 214.93299865722656 129.09800720214844
v 157.25599670410156 205.77699279785156 94.99669647216797
v 157.41000366210938 204.96400451660156 93.83499908447266
v 168.48699951171875 229.68099975585938 130.1179962158203
v 168.92100524902344 230.2689971923828 128.55299377441406
v 172.08399963378906 208.48599243164062 95.82569885253906
v 173.4409942626953 208.44000244140625 97.20929718017578
v 157.8780059814453 211.5019989013672 108.11499786376953
v 184.0489959716797 208.38800048828125 116.98100280761719
v 173.6020050048828 218.947998046875 133.53500366210938
v 173.38099670410156 218.3769989013672 131.97500610351562
v 179.7689971923828 213.53599548339844 133.70899963378906
v 169.60800170898438 229.7989959716797 133.36099243164062
v 169.8719940185547 229.76100158691406 132.68499755859375
v 179.63499450683594 207.44500732421875 114.25399780273438
v 179.86099243164062 206.73899841308594 115.88899993896484
v 181.36599731445312 209.21400451660156 112.19599914550781
v 158.63800048828125 208.88400268554688 98.4186019897461
v 159.41600036621094 208.04400634765625 97.40599822998047
v 183.0189971923828 208.9600067138672 114.71199798583984
v 173.22799682617188 205.30999755859375 95.40119934082031
v 172.74099731445312 206.1840057373047 94.62670135498047
v 171.3209991455078 206.36500549316406 109.11900329589844
v 168.32899475097656 206.06399536132812 106.89399719238281
v 176.78500366210938 215.97000122070312 134.92300415039062
v 159.37600708007812 207.19700622558594 96.24710083007812
v 167.2469940185547 220.33799743652344 110.38700103759766
v 169.10000610351562 221.75599670410156 110.47599792480469
v 172.73199462890625 225.66299438476562 134.78199768066406
v 167.9040069580078 217.1510009765625 109.23500061035156
v 165.63699340820312 205.44900512695312 104.80599975585938
v 172.61300659179688 225.5570068359375 132.93499755859375
v 170.3730010986328 204.09300231933594 102.10399627685547
v 171.18899536132812 205.01499938964844 105.44999694824219
v 174.10499572753906 212.7010040283203 127.95099639892578
v 159.8249969482422 215.17100524902344 111.90499877929688
v 170.87600708007812 207.6060028076172 94.0427017211914
v 177.2899932861328 206.406005859375 115.48699951171875
v 173.15199279785156 223.2899932861328 130.35299682617188
v 159.47500610351562 212.8470001220703 102.4800033569336
v 160.57899475097656 211.13600158691406 100.59200286865234
v 164.8260040283203 236.50100708007812 120.24800109863281
v 165.0290069580078 234.80099487304688 118.78099822998047
v 162.36500549316406 230.468994140625 122.94000244140625
v 171.78700256347656 205.92100524902344 93.82230377197266
v 174.50399780273438 223.50399780273438 124.99500274658203
v 171.73800659179688 206.95700073242188 94.13849639892578
v 181.3040008544922 214.51400756835938 130.13900756835938
v 170.42999267578125 230.23199462890625 126.9000015258789
v 162.5570068359375 212.70599365234375 102.47699737548828
v 173.74600219726562 206.02200317382812 95.66410064697266
v 168.93499755859375 225.51600646972656 130.0279998779297
v 169.69400024414062 225.50100708007812 132.0749969482422
v 174.92799377441406 219.8459930419922 110.4729995727539
v 171.8719940185547 212.59100341796875 125.76699829101562
v 170.28199768066406 215.88999938964844 126.07599639892578
v 168.98599243164062 229.53399658203125 132.69400024414062
v 169.2259979248047 229.75900268554688 131.70599365234375
v 154.9709930419922 206.73199462890625 99.7958984375
v 166.16799926757812 219.572998046875 123.13800048828125
v 164.78500366210938 216.80499267578125 119.48899841308594
v 170.9250030517578 223.2969970703125 132.64100646972656
v 171.29200744628906 223.81700134277344 134.46499633789062
v 178.05299377441406 216.23199462890625 127.4739990234375
v 172.66299438476562 209.27000427246094 122.6240005493164
v 171.1999969482422 210.69200134277344 123.49299621582031
v 180.19000244140625 214.7030029296875 132.7169952392578
v 171.5800018310547 226.9250030517578 128.46499633789062
v 176.61399841308594 208.3719940185547 99.8635025024414
v 159.04600524902344 202.88699340820312 97.6218032836914
v 159.27499389648438 203.5970001220703 99.11160278320312
v 178.32200622558594 205.6439971923828 101.75199890136719
v 178.42100524902344 205.16400146484375 103.427001953125
v 154.2259979248047 215.41900634765625 104.5260009765625
v 155.11300659179688 213.35400390625 107.15499877929688
v 155.2989959716797 206.00999450683594 98.86849975585938
v 155.4010009765625 206.32699584960938 97.77290344238281
v 166.8560028076172 214.48199462890625 106.14299774169922
v 164.90899658203125 213.58299255371094 104.24800109863281
v 161.73899841308594 234.5760040283203 121.72899627685547
v 173.52099609375 222.4720001220703 137.0399932861328
v 162.9290008544922 207.3489990234375 106.71299743652344
v 172.927001953125 207.7169952392578 95.6344985961914
v 160.2989959716797 230.1230010986328 115.18299865722656
v 178.77099609375 215.70399475097656 125.21600341796875
v 163.72900390625 220.60299682617188 110.41100311279297
v 164.11599731445312 222.14599609375 110.83699798583984
v 157.68299865722656 206.68099975585938 95.99859619140625
v 166.4199981689453 231.75399780273438 126.58699798583984
v 167.51300048828125 233.6320037841797 126.50199890136719
v 156.0469970703125 204.01499938964844 95.75080108642578
v 177.66900634765625 210.4340057373047 128.27200317382812
v 159.31100463867188 231.11700439453125 117.1520004272461
v 159.7969970703125 231.80799865722656 118.64600372314453
v 167.60499572753906 235.9290008544922 122.76000213623047
v 167.19000244140625 221.42999267578125 125.41200256347656
v 157.7239990234375 216.95199584960938 111.69499969482422
v 168.96099853515625 228.6280059814453 133.23599243164062
v 180.1529998779297 207.89999389648438 102.9469985961914
v 162.2469940185547 217.63499450683594 108.58100128173828
v 170.197998046875 208.2689971923828 94.56649780273438
v 170.85499572753906 224.4010009765625 133.60400390625
v 169.57000732421875 224.30299377441406 111.072998046875
v 171.0489959716797 225.13600158691406 111.07099914550781
v 180.2969970703125 211.1199951171875 130.2550048828125
v 163.10000610351562 238.2790069580078 122.60700225830078
v 179.3470001220703 207.2050018310547 112.16000366210938
v 169.18299865722656 218.69500732421875 126.20700073242188
v 182.66099548339844 211.9929962158203 125.91100311279297
v 170.16400146484375 227.76600646972656 135.2449951171875
v 168.02699279785156 215.97300720214844 122.97799682617188
v 166.64500427246094 215.98699951171875 120.9280014038086
v 178.57699584960938 208.3769989013672 101.22000122070312
v 179.28700256347656 207.69200134277344 101.5270004272461
v 181.53900146484375 205.91799926757812 111.08899688720703
v 181.2220001220703 207.04600524902344 111.7760009765625
v 173.802001953125 223.5989990234375 135.07000732421875
v 166.90899658203125 230.25599670410156 114.9229965209961
v 169.34800720214844 229.51600646972656 114.45099639892578
v 169.07200622558594 227.87100219726562 133.22000122070312
v 172.2050018310547 210.24200439453125 99.60449981689453
v 179.0540008544922 208.87899780273438 102.38999938964844
v 171.4040069580078 203.9290008544922 95.63040161132812
v 180.55499267578125 214.68600463867188 126.98100280761719
v 158.72500610351562 202.22999572753906 95.9728012084961
v 157.5330047607422 209.43699645996094 99.0895004272461
v 156.7530059814453 208.78700256347656 98.48860168457031
v 176.83799743652344 209.38400268554688 100.93099975585938
v 165.5070037841797 237.38800048828125 121.96700286865234
v 170.39199829101562 229.3459930419922 133.4429931640625
v 179.88600158691406 215.34100341796875 131.531005859375
v 180.86500549316406 214.50999450683594 131.55599975585938
v 176.7239990234375 218.072998046875 136.33799743652344
v 176.1280059814453 217.77099609375 136.85299682617188
v 183.21600341796875 210.7729949951172 125.03800201416016
v 168.72500610351562 229.1580047607422 131.9029998779297
v 181.88299560546875 213.2830047607422 126.75299835205078
v 166.16400146484375 202.56100463867188 97.04119873046875
v 174.531005859375 222.8560028076172 112.61900329589844
v 171.5590057373047 227.03199768066406 113.16999816894531
v 174.48300170898438 205.08099365234375 98.24150085449219
v 175.53900146484375 205.27000427246094 99.81269836425781
v 180.96499633789062 208.95899963378906 110.89800262451172
v 181.81199645996094 209.6199951171875 111.75900268554688
v 160.46400451660156 229.59500122070312 120.48100280761719
v 178.44900512695312 216.44900512695312 119.22899627685547
v 174.9759979248047 220.80299377441406 133.177001953125
v 175.70199584960938 220.16700744628906 134.4770050048828
v 173.03799438476562 204.3990020751953 98.22219848632812
v 181.5240020751953 207.45899963378906 105.83000183105469
v 157.87600708007812 202.87600708007812 96.68000030517578
v 177.60000610351562 217.1060028076172 130.3260040283203
v 168.5989990234375 204.67599487304688 104.08300018310547
v 158.36000061035156 225.29100036621094 111.87000274658203
v 159.9340057373047 201.79400634765625 95.65709686279297
v 171.63600158691406 221.73300170898438 132.24000549316406
v 172.49200439453125 228.3990020751953 114.90599822998047
v 177.16099548339844 218.93800354003906 117.0739974975586
v 182.20599365234375 209.04100036621094 111.4749984741211
v 172.5240020751953 224.9320068359375 128.45199584960938
v 153.89199829101562 214.1649932861328 105.86000061035156
v 153.61399841308594 215.22900390625 105.2229995727539
v 160.1009979248047 223.8000030517578 118.83100128173828
v 164.82699584960938 215.38499450683594 107.09500122070312
v 180.16600036621094 205.46299743652344 110.1989974975586
v 180.28199768066406 209.20399475097656 114.06800079345703
v 175.02200317382812 212.31100463867188 102.87699890136719
v 179.3350067138672 213.13600158691406 117.2770004272461
v 179.86900329589844 210.86700439453125 114.68699645996094
v 169.80999755859375 224.57000732421875 131.25599670410156
v 180.3209991455078 207.8260040283203 111.45800018310547
v 166.07400512695312 229.49600219726562 126.40299987792969
v 183.0030059814453 209.447998046875 116.45700073242188
v 156.60400390625 203.76199340820312 96.94519805908203
v 162.19700622558594 228.40199279785156 114.37799835205078
v 161.5489959716797 226.51699829101562 113.30599975585938
v 170.1199951171875 203.4010009765625 95.33110046386719
v 170.4510040283203 233.5330047607422 118.56099700927734
v 174.26199340820312 226.51800537109375 122.6729965209961
v 172.6179962158203 223.29600524902344 137.13800048828125
v 159.26300048828125 205.7989959716797 102.46800231933594
v 154.9770050048828 210.8979949951172 103.09700012207031
v 155.31700134277344 209.52999877929688 102.2239990234375
v 175.83700561523438 205.46299743652344 109.35199737548828
v 171.27499389648438 214.29800415039062 104.28600311279297
v 172.5659942626953 207.55599975585938 117.8280029296875
v 155.7779998779297 206.11199951171875 100.29100036621094
v 171.30599975585938 222.8280029296875 110.3479995727539
v 173.4010009765625 204.75900268554688 96.75450134277344
v 169.95199584960938 229.3939971923828 131.83099365234375
v 169.75599670410156 222.21499633789062 129.33700561523438
v 170.2050018310547 223.42100524902344 131.1510009765625
v 167.16600036621094 227.11900329589844 127.64399719238281
v 169.62899780273438 213.34500122070312 123.52300262451172
v 177.94000244140625 209.3280029296875 101.7490005493164
v 175.37899780273438 219.97999572753906 132.23500061035156
v 166.6439971923828 215.78199768066406 108.24800109863281
v 184.7209930419922 208.0749969482422 121.57499694824219
v 155.82400512695312 205.78799438476562 96.80039978027344
v 181.0279998779297 206.2310028076172 105.7020034790039
v 179.70700073242188 210.00100708007812 109.05799865722656
v 174.2899932861328 205.52999877929688 96.7332992553711
v 173.63299560546875 209.51699829101562 99.0969009399414
v 183.54200744628906 206.468994140625 120.375
v 182.51499938964844 206.18899536132812 120.1449966430664
v 156.55099487304688 206.25399780273438 96.14510345458984
v 172.2220001220703 222.37399291992188 135.08200073242188
v 157.32400512695312 207.3560028076172 102.77999877929688
v 161.32400512695312 231.5919952392578 116.13700103759766
v 183.927001953125 207.59500122070312 122.08300018310547
v 183.01499938964844 206.9669952392578 121.65799713134766
v 156.44500732421875 205.58999633789062 100.41699981689453
v 172.18600463867188 226.62100219726562 133.54600524902344
v 180.23300170898438 214.64199829101562 124.53600311279297
v 183.23599243164062 208.7949981689453 124.44400024414062
v 183.3350067138672 207.8939971923828 123.2030029296875
v 178.91200256347656 216.03599548339844 132.25599670410156
v 182.23500061035156 208.25799560546875 123.81400299072266
v 153.91400146484375 214.3300018310547 104.73799896240234
v 176.6699981689453 217.58099365234375 126.21900177001953
v 156.072998046875 208.1750030517578 97.99610137939453
v 168.20700073242188 225.41900634765625 112.91500091552734
v 172.302001953125 220.09800720214844 131.47300720214844
v 172.41400146484375 221.25100708007812 133.45700073242188
v 158.1649932861328 203.38499450683594 97.910400390625
v 154.51499938964844 217.677001953125 106.59700012207031
v 162.61700439453125 235.49899291992188 124.39900207519531
v 169.58599853515625 203.572998046875 99.76750183105469
v 160.7899932861328 231.5330047607422 120.927001953125
v 162.22000122070312 232.8730010986328 122.89399719238281
v 172.52699279785156 227.86000061035156 125.13700103759766
v 179.1529998779297 210.7760009765625 129.3820037841797
v 172.5780029296875 218.17999267578125 130.23500061035156
v 167.07400512695312 212.8159942626953 119.18000030517578
v 161.0760040283203 233.43800354003906 120.72899627685547
v 180.36199951171875 211.30799865722656 116.62100219726562
v 160.48599243164062 227.91099548339844 113.74700164794922
v 154.697998046875 214.87899780273438 107.947998046875
v 154.0399932861328 215.9759979248047 107.88500213623047
v 176.62399291992188 207.02699279785156 99.44609832763672
v 177.04800415039062 205.78500366210938 100.42400360107422
v 161.16900634765625 209.27499389648438 98.4352035522461
v 167.66000366210938 203.91299438476562 101.91300201416016
v 180.6529998779297 206.75 120.70800018310547
v 176.6959991455078 218.64199829101562 133.4149932861328
v 169.6999969482422 225.802001953125 112.37200164794922
v 184.25599670410156 207.218994140625 121.0250015258789
v 164.2519989013672 238.17599487304688 122.5780029296875
v 172.8489990234375 219.322998046875 131.86900329589844
v 159.34100341796875 229.95399475097656 118.69000244140625
v 169.39500427246094 229.91600036621094 132.64599609375
v 157.09800720214844 218.43299865722656 107.65799713134766
v 182.16099548339844 212.78799438476562 128.8209991455078
v 175.9080047607422 206.28799438476562 98.85230255126953
v 174.8679962158203 221.5290069580078 135.24099731445312
v 153.91700744628906 215.09800720214844 107.00299835205078
v 166.74899291992188 218.54600524902344 110.25900268554688
v 184.13499450683594 207.20599365234375 118.19400024414062
v 184.3780059814453 208.6320037841797 119.15599822998047
v 155.34800720214844 209.50900268554688 100.73200225830078
v 171.5590057373047 207.33799743652344 113.18599700927734
v 164.17599487304688 210.2729949951172 99.1719970703125
v 182.55499267578125 211.9810028076172 127.50700378417969
v 167.9199981689453 230.04600524902344 128.21800231933594
v 167.59100341796875 228.58999633789062 128.10699462890625
v 157.0959930419922 209.88800048828125 105.80000305175781
v 167.96099853515625 232.29200744628906 127.11900329589844
v 165.22799682617188 227.8159942626953 125.53399658203125
v 164.9219970703125 231.08099365234375 126.03399658203125
v 156.08299255371094 217.5030059814453 110.88899993896484
v 171.0919952392578 225.5959930419922 135.21400451660156
v 156.0540008544922 221.75100708007812 111.08300018310547
v 173.11700439453125 225.13600158691406 126.48500061035156
v 182.41400146484375 206.9949951171875 115.77899932861328
v 180.79299926757812 208.46400451660156 104.72799682617188
v 182.20399475097656 211.82899475097656 129.03799438476562
v 167.30299377441406 235.1540069580078 125.97200012207031
v 176.81500244140625 205.1320037841797 101.74299621582031
v 170.07200622558594 233.7030029296875 122.572998046875
v 162.85800170898438 237.20700073242188 124.37699890136719
v 176.16400146484375 218.45599365234375 137.12100219726562
v 171.33299255371094 227.95700073242188 127.68000030517578
v 174.81700134277344 218.86900329589844 136.6320037841797
v 173.01499938964844 223.80299377441406 111.0999984741211
v 176.2100067138672 218.79100036621094 131.6909942626953
v 183.8249969482422 209.6219940185547 124.15599822998047
v 162.56100463867188 238.07000732421875 123.64700317382812
v 171.57699584960938 227.3040008544922 132.37899780273438
v 172.2429962158203 204.31900024414062 102.4489974975586
v 173.9199981689453 217.6230010986328 132.4409942626953
v 167.8560028076172 203.2239990234375 99.10700225830078
v 154.80999755859375 207.5189971923828 100.3489990234375
v 169.11099243164062 234.68600463867188 122.99500274658203
v 182.72500610351562 211.67599487304688 123.35199737548828
v 183.42999267578125 210.86900329589844 121.43499755859375
v 182.31199645996094 209.73899841308594 113.552001953125
v 181.58299255371094 214.03700256347656 128.89300537109375
v 159.02099609375 224.8800048828125 117.89099884033203
v 154.95899963378906 218.41600036621094 107.7959976196289
v 155.66400146484375 205.38900756835938 97.77790069580078
v 174.16799926757812 222.61599731445312 136.4149932861328
v 167.34500122070312 230.58900451660156 127.22000122070312
v 155.96200561523438 205.25399780273438 98.97119903564453
v 163.98699951171875 229.88299560546875 115.11399841308594
v 176.02200317382812 216.25 135.25999450683594
v 156.0959930419922 206.7729949951172 97.12419891357422
v 158.5260009765625 217.42599487304688 106.72799682617188
v 169.6219940185547 231.69200134277344 115.28399658203125
v 174.79299926757812 221.53199768066406 136.21099853515625
v 181.97799682617188 207.3249969482422 122.24199676513672
v 155.63699340820312 217.06300354003906 105.48400115966797
v 181.63699340820312 208.35400390625 106.60700225830078
v 172.6719970703125 222.5240020751953 136.4600067138672
v 161.87899780273438 215.97300720214844 114.19400024414062
v 162.68800354003906 215.0570068359375 105.56999969482422
v 170.11099243164062 229.11300659179688 130.677001953125
v 155.76199340820312 211.41700744628906 106.18000030517578
v 171.10299682617188 209.55499267578125 121.41500091552734
v 160.63299560546875 216.74400329589844 106.8479995727539
v 170.7969970703125 220.71299743652344 129.67999267578125
v 160.72300720214844 214.91700744628906 104.63300323486328
v 170.5019989013672 224.06199645996094 132.47000122070312
v 156.0469970703125 208.76199340820312 103.05999755859375
v 166.21200561523438 237.1909942626953 123.1449966430664
v 161.40699768066406 222.42599487304688 110.59400177001953
v 166.6320037841797 236.781005859375 121.85800170898438
v 180.93099975585938 210.31399536132812 114.4530029296875
v 164.6719970703125 234.1529998779297 125.68299865722656
v 155.08799743652344 216.05099487304688 104.4990005493164
v 169.4739990234375 229.6699981689453 130.16299438476562
v 169.23300170898438 214.14599609375 104.90899658203125
v 176.93800354003906 218.10400390625 132.0279998779297
v 168.7100067138672 207.92100524902344 110.43099975585938
v 179.5229949951172 215.34800720214844 132.77699279785156
v 175.08099365234375 208.4080047607422 98.92859649658203
v 172.5469970703125 204.19000244140625 100.00199890136719
v 170.6009979248047 222.1320037841797 130.7100067138672
v 153.54299926757812 215.4759979248047 106.13500213623047
v 175.5260009765625 224.25999450683594 117.66899871826172
v 171.9929962158203 226.8070068359375 134.59800720214844
v 156.1009979248047 209.3820037841797 99.52660369873047
v 169.40199279785156 217.50399780273438 108.40299987792969
v 182.56900024414062 209.031005859375 113.1050033569336
v 169.48800659179688 234.29299926757812 120.39099884033203
v 157.718994140625 222.13299560546875 113.98600006103516
v 163.62399291992188 227.49400329589844 114.01000213623047
v 163.42100524902344 228.16000366210938 123.73300170898438
v 164.74099731445312 210.91799926757812 112.1500015258789
v 170.88299560546875 228.39100646972656 134.8300018310547
v 178.03799438476562 206.40899658203125 100.58899688720703
v 156.3780059814453 206.69400024414062 101.56199645996094
v 167.61700439453125 209.98899841308594 114.60199737548828

g grp1
usemtl mtl1
f 618 2 1 
f 300 1 2 
f 163 4 3 
f 399 3 4 
f 20 6 5 
f 10 5 6 
f 280 8 7 
f 915 7 8 
f 5 10 9 
f 12 9 10 
f 9 12 11 
f 13 11 12 
f 174 11 13 
f 826 15 14 
f 252 14 15 
f 52 17 16 
f 20 16 17 
f 231 19 18 
f 49 18 19 
f 6 20 17 
f 236 22 21 
f 36 21 22 
f 26 10 6 
f 235 23 22 
f 466 22 23 
f 667 25 24 
f 444 24 25 
f 27 12 10 
f 27 10 26 
f 911 29 28 
f 479 28 29 
f 13 12 27 
f 468 31 30 
f 957 30 31 
f 70 33 32 
f 213 32 33 
f 426 35 34 
f 568 34 35 
f 466 36 22 
f 459 38 37 
f 74 37 38 
f 664 40 39 
f 922 39 40 
f 448 42 41 
f 979 41 42 
f 700 44 43 
f 329 43 44 
f 896 46 45 
f 309 45 46 
f 831 48 47 
f 330 47 48 
f 65 18 49 
f 504 51 50 
f 216 50 51 
f 55 17 52 
f 598 54 53 
f 796 53 54 
f 56 6 17 
f 56 17 55 
f 832 51 57 
f 504 57 51 
f 58 6 56 
f 26 6 58 
f 59 27 26 
f 59 26 58 
f 60 13 27 
f 60 27 59 
f 120 58 61 
f 56 61 58 
f 62 13 60 
f 65 13 62 
f 460 64 63 
f 595 63 64 
f 106 65 62 
f 291 67 66 
f 185 66 67 
f 31 69 68 
f 612 68 69 
f 95 71 70 
f 900 70 71 
f 248 73 72 
f 803 72 73 
f 327 74 38 
f 979 76 75 
f 97 75 76 
f 671 78 77 
f 832 77 78 
f 248 80 79 
f 573 79 80 
f 621 82 81 
f 435 81 82 
f 393 84 83 
f 919 83 84 
f 615 86 85 
f 422 85 86 
f 353 88 87 
f 578 87 88 
f 232 90 89 
f 259 89 90 
f 680 92 91 
f 515 91 92 
f 55 61 56 
f 652 94 93 
f 491 93 94 
f 493 96 95 
f 198 95 96 
f 727 75 97 
f 102 59 58 
f 499 99 98 
f 82 98 99 
f 711 101 100 
f 447 100 101 
f 103 60 59 
f 103 59 102 
f 103 104 62 
f 105 62 104 
f 62 60 103 
f 106 62 105 
f 107 106 105 
f 18 106 107 
f 65 106 18 
f 306 18 107 
f 353 109 108 
f 972 108 109 
f 807 111 110 
f 960 110 111 
f 767 113 112 
f 788 112 113 
f 261 115 114 
f 286 114 115 
f 343 117 116 
f 268 116 117 
f 385 119 118 
f 646 118 119 
f 102 58 120 
f 171 122 121 
f 927 121 122 
f 123 102 120 
f 103 102 123 
f 104 103 123 
f 642 125 124 
f 321 124 125 
f 680 127 126 
f 431 126 127 
f 156 129 128 
f 133 128 129 
f 522 131 130 
f 14 130 131 
f 128 133 132 
f 136 132 133 
f 546 135 134 
f 251 134 135 
f 168 132 136 
f 239 138 137 
f 357 137 138 
f 247 140 139 
f 194 139 140 
f 372 142 141 
f 158 141 142 
f 709 144 143 
f 552 143 144 
f 719 146 145 
f 248 145 146 
f 565 148 147 
f 878 147 148 
f 486 150 149 
f 542 149 150 
f 206 152 151 
f 155 151 152 
f 314 154 153 
f 384 153 154 
f 156 151 155 
f 129 156 155 
f 883 158 157 
f 454 157 158 
f 16 129 155 
f 423 160 159 
f 943 159 160 
f 20 129 16 
f 683 162 161 
f 740 161 162 
f 660 4 163 
f 876 165 164 
f 825 164 165 
f 20 133 129 
f 133 20 5 
f 136 133 5 
f 136 5 9 
f 168 136 9 
f 621 167 166 
f 67 166 167 
f 168 9 11 
f 653 170 169 
f 697 169 170 
f 827 172 171 
f 484 171 172 
f 358 173 162 
f 509 162 173 
f 175 11 174 
f 168 11 175 
f 781 177 176 
f 571 176 177 
f 508 179 178 
f 866 178 179 
f 406 181 180 
f 521 180 181 
f 175 174 182 
f 49 182 174 
f 629 184 183 
f 544 183 184 
f 910 185 167 
f 67 167 185 
f 575 182 49 
f 316 187 186 
f 306 186 187 
f 318 189 188 
f 421 188 189 
f 918 191 190 
f 213 190 191 
f 194 192 139 
f 242 139 192 
f 536 147 193 
f 692 193 147 
f 612 69 195 
f 537 195 69 
f 630 197 196 
f 472 196 197 
f 734 199 198 
f 748 198 199 
f 403 201 200 
f 997 200 201 
f 870 203 202 
f 735 202 203 
f 532 205 204 
f 491 204 205 
f 140 207 206 
f 152 206 207 
f 208 155 152 
f 208 152 207 
f 208 52 16 
f 208 16 155 
f 560 210 209 
f 649 209 210 
f 1000 212 211 
f 996 211 212 
f 191 32 213 
f 494 215 214 
f 438 214 215 
f 65 49 174 
f 926 50 216 
f 300 2 217 
f 928 217 2 
f 74 219 218 
f 843 218 219 
f 554 221 220 
f 648 220 221 
f 570 223 222 
f 492 222 223 
f 596 225 224 
f 3 224 225 
f 815 227 226 
f 76 226 227 
f 585 229 228 
f 613 228 229 
f 19 231 230 
f 238 230 231 
f 575 19 230 
f 730 232 89 
f 809 234 233 
f 355 233 234 
f 22 236 235 
f 702 235 236 
f 230 238 237 
f 262 237 238 
f 674 240 239 
f 138 239 240 
f 664 39 241 
f 245 241 39 
f 243 139 242 
f 593 243 242 
f 246 139 243 
f 852 245 244 
f 922 244 245 
f 247 139 246 
f 72 80 248 
f 335 247 246 
f 446 250 249 
f 902 249 250 
f 253 207 140 
f 135 252 251 
f 766 251 252 
f 247 253 140 
f 254 208 207 
f 254 207 253 
f 533 256 255 
f 828 255 256 
f 254 52 208 
f 55 52 254 
f 404 258 257 
f 517 257 258 
f 856 89 259 
f 364 261 260 
f 448 260 261 
f 263 262 238 
f 263 238 187 
f 231 187 238 
f 679 265 264 
f 145 264 265 
f 747 267 266 
f 274 266 267 
f 270 262 263 
f 931 116 268 
f 262 270 269 
f 273 269 270 
f 686 272 271 
f 310 271 272 
f 326 269 273 
f 432 266 274 
f 333 276 275 
f 570 275 276 
f 973 96 277 
f 492 277 96 
f 284 246 243 
f 946 279 278 
f 334 278 279 
f 7 121 280 
f 927 280 121 
f 874 282 281 
f 386 281 282 
f 941 283 280 
f 8 280 283 
f 651 246 284 
f 832 285 51 
f 490 51 285 
f 458 287 286 
f 42 286 287 
f 290 253 247 
f 846 289 288 
f 907 288 289 
f 335 290 247 
f 290 254 253 
f 66 292 291 
f 654 291 292 
f 853 241 245 
f 664 294 293 
f 686 293 294 
f 848 267 295 
f 747 295 267 
f 296 55 254 
f 290 296 254 
f 299 61 55 
f 782 298 297 
f 464 297 298 
f 296 299 55 
f 88 300 217 
f 684 302 301 
f 602 301 302 
f 931 268 298 
f 464 298 268 
f 305 107 105 
f 64 304 303 
f 908 303 304 
f 104 305 105 
f 307 306 107 
f 307 107 305 
f 45 309 308 
f 372 308 309 
f 186 306 307 
f 564 311 310 
f 271 310 311 
f 187 231 306 
f 18 306 231 
f 673 313 312 
f 590 312 313 
f 343 314 153 
f 316 263 187 
f 836 315 260 
f 364 260 315 
f 317 270 263 
f 317 263 316 
f 600 318 188 
f 273 270 317 
f 644 320 319 
f 594 319 320 
f 125 322 321 
f 32 321 322 
f 691 130 135 
f 252 135 130 
f 550 323 319 
f 795 319 323 
f 905 324 199 
f 748 199 324 
f 608 326 325 
f 273 325 326 
f 219 74 327 
f 839 329 328 
f 744 328 329 
f 999 47 330 
f 898 332 331 
f 439 331 332 
f 275 334 333 
f 279 333 334 
f 651 335 246 
f 713 337 336 
f 481 336 337 
f 495 312 215 
f 590 215 312 
f 729 339 338 
f 30 338 339 
f 811 341 340 
f 356 340 341 
f 658 343 342 
f 153 342 343 
f 318 344 189 
f 787 189 344 
f 327 346 345 
f 923 345 346 
f 873 348 347 
f 822 347 348 
f 779 349 210 
f 649 210 349 
f 616 350 348 
f 609 348 350 
f 587 352 351 
f 786 351 352 
f 88 353 108 
f 965 355 354 
f 830 354 355 
f 331 340 356 
f 357 120 61 
f 299 357 61 
f 683 358 162 
f 410 360 359 
f 864 359 360 
f 44 361 329 
f 744 329 361 
f 362 123 120 
f 362 120 357 
f 362 104 123 
f 825 363 262 
f 237 262 363 
f 660 366 365 
f 505 365 366 
f 541 368 367 
f 443 367 368 
f 383 307 305 
f 709 369 212 
f 996 212 369 
f 996 371 370 
f 232 370 371 
f 424 305 104 
f 408 373 372 
f 308 372 373 
f 676 375 374 
f 990 374 375 
f 984 377 376 
f 164 376 377 
f 661 379 378 
f 404 378 379 
f 797 376 380 
f 771 380 376 
f 383 186 307 
f 689 382 381 
f 774 381 382 
f 625 153 384 
f 387 186 383 
f 281 386 385 
f 986 385 386 
f 387 316 186 
f 658 117 343 
f 468 30 339 
f 388 317 316 
f 388 316 387 
f 389 273 317 
f 389 317 388 
f 743 109 390 
f 353 390 109 
f 325 273 389 
f 824 392 391 
f 277 391 392 
f 607 84 393 
f 483 395 394 
f 508 394 395 
f 961 384 154 
f 754 308 373 
f 677 393 396 
f 83 396 393 
f 884 398 397 
f 821 397 398 
f 4 400 399 
f 753 399 400 
f 218 402 401 
f 851 401 402 
f 378 404 403 
f 257 403 404 
f 406 296 405 
f 290 405 296 
f 299 296 406 
f 875 408 407 
f 141 407 408 
f 137 299 406 
f 934 410 409 
f 518 409 410 
f 176 412 411 
f 430 411 412 
f 665 414 413 
f 814 413 414 
f 526 416 415 
f 441 415 416 
f 138 362 357 
f 299 137 357 
f 948 418 417 
f 739 417 418 
f 447 101 256 
f 462 256 101 
f 722 420 419 
f 63 419 420 
f 932 421 189 
f 977 422 420 
f 86 420 422 
f 160 423 398 
f 821 398 423 
f 463 424 362 
f 104 362 424 
f 267 425 274 
f 721 274 425 
f 34 427 426 
f 513 426 427 
f 506 429 428 
f 987 428 429 
f 980 411 430 
f 936 126 431 
f 81 383 305 
f 720 432 274 
f 955 434 433 
f 959 433 434 
f 435 387 383 
f 435 383 81 
f 513 333 279 
f 99 387 435 
f 807 437 436 
f 627 436 437 
f 99 388 387 
f 214 438 161 
f 683 161 438 
f 331 439 340 
f 946 340 439 
f 968 328 440 
f 756 440 328 
f 389 388 99 
f 416 442 441 
f 725 441 442 
f 427 367 443 
f 869 444 442 
f 954 442 444 
f 597 446 445 
f 699 445 446 
f 850 446 249 
f 114 448 261 
f 567 450 449 
f 605 449 450 
f 552 451 143 
f 962 143 451 
f 368 453 452 
f 802 452 453 
f 142 455 454 
f 546 454 455 
f 925 353 87 
f 227 456 76 
f 97 76 456 
f 826 457 15 
f 641 15 457 
f 38 459 458 
f 287 458 459 
f 615 460 86 
f 63 86 460 
f 855 462 461 
f 101 461 462 
f 138 463 362 
f 268 465 464 
f 449 464 465 
f 196 467 466 
f 36 466 467 
f 31 468 69 
f 576 69 468 
f 949 470 469 
f 557 469 470 
f 849 472 471 
f 791 471 472 
f 1000 474 473 
f 221 473 474 
f 922 476 475 
f 668 475 476 
f 484 478 477 
f 805 477 478 
f 394 178 479 
f 863 479 178 
f 762 432 480 
f 998 480 432 
f 834 481 337 
f 753 483 482 
f 29 482 483 
f 457 484 477 
f 936 486 485 
f 997 485 486 
f 264 488 487 
f 79 487 488 
f 499 389 99 
f 216 490 489 
f 984 489 490 
f 205 93 491 
f 114 286 42 
f 96 493 492 
f 920 492 493 
f 497 495 494 
f 215 494 495 
f 464 449 496 
f 605 496 449 
f 585 497 365 
f 660 365 497 
f 702 236 498 
f 21 498 236 
f 325 389 499 
f 920 125 500 
f 642 500 125 
f 179 502 501 
f 481 501 502 
f 57 504 503 
f 425 503 504 
f 585 365 505 
f 634 507 506 
f 429 506 507 
f 395 509 508 
f 502 508 509 
f 543 323 510 
f 550 510 323 
f 3 511 224 
f 924 224 511 
f 426 513 512 
f 279 512 513 
f 570 514 275 
f 993 275 514 
f 510 91 515 
f 806 23 235 
f 758 517 516 
f 258 516 517 
f 410 288 518 
f 159 518 288 
f 677 396 519 
f 533 519 396 
f 660 520 4 
f 400 4 520 
f 650 180 521 
f 691 522 130 
f 497 494 520 
f 400 520 494 
f 806 429 507 
f 160 524 523 
f 635 523 524 
f 989 526 525 
f 415 525 526 
f 640 528 527 
f 704 527 528 
f 787 530 529 
f 235 529 530 
f 516 532 531 
f 184 531 532 
f 519 533 255 
f 928 534 408 
f 373 408 534 
f 976 536 535 
f 917 535 536 
f 142 454 158 
f 225 163 3 
f 576 537 69 
f 166 98 82 
f 543 539 538 
f 903 538 539 
f 732 541 540 
f 367 540 541 
f 964 542 170 
f 930 170 542 
f 463 138 240 
f 323 543 538 
f 701 544 184 
f 454 546 545 
f 857 545 546 
f 547 156 128 
f 547 72 156 
f 803 156 72 
f 547 128 132 
f 234 419 548 
f 63 548 419 
f 623 550 549 
f 594 549 550 
f 551 132 168 
f 551 547 132 
f 278 334 552 
f 628 552 334 
f 381 304 553 
f 64 553 304 
f 966 555 554 
f 473 554 555 
f 255 557 556 
f 765 556 557 
f 335 405 290 
f 732 559 558 
f 823 558 559 
f 616 145 265 
f 561 194 206 
f 140 206 194 
f 865 560 430 
f 800 430 560 
f 583 194 561 
f 480 563 562 
f 717 562 563 
f 151 561 206 
f 764 311 564 
f 765 543 515 
f 510 515 543 
f 578 217 565 
f 875 565 217 
f 902 250 566 
f 597 566 250 
f 778 200 486 
f 997 486 200 
f 454 545 157 
f 742 157 545 
f 803 151 156 
f 626 450 567 
f 551 80 547 
f 72 547 80 
f 741 569 568 
f 732 568 569 
f 222 514 570 
f 673 572 571 
f 176 571 572 
f 175 573 168 
f 551 168 573 
f 909 221 474 
f 574 175 182 
f 943 409 518 
f 573 175 574 
f 351 182 575 
f 351 574 182 
f 443 276 333 
f 962 577 369 
f 996 369 577 
f 88 217 578 
f 211 370 579 
f 730 579 370 
f 242 192 580 
f 584 580 192 
f 190 582 581 
f 637 581 582 
f 583 192 194 
f 584 192 583 
f 228 586 585 
f 495 585 586 
f 587 575 230 
f 351 575 587 
f 587 230 237 
f 731 589 588 
f 695 588 589 
f 920 493 322 
f 95 322 493 
f 363 587 237 
f 870 202 591 
f 994 591 202 
f 946 512 279 
f 294 241 592 
f 853 592 241 
f 593 242 580 
f 739 593 580 
f 320 549 594 
f 63 595 548 
f 830 548 595 
f 901 596 224 
f 731 597 445 
f 327 345 219 
f 770 219 345 
f 825 262 269 
f 825 269 326 
f 892 501 294 
f 686 294 501 
f 53 599 598 
f 781 598 599 
f 641 457 477 
f 805 600 188 
f 601 284 593 
f 243 593 284 
f 603 601 593 
f 371 301 602 
f 739 603 593 
f 590 605 604 
f 450 604 605 
f 321 191 124 
f 918 124 191 
f 955 606 434 
f 85 434 606 
f 997 607 485 
f 988 485 607 
f 641 477 113 
f 805 113 477 
f 771 326 608 
f 350 610 609 
f 860 609 610 
f 929 612 611 
f 195 611 612 
f 572 228 613 
f 827 428 614 
f 987 614 428 
f 969 615 606 
f 85 606 615 
f 248 146 73 
f 718 73 146 
f 829 350 616 
f 31 68 617 
f 796 617 68 
f 896 618 1 
f 628 619 451 
f 745 451 619 
f 550 319 594 
f 167 621 620 
f 463 620 621 
f 309 622 372 
f 142 372 622 
f 248 79 488 
f 921 623 549 
f 900 433 624 
f 959 624 433 
f 86 63 420 
f 872 625 384 
f 914 259 90 
f 640 604 626 
f 450 626 604 
f 988 607 393 
f 764 436 627 
f 993 628 334 
f 531 629 84 
f 919 84 629 
f 663 197 630 
f 638 608 631 
f 693 631 608 
f 503 633 632 
f 111 632 633 
f 733 635 634 
f 794 634 635 
f 302 637 636 
f 582 636 637 
f 669 638 631 
f 816 639 23 
f 466 23 639 
f 881 640 626 
f 956 15 641 
f 619 642 124 
f 807 643 111 
f 632 111 643 
f 933 645 644 
f 868 644 645 
f 361 356 341 
f 947 118 646 
f 484 172 478 
f 600 478 172 
f 834 648 647 
f 909 647 648 
f 772 209 649 
f 521 651 650 
f 601 650 651 
f 978 653 652 
f 912 652 653 
f 292 655 654 
f 731 654 655 
f 521 181 335 
f 405 335 181 
f 283 390 8 
f 925 8 390 
f 636 656 302 
f 602 302 656 
f 821 423 657 
f 907 657 423 
f 342 659 658 
f 938 658 659 
f 406 405 181 
f 778 662 661 
f 899 661 662 
f 355 234 548 
f 239 137 406 
f 165 352 363 
f 587 363 352 
f 40 664 663 
f 293 663 664 
f 791 627 665 
f 437 665 627 
f 890 667 666 
f 24 666 667 
f 614 600 172 
f 821 657 668 
f 475 668 657 
f 670 669 631 
f 993 500 642 
f 699 669 670 
f 981 672 671 
f 682 671 672 
f 586 228 673 
f 572 673 228 
f 667 674 25 
f 736 25 674 
f 203 676 675 
f 374 675 676 
f 988 393 677 
f 905 374 678 
f 990 678 374 
f 554 473 221 
f 778 661 378 
f 500 514 222 
f 758 531 84 
f 891 679 264 
f 861 680 126 
f 918 190 581 
f 937 682 681 
f 801 681 682 
f 728 141 158 
f 637 302 684 
f 749 685 98 
f 499 98 685 
f 481 647 686 
f 272 686 647 
f 830 355 548 
f 510 550 687 
f 623 687 550 
f 200 378 403 
f 184 629 531 
f 683 640 527 
f 698 689 688 
f 381 688 689 
f 940 330 48 
f 522 691 690 
f 622 690 691 
f 995 193 692 
f 695 693 499 
f 325 499 693 
f 320 506 694 
f 428 694 506 
f 815 37 74 
f 730 370 232 
f 670 693 695 
f 589 670 695 
f 780 596 696 
f 945 696 596 
f 169 697 7 
f 121 7 697 
f 969 698 688 
f 445 699 670 
f 784 652 93 
f 589 445 670 
f 765 470 539 
f 949 539 470 
f 818 701 700 
f 204 700 701 
f 235 702 529 
f 364 529 702 
f 527 704 703 
f 842 703 704 
f 899 706 705 
f 784 705 706 
f 415 441 707 
f 724 707 441 
f 807 110 471 
f 346 471 110 
f 144 709 708 
f 760 708 709 
f 622 309 690 
f 46 690 309 
f 673 312 586 
f 495 586 312 
f 190 646 119 
f 461 711 710 
f 750 710 711 
f 996 577 371 
f 301 371 577 
f 560 209 712 
f 733 712 209 
f 358 714 713 
f 966 713 714 
f 511 399 482 
f 753 482 399 
f 443 368 452 
f 163 715 366 
f 505 366 715 
f 431 716 150 
f 542 150 716 
f 962 451 684 
f 745 684 451 
f 776 717 402 
f 983 402 717 
f 146 719 718 
f 873 718 719 
f 274 721 720 
f 926 720 721 
f 867 722 419 
f 762 266 432 
f 886 723 636 
f 656 636 723 
f 92 677 519 
f 441 725 724 
f 948 724 725 
f 75 727 726 
f 812 726 727 
f 916 361 44 
f 407 728 148 
f 878 148 728 
f 949 729 338 
f 695 499 685 
f 588 695 685 
f 679 579 730 
f 445 589 731 
f 857 732 569 
f 862 635 733 
f 585 495 497 
f 973 735 734 
f 675 734 735 
f 568 732 540 
f 674 180 736 
f 650 736 180 
f 915 738 737 
f 535 737 738 
f 693 670 631 
f 603 739 418 
f 214 161 740 
f 898 742 741 
f 569 741 742 
f 941 131 743 
f 522 743 131 
f 881 528 640 
f 145 616 719 
f 348 719 616 
f 341 744 361 
f 541 732 558 
f 379 705 746 
f 784 746 705 
f 239 406 180 
f 868 712 733 
f 762 747 266 
f 198 748 71 
f 967 71 748 
f 166 749 98 
f 588 685 749 
f 976 565 147 
f 646 190 213 
f 100 183 750 
f 544 750 183 
f 894 752 751 
f 836 751 752 
f 880 483 753 
f 45 308 754 
f 576 468 339 
f 819 755 311 
f 271 311 755 
f 813 564 310 
f 501 481 686 
f 744 708 756 
f 759 756 708 
f 911 28 757 
f 783 757 28 
f 293 755 197 
f 472 197 755 
f 749 166 67 
f 407 141 728 
f 291 749 67 
f 588 749 291 
f 607 758 84 
f 708 760 759 
f 882 759 760 
f 770 762 761 
f 480 761 762 
f 643 764 763 
f 564 763 764 
f 903 31 617 
f 92 556 765 
f 371 602 232 
f 90 232 602 
f 956 767 766 
f 591 766 767 
f 880 214 740 
f 953 313 673 
f 93 205 768 
f 516 768 205 
f 847 603 418 
f 455 142 622 
f 401 769 227 
f 456 227 769 
f 325 693 608 
f 843 219 770 
f 638 771 608 
f 209 772 733 
f 862 733 772 
f 773 583 561 
f 814 663 630 
f 773 561 151 
f 779 210 560 
f 336 481 502 
f 803 773 151 
f 549 320 694 
f 601 651 284 
f 661 705 379 
f 935 373 534 
f 666 775 774 
f 989 774 775 
f 366 660 163 
f 562 717 776 
f 896 777 46 
f 690 46 777 
f 540 427 34 
f 890 666 382 
f 774 382 666 
f 486 149 778 
f 838 778 149 
f 715 780 779 
f 349 779 780 
f 573 80 551 
f 70 322 95 
f 929 782 781 
f 177 781 782 
f 934 409 783 
f 942 783 409 
f 652 784 706 
f 786 573 574 
f 919 183 100 
f 502 179 508 
f 945 785 772 
f 862 772 785 
f 351 786 574 
f 315 787 529 
f 894 112 788 
f 249 790 789 
f 489 789 790 
f 665 792 791 
f 471 791 792 
f 692 793 356 
f 331 356 793 
f 944 397 668 
f 821 668 397 
f 806 794 23 
f 816 23 794 
f 617 796 795 
f 844 795 796 
f 789 489 797 
f 984 797 489 
f 932 189 787 
f 960 111 798 
f 633 798 111 
f 773 799 583 
f 584 583 799 
f 712 800 560 
f 682 672 801 
f 679 801 672 
f 391 802 453 
f 73 773 803 
f 718 773 73 
f 122 484 457 
f 461 710 804 
f 985 804 710 
f 113 805 788 
f 188 788 805 
f 923 798 295 
f 848 295 798 
f 429 806 530 
f 235 530 806 
f 552 628 451 
f 741 568 35 
f 166 82 621 
f 643 807 436 
f 687 623 808 
f 921 808 623 
f 986 810 809 
f 867 809 810 
f 341 811 144 
f 552 144 811 
f 953 673 571 
f 963 812 727 
f 763 813 632 
f 503 632 813 
f 414 40 814 
f 663 814 40 
f 459 37 815 
f 884 817 816 
f 639 816 817 
f 701 818 544 
f 970 544 818 
f 791 472 819 
f 755 819 472 
f 950 737 820 
f 917 820 737 
f 458 21 36 
f 822 739 580 
f 584 822 580 
f 983 566 655 
f 597 655 566 
f 271 755 293 
f 939 487 786 
f 79 786 487 
f 934 360 410 
f 993 514 500 
f 395 740 509 
f 162 509 740 
f 994 824 823 
f 885 823 824 
f 873 347 799 
f 584 799 347 
f 745 637 684 
f 165 363 825 
f 122 457 826 
f 703 683 527 
f 879 827 171 
f 771 164 825 
f 256 462 828 
f 961 828 462 
f 610 350 829 
f 556 92 519 
f 303 831 830 
f 354 830 831 
f 310 832 57 
f 265 89 829 
f 856 829 89 
f 287 833 42 
f 979 42 833 
f 822 417 739 
f 141 408 372 
f 476 414 437 
f 665 437 414 
f 337 220 834 
f 648 834 220 
f 663 293 197 
f 380 771 638 
f 330 707 835 
f 724 835 707 
f 932 836 752 
f 837 380 638 
f 669 837 638 
f 662 838 706 
f 978 706 838 
f 985 840 839 
f 43 839 840 
f 614 318 600 
f 287 226 833 
f 76 833 226 
f 491 841 700 
f 44 700 841 
f 239 180 674 
f 703 842 714 
f 555 714 842 
f 569 742 545 
f 761 843 770 
f 476 40 414 
f 319 795 844 
f 678 41 845 
f 726 845 41 
f 895 289 846 
f 854 603 847 
f 854 650 603 
f 601 603 650 
f 425 267 848 
f 346 849 471 
f 218 843 776 
f 562 776 843 
f 683 703 358 
f 714 358 703 
f 699 850 669 
f 837 669 850 
f 640 438 604 
f 590 604 438 
f 890 620 240 
f 463 240 620 
f 292 851 655 
f 983 655 851 
f 859 853 852 
f 245 852 853 
f 954 854 847 
f 375 260 448 
f 991 668 476 
f 885 558 823 
f 461 804 855 
f 872 855 804 
f 117 465 268 
f 854 736 650 
f 750 711 100 
f 824 391 453 
f 954 444 25 
f 836 260 375 
f 545 857 569 
f 864 859 858 
f 895 858 859 
f 851 769 401 
f 654 731 588 
f 951 609 860 
f 677 680 861 
f 255 469 557 
f 523 862 785 
f 866 864 863 
f 360 863 864 
f 848 798 633 
f 982 865 229 
f 613 229 865 
f 850 699 446 
f 481 834 647 
f 958 866 179 
f 49 19 575 
f 885 824 453 
f 736 854 25 
f 954 25 854 
f 940 415 707 
f 234 809 867 
f 320 868 506 
f 634 506 868 
f 903 795 538 
f 323 538 795 
f 949 338 539 
f 903 539 338 
f 24 444 869 
f 112 870 591 
f 625 872 871 
f 804 871 872 
f 906 475 657 
f 509 173 502 
f 336 502 173 
f 718 873 799 
f 176 572 412 
f 613 412 572 
f 959 282 874 
f 928 875 217 
f 336 358 713 
f 980 800 645 
f 712 645 800 
f 681 876 377 
f 164 377 876 
f 692 878 877 
f 883 877 878 
f 908 525 48 
f 940 48 525 
f 121 879 171 
f 993 642 628 
f 619 628 642 
f 395 483 880 
f 897 881 659 
f 626 659 881 
f 760 212 882 
f 1000 882 212 
f 134 857 546 
f 559 857 134 
f 440 756 528 
f 704 528 756 
f 855 872 384 
f 760 709 212 
f 728 158 883 
f 816 524 884 
f 398 884 524 
f 729 154 339 
f 576 339 154 
f 531 758 516 
f 541 558 885 
f 582 887 886 
f 904 886 887 
f 698 727 97 
f 998 889 888 
f 902 888 889 
f 689 890 382 
f 413 792 665 
f 264 487 891 
f 939 891 487 
f 640 683 438 
f 922 40 476 
f 639 196 466 
f 600 805 478 
f 958 892 592 
f 294 592 892 
f 598 411 893 
f 980 893 411 
f 780 696 349 
f 649 349 696 
f 203 894 751 
f 858 895 846 
f 754 896 45 
f 799 773 718 
f 930 542 716 
f 342 897 659 
f 541 885 368 
f 453 368 885 
f 742 898 793 
f 331 793 898 
f 576 154 314 
f 443 333 513 
f 952 251 766 
f 93 746 784 
f 705 661 899 
f 24 869 775 
f 526 775 869 
f 33 900 624 
f 709 143 369 
f 962 369 143 
f 924 901 224 
f 379 746 404 
f 258 404 746 
f 64 303 595 
f 830 595 303 
f 655 597 731 
f 566 888 902 
f 795 903 617 
f 385 904 887 
f 70 900 33 
f 675 374 905 
f 852 244 906 
f 475 906 244 
f 768 516 258 
f 159 907 423 
f 989 908 304 
f 81 305 424 
f 918 745 619 
f 976 578 565 
f 571 782 297 
f 838 662 778 
f 647 909 77 
f 671 77 909 
f 890 910 620 
f 167 620 910 
f 582 190 119 
f 808 431 127 
f 936 431 150 
f 966 714 555 
f 785 911 757 
f 1 777 896 
f 950 913 912 
f 94 912 913 
f 956 641 113 
f 354 259 914 
f 588 291 654 
f 986 904 385 
f 315 529 364 
f 950 915 737 
f 700 204 491 
f 820 917 916 
f 193 916 917 
f 630 817 814 
f 975 814 817 
f 29 394 479 
f 920 222 492 
f 778 378 200 
f 918 619 124 
f 947 874 118 
f 281 118 874 
f 358 336 173 
f 521 335 651 
f 183 919 629 
f 125 920 322 
f 694 921 549 
f 332 35 426 
f 657 907 289 
f 475 244 922 
f 430 613 865 
f 77 272 647 
f 324 678 845 
f 960 923 346 
f 680 677 92 
f 511 482 924 
f 29 924 482 
f 796 68 53 
f 612 53 68 
f 87 535 925 
f 738 925 535 
f 515 92 765 
f 916 44 841 
f 264 145 488 
f 248 488 145 
f 390 353 925 
f 831 908 48 
f 929 781 599 
f 990 448 41 
f 781 176 598 
f 411 598 176 
f 201 758 607 
f 676 751 836 
f 988 861 485 
f 936 485 861 
f 83 447 396 
f 533 396 447 
f 811 278 552 
f 504 50 721 
f 926 721 50 
f 643 763 632 
f 941 280 927 
f 115 498 21 
f 39 922 245 
f 503 425 848 
f 974 522 777 
f 690 777 522 
f 2 618 928 
f 935 928 618 
f 557 470 765 
f 947 646 213 
f 879 930 921 
f 716 921 930 
f 929 611 782 
f 298 782 611 
f 681 891 876 
f 939 876 891 
f 403 257 201 
f 758 201 257 
f 435 82 99 
f 265 730 89 
f 590 438 215 
f 456 185 97 
f 910 97 185 
f 523 785 757 
f 978 652 706 
f 157 742 877 
f 793 877 742 
f 315 932 787 
f 818 700 43 
f 91 687 127 
f 808 127 687 
f 347 822 584 
f 844 54 933 
f 893 933 54 
f 265 829 616 
f 925 738 8 
f 915 8 738 
f 815 74 218 
f 997 201 607 
f 618 754 935 
f 373 935 754 
f 789 837 850 
f 968 871 804 
f 400 494 214 
f 660 497 520 
f 28 479 783 
f 934 783 479 
f 857 559 732 
f 912 94 652 
f 490 285 937 
f 682 937 285 
f 659 626 938 
f 567 938 626 
f 14 252 130 
f 352 939 786 
f 165 939 352 
f 276 443 452 
f 525 415 940 
f 849 196 472 
f 314 537 576 
f 992 131 941 
f 409 943 942 
f 160 942 943 
f 913 841 491 
f 796 54 844 
f 376 164 771 
f 928 408 875 
f 516 205 532 
f 735 203 675 
f 691 135 455 
f 546 455 135 
f 609 417 822 
f 991 944 668 
f 348 609 822 
f 649 696 945 
f 863 178 866 
f 283 743 390 
f 852 906 895 
f 289 895 906 
f 920 500 222 
f 926 889 720 
f 998 720 889 
f 973 277 392 
f 439 512 946 
f 486 936 150 
f 797 380 837 
f 148 565 875 
f 303 908 831 
f 886 636 582 
f 951 948 417 
f 878 728 883 
f 169 915 950 
f 609 951 417 
f 849 327 467 
f 38 467 327 
f 134 952 559 
f 823 559 952 
f 944 792 413 
f 612 929 599 
f 797 837 789 
f 571 297 953 
f 496 953 297 
f 847 948 725 
f 418 948 847 
f 523 635 862 
f 901 785 945 
f 680 91 127 
f 692 147 878 
f 596 901 945 
f 169 7 915 
f 402 218 776 
f 711 461 101 
f 970 840 710 
f 985 710 840 
f 954 847 725 
f 442 954 725 
f 71 955 900 
f 433 900 955 
f 767 956 113 
f 813 763 564 
f 338 957 903 
f 31 903 957 
f 861 126 936 
f 756 759 704 
f 842 704 759 
f 511 3 399 
f 313 953 496 
f 988 677 861 
f 979 833 76 
f 811 340 946 
f 864 958 859 
f 592 859 958 
f 918 581 745 
f 637 745 581 
f 987 344 318 
f 434 422 959 
f 977 959 422 
f 877 883 157 
f 798 923 960 
f 320 644 868 
f 721 425 504 
f 332 512 439 
f 924 29 911 
f 534 928 935 
f 462 855 961 
f 384 961 855 
f 446 597 250 
f 940 707 330 
f 811 946 278 
f 434 85 422 
f 119 887 582 
f 869 442 416 
f 970 818 840 
f 43 840 818 
f 995 356 361 
f 429 530 344 
f 787 344 530 
f 753 400 880 
f 214 880 400 
f 676 836 375 
f 116 195 537 
f 698 963 727 
f 257 517 758 
f 667 240 674 
f 149 542 964 
f 723 233 965 
f 355 965 233 
f 991 807 944 
f 792 944 807 
f 890 240 667 
f 611 195 931 
f 116 931 195 
f 780 225 596 
f 337 966 220 
f 554 220 966 
f 71 967 955 
f 606 955 967 
f 981 211 579 
f 839 328 968 
f 153 625 342 
f 897 342 625 
f 615 688 460 
f 553 460 688 
f 761 480 562 
f 870 894 203 
f 377 937 681 
f 967 963 969 
f 698 969 963 
f 788 188 421 
f 649 945 772 
f 100 447 919 
f 83 919 447 
f 526 869 416 
f 911 785 901 
f 933 644 844 
f 319 844 644 
f 21 458 115 
f 286 115 458 
f 666 24 775 
f 70 32 322 
f 845 726 812 
f 831 971 354 
f 259 354 971 
f 962 684 577 
f 301 577 684 
f 664 241 294 
f 108 972 300 
f 1 300 972 
f 51 490 216 
f 863 360 934 
f 740 395 880 
f 496 605 313 
f 590 313 605 
f 163 780 715 
f 723 965 656 
f 914 656 965 
f 90 656 914 
f 950 820 913 
f 841 913 820 
f 743 974 109 
f 972 109 974 
f 555 882 473 
f 1000 473 882 
f 332 426 512 
f 827 879 694 
f 921 694 879 
f 413 814 975 
f 910 698 97 
f 282 722 386 
f 810 386 722 
f 341 708 744 
f 702 498 364 
f 261 364 498 
f 991 437 807 
f 893 54 598 
f 147 536 976 
f 902 790 249 
f 397 944 975 
f 413 975 944 
f 909 648 221 
f 851 292 769 
f 66 769 292 
f 463 81 424 
f 977 282 959 
f 722 282 977 
f 510 687 91 
f 756 328 744 
f 986 386 810 
f 288 907 159 
f 532 204 701 
f 992 927 122 
f 519 255 556 
f 38 458 36 
f 66 185 456 
f 198 71 95 
f 815 401 227 
f 865 779 560 
f 110 960 346 
f 567 449 465 
f 895 859 852 
f 679 891 801 
f 681 801 891 
f 790 902 889 
f 345 747 770 
f 762 770 747 
f 975 884 397 
f 977 420 722 
f 329 839 43 
f 624 874 947 
f 170 930 697 
f 879 697 930 
f 992 122 826 
f 994 823 952 
f 523 757 942 
f 783 942 757 
f 265 679 730 
f 359 864 858 
f 64 460 553 
f 507 634 794 
f 777 972 974 
f 688 615 969 
f 672 981 579 
f 715 982 505 
f 229 505 982 
f 33 947 213 
f 33 624 947 
f 81 463 621 
f 226 459 815 
f 870 112 894 
f 989 381 774 
f 315 836 932 
f 381 553 688 
f 689 910 890 
f 343 116 537 
f 419 234 867 
f 87 578 976 
f 877 793 692 
f 876 939 165 
f 639 630 196 
f 540 367 427 
f 710 750 970 
f 544 970 750 
f 906 657 289 
f 812 324 845 
f 568 540 34 
f 252 15 956 
f 719 348 873 
f 949 469 729 
f 828 729 469 
f 759 555 842 
f 160 398 524 
f 65 174 13 
f 984 376 797 
f 324 812 748 
f 963 748 812 
f 310 57 813 
f 503 813 57 
f 973 734 198 
f 904 986 809 
f 429 344 987 
f 968 985 839 
f 894 788 752 
f 421 752 788 
f 682 78 671 
f 518 159 943 
f 786 79 573 
f 871 968 440 
f 951 724 948 
f 835 724 951 
f 964 978 838 
f 860 835 951 
f 996 370 211 
f 850 249 789 
f 149 964 838 
f 957 338 30 
f 897 440 881 
f 528 881 440 
f 828 961 729 
f 154 729 961 
f 898 35 332 
f 866 958 864 
f 645 712 868 
f 735 973 392 
f 29 483 394 
f 535 917 737 
f 624 959 874 
f 508 178 394 
f 983 888 566 
f 498 115 261 
f 385 118 281 
f 456 769 66 
f 114 42 448 
f 635 524 816 
f 888 983 717 
f 941 743 283 
f 464 496 297 
f 888 717 563 
f 989 775 526 
f 452 802 276 
f 570 276 802 
f 905 199 734 
f 825 326 771 
f 969 606 967 
f 896 754 618 
f 627 791 819 
f 912 653 169 
f 47 971 831 
f 503 848 633 
f 678 990 41 
f 341 144 708 
f 746 93 768 
f 585 505 229 
f 443 513 427 
f 430 800 980 
f 908 989 525 
f 381 989 304 
f 533 447 256 
f 87 976 535 
f 686 271 293 
f 448 990 375 
f 966 337 713 
f 867 810 722 
f 898 741 35 
f 622 691 455 
f 927 992 941 
f 287 459 226 
f 543 765 539 
f 170 653 978 
f 36 467 38 
f 914 965 354 
f 912 169 950 
f 792 807 471 
f 275 993 334 
f 911 901 924 
f 938 465 117 
f 849 467 196 
f 981 671 909 
f 817 884 975 
f 131 992 14 
f 826 14 992 
f 808 921 716 
f 697 879 121 
f 202 735 392 
f 179 501 892 
f 971 856 259 
f 766 994 952 
f 634 868 733 
f 611 931 298 
f 579 679 672 
f 285 78 682 
f 853 859 592 
f 272 77 832 
f 979 75 726 
f 716 431 808 
f 203 751 676 
f 743 522 974 
f 94 913 491 
f 193 917 536 
f 863 934 479 
f 630 639 817 
f 163 225 780 
f 802 223 570 
f 980 645 933 
f 599 53 612 
f 675 905 734 
f 678 324 905 
f 216 790 926 
f 889 926 790 
f 794 806 507 
f 193 995 916 
f 361 916 995 
f 958 179 892 
f 689 698 910 
f 723 904 809 
f 218 401 815 
f 764 643 436 
f 465 938 567 
f 41 979 726 
f 937 377 984 
f 490 937 984 
f 802 391 223 
f 277 223 391 
f 662 706 899 
f 916 841 820 
f 216 489 790 
f 191 321 32 
f 846 359 858 
f 78 285 832 
f 998 888 563 
f 432 720 998 
f 856 971 47 
f 824 994 202 
f 1000 211 981 
f 255 828 469 
f 964 170 978 
f 330 835 999 
f 860 999 835 
f 480 998 563 
f 117 658 938 
f 537 314 343 
f 474 981 909 
f 779 865 982 
f 995 692 356 
f 112 591 767 
f 748 963 967 
f 973 198 96 
f 904 723 886 
f 318 614 987 
f 856 999 610 
f 860 610 999 
f 761 562 843 
f 723 809 233 
f 983 851 402 
f 832 310 272 
f 991 476 437 
f 897 625 871 
f 108 300 88 
f 184 532 701 
f 871 440 897 
f 412 613 430 
f 90 602 656 
f 251 952 134 
f 407 148 875 
f 768 258 746 
f 933 893 980 
f 119 385 887 
f 428 827 694 
f 849 346 327 
f 47 999 856 
f 932 752 421 
f 981 474 1000 
f 766 591 994 
f 816 794 635 
f 177 782 571 
f 223 277 492 
f 202 392 824 
f 523 942 160 
f 923 295 747 
f 288 410 846 
f 359 846 410 
f 856 610 829 
f 819 764 627 
f 777 1 972 
f 956 766 252 
f 819 311 764 
f 345 923 747 
f 779 982 715 
f 122 171 484 
f 172 827 614 
f 968 804 985 
f 882 555 759 
