#  wavefront obj file written by the visualization toolkit

mtllib gallbladder.mtl

v 111.7030029296875 146.76100158691406 162.2169952392578
v 111.8949966430664 150.35699462890625 162.95599365234375
v 113.54499816894531 148.12899780273438 166.375
v 110.46800231933594 147.57000732421875 159.0050048828125
v 134.1649932861328 162.86000061035156 199.04100036621094
v 133.64100646972656 162.552001953125 197.1479949951172
v 134.16900634765625 163.42999267578125 197.7270050048828
v 134.12100219726562 161.42300415039062 199.13699340820312
v 132.92300415039062 156.04299926757812 151.11099243164062
v 134.6320037841797 157.81100463867188 153.7740020751953
v 132.24000549316406 160.21600341796875 150.91299438476562
v 134.0399932861328 153.427001953125 153.6009979248047
v 132.31199645996094 171.30599975585938 159.00799560546875
v 133.95399475097656 170.92300415039062 161.98899841308594
v 132.656005859375 172.7310028076172 163.34300231933594
v 133.13800048828125 169.0679931640625 157.3699951171875
v 134.718994140625 162.4149932861328 199.81300354003906
v 133.98800659179688 165.5959930419922 195.6020050048828
v 133.3939971923828 163.6999969482422 195.91799926757812
v 132.91600036621094 164.85000610351562 194.41099548339844
v 134.44200134277344 164.41799926757812 196.52200317382812
v 114.52999877929688 166.99899291992188 157.7239990234375
v 115.80500030517578 169.20899963378906 157.8769989013672
v 116.3499984741211 168.49899291992188 159.5850067138672
v 114.39700317382812 166.15899658203125 154.49000549316406
v 121.31400299072266 173.54400634765625 162.51800537109375
v 122.63899993896484 175.1739959716797 161.9199981689453
v 122.89399719238281 173.7239990234375 163.90499877929688
v 121.21800231933594 173.6529998779297 159.5279998779297
v 110.71900177001953 143.8979949951172 145.07400512695312
v 109.81700134277344 143.86199951171875 147.1490020751953
v 111.14399719238281 143.36000061035156 146.7169952392578
v 109.94100189208984 144.46099853515625 144.66900634765625
v 112.95899963378906 145.3249969482422 144.13699340820312
v 114.77899932861328 146.05999755859375 144.06100463867188
v 113.14199829101562 147.1219940185547 144.00100708007812
v 114.68800354003906 144.2949981689453 145.0749969482422
v 128.46800231933594 149.94900512695312 148.2469940185547
v 126.39299774169922 147.66400146484375 147.93499755859375
v 129.00799560546875 147.18699645996094 150.3090057373047
v 124.31400299072266 149.96800231933594 145.94700622558594
v 138.91900634765625 172.0760040283203 187.0030059814453
v 136.60499572753906 171.91099548339844 185.38499450683594
v 138.71400451660156 173.61700439453125 183.23300170898438
v 138.21200561523438 171.1510009765625 189.02999877929688
v 145.5800018310547 167.92300415039062 190.35000610351562
v 144.64599609375 167.1179962158203 193.05099487304688
v 145.00999450683594 169.80099487304688 191.82899475097656
v 144.71600341796875 165.7530059814453 191.4040069580078
v 140.9340057373047 159.8769989013672 186.7740020751953
v 140.1199951171875 160.77099609375 189.44900512695312
v 141.99200439453125 161.39100646972656 189.43800354003906
v 139.51100158691406 159.27099609375 187.64599609375
v 131.71600341796875 163.11900329589844 187.218994140625
v 130.06399536132812 158.7899932861328 187.42799377441406
v 128.71600341796875 161.16400146484375 185.57000732421875
v 133.91099548339844 159.7760009765625 188.25
v 127.63200378417969 158.2830047607422 185.75
v 126.36699676513672 159.86700439453125 184.3260040283203
v 125.5770034790039 157.2449951171875 184.29299926757812
v 118.19000244140625 146.19900512695312 171.76499938964844
v 117.052001953125 148.84500122070312 172.1009979248047
v 118.97899627685547 147.3300018310547 174.23899841308594
v 115.73500061035156 145.91600036621094 169.38900756835938
v 128.57899475097656 168.10000610351562 179.2469940185547
v 129.7220001220703 169.66099548339844 176.3509979248047
v 130.64999389648438 167.73500061035156 184.10299682617188
v 128.24000549316406 168.1009979248047 172.2429962158203
v 109.22100067138672 147.73699951171875 144.14999389648438
v 109.2750015258789 145.61399841308594 144.343994140625
v 110.76000213623047 146.8489990234375 144.01600646972656
v 107.8290023803711 146.1280059814453 145.32899475097656
v 133.16900634765625 164.87600708007812 192.4810028076172
v 134.28500366210938 163.11000061035156 190.23300170898438
v 133.78799438476562 166.09500122070312 190.07899475097656
v 133.59800720214844 162.6199951171875 192.73599243164062
v 108.86900329589844 155.35299682617188 153.07899475097656
v 110.71800231933594 159.23699951171875 154.14300537109375
v 111.18499755859375 155.3699951171875 158.843994140625
v 109.00599670410156 156.64700317382812 150.3300018310547
v 112.24600219726562 143.9600067138672 144.91400146484375
v 113.10700225830078 142.85899353027344 146.86300659179688
v 145.5540008544922 170.406005859375 189.83900451660156
v 144.72500610351562 171.3699951171875 190.91000366210938
v 144.53399658203125 171.60000610351562 187.5959930419922
v 112.86499786376953 163.5070037841797 155.81199645996094
v 113.11399841308594 160.98800659179688 158.98599243164062
v 112.86900329589844 162.47500610351562 151.35800170898438
v 110.64700317382812 151.4929962158203 159.97799682617188
v 109.14099884033203 149.11500549316406 155.79800415039062
v 121.73500061035156 144.9149932861328 169.14100646972656
v 123.88899993896484 145.88900756835938 174.11000061035156
v 125.91200256347656 146.53199768066406 171.2779998779297
v 120.87300109863281 145.43299865722656 171.37399291992188
v 111.76699829101562 151.79100036621094 144.00100708007812
v 110.98699951171875 149.5959930419922 144.0019989013672
v 113.25299835205078 150.8820037841797 144
v 109.23999786376953 149.9709930419922 144.1510009765625
v 137.98199462890625 170.41700744628906 191.63299560546875
v 139.31700134277344 171.5189971923828 190.88299560546875
v 136.593994140625 169.93699645996094 189.14500427246094
v 123.83699798583984 153.22000122070312 183.9510040283203
v 123.52400207519531 150.9550018310547 183.9510040283203
v 121.64099884033203 152.19200134277344 183.33299255371094
v 125.8759994506836 150.6529998779297 184
v 136.41799926757812 162.7429962158203 199.94900512695312
v 135.59500122070312 163.74099731445312 199.343994140625
v 137.15699768066406 163.9770050048828 199.08399963378906
v 108.2509994506836 147.21499633789062 151.3800048828125
v 108.08200073242188 149.8300018310547 153.0030059814453
v 109.41899871826172 146.06700134277344 154.06900024414062
v 108.82499694824219 144.53799438476562 145.72300720214844
v 107.41100311279297 151.37399291992188 147.37899780273438
v 108.63099670410156 152.69500732421875 145.5780029296875
v 107.94599914550781 153.375 149.4040069580078
v 107.7959976196289 150.49099731445312 145.37899780273438
v 140.01100158691406 163.51800537109375 193.62399291992188
v 137.7050018310547 161.93600463867188 192.74400329589844
v 139.16299438476562 163.41700744628906 195.3249969482422
v 138.45199584960938 161.697998046875 191.031005859375
v 129.39700317382812 159.718994140625 148.56700134277344
v 126.96199798583984 156.58999633789062 147.17599487304688
v 130.75100708007812 156.552001953125 148.93800354003906
v 125.14399719238281 160.31199645996094 147.6179962158203
v 121.70800018310547 158.33599853515625 182.2239990234375
v 123.10900115966797 160.5469970703125 180.91299438476562
v 123.52799987792969 158.69500732421875 183.8979949951172
v 122.16100311279297 159.5570068359375 176.46800231933594
v 116.38600158691406 155.93499755859375 165.9770050048828
v 120.46499633789062 160.2969970703125 166.82400512695312
v 119.86799621582031 157.11900329589844 168.52699279785156
v 116.73999786376953 161.6269989013672 162.4969940185547
v 123.8290023803711 174.9080047607422 158.78599548339844
v 124.68699645996094 175.4709930419922 162.79400634765625
v 122.08999633789062 174.197998046875 158.4250030517578
v 121.38200378417969 140.8800048828125 155.74899291992188
v 119.22899627685547 141.56700134277344 160.3800048828125
v 121.7040023803711 142.00399780273438 159.65899658203125
v 118.27200317382812 140.32699584960938 155.98899841308594
v 115.02400207519531 165.6510009765625 159.23599243164062
v 111.26699829101562 144.6269989013672 144.28399658203125
v 139.6269989013672 169.2220001220703 195.27099609375
v 138.43800354003906 167.4219970703125 196
v 136.7169952392578 168.95599365234375 195.42100524902344
v 141.36199951171875 167.41700744628906 196
v 127.61799621582031 174.01800537109375 157.62899780273438
v 126.41200256347656 171.5500030517578 154.2270050048828
v 130.1719970703125 171.95799255371094 156.12100219726562
v 124.99500274658203 173.43299865722656 155.90199279785156
v 142.25799560546875 169.50999450683594 179.46800231933594
v 141.23300170898438 166.35499572753906 175.74899291992188
v 142.59100341796875 164.84500122070312 181.2050018310547
v 140.4499969482422 170.7740020751953 177.16900634765625
v 134.71099853515625 173.16400146484375 172.30799865722656
v 136.69400024414062 173.64199829101562 175.322998046875
v 134.63999938964844 173.47000122070312 177.0260009765625
v 137.64100646972656 171.46600341796875 172.12100219726562
v 143.93299865722656 171.1199951171875 183.62100219726562
v 144.85299682617188 169.76400756835938 185.64700317382812
v 143.85400390625 169.36900329589844 182.11700439453125
v 127.39900207519531 155.5659942626953 184.96299743652344
v 125.11299896240234 154.83999633789062 184.04600524902344
v 141.0540008544922 164.41000366210938 170.3699951171875
v 141.28700256347656 162.27699279785156 177.22999572753906
v 140.8470001220703 160.67599487304688 172.5399932861328
v 142.06500244140625 173.22000122070312 183.36099243164062
v 140.7989959716797 174.218994140625 181.46800231933594
v 141.6820068359375 173.03900146484375 181.01199340820312
v 141.42799377441406 170.2449951171875 193.86399841308594
v 143.572998046875 169.01199340820312 194.0659942626953
v 142.55999755859375 169.1269989013672 195.44000244140625
v 142.83099365234375 171.12399291992188 192.26400756835938
v 143.97500610351562 167.1490020751953 182.42999267578125
v 144.5970001220703 167.3730010986328 184.9510040283203
v 135.22500610351562 159.68800354003906 201.43600463867188
v 135.8820037841797 160.8090057373047 202.0780029296875
v 135.5570068359375 159.73500061035156 203.0279998779297
v 135.17100524902344 160.9600067138672 200.42799377441406
v 125.24700164794922 145.25999450683594 166.73300170898438
v 129.00599670410156 147.41700744628906 169.61700439453125
v 129.42300415039062 146.22799682617188 164.04200744628906
v 116.77999877929688 151.2949981689453 170.66099548339844
v 115.36199951171875 148.7100067138672 170.072998046875
v 114.42400360107422 151.30999755859375 167.22799682617188
v 137.7239990234375 160.5279998779297 203.61199951171875
v 137.24600219726562 161.4929962158203 202.05299377441406
v 138.60800170898438 161.11000061035156 202.1439971923828
v 136.25399780273438 159.97900390625 203.51300048828125
v 132.86599731445312 156.57699584960938 187.76400756835938
v 136.87899780273438 158.04400634765625 187.2050018310547
v 120.5479965209961 154.83900451660156 180.906005859375
v 122.52999877929688 156.33200073242188 183.60499572753906
v 120.79399871826172 156.99200439453125 178.47000122070312
v 117.29000091552734 140.40899658203125 151.9550018310547
v 116.72899627685547 140.14999389648438 155.9510040283203
v 119.67500305175781 140.2530059814453 152.10299682617188
v 132.9429931640625 172.3419952392578 177.4550018310547
v 132.9600067138672 170.75100708007812 182.5590057373047
v 129.62399291992188 170.7570037841797 170.61099243164062
v 111.84300231933594 142.60299682617188 149.26600646972656
v 113.77100372314453 141.48800659179688 150.92799377441406
v 137.281005859375 157.67300415039062 201.36199951171875
v 136.10400390625 157.99200439453125 201.6649932861328
v 137.37100219726562 158.75799560546875 203.343994140625
v 136.70799255371094 157.69900512695312 199.5500030517578
v 124.69599914550781 161.46400451660156 183.48899841308594
v 127.79000091552734 153.01199340820312 147.30599975585938
v 131.27999877929688 152.40199279785156 149.9980010986328
v 136.13900756835938 164.53399658203125 197.86500549316406
v 135.11599731445312 164.20399475097656 197.93899536132812
v 135.51800537109375 165.6840057373047 196.45799255371094
v 124.78800201416016 142.96099853515625 150.60800170898438
v 123.91500091552734 141.54800415039062 153.4080047607422
v 126.16600036621094 143.1490020751953 154.29400634765625
v 122.6719970703125 141.28399658203125 150.1750030517578
v 108.66000366210938 152.32699584960938 154.47500610351562
v 122.19000244140625 149.43099975585938 183.54299926757812
v 135.62399291992188 161.58700561523438 191.46800231933594
v 135.6230010986328 160.44900512695312 193.85800170898438
v 108.19300079345703 144.9250030517578 146.69000244140625
v 137.6999969482422 174.1009979248047 177.75799560546875
v 139.9980010986328 173.7550048828125 179.0679931640625
v 137.9010009765625 174.31100463867188 180.61000061035156
v 138.78500366210938 172.16299438476562 175.13400268554688
v 117.2969970703125 159.80599975585938 145.8730010986328
v 119.36000061035156 155.7169952392578 144.3780059814453
v 122.11900329589844 157.98199462890625 145.9029998779297
v 115.08899688720703 156.91799926757812 144.69700622558594
v 116.89800262451172 144.1280059814453 167.968994140625
v 118.18000030517578 144.8179931640625 169.7010040283203
v 118.66200256347656 143.7480010986328 167.10699462890625
v 131.625 173.0050048828125 169.3090057373047
v 132.55599975585938 174.06700134277344 166.58799743652344
v 133.68499755859375 173.25599670410156 168.6840057373047
v 129.9149932861328 174.37100219726562 167.9290008544922
v 135.78900146484375 173.572998046875 182.84500122070312
v 115.61699676513672 140.47999572753906 152.83200073242188
v 114.90899658203125 140.75799560546875 156.7760009765625
v 115.70700073242188 141.96400451660156 148.45799255371094
v 111.06099700927734 145.6479949951172 144.06900024414062
v 120.06700134277344 148.7010040283203 179.7030029296875
v 118.84300231933594 148.95599365234375 176.10499572753906
v 119.6520004272461 151.46299743652344 179.21499633789062
v 120.13700103759766 146.9429931640625 177.67300415039062
v 122.53800201416016 171.23699951171875 154.5679931640625
v 122.59400177001953 173.3090057373047 156.4080047607422
v 138.6269989013672 159.38699340820312 162.76600646972656
v 137.94900512695312 154.70399475097656 166.97999572753906
v 139.64599609375 161.16200256347656 166.04299926757812
v 137.42599487304688 155.91900634765625 161.73599243164062
v 138.0989990234375 163.2830047607422 199.22300720214844
v 138.09500122070312 163.7830047607422 197.71299743652344
v 134.64999389648438 159.98199462890625 196.28799438476562
v 135.36500549316406 159.41000366210938 196.41700744628906
v 135.03500366210938 159.34100341796875 198.68600463867188
v 120.88300323486328 146.3090057373047 174.25100708007812
v 124.18099975585938 162.39599609375 180.177001953125
v 125.14199829101562 163.46400451660156 178.0260009765625
v 125.16100311279297 163.4969940185547 182.48599243164062
v 123.80599975585938 161.6009979248047 174.9550018310547
v 129.76199340820312 153.302001953125 184.5449981689453
v 129.41299438476562 156.0919952392578 186.68800354003906
v 126.21099853515625 152.69500732421875 184
v 139.69500732421875 157.47799682617188 172.1020050048828
v 126.24800109863281 175.08599853515625 158.9739990234375
v 127.41500091552734 175.13900756835938 162.1179962158203
v 120.68499755859375 172.22300720214844 156.5279998779297
v 119.56900024414062 172.33200073242188 158.3939971923828
v 134.70199584960938 163.4530029296875 199.17799377441406
v 137.16900634765625 164.6219940185547 197.5030059814453
v 137.1009979248047 165.875 196.36300659179688
v 143.34300231933594 172.33200073242188 190.14199829101562
v 139.38600158691406 160.78700256347656 200.60699462890625
v 138.7259979248047 161.88099670410156 199.97500610351562
v 139.43299865722656 160.41000366210938 201.88099670410156
v 115.72899627685547 165.427001953125 150.91900634765625
v 116.81300354003906 168.218994140625 154.2570037841797
v 120.44100189208984 168.69400024414062 163.0489959716797
v 119.88700103759766 171.0449981689453 161.7480010986328
v 121.57599639892578 171.4290008544922 163.89599609375
v 118.21800231933594 167.7530059814453 160.69400024414062
v 140.96200561523438 172.49099731445312 188.88800048828125
v 142.9290008544922 172.39599609375 185.69000244140625
v 140.62100219726562 172.71099853515625 185.11900329589844
v 126.9000015258789 145.10000610351562 150.51100158691406
v 128.66600036621094 162.71400451660156 149.22500610351562
v 141.14999389648438 172.13400268554688 191.4459991455078
v 133.96400451660156 168.6529998779297 186.8769989013672
v 143.29200744628906 165.0030059814453 193.28599548339844
v 143.35000610351562 166.96099853515625 195.3560028076172
v 141.47000122070312 165.2480010986328 195.25399780273438
v 123.61900329589844 153.82400512695312 145.32200622558594
v 119.80699920654297 151.17799377441406 144.28900146484375
v 137.80999755859375 161.1300048828125 194.96299743652344
v 138.88499450683594 162.21200561523438 197.3730010986328
v 139.1580047607422 160.6490020751953 196.5989990234375
v 130.42999267578125 174.67999267578125 164.4770050048828
v 127.97699737548828 175.0399932861328 165.77000427246094
v 134.67100524902344 160.1009979248047 199.0749969482422
v 143.70899963378906 163.70799255371094 189.82200622558594
v 142.68899536132812 162.14500427246094 187.36700439453125
v 142.51199340820312 163.06900024414062 191.5399932861328
v 143.23199462890625 162.9759979248047 185.29299926757812
v 113.9219970703125 156.5050048828125 162.76800537109375
v 120.44599914550781 143.03599548339844 163.8800048828125
v 118.08499908447266 142.4459991455078 164.14700317382812
v 113.21499633789062 160.1009979248047 147.55599975585938
v 115.73400115966797 162.9530029296875 148.31399536132812
v 134.17100524902344 160.36199951171875 197.8070068359375
v 141.11199951171875 162.5260009765625 191.83399963378906
v 141.62399291992188 164.44500732421875 193.78799438476562
v 135.2790069580078 164.86300659179688 157.5290069580078
v 137.7480010986328 164.2790069580078 161.22799682617188
v 135.6510009765625 168.80099487304688 161.7220001220703
v 136.77200317382812 159.95599365234375 157.77999877929688
v 136.45799255371094 161.7259979248047 200.7480010986328
v 137.6479949951172 162.50900268554688 200.302001953125
v 135.9770050048828 173.9409942626953 179.8040008544922
v 139.906005859375 168.93800354003906 173.24899291992188
v 138.59800720214844 169.6580047607422 169.01300048828125
v 112.90699768066406 153.0800018310547 163.80299377441406
v 128.78700256347656 150.91200256347656 183.97500610351562
v 107.7040023803711 146.0570068359375 147.75999450683594
v 122.24800109863281 154.31399536132812 183.2100067138672
v 132.96099853515625 163.19900512695312 194.32000732421875
v 133.64700317382812 161.83700561523438 194.9409942626953
v 124.9469985961914 146.25999450683594 181.68099975585938
v 125.24600219726562 148.24899291992188 183.80099487304688
v 126.26399993896484 147.15899658203125 179.6999969482422
v 123.49500274658203 146.37100219726562 183.39500427246094
v 113.68699645996094 143.2570037841797 162.18499755859375
v 113.4520034790039 141.9199981689453 159.281005859375
v 111.44000244140625 144.02499389648438 159.5290069580078
v 115.65699768066406 141.1790008544922 161.10499572753906
v 120.02200317382812 162.3459930419922 147.5330047607422
v 110.69000244140625 159.44500732421875 150.34800720214844
v 110.58200073242188 143.39500427246094 150.45399475097656
v 109.73300170898438 144.2969970703125 151.45700073242188
v 110.47799682617188 144.41000366210938 155.5780029296875
v 135.74400329589844 158.49200439453125 198.8260040283203
v 117.90699768066406 170.45399475097656 159.31199645996094
v 120.27999877929688 172.7570037841797 160.25100708007812
v 140.0290069580078 170.97999572753906 192.30499267578125
v 140.66900634765625 167.19900512695312 170.63499450683594
v 119.5469970703125 169.35499572753906 153.79800415039062
v 118.56600189208984 167.16099548339844 151.36900329589844
v 121.34600067138672 168.29299926757812 151.7550048828125
v 123.72699737548828 148.5229949951172 184
v 122.43599700927734 147.3350067138672 183.8979949951172
v 130.1020050048828 173.52200317382812 160.40699768066406
v 139.08099365234375 160.07400512695312 203.1009979248047
v 139.59500122070312 159.7740020751953 201.09300231933594
v 126.90899658203125 168.63400268554688 151.71099853515625
v 129.6439971923828 170.13099670410156 153.52200317382812
v 123.97799682617188 169.38699340820312 152.27699279785156
v 134.90899658203125 151.39500427246094 157.91900634765625
v 133.0189971923828 148.46499633789062 160.66900634765625
v 134.9029998779297 150.6790008544922 164.5330047607422
v 132.29400634765625 149.0399932861328 154.6479949951172
v 130.2519989013672 167.60000610351562 152.57400512695312
v 131.9530029296875 169.4029998779297 155.07200622558594
v 122.80000305175781 143.58799743652344 148.26800537109375
v 120.93499755859375 141.94700622558594 148.48699951171875
v 137.87399291992188 153.83399963378906 175.49200439453125
v 116.9280014038086 145.85299682617188 144.75
v 117.16400146484375 143.87899780273438 146.49000549316406
v 119.93399810791016 144.5469970703125 146.7740020751953
v 136.03599548339844 154.8820037841797 157.49899291992188
v 117.98200225830078 170.3520050048828 156.5399932861328
v 134.36199951171875 167.66600036621094 189.38099670410156
v 135.9550018310547 169.06399536132812 191.58999633789062
v 134.60000610351562 167.83900451660156 192.09500122070312
v 134.4340057373047 161.71200561523438 154.2550048828125
v 126.89600372314453 162.4429931640625 184.26600646972656
v 127.54900360107422 165.9429931640625 183.1750030517578
v 129.4739990234375 164.37100219726562 184.63400268554688
v 145.42300415039062 168.18499755859375 187.73500061035156
v 132.52000427246094 172.64999389648438 172.531005859375
v 119.76599884033203 164.3730010986328 163.83799743652344
v 138.45899963378906 158.04299926757812 200.31100463867188
v 138.79600524902344 158.60400390625 202.07200622558594
v 137.73800659179688 157.80799865722656 198.74600219726562
v 117.94000244140625 165.0959930419922 149.1540069580078
v 120.99099731445312 165.68600463867188 149.31300354003906
v 136.0260009765625 151.98899841308594 180.29299926757812
v 131.95199584960938 150.81500244140625 182.6199951171875
v 133.93600463867188 153.42599487304688 184.08299255371094
v 133.8070068359375 150.6020050048828 178.6909942626953
v 133.69200134277344 166.71299743652344 193.375
v 130.43600463867188 149.343994140625 179.7519989013672
v 134.35000610351562 172.53799438476562 165.13800048828125
v 135.79100036621094 171.71800231933594 168.2310028076172
v 136.30599975585938 170.50100708007812 164.8520050048828
v 128.2830047607422 172.3040008544922 167.68699645996094
v 139.6909942626953 160.3769989013672 198.61300659179688
v 139.30099487304688 158.8419952392578 199.02999877929688
v 139.38900756835938 159.7449951171875 196.91700744628906
v 112.38500213623047 154.7469940185547 144.23500061035156
v 114.00599670410156 153.6719970703125 144.02000427246094
v 130.42799377441406 146.89500427246094 153.37899780273438
v 129.9219970703125 145.67799377441406 157.697998046875
v 128.4600067138672 144.99600219726562 154.01600646972656
v 134.32699584960938 161.0290069580078 193.76300048828125
v 132.0749969482422 166.0399932861328 186.78199768066406
v 124.03600311279297 166.87399291992188 150.093994140625
v 117.04299926757812 140.9080047607422 160.36300659179688
v 119.86499786376953 147.68899536132812 144.8780059814453
v 110.05799865722656 152.22300720214844 144.20199584960938
v 127.16400146484375 174.1580047607422 166.75100708007812
v 125.56300354003906 174.3280029296875 164.5030059814453
v 124.73699951171875 171.968994140625 164.8209991455078
v 139.23300170898438 170.2270050048828 193.66299438476562
v 123.1719970703125 146.79200744628906 146.61700439453125
v 112.23999786376953 157.37100219726562 145.63699340820312
v 117.23999786376953 143.16600036621094 165.9759979248047
v 116.41899871826172 142.2779998779297 163.89100646972656
v 124.89299774169922 163.0489959716797 171.8419952392578
v 122.51799774169922 160.3719940185547 170.35800170898438
v 127.5739974975586 165.75900268554688 150.08200073242188
v 121.51100158691406 146.28700256347656 181.6750030517578
v 121.0790023803711 147.968994140625 181.86399841308594
v 120.93800354003906 150.61199951171875 182
v 116.13700103759766 148.38900756835938 144.02499389648438
v 142.89700317382812 171.8040008544922 181.84100341796875
v 143.09100341796875 172.2480010986328 183.6020050048828
v 107.44400024414062 150.906005859375 150.48599243164062
v 130.73500061035156 149.1320037841797 150.72500610351562
v 107.53299713134766 148.82400512695312 150.43499755859375
v 107.29299926757812 147.54200744628906 148.58700561523438
v 107.11799621582031 149.3990020751953 148.11500549316406
v 110.45099639892578 157.51800537109375 147.63099670410156
v 109.0260009765625 154.906005859375 147.08900451660156
v 123.08200073242188 168.61399841308594 164.96200561523438
v 122.60700225830078 164.34500122070312 166.83700561523438
v 138.17599487304688 159.3990020751953 196.16200256347656
v 108.8290023803711 144.89300537109375 149.14599609375
v 119.19499969482422 153.4759979248047 177.28900146484375
v 120.47200012207031 156.4040069580078 173.4459991455078
v 118.74299621582031 153.78399658203125 172.0240020751953
v 122.26499938964844 145.93099975585938 178.7209930419922
v 107.58100128173828 148.52200317382812 144.6929931640625
v 107.05899810791016 147.9499969482422 146.41700744628906
v 124.33799743652344 163.802001953125 148.4459991455078
v 138.40899658203125 158.5229949951172 197.08999633789062
v 126.78299713134766 165.95399475097656 181.08299255371094
v 144.72500610351562 165.4530029296875 188.177001953125
v 125.78700256347656 166.0919952392578 169.54100036621094
v 126.93099975585938 165.7169952392578 175.73399353027344
v 124.09300231933594 143.2239990234375 161.82899475097656
v 124.17900085449219 142.24600219726562 157.53599548339844
v 118.30899810791016 151.9949951171875 174.8350067138672
v 110.41899871826172 154.7689971923828 145.02999877929688
v 138.77699279785156 158.22799682617188 198.6219940185547
v 128.02200317382812 147.76100158691406 174.5500030517578
v 127.94000244140625 148.64500427246094 181.57899475097656
v 138.79100036621094 167.43099975585938 165.427001953125
v 139.01199340820312 165.4080047607422 196.26800537109375
v 136.3979949951172 159.23599243164062 196.03900146484375
v 136.83999633789062 158.06399536132812 197.34500122070312
v 136.1280059814453 151.82200622558594 170.77200317382812
v 134.67300415039062 150.69500732421875 173.0659942626953
v 136.33399963378906 151.9340057373047 177.04600524902344
v 116.18099975585938 152.46600341796875 144.01699829101562
v 120.75800323486328 140.60000610351562 150.03500366210938
v 121.93900299072266 140.46600341796875 152.18499755859375
v 118.6760025024414 141.72900390625 148.7729949951172
v 140.71600341796875 159.16600036621094 183.02000427246094
v 141.8820037841797 160.9199981689453 185.62600708007812
v 139.3459930419922 157.25999450683594 184.92799377441406
v 132.1439971923828 154.98699951171875 186.11000061035156
v 135.64999389648438 155.80299377441406 185.61099243164062
v 140.63800048828125 159.28500366210938 177.9290008544922
v 141.8679962158203 161.3350067138672 182.24400329589844
v 135.38499450683594 168.677001953125 194.1580047607422
v 144.00900268554688 164.97900390625 184.9409942626953
v 126.86000061035156 143.8209991455078 158.7519989013672
v 117.072998046875 153.7969970703125 167.97799682617188
v 112.03500366210938 142.44500732421875 154.77200317382812
v 111.86100006103516 148.50599670410156 144.0019989013672
v 139.69900512695312 157.02099609375 179.7969970703125
v 132.4759979248047 149.0590057373047 167.968994140625
v 130.94200134277344 148.90899658203125 174.1929931640625
v 114.06300354003906 149.44700622558594 144
v 137.50599670410156 154.4720001220703 182.26400756835938
v 137.39700317382812 170.0679931640625 193.63299560546875
v 136.1719970703125 167.46099853515625 196
v 126.5739974975586 169.177001953125 167.23399353027344
v 134.67300415039062 167.375 194.91600036621094
v 133.10299682617188 165.86199951171875 154.8000030517578
v 131.38900756835938 164.26800537109375 151.91700744628906
v 133.74000549316406 161.36099243164062 197.25799560546875
v 124.77100372314453 145.4340057373047 148.33999633789062
v 135.63999938964844 158.7169952392578 202.9720001220703
v 120.90899658203125 152.64300537109375 181.89599609375
v 133.9969940185547 160.68499755859375 195.98199462890625
v 125.41100311279297 146.4709930419922 176.34300231933594
v 136.8719940185547 160.68299865722656 189.1820068359375
v 135.24000549316406 158.7729949951172 201.1479949951172
v 114.5510025024414 144.63900756835938 165.82899475097656
v 136.10000610351562 152.5330047607422 162.80599975585938
v 124.03099822998047 145.80799865722656 179.88499450683594
v 128.87399291992188 149.61599731445312 183.4340057373047

g grp1
usemtl mtl1
f 3 2 1 
f 4 1 2 
f 7 6 5 
f 8 5 6 
f 11 10 9 
f 12 9 10 
f 15 14 13 
f 16 13 14 
f 17 5 8 
f 20 19 18 
f 21 18 19 
f 24 23 22 
f 25 22 23 
f 28 27 26 
f 29 26 27 
f 32 31 30 
f 33 30 31 
f 36 35 34 
f 37 34 35 
f 40 39 38 
f 41 38 39 
f 44 43 42 
f 45 42 43 
f 48 47 46 
f 49 46 47 
f 52 51 50 
f 53 50 51 
f 56 55 54 
f 57 54 55 
f 56 59 58 
f 60 58 59 
f 63 62 61 
f 64 61 62 
f 67 66 65 
f 68 65 66 
f 71 70 69 
f 72 69 70 
f 75 74 73 
f 76 73 74 
f 79 78 77 
f 80 77 78 
f 34 37 81 
f 82 81 37 
f 85 84 83 
f 48 83 84 
f 87 86 78 
f 88 78 86 
f 2 89 4 
f 90 4 89 
f 93 92 91 
f 94 91 92 
f 97 96 95 
f 98 95 96 
f 100 45 99 
f 101 99 45 
f 104 103 102 
f 105 102 103 
f 108 107 106 
f 17 106 107 
f 110 109 90 
f 111 90 109 
f 70 33 112 
f 31 112 33 
f 115 114 113 
f 116 113 114 
f 119 118 117 
f 120 117 118 
f 123 122 121 
f 124 121 122 
f 127 126 125 
f 128 125 126 
f 131 130 129 
f 132 129 130 
f 134 133 27 
f 135 27 133 
f 138 137 136 
f 139 136 137 
f 87 140 86 
f 22 86 140 
f 141 81 30 
f 32 30 81 
f 144 143 142 
f 145 142 143 
f 148 147 146 
f 149 146 147 
f 152 151 150 
f 153 150 151 
f 34 81 141 
f 156 155 154 
f 157 154 155 
f 85 159 158 
f 160 158 159 
f 58 60 161 
f 162 161 60 
f 151 164 163 
f 165 163 164 
f 168 167 166 
f 44 166 167 
f 171 170 169 
f 172 169 170 
f 174 173 160 
f 150 160 173 
f 177 176 175 
f 178 175 176 
f 181 180 179 
f 93 179 180 
f 184 183 182 
f 62 182 183 
f 187 186 185 
f 188 185 186 
f 190 57 189 
f 55 189 57 
f 192 125 191 
f 193 191 125 
f 195 194 139 
f 196 139 194 
f 198 197 66 
f 199 66 197 
f 32 82 200 
f 201 200 82 
f 204 203 202 
f 205 202 203 
f 206 127 59 
f 60 59 127 
f 123 208 207 
f 38 207 208 
f 108 209 107 
f 210 107 209 
f 209 211 210 
f 21 210 211 
f 214 213 212 
f 215 212 213 
f 89 79 216 
f 77 216 79 
f 217 103 104 
f 120 118 218 
f 219 218 118 
f 178 106 17 
f 70 112 72 
f 220 72 112 
f 223 222 221 
f 224 221 222 
f 227 226 225 
f 228 225 226 
f 231 230 229 
f 64 229 230 
f 234 233 232 
f 235 232 233 
f 44 236 43 
f 198 43 236 
f 238 201 237 
f 239 237 201 
f 240 141 33 
f 30 33 141 
f 243 242 241 
f 244 241 242 
f 246 149 245 
f 147 245 149 
f 249 248 247 
f 250 247 248 
f 106 251 108 
f 252 108 251 
f 219 254 253 
f 255 253 254 
f 256 94 92 
f 132 140 87 
f 259 258 257 
f 260 257 258 
f 262 161 261 
f 263 261 161 
f 165 264 249 
f 248 249 264 
f 134 266 265 
f 146 265 266 
f 135 267 29 
f 268 29 267 
f 269 107 210 
f 108 270 209 
f 271 209 270 
f 85 272 84 
f 172 84 272 
f 269 17 107 
f 274 187 273 
f 275 273 187 
f 277 276 25 
f 88 25 276 
f 280 279 278 
f 281 278 279 
f 272 283 282 
f 284 282 283 
f 285 39 40 
f 286 121 124 
f 27 135 29 
f 287 172 272 
f 184 3 183 
f 64 183 3 
f 45 43 101 
f 288 101 43 
f 47 290 289 
f 291 289 290 
f 207 41 292 
f 293 292 41 
f 119 295 294 
f 296 294 295 
f 152 164 151 
f 265 133 134 
f 233 297 235 
f 298 235 297 
f 178 299 175 
f 255 175 299 
f 302 301 300 
f 303 300 301 
f 132 87 304 
f 79 304 87 
f 263 102 105 
f 91 231 305 
f 306 305 231 
f 88 308 307 
f 225 307 308 
f 178 8 299 
f 309 299 8 
f 302 311 310 
f 117 310 311 
f 314 313 312 
f 315 312 313 
f 317 106 316 
f 178 316 106 
f 318 197 236 
f 198 236 197 
f 224 319 157 
f 320 157 319 
f 79 89 321 
f 2 321 89 
f 261 263 322 
f 105 322 263 
f 323 72 220 
f 187 274 186 
f 317 186 274 
f 60 192 162 
f 324 162 192 
f 326 6 325 
f 19 325 6 
f 329 328 327 
f 330 327 328 
f 333 332 331 
f 334 331 332 
f 124 227 335 
f 225 335 227 
f 84 172 48 
f 170 48 172 
f 336 80 78 
f 282 287 272 
f 339 338 337 
f 31 337 338 
f 340 255 254 
f 342 341 279 
f 281 279 341 
f 287 343 172 
f 169 172 343 
f 290 47 170 
f 48 170 47 
f 236 44 223 
f 167 223 44 
f 153 151 319 
f 344 319 151 
f 347 346 345 
f 277 345 346 
f 91 230 231 
f 191 324 192 
f 328 348 330 
f 349 330 348 
f 350 148 146 
f 352 275 351 
f 187 351 275 
f 354 353 147 
f 355 147 353 
f 52 302 310 
f 358 357 356 
f 359 356 357 
f 28 26 280 
f 279 280 26 
f 61 230 94 
f 91 94 230 
f 361 360 354 
f 353 354 360 
f 212 215 362 
f 363 362 215 
f 364 248 264 
f 367 366 365 
f 37 365 366 
f 250 368 315 
f 10 315 368 
f 267 345 369 
f 277 369 345 
f 372 371 370 
f 101 370 371 
f 19 6 7 
f 373 312 315 
f 256 63 61 
f 376 375 374 
f 259 374 375 
f 162 263 161 
f 85 83 159 
f 377 159 83 
f 154 378 156 
f 197 156 378 
f 379 281 132 
f 140 132 281 
f 381 202 380 
f 382 380 202 
f 384 383 346 
f 276 346 383 
f 199 197 378 
f 387 386 385 
f 388 385 386 
f 389 20 18 
f 390 388 386 
f 226 292 293 
f 234 392 391 
f 393 391 392 
f 4 333 1 
f 331 1 333 
f 235 394 232 
f 199 232 394 
f 352 396 395 
f 397 395 396 
f 228 399 398 
f 95 398 399 
f 359 401 400 
f 402 400 401 
f 403 218 219 
f 404 54 75 
f 74 75 54 
f 405 384 347 
f 346 347 384 
f 406 195 139 
f 407 367 365 
f 288 198 67 
f 66 67 198 
f 408 116 114 
f 245 147 355 
f 298 410 409 
f 411 409 410 
f 311 302 289 
f 300 289 302 
f 171 169 142 
f 412 142 169 
f 133 149 246 
f 413 41 39 
f 414 228 398 
f 34 240 36 
f 71 36 240 
f 207 122 123 
f 231 415 306 
f 416 306 415 
f 258 417 260 
f 418 260 417 
f 419 353 360 
f 421 420 349 
f 330 349 420 
f 40 400 402 
f 422 243 241 
f 186 176 188 
f 177 188 176 
f 423 35 36 
f 365 35 423 
f 223 318 236 
f 251 106 317 
f 425 158 424 
f 160 424 158 
f 216 115 426 
f 113 426 115 
f 404 376 54 
f 56 54 376 
f 269 5 17 
f 389 75 73 
f 427 40 38 
f 430 429 428 
f 109 428 429 
f 299 253 255 
f 58 262 55 
f 189 55 262 
f 69 98 96 
f 336 431 80 
f 432 80 431 
f 399 97 95 
f 85 158 283 
f 425 283 158 
f 22 140 24 
f 281 24 140 
f 156 197 318 
f 345 245 347 
f 355 347 245 
f 280 278 433 
f 434 433 278 
f 51 52 310 
f 391 15 233 
f 297 233 15 
f 397 435 296 
f 294 296 435 
f 436 323 220 
f 193 438 437 
f 439 437 438 
f 265 146 149 
f 434 130 418 
f 131 418 130 
f 166 424 168 
f 150 168 424 
f 440 330 420 
f 69 72 441 
f 442 441 72 
f 419 443 405 
f 384 405 443 
f 61 94 256 
f 435 397 444 
f 396 444 397 
f 445 259 375 
f 14 15 391 
f 116 98 441 
f 69 441 98 
f 373 315 10 
f 446 300 303 
f 109 436 111 
f 338 111 436 
f 28 134 27 
f 354 147 148 
f 448 447 417 
f 434 417 447 
f 232 199 378 
f 221 224 155 
f 157 155 224 
f 305 138 449 
f 450 449 138 
f 182 62 451 
f 242 451 62 
f 432 452 114 
f 408 114 452 
f 419 405 353 
f 355 353 405 
f 396 380 453 
f 382 453 380 
f 244 242 63 
f 62 63 242 
f 34 141 240 
f 210 21 7 
f 19 7 21 
f 390 455 454 
f 329 454 455 
f 11 9 123 
f 208 123 9 
f 392 320 393 
f 456 393 320 
f 271 270 457 
f 252 457 270 
f 274 251 317 
f 254 458 340 
f 459 340 458 
f 395 273 352 
f 275 352 273 
f 462 461 460 
f 358 460 461 
f 283 272 85 
f 463 226 293 
f 414 452 431 
f 432 431 452 
f 398 408 452 
f 67 376 404 
f 465 196 464 
f 466 464 196 
f 460 248 364 
f 244 256 440 
f 92 440 256 
f 388 462 385 
f 364 385 462 
f 260 128 126 
f 10 368 12 
f 356 12 368 
f 468 50 467 
f 469 467 50 
f 270 108 252 
f 90 111 4 
f 339 4 111 
f 379 132 130 
f 471 470 387 
f 261 387 470 
f 343 100 99 
f 473 472 164 
f 165 164 472 
f 253 403 219 
f 35 365 37 
f 14 391 393 
f 473 468 467 
f 76 326 325 
f 193 437 191 
f 243 191 437 
f 474 371 372 
f 446 303 475 
f 152 475 303 
f 451 437 439 
f 291 311 289 
f 406 139 137 
f 476 402 401 
f 129 477 131 
f 439 131 477 
f 342 279 26 
f 65 68 448 
f 447 448 68 
f 162 324 102 
f 104 102 324 
f 266 350 146 
f 224 153 319 
f 62 183 64 
f 206 126 127 
f 249 163 165 
f 89 216 90 
f 110 90 216 
f 375 376 67 
f 402 214 285 
f 212 285 214 
f 214 450 213 
f 136 213 450 
f 83 48 46 
f 181 401 357 
f 359 357 401 
f 238 478 201 
f 200 201 478 
f 479 71 69 
f 166 284 283 
f 165 472 264 
f 480 264 472 
f 7 269 210 
f 25 88 86 
f 259 206 374 
f 59 374 206 
f 37 366 239 
f 466 239 366 
f 234 378 154 
f 461 482 481 
f 180 481 482 
f 15 350 297 
f 266 297 350 
f 483 36 479 
f 71 479 36 
f 153 224 222 
f 2 3 184 
f 202 205 382 
f 459 382 205 
f 423 36 483 
f 238 195 406 
f 190 471 469 
f 484 469 471 
f 305 306 137 
f 406 137 306 
f 485 474 144 
f 486 144 474 
f 487 411 433 
f 280 433 411 
f 390 482 388 
f 461 388 482 
f 133 246 135 
f 267 135 246 
f 128 193 125 
f 396 381 380 
f 416 331 334 
f 211 488 18 
f 389 18 488 
f 310 117 120 
f 486 474 488 
f 372 488 474 
f 11 121 286 
f 143 144 486 
f 187 185 351 
f 204 351 185 
f 301 302 52 
f 428 109 110 
f 434 418 417 
f 320 344 456 
f 163 456 344 
f 37 239 82 
f 201 82 239 
f 318 221 155 
f 110 426 428 
f 430 428 426 
f 115 432 114 
f 361 489 360 
f 490 360 489 
f 415 231 229 
f 278 281 379 
f 419 360 490 
f 491 6 326 
f 471 387 484 
f 385 484 387 
f 323 436 109 
f 226 463 228 
f 399 228 463 
f 291 117 311 
f 444 453 382 
f 457 252 119 
f 295 119 252 
f 38 41 207 
f 247 315 313 
f 348 217 349 
f 421 349 217 
f 396 453 444 
f 39 285 492 
f 212 492 285 
f 155 156 318 
f 274 273 395 
f 395 296 295 
f 194 466 196 
f 100 343 287 
f 96 479 69 
f 219 458 254 
f 378 234 232 
f 153 168 150 
f 157 320 392 
f 134 28 410 
f 411 410 28 
f 436 31 338 
f 119 294 118 
f 219 118 294 
f 309 253 299 
f 370 404 75 
f 421 244 420 
f 440 420 244 
f 11 286 490 
f 419 490 286 
f 65 375 67 
f 235 298 409 
f 13 350 15 
f 481 180 181 
f 487 447 68 
f 148 361 354 
f 450 138 136 
f 188 177 493 
f 175 493 177 
f 267 246 245 
f 494 191 243 
f 308 335 225 
f 359 400 427 
f 40 427 400 
f 469 50 53 
f 52 50 468 
f 325 19 20 
f 374 59 56 
f 326 495 491 
f 309 491 495 
f 426 113 430 
f 116 430 113 
f 339 111 338 
f 482 390 454 
f 262 261 470 
f 342 29 268 
f 325 73 76 
f 292 226 227 
f 449 476 181 
f 401 181 476 
f 16 489 361 
f 304 129 132 
f 348 103 217 
f 480 469 484 
f 173 152 150 
f 8 491 309 
f 362 363 367 
f 466 367 363 
f 52 468 301 
f 473 301 468 
f 39 492 413 
f 362 413 492 
f 399 463 97 
f 483 97 463 
f 171 290 170 
f 486 488 211 
f 443 124 335 
f 193 128 438 
f 418 438 128 
f 93 91 179 
f 305 179 91 
f 412 169 343 
f 53 190 469 
f 345 267 245 
f 129 321 184 
f 2 184 321 
f 414 398 452 
f 261 386 387 
f 327 496 329 
f 454 329 496 
f 58 161 262 
f 102 263 162 
f 51 497 53 
f 190 53 497 
f 487 433 447 
f 434 447 433 
f 467 469 480 
f 189 470 471 
f 358 461 481 
f 237 239 194 
f 466 194 239 
f 8 178 17 
f 115 216 77 
f 434 278 379 
f 334 332 238 
f 478 238 332 
f 328 329 455 
f 71 240 70 
f 33 70 240 
f 152 173 475 
f 174 475 173 
f 403 326 76 
f 377 174 159 
f 160 159 174 
f 478 339 337 
f 498 175 255 
f 497 74 57 
f 54 57 74 
f 485 371 474 
f 271 143 486 
f 129 184 477 
f 182 477 184 
f 192 60 127 
f 277 346 276 
f 316 176 186 
f 499 415 229 
f 56 376 374 
f 340 205 203 
f 500 250 248 
f 283 425 166 
f 424 166 425 
f 316 178 176 
f 407 293 41 
f 280 411 28 
f 421 241 244 
f 473 303 301 
f 294 435 458 
f 459 458 435 
f 291 145 457 
f 143 457 145 
f 315 247 250 
f 4 339 333 
f 478 333 339 
f 369 23 341 
f 24 341 23 
f 130 434 379 
f 259 445 258 
f 448 258 445 
f 406 334 238 
f 454 496 93 
f 92 93 496 
f 381 352 351 
f 501 496 327 
f 421 422 241 
f 13 16 361 
f 13 361 148 
f 324 191 494 
f 442 116 441 
f 14 393 314 
f 456 314 393 
f 125 192 127 
f 14 314 16 
f 312 16 314 
f 222 167 168 
f 460 364 462 
f 502 105 455 
f 328 455 105 
f 223 167 222 
f 198 288 43 
f 293 407 423 
f 365 423 407 
f 250 500 368 
f 356 368 500 
f 49 300 446 
f 364 484 385 
f 133 265 149 
f 483 479 97 
f 96 97 479 
f 472 473 467 
f 445 375 65 
f 154 157 392 
f 243 437 451 
f 341 342 268 
f 182 451 439 
f 222 168 153 
f 199 68 66 
f 234 391 233 
f 219 294 458 
f 86 22 25 
f 129 304 321 
f 79 321 304 
f 465 213 136 
f 101 371 99 
f 485 99 371 
f 204 185 188 
f 277 25 23 
f 100 42 45 
f 314 456 313 
f 249 313 456 
f 215 213 465 
f 491 8 6 
f 384 443 335 
f 215 464 363 
f 466 363 464 
f 484 364 480 
f 264 480 364 
f 403 495 326 
f 186 317 316 
f 56 58 55 
f 1 331 499 
f 416 499 331 
f 493 204 188 
f 459 435 444 
f 295 252 251 
f 307 228 414 
f 190 189 471 
f 11 373 10 
f 497 218 74 
f 76 74 218 
f 150 424 160 
f 355 405 347 
f 367 466 366 
f 412 485 142 
f 144 142 485 
f 257 126 206 
f 335 383 384 
f 195 238 237 
f 492 212 362 
f 101 288 370 
f 404 370 288 
f 430 116 442 
f 344 151 163 
f 423 483 463 
f 95 98 408 
f 116 408 98 
f 404 288 67 
f 284 44 42 
f 427 38 208 
f 215 465 464 
f 76 218 403 
f 65 448 445 
f 126 257 260 
f 171 142 145 
f 11 123 121 
f 350 13 148 
f 429 323 109 
f 243 451 242 
f 259 257 206 
f 318 223 221 
f 370 75 372 
f 389 372 75 
f 20 73 325 
f 328 103 348 
f 344 320 319 
f 175 498 493 
f 203 493 498 
f 216 426 110 
f 281 341 24 
f 442 323 429 
f 230 61 64 
f 137 138 305 
f 247 313 249 
f 497 57 190 
f 358 500 460 
f 248 460 500 
f 297 266 298 
f 410 298 266 
f 134 410 266 
f 409 394 235 
f 373 11 490 
f 26 29 342 
f 271 457 143 
f 290 171 145 
f 152 303 473 
f 182 439 477 
f 396 352 381 
f 139 196 136 
f 465 136 196 
f 284 166 44 
f 47 289 49 
f 300 49 289 
f 46 49 446 
f 180 482 454 
f 502 322 105 
f 119 291 457 
f 100 282 42 
f 284 42 282 
f 274 295 251 
f 32 200 337 
f 478 337 200 
f 308 383 335 
f 369 277 23 
f 418 128 260 
f 131 438 418 
f 372 389 488 
f 373 490 489 
f 478 332 333 
f 194 195 237 
f 269 7 5 
f 291 290 145 
f 124 122 227 
f 292 227 122 
f 207 292 122 
f 456 163 249 
f 377 83 46 
f 105 103 328 
f 495 253 309 
f 351 204 381 
f 202 381 204 
f 323 442 72 
f 394 409 411 
f 476 449 450 
f 179 449 181 
f 501 327 330 
f 203 204 493 
f 386 502 390 
f 455 390 502 
f 78 79 87 
f 51 310 120 
f 444 382 459 
f 438 131 439 
f 443 286 124 
f 470 189 262 
f 268 369 341 
f 357 481 181 
f 481 357 358 
f 271 486 211 
f 306 416 406 
f 334 406 416 
f 179 305 449 
f 336 307 431 
f 414 431 307 
f 367 413 362 
f 340 498 255 
f 417 258 448 
f 476 214 402 
f 415 499 416 
f 412 343 99 
f 104 422 217 
f 421 217 422 
f 308 276 383 
f 499 64 3 
f 386 322 502 
f 180 454 93 
f 32 81 82 
f 120 497 51 
f 73 20 389 
f 423 463 293 
f 229 64 499 
f 274 395 295 
f 256 244 63 
f 485 412 99 
f 337 31 32 
f 104 324 494 
f 443 419 286 
f 413 407 41 
f 501 330 440 
f 296 395 397 
f 394 411 487 
f 359 12 356 
f 95 408 398 
f 413 367 407 
f 120 218 497 
f 285 40 402 
f 358 356 500 
f 501 440 92 
f 340 203 498 
f 307 225 228 
f 459 205 340 
f 282 100 287 
f 211 209 271 
f 253 495 403 
f 377 446 174 
f 475 174 446 
f 80 432 115 
f 199 487 68 
f 480 472 467 
f 392 234 154 
f 494 422 104 
f 487 199 394 
f 12 208 9 
f 442 429 430 
f 359 208 12 
f 427 208 359 
f 220 112 436 
f 31 436 112 
f 164 152 473 
f 291 119 117 
f 450 214 476 
f 462 388 461 
f 446 377 46 
f 115 77 80 
f 88 336 78 
f 18 21 211 
f 16 312 489 
f 373 489 312 
f 322 386 261 
f 88 276 308 
f 267 369 268 
f 3 1 499 
f 494 243 422 
f 307 336 88 
f 496 501 92 
