#  wavefront obj file written by the visualization toolkit

mtllib livercyst.mtl

v 92.15979766845703 163.09300231933594 138.07200622558594
v 91.32540130615234 163.11399841308594 137.48800659179688
v 91.41239929199219 162.8699951171875 138.63900756835938
v 91.841796875 163.71800231933594 136.72799682617188
v 90.92610168457031 163.10400390625 138.9340057373047
v 92.42479705810547 163.2209930419922 137.2050018310547
v 118.73799896240234 177.86000061035156 174.9949951171875
v 118.2750015258789 178.65699768066406 177.25900268554688
v 119.78299713134766 179.22300720214844 175.093994140625
v 117.50900268554688 177.1479949951172 175.36099243164062
v 108.20999908447266 220.41700744628906 188.64999389648438
v 108.95899963378906 219.48699951171875 190.62100219726562
v 107.48100280761719 220.406005859375 191.3300018310547
v 109.13700103759766 218.9929962158203 188.88800048828125
v 90.79290008544922 163.5570068359375 137.3350067138672
v 90.52570343017578 163.42100524902344 138.98199462890625
v 90.36160278320312 163.8699951171875 138.68299865722656
v 108.41699981689453 169.8730010986328 157.13699340820312
v 109.33200073242188 170.58299255371094 157.98899841308594
v 107.9260025024414 170.66299438476562 156.55999755859375
v 107.88800048828125 169.572998046875 158.38400268554688
v 106.82599639892578 205.8000030517578 186.5019989013672
v 107.83699798583984 205.01800537109375 184.74200439453125
v 108.16400146484375 207.52200317382812 184.531005859375
v 108.06999969482422 203.7239990234375 186.97000122070312
v 107.21299743652344 209.8560028076172 189.2259979248047
v 106.40399932861328 209.625 187.36500549316406
v 107.1259994506836 210.27000427246094 186.61500549316406
v 106.21499633789062 208.07899475097656 187.37899780273438
v 109.58499908447266 215.0760040283203 190.802001953125
v 108.74299621582031 214.5850067138672 191.5189971923828
v 107.96099853515625 216.27999877929688 191.2050018310547
v 109.26599884033203 214.19700622558594 191.7530059814453
v 114.77999877929688 205.7830047607422 190.44200134277344
v 113.55599975585938 203.8459930419922 191.32400512695312
v 113.93199920654297 205.7689971923828 191.25599670410156
v 114.66400146484375 202.8209991455078 189.2830047607422
v 111.61799621582031 199.94000244140625 190.8489990234375
v 112.31999969482422 199.21099853515625 189.7050018310547
v 111.34200286865234 199.6230010986328 189.86300659179688
v 113.74700164794922 199.77200317382812 189.9969940185547
v 118.97000122070312 177.69400024414062 171.31100463867188
v 118.35299682617188 177.2220001220703 169.63499450683594
v 118.53500366210938 176.71299743652344 171.32000732421875
v 118.70800018310547 179.23300170898438 170.01699829101562
v 115.71199798583984 178.0780029296875 175.9709930419922
v 116.7490005493164 179.45799255371094 180.6909942626953
v 112.28600311279297 173.4949951171875 174.03900146484375
v 112.08999633789062 173.8679962158203 173.5399932861328
v 113.11799621582031 173.0019989013672 173.93099975585938
v 111.947998046875 175.22300720214844 174.06399536132812
v 92.76599884033203 164.197998046875 141.54600524902344
v 92.45760345458984 164.50999450683594 142.8419952392578
v 93.17410278320312 164.85699462890625 141.51199340820312
v 92.62300109863281 163.77099609375 139.8520050048828
v 116.21499633789062 201.5290069580078 186.0959930419922
v 117.0989990234375 199.79299926757812 186
v 115.51599884033203 200.6490020751953 188.22500610351562
v 116.41899871826172 200.5679931640625 184.6790008544922
v 90.62120056152344 164.1790008544922 137.40499877929688
v 90.45099639892578 164.6750030517578 139.07699584960938
v 91.07460021972656 164.16099548339844 136.54299926757812
v 108.58799743652344 191.55299377441406 179.30499267578125
v 107.4990005493164 193.33900451660156 178.52499389648438
v 107.97000122070312 193.66400146484375 180.44500732421875
v 108.4540023803711 193.3159942626953 176.5679931640625
v 110.58100128173828 170.81399536132812 160.60899353027344
v 109.23699951171875 170.3780059814453 161.0780029296875
v 110.45600128173828 171.11300659179688 162.5749969482422
v 117.89199829101562 189.03799438476562 187.86000061035156
v 117.47000122070312 186.98800659179688 185.87399291992188
v 115.88400268554688 189.41900634765625 186.7030029296875
v 119.13899993896484 187.48300170898438 187.41400146484375
v 113.40299987792969 192.68099975585938 178.98199462890625
v 113.98699951171875 190.2010040283203 179.197998046875
v 114.58000183105469 191.01199340820312 182.61900329589844
v 113.37300109863281 192.23599243164062 176.82899475097656
v 103.5989990234375 169.74400329589844 153.42300415039062
v 103.89099884033203 168.43499755859375 152.75100708007812
v 104.72599792480469 169.3300018310547 152.5800018310547
v 101.89199829101562 168.97500610351562 151.8699951171875
v 111.36599731445312 174.50399780273438 174.8000030517578
v 110.86399841308594 174.62899780273438 174.16099548339844
v 92.62460327148438 163.44900512695312 137.54400634765625
v 92.61579895019531 164.072998046875 137.50999450683594
v 117.4530029296875 176.0679931640625 170.94400024414062
v 117.54499816894531 176.90499877929688 173.20700073242188
v 114.55400085449219 191.802001953125 184.8470001220703
v 113.10399627685547 188.83700561523438 183.58299255371094
v 116.56700134277344 189.71499633789062 183.29200744628906
v 101.08799743652344 167.80299377441406 153.34800720214844
v 102.64600372314453 167.76400756835938 152.94700622558594
v 103.73999786376953 167.84100341796875 154.531005859375
v 119.85700225830078 189.39300537109375 185.67999267578125
v 119.58399963378906 189.3769989013672 187.13999938964844
v 119.39099884033203 191.2469940185547 186
v 120.34700012207031 187.46200561523438 185.98899841308594
v 105.80599975585938 208.9929962158203 186.7010040283203
v 106.25700378417969 209.093994140625 185.81100463867188
v 109.19599914550781 217.69700622558594 190.5850067138672
v 109.45800018310547 216.4600067138672 189.76199340820312
v 108.47100067138672 217.5330047607422 188.15199279785156
v 93.8302993774414 167.37399291992188 148.21499633789062
v 94.27210235595703 168.0590057373047 149.08299255371094
v 95.12640380859375 167.65899658203125 149.5540008544922
v 93.62960052490234 167.69500732421875 146.4340057373047
v 91.0459976196289 164.74200439453125 137.25100708007812
v 109.2750015258789 205.13999938964844 184.0330047607422
v 108.85800170898438 203.48800659179688 184.49099731445312
v 91.54879760742188 164.5989990234375 136.5590057373047
v 115.46600341796875 189.60800170898438 184.21600341796875
v 115 187.7550048828125 184.4669952392578
v 115.37000274658203 189.39999389648438 183.81300354003906
v 92.20800018310547 164.70700073242188 137.22500610351562
v 111.97599792480469 203.0970001220703 184.70899963378906
v 111.822998046875 204.2899932861328 185.9250030517578
v 111.30500030517578 204.76800537109375 185.0570068359375
v 112.45700073242188 203.78799438476562 186.85400390625
v 92.8551025390625 164.76100158691406 139.03799438476562
v 113.11000061035156 175.58200073242188 168.45199584960938
v 111.38899993896484 176.59500122070312 168.30099487304688
v 112.13700103759766 176.76300048828125 171.06100463867188
v 111.73300170898438 174.61300659179688 166.86599731445312
v 109.0739974975586 172.28199768066406 156.5070037841797
v 110.21199798583984 171.9320068359375 156.7779998779297
v 110.56500244140625 173.33200073242188 156.7519989013672
v 117.18399810791016 194.62100219726562 187.93099975585938
v 115.26699829101562 193.81100463867188 187.1479949951172
v 116.81900024414062 197.3000030517578 187.53399658203125
v 117.56199645996094 193.177001953125 187.6739959716797
v 108.9729995727539 213.927001953125 189.66600036621094
v 108.91899871826172 211.85899353027344 188.25999450683594
v 109.4800033569336 212.7550048828125 188.17599487304688
v 108.06800079345703 211.97799682617188 190.10800170898438
v 99.08489990234375 169.23800659179688 145.13699340820312
v 100.16400146484375 169.093994140625 147.218994140625
v 100.00399780273438 170.0189971923828 146.85299682617188
v 99.79010009765625 168.51400756835938 145.3800048828125
v 91.03739929199219 165.177001953125 138.64700317382812
v 91.66799926757812 165.21099853515625 137.6909942626953
v 91.40070343017578 165.49200439453125 139.57400512695312
v 110.18099975585938 212.8730010986328 189.53399658203125
v 110.33699798583984 209.90899658203125 188.58599853515625
v 111.09300231933594 211.02999877929688 190.65699768066406
v 92.39520263671875 165.5279998779297 139.0189971923828
v 117.16999816894531 193.58599853515625 184.49400329589844
v 91.82369995117188 165.57899475097656 138.9010009765625
v 91.23410034179688 162.9219970703125 139.6219940185547
v 91.75170135498047 163.0290069580078 139.86099243164062
v 107.39600372314453 218.3040008544922 186.01400756835938
v 106.427001953125 217.06300354003906 187.53900146484375
v 105.7020034790039 218.8459930419922 187.08799743652344
v 120.06700134277344 180.1280059814453 178.2169952392578
v 120.45899963378906 181.46800231933594 180.10800170898438
v 120.49800109863281 181.27099609375 178.13499450683594
v 119.46199798583984 180.44000244140625 180.58999633789062
v 96.74340057373047 170.0780029296875 146.99400329589844
v 97.4375 170.17100524902344 144.85899353027344
v 96.57559967041016 170.56500244140625 145.40199279785156
v 97.04969787597656 168.65199279785156 146.552001953125
v 111.36399841308594 177.54299926757812 164.81300354003906
v 112.44100189208984 178.79600524902344 165.4219970703125
v 111.54299926757812 178.8090057373047 167.03500366210938
v 113.10900115966797 177.4010009765625 164.61700439453125
v 110.44100189208984 175.11000061035156 165.27699279785156
v 110.85800170898438 177.56700134277344 166.7270050048828
v 110.37899780273438 176.08200073242188 163.08299255371094
v 90.37699890136719 163.66700744628906 140.16600036621094
v 90.75189971923828 163.42300415039062 140.74899291992188
v 91.25689697265625 163.1820068359375 140.8560028076172
v 91.89360046386719 163.48199462890625 141.47799682617188
v 118.48600006103516 192.56300354003906 186.4969940185547
v 118.10199737548828 194.8419952392578 186.43899536132812
v 118.91000366210938 192.41900634765625 184.93499755859375
v 115.85900115966797 179.3679962158203 182.4040069580078
v 115.0469970703125 180.55099487304688 182.13499450683594
v 117.1969985961914 180.71499633789062 183.26600646972656
v 111.125 177.58799743652344 173.41900634765625
v 112.70899963378906 179.82699584960938 173.51699829101562
v 113.15399932861328 178.39300537109375 175.1540069580078
v 111.75499725341797 178.58099365234375 170.12100219726562
v 109.62000274658203 201.6699981689453 189.22900390625
v 109.68900299072266 201.3280029296875 185.7779998779297
v 111.04199981689453 199.4669952392578 188.14999389648438
v 109.88600158691406 175.17100524902344 160.55799865722656
v 108.84300231933594 173.89300537109375 158.00999450683594
v 110.52899932861328 174.33700561523438 158.07400512695312
v 109.11900329589844 174.5780029296875 162.11199951171875
v 119.72000122070312 181.802001953125 172.80599975585938
v 118.60299682617188 182.4499969482422 173.2100067138672
v 118.61499786376953 181.59100341796875 171.6739959716797
v 120.27300262451172 181.41799926757812 175.13099670410156
v 97.79029846191406 167.87100219726562 151.4980010986328
v 97.3646011352539 168.33399963378906 153.38800048828125
v 99.03559875488281 168.0800018310547 153.22900390625
v 96.3927993774414 168.2790069580078 151.6699981689453
v 90.25299835205078 164.35400390625 140.6580047607422
v 90.55010223388672 163.91099548339844 141.69700622558594
v 107.21800231933594 221.45799255371094 185.13699340820312
v 107.73799896240234 222.08700561523438 183.39500427246094
v 107.95700073242188 221.6490020751953 185.50799560546875
v 106.75499725341797 221.343994140625 183.4600067138672
v 92.74919891357422 166.96099853515625 142.33900451660156
v 92.74980163574219 166.48500061035156 141.42599487304688
v 93.310302734375 167.1739959716797 143.22000122070312
v 92.69529724121094 166.79600524902344 143.7790069580078
v 114.8280029296875 204.8070068359375 188.48399353027344
v 113.9540023803711 205.2949981689453 189.4429931640625
v 110.46700286865234 194.41799926757812 179.77999877929688
v 107.97799682617188 195.66900634765625 179.19500732421875
v 109.76699829101562 193.24899291992188 182.23399353027344
v 114.55400085449219 201.94000244140625 184.62600708007812
v 114.19100189208984 202.78900146484375 186.40199279785156
v 107.78600311279297 173.31399536132812 159.68099975585938
v 107.50399780273438 173.39100646972656 157.92300415039062
v 108.08000183105469 217.8459930419922 191.77499389648438
v 106.8219985961914 218.4149932861328 192.73199462890625
v 108.1259994506836 219.22500610351562 192.02499389648438
v 106.63999938964844 217.05299377441406 191.1529998779297
v 95.12129974365234 168.1999969482422 150.4499969482422
v 94.88970184326172 168.34500122070312 148.61900329589844
v 96.08329772949219 168.6179962158203 149.54400634765625
v 99.68070220947266 168.2469940185547 150.9550018310547
v 110.51399993896484 211.99099731445312 191.25900268554688
v 116.51699829101562 184.00999450683594 183.4320068359375
v 114.0989990234375 181.78399658203125 181.09800720214844
v 90.18240356445312 164.79299926757812 140.45399475097656
v 90.62149810791016 165.11599731445312 140.96299743652344
v 109.81999969482422 208.66000366210938 186.67799377441406
v 108.46900177001953 210.1540069580078 186.3560028076172
v 109.78500366210938 207.56700134277344 185.15199279785156
v 111.2979965209961 178.3090057373047 168.25599670410156
v 115.3489990234375 184.30099487304688 179.27999877929688
v 110.02100372314453 207.7519989013672 189.71400451660156
v 110.5469970703125 208.85000610351562 190.93499755859375
v 108.54499816894531 207.86099243164062 191.35000610351562
v 110.10700225830078 208.58799743652344 188.16799926757812
v 109.76200103759766 203.34100341796875 190.78599548339844
v 111.69400024414062 201.7989959716797 191.6020050048828
v 108.51699829101562 203.66299438476562 188.73800659179688
v 118.7750015258789 191.04200744628906 184.52999877929688
v 111.80599975585938 174.44200134277344 160.20899963378906
v 112.51000213623047 172.6280059814453 160.99200439453125
v 112.92400360107422 174.54600524902344 163.23199462890625
v 111.88899993896484 172.38400268554688 159.16000366210938
v 119.822998046875 183.06900024414062 177.32000732421875
v 117.32499694824219 183.55299377441406 174.0019989013672
v 113.78399658203125 203.86000061035156 187.8459930419922
v 117.41799926757812 197.78500366210938 185.72999572753906
v 116.22799682617188 198.62899780273438 184.61399841308594
v 107.68299865722656 171.25100708007812 160.33700561523438
v 113.11599731445312 187.07699584960938 180.68699645996094
v 111.24299621582031 176.03700256347656 161.8179931640625
v 117.58100128173828 195.8679962158203 184.83999633789062
v 111.3010025024414 176.40499877929688 174.63400268554688
v 109.54900360107422 175.46499633789062 162.10899353027344
v 98.73100280761719 168.09300231933594 145.51800537109375
v 91.37590026855469 165.427001953125 141.75799560546875
v 91.9269027709961 165.32200622558594 143.25999450683594
v 91.07039642333984 165.06100463867188 142.98300170898438
v 91.39320373535156 164.58700561523438 143.48800659179688
v 93.26480102539062 165.75799560546875 140.7239990234375
v 94.8062973022461 167.03199768066406 147.99000549316406
v 94.3927993774414 167.02699279785156 148.906005859375
v 95.12449645996094 167.781005859375 146.97000122070312
v 114.60099792480469 174.3300018310547 170.2449951171875
v 114.427001953125 174.53900146484375 170.2270050048828
v 115.47000122070312 175.2779998779297 171.0679931640625
v 114.83699798583984 175.18600463867188 169.0919952392578
v 106.88899993896484 221.07699584960938 186.2270050048828
v 106.43199920654297 220.85299682617188 189.0279998779297
v 108.74600219726562 221.31500244140625 186.3560028076172
v 94.20539855957031 167.0919952392578 143.90499877929688
v 94.39920043945312 166.65199279785156 144.21099853515625
v 94.69020080566406 166.92300415039062 145.6490020751953
v 93.7677993774414 166.44700622558594 142.6909942626953
v 109.6989974975586 191.0570068359375 183.04100036621094
v 112.0790023803711 192.05799865722656 182.17599487304688
v 109.46399688720703 190.14599609375 182.07000732421875
v 112.5989990234375 179.5 167.53799438476562
v 90.6489028930664 164.58599853515625 142.5919952392578
v 115.21399688720703 196.0229949951172 184.63900756835938
v 105.53800201416016 218.00399780273438 188.96400451660156
v 106.11499786376953 217.17999267578125 189.61700439453125
v 91.96170043945312 165.78500366210938 140.81199645996094
v 114.04900360107422 175.7550048828125 170.87600708007812
v 92.31829833984375 166.156005859375 142.74899291992188
v 109.66300201416016 191.86599731445312 176.62899780273438
v 110.302001953125 190.41200256347656 177.80099487304688
v 111.29499816894531 172.88699340820312 164.21299743652344
v 112.85600280761719 174.4320068359375 165.947998046875
v 111.98300170898438 171.86199951171875 162.24099731445312
v 111.21900177001953 176.25599670410156 173.4029998779297
v 114.45999908447266 180.1959991455078 178.21400451660156
v 93.68009948730469 165.72300720214844 142.08799743652344
v 109.69100189208984 170.83700561523438 162.66700744628906
v 107.03700256347656 172.45199584960938 158.625
v 107.61399841308594 172.40199279785156 157.1179962158203
v 106.56999969482422 170.32699584960938 158.01199340820312
v 108.71499633789062 196.5709991455078 177.98899841308594
v 109.37100219726562 196.19200134277344 176.66200256347656
v 110.60700225830078 196.19500732421875 177.66600036621094
v 108.34200286865234 195.23199462890625 176.5260009765625
v 94.35269927978516 167.67100524902344 145.13299560546875
v 94.67440032958984 168.2239990234375 146.84100341796875
v 109.32099914550781 196.65199279785156 179.08200073242188
v 107.46399688720703 194.79600524902344 177.9600067138672
v 112.60099792480469 174.83099365234375 167.43699645996094
v 115.21900177001953 201.947998046875 187.73899841308594
v 108.27799987792969 172.9429931640625 161.781005859375
v 107.20600128173828 219.76199340820312 193.28799438476562
v 97.018798828125 169.072998046875 153.22799682617188
v 97.36959838867188 169.76699829101562 150.51499938964844
v 113.74600219726562 206.32400512695312 190.67999267578125
v 114.1500015258789 206.42599487304688 190.02999877929688
v 111.50299835205078 189.48399353027344 177.2729949951172
v 110.927001953125 188.8939971923828 180.38699340820312
v 111.93000030517578 191.43499755859375 176.1790008544922
v 113.85700225830078 201.9810028076172 191.25999450683594
v 113.2229995727539 200.81399536132812 191.4219970703125
v 110.78800201416016 171.3419952392578 158.4040069580078
v 91.2614974975586 163.84800720214844 142.50900268554688
v 109.9010009765625 210.3000030517578 191.7100067138672
v 120.02100372314453 186.5659942626953 185.0189971923828
v 119.11499786376953 187.6580047607422 184.38800048828125
v 119.17900085449219 186.48599243164062 185.4669952392578
v 114.08599853515625 176.13400268554688 166.23500061035156
v 111.3759994506836 205.04600524902344 187.83599853515625
v 110.46700286865234 205.8800048828125 189.093994140625
v 110.29299926757812 205.906005859375 185.50799560546875
v 110.94400024414062 205.2760009765625 190.0919952392578
v 111.60700225830078 173.46299743652344 157.84800720214844
v 111.27200317382812 172.52999877929688 157.20199584960938
v 115.8030014038086 199.17999267578125 184.0989990234375
v 113.91899871826172 198.27000427246094 185.0489959716797
v 107.28900146484375 193.947998046875 179.07200622558594
v 112.2239990234375 171.99000549316406 160.20799255371094
v 111.77200317382812 171.53900146484375 160.48300170898438
v 105.14600372314453 169.01699829101562 157.8090057373047
v 105.16699981689453 169.9250030517578 157.01800537109375
v 106.06099700927734 168.6280059814453 156.65699768066406
v 115.23500061035156 176.64199829101562 172.76100158691406
v 109.93800354003906 194.71800231933594 176.08099365234375
v 112.2020034790039 193.593994140625 176.93299865722656
v 105.38300323486328 219.04100036621094 191.05499267578125
v 101.8740005493164 169.16700744628906 154.98500061035156
v 100.00199890136719 170.3679962158203 153.031005859375
v 101.5979995727539 169.99400329589844 152.96499633789062
v 99.12310028076172 169.88099670410156 154.1699981689453
v 114.3219985961914 204.86900329589844 188.04200744628906
v 94.11150360107422 166.49200439453125 146.79800415039062
v 93.1771011352539 166.63800048828125 145.9510040283203
v 117.2760009765625 177.26199340820312 168.29200744628906
v 117.79499816894531 179.02000427246094 168.4759979248047
v 116.70899963378906 175.88299560546875 169.2169952392578
v 110.39199829101562 203.51100158691406 184.16799926757812
v 110.63300323486328 201.76100158691406 184.29200744628906
v 101.74700164794922 167.83999633789062 154.8249969482422
v 100.00399780273438 168.42300415039062 154.60400390625
v 108.75900268554688 219.41299438476562 187.48899841308594
v 94.24639892578125 166.27200317382812 144.73399353027344
v 93.55120086669922 165.71099853515625 143.93499755859375
v 111.72599792480469 203.01699829101562 191.93099975585938
v 113.21099853515625 176.83700561523438 173.33299255371094
v 119.5780029296875 181.1009979248047 172.05499267578125
v 120.24199676513672 180.5229949951172 173.5399932861328
v 119.3550033569336 180.10899353027344 171.84100341796875
v 109.11399841308594 190.4720001220703 183.0709991455078
v 103.92900085449219 221.7050018310547 194.41700744628906
v 104.18699645996094 222.1529998779297 193.56399536132812
v 104.78199768066406 221.61599731445312 195.03799438476562
v 104.18000030517578 220.90699768066406 194.10899353027344
v 109.49099731445312 173.44400024414062 163.64500427246094
v 109.27100372314453 171.75599670410156 162.7779998779297
v 106.73999786376953 220.87600708007812 193.0760040283203
v 118.6500015258789 185.13699340820312 179.92799377441406
v 118.37699890136719 183.77699279785156 183.39500427246094
v 119.9520034790039 182.85299682617188 181.03900146484375
v 117.03099822998047 191.406005859375 188
v 110.10700225830078 206.90499877929688 188.02099609375
v 105.46800231933594 221.5019989013672 192.0749969482422
v 106.03299713134766 221.88299560546875 194.58099365234375
v 108.5 220.87399291992188 181.0850067138672
v 107.65399932861328 219.44000244140625 182.0760040283203
v 108.8290023803711 220.16200256347656 183.34800720214844
v 107.302001953125 220.2949981689453 180.79299926757812
v 106.40599822998047 220.8769989013672 185.17300415039062
v 106.1780014038086 169.65699768066406 155.447998046875
v 107.51799774169922 169.4759979248047 156.46499633789062
v 105.64600372314453 168.38800048828125 154.73300170898438
v 115.2699966430664 198.7760009765625 188.40699768066406
v 113.73400115966797 197.52200317382812 188.16200256347656
v 111.75499725341797 200.82000732421875 184.7239990234375
v 114.177001953125 178.76100158691406 166.5399932861328
v 92.67749786376953 165.91799926757812 144.3209991455078
v 118.76899719238281 179.76199340820312 181.9499969482422
v 110.22200012207031 205.83999633789062 190.88699340820312
v 110.60199737548828 193.0030059814453 176.02499389648438
v 106.75800323486328 218.45199584960938 184.8730010986328
v 112.0479965209961 176.68800354003906 163.37399291992188
v 112.28099822998047 175.74099731445312 162.09800720214844
v 107.06900024414062 209.41900634765625 184.6280059814453
v 107.5510025024414 204.83599853515625 188.86599731445312
v 107.11000061035156 206.531005859375 189.76199340820312
v 108.8270034790039 205.13900756835938 191.14500427246094
v 119.22799682617188 178.4459991455078 172.73199462890625
v 95.24369812011719 168.27499389648438 147.5019989013672
v 95.94210052490234 168.05999755859375 148.10699462890625
v 111.41899871826172 204.23899841308594 191.2270050048828
v 114.76699829101562 177.49000549316406 173.99000549316406
v 116.3280029296875 186.64199829101562 179.44400024414062
v 92.66220092773438 166.49200439453125 144.97799682617188
v 117.72000122070312 180.25999450683594 168.7989959716797
v 117.40699768066406 181.30499267578125 170.33900451660156
v 116.03500366210938 180.16600036621094 168.3780059814453
v 108.31099700927734 216.02000427246094 189.13499450683594
v 118.63700103759766 190.9530029296875 187.55599975585938
v 104.72599792480469 222.20700073242188 192.5970001220703
v 105.01899719238281 222.81300354003906 193.73699951171875
v 104.59400177001953 220.593994140625 192.98199462890625
v 108.9020004272461 221.92599487304688 184.87600708007812
v 109.6240005493164 221.37100219726562 184.9040069580078
v 109.052001953125 221.99400329589844 182.73399353027344
v 114.75499725341797 181.31399536132812 170.89199829101562
v 106.11199951171875 220.29600524902344 186.22500610351562
v 109.13899993896484 220.44900512695312 186.24099731445312
v 108.4990005493164 219.55499267578125 185.43499755859375
v 111.01499938964844 205.45599365234375 185.80599975585938
v 97.42449951171875 167.79400634765625 147.29400634765625
v 98.84410095214844 167.86500549316406 146.97500610351562
v 99.30400085449219 170.77099609375 147.2989959716797
v 97.6146011352539 170.9530029296875 147.70599365234375
v 97.87310028076172 171.29299926757812 146.00100708007812
v 99.05719757080078 170.6320037841797 150.3300018310547
v 106.01499938964844 219.88900756835938 194.4499969482422
v 106.74299621582031 216.625 189.52200317382812
v 119.79199981689453 183.9980010986328 179.01400756835938
v 118.0479965209961 186.49000549316406 182.92100524902344
v 108.1050033569336 204.34100341796875 189.3820037841797
v 98.06620025634766 169.06900024414062 154.14500427246094
v 98.55349731445312 170.63299560546875 145.00399780273438
v 97.78399658203125 170.89300537109375 144.36000061035156
v 109.08100128173828 218.78900146484375 191.43800354003906
v 99.7332992553711 168.25 146.12600708007812
v 114.08300018310547 201.281005859375 190.2760009765625
v 105.4739990234375 220.61700439453125 189.0489959716797
v 106.34700012207031 207.69900512695312 184.84500122070312
v 100.49800109863281 170.16799926757812 150.01300048828125
v 104.18399810791016 168.44200134277344 156.55999755859375
v 103.96199798583984 169.53599548339844 156.11599731445312
v 115.61100006103516 176.78799438476562 167.5959930419922
v 116.29399871826172 178.42100524902344 167.71499633789062
v 110.84100341796875 177.05099487304688 174.0399932861328
v 107.87899780273438 219.0760040283203 184.05599975585938
v 97.83570098876953 169.8679962158203 152.98500061035156
v 112.86299896240234 180.0500030517578 169.8699951171875
v 113.94100189208984 180.23699951171875 168.3489990234375
v 109.2760009765625 212.947998046875 191.39599609375
v 117.44000244140625 179.95399475097656 168.2790069580078
v 114.60800170898438 179.9029998779297 167.54200744628906
v 109.5469970703125 221.23399353027344 182.64500427246094
v 104.822998046875 170.23300170898438 154.78599548339844
v 104.9229965209961 170.0019989013672 153.2100067138672
v 109.49400329589844 189.96200561523438 180.39700317382812
v 99.57949829101562 170.1909942626953 145.7689971923828
v 118.61799621582031 182.35000610351562 183.83700561523438
v 119.60900115966797 182.99400329589844 183.29200744628906
v 114.24299621582031 181.3780059814453 177.10899353027344
v 97.24870300292969 171.0659942626953 144.86599731445312
v 119.28500366210938 181.10400390625 182.98800659179688
v 112.16999816894531 193.26199340820312 180.16600036621094
v 96.59230041503906 171.0469970703125 146.18899536132812
v 111.19100189208984 178.54100036621094 167.45399475097656
v 120.46399688720703 179.8939971923828 176.21200561523438
v 107.49700164794922 221.68899536132812 181.61700439453125
v 113.19200134277344 172.93899536132812 173.93899536132812
v 106.58100128173828 219.8730010986328 183.2969970703125
v 96.51069641113281 170.93299865722656 146.9980010986328
v 98.68090057373047 170.38099670410156 152.36199951171875
v 93.3635025024414 167.33700561523438 147.2220001220703
v 112.64399719238281 204.16200256347656 189.36300659179688
v 96.83940124511719 167.71299743652344 149.68899536132812
v 100.56199645996094 169.21400451660156 149.63900756835938
v 98.2748031616211 167.7779998779297 149.03599548339844
v 105.2239990234375 168.9600067138672 153.38099670410156
v 105.41799926757812 170.00799560546875 153.88499450683594
v 106.1709976196289 218.9949951171875 185.36000061035156
v 106.96399688720703 219.18699645996094 194.1269989013672
v 109.9229965209961 190.0679931640625 179.48599243164062
v 99.58309936523438 168.38299560546875 148.6300048828125
v 99.72669982910156 168.3070068359375 147.35000610351562
v 96.68659973144531 169.13299560546875 148.47900390625
v 104.77100372314453 220.02200317382812 194.92300415039062
v 107.85199737548828 220.9770050048828 180
v 108.02100372314453 210.45199584960938 191.3820037841797
v 108.33699798583984 192.1320037841797 181.61599731445312
v 100.01499938964844 167.86199951171875 153.87899780273438
v 109.8489990234375 221.4340057373047 185.90499877929688
v 107.6729965209961 222.35499572753906 182.5240020751953
v 111.51200103759766 173.22900390625 157.03599548339844

g grp1
usemtl mtl1
f 3 2 1 
f 4 1 2 
f 5 2 3 
f 6 1 4 
f 9 8 7 
f 10 7 8 
f 13 12 11 
f 14 11 12 
f 5 16 15 
f 17 15 16 
f 15 2 5 
f 4 2 15 
f 20 19 18 
f 21 18 19 
f 24 23 22 
f 25 22 23 
f 28 27 26 
f 29 26 27 
f 32 31 30 
f 33 30 31 
f 36 35 34 
f 37 34 35 
f 40 39 38 
f 41 38 39 
f 44 43 42 
f 45 42 43 
f 47 46 8 
f 10 8 46 
f 50 49 48 
f 51 48 49 
f 54 53 52 
f 55 52 53 
f 58 57 56 
f 59 56 57 
f 60 15 17 
f 61 60 17 
f 62 4 15 
f 62 15 60 
f 65 64 63 
f 66 63 64 
f 69 68 67 
f 19 67 68 
f 72 71 70 
f 73 70 71 
f 76 75 74 
f 77 74 75 
f 80 79 78 
f 81 78 79 
f 51 82 48 
f 83 48 82 
f 85 84 4 
f 6 4 84 
f 87 86 44 
f 43 44 86 
f 89 88 76 
f 90 76 88 
f 81 92 91 
f 93 91 92 
f 55 84 85 
f 96 95 94 
f 97 94 95 
f 99 98 27 
f 29 27 98 
f 30 101 100 
f 102 100 101 
f 105 104 103 
f 106 103 104 
f 107 62 60 
f 61 107 60 
f 24 108 23 
f 109 23 108 
f 110 62 107 
f 4 62 110 
f 113 112 111 
f 72 111 112 
f 114 4 110 
f 117 116 115 
f 118 115 116 
f 114 119 85 
f 55 85 119 
f 122 121 120 
f 123 120 121 
f 126 125 124 
f 19 124 125 
f 4 114 85 
f 129 128 127 
f 130 127 128 
f 133 132 131 
f 134 131 132 
f 137 136 135 
f 138 135 136 
f 140 107 139 
f 61 139 107 
f 141 140 139 
f 140 110 107 
f 144 143 142 
f 132 142 143 
f 114 110 140 
f 145 114 140 
f 146 90 88 
f 145 119 114 
f 147 140 141 
f 145 140 147 
f 148 5 3 
f 149 3 1 
f 148 3 149 
f 102 151 150 
f 152 150 151 
f 155 154 153 
f 156 153 154 
f 159 158 157 
f 160 157 158 
f 163 162 161 
f 164 161 162 
f 166 161 165 
f 167 165 161 
f 168 17 16 
f 169 168 16 
f 169 16 5 
f 170 169 5 
f 148 170 5 
f 170 148 149 
f 171 170 149 
f 149 55 171 
f 53 171 55 
f 1 55 149 
f 173 172 146 
f 174 146 172 
f 55 1 84 
f 6 84 1 
f 177 176 175 
f 47 175 176 
f 180 179 178 
f 181 178 179 
f 25 183 182 
f 184 182 183 
f 187 186 185 
f 188 185 186 
f 191 190 189 
f 192 189 190 
f 195 194 193 
f 196 193 194 
f 197 17 168 
f 198 197 168 
f 197 61 17 
f 198 168 169 
f 201 200 199 
f 202 199 200 
f 205 204 203 
f 206 203 204 
f 208 34 207 
f 37 207 34 
f 210 65 209 
f 211 209 65 
f 213 56 212 
f 59 212 56 
f 188 186 214 
f 215 214 186 
f 218 217 216 
f 219 216 217 
f 222 221 220 
f 104 220 221 
f 223 81 91 
f 21 19 68 
f 224 144 142 
f 177 225 176 
f 226 176 225 
f 228 227 197 
f 61 197 227 
f 230 229 24 
f 231 24 229 
f 106 104 221 
f 166 121 232 
f 181 232 121 
f 233 226 225 
f 143 235 234 
f 236 234 235 
f 119 54 55 
f 52 55 54 
f 229 143 237 
f 234 237 143 
f 239 238 182 
f 240 182 238 
f 241 90 146 
f 244 243 242 
f 245 242 243 
f 247 246 190 
f 192 190 246 
f 37 213 248 
f 118 248 213 
f 129 249 57 
f 250 57 249 
f 251 21 68 
f 71 112 233 
f 252 233 112 
f 38 239 182 
f 253 242 185 
f 187 185 242 
f 254 173 146 
f 255 83 82 
f 174 241 146 
f 228 139 61 
f 253 185 167 
f 256 167 185 
f 257 135 138 
f 141 139 228 
f 258 141 228 
f 258 260 259 
f 261 259 260 
f 262 119 145 
f 54 119 262 
f 264 263 105 
f 265 105 263 
f 268 267 266 
f 269 266 267 
f 271 11 270 
f 272 270 11 
f 275 274 273 
f 276 273 274 
f 278 277 89 
f 279 89 277 
f 280 162 163 
f 228 281 260 
f 261 260 281 
f 146 88 282 
f 128 282 88 
f 156 47 8 
f 166 165 121 
f 123 121 165 
f 152 151 283 
f 284 283 151 
f 285 141 258 
f 147 141 285 
f 145 147 285 
f 204 145 285 
f 286 269 267 
f 143 229 230 
f 287 204 285 
f 28 99 27 
f 66 288 63 
f 289 63 288 
f 291 290 244 
f 292 244 290 
f 255 293 83 
f 49 83 293 
f 282 254 146 
f 176 294 47 
f 46 47 294 
f 276 295 262 
f 54 262 295 
f 296 68 69 
f 215 298 297 
f 299 297 298 
f 96 241 174 
f 302 301 300 
f 303 300 301 
f 305 304 106 
f 205 106 304 
f 306 300 210 
f 307 210 300 
f 120 123 308 
f 291 308 123 
f 309 213 37 
f 188 214 310 
f 251 310 214 
f 13 311 218 
f 217 218 311 
f 194 312 196 
f 313 196 312 
f 36 314 208 
f 315 208 314 
f 317 289 316 
f 318 316 289 
f 287 206 204 
f 35 239 319 
f 320 319 239 
f 67 19 321 
f 125 321 19 
f 314 34 315 
f 208 315 34 
f 276 204 205 
f 262 204 276 
f 322 169 170 
f 322 170 171 
f 144 323 235 
f 236 235 323 
f 325 97 324 
f 326 324 97 
f 53 322 171 
f 281 197 198 
f 198 169 322 
f 322 281 198 
f 261 281 322 
f 181 280 163 
f 222 220 196 
f 105 196 220 
f 53 261 322 
f 327 120 291 
f 308 291 120 
f 330 329 328 
f 331 328 329 
f 242 245 332 
f 333 332 245 
f 250 334 59 
f 335 59 334 
f 307 64 336 
f 65 336 64 
f 243 337 245 
f 338 245 337 
f 340 339 299 
f 341 299 339 
f 228 197 281 
f 342 286 268 
f 267 268 286 
f 301 302 343 
f 344 343 302 
f 217 345 219 
f 284 219 345 
f 348 347 346 
f 349 346 347 
f 259 261 53 
f 207 350 208 
f 248 208 350 
f 264 103 351 
f 352 351 103 
f 345 152 283 
f 354 43 353 
f 355 353 43 
f 115 357 356 
f 183 356 357 
f 318 77 75 
f 93 346 358 
f 359 358 346 
f 360 11 14 
f 275 351 361 
f 362 361 351 
f 35 363 239 
f 238 239 363 
f 61 227 228 
f 109 25 23 
f 180 255 364 
f 51 364 255 
f 189 366 365 
f 367 365 366 
f 368 279 277 
f 371 370 369 
f 372 369 370 
f 165 373 290 
f 374 290 373 
f 375 13 271 
f 11 271 13 
f 225 377 376 
f 378 376 377 
f 173 130 172 
f 379 172 130 
f 258 228 260 
f 73 326 97 
f 380 329 330 
f 382 375 381 
f 271 381 375 
f 385 384 383 
f 386 383 384 
f 271 270 387 
f 202 387 270 
f 344 77 318 
f 389 341 388 
f 390 388 341 
f 58 41 391 
f 392 391 41 
f 56 213 309 
f 393 357 115 
f 129 392 128 
f 335 128 392 
f 164 162 394 
f 280 394 162 
f 395 53 362 
f 54 362 53 
f 396 47 156 
f 362 54 295 
f 380 397 329 
f 331 329 397 
f 344 318 398 
f 288 398 318 
f 399 150 152 
f 93 390 341 
f 259 285 258 
f 244 401 400 
f 253 400 401 
f 402 99 28 
f 405 404 403 
f 22 403 404 
f 259 287 285 
f 395 287 259 
f 305 265 304 
f 275 304 265 
f 406 42 45 
f 305 407 265 
f 408 265 407 
f 352 395 362 
f 331 397 409 
f 405 409 397 
f 351 352 362 
f 362 295 276 
f 361 362 276 
f 274 361 276 
f 275 361 274 
f 410 364 342 
f 286 342 364 
f 252 411 233 
f 247 233 411 
f 395 206 287 
f 412 206 395 
f 26 29 404 
f 22 404 29 
f 415 414 413 
f 45 413 414 
f 65 210 307 
f 31 32 131 
f 416 131 32 
f 26 230 28 
f 402 28 230 
f 417 379 70 
f 72 70 379 
f 278 89 76 
f 419 418 370 
f 420 370 418 
f 272 422 421 
f 423 421 422 
f 124 20 298 
f 299 298 20 
f 333 321 125 
f 10 46 87 
f 342 87 46 
f 263 275 265 
f 247 414 424 
f 415 424 414 
f 206 205 203 
f 106 205 206 
f 352 106 206 
f 412 352 206 
f 273 276 205 
f 425 271 387 
f 304 273 205 
f 360 427 426 
f 385 426 427 
f 76 111 75 
f 113 75 111 
f 304 275 273 
f 69 290 374 
f 11 360 426 
f 306 302 300 
f 330 328 428 
f 117 428 328 
f 430 429 257 
f 160 257 429 
f 59 335 212 
f 393 212 335 
f 58 391 129 
f 392 129 391 
f 290 69 292 
f 67 292 69 
f 132 230 26 
f 178 181 122 
f 121 122 181 
f 214 215 297 
f 433 432 431 
f 434 431 432 
f 435 345 217 
f 417 70 95 
f 73 95 70 
f 219 284 436 
f 151 436 284 
f 437 378 246 
f 155 246 378 
f 129 57 58 
f 90 438 411 
f 376 411 438 
f 216 219 32 
f 436 32 219 
f 225 376 438 
f 336 65 307 
f 405 439 238 
f 240 238 439 
f 316 318 75 
f 272 199 270 
f 202 270 199 
f 359 440 195 
f 194 195 440 
f 374 296 69 
f 277 211 65 
f 243 244 292 
f 268 87 342 
f 442 441 158 
f 135 158 441 
f 443 218 216 
f 224 323 144 
f 138 444 257 
f 430 257 444 
f 96 417 95 
f 136 444 138 
f 319 320 445 
f 41 445 320 
f 56 309 58 
f 37 58 309 
f 392 184 335 
f 393 335 184 
f 231 229 380 
f 234 380 229 
f 324 326 325 
f 438 325 326 
f 446 152 345 
f 158 135 160 
f 257 160 135 
f 402 24 447 
f 22 447 24 
f 167 400 253 
f 74 278 76 
f 416 102 101 
f 14 100 102 
f 409 238 363 
f 370 371 419 
f 382 419 371 
f 78 81 348 
f 448 348 81 
f 416 30 131 
f 142 131 30 
f 419 381 418 
f 420 418 381 
f 19 20 124 
f 341 339 449 
f 450 449 339 
f 423 200 421 
f 201 421 200 
f 327 451 269 
f 355 269 451 
f 354 452 415 
f 394 415 452 
f 71 233 225 
f 180 178 255 
f 453 255 178 
f 111 72 113 
f 88 113 72 
f 427 150 454 
f 399 454 150 
f 422 272 426 
f 11 426 272 
f 349 455 440 
f 312 440 455 
f 409 363 35 
f 344 398 343 
f 66 343 398 
f 186 124 298 
f 424 457 456 
f 280 456 457 
f 109 356 183 
f 184 40 38 
f 89 317 252 
f 316 252 317 
f 437 376 378 
f 190 414 247 
f 208 35 36 
f 20 388 299 
f 340 299 388 
f 51 49 293 
f 230 132 143 
f 178 122 293 
f 364 293 122 
f 458 224 142 
f 251 299 21 
f 341 21 299 
f 413 354 459 
f 415 459 354 
f 191 365 367 
f 51 293 364 
f 457 460 394 
f 415 394 460 
f 73 97 95 
f 422 385 461 
f 383 461 385 
f 78 346 450 
f 449 450 346 
f 450 462 78 
f 463 78 462 
f 63 464 279 
f 317 279 464 
f 164 327 244 
f 291 244 327 
f 441 465 135 
f 137 135 465 
f 204 262 145 
f 467 377 466 
f 177 466 377 
f 233 468 226 
f 176 226 468 
f 161 400 167 
f 212 115 213 
f 118 213 115 
f 46 294 180 
f 179 180 294 
f 431 441 433 
f 469 433 441 
f 470 466 177 
f 393 184 183 
f 345 420 381 
f 89 252 112 
f 292 67 338 
f 321 338 67 
f 446 345 381 
f 74 209 471 
f 278 471 209 
f 328 118 116 
f 91 195 223 
f 193 223 195 
f 406 9 7 
f 18 389 20 
f 388 20 389 
f 131 142 133 
f 132 133 142 
f 431 465 441 
f 472 159 157 
f 380 234 397 
f 236 397 234 
f 423 461 383 
f 26 404 236 
f 405 236 404 
f 405 397 236 
f 385 427 454 
f 155 192 246 
f 473 166 232 
f 172 417 96 
f 38 182 184 
f 452 353 451 
f 355 451 353 
f 189 365 191 
f 441 442 469 
f 158 469 442 
f 278 74 471 
f 290 123 165 
f 117 356 330 
f 108 330 356 
f 436 151 416 
f 102 416 151 
f 179 424 456 
f 71 326 73 
f 155 153 474 
f 9 474 153 
f 31 131 458 
f 134 458 131 
f 443 216 100 
f 32 100 216 
f 128 72 379 
f 103 264 105 
f 163 161 166 
f 451 327 394 
f 164 394 327 
f 421 201 272 
f 199 272 201 
f 37 35 319 
f 475 202 200 
f 352 412 395 
f 476 50 48 
f 108 356 109 
f 374 310 251 
f 33 31 458 
f 385 454 384 
f 477 384 454 
f 263 264 351 
f 472 478 432 
f 157 432 478 
f 173 127 130 
f 479 349 347 
f 75 113 411 
f 90 411 113 
f 275 263 351 
f 480 352 103 
f 249 254 282 
f 269 120 327 
f 184 39 40 
f 356 117 115 
f 177 377 225 
f 409 328 331 
f 106 352 480 
f 481 248 118 
f 420 345 435 
f 7 10 87 
f 289 288 318 
f 434 432 313 
f 157 313 432 
f 473 232 163 
f 181 163 232 
f 408 105 265 
f 105 408 482 
f 429 482 408 
f 79 93 92 
f 483 136 448 
f 137 448 136 
f 484 429 430 
f 306 209 302 
f 344 302 209 
f 482 429 484 
f 89 113 88 
f 187 126 186 
f 124 186 126 
f 137 465 431 
f 470 396 156 
f 188 165 167 
f 80 485 79 
f 93 79 485 
f 290 291 123 
f 112 113 89 
f 486 388 485 
f 390 485 388 
f 253 401 242 
f 244 242 401 
f 348 448 347 
f 434 347 448 
f 445 58 37 
f 459 415 413 
f 484 193 482 
f 196 482 193 
f 454 399 477 
f 487 477 399 
f 423 422 461 
f 278 211 277 
f 152 425 487 
f 477 487 425 
f 311 435 488 
f 217 488 435 
f 90 111 76 
f 150 427 360 
f 63 489 464 
f 317 464 489 
f 430 490 484 
f 223 484 490 
f 491 430 444 
f 153 8 9 
f 47 177 175 
f 491 490 430 
f 279 317 89 
f 136 491 444 
f 468 179 294 
f 87 268 86 
f 355 86 268 
f 380 330 231 
f 24 231 330 
f 248 350 207 
f 221 305 106 
f 221 407 305 
f 278 209 211 
f 408 407 221 
f 323 224 458 
f 222 408 221 
f 160 222 492 
f 313 492 222 
f 408 222 160 
f 477 387 202 
f 492 157 160 
f 426 385 422 
f 321 245 338 
f 360 14 102 
f 490 491 136 
f 483 490 136 
f 68 374 251 
f 381 271 446 
f 425 446 271 
f 438 71 225 
f 313 157 492 
f 382 371 435 
f 493 435 371 
f 328 116 117 
f 468 294 176 
f 30 100 32 
f 424 468 233 
f 93 485 390 
f 457 424 415 
f 392 41 39 
f 478 472 157 
f 179 456 181 
f 280 181 456 
f 235 143 144 
f 256 188 167 
f 383 386 494 
f 475 494 386 
f 207 37 248 
f 134 26 495 
f 236 495 26 
f 448 137 431 
f 81 483 448 
f 435 375 382 
f 408 160 429 
f 343 303 301 
f 34 314 36 
f 49 50 476 
f 159 469 158 
f 463 485 80 
f 134 495 458 
f 323 458 495 
f 320 38 41 
f 443 100 12 
f 14 12 100 
f 330 108 24 
f 340 462 450 
f 90 325 438 
f 372 370 420 
f 483 223 490 
f 367 406 45 
f 111 90 113 
f 326 71 438 
f 247 376 246 
f 437 246 376 
f 154 155 378 
f 30 33 458 
f 320 239 38 
f 367 9 406 
f 66 64 307 
f 420 435 493 
f 293 453 178 
f 66 303 343 
f 177 47 396 
f 403 22 25 
f 9 366 474 
f 192 474 366 
f 378 377 467 
f 481 208 248 
f 12 218 443 
f 255 453 293 
f 433 472 432 
f 469 472 433 
f 163 166 473 
f 241 94 325 
f 97 325 94 
f 46 410 342 
f 174 172 96 
f 496 65 63 
f 400 161 164 
f 467 466 470 
f 75 411 252 
f 93 449 346 
f 495 236 323 
f 344 209 74 
f 230 24 402 
f 72 128 88 
f 212 393 115 
f 297 251 214 
f 196 105 482 
f 30 416 101 
f 375 435 311 
f 177 396 470 
f 209 306 210 
f 173 129 127 
f 376 247 411 
f 223 193 484 
f 159 472 469 
f 32 436 416 
f 49 48 83 
f 359 91 358 
f 93 358 91 
f 462 388 486 
f 242 332 187 
f 126 187 332 
f 237 234 229 
f 102 150 360 
f 448 431 434 
f 183 25 109 
f 446 425 152 
f 247 424 233 
f 26 134 132 
f 335 282 128 
f 243 338 337 
f 220 104 105 
f 373 188 310 
f 345 283 284 
f 481 328 409 
f 474 192 155 
f 355 43 86 
f 479 347 434 
f 374 373 310 
f 122 286 364 
f 386 477 475 
f 202 475 477 
f 250 249 282 
f 292 338 243 
f 359 349 440 
f 497 195 91 
f 77 344 74 
f 470 156 378 
f 154 378 156 
f 316 75 252 
f 489 289 317 
f 379 417 172 
f 486 463 462 
f 296 374 68 
f 164 244 400 
f 66 398 288 
f 476 48 49 
f 481 409 35 
f 410 180 364 
f 120 286 122 
f 475 200 423 
f 196 313 222 
f 289 489 63 
f 269 286 120 
f 45 354 413 
f 81 223 483 
f 94 241 96 
f 18 21 389 
f 341 389 21 
f 208 481 35 
f 92 81 79 
f 498 422 272 
f 399 152 487 
f 499 200 475 
f 439 403 25 
f 496 277 65 
f 369 372 371 
f 493 371 372 
f 313 312 455 
f 393 183 357 
f 355 268 269 
f 266 269 268 
f 405 238 409 
f 354 353 452 
f 87 44 42 
f 381 419 382 
f 279 277 496 
f 217 311 488 
f 341 449 93 
f 313 455 479 
f 349 479 455 
f 479 434 313 
f 71 72 112 
f 39 184 392 
f 13 218 12 
f 330 428 117 
f 500 333 126 
f 125 126 333 
f 279 496 63 
f 386 384 477 
f 463 486 485 
f 78 463 80 
f 190 191 414 
f 367 414 191 
f 375 311 13 
f 129 173 249 
f 254 249 173 
f 250 59 57 
f 303 307 300 
f 90 241 325 
f 192 366 189 
f 106 480 103 
f 188 373 165 
f 91 359 497 
f 195 497 359 
f 319 445 37 
f 405 403 439 
f 66 307 303 
f 188 256 185 
f 372 420 493 
f 460 457 415 
f 250 335 334 
f 118 328 481 
f 440 312 194 
f 468 424 179 
f 439 25 240 
f 182 240 25 
f 367 45 414 
f 180 410 46 
f 7 87 406 
f 42 406 87 
f 128 379 130 
f 98 99 29 
f 447 29 99 
f 423 383 475 
f 494 475 383 
f 477 425 387 
f 43 354 45 
f 299 251 297 
f 200 499 475 
f 451 394 452 
f 402 447 99 
f 394 280 457 
f 29 447 22 
f 388 462 340 
f 368 277 279 
f 250 282 335 
f 498 272 422 
f 78 348 346 
f 340 450 339 
f 156 8 153 
f 332 333 500 
f 41 58 445 
f 378 467 470 
f 346 349 359 
f 333 245 321 
f 259 53 395 
f 9 367 366 
f 186 298 215 
f 142 30 458 
f 126 332 500 
f 82 51 255 
