#  wavefront obj file written by the visualization toolkit

mtllib leftsurrenalgland.mtl

v 225.22300720214844 243.82899475097656 133.70899963378906
v 225.20799255371094 243.21299743652344 132.1219940185547
v 232.40199279785156 263.02301025390625 129.0050048828125
v 232.7830047607422 263.31201171875 128.27699279785156
v 224.33700561523438 234.4010009765625 106.80999755859375
v 225.0709991455078 234.7030029296875 105.16300201416016
v 242.0399932861328 250.8730010986328 129.01600646972656
v 239.52200317382812 249.0780029296875 128.1790008544922
v 224.01400756835938 232.57400512695312 117.69400024414062
v 223.18699645996094 233.4770050048828 117.58100128173828
v 243.531005859375 247.9239959716797 126.58399963378906
v 243.80999755859375 249.89599609375 127.82499694824219
v 233.77499389648438 231.09800720214844 92.15370178222656
v 234.5449981689453 230.41600036621094 92.1343994140625
v 231.34300231933594 234.18699645996094 106.3499984741211
v 230.55999755859375 235.7270050048828 108.50900268554688
v 234.2969970703125 231 91.8218002319336
v 230.30099487304688 236.11599731445312 121.3499984741211
v 228.81300354003906 234.33900451660156 121.70700073242188
v 223.4040069580078 235.427001953125 107.7239990234375
v 232.22500610351562 244.24899291992188 113.61000061035156
v 233.60699462890625 245.1300048828125 115.71800231933594
v 222.94400024414062 233.66799926757812 115.20999908447266
v 243.04800415039062 235.91799926757812 97.46330261230469
v 242.7220001220703 235.34100341796875 96.8511962890625
v 224.11700439453125 238.88499450683594 109.947998046875
v 224.11000061035156 238.13400268554688 107.4000015258789
v 235.13299560546875 259.5610046386719 139.3719940185547
v 234.51400756835938 259.8940124511719 138.36099243164062
v 239.1529998779297 255.88299560546875 133.22500610351562
v 241.00399780273438 257.5350036621094 133.5279998779297
v 234.4010009765625 231.41200256347656 92.09880065917969
v 234.98599243164062 231.0919952392578 92.11100006103516
v 235.9720001220703 234.43600463867188 95.02909851074219
v 236.2530059814453 233.76300048828125 94.35160064697266
v 223.656005859375 233.49099731445312 120.83799743652344
v 223.8769989013672 232.95799255371094 119.34600067138672
v 242.2530059814453 253.89199829101562 125.26799774169922
v 242.25999450683594 255.68800354003906 126.54000091552734
v 228.16099548339844 251.6909942626953 118.81300354003906
v 228.75799560546875 251.66299438476562 117.10600280761719
v 241.18099975585938 244.68800354003906 114.19300079345703
v 242.55999755859375 244.7989959716797 115.37699890136719
v 234.8699951171875 229.16700744628906 93.80419921875
v 234.28399658203125 229.6699981689453 92.89340209960938
v 234.07400512695312 229.17100524902344 93.77100372314453
v 235.77499389648438 229.28500366210938 94.00830078125
v 235.1959991455078 229.72799682617188 92.96040344238281
v 235.98699951171875 229.80599975585938 93.27890014648438
v 237.50100708007812 250.3159942626953 122.3219985961914
v 238.3249969482422 252.09300231933594 124.31199645996094
v 230.58200073242188 258.60101318359375 124.2969970703125
v 231.05099487304688 259.6600036621094 124.72799682617188
v 232.82699584960938 230.19500732421875 93.02970123291016
v 232.33299255371094 229.92300415039062 93.67019653320312
v 244.218994140625 236.2550048828125 99.3395004272461
v 244.38099670410156 237.02099609375 100.26699829101562
v 228.8699951171875 250.91299438476562 116.177001953125
v 228.3769989013672 249.79400634765625 116.09700012207031
v 234.0989990234375 263.92498779296875 134.0489959716797
v 235.10000610351562 264.42999267578125 134.65699768066406
v 224.46200561523438 239.93699645996094 128.83700561523438
v 224.33799743652344 239.58999633789062 127.41899871826172
v 234.4320068359375 262.12298583984375 136.66400146484375
v 234.83099365234375 263.3330078125 135.96200561523438
v 243.3939971923828 234.16200256347656 98.25969696044922
v 243.26100158691406 233.64700317382812 98.99669647216797
v 233.62100219726562 230.26400756835938 92.50969696044922
v 233.35000610351562 229.58399963378906 93.44409942626953
v 228.447998046875 239.54299926757812 101.24600219726562
v 229.41200256347656 238.75 99.76470184326172
v 238.125 242.33200073242188 107.84500122070312
v 240.12100219726562 242.21800231933594 106.33100128173828
v 228.531005859375 249.29200744628906 129.92599487304688
v 228.89500427246094 248.947998046875 126.78500366210938
v 233.45399475097656 263.0050048828125 127.39900207519531
v 236.8679962158203 262.29400634765625 137.54100036621094
v 235.51800537109375 262.57000732421875 137.18099975585938
v 235.73300170898438 230.50900268554688 92.61689758300781
v 231.44400024414062 255.3350067138672 120.34400177001953
v 232.92100524902344 255.29600524902344 121.697998046875
v 232.41900634765625 262.9389953613281 130.5070037841797
v 233.0050048828125 263.9840087890625 130.9080047607422
v 236.76499938964844 230.34800720214844 93.22660064697266
v 237.375 229.98800659179688 94.1178970336914
v 236.6269989013672 229.61500549316406 94.10440063476562
v 238.87399291992188 243.8939971923828 111.74600219726562
v 240.2100067138672 244.26499938964844 112.5270004272461
v 238.04299926757812 263.1090087890625 137.4010009765625
v 231.53799438476562 230.39199829101562 93.70649719238281
v 232.1179962158203 230.61599731445312 93.14530181884766
v 231.3939971923828 231.21200561523438 93.18949890136719
v 232.35400390625 231.6219940185547 92.904296875
v 232.91799926757812 230.90499877929688 92.64929962158203
v 236.5 264.9729919433594 135.20599365234375
v 236.61500549316406 264.9469909667969 133.87100219726562
v 244.58900451660156 245.6739959716797 122.5199966430664
v 244.9040069580078 246.3990020751953 120.86399841308594
v 226.927001953125 232.6009979248047 120.30599975585938
v 224.89100646972656 232.79600524902344 120.95600128173828
v 228.0030059814453 244.63400268554688 110.53800201416016
v 228.1060028076172 243.11099243164062 108.69599914550781
v 224.177001953125 239.031005859375 112.87699890136719
v 223.6009979248047 237.81500244140625 111.44200134277344
v 232.67999267578125 248.2729949951172 132.60800170898438
v 231.2100067138672 245.28500366210938 130.60699462890625
v 236.05799865722656 231.6179962158203 92.70089721679688
v 236.63699340820312 231.08099365234375 92.83480072021484
v 237.87600708007812 230.68800354003906 93.70939636230469
v 237.52200317382812 231.2270050048828 93.12480163574219
v 238.32899475097656 254.08900451660156 132.43800354003906
v 237.37600708007812 254.74000549316406 134.0850067138672
v 243.43699645996094 234.3939971923828 101.4209976196289
v 243.23500061035156 233.5659942626953 100.23999786376953
v 227 234.58700561523438 102.56700134277344
v 225.67300415039062 235.23899841308594 103.16999816894531
v 235.70199584960938 238.8000030517578 114.76699829101562
v 233.42599487304688 237.64999389648438 115.31500244140625
v 232.67799377441406 257.28399658203125 140.66799926757812
v 232.06199645996094 257.5299987792969 140.58999633789062
v 230.66700744628906 231.83999633789062 93.34339904785156
v 230.27099609375 231.57400512695312 93.74210357666016
v 242.01300048828125 237.76499938964844 105.7490005493164
v 240.51499938964844 236.28500366210938 105.41500091552734
v 230.82400512695312 231.00900268554688 93.67350006103516
v 243.72300720214844 238.8000030517578 100.96199798583984
v 243.86700439453125 239.04600524902344 102.91899871826172
v 231.15699768066406 237.92599487304688 98.9447021484375
v 231.27000427246094 256.6510009765625 121.37999725341797
v 232.0030059814453 257.2430114746094 122.08899688720703
v 245.08999633789062 258.1669921875 129.05599975585938
v 245.21099853515625 257.67401123046875 130.3260040283203
v 232.4739990234375 258.72601318359375 123.43599700927734
v 231.4709930419922 232.24600219726562 93.1718978881836
v 235.04200744628906 264.7229919433594 132.5260009765625
v 226.5540008544922 234.33999633789062 125.34200286865234
v 226.52999877929688 235.44200134277344 126.91799926757812
v 233.35699462890625 231.77000427246094 92.66529846191406
v 227.14300537109375 246.093994140625 127.35299682617188
v 230.6790008544922 258.4179992675781 127.13200378417969
v 230.4810028076172 258.4830017089844 125.65799713134766
v 234.2030029296875 231.89700317382812 92.56159973144531
v 233.9530029296875 264.3999938964844 131.86000061035156
v 235.01100158691406 264.1319885253906 130.4770050048828
v 235.06100463867188 231.8560028076172 92.56710052490234
v 226.71299743652344 251.08599853515625 138.73399353027344
v 226.45799255371094 251.29100036621094 136.88400268554688
v 229.96400451660156 254.88999938964844 120.01300048828125
v 229.18299865722656 253.69900512695312 119.1719970703125
v 229.7209930419922 246.8000030517578 113.31600189208984
v 231.47900390625 246.22999572753906 114.60099792480469
v 235.59500122070312 260.6619873046875 138.5590057373047
v 236.21600341796875 253.58999633789062 123.75800323486328
v 237.61199951171875 254.44000244140625 125.33599853515625
v 229.13099670410156 253.24200439453125 124.55699920654297
v 228.52699279785156 253.1909942626953 122.63099670410156
v 230.27999877929688 256.156005859375 139.08999633789062
v 230.75999450683594 256.4590148925781 136.93699645996094
v 242.30099487304688 243.73899841308594 114.13500213623047
v 237.11900329589844 231.75 92.92539978027344
v 225.25100708007812 248.99000549316406 136.9969940185547
v 225.53700256347656 249.95599365234375 136.59100341796875
v 229.3070068359375 231.16000366210938 98.69190216064453
v 229.29400634765625 232.0330047607422 100.46099853515625
v 225.24600219726562 245.302001953125 132.12100219726562
v 234.97799682617188 256.68701171875 139.44500732421875
v 233.71400451660156 256.9729919433594 140.42100524902344
v 238.37899780273438 231.66700744628906 93.63670349121094
v 230.08399963378906 232.3520050048828 93.80229949951172
v 232.4080047607422 234.72900390625 108.20899963378906
v 242.92799377441406 239.73599243164062 106.54399871826172
v 242.22900390625 238.7760009765625 106.60399627685547
v 230.6790008544922 232.72300720214844 93.5801010131836
v 229.11399841308594 245.6490020751953 111.37899780273438
v 243.86199951171875 238.46600341796875 104.17500305175781
v 226.31199645996094 242.4759979248047 134.75599670410156
v 225.53599548339844 242.8350067138672 133.85400390625
v 228.73599243164062 253.7969970703125 120.80500030517578
v 240.48500061035156 240.0229949951172 111.06300354003906
v 239.94900512695312 240.34300231933594 112.76100158691406
v 226.22900390625 240.9340057373047 106.82499694824219
v 226.4250030517578 240.4080047607422 104.99299621582031
v 232.00999450683594 229.71299743652344 94.50779724121094
v 232.39199829101562 232.4810028076172 93.1686019897461
v 233.13600158691406 232.43899536132812 93.10330200195312
v 233.95399475097656 232.48800659179688 93.06659698486328
v 234.8419952392578 232.49899291992188 93.06729888916016
v 243.03700256347656 245.13499450683594 116.29900360107422
v 235.90699768066406 232.46299743652344 93.09290313720703
v 229.697998046875 251.11599731445312 126.96900177001953
v 243.59100341796875 235.01800537109375 98.18389892578125
v 227.0919952392578 243.71600341796875 135.13699340820312
v 228.8509979248047 243.76400756835938 133.218994140625
v 242.85400390625 248.1020050048828 120.7229995727539
v 243.5019989013672 247.30599975585938 119.47100067138672
v 236.9709930419922 232.41400146484375 93.14099884033203
v 224.718994140625 240.27999877929688 130.45599365234375
v 224.91299438476562 241.43299865722656 130.39300537109375
v 238.39100646972656 231.12600708007812 101.42900085449219
v 236.51800537109375 231.00900268554688 101.83699798583984
v 237.78599548339844 232.1320037841797 93.2656021118164
v 239.6649932861328 231.52099609375 101.34700012207031
v 241.19000244140625 242.57899475097656 119.61100006103516
v 239.00100708007812 241.69200134277344 119.48899841308594
v 235.30599975585938 251.31100463867188 121.37699890136719
v 228.6719970703125 231.45399475097656 97.06179809570312
v 228.16299438476562 232.31199645996094 96.98359680175781
v 233.2760009765625 263.4200134277344 133.0780029296875
v 230.95799255371094 258.1830139160156 123.21600341796875
v 225.31100463867188 246.11599731445312 136.27999877929688
v 225.3560028076172 247.26100158691406 137.052001953125
v 227.47799682617188 242.1909942626953 134.0489959716797
v 223.95700073242188 234.7259979248047 123.53199768066406
v 223.61300659179688 235.3800048828125 122.37300109863281
v 232.08999633789062 232.99899291992188 93.59919738769531
v 243.8070068359375 259.61199951171875 128.8489990234375
v 244.23500061035156 260.3399963378906 129.6820068359375
v 232.89599609375 233.031005859375 93.60690307617188
v 233.66400146484375 233.06199645996094 93.62920379638672
v 234.49099731445312 233.06399536132812 93.62699890136719
v 235.55799865722656 233.06500244140625 93.63009643554688
v 234.26400756835938 251.66299438476562 135.34800720214844
v 232.54600524902344 251.1060028076172 137.20899963378906
v 244.9029998779297 254.22500610351562 125.40299987792969
v 246.08900451660156 253.9010009765625 127.00800323486328
v 240.8979949951172 235.89599609375 96.6104965209961
v 241.92799377441406 235.92799377441406 96.76820373535156
v 237.18499755859375 262.9800109863281 131.01199340820312
v 239.54100036621094 261.9079895019531 130.89100646972656
v 236.71400451660156 233.09500122070312 93.67359924316406
v 237.54400634765625 232.89300537109375 93.6083984375
v 229.68099975585938 231.0760040283203 94.86319732666016
v 229.86700439453125 230.53599548339844 96.17179870605469
v 230.86199951171875 247.19700622558594 133.3699951171875
v 229.43099975585938 247.02000427246094 134.86000061035156
v 236.0850067138672 263.6470031738281 130.67599487304688
v 237.09100341796875 264.2340087890625 132.3780059814453
v 233.6479949951172 229.01100158691406 94.66459655761719
v 234.39700317382812 228.83799743652344 96.43589782714844
v 226.9340057373047 244.98399353027344 125.86799621582031
v 228.13699340820312 247.3070068359375 123.4469985961914
v 235.3719940185547 261.37701416015625 137.7899932861328
v 232.54600524902344 255.67799377441406 140.76199340820312
v 231.90199279785156 254.51199340820312 140.7469940185547
v 230.2519989013672 248.8769989013672 136.60899353027344
v 229.13699340820312 249.45399475097656 138.63499450683594
v 244.32400512695312 247.19900512695312 125.53399658203125
v 232.96600341796875 229.13999938964844 95.722900390625
v 238.18499755859375 259.59100341796875 136.49400329589844
v 237.3070068359375 258.00201416015625 137.36599731445312
v 226.6439971923828 240.17100524902344 133.4810028076172
v 225.94500732421875 240.67300415039062 133.60400390625
v 246.2729949951172 252.71499633789062 127.0009994506836
v 245.8699951171875 252.1790008544922 128.093994140625
v 232.79200744628906 229.38299560546875 94.33270263671875
v 230.83799743652344 257.1809997558594 138.37100219726562
v 223.78799438476562 236.41600036621094 124.03099822998047
v 244.0189971923828 245.41900634765625 117.37300109863281
v 243.75900268554688 244.30599975585938 116.75900268554688
v 223.53599548339844 234.23300170898438 108.21700286865234
v 223.3769989013672 233.61700439453125 109.47799682617188
v 243.3419952392578 254.75900268554688 132.0189971923828
v 242.32400512695312 256.5090026855469 132.74000549316406
v 234.64700317382812 228.81100463867188 95.00050354003906
v 227.23199462890625 250.63999938964844 133.7729949951172
v 228.96400451660156 252.5989990234375 134.8249969482422
v 235.65899658203125 228.906005859375 95.19120025634766
v 225.87399291992188 250.2239990234375 135.0659942626953
v 229.4980010986328 253.4459991455078 140.56700134277344
v 229.18899536132812 253.88499450683594 139.29800415039062
v 232.3300018310547 262.26800537109375 127.5
v 236.656005859375 229.22000122070312 95.3386001586914
v 225.98699951171875 250.68699645996094 135.97500610351562
v 233.88999938964844 260.0920104980469 136.947998046875
v 243.19400024414062 238.4080047607422 105.2959976196289
v 242.53199768066406 236.78799438476562 104.55899810791016
v 236.4040069580078 257.6239929199219 138.93600463867188
v 236.3470001220703 256.8219909667969 137.83799743652344
v 228.16700744628906 252.19000244140625 121.01200103759766
v 228.4770050048828 252.92100524902344 119.64600372314453
v 226.23199462890625 233.13299560546875 122.46499633789062
v 228.73699951171875 241.86399841308594 132.64500427246094
v 243.40499877929688 239.843994140625 104.78800201416016
v 243.06700134277344 240.85800170898438 106.37200164794922
v 231.06399536132812 230.26199340820312 94.51309967041016
v 230.7449951171875 230.0449981689453 95.73760223388672
v 231.73800659179688 229.59500122070312 95.61530303955078
v 240.5489959716797 237.91400146484375 107.08899688720703
v 239.89300537109375 238.76699829101562 109.26899719238281
v 244.11700439453125 258.625 128.2530059814453
v 230.9980010986328 236.3419952392578 112.56099700927734
v 230.13499450683594 236.36199951171875 110.7490005493164
v 233.58200073242188 252.45799255371094 120.79199981689453
v 229.0050048828125 254.6790008544922 122.44499969482422
v 229.6510009765625 255.91299438476562 122.45600128173828
v 230.08299255371094 256.0740051269531 121.05699920654297
v 231.36199951171875 233.01400756835938 93.6509017944336
v 235.29299926757812 237.0850067138672 98.14360046386719
v 234.01300048828125 235.906005859375 96.65670013427734
v 230.20899963378906 254.18499755859375 141.03799438476562
v 229.88999938964844 255.11099243164062 140.2469940185547
v 235.76600646972656 241.7550048828125 108.22000122070312
v 238.6199951171875 241.4199981689453 105.48100280761719
v 227.56900024414062 241.86300659179688 106.9489974975586
v 238.40699768066406 230.281005859375 94.84149932861328
v 244.0070037841797 256.47198486328125 132.5050048828125
v 244.07200622558594 257.8840026855469 132.61599731445312
v 231.99000549316406 249.26199340820312 135.2689971923828
v 236.16200256347656 229.8090057373047 99.63159942626953
v 243.52000427246094 245.25399780273438 123.94599914550781
v 234.25 243.13999938964844 113.9739990234375
v 244.23300170898438 252.37100219726562 124.21299743652344
v 243.8679962158203 250.53500366210938 123.2770004272461
v 230.32899475097656 230.50599670410156 94.94170379638672
v 244.85800170898438 259.1199951171875 130.427001953125
v 232.9250030517578 243.4739990234375 127.10299682617188
v 230.16400146484375 242.28199768066406 129.64199829101562
v 243.07699584960938 244.2779998779297 122.33699798583984
v 230.3179931640625 230.98699951171875 94.21279907226562
v 243.02200317382812 249.64500427246094 122.51399993896484
v 227.9409942626953 233.23500061035156 120.9209976196289
v 230.70599365234375 238.7100067138672 123.95099639892578
v 230.01300048828125 244.08700561523438 131.63999938964844
v 229.36500549316406 242.39100646972656 131.9320068359375
v 224.82699584960938 234.27699279785156 124.75199890136719
v 224.26100158691406 235.70700073242188 125.24299621582031
v 238.9029998779297 231.24200439453125 94.27459716796875
v 229.88400268554688 245.64500427246094 132.7519989013672
v 223.65199279785156 236.6750030517578 107.02899932861328
v 229.6719970703125 250.46400451660156 139.51699829101562
v 230.73500061035156 251.41900634765625 139.80799865722656
v 227.30299377441406 239.7899932861328 132.13800048828125
v 228.67999267578125 240.1320037841797 130.61900329589844
v 225.45700073242188 244.6490020751953 135.21099853515625
v 229.07200622558594 231.21600341796875 95.7947998046875
v 233.5850067138672 242.02099609375 109.23799896240234
v 234.78500366210938 242.4709930419922 111.65299987792969
v 229.1820068359375 231.7530059814453 94.8363037109375
v 229.76100158691406 231.73899841308594 94.21920013427734
v 228.58900451660156 251.89199829101562 140.46600341796875
v 228.91099548339844 250.947998046875 140.42599487304688
v 227.2469940185547 250.4429931640625 140.00999450683594
v 239.1790008544922 232.30499267578125 94.17549896240234
v 239.72799682617188 231.92100524902344 94.55719757080078
v 226.82200622558594 236.51100158691406 128.01300048828125
v 242.29600524902344 249.08099365234375 127.4469985961914
v 241.8249969482422 247.8040008544922 126.61000061035156
v 239.7010040283203 231.05799865722656 95.27230072021484
v 240.57000732421875 232.20799255371094 95.12889862060547
v 237.49200439453125 240.35899353027344 117.11499786376953
v 235.90699768066406 240.33099365234375 119.00800323486328
v 228.6510009765625 232.0279998779297 95.68840026855469
v 229.3679962158203 232.67799377441406 94.62580108642578
v 226.80799865722656 245.44000244140625 113.8489990234375
v 226.84100341796875 244.3350067138672 111.93599700927734
v 227.6009979248047 241.17799377441406 105.1500015258789
v 228.76699829101562 235.8209991455078 109.38200378417969
v 244.31199645996094 237.98699951171875 101.46099853515625
v 238.3040008544922 232.6790008544922 93.8302001953125
v 226.61000061035156 237.33700561523438 100.625
v 226.94000244140625 238.83200073242188 101.61100006103516
v 232.0590057373047 235.81900024414062 110.23899841308594
v 227.5970001220703 239.9720001220703 102.46199798583984
v 223.30099487304688 234.41700744628906 120.78700256347656
v 223.16400146484375 233.98599243164062 119.16600036621094
v 240.07899475097656 233.00799560546875 94.6709976196289
v 225.6020050048828 244.4149932861328 129.78900146484375
v 226.42599487304688 250.81199645996094 135.05599975585938
v 224.6199951171875 236.74099731445312 126.99299621582031
v 237.30599975585938 237.38299560546875 98.26319885253906
v 236.2949981689453 236.1959991455078 96.89089965820312
v 231.5760040283203 251.13299560546875 138.70399475097656
v 231.83900451660156 252.26600646972656 139.52000427246094
v 232.0780029296875 261.77099609375 129.71099853515625
v 229.31300354003906 230.8820037841797 97.25160217285156
v 230.25399780273438 233.28900146484375 94.19400024414062
v 245.68699645996094 252.91400146484375 125.427001953125
v 245.9149932861328 251.51400756835938 125.99199676513672
v 231.7830047607422 237.70399475097656 120.49299621582031
v 223.45799255371094 236.9969940185547 109.0999984741211
v 231.09500122070312 233.51600646972656 94.16560363769531
v 231.88900756835938 233.5780029296875 94.17479705810547
v 232.64500427246094 233.552001953125 94.14320373535156
v 233.33799743652344 233.51800537109375 94.10769653320312
v 234.08299255371094 233.84800720214844 94.43460083007812
v 235.1219940185547 233.72000122070312 94.31189727783203
v 236.4010009765625 253.3780059814453 134.39599609375
v 242.97300720214844 243.822998046875 115.31400299072266
v 244.34800720214844 246.75999450683594 119.42400360107422
v 244.7270050048828 245.8159942626953 119.37000274658203
v 237.55599975585938 233.66799926757812 94.36509704589844
v 241.20599365234375 262.1510009765625 130.88699340820312
v 242.57699584960938 260.7409973144531 129.63900756835938
v 232.14999389648438 238.88699340820312 100.8030014038086
v 233.2010040283203 239.96200561523438 103.13800048828125
v 228.72999572753906 253.16099548339844 137.3419952392578
v 231.30599975585938 260.4169921875 126.27300262451172
v 245.4029998779297 256.427001953125 128.57200622558594
v 245.4029998779297 256.0539855957031 130.10299682617188
v 225.7760009765625 237.9199981689453 102.5999984741211
v 236.61500549316406 263.4410095214844 137.10000610351562
v 237.33399963378906 264.7090148925781 136.44200134277344
v 231.47799682617188 255.60899353027344 141.51300048828125
v 244.07899475097656 235.3800048828125 101.70500183105469
v 229.81500244140625 255.843994140625 124.6259994506836
v 230.37600708007812 256.9630126953125 122.61000061035156
v 237.6999969482422 265.0450134277344 135.08099365234375
v 241.13999938964844 233.27099609375 95.33360290527344
v 232.92799377441406 258.4859924316406 136.7239990234375
v 232.22300720214844 257.1260070800781 135.16900634765625
v 240.19700622558594 259.4830017089844 129.16000366210938
v 242.17599487304688 232.70399475097656 100.6500015258789
v 242 233.82699584960938 102.29100036621094
v 237.5260009765625 261.27301025390625 129.625
v 237.82200622558594 259.4639892578125 128.13699340820312
v 224.04600524902344 237.30799865722656 125.9530029296875
v 239.04400634765625 235.50399780273438 96.13719940185547
v 239.95399475097656 236.03399658203125 96.67659759521484
v 232.33799743652344 229.38099670410156 97.1510009765625
v 229.57699584960938 233.93699645996094 95.15670013427734
v 228.46600341796875 233.1529998779297 96.11470031738281
v 227.3509979248047 233.7550048828125 123.38999938964844
v 242.5030059814453 262.3389892578125 130.8350067138672
v 225.35899353027344 248.24099731445312 137.66000366210938
v 225.43600463867188 249.23399353027344 138.07200622558594
v 230.7949981689453 234.1529998779297 94.79090118408203
v 231.82400512695312 234.30599975585938 94.90029907226562
v 232.46400451660156 234.04800415039062 94.62319946289062
v 233.21299743652344 234.0959930419922 94.67489624023438
v 223.9040069580078 235.61099243164062 106.0459976196289
v 225.79600524902344 241.6790008544922 134.02200317382812
v 235.11099243164062 234.8719940185547 95.48310089111328
v 227.6230010986328 246.81100463867188 120.91600036621094
v 227.47900390625 248.875 117.66200256347656
v 232.6529998779297 253.47500610351562 139.19700622558594
v 239.87600708007812 242.8509979248047 107.91600036621094
v 241.09100341796875 243.06900024414062 108.48400115966797
v 242.23599243164062 238.33799743652344 99.13510131835938
v 242.94200134277344 237.4499969482422 98.36009979248047
v 231.5189971923828 256.9179992675781 141.3179931640625
v 232.10400390625 256.6960144042969 141.3249969482422
v 243.80799865722656 237.36000061035156 99.04399871826172
v 240.45399475097656 243.39199829101562 121.96800231933594
v 225.3820037841797 241.5229949951172 133.03399658203125
v 245.11099243164062 247.447998046875 124.06999969482422
v 244.468994140625 246.4320068359375 124.28500366210938
v 232.61199951171875 258.0989990234375 139.61199951171875
v 238.1790008544922 234.60899353027344 95.27529907226562
v 238.8780059814453 233.39999389648438 94.45980072021484
v 239.51699829101562 234.27200317382812 95.10980224609375
v 227.94200134277344 247.572998046875 114.1780014038086
v 227.94200134277344 246.1999969482422 112.48500061035156
v 244.5449981689453 260.97100830078125 130.8560028076172
v 244.6479949951172 259.8219909667969 130.49400329589844
v 241.99600219726562 239.99400329589844 101.90399932861328
v 242.03500366210938 239.35000610351562 100.5739974975586
v 239.0399932861328 230.1020050048828 96.55750274658203
v 224.4929962158203 238.9250030517578 116.49500274658203
v 225.95599365234375 242.45399475097656 116.3280029296875
v 236.36700439453125 240.43600463867188 104.58000183105469
v 226.427001953125 241.82200622558594 108.65399932861328
v 233.72500610351562 256.99798583984375 123.45700073242188
v 243.88299560546875 262.21099853515625 131.1479949951172
v 239.70899963378906 245.25100708007812 116.24099731445312
v 241.0800018310547 246.34100341796875 118.30599975585938
v 230.26800537109375 234.9409942626953 95.66329956054688
v 231.28799438476562 235.26499938964844 95.89029693603516
v 228.76300048828125 252.70899963378906 118.177001953125
v 233.2209930419922 237.2310028076172 98.41649627685547
v 222.52099609375 234.1300048828125 111.78199768066406
v 222.55499267578125 234.6909942626953 113.73699951171875
v 242.73500061035156 240.53399658203125 108.0989990234375
v 241.67999267578125 239.32899475097656 108.00599670410156
v 232.77200317382812 234.55099487304688 95.14080047607422
v 233.66600036621094 234.82699584960938 95.4374008178711
v 229.51800537109375 242.75999450683594 107.80799865722656
v 230.69000244140625 241.87399291992188 106.44100189208984
v 231.94500732421875 260.489990234375 130.88600158691406
v 231.14199829101562 259.8370056152344 128.1929931640625
v 241.88999938964844 241.98199462890625 113.69599914550781
v 241.58200073242188 241.05099487304688 111.85099792480469
v 223.6649932861328 234.1199951171875 122.10700225830078
v 232.53399658203125 235.1529998779297 95.78520202636719
v 234.7550048828125 255.76199340820312 138.6219940185547
v 244.5260009765625 261.4100036621094 132.62100219726562
v 226.6699981689453 234.96499633789062 101.04900360107422
v 233.70899963378906 250.71299743652344 119.74099731445312
v 235.56300354003906 248.55799865722656 119.97699737548828
v 236.94400024414062 234.51800537109375 95.12100219726562
v 234.26800537109375 240.9010009765625 105.89399719238281
v 233.7209930419922 262.7569885253906 134.92300415039062
v 232.4080047607422 237.51600646972656 117.56300354003906
v 232.41400146484375 241.3509979248047 106.22200012207031
v 242.56100463867188 242.86099243164062 115.18699645996094
v 242.33399963378906 242.4810028076172 117.25700378417969
v 244.90199279785156 247.0850067138672 121.16699981689453
v 245.0540008544922 246.62399291992188 122.61000061035156
v 238.16600036621094 243.60000610351562 123.59600067138672
v 240.75999450683594 245.6959991455078 124.96399688720703
v 238.01300048828125 236.68299865722656 108.25800323486328
v 225.26699829101562 235.04400634765625 126.24800109863281
v 243.9770050048828 238 100.04100036621094
v 232.3509979248047 261.4930114746094 131.9669952392578
v 226.05099487304688 234.16600036621094 106.76799774169922
v 239.75399780273438 264.01300048828125 136.83799743652344
v 238.875 262.9540100097656 137.0189971923828
v 236.5749969482422 243.20599365234375 112.84400177001953
v 238.11900329589844 243.09800720214844 110.01899719238281
v 245.9530029296875 253.63800048828125 128.85499572753906
v 229.61300659179688 254.6649932861328 137.45399475097656
v 225.19700622558594 241.7259979248047 126.34500122070312
v 224.4510040283203 239.89100646972656 125.75
v 230.77200317382812 249.6929931640625 116.24800109863281
v 232.03700256347656 248.38299560546875 116.6520004272461
v 224.99600219726562 248.18899536132812 135.08799743652344
v 225.29400634765625 249.25399780273438 135.81199645996094
v 232.4199981689453 260.3059997558594 124.32499694824219
v 233.74200439453125 260.17401123046875 125.29000091552734
v 231.43299865722656 229.76100158691406 97.86370086669922
v 231.2949981689453 229.69500732421875 96.68779754638672
v 225.81300354003906 248.69700622558594 133.41799926757812
v 226.4040069580078 250.13600158691406 133.92999267578125
v 240.29100036621094 254.25599670410156 126.24600219726562
v 240.92100524902344 237.70199584960938 98.40409851074219
v 241.95700073242188 237.31300354003906 97.99720001220703
v 226.03599548339844 243.60899353027344 135.093994140625
v 228.61000061035156 233.2480010986328 101.5199966430664
v 228.14500427246094 234.39100646972656 103.72000122070312
v 224.8520050048828 233.53599548339844 108.3759994506836
v 237.7899932861328 260.5769958496094 137.39700317382812
v 244.85499572753906 256.90399169921875 131.60400390625
v 244.73899841308594 255.43600463867188 131.3719940185547
v 243.11900329589844 246.6840057373047 118.52200317382812
v 229.3730010986328 255.18299865722656 121.05400085449219
v 232.15499877929688 236.23199462890625 96.97630310058594
v 229.28399658203125 235.13299560546875 106.45099639892578
v 228.875 241.7480010986328 105.70800018310547
v 226.43499755859375 240.9980010986328 134.11700439453125
v 243.53700256347656 236.56700134277344 98.21289825439453
v 236.4929962158203 229.07400512695312 96.8292007446289
v 237.66099548339844 229.63800048828125 95.3125
v 237.7570037841797 229.4499969482422 96.86940002441406
v 244.6529998779297 254.44400024414062 131.0290069580078
v 238.8280029296875 264.90899658203125 136.1199951171875
v 238.6020050048828 264.7049865722656 133.86399841308594
v 228.656005859375 239.08900451660156 129.1300048828125
v 245.48199462890625 249.68699645996094 125.56300354003906
v 244.74899291992188 248.6580047607422 126.4489974975586
v 228.3070068359375 245.02499389648438 134.39999389648438
v 230.56300354003906 230.07899475097656 97.24299621582031
v 239.16200256347656 238.96499633789062 100.52300262451172
v 239.7729949951172 238.2570037841797 99.22339630126953
v 223.8300018310547 237.19700622558594 122.0270004272461
v 232.56500244140625 258.0899963378906 132.51699829101562
v 231.55799865722656 258.1650085449219 129.58700561523438
v 229.97500610351562 252.89700317382812 117.8550033569336
v 230.7760009765625 255.76100158691406 127.73799896240234
v 230.20799255371094 256.7919921875 126.12799835205078
v 243.27499389648438 251.79800415039062 129.56900024414062
v 242.58999633789062 241.35499572753906 109.73200225830078
v 242.2220001220703 242.7949981689453 112.9209976196289
v 232.86099243164062 261.7950134277344 133.62399291992188
v 242.92100524902344 258.6029968261719 133.53500366210938
v 229.60299682617188 236.82400512695312 97.69059753417969
v 229.6580047607422 235.72799682617188 96.64459991455078
v 231.7760009765625 236.6649932861328 114.89199829101562
v 223.5050048828125 232.82899475097656 115.98300170898438
v 234.28700256347656 238.3520050048828 100.16799926757812
v 239.31300354003906 251.36199951171875 130.07200622558594
v 233.29600524902344 261.9540100097656 126.48699951171875
v 234.43600463867188 262.22100830078125 127.19100189208984
v 245.17799377441406 250.96400451660156 124.56099700927734
v 226.44000244140625 244.82699584960938 135.93499755859375
v 240.1699981689453 253.1790008544922 130.9239959716797
v 240.30099487304688 230.8820037841797 96.68260192871094
v 223.97999572753906 238.40499877929688 125.36100006103516
v 244.4550018310547 235.97000122070312 100.88800048828125
v 225.13900756835938 242.7519989013672 130.3470001220703
v 240.66900634765625 263.85101318359375 136.3070068359375
v 241.79200744628906 234.93299865722656 96.22100067138672
v 244.718994140625 258.4849853515625 131.73300170898438
v 224.62600708007812 240.77000427246094 128.1439971923828
v 225.1219940185547 242.2689971923828 128.46299743652344
v 230.7259979248047 245.18099975585938 112.30799865722656
v 228.052001953125 233.0760040283203 99.77529907226562
v 232.99899291992188 242.81100463867188 111.822998046875
v 227.8489990234375 233.59100341796875 98.08589935302734
v 228.4499969482422 234.46499633789062 96.79119873046875
v 225.56399536132812 249.39500427246094 134.61099243164062
v 235.29800415039062 256.34100341796875 124.69400024414062
v 225.60899353027344 243.35699462890625 127.86399841308594
v 226.52999877929688 243.59500122070312 123.32099914550781
v 236.47799682617188 259.7590026855469 139.0189971923828
v 240.9080047607422 231.6790008544922 96.10679626464844
v 227.7209930419922 249.5800018310547 120.03199768066406
v 240.6529998779297 231.28700256347656 99.85769653320312
v 240.83999633789062 232.1929931640625 101.5009994506836
v 240.92599487304688 240.73599243164062 103.43099975585938
v 242.5709991455078 241.0469970703125 104.84200286865234
v 224.66700744628906 239.46499633789062 108.09600067138672
v 227.1269989013672 246.08599853515625 118.47599792480469
v 226.85400390625 245.63099670410156 115.8489990234375
v 244.50399780273438 245.0449981689453 120.77100372314453
v 242.26300048828125 242.48899841308594 108.06099700927734
v 242.46099853515625 242.3350067138672 109.5780029296875
v 243.86599731445312 243.8769989013672 117.81700134277344
v 243.14599609375 243.23699951171875 118.4800033569336
v 239.93899536132812 263.0469970703125 132.22900390625
v 240.94400024414062 263.6300048828125 133.625
v 233.96099853515625 233.9429931640625 107.39099884033203
v 230.99000549316406 240.5070037841797 103.44000244140625
v 231.1179962158203 235.74600219726562 116.99500274658203
v 230.11099243164062 235.51199340820312 114.09100341796875
v 241.3300018310547 261.9419860839844 135.96499633789062
v 241.29200744628906 263.3529968261719 135.8179931640625
v 241.58799743652344 232.71499633789062 96.06670379638672
v 244.26699829101562 245.91700744628906 118.197998046875
v 244.43600463867188 244.99200439453125 118.13800048828125
v 226.95899963378906 248.83299255371094 131.86500549316406
v 242.7429962158203 243.6699981689453 120.8010025024414
v 242.57000732421875 241.80299377441406 106.44300079345703
v 242.88800048828125 241.61300659179688 107.96800231933594
v 242.6009979248047 233.3699951171875 97.32679748535156
v 237.8350067138672 230.02200317382812 99.75039672851562
v 238.65899658203125 263.510009765625 132.4759979248047
v 231.8800048828125 261.2650146484375 126.25700378417969
v 231.73699951171875 260.47900390625 124.82099914550781
v 225.17599487304688 240.42100524902344 132.03199768066406
v 236.1219940185547 255.39199829101562 136.44000244140625
v 231.27499389648438 240.90199279785156 126.2249984741211
v 229.48800659179688 240.42999267578125 129.1199951171875
v 235.52000427246094 229.1510009765625 98.01640319824219
v 241.25399780273438 234.2010040283203 95.65290069580078
v 241.97300720214844 233.7570037841797 96.12560272216797
v 242.83999633789062 234.41299438476562 96.94439697265625
v 225.77000427246094 247.05799865722656 131.8509979248047
v 230.7100067138672 250.44500732421875 138.61399841308594
v 229.38499450683594 252.29100036621094 117.18000030517578
v 229.64199829101562 251.13099670410156 116.43499755859375
v 235.46800231933594 228.79600524902344 96.48259735107422
v 227.81500244140625 246.28399658203125 136.11300659179688
v 226.21299743652344 246.18699645996094 136.9810028076172
v 230.03599548339844 252.58200073242188 140.83999633789062
v 226.99099731445312 243.2899932861328 110.06099700927734
v 230.91700744628906 251.26600646972656 117.28099822998047
v 225.0659942626953 245.46800231933594 134.4969940185547
v 225.03700256347656 246.9320068359375 133.77699279785156
v 240.32200622558594 262.7829895019531 136.5780029296875
v 226.0989990234375 249.77499389648438 138.9250030517578
v 230.83599853515625 259.7120056152344 126.06600189208984
v 233.16799926757812 249.63999938964844 118.5459976196289
v 224.3419952392578 238.73300170898438 121.26100158691406
v 242.58799743652344 262.3370056152344 135.28199768066406
v 224.2519989013672 238.35400390625 127.34500122070312
v 237.21800231933594 235.40899658203125 96.02169799804688
v 241.98199462890625 242.93800354003906 111.0459976196289
v 241.77499389648438 243.02699279785156 109.4990005493164
v 242.10299682617188 259.27899169921875 134.34100341796875
v 242.4239959716797 236.62899780273438 97.51300048828125
v 243.8470001220703 253.1959991455078 130.63900756835938
v 243.14599609375 239.5469970703125 101.74700164794922
v 229.2899932861328 251.26400756835938 131.69400024414062
v 231.50100708007812 254.31300354003906 132.48800659179688
v 240.468994140625 239.63999938964844 101.21199798583984
v 234.0050048828125 264.1210021972656 129.7209930419922
v 222.83399963378906 233.4219970703125 112.72699737548828
v 223.5189971923828 232.66000366210938 111.9219970703125
v 243.10899353027344 243.18800354003906 116.48400115966797
v 240.3820037841797 235 95.8324966430664
v 240.55999755859375 233.93499755859375 95.13670349121094
v 225.28799438476562 232.35400390625 112.02999877929688
v 225.54400634765625 232.20399475097656 114.49500274658203
v 231.25100708007812 243.44500732421875 110.40799713134766
v 235.4739990234375 251.01400756835938 132.66200256347656
v 227.61399841308594 234.84500122070312 107.31999969482422
v 226.50799560546875 233.90199279785156 108.56099700927734
v 228.31399536132812 248.7169952392578 115.47200012207031
v 233.48599243164062 258.760009765625 138.4290008544922
v 240.6219940185547 243.90499877929688 111.43499755859375
v 225.42100524902344 239.07699584960938 104.73300170898438
v 225.42599487304688 239.99000549316406 106.56600189208984
v 229.36300659179688 237.26699829101562 124.87699890136719
v 232.06700134277344 230.73599243164062 100.45099639892578
v 230.89599609375 231.927001953125 101.96099853515625
v 228.281005859375 237.56500244140625 127.71800231933594
v 239.14199829101562 257.9909973144531 134.78900146484375
v 230.4199981689453 236.02999877929688 96.72000122070312
v 222.6929931640625 234.0970001220703 110.52400207519531
v 237.9720001220703 238.70399475097656 111.53700256347656
v 240.8280029296875 250.05099487304688 122.88300323486328
v 235.29200744628906 236.7530059814453 111.53500366210938
v 232.64199829101562 262.7430114746094 132.16099548339844
v 228.843994140625 235.57400512695312 111.96099853515625
v 228.22300720214844 234.10000610351562 113.24199676513672
v 239.2480010986328 261.60198974609375 136.19700622558594
v 227.7989959716797 232.9250030517578 115.0790023803711
v 227.1490020751953 251.52499389648438 135.86500549316406
v 231.0070037841797 254.0709991455078 141.18800354003906
v 234.4980010986328 231.57000732421875 103.08300018310547
v 234.25399780273438 230.48599243164062 100.78199768066406
v 241.39199829101562 254.55099487304688 131.95899963378906
v 237.86199951171875 262.0979919433594 136.97999572753906
v 226.77699279785156 249.01199340820312 139.34300231933594
v 225.78900146484375 248.33599853515625 138.64100646972656
v 226.55799865722656 243.5 118.79100036621094
v 224.36599731445312 232.30799865722656 112.88400268554688
v 232.43600463867188 258.302001953125 138.11199951171875
v 244.98199462890625 255.41000366210938 126.71399688720703
v 245.7760009765625 254.9709930419922 128.68800354003906
v 225.4429931640625 236.03500366210938 127.47699737548828
v 224.94700622558594 237.0070037841797 127.99299621582031
v 224.73599243164062 238.6739959716797 105.9739990234375
v 229.37399291992188 255.25599670410156 123.822998046875
v 224.7989959716797 239.1490020751953 129.7169952392578
v 225.47999572753906 238.18600463867188 129.83999633789062
v 245.4320068359375 254.77200317382812 130.14300537109375
v 241.08599853515625 231.3679962158203 97.78289794921875
v 241.74099731445312 244.64599609375 123.69400024414062
v 245.53199768066406 250.44400024414062 127.00199890136719
v 244.68099975585938 251.66099548339844 128.98899841308594
v 223.44500732421875 237.31300354003906 114.19499969482422
v 244.53900146484375 257.1000061035156 127.39099884033203
v 243.16299438476562 257.7049865722656 127.57499694824219
v 242.1739959716797 263.3689880371094 134.05499267578125
v 243.375 262.63299560546875 133.78500366210938
v 225.28900146484375 237.61099243164062 129.01400756835938
v 224.91799926757812 238.25 129.2169952392578
v 228.98899841308594 241.05099487304688 131.29100036621094
v 236.88099670410156 257.6059875488281 126.50299835205078
v 222.93899536132812 235.00599670410156 109.61100006103516
v 225.39999389648438 240.8560028076172 121.5780029296875
v 244.1439971923828 235.2030029296875 99.97470092773438
v 225.88900756835938 250.4810028076172 137.6179962158203
v 241.3509979248047 241.80099487304688 115.98200225830078
v 239.58599853515625 240.75999450683594 115.54100036621094
v 228.57400512695312 250.6269989013672 123.74700164794922
v 236.7429962158203 250.43800354003906 130.64500427246094
v 235.6510009765625 246.73800659179688 128.11900329589844
v 244.30999755859375 244.47999572753906 119.33100128173828
v 226.84300231933594 248.08700561523438 138.64599609375
v 237.04800415039062 245.0240020751953 116.62000274658203
v 238.01300048828125 246.36099243164062 118.78199768066406
v 225.3459930419922 240.60899353027344 108.61799621582031
v 230.8419952392578 236.7830047607422 97.4916000366211
v 237.21400451660156 258.8970031738281 138.42100524902344
v 231.18499755859375 257.1619873046875 140.09800720214844
v 241.89100646972656 232.26499938964844 97.33180236816406
v 232.8679962158203 263.8059997558594 129.27099609375
v 232.13600158691406 253.8419952392578 120.24800109863281
v 242.41600036621094 260.8030090332031 135.0489959716797
v 243.80799865722656 261.5780029296875 134.302001953125
v 239.55599975585938 256.83599853515625 127.7040023803711
v 222.81900024414062 234.8179931640625 116.63200378417969
v 222.78399658203125 235.67999267578125 113.98300170898438
v 225.66900634765625 233.57400512695312 124.16999816894531
v 225.8820037841797 236.18699645996094 101.6259994506836
v 243.36199951171875 260.1159973144531 134.2469940185547
v 244.625 260.18499755859375 132.125
v 238.01800537109375 239.87600708007812 114.15299987792969
v 243.55299377441406 260.33099365234375 129.3820037841797
v 233.36000061035156 254.54200744628906 138.98800659179688
v 244.56300354003906 259.3970031738281 129.28700256347656
v 231.1439971923828 250.0970001220703 137.71200561523438
v 241.79400634765625 243.43800354003906 112.31099700927734
v 225.822998046875 245.7989959716797 130.26100158691406
v 236.3000030517578 238.2239990234375 99.74909973144531
v 241.7270050048828 245.6020050048828 116.48799896240234
v 244.21800231933594 236.29200744628906 102.55699920654297
v 243.6959991455078 237.08599853515625 103.98999786376953
v 224.9770050048828 247.21400451660156 135.74899291992188
v 238.13400268554688 264.2130126953125 137.31900024414062
v 230.01699829101562 230.5290069580078 98.13629913330078
v 231.04299926757812 230.2220001220703 98.81549835205078
v 229.4709930419922 249.8470001220703 115.48799896240234
v 230.18899536132812 248.22500610351562 115.0979995727539
v 241.21499633789062 263.15301513671875 132.15699768066406
v 242.7530059814453 263.114990234375 132.26800537109375
v 223.5330047607422 232.66299438476562 113.80400085449219
v 239.88499450683594 230.4810028076172 98.19229888916016
v 239.16900634765625 230.41799926757812 99.7332992553711
v 238.58299255371094 229.80799865722656 98.28890228271484
v 227.71299743652344 240.9290008544922 133.22300720214844
v 240.7480010986328 248.32899475097656 121.12200164794922
v 244.552001953125 236.9239959716797 101.6510009765625
v 227.10699462890625 249.93800354003906 132.97500610351562
v 225.7740020751953 233 110.16000366210938
v 235.58900451660156 262.8590087890625 129.17999267578125
v 223.38600158691406 235.87399291992188 120.38999938964844
v 223.66700744628906 237.26300048828125 117.76899719238281
v 227.47300720214844 247.41700744628906 137.61900329589844
v 243.74200439453125 261.4020080566406 130.01600646972656
v 240.81500244140625 241.1020050048828 113.9520034790039
v 228.34800720214844 232.0540008544922 98.4198989868164
v 233.08200073242188 259.1659851074219 134.8249969482422
v 232.61599731445312 260.4519958496094 133.23500061035156
v 227.9199981689453 248.78399658203125 138.72799682617188
v 237.70199584960938 252.76600646972656 131.85800170898438
v 224.61900329589844 237.92100524902344 128.32000732421875
v 226.48500061035156 237.3820037841797 129.15199279785156
v 234.93099975585938 254.20399475097656 122.98100280761719
v 225.89100646972656 242.0850067138672 110.9010009765625
v 227.67599487304688 237.14500427246094 99.1238021850586
v 228.8679962158203 237.79400634765625 98.7863998413086
v 240.55599975585938 259.9020080566406 135.24000549316406
v 228.6580047607422 250.3260040283203 131.40499877929688
v 229.9709930419922 237.84500122070312 98.63469696044922
v 233.5279998779297 239.01699829101562 119.29900360107422
v 232.52000427246094 239.8509979248047 122.68699645996094
v 238.62399291992188 240.0919952392578 102.80599975585938
v 244.052001953125 247.85699462890625 120.51599884033203
v 244.51499938964844 248.21499633789062 121.56700134277344
v 234.3040008544922 239.04600524902344 117.62200164794922
v 240.1699981689453 255.6179962158203 132.46600341796875
v 243.20799255371094 235.6009979248047 103.0739974975586
v 241.6020050048828 235.1750030517578 103.5770034790039
v 227.38699340820312 237.8090057373047 129.43800354003906
v 241.44500732421875 243.95899963378906 112.87699890136719
v 231.1269989013672 253.24200439453125 129.26800537109375
v 229.73699951171875 239.28900146484375 126.71199798583984
v 242.52000427246094 252.87899780273438 130.6060028076172
v 229.56900024414062 244.2429962158203 109.91000366210938
v 222.57000732421875 235.03799438476562 111.68399810791016
v 239.1529998779297 247.6300048828125 120.18800354003906
v 228.79200744628906 235.7429962158203 97.23269653320312
v 230.83099365234375 255.14300537109375 135.28199768066406
v 226.79299926757812 236.0030059814453 99.88829803466797
v 227.79100036621094 235.6490020751953 98.38300323486328
v 236.53399658203125 258.4309997558594 139.28700256347656
v 230.91000366210938 253.66799926757812 118.95099639892578
v 231.58900451660156 257.6809997558594 137.33700561523438
v 228.5489959716797 236.7689971923828 98.10209655761719
v 231.61500549316406 260.95001220703125 128.25900268554688
v 235.85299682617188 233.44400024414062 106.01899719238281
v 227.31900024414062 247.56199645996094 116.2509994506836
v 231.8040008544922 251.947998046875 118.63700103759766
v 243.4669952392578 248.84800720214844 121.61199951171875
v 233.53599548339844 232.7689971923828 105.19499969482422
v 243.75599670410156 234.3509979248047 99.81109619140625
v 232.1479949951172 252.65199279785156 119.5510025024414
v 238.81300354003906 264.03399658203125 137.375
v 233.33900451660156 255.4340057373047 139.83700561523438
v 232.6439971923828 254.55799865722656 139.83999633789062
v 226.64599609375 232.23300170898438 117.47899627685547
v 224.98599243164062 232.1490020751953 117.21600341796875
v 229.29400634765625 234.87100219726562 96.09220123291016
v 237.65699768066406 256.6440124511719 135.38900756835938
v 243.04600524902344 246.22900390625 125.29399871826172
v 242.38999938964844 248.8719940185547 121.73600006103516
v 238.69200134277344 236.6269989013672 97.27739715576172
v 241.52099609375 242.4219970703125 106.822998046875
v 240.3040008544922 236.85699462890625 97.51580047607422
v 241.32899475097656 236.70399475097656 97.37870025634766
v 227.94400024414062 249.7729949951172 139.8990020751953
v 244.20399475097656 259.3970031738281 132.92599487304688
v 228.375 233.0449981689453 117.94100189208984
v 227.24200439453125 251.7969970703125 138.00100708007812
v 227.76499938964844 251.74200439453125 139.60800170898438
v 243.88400268554688 235.7259979248047 98.50650024414062
v 232.6840057373047 231.68099975585938 102.66300201416016
v 224.25900268554688 232.75599670410156 110.54199981689453
v 231.38999938964844 232.91000366210938 104.25599670410156
v 240.50599670410156 233.20199584960938 102.677001953125
v 245.0449981689453 249.19900512695312 123.7969970703125
v 227.96099853515625 238.38099670410156 100.0009994506836
v 234.2480010986328 261.156005859375 126.3489990234375
v 234.39700317382812 258.61700439453125 125.08100128173828
v 235.7270050048828 259.9360046386719 126.93399810791016
v 235.16900634765625 261.1789855957031 127.34300231933594
v 236.58799743652344 260.77398681640625 128.4219970703125
v 238.16700744628906 238.3040008544922 99.58619689941406
v 231.46200561523438 259.4460144042969 123.72699737548828
v 243.33399963378906 238.32899475097656 99.47489929199219
v 229.75999450683594 233.45599365234375 103.46099853515625
v 227.91200256347656 252.322998046875 138.3090057373047
v 228.7220001220703 252.82000732421875 139.4040069580078
v 239.927001953125 264.7099914550781 135.1840057373047
v 227.2480010986328 234.28199768066406 110.3740005493164
v 239.80999755859375 243.531005859375 109.7959976196289
v 234.76600646972656 247.00999450683594 118.05599975585938
v 242.04100036621094 247.2100067138672 119.45099639892578
v 229.50100708007812 234.1699981689453 118.77200317382812
v 245.18800354003906 253.53700256347656 130.05799865722656
v 228.0469970703125 250.4739990234375 117.4000015258789
v 244.66900634765625 259.4339904785156 131.5959930419922
v 235.28399658203125 239.4340057373047 102.33599853515625
v 230.10899353027344 257.3760070800781 124.52799987792969
v 234.61599731445312 241.09300231933594 122.30999755859375
v 232.1230010986328 242.3070068359375 108.91100311279297
v 237.2050018310547 229.43099975585938 98.31809997558594
v 224.2010040283203 232.3560028076172 115.57599639892578
v 239.29299926757812 237.6479949951172 98.43180084228516
v 223.00900268554688 236.26300048828125 111.43599700927734
v 239.94500732421875 264.1340026855469 133.33799743652344
v 225.125 241.75 131.7270050048828
v 242.23500061035156 242.03900146484375 111.427001953125
v 225.4709930419922 239.33200073242188 131.23599243164062
v 234.55999755859375 262.9200134277344 127.99800109863281
v 233.7429962158203 229.18499755859375 97.7311019897461
v 232.7169952392578 229.80599975585938 98.9469985961914
v 234.48800659179688 229.5919952392578 99.12020111083984
v 224.16799926757812 237.1540069580078 105.59600067138672
v 233.4770050048828 253.24000549316406 137.92100524902344
v 240.7969970703125 238.7010040283203 99.64240264892578
v 222.97900390625 235.2760009765625 118.39099884033203
v 229.63800048828125 234.2469940185547 115.50199890136719
v 235.52499389648438 261.8760070800781 128.31100463867188
v 232.42599487304688 252.20799255371094 138.5749969482422
v 228.62899780273438 248.24099731445312 137.45799255371094
v 232.77699279785156 261.0329895019531 125.6259994506836
v 225.66900634765625 236.80299377441406 128.4250030517578
v 230.19400024414062 251.2570037841797 128.90199279785156
v 236.48199462890625 242.5030059814453 110.26499938964844
v 230.4459991455078 230.93699645996094 99.83380126953125
v 228.44200134277344 235.16099548339844 123.89600372314453
v 224.4980010986328 238.88800048828125 128.54400634765625
v 243.24899291992188 252.97000122070312 124.3479995727539
v 242.60499572753906 251.12600708007812 123.33599853515625
v 227.92799377441406 252.3000030517578 136.822998046875
v 239.23699951171875 232.5279998779297 102.7490005493164
v 243.71499633789062 254.94400024414062 125.45999908447266
v 233.38999938964844 261.1449890136719 135.2310028076172
v 242.8470001220703 259.3970031738281 128.8699951171875
v 227.3470001220703 234.61199951171875 99.61710357666016
v 235.48399353027344 243.4739990234375 125.36399841308594
v 224.4720001220703 235.93699645996094 104.5719985961914
v 241.8520050048828 231.99400329589844 98.98210144042969
v 226.44700622558594 239.5780029296875 103.37200164794922
v 226 240.06500244140625 132.73399353027344
v 244.05099487304688 249.2239990234375 122.3030014038086
v 245.093994140625 247.89999389648438 122.60099792480469
v 242.61599731445312 232.843994140625 98.84300231933594
v 234.6529998779297 258.3630065917969 140.17999267578125
v 242.90899658203125 240.16799926757812 103.28600311279297
v 223.06199645996094 233.25100708007812 110.93000030517578
v 234.83299255371094 263.5199890136719 128.82899475097656
v 236.7550048828125 261.1510009765625 138.0050048828125
v 241.4709930419922 258.1669921875 128.50599670410156
v 223.0050048828125 236.01499938964844 116.19300079345703
v 230.00399780273438 253.52499389648438 126.63099670410156
v 225.2570037841797 232.23899841308594 119.21299743652344
v 227.5 239.06900024414062 130.89300537109375
v 226.51499938964844 239.28599548339844 131.93800354003906
v 228 240.37899780273438 132.18499755859375
v 226.04100036621094 247.29400634765625 137.89500427246094
v 240.7899932861328 264.1549987792969 134.87600708007812
v 237.73500061035156 232.77099609375 103.85399627685547
v 238.10400390625 234.78799438476562 105.97100067138672
v 235.92799377441406 264.2149963378906 136.0540008544922
v 242.9290008544922 258.5989990234375 128.17300415039062
v 233.7209930419922 247.66600036621094 130.35699462890625
v 232.11500549316406 255.48599243164062 130.3939971923828
v 243.02099609375 239.0679931640625 100.36799621582031
v 239.81700134277344 234.28199768066406 104.05599975585938
v 226.67799377441406 234.5800018310547 104.75900268554688
v 238.60699462890625 244.35000610351562 114.05000305175781
v 226.1199951171875 243.23599243164062 113.38500213623047
v 241.27000427246094 241.74400329589844 105.35099792480469
v 244.2740020751953 260.4750061035156 133.53799438476562
v 238.4709930419922 246.24000549316406 125.89199829101562
v 224.30599975585938 233.56100463867188 122.6709976196289
v 236.48800659179688 262.1659851074219 129.57200622558594
v 230.5749969482422 255.19000244140625 141.3470001220703
v 230.18600463867188 239.49600219726562 101.11199951171875
v 237.33200073242188 239.2010040283203 101.54900360107422
v 227.07899475097656 247.14999389648438 129.3560028076172
v 241.11599731445312 243.4669952392578 110.33300018310547
v 236.1580047607422 243.8560028076172 115.1729965209961
v 241.79299926757812 240.28199768066406 109.77100372314453
v 228.0189971923828 235.99400329589844 126.28399658203125
v 225.1719970703125 240.68099975585938 113.68099975585938
v 240.94000244140625 251.78500366210938 124.23699951171875
v 233.6790008544922 263.7030029296875 128.33900451660156
v 230.79299926757812 256.2279968261719 141.09100341796875
v 242.84300231933594 246.0590057373047 117.44300079345703
v 234.00599670410156 235.1439971923828 109.6719970703125
v 235.51699829101562 258.17401123046875 139.80799865722656
v 226.5240020751953 232.85800170898438 112.38400268554688
v 226.33399963378906 238.42999267578125 130.61599731445312
v 241.7729949951172 257.1289978027344 127.83200073242188
v 235.93299865722656 234.9290008544922 108.16200256347656
v 243.9510040283203 262.510986328125 132.7570037841797
v 237.40199279785156 241.92100524902344 121.23300170898438
v 243.23699951171875 256.42999267578125 126.72100067138672
v 231.09500122070312 252.68899536132812 140.53500366210938
v 227.6510009765625 234.08599853515625 101.15399932861328
v 234.64100646972656 254.5070037841797 137.56199645996094
v 231.64599609375 257.8190002441406 139.0229949951172
v 224.96800231933594 237.19200134277344 103.89800262451172
v 235.6529998779297 232.2480010986328 104.25700378417969
v 225.1179962158203 248.29400634765625 136.531005859375
v 234.281005859375 258.8280029296875 139.3699951171875
v 240.35000610351562 241.56399536132812 117.8499984741211
v 224.8350067138672 240.26300048828125 110.53500366210938
v 231.9550018310547 253.6009979248047 140.20799255371094
v 233.62399291992188 258.1499938964844 139.93699645996094
v 229.08200073242188 240.41799926757812 102.64800262451172
v 229.28399658203125 241.1269989013672 104.21099853515625
v 233.7469940185547 241.78700256347656 124.91100311279297
v 244.29200744628906 237.677001953125 102.9469985961914
v 232.9980010986328 236.4770050048828 112.65799713134766
v 245.1699981689453 248.2310028076172 125.19300079345703
v 227.8000030517578 240.64100646972656 103.63600158691406

g grp1
usemtl mtl1
f 165 2 1 
f 177 1 2 
f 748 4 3 
f 271 3 4 
f 430 6 5 
f 504 5 6 
f 569 8 7 
f 346 7 8 
f 37 10 9 
f 567 9 10 
f 548 12 11 
f 346 11 12 
f 17 14 13 
f 68 13 14 
f 170 16 15 
f 536 15 16 
f 33 14 17 
f 914 19 18 
f 881 18 19 
f 260 20 5 
f 430 5 20 
f 151 22 21 
f 311 21 22 
f 753 23 10 
f 567 10 23 
f 191 25 24 
f 227 24 25 
f 600 27 26 
f 380 26 27 
f 152 29 28 
f 991 28 29 
f 813 31 30 
f 686 30 31 
f 33 17 32 
f 13 32 17 
f 489 35 34 
f 386 34 35 
f 365 37 36 
f 100 36 37 
f 523 39 38 
f 920 38 39 
f 468 41 40 
f 883 40 41 
f 767 43 42 
f 159 42 43 
f 46 45 44 
f 48 44 45 
f 69 45 46 
f 44 48 47 
f 49 47 48 
f 86 47 49 
f 153 51 50 
f 690 50 51 
f 141 53 52 
f 871 52 53 
f 69 55 54 
f 91 54 55 
f 442 57 56 
f 577 56 57 
f 774 59 58 
f 883 58 59 
f 65 61 60 
f 135 60 61 
f 582 63 62 
f 915 62 63 
f 78 65 64 
f 491 64 65 
f 838 67 66 
f 623 66 67 
f 45 69 68 
f 54 68 69 
f 963 71 70 
f 864 70 71 
f 436 73 72 
f 303 72 73 
f 48 45 14 
f 68 14 45 
f 911 75 74 
f 965 74 75 
f 972 76 4 
f 271 4 76 
f 401 78 77 
f 242 77 78 
f 49 48 79 
f 14 79 48 
f 129 81 80 
f 749 80 81 
f 692 83 82 
f 748 82 83 
f 84 49 79 
f 86 49 84 
f 86 84 85 
f 109 85 84 
f 955 88 87 
f 679 87 88 
f 401 77 89 
f 702 89 77 
f 92 91 90 
f 55 90 91 
f 125 92 90 
f 93 91 92 
f 94 54 91 
f 94 91 93 
f 407 96 95 
f 61 95 96 
f 603 98 97 
f 497 97 98 
f 54 94 68 
f 13 68 94 
f 281 100 99 
f 940 99 100 
f 821 102 101 
f 644 101 102 
f 26 104 103 
f 721 103 104 
f 33 79 14 
f 107 79 33 
f 234 106 105 
f 950 105 106 
f 108 84 79 
f 108 79 107 
f 110 109 84 
f 110 84 108 
f 30 112 111 
f 387 111 112 
f 412 114 113 
f 838 113 114 
f 954 116 115 
f 486 115 116 
f 812 118 117 
f 691 117 118 
f 447 120 119 
f 441 119 120 
f 125 122 121 
f 169 121 122 
f 288 124 123 
f 276 123 124 
f 92 125 121 
f 134 92 121 
f 134 93 92 
f 661 127 126 
f 358 126 127 
f 963 128 71 
f 806 71 128 
f 406 130 129 
f 81 129 130 
f 315 132 131 
f 398 131 132 
f 462 130 133 
f 209 133 130 
f 184 93 134 
f 96 135 61 
f 969 137 136 
f 501 136 137 
f 93 138 94 
f 13 94 138 
f 965 75 139 
f 241 139 75 
f 142 32 13 
f 650 141 140 
f 558 140 141 
f 138 142 13 
f 135 144 143 
f 665 143 144 
f 145 32 142 
f 33 32 145 
f 856 147 146 
f 733 146 147 
f 829 149 148 
f 178 148 149 
f 775 151 150 
f 584 150 151 
f 107 33 145 
f 593 152 28 
f 590 154 153 
f 51 153 154 
f 294 156 155 
f 736 155 156 
f 256 158 157 
f 510 157 158 
f 160 110 108 
f 388 159 43 
f 107 160 108 
f 425 162 161 
f 516 161 162 
f 201 110 160 
f 913 164 163 
f 793 163 164 
f 646 165 1 
f 976 167 166 
f 841 166 167 
f 201 168 110 
f 109 110 168 
f 173 121 169 
f 362 16 170 
f 473 172 171 
f 275 171 172 
f 134 121 173 
f 821 101 174 
f 452 174 101 
f 283 175 127 
f 999 127 175 
f 526 177 176 
f 431 176 177 
f 280 178 149 
f 481 180 179 
f 689 179 180 
f 356 182 181 
f 681 181 182 
f 255 183 55 
f 90 55 183 
f 185 138 93 
f 185 93 184 
f 186 142 138 
f 186 138 185 
f 187 145 142 
f 187 142 186 
f 767 188 43 
f 388 43 188 
f 189 145 187 
f 107 145 189 
f 939 155 190 
f 736 190 155 
f 838 66 191 
f 635 191 66 
f 212 193 192 
f 549 192 193 
f 196 160 107 
f 810 195 194 
f 880 194 195 
f 189 196 107 
f 628 198 197 
f 582 197 198 
f 201 160 196 
f 946 200 199 
f 624 199 200 
f 359 168 201 
f 919 199 202 
f 780 202 199 
f 443 204 203 
f 992 203 204 
f 153 50 205 
f 488 205 50 
f 793 207 206 
f 352 206 207 
f 143 83 208 
f 692 208 83 
f 406 209 130 
f 642 211 210 
f 770 210 211 
f 192 176 212 
f 538 212 176 
f 257 214 213 
f 482 213 214 
f 184 134 215 
f 297 215 134 
f 760 217 216 
f 762 216 217 
f 218 184 215 
f 185 184 218 
f 219 185 218 
f 186 185 219 
f 220 186 219 
f 187 186 220 
f 221 187 220 
f 189 187 221 
f 902 223 222 
f 308 222 223 
f 708 225 224 
f 377 224 225 
f 852 227 226 
f 580 226 227 
f 625 229 228 
f 414 228 229 
f 196 189 230 
f 221 230 189 
f 231 196 230 
f 201 196 231 
f 359 201 231 
f 314 233 232 
f 335 232 233 
f 245 235 234 
f 328 234 235 
f 135 237 236 
f 228 236 237 
f 264 239 238 
f 248 238 239 
f 139 241 240 
f 433 240 241 
f 152 242 29 
f 274 29 242 
f 403 244 243 
f 842 243 244 
f 637 246 245 
f 908 245 246 
f 548 11 247 
f 847 247 11 
f 287 183 248 
f 255 248 183 
f 745 250 249 
f 686 249 250 
f 538 252 251 
f 928 251 252 
f 509 254 253 
f 378 253 254 
f 255 238 248 
f 69 238 255 
f 746 256 157 
f 553 214 257 
f 618 259 258 
f 188 258 259 
f 529 261 260 
f 730 260 261 
f 264 238 46 
f 69 46 238 
f 306 263 262 
f 701 262 263 
f 264 46 44 
f 267 264 44 
f 697 266 265 
f 662 265 266 
f 267 44 47 
f 273 268 162 
f 516 162 268 
f 301 270 269 
f 875 269 270 
f 570 271 76 
f 272 47 86 
f 267 47 272 
f 368 268 273 
f 242 64 274 
f 921 274 64 
f 123 276 275 
f 769 275 276 
f 166 278 277 
f 250 277 278 
f 178 280 279 
f 40 279 280 
f 960 100 281 
f 324 193 282 
f 212 282 193 
f 599 284 283 
f 171 283 284 
f 287 286 285 
f 314 285 286 
f 183 287 285 
f 473 289 288 
f 500 288 289 
f 90 183 285 
f 762 131 290 
f 722 290 131 
f 693 292 291 
f 362 291 292 
f 800 205 293 
f 487 293 205 
f 255 55 69 
f 713 295 294 
f 534 294 295 
f 908 235 245 
f 129 80 296 
f 148 296 80 
f 173 297 134 
f 371 299 298 
f 469 298 299 
f 962 301 300 
f 269 300 301 
f 72 303 302 
f 460 302 303 
f 476 304 102 
f 461 102 304 
f 541 85 305 
f 109 305 85 
f 531 307 306 
f 263 306 307 
f 245 234 308 
f 105 308 234 
f 624 200 309 
f 700 309 200 
f 659 24 227 
f 446 310 97 
f 318 97 310 
f 586 21 311 
f 572 313 312 
f 917 312 313 
f 286 233 314 
f 762 315 131 
f 319 314 232 
f 106 317 316 
f 630 316 317 
f 603 97 318 
f 314 319 285 
f 125 285 319 
f 285 125 90 
f 917 313 320 
f 929 320 313 
f 881 19 321 
f 422 321 19 
f 379 322 18 
f 682 18 322 
f 193 324 323 
f 317 323 324 
f 501 326 325 
f 213 325 326 
f 348 305 327 
f 109 327 305 
f 106 234 328 
f 730 20 260 
f 380 329 20 
f 430 20 329 
f 637 331 330 
f 341 330 331 
f 941 333 332 
f 943 332 333 
f 846 112 30 
f 646 334 210 
f 573 210 334 
f 338 232 335 
f 586 337 336 
f 302 336 337 
f 339 232 338 
f 339 169 122 
f 319 339 122 
f 232 339 319 
f 319 122 125 
f 643 269 340 
f 875 340 269 
f 168 327 109 
f 343 327 168 
f 340 342 341 
f 853 341 342 
f 344 327 343 
f 348 327 344 
f 969 345 137 
f 710 137 345 
f 8 347 346 
f 11 346 347 
f 349 348 344 
f 594 348 349 
f 204 351 350 
f 812 350 351 
f 353 338 352 
f 335 352 338 
f 421 353 352 
f 353 339 338 
f 452 355 354 
f 956 354 355 
f 304 356 181 
f 292 357 16 
f 536 16 357 
f 353 169 339 
f 784 57 358 
f 502 358 57 
f 359 343 168 
f 449 343 359 
f 400 361 360 
f 864 360 361 
f 292 16 362 
f 70 361 363 
f 927 363 361 
f 366 349 344 
f 904 365 364 
f 36 364 365 
f 343 366 344 
f 165 367 2 
f 578 2 367 
f 697 368 147 
f 273 147 368 
f 444 177 2 
f 416 326 369 
f 501 369 326 
f 849 371 370 
f 298 370 371 
f 907 373 372 
f 331 372 373 
f 380 27 329 
f 901 329 27 
f 503 82 374 
f 3 374 82 
f 163 206 375 
f 335 375 206 
f 353 376 169 
f 173 169 376 
f 253 378 377 
f 572 377 378 
f 612 379 18 
f 381 297 173 
f 381 173 376 
f 382 215 297 
f 382 297 381 
f 383 218 215 
f 383 215 382 
f 384 219 218 
f 384 218 383 
f 385 220 219 
f 385 219 384 
f 386 221 220 
f 386 220 385 
f 986 222 387 
f 674 387 222 
f 35 221 386 
f 308 105 222 
f 674 222 105 
f 35 230 221 
f 259 388 188 
f 98 390 389 
f 617 389 390 
f 391 231 230 
f 391 230 35 
f 391 359 231 
f 423 393 392 
f 229 392 393 
f 611 395 394 
f 568 394 395 
f 918 396 266 
f 510 266 396 
f 627 53 397 
f 650 397 53 
f 449 359 391 
f 132 399 398 
f 709 398 399 
f 756 400 360 
f 771 402 401 
f 948 401 402 
f 698 244 403 
f 814 113 404 
f 732 404 113 
f 886 406 405 
f 295 405 406 
f 402 407 95 
f 670 408 366 
f 349 366 408 
f 794 410 409 
f 830 409 410 
f 229 393 411 
f 922 411 393 
f 113 413 412 
f 597 412 413 
f 411 415 414 
f 869 414 415 
f 576 257 416 
f 326 416 257 
f 849 418 417 
f 669 417 418 
f 248 419 287 
f 520 287 419 
f 353 421 420 
f 588 420 421 
f 755 281 422 
f 321 422 281 
f 776 423 392 
f 704 425 424 
f 161 424 425 
f 426 381 376 
f 426 376 420 
f 353 420 376 
f 427 382 381 
f 427 381 426 
f 428 383 382 
f 428 382 427 
f 429 384 383 
f 429 383 428 
f 385 384 429 
f 444 431 177 
f 432 386 385 
f 526 1 177 
f 990 211 424 
f 944 424 211 
f 34 386 432 
f 534 296 148 
f 595 434 433 
f 601 433 434 
f 907 435 373 
f 994 373 435 
f 295 406 296 
f 129 296 406 
f 878 437 436 
f 850 436 437 
f 872 439 438 
f 525 438 439 
f 403 441 440 
f 120 440 441 
f 872 442 439 
f 539 439 442 
f 620 443 203 
f 65 78 401 
f 252 431 444 
f 247 446 445 
f 497 445 446 
f 987 120 447 
f 450 449 448 
f 391 448 449 
f 366 449 450 
f 883 59 434 
f 677 434 59 
f 670 366 450 
f 150 452 451 
f 354 451 452 
f 510 270 301 
f 758 454 453 
f 217 453 454 
f 661 456 455 
f 664 455 456 
f 541 305 457 
f 348 457 305 
f 731 459 458 
f 970 458 459 
f 809 460 303 
f 304 181 461 
f 743 461 181 
f 800 81 462 
f 130 462 81 
f 777 463 423 
f 791 423 463 
f 742 465 464 
f 767 464 465 
f 426 420 466 
f 845 466 420 
f 467 426 466 
f 427 426 467 
f 556 468 149 
f 280 149 468 
f 535 469 299 
f 666 471 470 
f 822 470 471 
f 968 473 472 
f 171 472 473 
f 429 428 474 
f 427 474 428 
f 475 429 474 
f 385 429 475 
f 673 477 476 
f 537 476 477 
f 832 479 478 
f 555 478 479 
f 792 481 480 
f 895 480 481 
f 364 482 214 
f 535 483 467 
f 427 467 483 
f 166 484 278 
f 629 278 484 
f 472 171 284 
f 981 485 463 
f 453 463 485 
f 756 486 116 
f 205 488 487 
f 651 487 488 
f 391 35 489 
f 96 237 135 
f 493 490 395 
f 885 395 490 
f 60 208 491 
f 562 491 208 
f 807 379 492 
f 612 492 379 
f 490 493 336 
f 888 336 493 
f 668 495 494 
f 734 494 495 
f 930 497 496 
f 98 496 497 
f 718 499 498 
f 959 498 499 
f 288 500 124 
f 947 124 500 
f 136 501 325 
f 358 502 126 
f 872 126 502 
f 795 503 478 
f 374 478 503 
f 954 504 6 
f 840 506 505 
f 648 505 506 
f 87 508 507 
f 912 507 508 
f 225 509 253 
f 157 510 301 
f 731 512 511 
f 582 511 512 
f 645 514 513 
f 775 513 514 
f 990 516 515 
f 589 515 516 
f 909 518 517 
f 133 517 518 
f 482 364 36 
f 550 520 519 
f 419 519 520 
f 733 273 162 
f 589 522 521 
f 785 521 522 
f 752 523 154 
f 51 154 523 
f 438 525 524 
f 852 524 525 
f 873 528 527 
f 985 527 528 
f 5 529 260 
f 745 249 530 
f 695 530 249 
f 955 87 507 
f 306 532 531 
f 399 531 532 
f 195 389 533 
f 617 533 389 
f 178 294 534 
f 483 535 299 
f 675 528 536 
f 873 536 528 
f 898 419 248 
f 997 537 477 
f 431 252 538 
f 56 539 442 
f 540 267 272 
f 640 267 540 
f 542 272 541 
f 86 541 272 
f 542 540 272 
f 37 365 10 
f 753 10 365 
f 371 432 299 
f 475 299 432 
f 532 262 543 
f 660 543 262 
f 876 545 544 
f 407 544 545 
f 941 546 333 
f 631 333 546 
f 719 548 547 
f 1001 547 548 
f 328 549 193 
f 520 550 286 
f 233 286 550 
f 903 552 551 
f 870 551 552 
f 788 214 553 
f 520 286 287 
f 478 555 554 
f 951 554 555 
f 638 468 556 
f 140 558 557 
f 405 557 558 
f 542 541 457 
f 820 7 559 
f 12 559 7 
f 622 560 472 
f 968 472 560 
f 494 480 561 
f 895 561 480 
f 607 203 495 
f 992 495 203 
f 692 562 208 
f 658 31 563 
f 263 563 31 
f 687 565 564 
f 824 564 565 
f 1000 118 566 
f 492 566 118 
f 233 375 335 
f 940 100 37 
f 394 568 469 
f 298 469 568 
f 737 8 569 
f 101 355 452 
f 76 571 570 
f 865 570 571 
f 377 572 312 
f 549 573 192 
f 526 192 573 
f 622 472 284 
f 797 569 574 
f 7 574 569 
f 538 176 431 
f 457 348 575 
f 594 575 348 
f 553 257 576 
f 768 404 577 
f 732 577 404 
f 894 2 578 
f 648 579 505 
f 876 505 579 
f 25 580 227 
f 206 352 335 
f 854 307 581 
f 531 581 307 
f 198 583 582 
f 511 582 583 
f 150 584 174 
f 821 174 584 
f 527 585 164 
f 793 164 585 
f 337 586 311 
f 827 588 587 
f 421 587 588 
f 521 515 589 
f 729 154 590 
f 240 592 591 
f 511 591 592 
f 433 592 240 
f 936 152 593 
f 346 12 7 
f 616 594 349 
f 883 434 595 
f 412 597 596 
f 202 596 597 
f 421 352 207 
f 957 599 598 
f 933 598 599 
f 712 27 600 
f 834 602 601 
f 705 601 602 
f 390 98 603 
f 657 605 604 
f 622 604 605 
f 739 607 606 
f 668 606 607 
f 967 311 22 
f 911 190 75 
f 736 75 190 
f 893 609 608 
f 776 608 609 
f 170 15 610 
f 837 610 15 
f 493 611 477 
f 997 477 611 
f 762 290 216 
f 949 216 290 
f 905 613 612 
f 566 612 613 
f 653 615 614 
f 648 614 615 
f 408 616 349 
f 156 178 279 
f 963 611 394 
f 390 618 617 
f 258 617 618 
f 805 74 619 
f 965 619 74 
f 739 620 607 
f 203 607 620 
f 866 462 133 
f 604 622 621 
f 284 621 622 
f 634 623 616 
f 747 616 623 
f 963 394 128 
f 469 128 394 
f 780 199 624 
f 893 608 625 
f 229 625 608 
f 909 627 626 
f 397 626 627 
f 886 209 406 
f 845 420 588 
f 896 628 197 
f 532 306 262 
f 986 629 484 
f 317 631 630 
f 819 630 631 
f 889 309 632 
f 900 632 309 
f 634 408 633 
f 670 633 408 
f 580 634 633 
f 578 367 591 
f 240 591 367 
f 635 634 580 
f 623 634 635 
f 619 636 521 
f 647 521 636 
f 907 372 223 
f 763 223 372 
f 331 637 372 
f 763 372 637 
f 645 639 638 
f 41 638 639 
f 264 267 640 
f 790 642 641 
f 573 641 642 
f 573 642 210 
f 385 475 432 
f 713 405 295 
f 762 217 454 
f 545 237 96 
f 841 484 166 
f 698 300 643 
f 269 643 300 
f 483 299 475 
f 275 175 283 
f 483 474 427 
f 101 644 355 
f 801 355 644 
f 513 639 645 
f 475 474 483 
f 1 334 646 
f 821 476 102 
f 770 647 646 
f 165 646 647 
f 695 648 506 
f 146 649 342 
f 703 342 649 
f 141 650 53 
f 879 514 651 
f 645 651 514 
f 576 652 553 
f 789 553 652 
f 750 653 614 
f 655 489 34 
f 63 576 654 
f 416 654 576 
f 432 655 34 
f 583 578 591 
f 448 489 655 
f 391 489 448 
f 775 150 451 
f 605 657 656 
f 966 656 657 
f 804 31 658 
f 539 24 659 
f 720 660 559 
f 820 559 660 
f 952 661 126 
f 669 450 417 
f 448 417 450 
f 266 663 662 
f 818 662 663 
f 815 276 124 
f 809 664 551 
f 903 551 664 
f 143 665 83 
f 748 83 665 
f 934 667 666 
f 778 666 667 
f 259 606 668 
f 633 670 669 
f 450 669 670 
f 580 633 669 
f 977 672 671 
f 706 671 672 
f 821 673 476 
f 950 674 105 
f 357 675 536 
f 479 140 555 
f 557 555 140 
f 877 676 675 
f 504 675 676 
f 834 434 677 
f 274 409 678 
f 707 678 409 
f 830 410 158 
f 825 158 410 
f 878 87 679 
f 712 681 680 
f 182 680 681 
f 819 682 322 
f 859 684 683 
f 913 683 684 
f 819 546 685 
f 816 685 546 
f 804 686 31 
f 641 549 235 
f 328 235 549 
f 687 466 565 
f 845 565 466 
f 467 466 687 
f 863 313 572 
f 934 688 261 
f 730 261 688 
f 547 572 378 
f 744 467 687 
f 179 689 289 
f 500 289 689 
f 971 690 51 
f 117 691 689 
f 500 689 691 
f 417 448 655 
f 849 655 371 
f 432 371 655 
f 613 694 693 
f 877 693 694 
f 702 695 506 
f 905 696 694 
f 977 694 696 
f 856 697 147 
f 984 698 643 
f 859 700 699 
f 200 699 700 
f 912 302 337 
f 936 242 152 
f 927 361 400 
f 820 262 701 
f 936 530 702 
f 695 702 530 
f 649 704 703 
f 740 703 704 
f 592 601 705 
f 778 667 706 
f 860 706 667 
f 447 678 707 
f 398 709 708 
f 225 708 709 
f 832 626 397 
f 910 711 710 
f 369 710 711 
f 772 375 233 
f 226 669 418 
f 988 712 680 
f 226 580 669 
f 808 322 379 
f 584 21 673 
f 586 673 21 
f 155 713 294 
f 895 560 605 
f 622 605 560 
f 727 715 714 
f 896 714 715 
f 532 716 399 
f 709 399 716 
f 779 575 717 
f 594 717 575 
f 253 377 225 
f 318 718 443 
f 498 443 718 
f 254 720 719 
f 12 719 720 
f 862 202 597 
f 881 612 18 
f 875 270 396 
f 510 396 270 
f 103 721 458 
f 789 458 721 
f 398 722 131 
f 722 723 290 
f 949 290 723 
f 653 725 724 
f 777 724 725 
f 715 727 726 
f 798 726 727 
f 324 728 317 
f 631 317 728 
f 265 522 368 
f 268 368 522 
f 925 116 6 
f 954 6 116 
f 752 154 729 
f 623 635 66 
f 892 380 730 
f 20 730 380 
f 60 143 208 
f 511 592 731 
f 705 731 592 
f 56 577 732 
f 880 195 533 
f 273 733 147 
f 912 72 302 
f 992 735 734 
f 792 734 735 
f 566 613 291 
f 693 291 613 
f 847 499 718 
f 722 398 708 
f 75 736 241 
f 595 241 736 
f 437 657 604 
f 254 719 378 
f 547 378 719 
f 950 738 737 
f 8 737 738 
f 390 739 618 
f 606 618 739 
f 796 703 740 
f 879 742 741 
f 464 741 742 
f 801 461 743 
f 564 744 687 
f 987 256 746 
f 493 395 611 
f 926 717 747 
f 594 747 717 
f 829 80 749 
f 853 330 341 
f 282 728 324 
f 971 523 38 
f 757 751 750 
f 653 750 751 
f 415 752 729 
f 938 754 753 
f 471 753 754 
f 899 519 419 
f 422 136 755 
f 325 755 136 
f 988 756 116 
f 962 300 698 
f 563 757 658 
f 750 658 757 
f 78 64 242 
f 453 485 758 
f 958 758 485 
f 735 350 759 
f 117 759 350 
f 922 760 216 
f 842 435 761 
f 902 761 435 
f 832 397 479 
f 650 479 397 
f 245 763 637 
f 561 656 764 
f 966 764 656 
f 636 765 165 
f 367 165 765 
f 540 632 640 
f 239 640 632 
f 889 632 540 
f 889 540 542 
f 885 766 568 
f 298 568 766 
f 42 464 767 
f 780 596 202 
f 948 95 61 
f 999 769 768 
f 814 768 769 
f 990 515 770 
f 647 770 515 
f 89 771 401 
f 233 550 772 
f 773 772 550 
f 519 773 550 
f 513 775 774 
f 677 774 775 
f 894 578 198 
f 583 198 578 
f 543 716 532 
f 724 777 776 
f 423 776 777 
f 781 542 457 
f 567 23 778 
f 666 778 23 
f 596 780 779 
f 781 779 780 
f 779 781 457 
f 212 538 782 
f 251 782 538 
f 848 783 690 
f 50 690 783 
f 577 57 784 
f 144 135 236 
f 619 521 785 
f 835 487 651 
f 676 786 529 
f 860 529 786 
f 570 626 271 
f 832 271 626 
f 236 787 144 
f 935 144 787 
f 553 789 788 
f 904 788 789 
f 573 334 526 
f 1 526 334 
f 779 457 575 
f 796 740 790 
f 944 790 740 
f 745 277 250 
f 743 181 681 
f 463 453 791 
f 217 791 453 
f 734 792 480 
f 163 793 206 
f 310 718 318 
f 614 648 695 
f 921 795 794 
f 554 794 795 
f 878 508 87 
f 939 557 405 
f 111 387 797 
f 674 797 387 
f 915 654 798 
f 369 798 654 
f 104 26 380 
f 497 446 97 
f 96 407 545 
f 751 725 653 
f 241 595 433 
f 726 799 715 
f 978 715 799 
f 315 581 132 
f 531 132 581 
f 153 205 800 
f 461 801 644 
f 592 433 601 
f 921 562 795 
f 503 795 562 
f 864 803 802 
f 831 802 803 
f 106 323 317 
f 805 785 662 
f 265 662 785 
f 619 785 805 
f 744 806 128 
f 421 207 587 
f 793 587 207 
f 736 279 595 
f 40 595 279 
f 887 808 807 
f 379 807 808 
f 750 614 804 
f 695 804 614 
f 931 747 623 
f 969 685 345 
f 799 345 685 
f 990 424 161 
f 303 598 809 
f 664 809 598 
f 945 579 615 
f 648 615 579 
f 992 350 735 
f 836 811 810 
f 496 810 811 
f 807 492 812 
f 118 812 492 
f 31 813 263 
f 701 263 813 
f 630 322 808 
f 455 664 598 
f 276 815 814 
f 413 814 815 
f 931 623 67 
f 599 621 284 
f 941 816 546 
f 933 455 598 
f 159 817 42 
f 88 42 817 
f 425 733 162 
f 951 557 818 
f 939 818 557 
f 192 526 176 
f 546 819 631 
f 163 375 772 
f 859 683 700 
f 899 700 683 
f 660 262 820 
f 559 12 720 
f 885 568 395 
f 754 822 471 
f 488 823 742 
f 465 742 823 
f 827 824 588 
f 845 588 824 
f 410 663 825 
f 266 825 663 
f 950 316 738 
f 924 738 316 
f 25 191 635 
f 580 25 635 
f 858 191 24 
f 802 827 826 
f 923 826 827 
f 745 593 828 
f 976 828 593 
f 831 824 827 
f 705 459 731 
f 839 829 749 
f 256 830 158 
f 845 824 565 
f 831 564 824 
f 374 271 832 
f 980 610 833 
f 837 833 610 
f 677 59 774 
f 679 88 817 
f 639 513 774 
f 677 451 834 
f 602 834 451 
f 535 467 744 
f 645 835 651 
f 848 836 194 
f 810 194 836 
f 495 668 607 
f 732 113 838 
f 293 839 749 
f 505 544 840 
f 771 840 544 
f 838 114 67 
f 931 67 114 
f 890 778 706 
f 243 842 841 
f 761 841 842 
f 858 732 191 
f 838 191 732 
f 940 844 843 
f 672 843 844 
f 602 451 354 
f 278 629 846 
f 112 846 629 
f 733 649 146 
f 446 247 847 
f 23 753 471 
f 999 768 784 
f 577 784 768 
f 320 848 690 
f 417 655 849 
f 951 555 557 
f 766 370 298 
f 615 653 724 
f 604 850 437 
f 851 418 849 
f 226 418 851 
f 852 226 851 
f 246 330 853 
f 659 227 852 
f 120 746 440 
f 973 440 746 
f 757 563 854 
f 307 854 563 
f 881 321 855 
f 99 855 321 
f 960 213 482 
f 783 823 50 
f 488 50 823 
f 643 340 341 
f 146 857 856 
f 874 856 857 
f 539 858 24 
f 934 261 860 
f 529 860 261 
f 711 726 798 
f 859 861 684 
f 873 684 861 
f 119 441 243 
f 403 243 441 
f 953 862 815 
f 413 815 862 
f 503 692 82 
f 929 313 863 
f 70 864 361 
f 692 503 562 
f 912 508 72 
f 436 72 508 
f 73 436 850 
f 868 865 571 
f 128 535 744 
f 469 535 128 
f 936 593 530 
f 745 530 593 
f 518 867 866 
f 729 866 867 
f 322 630 819 
f 816 799 685 
f 906 869 868 
f 867 868 869 
f 964 551 870 
f 133 209 871 
f 52 871 209 
f 600 743 681 
f 952 872 438 
f 164 684 873 
f 857 875 874 
f 396 874 875 
f 945 876 579 
f 977 786 877 
f 676 877 786 
f 966 878 679 
f 488 742 879 
f 478 374 832 
f 402 544 407 
f 831 827 802 
f 860 671 706 
f 716 543 882 
f 660 882 543 
f 928 252 444 
f 80 829 148 
f 939 713 155 
f 960 325 213 
f 524 852 851 
f 259 618 606 
f 525 659 852 
f 758 854 884 
f 581 884 854 
f 439 659 525 
f 439 539 659 
f 459 602 354 
f 782 282 212 
f 343 449 366 
f 564 831 803 
f 884 315 454 
f 762 454 315 
f 796 853 703 
f 342 703 853 
f 175 275 769 
f 880 823 783 
f 806 744 564 
f 487 839 293 
f 986 387 629 
f 112 629 387 
f 210 770 646 
f 993 801 743 
f 998 630 808 
f 414 229 411 
f 240 367 139 
f 765 139 367 
f 141 52 886 
f 209 886 52 
f 351 887 807 
f 451 677 775 
f 676 529 504 
f 5 504 529 
f 960 755 325 
f 522 265 785 
f 673 888 477 
f 493 477 888 
f 672 890 706 
f 524 851 891 
f 849 891 851 
f 754 892 822 
f 730 822 892 
f 330 246 637 
f 938 789 721 
f 867 415 729 
f 634 616 408 
f 945 609 893 
f 847 310 446 
f 58 41 639 
f 2 894 444 
f 628 444 894 
f 656 561 895 
f 512 63 582 
f 197 714 896 
f 822 688 470 
f 934 470 688 
f 935 787 897 
f 906 897 787 
f 374 3 271 
f 900 899 898 
f 419 898 899 
f 900 898 632 
f 239 632 898 
f 731 458 652 
f 789 652 458 
f 944 704 424 
f 927 680 182 
f 304 537 356 
f 997 356 537 
f 783 194 880 
f 505 876 544 
f 248 239 898 
f 909 865 518 
f 867 518 865 
f 992 204 350 
f 321 281 99 
f 624 889 781 
f 542 781 889 
f 430 329 901 
f 86 85 541 
f 907 223 902 
f 456 903 664 
f 683 773 899 
f 519 899 773 
f 753 365 904 
f 612 881 905 
f 855 905 881 
f 926 596 717 
f 779 717 596 
f 880 533 465 
f 974 465 533 
f 172 288 123 
f 973 157 301 
f 172 123 275 
f 700 899 900 
f 955 42 88 
f 571 906 868 
f 700 900 309 
f 820 574 7 
f 790 641 908 
f 235 908 641 
f 60 135 143 
f 865 909 570 
f 626 570 909 
f 141 886 558 
f 405 558 886 
f 726 711 910 
f 609 724 776 
f 509 225 709 
f 624 781 780 
f 978 799 816 
f 132 531 399 
f 930 445 497 
f 858 539 56 
f 913 163 772 
f 773 913 772 
f 969 136 914 
f 422 914 136 
f 798 727 915 
f 714 915 727 
f 750 804 658 
f 312 917 916 
f 971 916 917 
f 590 800 462 
f 697 918 266 
f 946 199 919 
f 554 795 478 
f 956 459 354 
f 643 341 331 
f 38 920 916 
f 224 916 920 
f 701 574 820 
f 891 849 370 
f 846 250 278 
f 913 773 683 
f 491 921 64 
f 994 244 698 
f 937 411 922 
f 486 826 923 
f 498 924 887 
f 998 887 924 
f 901 925 430 
f 6 430 925 
f 686 250 846 
f 627 517 871 
f 133 871 517 
f 283 171 275 
f 814 769 276 
f 412 596 926 
f 1002 927 182 
f 954 675 504 
f 323 106 328 
f 892 721 104 
f 585 587 793 
f 552 891 870 
f 370 870 891 
f 628 928 444 
f 995 447 119 
f 863 930 929 
f 811 929 930 
f 22 151 514 
f 775 514 151 
f 931 926 747 
f 412 926 931 
f 812 117 350 
f 178 156 294 
f 976 28 932 
f 991 932 28 
f 127 661 933 
f 455 933 661 
f 263 307 563 
f 487 835 839 
f 829 839 835 
f 840 771 89 
f 581 315 884 
f 159 494 561 
f 666 470 934 
f 973 746 157 
f 960 36 100 
f 412 931 114 
f 144 935 665 
f 972 665 935 
f 77 242 936 
f 309 889 624 
f 149 829 556 
f 835 556 829 
f 345 910 710 
f 615 724 609 
f 729 590 866 
f 462 866 590 
f 949 937 922 
f 844 9 890 
f 567 890 9 
f 940 37 9 
f 904 938 753 
f 827 587 923 
f 585 923 587 
f 102 461 644 
f 805 911 74 
f 774 58 639 
f 843 99 940 
f 332 942 941 
f 978 941 942 
f 496 389 810 
f 195 810 389 
f 56 732 858 
f 180 735 759 
f 251 332 943 
f 740 704 944 
f 953 947 946 
f 833 946 947 
f 791 217 760 
f 402 95 948 
f 216 949 922 
f 802 826 360 
f 756 360 826 
f 510 158 825 
f 962 698 403 
f 711 798 369 
f 471 666 23 
f 545 876 893 
f 945 893 876 
f 544 402 771 
f 855 843 696 
f 672 696 843 
f 985 585 527 
f 404 768 814 
f 481 792 180 
f 735 180 792 
f 561 764 159 
f 817 159 764 
f 695 249 804 
f 686 804 249 
f 884 454 758 
f 813 111 574 
f 797 574 111 
f 920 708 224 
f 554 951 663 
f 818 663 951 
f 716 509 709 
f 661 952 456 
f 438 456 952 
f 967 507 311 
f 337 311 507 
f 959 347 8 
f 712 600 681 
f 246 853 796 
f 919 953 946 
f 536 873 15 
f 861 15 873 
f 527 164 873 
f 528 954 115 
f 625 228 237 
f 174 452 150 
f 40 883 595 
f 355 801 956 
f 970 956 801 
f 850 957 73 
f 303 73 957 
f 733 425 649 
f 704 649 425 
f 854 758 958 
f 499 347 959 
f 528 675 954 
f 508 878 436 
f 989 946 833 
f 514 879 22 
f 741 22 879 
f 701 813 574 
f 755 960 281 
f 236 228 961 
f 414 961 228 
f 800 590 153 
f 766 870 370 
f 982 443 498 
f 973 301 962 
f 552 524 891 
f 718 310 847 
f 979 523 752 
f 576 63 512 
f 460 964 885 
f 766 885 964 
f 730 688 822 
f 502 442 872 
f 964 460 809 
f 914 18 682 
f 825 266 510 
f 850 621 957 
f 599 957 621 
f 388 259 668 
f 802 360 864 
f 803 864 71 
f 752 415 411 
f 1000 566 291 
f 806 803 71 
f 464 955 741 
f 967 741 955 
f 940 9 844 
f 654 915 63 
f 756 826 486 
f 636 965 765 
f 139 765 965 
f 534 295 296 
f 628 894 198 
f 968 481 179 
f 747 594 616 
f 437 878 966 
f 642 790 944 
f 787 236 961 
f 340 857 342 
f 146 342 857 
f 549 641 573 
f 308 223 763 
f 494 159 388 
f 22 741 967 
f 251 943 782 
f 728 782 943 
f 840 89 506 
f 702 506 89 
f 179 289 968 
f 473 968 289 
f 636 165 647 
f 103 458 970 
f 438 524 903 
f 552 903 524 
f 523 971 51 
f 38 916 971 
f 560 481 968 
f 465 823 880 
f 989 833 837 
f 665 972 748 
f 4 748 972 
f 995 678 447 
f 534 148 178 
f 981 725 751 
f 979 39 523 
f 947 953 124 
f 815 124 953 
f 438 903 456 
f 848 194 783 
f 126 872 952 
f 380 892 104 
f 961 414 869 
f 415 867 869 
f 928 942 332 
f 133 518 866 
f 977 696 672 
f 818 939 911 
f 190 911 939 
f 480 494 734 
f 837 15 861 
f 164 913 684 
f 3 82 748 
f 905 694 613 
f 767 465 974 
f 982 204 443 
f 1000 362 975 
f 170 975 362 
f 764 966 679 
f 751 757 958 
f 854 958 757 
f 1000 691 118 
f 318 443 620 
f 11 347 847 
f 499 847 347 
f 932 167 976 
f 890 672 844 
f 302 490 336 
f 30 111 813 
f 694 977 877 
f 855 99 843 
f 942 896 978 
f 715 978 896 
f 921 794 274 
f 409 274 794 
f 877 675 357 
f 702 77 936 
f 983 39 979 
f 560 895 481 
f 882 660 720 
f 807 812 351 
f 389 496 98 
f 728 282 782 
f 410 794 554 
f 488 879 651 
f 749 81 293 
f 800 293 81 
f 917 690 971 
f 988 925 901 
f 615 609 945 
f 691 975 980 
f 610 980 975 
f 821 584 673 
f 599 283 933 
f 127 933 283 
f 874 396 918 
f 188 767 974 
f 950 106 316 
f 953 919 862 
f 202 862 919 
f 320 690 917 
f 777 725 981 
f 251 928 332 
f 738 959 8 
f 964 809 551 
f 197 62 714 
f 915 714 62 
f 902 435 907 
f 473 288 172 
f 482 36 960 
f 593 28 976 
f 608 392 229 
f 745 828 277 
f 976 277 828 
f 989 837 699 
f 859 699 837 
f 983 708 920 
f 459 705 602 
f 726 910 799 
f 345 799 910 
f 522 589 268 
f 516 268 589 
f 204 982 351 
f 887 351 982 
f 976 166 277 
f 723 983 979 
f 985 923 585 
f 1001 247 445 
f 888 586 336 
f 955 464 42 
f 308 763 245 
f 167 119 243 
f 521 647 515 
f 994 984 373 
f 331 373 984 
f 486 923 985 
f 882 254 509 
f 115 486 985 
f 500 980 947 
f 833 947 980 
f 722 983 723 
f 961 906 787 
f 333 728 943 
f 721 892 754 
f 673 586 888 
f 969 914 682 
f 564 803 806 
f 490 460 885 
f 796 908 246 
f 790 908 796 
f 442 502 57 
f 759 117 689 
f 320 929 836 
f 811 836 929 
f 746 120 987 
f 993 743 600 
f 463 777 981 
f 654 416 369 
f 280 468 40 
f 722 708 983 
f 861 859 837 
f 663 410 554 
f 582 62 197 
f 638 41 468 
f 691 980 500 
f 685 682 819 
f 326 257 213 
f 720 254 882 
f 340 875 857 
f 567 778 890 
f 870 766 964 
f 791 393 423 
f 501 137 710 
f 403 973 962 
f 693 877 357 
f 895 605 656 
f 680 400 988 
f 756 988 400 
f 200 946 989 
f 211 990 770 
f 761 986 484 
f 65 401 948 
f 786 671 860 
f 170 610 975 
f 776 392 608 
f 625 237 545 
f 1000 975 691 
f 734 495 992 
f 19 914 422 
f 902 222 986 
f 312 916 224 
f 140 479 650 
f 447 707 987 
f 830 987 707 
f 689 180 759 
f 627 909 517 
f 988 116 925 
f 496 811 930 
f 969 682 685 
f 719 12 548 
f 1002 363 927 
f 970 801 993 
f 507 912 337 
f 569 797 737 
f 674 737 797 
f 712 988 901 
f 657 437 966 
f 239 264 640 
f 680 927 400 
f 991 678 995 
f 167 932 995 
f 991 995 932 
f 788 364 214 
f 904 364 788 
f 997 611 996 
f 963 996 611 
f 39 983 920 
f 1002 182 356 
f 928 628 896 
f 836 848 320 
f 761 484 841 
f 986 761 902 
f 303 957 598 
f 491 562 921 
f 998 924 316 
f 556 835 645 
f 1002 997 996 
f 993 103 970 
f 643 331 984 
f 818 911 662 
f 805 662 911 
f 377 312 224 
f 696 905 855 
f 934 860 667 
f 956 970 459 
f 200 989 699 
f 941 978 816 
f 974 617 258 
f 566 492 612 
f 998 316 630 
f 652 512 731 
f 413 862 597 
f 494 388 668 
f 769 999 175 
f 979 949 723 
f 865 868 867 
f 937 752 411 
f 507 967 955 
f 58 883 41 
f 127 999 358 
f 784 358 999 
f 846 30 686 
f 977 671 786 
f 601 434 834 
f 119 167 995 
f 115 985 528 
f 318 620 603 
f 739 603 620 
f 547 863 572 
f 814 413 113 
f 1000 291 362 
f 901 27 712 
f 61 65 948 
f 1001 445 863 
f 930 863 445 
f 856 918 697 
f 393 760 922 
f 103 993 26 
f 600 26 993 
f 292 693 357 
f 603 739 390 
f 211 642 944 
f 961 869 906 
f 674 950 737 
f 161 516 990 
f 512 652 576 
f 959 924 498 
f 617 974 533 
f 545 893 625 
f 631 728 333 
f 918 856 874 
f 571 897 906 
f 760 393 791 
f 440 973 403 
f 897 972 935 
f 928 896 942 
f 996 963 70 
f 738 924 959 
f 60 491 65 
f 548 247 1001 
f 887 998 808 
f 323 328 193 
f 604 621 850 
f 678 991 29 
f 996 363 1002 
f 70 363 996 
f 994 698 984 
f 638 556 645 
f 789 938 904 
f 937 949 979 
f 982 498 887 
f 591 511 583 
f 368 697 265 
f 369 501 710 
f 244 994 842 
f 435 842 994 
f 754 938 721 
f 584 151 21 
f 678 29 274 
f 863 547 1001 
f 937 979 752 
f 965 636 619 
f 302 460 490 
f 830 707 409 
f 817 764 679 
f 830 256 987 
f 76 897 571 
f 243 841 167 
f 188 974 258 
f 897 76 972 
f 405 713 939 
f 156 279 736 
f 751 485 981 
f 53 627 871 
f 509 716 882 
f 997 1002 356 
f 751 958 485 
f 304 476 537 
