#  wavefront obj file written by the visualization toolkit

mtllib livertumor.mtl

v 219.38400268554688 138.05999755859375 164.27499389648438
v 218.8459930419922 138.4029998779297 163.7310028076172
v 218.6280059814453 138.23899841308594 164.79800415039062
v 219.677001953125 138.29100036621094 163.56399536132812
v 218.19700622558594 138.45899963378906 164.3000030517578
v 220.14599609375 138.01300048828125 164.1280059814453
v 220.46499633789062 138.2760009765625 163.5500030517578
v 220.9149932861328 138.0050048828125 164.08299255371094
v 221.2480010986328 138.27499389648438 163.5489959716797
v 221.69900512695312 138.00799560546875 164.08200073242188
v 222.0500030517578 138.27499389648438 163.57200622558594
v 222.42100524902344 138.04600524902344 164.10400390625
v 222.8509979248047 138.34100341796875 163.8090057373047
v 210.22999572753906 146.39500427246094 172.23699951171875
v 210.25599670410156 147.0760040283203 172.33200073242188
v 210.4980010986328 146.6199951171875 173.322998046875
v 209.8209991455078 146.8520050048828 171.2429962158203
v 210.40699768066406 142.8090057373047 170.04600524902344
v 210.35699462890625 142.81700134277344 168.93600463867188
v 209.96800231933594 143.68299865722656 169.26100158691406
v 210.7239990234375 141.94900512695312 169.29299926757812
v 220.13299560546875 141.93299865722656 172.8000030517578
v 218.98199462890625 141.9219970703125 173.06700134277344
v 220.125 142.7030029296875 172.8419952392578
v 218.97900390625 141.18800354003906 172.8459930419922
v 221.13999938964844 149.21499633789062 168.5749969482422
v 221.86900329589844 148.99600219726562 169.31199645996094
v 221.61099243164062 149.81500244140625 169.5540008544922
v 221.71200561523438 148.2050018310547 168.61199951171875
v 210.91799926757812 146.88600158691406 174.07400512695312
v 211.28799438476562 147.76199340820312 173.9510040283203
v 211.61399841308594 147.38600158691406 174.32000732421875
v 210.5590057373047 147.34500122070312 173.31500244140625
v 218.11099243164062 138.89300537109375 163.572998046875
v 217.51100158691406 138.77999877929688 164.30099487304688
v 217.2790069580078 139.1929931640625 163.64700317382812
v 218.80999755859375 139.00599670410156 163.31100463867188
v 219.44400024414062 138.88800048828125 163.2969970703125
v 220.21400451660156 138.85699462890625 163.28500366210938
v 220.9969940185547 138.85400390625 163.2830047607422
v 221.7740020751953 138.85400390625 163.29200744628906
v 222.54299926757812 138.84500122070312 163.38499450683594
v 214.5290069580078 151.26300048828125 172.16099548339844
v 213.98800659179688 151.5540008544922 171.5229949951172
v 214.7729949951172 152.1009979248047 171.37899780273438
v 213.67300415039062 151.02000427246094 171.9720001220703
v 223.1580047607422 138.86500549316406 163.6699981689453
v 220.84100341796875 141.44900512695312 172.8000030517578
v 220.9149932861328 142.71499633789062 172.8000030517578
v 219.61199951171875 140.75999450683594 172.8000030517578
v 108.43900299072266 177.16400146484375 168.81500244140625
v 108.5270004272461 177.00900268554688 168.35400390625
v 108.9469985961914 177.61099243164062 168.3990020751953
v 108.28099822998047 176.55299377441406 168.72000122070312
v 210.4929962158203 145.84300231933594 173.322998046875
v 216.6439971923828 139.7270050048828 163.75399780273438
v 216.38999938964844 139.54800415039062 164.80299377441406
v 216.88099670410156 139.13800048828125 164.281005859375
v 215.98500061035156 140.24899291992188 164.2030029296875
v 217.2570037841797 139.78799438476562 163.3350067138672
v 217.8820037841797 139.6439971923828 163.29600524902344
v 218.63699340820312 139.61300659179688 163.2469940185547
v 219.38299560546875 139.61300659179688 163.21299743652344
v 220.14300537109375 139.59500122070312 163.20899963378906
v 220.9239959716797 139.59100341796875 163.20899963378906
v 221.7010040283203 139.59100341796875 163.21800231933594
v 222.44700622558594 139.58299255371094 163.29200744628906
v 223.1020050048828 139.5189971923828 163.5540008544922
v 223.52699279785156 138.6529998779297 164.34300231933594
v 223.6540069580078 139.3300018310547 164.0800018310547
v 216.36199951171875 140.50799560546875 163.5189971923828
v 220.5919952392578 145.47999572753906 172.9550018310547
v 219.7220001220703 144.92300415039062 173.58700561523438
v 219.61000061035156 146.27999877929688 173.343994140625
v 220.16299438476562 144.2740020751953 173.11700439453125
v 217.05099487304688 140.4199981689453 163.2969970703125
v 217.82000732421875 140.3939971923828 163.21600341796875
v 218.57899475097656 140.37399291992188 163.20700073242188
v 219.3560028076172 140.37100219726562 163.20199584960938
v 220.13400268554688 140.3699951171875 163.1999969482422
v 220.91400146484375 140.3679962158203 163.1999969482422
v 221.68099975585938 140.4029998779297 163.2100067138672
v 222.4250030517578 140.39599609375 163.28500366210938
v 223.0919952392578 140.2949981689453 163.54100036621094
v 223.6529998779297 140.10800170898438 164.00599670410156
v 215.81900024414062 141.17300415039062 163.70700073242188
v 215.33399963378906 140.8260040283203 164.6269989013672
v 214.96600341796875 141.6790008544922 164.3000030517578
v 223.85499572753906 145.47799682617188 169.59800720214844
v 224.48899841308594 145.1269989013672 170.23899841308594
v 224.27499389648438 145.94200134277344 170.49600219726562
v 224.1790008544922 144.36700439453125 169.13299560546875
v 216.83700561523438 141.26800537109375 163.27999877929688
v 221.13099670410156 149.81399536132812 171.41099548339844
v 220.53700256347656 149.77699279785156 171.9600067138672
v 220.35899353027344 150.6060028076172 171.42300415039062
v 221.14500427246094 148.91000366210938 172.1649932861328
v 216.78399658203125 150.0050048828125 166.39700317382812
v 217.47999572753906 149.78900146484375 166.406005859375
v 217.25900268554688 150.52499389648438 167.18099975585938
v 217.2100067138672 148.9810028076172 165.41600036621094
v 217.7010040283203 141.06100463867188 163.2100067138672
v 218.52699279785156 141.15199279785156 163.1999969482422
v 219.3939971923828 141.14999389648438 163.1999969482422
v 220.0800018310547 141.04600524902344 163.1999969482422
v 220.86500549316406 141.14599609375 163.20199584960938
v 221.5679931640625 141.08200073242188 163.2100067138672
v 222.2949981689453 141.39100646972656 163.30999755859375
v 223.04800415039062 141.11300659179688 163.55299377441406
v 223.63800048828125 140.88499450683594 164.0030059814453
v 215.6009979248047 142.04800415039062 163.5780029296875
v 215.01699829101562 142.34800720214844 163.9429931640625
v 216.343994140625 141.95199584960938 163.29600524902344
v 220.06300354003906 149.5590057373047 172.52000427246094
v 219.8300018310547 150.41900634765625 171.97999572753906
v 217.13099670410156 142.05299377441406 163.21099853515625
v 210.26499938964844 145.60499572753906 172.23699951171875
v 210.5240020751953 145.0780029296875 173.29800415039062
v 218.0760040283203 141.86700439453125 163.2030029296875
v 211.6649932861328 143.9980010986328 167.33700561523438
v 211.80799865722656 144.89100646972656 166.7030029296875
v 211.22300720214844 144.9080047607422 167.69200134277344
v 212.28500366210938 144.06700134277344 166.0780029296875
v 110.68900299072266 172.15499877929688 170.4040069580078
v 110.18499755859375 171.88400268554688 170.54200744628906
v 110.51899719238281 172.42799377441406 171.18899536132812
v 110.02899932861328 172.0290069580078 169.9739990234375
v 219.33999633789062 141.96600341796875 163.2030029296875
v 220.46200561523438 141.875 163.20799255371094
v 219.64999389648438 150.2220001220703 168.05599975585938
v 220.41099548339844 150.61700439453125 168.7969970703125
v 219.66400146484375 151.38699340820312 168.843994140625
v 220.54100036621094 149.7949981689453 168.3159942626953
v 110.43900299072266 175.39199829101562 172.45199584960938
v 109.74500274658203 175.4029998779297 172.67300415039062
v 109.94599914550781 176.02099609375 172.30299377441406
v 109.85900115966797 174.7519989013672 172.74099731445312
v 221.54800415039062 141.8520050048828 163.25
v 108.77400207519531 176.18800354003906 170.41400146484375
v 108.96199798583984 175.968994140625 171.52000427246094
v 108.46900177001953 175.7010040283203 170.58700561523438
v 109.20500183105469 176.35400390625 171.25999450683594
v 213.81199645996094 148.6750030517578 165.83399963378906
v 214.76400756835938 149.28599548339844 165.88299560546875
v 213.8249969482422 149.63400268554688 166.3730010986328
v 214.46200561523438 148.19900512695312 164.9720001220703
v 222.9219970703125 141.9720001220703 163.6649932861328
v 215.29600524902344 150.16200256347656 166.51600646972656
v 214.3780059814453 150.2779998779297 166.66700744628906
v 216.00399780273438 149.33399963378906 165.6929931640625
v 108.55999755859375 175.81700134277344 169.19500732421875
v 223.55299377441406 141.64199829101562 164.0330047607422
v 215.52200317382812 142.95399475097656 163.48199462890625
v 214.54800415039062 143.23899841308594 163.93099975585938
v 216.2030029296875 142.63999938964844 163.28700256347656
v 216.97000122070312 142.718994140625 163.2100067138672
v 217.91600036621094 142.71499633789062 163.2010040283203
v 211.5050048828125 143.2449951171875 167.7830047607422
v 210.83099365234375 143.98899841308594 167.9980010986328
v 212.51199340820312 142.9770050048828 166.98899841308594
v 219.11000061035156 142.77699279785156 163.22500610351562
v 109.73999786376953 172.04299926757812 170.86099243164062
v 109.06199645996094 172.16299438476562 170.41099548339844
v 108.95899963378906 172.52699279785156 171.18899536132812
v 109.6510009765625 171.87100219726562 170.30999755859375
v 222.05299377441406 137.9239959716797 166.51600646972656
v 221.9080047607422 137.5229949951172 167.4199981689453
v 222.69200134277344 138 167.56500244140625
v 221.14100646972656 137.44400024414062 166.79299926757812
v 107.78700256347656 174.1199951171875 171.18800354003906
v 107.45899963378906 174.00599670410156 170.4199981689453
v 107.65899658203125 174.79200744628906 170.4199981689453
v 107.69000244140625 173.3280029296875 170.83999633789062
v 220.36099243164062 142.8249969482422 163.26699829101562
v 220.90899658203125 150.6479949951172 169.38800048828125
v 220.16299438476562 151.38400268554688 169.37600708007812
v 221.01600646972656 150.05999755859375 168.92799377441406
v 221.2519989013672 142.593994140625 163.29800415039062
v 213.9040069580078 151.48300170898438 167.83700561523438
v 213.83599853515625 150.8990020751953 167.2790069580078
v 214.65899658203125 151.43299865722656 167.76300048828125
v 213.031005859375 151.26100158691406 167.802001953125
v 221.86000061035156 136.93800354003906 169.58200073242188
v 221.63299560546875 136.6179962158203 170.60299682617188
v 222.43800354003906 136.94700622558594 170.3719940185547
v 221.03900146484375 136.5540008544922 169.51400756835938
v 220.5709991455078 136.11599731445312 170.15699768066406
v 220.81500244140625 136.49200439453125 171.23699951171875
v 222.13400268554688 142.5659942626953 163.52099609375
v 222.75799560546875 142.8280029296875 164.0189971923828
v 223.34500122070312 142.28799438476562 164.1230010986328
v 108.20600128173828 175.32000732421875 171.07200622558594
v 108.01399993896484 175.36000061035156 170.50900268554688
v 107.84200286865234 174.92100524902344 170.93299865722656
v 211.7310028076172 148.56399536132812 173.38800048828125
v 212.34500122070312 148.21600341796875 174.156005859375
v 210.86500549316406 148.04299926757812 173.14100646972656
v 214.99600219726562 143.6699981689453 163.47999572753906
v 224.4739990234375 143.49600219726562 168.58399963378906
v 224.1219940185547 144.281005859375 167.78900146484375
v 224.5570068359375 143.4980010986328 167.52099609375
v 216.03599548339844 144.05499267578125 163.26300048828125
v 216.62899780273438 143.39500427246094 163.23500061035156
v 223.27499389648438 142.6179962158203 172.74600219726562
v 222.83999633789062 143.01199340820312 172.75799560546875
v 223.7689971923828 143.281005859375 172.50900268554688
v 222.47900390625 141.93299865722656 172.8000030517578
v 211.5469970703125 145.76699829101562 166.91900634765625
v 212.1009979248047 145.7010040283203 165.90199279785156
v 217.74000549316406 143.4949951171875 163.20399475097656
v 218.90899658203125 143.5500030517578 163.2740020751953
v 222.58399963378906 138.17300415039062 165.70899963378906
v 223.28599548339844 138.4199981689453 166.71200561523438
v 221.6790008544922 138.06100463867188 165.58799743652344
v 213.79400634765625 152.41400146484375 169.94400024414062
v 214.61399841308594 152.61599731445312 170.3939971923828
v 213.89999389648438 152.06700134277344 171.01400756835938
v 214.7270050048828 152.45899963378906 169.0260009765625
v 219.0800018310547 150.8509979248047 171.97999572753906
v 219.0050048828125 150.0050048828125 172.5679931640625
v 219.54100036621094 151.22500610351562 171.4290008544922
v 220.23800659179688 143.64100646972656 163.43899536132812
v 222.468994140625 140.34100341796875 172.76300048828125
v 221.43600463867188 139.62399291992188 172.8000030517578
v 221.74899291992188 140.47300720214844 172.8000030517578
v 222.4600067138672 139.54800415039062 172.75999450683594
v 210.2100067138672 147.70199584960938 172.0019989013672
v 210.95899963378906 148.6439971923828 172.26699829101562
v 210.0469970703125 148.31700134277344 171.38800048828125
v 108.68800354003906 175.35400390625 171.76300048828125
v 108.19400024414062 174.81500244140625 171.4969940185547
v 222.4040069580078 148.05799865722656 169.35699462890625
v 223.09100341796875 148.1060028076172 169.86399841308594
v 222.3520050048828 148.9759979248047 169.8209991455078
v 222.96400451660156 147.05799865722656 169.41700744628906
v 218.0189971923828 151.06900024414062 167.86199951171875
v 218.63900756835938 150.30799865722656 167.71299743652344
v 219.05999755859375 151.2989959716797 168.30599975585938
v 218.00100708007812 149.96200561523438 167.06100463867188
v 221.69700622558594 141.1510009765625 172.8000030517578
v 221.74000549316406 142.281005859375 172.8000030517578
v 222.00999450683594 143.56300354003906 164.0030059814453
v 221.33700561523438 143.3489990234375 163.53799438476562
v 222.47900390625 141.14300537109375 172.7830047607422
v 224.197998046875 139.11900329589844 164.78500366210938
v 224.67799377441406 139.08900451660156 165.43099975585938
v 224.8509979248047 139.6750030517578 165.02000427246094
v 223.85000610351562 138.61300659179688 165.47500610351562
v 222.7220001220703 137.32400512695312 169.67100524902344
v 222.4669952392578 137.6699981689453 168.62100219726562
v 218.96600341796875 149.44000244140625 166.97000122070312
v 108.48899841308594 173.55099487304688 172.072998046875
v 108.61599731445312 174.10800170898438 172.35699462890625
v 109.10600280761719 173.52499389648438 172.44900512695312
v 108.16600036621094 173.8699951171875 171.84800720214844
v 214.38699340820312 144.27000427246094 163.55799865722656
v 213.697998046875 144.31399536132812 164.0679931640625
v 215.19900512695312 144.45700073242188 163.2899932861328
v 219.2760009765625 142.77999877929688 173.35499572753906
v 218.02499389648438 142.0279998779297 173.8179931640625
v 218.25 142.98899841308594 174.2100067138672
v 108.20500183105469 172.72500610351562 170.90699768066406
v 108.23999786376953 173.27099609375 171.44400024414062
v 107.90599822998047 172.81700134277344 170.39199829101562
v 224.71800231933594 139.53700256347656 166.6479949951172
v 225.14700317382812 140.24899291992188 166.32400512695312
v 225.09800720214844 139.58299255371094 165.78700256347656
v 224.58200073242188 140.0919952392578 167.38900756835938
v 213.927001953125 138.38999938964844 172.47900390625
v 213.2209930419922 138.96800231933594 172.47999572753906
v 214.01499938964844 138.99099731445312 172.7429962158203
v 213.45799255371094 138.26600646972656 171.7270050048828
v 225.4429931640625 141.04400634765625 165.88099670410156
v 225.3260040283203 140.33799743652344 165.4239959716797
v 225.0189971923828 141.03399658203125 166.677001953125
v 221.99899291992188 143.427001953125 172.7830047607422
v 223.27200317382812 144.0189971923828 172.5679931640625
v 214.66600036621094 138.8509979248047 172.7550048828125
v 214.7220001220703 138.25999450683594 172.57000732421875
v 220.906005859375 138.03799438476562 172.73399353027344
v 220.86300659179688 138.7010040283203 172.8000030517578
v 221.6929931640625 138.80099487304688 172.7830047607422
v 220.13299560546875 138.04200744628906 172.75999450683594
v 217.35299682617188 144.24099731445312 163.21299743652344
v 212.68800354003906 139.0279998779297 171.72500610351562
v 213.29400634765625 138.36700439453125 170.62899780273438
v 213.27000427246094 142.38099670410156 166.5279998779297
v 213.70599365234375 142.5970001220703 165.39999389648438
v 213.05499267578125 143.3979949951172 165.4980010986328
v 213.7449951171875 141.7259979248047 166.48300170898438
v 218.552001953125 144.32400512695312 163.29600524902344
v 219.88099670410156 144.54100036621094 163.7010040283203
v 220.7220001220703 146.6909942626953 172.82400512695312
v 221.23199462890625 147.35499572753906 172.75599670410156
v 221.92100524902344 146.281005859375 172.75100708007812
v 219.83799743652344 147.43699645996094 172.843994140625
v 109.11699676513672 174.8769989013672 172.53799438476562
v 220.9149932861328 140.36900329589844 172.8000030517578
v 111.05699920654297 173.9080047607422 172.39700317382812
v 110.48300170898438 173.843994140625 172.67999267578125
v 110.6510009765625 174.52699279785156 172.55599975585938
v 110.58999633789062 173.3419952392578 172.39100646972656
v 221.13299560546875 144.19900512695312 163.95899963378906
v 211.3699951171875 146.8800048828125 166.8249969482422
v 212.0399932861328 147.3459930419922 166.26400756835938
v 211.61599731445312 148.09100341796875 166.70799255371094
v 212.0500030517578 146.49600219726562 166.10699462890625
v 212.42300415039062 142.18099975585938 173.072998046875
v 211.66200256347656 142.04800415039062 172.4320068359375
v 211.56900024414062 142.77499389648438 172.89999389648438
v 212.2220001220703 141.32699584960938 172.5019989013672
v 212.11700439453125 152.00399780273438 169.9239959716797
v 212.9080047607422 152.31300354003906 170.0800018310547
v 212.39199829101562 151.9040069580078 170.7989959716797
v 212.63400268554688 152.2480010986328 169.0330047607422
v 216.26199340820312 152.7270050048828 170.96299743652344
v 216.96600341796875 152.98199462890625 170.36099243164062
v 217.0449981689453 152.71299743652344 170.9600067138672
v 216.281005859375 152.97900390625 170.31100463867188
v 213.98399353027344 145.14599609375 163.5399932861328
v 213.25399780273438 145.36199951171875 164.0659942626953
v 214.76600646972656 145.13400268554688 163.28799438476562
v 220.17300415039062 143.5290069580078 173.01100158691406
v 219.4600067138672 143.80099487304688 173.71299743652344
v 215.5489959716797 145.218994140625 163.218994140625
v 107.50199890136719 173.4290008544922 170.29100036621094
v 214.53399658203125 137.80499267578125 171.91799926757812
v 223.1820068359375 140.99200439453125 172.58700561523438
v 223.13499450683594 140.1479949951172 172.5260009765625
v 216.07200622558594 144.91200256347656 163.21499633789062
v 216.95599365234375 145.01400756835938 163.2429962158203
v 210.95199584960938 150.97999572753906 170.1219940185547
v 211.08599853515625 151.11399841308594 169.0780029296875
v 211.51100158691406 151.572998046875 169.88400268554688
v 210.43499755859375 150.5050048828125 169.31900024414062
v 218.04200744628906 145.0679931640625 163.31300354003906
v 219.90699768066406 152.14700317382812 170.49200439453125
v 220.5709991455078 151.71099853515625 170.40699768066406
v 220.11700439453125 151.58999633789062 170.98300170898438
v 220.0570068359375 151.9409942626953 169.927001953125
v 212.5919952392578 139.08399963378906 170.6840057373047
v 212.2729949951172 139.6649932861328 170.0189971923828
v 212.14199829101562 139.72799682617188 171.41900634765625
v 213.0659942626953 138.8489990234375 169.63499450683594
v 215.1269989013672 140.21499633789062 173.05099487304688
v 214.37100219726562 140.33099365234375 172.9759979248047
v 214.7030029296875 140.93800354003906 173.531005859375
v 214.63099670410156 139.59300231933594 172.83700561523438
v 219.01600646972656 145.25100708007812 163.60000610351562
v 225.2239990234375 142.78399658203125 169.8300018310547
v 225.46200561523438 142.7310028076172 170.4199981689453
v 225.1020050048828 143.54200744628906 170.41400146484375
v 225.43299865722656 141.95799255371094 169.83099365234375
v 109.87100219726562 174.00900268554688 172.73800659179688
v 221.61500549316406 147.95599365234375 172.5399932861328
v 222.34500122070312 147.2689971923828 172.52000427246094
v 220.44700622558594 148.33999633789062 172.73300170898438
v 224.2550048828125 139.42599487304688 168.4759979248047
v 224.14700317382812 138.81300354003906 169.32000732421875
v 224.83099365234375 139.7220001220703 169.38800048828125
v 223.4759979248047 138.5019989013672 168.3470001220703
v 223.48699951171875 144.9669952392578 168.39100646972656
v 221.14700317382812 144.61099243164062 172.83999633789062
v 211.03599548339844 144.53700256347656 174.06700134277344
v 210.8040008544922 144.281005859375 173.33999633789062
v 210.91000366210938 145.32400512695312 174.0780029296875
v 224.0919952392578 138.20700073242188 169.8459930419922
v 224.11000061035156 137.9770050048828 170.4040069580078
v 224.92999267578125 138.83399963378906 170.30099487304688
v 223.43499755859375 137.58099365234375 169.88800048828125
v 213.8209991455078 145.95599365234375 163.6009979248047
v 209.26699829101562 146.7989959716797 170.18299865722656
v 209.02499389648438 147.2989959716797 169.9550018310547
v 209.4320068359375 147.56199645996094 170.8730010986328
v 209.04600524902344 146.74200439453125 169.0659942626953
v 212.2570037841797 150.42100524902344 171.6719970703125
v 211.4550018310547 149.83099365234375 171.47500610351562
v 211.55599975585938 150.55999755859375 171.1999969482422
v 211.6490020751953 149.46600341796875 172.0290069580078
v 214.54100036621094 145.81300354003906 163.29299926757812
v 217.4199981689453 147.822998046875 164.61399841308594
v 218.33200073242188 146.9770050048828 164.4290008544922
v 218.50900268554688 147.91700744628906 164.8350067138672
v 217.16799926757812 146.8249969482422 163.9340057373047
v 215.3509979248047 146.11099243164062 163.27000427246094
v 216.39999389648438 145.78700256347656 163.28399658203125
v 225.36900329589844 141.66700744628906 166.18699645996094
v 225.5659942626953 141.83900451660156 165.63999938964844
v 216.2310028076172 138.81500244140625 172.76300048828125
v 215.4770050048828 138.1479949951172 172.50900268554688
v 215.4409942626953 138.82400512695312 172.75999450683594
v 216.31700134277344 138.06399536132812 172.59500122070312
v 217.46099853515625 145.8820037841797 163.48599243164062
v 221.00799560546875 148.30799865722656 167.593994140625
v 221.59100341796875 147.843994140625 166.39599609375
v 221.84300231933594 147.49200439453125 167.6479949951172
v 220.66700744628906 148.40699768066406 166.39500427246094
v 218.33900451660156 145.74000549316406 163.58799743652344
v 212.99899291992188 140.44700622558594 172.6540069580078
v 213.48500061035156 141.11500549316406 173.0229949951172
v 213.677001953125 139.63499450683594 172.7689971923828
v 109.16600036621094 176.61700439453125 170.48199462890625
v 109.77400207519531 176.51400756835938 171.37600708007812
v 110.33399963378906 176.35299682617188 171.64700317382812
v 110.5270004272461 175.9739990234375 172.03900146484375
v 218.71499633789062 144.33999633789062 174.25900268554688
v 222.4530029296875 147.22999572753906 166.4709930419922
v 213.2779998779297 148.1300048828125 174.33399963378906
v 213.0919952392578 148.75799560546875 174.06100463867188
v 214.31500244140625 148.87100219726562 174.06500244140625
v 213.11700439453125 146.1490020751953 164.322998046875
v 213.83599853515625 146.69400024414062 163.906005859375
v 112.20500183105469 174.63800048828125 170.89500427246094
v 111.67400360107422 174.73300170898438 171.47999572753906
v 112.02400207519531 175.40699768066406 170.88800048828125
v 112.01599884033203 173.86599731445312 171.0970001220703
v 213.072998046875 150.49600219726562 172.21499633789062
v 212.38900756835938 149.7259979248047 172.531005859375
v 213.18800354003906 151.3300018310547 171.40899658203125
v 214.58200073242188 146.54299926757812 163.4040069580078
v 214.99400329589844 144.83799743652344 174.39999389648438
v 213.29200744628906 143.91400146484375 174.36099243164062
v 212.802001953125 145.13999938964844 174.39999389648438
v 214.218994140625 143.13600158691406 174.3470001220703
v 220.86199951171875 151.04200744628906 170.95199584960938
v 221.23399353027344 151.0449981689453 170.44400024414062
v 215.2790069580078 143.18099975585938 174.37600708007812
v 216.14500427246094 146.7449951171875 163.51600646972656
v 214.65899658203125 146.36399841308594 174.39999389648438
v 216.94500732421875 146.94500732421875 174.2570037841797
v 211.82200622558594 143.16600036621094 173.55499267578125
v 211.2449951171875 143.38800048828125 173.1540069580078
v 211.5019989013672 143.7740020751953 173.97500610351562
v 209.58099365234375 148.9550018310547 170.11199951171875
v 209.64999389648438 148.78700256347656 168.9969940185547
v 209.79600524902344 149.6179962158203 169.33900451660156
v 209.2259979248047 148.0959930419922 170.1269989013672
v 216.81399536132812 146.38600158691406 163.4980010986328
v 218.02499389648438 146.3000030517578 163.90899658203125
v 215.8520050048828 137.5970001220703 172.0970001220703
v 218.83999633789062 146.1199951171875 164.03900146484375
v 219.8489990234375 145.61599731445312 164.18499755859375
v 221.5 150.51600646972656 170.08999633789062
v 222.125 149.58099365234375 170.4320068359375
v 111.28600311279297 174.45899963378906 172.09800720214844
v 111.08200073242188 175.04100036621094 172.0030059814453
v 217.6540069580078 136.9340057373047 168.52499389648438
v 216.9739990234375 136.59300231933594 169.11900329589844
v 217.80999755859375 136.34800720214844 169.34800720214844
v 216.56700134277344 137.33299255371094 168.31300354003906
v 217.92799377441406 137.8520050048828 166.91299438476562
v 218.8419952392578 137.5330047607422 166.8280029296875
v 218.35499572753906 138.18699645996094 165.9969940185547
v 218.3280029296875 137.1959991455078 167.7030029296875
v 214.5229949951172 147.156005859375 163.72799682617188
v 222.16900634765625 144.28199768066406 172.76300048828125
v 222.74200439453125 145.36700439453125 172.63600158691406
v 220.91099548339844 143.4929962158203 172.81700134277344
v 215.24600219726562 147.10899353027344 163.56399536132812
v 217.63499450683594 152.9709930419922 170.41900634765625
v 218.2259979248047 152.84300231933594 170.13800048828125
v 217.80599975585938 152.6959991455078 170.94700622558594
v 217.5500030517578 152.8419952392578 169.61000061035156
v 214.06199645996094 147.38999938964844 164.36199951171875
v 213.21600341796875 146.84100341796875 164.75399780273438
v 218.802001953125 152.6060028076172 169.9290008544922
v 218.6280059814453 152.57699584960938 170.7760009765625
v 218.177001953125 152.45899963378906 169.01800537109375
v 107.71199798583984 173.96299743652344 169.843994140625
v 210.80999755859375 143.88699340820312 172.2570037841797
v 219.33799743652344 152.32200622558594 170.1739959716797
v 214.9429931640625 147.7100067138672 164.14599609375
v 216.052001953125 147.62100219726562 164.11700439453125
v 223.6280059814453 139.1540069580078 171.94200134277344
v 223.15899658203125 138.6020050048828 172.12899780273438
v 223.11099243164062 139.36500549316406 172.51400756835938
v 223.99000549316406 138.76699829101562 171.38800048828125
v 220.1699981689453 139.10299682617188 172.8000030517578
v 219.8719940185547 139.97799682617188 172.8000030517578
v 222.92100524902344 148.62899780273438 170.39700317382812
v 223.58700561523438 147.91799926757812 170.4290008544922
v 219.15899658203125 138.08200073242188 165.23500061035156
v 213.875 150.4980010986328 172.61399841308594
v 213.20199584960938 149.8179931640625 172.91099548339844
v 222.48500061035156 148.8350067138672 170.96400451660156
v 223.24200439453125 148.06300354003906 170.95399475097656
v 219.97300720214844 138.01100158691406 165.1510009765625
v 220.65899658203125 138.01600646972656 164.74899291992188
v 221.3679962158203 138.02499389648438 164.80299377441406
v 222.18099975585938 138.05299377441406 164.82000732421875
v 223.03500366210938 138.2310028076172 164.7989959716797
v 108.66000366210938 177.27499389648438 169.2790069580078
v 108.81400299072266 177.71400451660156 168.8780059814453
v 108.53299713134766 176.53500366210938 169.44200134277344
v 217.01400756835938 139.00599670410156 165.16200256347656
v 222.16600036621094 147.59500122070312 165.6649932861328
v 222.18699645996094 147.1790008544922 165.1649932861328
v 222.8780059814453 146.968994140625 165.68499755859375
v 221.3509979248047 147.75599670410156 165.34300231933594
v 212.55299377441406 149.06700134277344 173.3730010986328
v 211.843994140625 149.15199279785156 172.67799377441406
v 214.99099731445312 148.05099487304688 174.17999267578125
v 213.48599243164062 146.36399841308594 174.39999389648438
v 214.13999938964844 147.7449951171875 174.36099243164062
v 217.80499267578125 138.59500122070312 165.2310028076172
v 111.50700378417969 173.8979949951172 171.82699584960938
v 217.4949951171875 141.0709991455078 173.3769989013672
v 216.7779998779297 141.7209930419922 174.14700317382812
v 213.14599609375 149.01499938964844 166.30099487304688
v 212.71200561523438 148.10299682617188 166.0780029296875
v 212.31500244140625 148.93699645996094 166.56100463867188
v 219.26800537109375 152.0240020751953 170.97999572753906
v 213.08900451660156 151.96800231933594 170.8769989013672
v 212.33900451660156 151.30999755859375 171.16799926757812
v 218.77099609375 151.4290008544922 171.46200561523438
v 110.1050033569336 172.85400390625 171.96200561523438
v 110.72899627685547 172.9720001220703 171.86700439453125
v 109.74800109863281 172.4669952392578 171.44400024414062
v 218.8470001220703 145.5800018310547 174.1020050048828
v 217.25100708007812 145.07000732421875 174.37100219726562
v 218.427001953125 146.53399658203125 174.0919952392578
v 111.36000061035156 173.1219940185547 171.44400024414062
v 111.09400177001953 173.36500549316406 172.0679931640625
v 220.8300018310547 138.0399932861328 165.48500061035156
v 223.2220001220703 138.33299255371094 165.71400451660156
v 215.71600341796875 138.2270050048828 167.84100341796875
v 215.82899475097656 139.1439971923828 166.87399291992188
v 214.74899291992188 139.1510009765625 167.71299743652344
v 217.06100463867188 137.89500427246094 167.5070037841797
v 218.4429931640625 147.4530029296875 173.42799377441406
v 212.31300354003906 145.84300231933594 174.39999389648438
v 211.56900024414062 145.10400390625 174.35499572753906
v 222.28500366210938 147.0760040283203 168.70599365234375
v 109.2969970703125 175.68099975585938 172.3489990234375
v 109.43000030517578 176.1820068359375 171.9720001220703
v 217.1510009765625 138.6580047607422 166.3159942626953
v 109.89399719238281 173.35699462890625 172.50799560546875
v 225.4010009765625 139.60299682617188 170.66900634765625
v 224.64500427246094 138.76800537109375 170.9199981689453
v 225.4320068359375 139.68499755859375 169.98399353027344
v 213.41299438476562 149.2570037841797 173.58399963378906
v 113.0770034790039 174.8459930419922 168.8699951171875
v 112.8239974975586 174.06399536132812 168.71299743652344
v 112.94000244140625 174.58099365234375 169.55599975585938
v 112.80599975585938 174.7689971923828 168.27999877929688
v 110.52899932861328 176.71600341796875 170.44700622558594
v 111.38800048828125 176.51300048828125 170.19000244140625
v 110.927001953125 176.17799377441406 171.26199340820312
v 111.31800079345703 176.68699645996094 169.13699340820312
v 215.1699981689453 149.28700256347656 173.5800018310547
v 216.09500122070312 149.0030059814453 173.50100708007812
v 221.48599243164062 150.3489990234375 170.8780059814453
v 224.21600341796875 139.8470001220703 164.51800537109375
v 214.81399536132812 140.04200744628906 166.82699584960938
v 213.96099853515625 140.8990020751953 167.1009979248047
v 213.95199584960938 140 167.74200439453125
v 214.8769989013672 140.69200134277344 165.74200439453125
v 216.51100158691406 139.84500122070312 172.91200256347656
v 217.052001953125 139.53500366210938 172.80999755859375
v 211.5500030517578 146.66400146484375 174.36099243164062
v 210.9029998779297 146.11300659179688 174.08399963378906
v 211.60400390625 141.43600463867188 171.76699829101562
v 211.9980010986328 140.60299682617188 171.83399963378906
v 224.2030029296875 140.6269989013672 164.4709930419922
v 224.83399963378906 140.4429931640625 164.83999633789062
v 224.3769989013672 145.46499633789062 165.6269989013672
v 224.48399353027344 144.93899536132812 165.156005859375
v 225.0850067138672 144.6739959716797 165.593994140625
v 223.718994140625 145.71099853515625 165.15499877929688
v 214.72000122070312 141.25 165.02200317382812
v 214.3209991455078 141.2270050048828 165.85499572753906
v 222.468994140625 137.26800537109375 171.19000244140625
v 221.70899963378906 137.2469940185547 171.7100067138672
v 222.45700073242188 137.9669952392578 172.11500549316406
v 215.93699645996094 147.7830047607422 174.2239990234375
v 217.15199279785156 148.55799865722656 173.4759979248047
v 215.67999267578125 140.02699279785156 165.52699279785156
v 215.4429931640625 141.7270050048828 174.15699768066406
v 216.875 143.23599243164062 174.39999389648438
v 214.25 141.95399475097656 174.125
v 224.17100524902344 141.4080047607422 164.4770050048828
v 224.81300354003906 141.2239990234375 164.80099487304688
v 225.3560028076172 141.13699340820312 165.19400024414062
v 221.093994140625 137.15899658203125 172.00799560546875
v 220.8470001220703 137.42100524902344 172.45399475097656
v 221.6649932861328 137.99600219726562 172.55599975585938
v 220.35499572753906 136.8679962158203 171.95899963378906
v 212.3730010986328 143.49200439453125 174.13600158691406
v 212.0030059814453 144.33399963378906 174.33200073242188
v 217.65199279785156 151.51499938964844 171.7259979248047
v 218.2259979248047 152.08700561523438 171.1999969482422
v 217.22900390625 152.14100646972656 171.37100219726562
v 214.24899291992188 141.8520050048828 165.1929931640625
v 109.37699890136719 172.906005859375 171.9669952392578
v 110.8949966430664 175.63499450683594 171.875
v 111.36000061035156 175.54100036621094 171.4040069580078
v 223.18499755859375 144.75799560546875 172.4949951171875
v 223.59800720214844 145.76800537109375 171.98199462890625
v 224.02499389648438 142.2689971923828 164.52999877929688
v 224.79100036621094 142.00900268554688 164.8090057373047
v 225.35299682617188 141.93299865722656 165.1320037841797
v 108.78199768066406 173.11199951171875 171.8719940185547
v 217.8260040283203 137.39599609375 172.51800537109375
v 217.79400634765625 138.06900024414062 172.7550048828125
v 218.56900024414062 138.04200744628906 172.75999450683594
v 217.0030059814453 137.54100036621094 172.46400451660156
v 214.3979949951172 142.51400756835938 164.5240020751953
v 111.59700012207031 176.08200073242188 170.8159942626953
v 223.35800170898438 142.98899841308594 164.47300720214844
v 224.11099243164062 143.24200439453125 164.73899841308594
v 224.781005859375 142.81300354003906 164.843994140625
v 225.3489990234375 142.71200561523438 165.1320037841797
v 225.5780029296875 142.63299560546875 165.6060028076172
v 223.82200622558594 147.30499267578125 170.1219940185547
v 223.58799743652344 146.4250030517578 169.66299438476562
v 224.14700317382812 146.59100341796875 170.39500427246094
v 217.74200439453125 139.177001953125 172.8000030517578
v 217.02699279785156 138.5 172.75799560546875
v 218.60800170898438 137.37600708007812 172.5229949951172
v 218.0240020751953 136.85499572753906 172
v 109.73899841308594 176.83999633789062 170.40899658203125
v 213.00799560546875 146.97300720214844 174.39999389648438
v 213.81900024414062 143.36399841308594 164.593994140625
v 219.2469940185547 138.7530059814453 172.8000030517578
v 218.64300537109375 139.177001953125 172.8000030517578
v 215.90699768066406 150.14199829101562 172.927001953125
v 216.27999877929688 151.19500732421875 172.48500061035156
v 217.0070037841797 151.01699829101562 172.46400451660156
v 215.4709930419922 151.02000427246094 172.552001953125
v 216.95199584960938 149.9499969482422 172.80799865722656
v 222.61099243164062 143.73399353027344 164.4530029296875
v 223.08200073242188 146.49200439453125 172.4149932861328
v 222.92599487304688 147.30099487304688 172.0030059814453
v 223.47900390625 146.69500732421875 171.8719940185547
v 212.30999755859375 144.9320068359375 165.51100158691406
v 223.38900756835938 143.97000122070312 164.7239990234375
v 213.5260009765625 141.89500427246094 173.59800720214844
v 213.21800231933594 142.83799743652344 174.1280059814453
v 224.78599548339844 143.55799865722656 164.8990020751953
v 225.31399536132812 143.4669952392578 165.12899780273438
v 225.55499267578125 143.3990020751953 165.58200073242188
v 221.28500366210938 146.98199462890625 164.8820037841797
v 221.947998046875 146.40699768066406 164.86599731445312
v 220.7239990234375 146.1479949951172 164.656005859375
v 210.5279998779297 148.07899475097656 167.67999267578125
v 210.7899932861328 147.50999450683594 167.32000732421875
v 211.03399658203125 148.38900756835938 167.27499389648438
v 210.02999877929688 147.2480010986328 167.8990020751953
v 112.08599853515625 175.9720001220703 170.44500732421875
v 220.16200256347656 149.093994140625 167.6199951171875
v 216.7729949951172 152.8419952392578 169.60000610351562
v 213.2519989013672 144.0489959716797 164.67300415039062
v 212.70199584960938 144.2550048828125 165.16600036621094
v 221.8350067138672 144.48599243164062 164.46200561523438
v 224.60000610351562 140.36000061035156 168.50900268554688
v 224.0590057373047 139.08599853515625 167.3730010986328
v 112.56900024414062 174.0959930419922 170.1999969482422
v 112.33499908447266 173.42100524902344 170.343994140625
v 112.51499938964844 173.41900634765625 169.3459930419922
v 222.60800170898438 144.7469940185547 164.7239990234375
v 224.29100036621094 144.1719970703125 164.88400268554688
v 219.99600219726562 135.86599731445312 170.6510009765625
v 219.5989990234375 135.84500122070312 169.8350067138672
v 212.55099487304688 139.7010040283203 172.37600708007812
v 225.0780029296875 144.1999969482422 165.1479949951172
v 225.46400451660156 144.02099609375 165.4949951171875
v 219.38999938964844 137.37600708007812 172.5229949951172
v 219.3509979248047 138.04200744628906 172.75999450683594
v 215.25799560546875 152.8090057373047 169.66299438476562
v 215.48899841308594 152.76800537109375 170.6929931640625
v 215.99099731445312 152.8419952392578 169.60000610351562
v 212.91900634765625 144.80599975585938 164.6300048828125
v 216.4510040283203 152.1959991455078 171.4340057373047
v 225.3730010986328 142.48800659179688 170.91099548339844
v 224.906005859375 143.30099487304688 171.156005859375
v 225.67799377441406 141.88400268554688 170.38299560546875
v 220.91400146484375 145.07899475097656 164.38900756835938
v 210.66700744628906 143.31199645996094 171.26400756835938
v 210.14599609375 144.09500122070312 170.66799926757812
v 210.45399475097656 144.4510040283203 171.51100158691406
v 210.41799926757812 144.89300537109375 172.25100708007812
v 215.91600036621094 140.58799743652344 173.44000244140625
v 215.40199279785156 139.5679931640625 172.83900451660156
v 221.7790069580078 145.4669952392578 164.718994140625
v 216.3040008544922 137.02000427246094 171.62899780273438
v 216.8800048828125 136.5500030517578 171.39700317382812
v 216.29200744628906 136.41400146484375 170.99600219726562
v 217.28199768066406 136.93600463867188 171.98199462890625
v 223.56300354003906 144.93099975585938 164.8780059814453
v 215.0500030517578 137.27699279785156 171.24000549316406
v 111.3239974975586 172.55999755859375 170.83999633789062
v 111.9229965209961 173.06300354003906 170.80099487304688
v 220.15499877929688 136.3560028076172 169.33599853515625
v 213.50100708007812 138.87899780273438 168.86700439453125
v 212.66200256347656 139.67100524902344 168.97900390625
v 213.91099548339844 137.99099731445312 169.7100067138672
v 218.80099487304688 136.85000610351562 172
v 219.58299255371094 136.85000610351562 172
v 214.82400512695312 150.20899963378906 172.93299865722656
v 223.9290008544922 138.0919952392578 170.97300720214844
v 223.19400024414062 137.41000366210938 170.5679931640625
v 111.23600006103516 172.3459930419922 170.26499938964844
v 212.62100219726562 145.60000610351562 164.8800048828125
v 107.71299743652344 174.61700439453125 169.91200256347656
v 108.17500305175781 175.24600219726562 169.75
v 209.5500030517578 146.31399536132812 170.47500610351562
v 209.2100067138672 146.06900024414062 169.63099670410156
v 223.38900756835938 138.0290069580078 169.3509979248047
v 223.64700317382812 139.82400512695312 172
v 220.7779998779297 151.3090057373047 169.8509979248047
v 222.78399658203125 145.70700073242188 164.87899780273438
v 222.4409942626953 138.77699279785156 172.70399475097656
v 111.6989974975586 172.60400390625 170.4239959716797
v 222.16200256347656 148.08700561523438 172.00599670410156
v 112.01100158691406 172.9149932861328 169.85400390625
v 212.5760040283203 146.29299926757812 165.2429962158203
v 212.65899658203125 147.04800415039062 165.60299682617188
v 224.79800415039062 144.2550048828125 170.11399841308594
v 224.66600036621094 144.51300048828125 170.93899536132812
v 218.07400512695312 140.28700256347656 172.83599853515625
v 219.49600219726562 146.61900329589844 164.5279998779297
v 109.25299835205078 174.1840057373047 172.70899963378906
v 220.35000610351562 147.3179931640625 164.86199951171875
v 212.85299682617188 150.4219970703125 167.16600036621094
v 213.5959930419922 150.2740020751953 166.73500061035156
v 214.0290069580078 137.71499633789062 170.8179931640625
v 222.95899963378906 146.46800231933594 165.16099548339844
v 223.61000061035156 146.24000549316406 165.66400146484375
v 213.4980010986328 147.6719970703125 165.2220001220703
v 219.26199340820312 147.6269989013672 164.8179931640625
v 215.28799438476562 151.7209930419922 171.94200134277344
v 215.66200256347656 152.2050018310547 171.4340057373047
v 219.27999877929688 135.60400390625 170.34500122070312
v 219.30799865722656 135.83099365234375 170.9530029296875
v 224.677001953125 142.25 171.60000610351562
v 225.4219970703125 141.6649932861328 170.93499755859375
v 209.2169952392578 147.6999969482422 169.0959930419922
v 209.3990020751953 147.3179931640625 168.36500549316406
v 209.93299865722656 148.13299560546875 168.20399475097656
v 210.86700439453125 150.52499389648438 170.86599731445312
v 211.64199829101562 151.33799743652344 170.80599975585938
v 210.39700317382812 150.40699768066406 170.27499389648438
v 212.20899963378906 146.572998046875 174.39999389648438
v 211.5500030517578 145.8820037841797 174.36099243164062
v 212.5800018310547 142.81500244140625 173.7100067138672
v 223.67300415039062 140.59300231933594 172.02499389648438
v 215.40899658203125 148.43699645996094 164.86399841308594
v 216.38699340820312 148.3489990234375 164.781005859375
v 223.8769989013672 147.30499267578125 170.843994140625
v 209.93899536132812 146.02200317382812 171.24000549316406
v 224.3800048828125 138.97300720214844 166.27699279785156
v 210.0540008544922 145.1300048828125 171.21200561523438
v 223.8520050048828 144.78799438476562 171.81399536132812
v 219.8780059814453 148.2030029296875 165.24000549316406
v 224.1820068359375 143.86500549316406 171.83700561523438
v 220.572998046875 148.0540008544922 165.3459930419922
v 111.88700103759766 176.33099365234375 170.1300048828125
v 215.98599243164062 151.7030029296875 172
v 216.73399353027344 151.63299560546875 171.97999572753906
v 108.56300354003906 174.70599365234375 172.08200073242188
v 108.21499633789062 174.32400512695312 171.85299682617188
v 224.53500366210938 140.29200744628906 171.37399291992188
v 224.593994140625 141.1479949951172 171.41000366210938
v 225.43299865722656 140.88099670410156 170.92300415039062
v 219.11900329589844 136.34300231933594 171.43699645996094
v 210.86500549316406 142.0240020751953 170.79800415039062
v 211.22999572753906 141.85400390625 171.5850067138672
v 211.14700317382812 142.64999389648438 172.10499572753906
v 211.21099853515625 141.3300018310547 170.3209991455078
v 223.92300415039062 146.5260009765625 171.18600463867188
v 215.96099853515625 136.94400024414062 168.88600158691406
v 215.5489959716797 136.66799926757812 169.60000610351562
v 216.41299438476562 136.31700134277344 169.64599609375
v 215.0279998779297 137.39500427246094 168.8800048828125
v 218.2449951171875 148.68299865722656 165.2209930419922
v 219.11099243164062 148.54200744628906 165.27499389648438
v 219.7030029296875 148.85499572753906 166.26300048828125
v 220.23199462890625 148.4429931640625 165.7469940185547
v 219.24099731445312 148.68899536132812 172.79800415039062
v 214.2030029296875 149.6529998779297 173.3090057373047
v 211.9770050048828 151.7550048828125 168.72000122070312
v 211.49600219726562 151.11399841308594 168.31399536132812
v 210.72799682617188 150.4239959716797 168.3939971923828
v 215.58599853515625 137.56399536132812 168.37899780273438
v 218.0959930419922 149.3509979248047 166.052001953125
v 218.8249969482422 149.10699462890625 165.88299560546875
v 220.16700744628906 137.37600708007812 172.51400756835938
v 219.36900329589844 137.03399658203125 167.58599853515625
v 220.0189971923828 137.46200561523438 166.677001953125
v 220.4429931640625 137.05999755859375 167.4550018310547
v 109.28099822998047 172.30999755859375 169.8419952392578
v 112.56900024414062 174.9759979248047 170.3070068359375
v 221.2449951171875 137.1580047607422 167.52200317382812
v 222.6280059814453 146.62399291992188 167.67799377441406
v 223.3249969482422 145.76699829101562 167.5
v 222.8979949951172 145.9340057373047 168.79200744628906
v 223.2259979248047 146.49099731445312 166.45799255371094
v 223.23199462890625 141.89100646972656 172.73399353027344
v 218.13400268554688 151.031005859375 172.0469970703125
v 219.39199829101562 137.87600708007812 166.0570068359375
v 212.26300048828125 151.27099609375 168.03199768066406
v 220.21600341796875 137.8679962158203 166.02000427246094
v 220.97799682617188 137.8249969482422 166.1750030517578
v 221.85699462890625 148.9340057373047 171.44500732421875
v 210.78500366210938 149.11199951171875 171.49200439453125
v 223.83099365234375 141.54800415039062 172.22999572753906
v 223.88600158691406 142.5 172.50799560546875
v 209.39199829101562 146.70599365234375 168.2689971923828
v 209.21299743652344 145.93899536132812 168.72000122070312
v 209.83599853515625 146.0659942626953 168.0290069580078
v 214.49600219726562 137.2899932861328 170.35400390625
v 215.45399475097656 136.70399475097656 170.57400512695312
v 216.3730010986328 139.3509979248047 165.85299682617188
v 214.68099975585938 137.2760009765625 169.58799743652344
v 214.29400634765625 138.09100341796875 168.86000061035156
v 111.98400115966797 176.43600463867188 169.29100036621094
v 224.36399841308594 142.9969940185547 171.99899291992188
v 210.3699951171875 145.03199768066406 168
v 209.98800659179688 144.33399963378906 168.3090057373047
v 209.5019989013672 145.15199279785156 168.47799682617188
v 108.5009994506836 172.38499450683594 170.5229949951172
v 108.50199890136719 172.63499450683594 169.9239959716797
v 211.88499450683594 142.30599975585938 167.9499969482422
v 210.80599975585938 142.80799865722656 168.26100158691406
v 211.59300231933594 140.9669952392578 170.77000427246094
v 224.65899658203125 141.11199951171875 167.5229949951172
v 224.99099731445312 141.8509979248047 166.74000549316406
v 224.64300537109375 141.9239959716797 167.5260009765625
v 213.07000732421875 141.75599670410156 167.62399291992188
v 209.66000366210938 144.70399475097656 170.0570068359375
v 209.5050048828125 144.58900451660156 169.01400756835938
v 209.23300170898438 145.36500549316406 169.46800231933594
v 224.98800659179688 142.63499450683594 166.73899841308594
v 224.63699340820312 142.70700073242188 167.5240020751953
v 225.39500427246094 142.375 166.1510009765625
v 223.21299743652344 137.9080047607422 171.4040069580078
v 224.11900329589844 139.52999877929688 171.5050048828125
v 224.79299926757812 139.5449981689453 171.16200256347656
v 224.94000244140625 143.427001953125 166.7270050048828
v 225.37899780273438 143.16600036621094 166.13900756835938
v 210.71299743652344 146.11399841308594 167.64199829101562
v 224.66299438476562 144.23699951171875 166.781005859375
v 225.25999450683594 144.03599548339844 166.0570068359375
v 224.0030059814453 145.031005859375 167.11399841308594
v 224.70199584960938 144.9040069580078 166.177001953125
v 224.21299743652344 145.59300231933594 171.12100219726562
v 209.51199340820312 148.36300659179688 170.8070068359375
v 219.0489959716797 152.0970001220703 169.1179962158203
v 223.95700073242188 145.72300720214844 166.32699584960938
v 218.04200744628906 150.47799682617188 172.53500366210938
v 221.48500061035156 137.11700439453125 168.49600219726562
v 211.45199584960938 148.97000122070312 167.16799926757812
v 216.04800415039062 150.2989959716797 166.59800720214844
v 112.44000244140625 175.61599731445312 170.23599243164062
v 112.34300231933594 176.08399963378906 169.72000122070312
v 211.8489990234375 140.35299682617188 170.44000244140625
v 212.1009979248047 149.6909942626953 167.11500549316406
v 212.98800659179688 149.68800354003906 166.593994140625
v 223.36900329589844 147.36199951171875 171.41200256347656
v 221.8209991455078 149.55299377441406 171.03700256347656
v 210.29299926757812 143.46299743652344 168.39100646972656
v 214.88299560546875 150.875 167.19500732421875
v 215.68600463867188 150.875 167.19200134277344
v 216.4709930419922 150.83599853515625 167.20199584960938
v 218.11599731445312 148.86900329589844 172.95700073242188
v 217.7689971923828 149.65199279785156 172.79800415039062
v 212.31700134277344 147.41099548339844 174.38299560546875
v 213.26400756835938 139.781005859375 168.32400512695312
v 214.0469970703125 139.0500030517578 168.25799560546875
v 218.7519989013672 136.69400024414062 168.68499755859375
v 219.8730010986328 136.7310028076172 168.4949951171875
v 220.76800537109375 136.8260040283203 168.47000122070312
v 222.6230010986328 148.14999389648438 171.44200134277344
v 214.84100341796875 138.197998046875 168.3000030517578
v 211.8459930419922 141.20700073242188 168.50399780273438
v 212.43499755859375 141.41400146484375 168.03199768066406
v 212.49899291992188 140.50100708007812 168.41799926757812
v 212.1820068359375 150.51300048828125 167.71600341796875
v 211.197998046875 141.68899536132812 168.76100158691406
v 211.56300354003906 140.88600158691406 169.49899291992188
v 213.13699340820312 140.7530059814453 167.95399475097656
v 107.89600372314453 173.24400329589844 169.8699951171875
v 211.98800659179688 140.39700317382812 169.21200561523438
v 225.38699340820312 140.18499755859375 170.9459991455078
v 225.68499755859375 140.35299682617188 170.4219970703125
v 224.62100219726562 141.19400024414062 168.51800537109375
v 224.77499389648438 138.9720001220703 169.78399658203125
v 224.60800170898438 141.9720001220703 168.5229949951172
v 224.58799743652344 142.75 168.51400756835938
v 213.30099487304688 152.31900024414062 169.0399932861328
v 216.99899291992188 135.81399536132812 170.3800048828125
v 217.2570037841797 135.9459991455078 169.8300018310547
v 217.83599853515625 135.6060028076172 170.41700744628906
v 110.7300033569336 172.38999938964844 169.63699340820312
v 210.16299438476562 149.0240020751953 168.2169952392578
v 210.73599243164062 148.8780059814453 167.79100036621094
v 210.12600708007812 149.68899536132812 168.4499969482422
v 210.75599670410156 149.7270050048828 168.03199768066406
v 211.41000366210938 149.7209930419922 167.71600341796875
v 210.13600158691406 150.11099243164062 168.9250030517578
v 211.50599670410156 150.50999450683594 168
v 111.46199798583984 172.53700256347656 169.843994140625
v 215.4409942626953 151.43299865722656 167.76300048828125
v 216.2310028076172 151.42300415039062 167.76600646972656
v 217.0240020751953 151.3520050048828 167.79200744628906
v 212.86900329589844 151.92599487304688 168.3090057373047
v 213.63299560546875 151.947998046875 168.25999450683594
v 214.40899658203125 151.9720001220703 168.25399780273438
v 215.197998046875 151.98300170898438 168.25399780273438
v 215.99099731445312 151.98300170898438 168.23699951171875
v 216.78199768066406 151.97300720214844 168.24000549316406
v 217.58200073242188 151.968994140625 168.26499938964844
v 218.46099853515625 151.8820037841797 168.38499450683594
v 213.9980010986328 152.3159942626953 168.8470001220703
v 215.6230010986328 152.4709930419922 168.8560028076172
v 216.41600036621094 152.4709930419922 168.83999633789062
v 217.197998046875 152.4709930419922 168.83999633789062
v 110.4469985961914 172.86099243164062 168.85400390625
v 110.04100036621094 173.4459991455078 168.34300231933594
v 109.78199768066406 172.98899841308594 168.9080047607422
v 110.88899993896484 173.35499572753906 168.2989959716797
v 109.43000030517578 173.3699951171875 168.72000122070312
v 111.33899688720703 172.85499572753906 169.01400756835938
v 111.67500305175781 173.375 168.30299377441406
v 112.01899719238281 173.0850067138672 168.8800048828125
v 112.2969970703125 173.4550018310547 168.4510040283203
v 109.40499877929688 174.0050048828125 168.34300231933594
v 108.97899627685547 173.66900634765625 168.91099548339844
v 108.77300262451172 174.26600646972656 168.82000732421875
v 110.05500030517578 174.1490020751953 168.06100463867188
v 110.69599914550781 174.0330047607422 168.0449981689453
v 111.4739990234375 174.01400756835938 168.0399932861328
v 112.23100280761719 174.0290069580078 168.0989990234375
v 109.23500061035156 174.8249969482422 168.2790069580078
v 108.6760025024414 175.0189971923828 168.85499572753906
v 109.91699981689453 174.78399658203125 168.0449981689453
v 110.66500091552734 174.78900146484375 168
v 111.4229965209961 174.76499938964844 168
v 112.1709976196289 174.77000427246094 168.0449981689453
v 109.11599731445312 175.6999969482422 168.26699829101562
v 109.86900329589844 175.55599975585938 168.03700256347656
v 110.62100219726562 175.552001953125 168.01699829101562
v 111.38999938964844 175.53500366210938 168.04200744628906
v 112.03299713134766 175.40499877929688 168.06100463867188
v 112.6520004272461 175.54100036621094 168.33299255371094
v 113.03399658203125 175.33399963378906 168.69400024414062
v 108.63099670410156 176.35000610351562 168.36000061035156
v 108.37899780273438 176.197998046875 168.84300231933594
v 109.24400329589844 176.4709930419922 168.05099487304688
v 109.84500122070312 176.33399963378906 168.03900146484375
v 110.47200012207031 176.2030029296875 168.0469970703125
v 111.1449966430664 176.35400390625 168.25599670410156
v 111.9990005493164 176.1060028076172 168.39700317382812
v 112.55500030517578 176.0399932861328 168.88499450683594
v 112.91100311279297 175.7220001220703 168.79800415039062
v 109.09700012207031 177.0780029296875 168.11000061035156
v 109.71399688720703 176.9739990234375 168.0570068359375
v 110.41999816894531 177.031005859375 168.2899932861328
v 110.90799713134766 176.98300170898438 168.7259979248047
v 109.68199920654297 177.6269989013672 168.33900451660156
v 110.12999725341797 177.677001953125 168.71299743652344
v 110.48200225830078 177.38800048828125 168.88600158691406
v 109.25700378417969 177.9219970703125 168.7169952392578
v 109.6719970703125 177.9149932861328 168.8780059814453
v 218.0500030517578 135.83799743652344 169.84300231933594
v 218.60800170898438 135.59500122070312 170.39999389648438
v 218.83900451660156 135.83099365234375 169.83700561523438
v 216.21200561523438 136.17799377441406 170.35499572753906
v 218.5449981689453 136.26100158691406 169.4219970703125
v 219.3509979248047 136.32400512695312 169.322998046875
v 218.33700561523438 136.34300231933594 171.43699645996094
v 109.99199676513672 177.11300659179688 169.85899353027344
v 219.90499877929688 136.3489990234375 171.40699768066406
v 224.9510040283203 140.6280059814453 169.3260040283203
v 225.4429931640625 140.4010009765625 169.85000610351562
v 224.9600067138672 141.42100524902344 169.322998046875
v 225.4530029296875 141.19000244140625 169.83700561523438
v 225.68899536132812 141.11199951171875 170.39999389648438
v 224.93499755859375 142.1999969482422 169.3249969482422
v 216.94400024414062 136.06100463867188 170.9459991455078
v 217.76199340820312 135.8509979248047 170.968994140625
v 224.81399536132812 142.89999389648438 169.26800537109375
v 224.8040008544922 143.54800415039062 169.58299255371094
v 209.57899475097656 145.63800048828125 170.36500549316406
v 112.83899688720703 175.4669952392578 169.41200256347656
v 209.82000732421875 149.5489959716797 170.30299377441406
v 210.03500366210938 150.06199645996094 169.8769989013672
v 219.572998046875 151.9459991455078 169.48699951171875
v 109.87300109863281 172.54600524902344 169.406005859375
v 108.36399841308594 173.1790008544922 169.61700439453125
v 109.0510025024414 173.0540008544922 169.3489990234375
v 108.36900329589844 173.74000549316406 169.41000366210938
v 112.85199737548828 173.96400451660156 169.4459991455078
v 108.20700073242188 174.53799438476562 169.4040069580078
v 109.22899627685547 177.1199951171875 169.7469940185547
v 110.5780029296875 177.13900756835938 169.3939971923828
v 109.18399810791016 177.7209930419922 169.21800231933594
v 109.90799713134766 177.5679931640625 169.29800415039062
v 218.52999877929688 135.83099365234375 170.96299743652344
v 217.56100463867188 136.38699340820312 171.43099975585938
v 210.0189971923828 149.08700561523438 170.9530029296875
v 210.2239990234375 149.90499877929688 170.7530059814453
v 210.78500366210938 149.79600524902344 171.1790008544922
v 220.92799377441406 150.50599670410156 171.19500732421875

g grp1
usemtl mtl1
f 3 2 1 
f 4 1 2 
f 5 2 3 
f 1 4 6 
f 7 6 4 
f 6 7 8 
f 9 8 7 
f 8 9 10 
f 11 10 9 
f 10 11 12 
f 13 12 11 
f 16 15 14 
f 17 14 15 
f 20 19 18 
f 21 18 19 
f 24 23 22 
f 25 22 23 
f 28 27 26 
f 29 26 27 
f 32 31 30 
f 33 30 31 
f 5 35 34 
f 36 34 35 
f 34 2 5 
f 37 2 34 
f 38 4 2 
f 38 2 37 
f 39 7 4 
f 39 4 38 
f 40 9 7 
f 40 7 39 
f 41 11 9 
f 41 9 40 
f 42 13 11 
f 42 11 41 
f 45 44 43 
f 46 43 44 
f 47 13 42 
f 49 22 48 
f 50 48 22 
f 53 52 51 
f 54 51 52 
f 24 22 49 
f 55 16 14 
f 58 57 56 
f 59 56 57 
f 56 36 58 
f 35 58 36 
f 60 36 56 
f 61 34 36 
f 61 36 60 
f 62 37 34 
f 62 34 61 
f 63 38 37 
f 63 37 62 
f 64 39 38 
f 64 38 63 
f 65 40 39 
f 65 39 64 
f 66 41 40 
f 66 40 65 
f 67 42 41 
f 67 41 66 
f 68 47 42 
f 68 42 67 
f 70 69 47 
f 13 47 69 
f 70 47 68 
f 71 56 59 
f 74 73 72 
f 75 72 73 
f 76 60 56 
f 76 56 71 
f 77 61 60 
f 77 60 76 
f 78 62 61 
f 78 61 77 
f 79 63 62 
f 79 62 78 
f 80 64 63 
f 80 63 79 
f 81 65 64 
f 81 64 80 
f 82 66 65 
f 82 65 81 
f 83 67 66 
f 83 66 82 
f 84 68 67 
f 84 67 83 
f 85 70 68 
f 85 68 84 
f 59 87 86 
f 88 86 87 
f 91 90 89 
f 92 89 90 
f 71 59 86 
f 93 71 86 
f 93 76 71 
f 96 95 94 
f 97 94 95 
f 100 99 98 
f 101 98 99 
f 102 77 76 
f 102 76 93 
f 103 78 77 
f 103 77 102 
f 104 79 78 
f 104 78 103 
f 105 80 79 
f 105 79 104 
f 106 81 80 
f 106 80 105 
f 107 82 81 
f 107 81 106 
f 108 83 82 
f 108 82 107 
f 109 84 83 
f 109 83 108 
f 110 85 84 
f 110 84 109 
f 111 86 88 
f 112 111 88 
f 113 93 86 
f 113 86 111 
f 115 114 95 
f 97 95 114 
f 116 93 113 
f 14 117 55 
f 118 55 117 
f 119 102 93 
f 116 119 93 
f 119 103 102 
f 122 121 120 
f 123 120 121 
f 126 125 124 
f 127 124 125 
f 128 104 103 
f 128 103 119 
f 129 105 104 
f 129 104 128 
f 129 106 105 
f 132 131 130 
f 133 130 131 
f 136 135 134 
f 137 134 135 
f 138 107 106 
f 138 106 129 
f 141 140 139 
f 142 139 140 
f 108 107 138 
f 145 144 143 
f 146 143 144 
f 147 109 108 
f 149 148 144 
f 150 144 148 
f 151 141 139 
f 152 110 109 
f 152 109 147 
f 153 111 112 
f 154 153 112 
f 155 113 111 
f 155 111 153 
f 156 116 113 
f 156 113 155 
f 157 119 116 
f 157 116 156 
f 159 120 158 
f 160 158 120 
f 161 119 157 
f 164 163 162 
f 165 162 163 
f 161 128 119 
f 168 167 166 
f 169 166 167 
f 172 171 170 
f 173 170 171 
f 174 129 128 
f 174 128 161 
f 176 175 131 
f 177 131 175 
f 178 129 174 
f 181 180 179 
f 182 179 180 
f 178 138 129 
f 185 184 183 
f 186 183 184 
f 188 187 184 
f 186 184 187 
f 189 108 138 
f 189 138 178 
f 189 190 147 
f 191 147 190 
f 147 108 189 
f 141 193 192 
f 194 192 193 
f 152 147 191 
f 196 195 31 
f 197 31 195 
f 198 153 154 
f 201 200 199 
f 92 199 200 
f 202 153 198 
f 203 155 153 
f 203 153 202 
f 203 156 155 
f 206 205 204 
f 207 204 205 
f 122 208 121 
f 209 121 208 
f 210 157 156 
f 210 156 203 
f 211 161 157 
f 211 157 210 
f 213 166 212 
f 214 212 166 
f 217 216 215 
f 218 215 216 
f 220 115 219 
f 221 219 115 
f 222 174 161 
f 194 172 170 
f 211 222 161 
f 225 224 223 
f 226 223 224 
f 197 228 227 
f 229 227 228 
f 141 192 230 
f 231 230 192 
f 234 233 232 
f 235 232 233 
f 238 237 236 
f 239 236 237 
f 207 241 240 
f 48 240 241 
f 243 242 189 
f 190 189 242 
f 207 240 244 
f 225 244 240 
f 243 189 178 
f 247 246 245 
f 248 245 246 
f 250 249 183 
f 185 183 249 
f 238 130 237 
f 251 237 130 
f 254 253 252 
f 255 252 253 
f 198 154 256 
f 257 256 154 
f 258 198 256 
f 258 202 198 
f 261 260 259 
f 23 259 260 
f 263 173 262 
f 264 262 173 
f 267 266 265 
f 268 265 266 
f 271 270 269 
f 272 269 270 
f 274 273 266 
f 275 266 273 
f 277 276 205 
f 241 205 276 
f 271 269 278 
f 279 278 269 
f 282 281 280 
f 283 280 281 
f 284 210 203 
f 270 285 272 
f 286 272 285 
f 289 288 287 
f 290 287 288 
f 291 211 210 
f 291 210 284 
f 292 211 291 
f 194 231 192 
f 292 222 211 
f 295 294 293 
f 296 293 294 
f 297 137 135 
f 48 298 240 
f 225 240 298 
f 301 300 299 
f 302 299 300 
f 293 74 72 
f 222 303 243 
f 242 243 303 
f 306 305 304 
f 307 304 305 
f 222 243 174 
f 178 174 243 
f 310 309 308 
f 311 308 309 
f 314 313 312 
f 315 312 313 
f 318 317 316 
f 319 316 317 
f 321 320 257 
f 256 257 320 
f 322 258 256 
f 322 256 320 
f 24 323 259 
f 324 259 323 
f 325 258 322 
f 326 264 173 
f 327 279 269 
f 244 223 328 
f 329 328 223 
f 325 330 258 
f 202 258 330 
f 331 284 202 
f 203 202 284 
f 331 202 330 
f 334 333 332 
f 335 332 333 
f 336 284 331 
f 339 338 337 
f 340 337 338 
f 336 291 284 
f 343 342 341 
f 344 341 342 
f 347 346 345 
f 348 345 346 
f 349 292 291 
f 349 291 336 
f 352 351 350 
f 353 350 351 
f 134 137 301 
f 354 301 137 
f 356 355 294 
f 357 294 355 
f 360 359 358 
f 361 358 359 
f 362 89 92 
f 72 75 363 
f 323 363 75 
f 74 293 296 
f 365 364 118 
f 366 118 364 
f 369 368 367 
f 370 367 368 
f 371 320 321 
f 374 373 372 
f 375 372 373 
f 378 377 376 
f 379 376 377 
f 380 322 320 
f 383 382 381 
f 384 381 382 
f 371 380 320 
f 385 325 322 
f 385 322 380 
f 386 330 325 
f 386 325 385 
f 386 331 330 
f 388 387 273 
f 275 273 387 
f 391 390 389 
f 392 389 390 
f 393 336 331 
f 393 331 386 
f 396 395 394 
f 397 394 395 
f 398 336 393 
f 400 399 346 
f 401 346 399 
f 403 402 142 
f 139 142 402 
f 403 136 404 
f 405 404 136 
f 406 324 73 
f 75 73 324 
f 343 341 285 
f 286 285 341 
f 407 395 396 
f 357 296 294 
f 410 409 408 
f 196 408 409 
f 412 371 411 
f 321 411 371 
f 415 414 413 
f 416 413 414 
f 418 417 376 
f 419 376 417 
f 227 15 33 
f 16 33 15 
f 420 380 371 
f 423 422 421 
f 424 421 422 
f 412 420 371 
f 426 338 425 
f 339 425 338 
f 385 380 420 
f 427 421 424 
f 428 386 385 
f 430 429 421 
f 423 421 429 
f 433 432 431 
f 310 431 432 
f 436 435 434 
f 437 434 435 
f 438 386 428 
f 391 278 279 
f 438 384 393 
f 439 393 384 
f 440 392 390 
f 438 393 386 
f 398 393 439 
f 441 398 439 
f 349 398 441 
f 336 398 349 
f 442 349 441 
f 444 28 443 
f 175 443 28 
f 299 445 301 
f 446 301 445 
f 449 448 447 
f 450 447 448 
f 453 452 451 
f 454 451 452 
f 405 136 134 
f 455 420 412 
f 457 363 456 
f 458 456 363 
f 459 385 420 
f 459 420 455 
f 171 326 173 
f 428 385 459 
f 462 461 460 
f 463 460 461 
f 465 464 412 
f 455 412 464 
f 467 466 461 
f 468 461 466 
f 469 326 171 
f 433 365 432 
f 470 432 365 
f 471 466 467 
f 472 455 464 
f 459 455 472 
f 473 459 472 
f 428 459 473 
f 476 475 474 
f 477 474 475 
f 479 478 298 
f 224 298 478 
f 473 384 428 
f 438 428 384 
f 481 233 480 
f 234 480 233 
f 482 3 1 
f 46 417 483 
f 484 483 417 
f 444 485 480 
f 486 480 485 
f 487 1 6 
f 482 1 487 
f 488 6 8 
f 487 6 488 
f 489 8 10 
f 488 8 489 
f 490 10 12 
f 489 10 490 
f 490 12 491 
f 13 491 12 
f 259 23 24 
f 493 51 492 
f 494 492 51 
f 495 58 35 
f 498 497 496 
f 499 496 497 
f 196 500 195 
f 501 195 500 
f 32 196 31 
f 504 503 502 
f 429 502 503 
f 505 35 5 
f 495 35 505 
f 3 505 5 
f 506 414 445 
f 446 445 414 
f 508 507 260 
f 23 260 507 
f 164 263 262 
f 143 510 509 
f 511 509 510 
f 512 221 339 
f 96 339 221 
f 313 314 513 
f 514 513 314 
f 96 425 339 
f 515 221 512 
f 517 516 126 
f 518 126 516 
f 521 520 519 
f 406 519 520 
f 126 522 517 
f 523 517 522 
f 524 488 489 
f 487 488 524 
f 214 524 489 
f 214 489 490 
f 212 214 490 
f 212 490 491 
f 525 212 491 
f 528 527 526 
f 529 526 527 
f 520 521 430 
f 530 430 521 
f 248 491 69 
f 13 69 491 
f 248 525 491 
f 245 248 69 
f 503 531 423 
f 532 423 531 
f 261 259 324 
f 134 301 446 
f 533 232 235 
f 206 277 205 
f 535 140 534 
f 230 534 140 
f 451 529 536 
f 527 536 529 
f 300 537 302 
f 516 302 537 
f 539 369 538 
f 540 538 369 
f 409 541 500 
f 484 500 541 
f 544 543 542 
f 545 542 543 
f 548 547 546 
f 549 546 547 
f 551 550 502 
f 410 502 550 
f 552 426 425 
f 70 245 69 
f 553 245 70 
f 556 555 554 
f 557 554 555 
f 247 245 553 
f 33 197 227 
f 559 558 389 
f 391 389 558 
f 267 246 247 
f 32 30 560 
f 561 560 30 
f 136 535 534 
f 309 562 311 
f 563 311 562 
f 519 406 73 
f 523 302 517 
f 516 517 302 
f 142 140 535 
f 85 553 70 
f 564 553 85 
f 565 247 553 
f 565 553 564 
f 274 267 247 
f 274 247 565 
f 439 384 382 
f 568 567 566 
f 569 566 567 
f 72 295 293 
f 570 88 87 
f 87 557 570 
f 571 570 557 
f 574 573 572 
f 184 572 573 
f 576 575 430 
f 429 430 575 
f 577 87 59 
f 557 87 577 
f 579 427 578 
f 580 578 427 
f 110 564 85 
f 581 564 110 
f 582 565 564 
f 582 564 581 
f 583 274 565 
f 583 565 582 
f 586 585 584 
f 587 584 585 
f 273 274 583 
f 422 589 588 
f 433 588 589 
f 515 591 590 
f 592 590 591 
f 593 570 571 
f 290 593 571 
f 88 570 593 
f 594 164 518 
f 162 518 164 
f 596 548 595 
f 405 595 548 
f 598 457 597 
f 456 597 457 
f 446 596 595 
f 152 581 110 
f 599 581 152 
f 600 582 581 
f 600 581 599 
f 601 583 582 
f 601 582 600 
f 388 273 583 
f 388 583 601 
f 537 254 594 
f 602 594 254 
f 605 604 603 
f 606 603 604 
f 607 88 593 
f 607 593 288 
f 290 288 593 
f 607 154 112 
f 608 548 596 
f 88 607 112 
f 609 191 190 
f 599 152 191 
f 609 599 191 
f 610 599 609 
f 611 600 599 
f 611 599 610 
f 612 601 600 
f 612 600 611 
f 613 388 601 
f 613 601 612 
f 616 615 614 
f 235 614 615 
f 559 618 617 
f 604 617 618 
f 605 603 619 
f 620 619 603 
f 621 403 546 
f 404 546 403 
f 504 622 503 
f 531 503 622 
f 288 623 607 
f 154 607 623 
f 289 623 288 
f 479 625 624 
f 605 624 625 
f 628 627 626 
f 629 626 627 
f 630 628 626 
f 631 190 242 
f 634 633 632 
f 356 632 633 
f 209 635 121 
f 123 121 635 
f 404 548 546 
f 609 190 631 
f 636 609 631 
f 602 252 263 
f 255 263 252 
f 610 609 636 
f 638 637 580 
f 347 580 637 
f 639 611 610 
f 424 580 427 
f 164 602 263 
f 640 612 611 
f 640 611 639 
f 641 613 612 
f 641 612 640 
f 497 643 642 
f 644 642 643 
f 647 646 645 
f 648 645 646 
f 415 608 596 
f 649 608 415 
f 650 130 133 
f 651 319 317 
f 289 652 623 
f 257 623 652 
f 653 652 289 
f 623 257 154 
f 266 267 274 
f 654 242 303 
f 655 358 268 
f 656 268 358 
f 416 658 657 
f 659 657 658 
f 303 222 292 
f 631 242 654 
f 660 631 654 
f 276 458 49 
f 24 49 458 
f 636 631 660 
f 635 653 123 
f 289 123 653 
f 661 610 636 
f 160 120 123 
f 241 276 49 
f 263 170 173 
f 188 662 187 
f 663 187 662 
f 270 664 285 
f 343 285 664 
f 665 640 639 
f 665 639 661 
f 610 661 639 
f 666 641 640 
f 666 640 665 
f 283 668 667 
f 619 667 668 
f 216 670 669 
f 671 669 670 
f 672 652 653 
f 672 653 635 
f 672 321 257 
f 673 318 316 
f 652 672 257 
f 675 674 351 
f 676 351 674 
f 677 303 292 
f 363 323 458 
f 24 458 323 
f 442 677 292 
f 680 679 678 
f 18 678 679 
f 681 365 118 
f 345 683 682 
f 558 682 683 
f 654 303 677 
f 684 654 677 
f 224 478 281 
f 283 281 478 
f 660 654 684 
f 687 686 685 
f 688 685 686 
f 689 636 660 
f 606 440 685 
f 690 685 440 
f 478 479 624 
f 48 241 49 
f 401 399 664 
f 563 664 399 
f 692 522 691 
f 126 691 522 
f 693 186 187 
f 567 661 689 
f 636 689 661 
f 625 617 604 
f 463 461 468 
f 407 496 395 
f 499 395 496 
f 567 665 661 
f 568 665 567 
f 695 694 344 
f 696 344 694 
f 568 666 665 
f 619 697 667 
f 698 667 697 
f 629 43 699 
f 483 699 43 
f 539 700 368 
f 701 368 700 
f 126 124 691 
f 702 691 124 
f 635 703 672 
f 321 672 703 
f 705 704 172 
f 171 172 704 
f 17 372 706 
f 707 706 372 
f 708 249 250 
f 606 685 688 
f 223 226 329 
f 476 329 226 
f 374 227 229 
f 644 677 442 
f 547 548 608 
f 709 329 476 
f 684 677 644 
f 426 710 338 
f 340 338 710 
f 711 660 684 
f 226 282 712 
f 586 712 282 
f 595 405 134 
f 25 50 22 
f 311 399 400 
f 569 689 711 
f 660 711 689 
f 692 691 713 
f 702 713 691 
f 714 97 355 
f 357 355 97 
f 715 692 713 
f 569 567 689 
f 512 471 467 
f 716 703 209 
f 635 209 703 
f 411 716 465 
f 717 465 716 
f 703 716 411 
f 321 703 411 
f 392 440 606 
f 719 718 90 
f 92 90 718 
f 412 411 465 
f 382 441 439 
f 720 558 559 
f 337 512 339 
f 721 442 441 
f 721 441 382 
f 552 443 426 
f 710 426 443 
f 722 354 137 
f 644 442 721 
f 723 644 721 
f 182 180 724 
f 725 724 180 
f 642 644 723 
f 269 272 327 
f 726 327 272 
f 643 684 644 
f 408 622 504 
f 632 356 295 
f 294 295 356 
f 727 711 643 
f 684 643 711 
f 586 584 573 
f 188 573 584 
f 727 728 569 
f 566 569 728 
f 318 592 462 
f 591 462 592 
f 727 569 711 
f 400 346 347 
f 729 465 717 
f 510 729 717 
f 682 507 508 
f 589 422 423 
f 729 464 465 
f 625 720 617 
f 559 617 720 
f 299 523 506 
f 522 506 523 
f 555 290 571 
f 467 461 462 
f 591 467 462 
f 405 548 404 
f 507 682 558 
f 692 715 658 
f 659 658 715 
f 337 471 512 
f 730 721 382 
f 340 471 337 
f 383 730 382 
f 43 731 45 
f 732 45 731 
f 723 721 730 
f 734 733 662 
f 663 662 733 
f 457 295 363 
f 72 363 295 
f 276 456 458 
f 675 735 674 
f 736 674 735 
f 739 738 737 
f 375 737 738 
f 741 332 740 
f 742 740 332 
f 352 718 719 
f 497 727 643 
f 498 727 497 
f 414 506 416 
f 522 416 506 
f 498 728 727 
f 446 595 134 
f 622 743 531 
f 744 531 743 
f 745 308 637 
f 400 637 308 
f 746 328 329 
f 146 472 464 
f 596 446 414 
f 261 508 260 
f 551 626 550 
f 699 550 626 
f 747 473 472 
f 747 472 146 
f 437 435 737 
f 739 737 435 
f 748 473 747 
f 381 384 473 
f 748 381 473 
f 749 614 481 
f 233 481 614 
f 101 381 748 
f 457 598 632 
f 634 632 598 
f 270 401 664 
f 373 437 737 
f 750 117 14 
f 246 751 248 
f 213 248 751 
f 295 457 632 
f 118 117 681 
f 752 681 117 
f 753 598 597 
f 754 723 730 
f 390 279 327 
f 597 277 753 
f 755 753 277 
f 756 723 754 
f 45 217 44 
f 419 44 217 
f 756 499 723 
f 642 723 499 
f 757 608 649 
f 497 642 499 
f 627 759 758 
f 673 758 759 
f 297 760 253 
f 761 253 760 
f 146 729 143 
f 510 143 729 
f 464 729 146 
f 747 146 144 
f 764 763 762 
f 746 762 763 
f 712 475 476 
f 150 748 747 
f 765 698 697 
f 629 699 626 
f 101 748 150 
f 678 18 766 
f 21 766 18 
f 418 501 500 
f 768 766 767 
f 769 767 766 
f 770 634 598 
f 773 772 771 
f 774 771 772 
f 101 775 381 
f 383 381 775 
f 226 712 476 
f 776 383 775 
f 730 383 776 
f 776 777 754 
f 778 754 777 
f 754 730 776 
f 756 754 778 
f 397 756 778 
f 499 756 397 
f 395 499 397 
f 220 779 114 
f 357 114 779 
f 699 483 780 
f 484 780 483 
f 668 605 619 
f 781 312 315 
f 279 390 391 
f 781 782 333 
f 783 333 782 
f 379 501 418 
f 574 712 586 
f 450 771 784 
f 774 784 771 
f 785 775 101 
f 786 775 785 
f 776 775 786 
f 777 776 786 
f 787 280 283 
f 74 530 521 
f 454 452 788 
f 789 788 452 
f 334 312 781 
f 790 788 789 
f 791 127 165 
f 125 165 127 
f 792 415 413 
f 790 169 793 
f 167 793 169 
f 789 169 790 
f 796 795 794 
f 797 794 795 
f 207 244 798 
f 328 798 244 
f 759 628 590 
f 799 590 628 
f 800 789 452 
f 800 452 453 
f 801 782 781 
f 802 789 800 
f 474 709 476 
f 803 169 789 
f 440 327 690 
f 726 690 327 
f 802 803 789 
f 166 169 803 
f 688 620 603 
f 347 637 400 
f 804 97 714 
f 501 379 228 
f 805 228 379 
f 638 588 745 
f 431 745 588 
f 751 246 267 
f 726 272 286 
f 453 451 536 
f 453 505 3 
f 753 755 719 
f 675 719 755 
f 741 312 334 
f 283 667 787 
f 698 787 667 
f 456 276 277 
f 692 416 522 
f 495 57 58 
f 800 453 482 
f 3 482 453 
f 487 800 482 
f 802 800 487 
f 802 487 524 
f 803 802 524 
f 803 524 214 
f 166 803 214 
f 761 170 255 
f 263 255 170 
f 213 168 166 
f 231 170 761 
f 525 213 212 
f 656 213 751 
f 213 525 248 
f 735 807 806 
f 798 806 807 
f 431 310 308 
f 810 809 808 
f 375 808 809 
f 563 343 664 
f 638 424 422 
f 520 421 427 
f 726 811 690 
f 812 690 811 
f 813 57 495 
f 536 813 495 
f 527 813 536 
f 354 722 254 
f 253 254 722 
f 505 536 495 
f 453 536 505 
f 780 410 550 
f 504 502 410 
f 591 515 512 
f 751 265 656 
f 268 656 265 
f 368 701 370 
f 249 370 701 
f 470 768 432 
f 310 432 768 
f 410 408 504 
f 815 774 814 
f 772 814 774 
f 608 757 547 
f 816 547 757 
f 815 696 694 
f 678 768 470 
f 265 751 267 
f 33 16 30 
f 561 30 16 
f 680 678 470 
f 798 204 207 
f 520 427 579 
f 394 26 29 
f 177 26 133 
f 650 133 26 
f 604 605 625 
f 813 527 577 
f 554 577 527 
f 206 817 755 
f 675 755 817 
f 206 755 277 
f 159 819 818 
f 820 818 819 
f 577 57 813 
f 586 282 280 
f 541 410 780 
f 262 264 821 
f 822 821 264 
f 555 571 557 
f 638 422 588 
f 160 823 158 
f 824 158 823 
f 557 577 554 
f 767 562 309 
f 825 563 562 
f 75 324 323 
f 586 573 574 
f 826 268 275 
f 266 275 268 
f 696 814 811 
f 812 811 814 
f 670 316 319 
f 537 594 516 
f 518 516 594 
f 512 467 591 
f 391 558 683 
f 827 826 275 
f 828 826 827 
f 827 275 387 
f 413 416 657 
f 829 160 287 
f 289 287 160 
f 832 831 830 
f 20 830 831 
f 50 625 479 
f 50 479 48 
f 298 48 479 
f 389 392 618 
f 606 618 392 
f 833 828 827 
f 834 828 833 
f 835 827 387 
f 833 827 835 
f 835 388 613 
f 388 835 387 
f 477 475 836 
f 574 836 475 
f 817 206 807 
f 204 807 206 
f 297 253 722 
f 838 762 837 
f 709 837 762 
f 221 115 96 
f 95 96 115 
f 839 834 833 
f 201 834 839 
f 840 833 835 
f 839 833 840 
f 840 613 641 
f 613 840 835 
f 646 304 841 
f 208 841 304 
f 162 165 125 
f 806 798 328 
f 160 123 289 
f 842 201 839 
f 200 201 842 
f 843 839 840 
f 842 839 843 
f 843 641 666 
f 641 843 840 
f 261 324 406 
f 550 699 780 
f 841 648 646 
f 523 299 302 
f 844 200 842 
f 845 844 842 
f 846 719 90 
f 434 437 847 
f 374 847 437 
f 845 842 843 
f 568 845 843 
f 568 843 666 
f 282 226 224 
f 219 221 515 
f 526 529 450 
f 447 450 529 
f 848 466 471 
f 849 844 845 
f 566 849 845 
f 478 624 668 
f 605 668 624 
f 568 566 845 
f 829 287 290 
f 230 231 760 
f 761 760 231 
f 307 716 209 
f 208 307 209 
f 304 307 208 
f 307 717 716 
f 534 297 135 
f 797 795 849 
f 844 849 795 
f 728 797 849 
f 566 728 849 
f 229 228 805 
f 403 142 535 
f 578 580 347 
f 55 561 16 
f 480 486 481 
f 749 481 486 
f 770 598 846 
f 753 846 598 
f 837 709 474 
f 305 510 717 
f 305 717 307 
f 122 120 159 
f 794 407 396 
f 805 379 377 
f 797 407 794 
f 498 407 797 
f 650 777 251 
f 786 251 777 
f 498 797 728 
f 736 735 763 
f 806 763 735 
f 401 348 346 
f 304 646 306 
f 647 306 646 
f 170 231 194 
f 510 305 306 
f 318 673 592 
f 759 592 673 
f 362 844 795 
f 475 712 574 
f 311 400 308 
f 806 328 746 
f 829 290 555 
f 534 135 136 
f 629 627 758 
f 630 850 628 
f 799 628 850 
f 759 590 592 
f 851 250 183 
f 496 407 498 
f 852 306 647 
f 511 510 306 
f 511 306 852 
f 853 98 150 
f 101 150 98 
f 769 562 767 
f 551 575 576 
f 217 215 513 
f 313 513 215 
f 620 697 619 
f 741 314 312 
f 679 20 18 
f 292 349 442 
f 415 854 649 
f 855 649 854 
f 854 415 792 
f 551 630 626 
f 122 841 208 
f 856 563 825 
f 283 478 668 
f 731 629 758 
f 431 308 745 
f 298 224 225 
f 746 763 806 
f 857 511 852 
f 416 692 658 
f 858 509 511 
f 858 511 857 
f 145 143 509 
f 145 509 858 
f 318 462 460 
f 480 234 444 
f 28 444 234 
f 747 144 150 
f 859 633 634 
f 856 343 563 
f 552 860 444 
f 485 444 860 
f 819 159 861 
f 824 861 159 
f 785 101 99 
f 239 785 99 
f 251 785 239 
f 786 785 251 
f 821 163 164 
f 637 638 745 
f 431 588 433 
f 228 195 501 
f 724 858 857 
f 440 390 327 
f 725 145 858 
f 725 858 724 
f 149 144 145 
f 149 145 725 
f 807 735 817 
f 675 817 735 
f 696 286 344 
f 341 344 286 
f 807 204 798 
f 148 853 150 
f 551 502 575 
f 429 575 502 
f 239 99 100 
f 576 630 551 
f 33 31 197 
f 220 219 850 
f 799 850 219 
f 670 732 316 
f 673 316 732 
f 180 149 725 
f 862 149 180 
f 148 149 862 
f 863 148 862 
f 853 148 863 
f 864 853 863 
f 98 853 864 
f 100 98 864 
f 866 576 865 
f 530 865 576 
f 196 32 867 
f 560 867 32 
f 500 196 409 
f 220 114 115 
f 448 771 450 
f 556 869 868 
f 694 868 869 
f 529 451 454 
f 454 447 529 
f 870 447 454 
f 870 454 788 
f 357 97 114 
f 871 788 790 
f 871 870 788 
f 872 871 790 
f 46 483 43 
f 873 633 859 
f 872 790 793 
f 630 576 866 
f 851 872 793 
f 167 851 793 
f 874 784 774 
f 537 354 254 
f 526 784 874 
f 526 450 784 
f 530 74 296 
f 348 278 683 
f 391 683 278 
f 628 759 627 
f 531 744 532 
f 366 532 744 
f 714 356 633 
f 250 851 167 
f 414 415 596 
f 532 366 364 
f 250 167 168 
f 768 309 310 
f 869 874 815 
f 774 815 874 
f 694 869 815 
f 528 874 869 
f 823 876 875 
f 877 875 876 
f 526 874 528 
f 532 589 423 
f 45 732 670 
f 399 311 563 
f 59 57 577 
f 17 15 227 
f 587 787 698 
f 182 724 878 
f 857 878 724 
f 361 168 213 
f 250 168 361 
f 361 213 656 
f 25 507 720 
f 558 720 507 
f 682 578 347 
f 767 309 768 
f 823 875 879 
f 880 879 875 
f 418 484 417 
f 792 413 657 
f 230 297 534 
f 280 585 586 
f 877 868 695 
f 694 695 868 
f 254 252 602 
f 881 868 877 
f 556 868 881 
f 528 556 554 
f 869 556 528 
f 882 264 326 
f 851 183 186 
f 527 528 554 
f 519 74 521 
f 883 880 875 
f 875 877 883 
f 695 883 877 
f 606 688 603 
f 881 877 876 
f 555 556 881 
f 885 884 538 
f 838 538 884 
f 228 197 195 
f 205 241 207 
f 261 579 508 
f 578 508 579 
f 826 655 268 
f 886 655 826 
f 518 162 126 
f 125 126 162 
f 540 369 887 
f 367 887 369 
f 829 881 876 
f 368 369 539 
f 881 829 555 
f 671 670 319 
f 193 172 194 
f 604 618 606 
f 828 886 826 
f 888 886 828 
f 19 824 21 
f 879 21 824 
f 559 389 618 
f 823 879 824 
f 873 714 633 
f 681 680 470 
f 406 520 579 
f 752 830 679 
f 20 679 830 
f 271 348 401 
f 876 823 829 
f 160 829 823 
f 834 888 828 
f 889 888 834 
f 780 484 541 
f 861 824 19 
f 20 861 19 
f 158 824 159 
f 270 271 401 
f 278 348 271 
f 638 580 424 
f 850 866 220 
f 865 220 866 
f 396 533 794 
f 796 794 533 
f 201 889 834 
f 199 889 201 
f 230 760 297 
f 831 819 20 
f 861 20 819 
f 720 50 25 
f 865 779 220 
f 820 819 831 
f 74 519 73 
f 796 533 235 
f 122 159 818 
f 602 164 594 
f 356 714 355 
f 94 97 804 
f 255 253 761 
f 844 362 200 
f 92 200 362 
f 622 867 743 
f 560 743 867 
f 810 818 820 
f 809 810 820 
f 50 720 625 
f 841 818 810 
f 732 731 758 
f 890 313 215 
f 818 841 122 
f 616 89 615 
f 796 615 89 
f 779 865 530 
f 357 779 296 
f 530 296 779 
f 796 362 795 
f 300 301 354 
f 419 217 513 
f 773 892 891 
f 893 891 892 
f 23 507 25 
f 541 409 410 
f 137 297 722 
f 738 808 375 
f 648 810 808 
f 648 808 738 
f 810 648 841 
f 366 561 55 
f 429 503 423 
f 218 216 669 
f 650 394 397 
f 739 648 738 
f 345 348 683 
f 739 645 648 
f 132 130 238 
f 45 216 217 
f 894 702 124 
f 895 739 435 
f 896 645 739 
f 896 739 895 
f 282 224 281 
f 896 647 645 
f 852 647 896 
f 650 397 777 
f 778 777 397 
f 731 43 629 
f 26 394 650 
f 743 560 744 
f 561 744 560 
f 396 394 29 
f 520 430 421 
f 436 897 435 
f 895 435 897 
f 898 896 895 
f 898 895 897 
f 329 709 746 
f 762 746 709 
f 896 899 852 
f 857 852 899 
f 898 899 896 
f 45 670 216 
f 237 251 239 
f 130 650 251 
f 791 165 163 
f 55 118 366 
f 900 897 436 
f 783 897 900 
f 335 783 900 
f 783 898 897 
f 901 899 898 
f 901 898 783 
f 899 878 857 
f 261 406 579 
f 901 878 899 
f 515 799 219 
f 236 239 100 
f 866 850 630 
f 500 484 418 
f 681 470 365 
f 902 713 702 
f 318 460 317 
f 463 317 460 
f 822 264 882 
f 177 133 131 
f 832 820 831 
f 333 783 335 
f 782 901 783 
f 801 878 901 
f 801 901 782 
f 801 182 878 
f 181 862 180 
f 758 673 732 
f 903 863 862 
f 903 862 181 
f 904 864 863 
f 904 863 903 
f 905 100 864 
f 905 864 904 
f 408 196 867 
f 622 408 867 
f 236 100 905 
f 533 396 29 
f 299 506 445 
f 244 225 223 
f 364 433 589 
f 906 182 801 
f 906 801 781 
f 907 179 182 
f 907 182 906 
f 908 181 179 
f 908 179 907 
f 909 903 181 
f 909 181 908 
f 910 904 903 
f 910 903 909 
f 911 905 904 
f 911 904 910 
f 912 905 911 
f 236 905 912 
f 913 236 912 
f 913 848 238 
f 132 238 848 
f 913 238 236 
f 906 781 315 
f 890 906 315 
f 907 906 890 
f 914 907 890 
f 908 907 914 
f 218 908 914 
f 909 908 218 
f 915 909 218 
f 910 909 915 
f 916 910 915 
f 911 910 916 
f 917 911 916 
f 912 911 917 
f 468 912 917 
f 913 912 468 
f 456 277 597 
f 468 848 913 
f 920 919 918 
f 921 918 919 
f 922 919 920 
f 918 921 923 
f 924 923 921 
f 923 924 925 
f 926 925 924 
f 659 925 926 
f 922 928 927 
f 929 927 928 
f 927 919 922 
f 930 919 927 
f 931 921 919 
f 931 919 930 
f 932 924 921 
f 932 921 931 
f 933 926 924 
f 933 924 932 
f 543 659 926 
f 543 926 933 
f 934 927 929 
f 935 934 929 
f 936 930 927 
f 936 927 934 
f 937 931 930 
f 937 930 936 
f 938 932 931 
f 938 931 937 
f 939 933 932 
f 939 932 938 
f 545 543 933 
f 545 933 939 
f 940 934 935 
f 151 940 935 
f 941 936 934 
f 941 934 940 
f 942 937 936 
f 942 936 941 
f 943 938 937 
f 943 937 942 
f 944 939 938 
f 944 938 943 
f 945 545 939 
f 945 939 944 
f 946 542 545 
f 946 545 945 
f 151 948 947 
f 54 947 948 
f 947 940 151 
f 949 940 947 
f 950 941 940 
f 950 940 949 
f 951 942 941 
f 951 941 950 
f 952 943 942 
f 952 942 951 
f 953 944 943 
f 953 943 952 
f 953 954 945 
f 955 945 954 
f 945 944 953 
f 946 945 955 
f 52 947 54 
f 956 949 947 
f 956 947 52 
f 957 950 949 
f 957 949 956 
f 958 951 950 
f 958 950 957 
f 958 959 952 
f 549 952 959 
f 952 951 958 
f 953 952 549 
f 816 953 549 
f 954 953 816 
f 493 53 51 
f 53 956 52 
f 960 957 956 
f 960 956 53 
f 960 961 958 
f 962 958 961 
f 958 957 960 
f 959 958 962 
f 963 53 493 
f 960 53 963 
f 964 960 963 
f 961 960 964 
f 965 893 892 
f 893 965 966 
f 967 966 965 
f 966 967 733 
f 663 733 967 
f 812 772 968 
f 773 968 772 
f 891 968 773 
f 448 892 773 
f 449 965 892 
f 449 892 448 
f 969 967 965 
f 969 965 449 
f 970 663 967 
f 970 967 969 
f 693 187 663 
f 693 663 970 
f 772 812 814 
f 773 771 448 
f 705 193 141 
f 449 447 870 
f 969 449 870 
f 682 508 578 
f 821 164 262 
f 870 970 969 
f 970 870 871 
f 693 970 871 
f 693 871 872 
f 186 693 872 
f 851 186 872 
f 799 515 590 
f 185 249 701 
f 811 726 696 
f 286 696 726 
f 855 757 649 
f 815 814 696 
f 822 163 821 
f 971 697 620 
f 370 249 708 
f 367 370 708 
f 972 621 546 
f 744 561 366 
f 361 708 250 
f 796 235 615 
f 185 572 184 
f 367 708 359 
f 361 359 708 
f 89 362 796 
f 887 367 359 
f 695 344 342 
f 345 682 347 
f 544 792 657 
f 656 358 361 
f 973 662 188 
f 887 359 360 
f 365 433 364 
f 540 887 360 
f 342 883 695 
f 856 883 342 
f 530 576 430 
f 655 360 358 
f 974 360 655 
f 975 540 360 
f 975 360 974 
f 885 538 540 
f 885 540 975 
f 879 880 769 
f 825 769 880 
f 880 883 856 
f 825 880 856 
f 886 974 655 
f 976 974 886 
f 977 975 974 
f 977 974 976 
f 978 885 975 
f 978 975 977 
f 21 879 769 
f 766 21 769 
f 888 976 886 
f 979 976 888 
f 353 977 976 
f 353 976 979 
f 676 978 977 
f 676 977 353 
f 968 891 980 
f 981 980 891 
f 889 979 888 
f 982 979 889 
f 350 353 979 
f 350 979 982 
f 351 676 353 
f 199 982 889 
f 983 982 199 
f 983 352 350 
f 350 982 983 
f 983 199 92 
f 718 352 983 
f 136 403 535 
f 804 714 873 
f 983 92 718 
f 820 832 809 
f 707 809 832 
f 984 832 830 
f 707 832 984 
f 379 418 376 
f 985 854 792 
f 787 587 585 
f 707 375 809 
f 372 375 707 
f 706 707 984 
f 616 91 89 
f 373 737 375 
f 141 230 140 
f 29 232 533 
f 614 235 233 
f 232 29 27 
f 234 232 27 
f 986 436 434 
f 234 27 28 
f 987 436 986 
f 900 436 987 
f 335 900 987 
f 742 335 987 
f 28 26 177 
f 175 28 177 
f 332 335 742 
f 176 131 132 
f 710 175 176 
f 846 90 91 
f 443 175 710 
f 781 333 334 
f 988 132 848 
f 176 132 988 
f 340 176 988 
f 710 176 340 
f 313 890 315 
f 215 914 890 
f 914 215 218 
f 669 915 218 
f 671 916 915 
f 671 915 669 
f 651 917 916 
f 651 916 671 
f 463 468 917 
f 463 917 651 
f 848 468 466 
f 471 988 848 
f 340 988 471 
f 685 812 687 
f 968 687 812 
f 836 701 700 
f 651 671 319 
f 463 651 317 
f 791 163 822 
f 989 127 791 
f 894 124 127 
f 894 127 989 
f 902 702 894 
f 990 822 882 
f 991 791 822 
f 991 822 990 
f 991 922 920 
f 989 991 920 
f 791 991 989 
f 989 920 918 
f 894 989 918 
f 894 918 923 
f 902 894 923 
f 715 713 902 
f 923 715 902 
f 925 715 923 
f 715 925 659 
f 469 882 326 
f 992 990 882 
f 992 882 469 
f 992 929 928 
f 991 992 928 
f 990 992 991 
f 991 928 922 
f 993 659 543 
f 657 659 993 
f 704 469 171 
f 994 992 469 
f 994 469 704 
f 994 935 929 
f 994 929 992 
f 544 657 993 
f 543 544 993 
f 193 705 172 
f 705 994 704 
f 705 151 935 
f 705 935 994 
f 985 792 544 
f 985 542 946 
f 542 985 544 
f 494 54 948 
f 151 705 141 
f 151 494 948 
f 494 151 139 
f 855 854 985 
f 954 855 985 
f 955 954 985 
f 955 985 946 
f 494 51 54 
f 402 494 139 
f 995 494 402 
f 492 494 995 
f 621 995 402 
f 972 995 621 
f 996 972 546 
f 996 549 959 
f 546 549 996 
f 816 757 855 
f 816 549 547 
f 816 855 954 
f 997 493 492 
f 997 492 995 
f 998 995 972 
f 997 995 998 
f 998 962 961 
f 996 962 998 
f 998 972 996 
f 962 996 959 
f 997 963 493 
f 964 963 997 
f 964 997 998 
f 964 998 961 
f 981 891 893 
f 999 893 966 
f 981 893 999 
f 734 966 733 
f 999 966 734 
f 537 300 354 
f 980 687 968 
f 686 687 980 
f 1000 980 981 
f 686 980 1000 
f 971 981 999 
f 1000 981 971 
f 765 999 734 
f 971 999 765 
f 973 734 662 
f 765 734 973 
f 690 812 685 
f 688 686 1000 
f 620 688 1000 
f 620 1000 971 
f 697 971 765 
f 698 765 973 
f 587 698 973 
f 587 973 188 
f 584 587 188 
f 184 573 188 
f 701 572 185 
f 572 836 574 
f 701 836 572 
f 700 477 836 
f 539 477 700 
f 837 474 477 
f 838 477 539 
f 837 477 838 
f 538 838 539 
f 343 856 342 
f 762 838 884 
f 764 762 884 
f 764 885 978 
f 885 764 884 
f 825 562 769 
f 736 763 764 
f 736 978 676 
f 978 736 764 
f 364 589 532 
f 678 766 768 
f 676 674 736 
f 787 585 280 
f 675 351 352 
f 419 417 46 
f 352 719 675 
f 752 680 681 
f 679 680 752 
f 752 984 830 
f 750 984 752 
f 750 752 117 
f 846 753 719 
f 750 706 984 
f 17 706 750 
f 17 750 14 
f 770 91 616 
f 91 770 846 
f 17 374 372 
f 227 374 17 
f 770 859 634 
f 749 859 770 
f 749 616 614 
f 616 749 770 
f 374 437 373 
f 847 374 229 
f 621 402 403 
f 486 873 859 
f 486 859 749 
f 1001 434 847 
f 1001 847 229 
f 1001 229 805 
f 485 804 873 
f 485 873 486 
f 1001 986 434 
f 1002 986 1001 
f 1003 1001 805 
f 1002 1001 1003 
f 1003 805 377 
f 860 94 804 
f 860 804 485 
f 1002 987 986 
f 742 987 1002 
f 740 742 1002 
f 740 1002 1003 
f 378 1003 377 
f 740 1003 378 
f 1004 96 94 
f 552 94 860 
f 1004 94 552 
f 552 444 443 
f 741 740 378 
f 514 378 376 
f 741 378 514 
f 514 376 419 
f 44 419 46 
f 425 96 1004 
f 425 1004 552 
f 741 334 332 
f 314 741 514 
f 513 514 419 
