#  wavefront obj file written by the visualization toolkit

mtllib livertumor2.mtl

v 193.23300170898438 126.91699981689453 129.21499633789062
v 191.0330047607422 130.2239990234375 130.47300720214844
v 235.71299743652344 130.02099609375 159.49600219726562
v 236.95700073242188 126.86199951171875 159.06900024414062
v 194.1959991455078 103.07599639892578 156.88699340820312
v 198.33099365234375 102.59700012207031 161.2689971923828
v 217.3209991455078 151.29800415039062 141.8300018310547
v 214.29299926757812 151.72799682617188 142.6199951171875
v 179.07000732421875 123.51100158691406 140.76300048828125
v 179.14700317382812 126.93399810791016 139.88400268554688
v 232.01699829101562 134.42799377441406 139.22300720214844
v 231.6790008544922 134.1280059814453 143.14500427246094
v 230.84500122070312 111.9010009765625 136.9029998779297
v 230.7830047607422 111.45999908447266 139.31199645996094
v 246.0489959716797 129.52699279785156 145.8509979248047
v 247.20199584960938 127.66899871826172 145.625
v 246.37600708007812 117.72000122070312 151.6479949951172
v 246.11000061035156 117.29000091552734 154.44400024414062
v 180.84800720214844 111.94300079345703 158.41200256347656
v 180.2209930419922 110.73699951171875 153.56900024414062
v 181.21400451660156 113.86699676513672 166.14999389648438
v 180.11300659179688 113.41400146484375 165.00900268554688
v 186.24600219726562 113.97599792480469 140.01300048828125
v 187.75799560546875 111.45899963378906 140.74600219726562
v 239.0970001220703 125.75700378417969 144.95799255371094
v 241.13800048828125 128.1649932861328 145.96200561523438
v 221.74899291992188 131.25900268554688 128.8679962158203
v 224.42300415039062 132.98300170898438 130.50599670410156
v 244.57400512695312 116.05899810791016 152.08799743652344
v 244.4669952392578 116.28500366210938 155.1230010986328
v 184.0489959716797 146.01699829101562 155.8520050048828
v 185.7100067138672 147.71099853515625 153.75100708007812
v 182.9149932861328 113.08799743652344 166.3679962158203
v 181.71499633789062 111.8550033569336 165.4199981689453
v 215.77099609375 104.10299682617188 163.08599853515625
v 212.9080047607422 103.83499908447266 163.7740020751953
v 193.875 150.06900024414062 137.2550048828125
v 196.25100708007812 152.37899780273438 139.2220001220703
v 203.1009979248047 117.52799987792969 128.15199279785156
v 204.11500549316406 114.65899658203125 129.36000061035156
v 247.96600341796875 118.92500305175781 149.29200744628906
v 246.5030059814453 116.38099670410156 149.72900390625
v 213.80099487304688 140.45399475097656 129.83700561523438
v 216.86099243164062 138.718994140625 129.81399536132812
v 177.86900329589844 115.61799621582031 154.18899536132812
v 177.63400268554688 118.31700134277344 158.7169952392578
v 212.50900268554688 153.47900390625 140.73399353027344
v 223.5989990234375 146.93499755859375 150.4219970703125
v 221.7779998779297 145.8090057373047 148.8159942626953
v 243.8280029296875 130.60299682617188 146.7449951171875
v 244.31199645996094 129.9510040283203 145.9199981689453
v 175.94400024414062 125.48400115966797 145.13400268554688
v 176.23899841308594 130.3209991455078 144.03199768066406
v 176.31700134277344 126.35800170898438 162.56199645996094
v 176.2469940185547 126.21900177001953 160.47000122070312
v 189.60699462890625 110.25599670410156 140.5919952392578
v 178.6739959716797 131.48199462890625 163.8090057373047
v 177.59100341796875 127.6520004272461 164.0399932861328
v 232.0749969482422 112.26100158691406 148.2740020751953
v 230.99000549316406 111.18399810791016 150.03500366210938
v 233.52699279785156 114.9800033569336 147.4810028076172
v 235.36199951171875 117.6500015258789 146.81100463867188
v 206.20899963378906 112.72699737548828 130.41299438476562
v 205.98800659179688 115.72100067138672 128.4080047607422
v 232.11399841308594 116.36900329589844 146.75100708007812
v 196.48199462890625 131.1790008544922 165.3070068359375
v 195.49600219726562 138.97999572753906 164.77699279785156
v 220.9770050048828 107.5739974975586 158.80299377441406
v 217.63099670410156 106.87200164794922 156.35899353027344
v 219.4219970703125 146.40699768066406 156.89199829101562
v 219.97300720214844 143.1580047607422 158.7010040283203
v 248.58200073242188 128.19000244140625 145.6510009765625
v 248.36300659179688 126.84100341796875 145.60000610351562
v 195.73599243164062 144.0959930419922 163.96499633789062
v 221.13699340820312 127.0469970703125 163.94500732421875
v 222.79200744628906 119.5979995727539 163.92999267578125
v 207.31199645996094 124.09300231933594 125.43299865722656
v 207.6529998779297 121.5260009765625 126.18499755859375
v 184.90899658203125 109.18299865722656 142.6060028076172
v 187.8260040283203 107.11699676513672 142.56399536132812
v 234.55499267578125 124.93900299072266 160.68800354003906
v 239.9340057373047 128.61099243164062 158.427001953125
v 237.85800170898438 130.30499267578125 158.61300659179688
v 205.31199645996094 111.64399719238281 167.89300537109375
v 204.74600219726562 107.21800231933594 167.32899475097656
v 221.3730010986328 110.34300231933594 133.91099548339844
v 220.68299865722656 108.03099822998047 135.88800048828125
v 183.37399291992188 115.69999694824219 140.6230010986328
v 180.1510009765625 117.4800033569336 142.0290069580078
v 246.91299438476562 125.87300109863281 156.9550018310547
v 247.08299255371094 123.4990005493164 157.6280059814453
v 216.21299743652344 151.72999572753906 152.9510040283203
v 217.93299865722656 151.6790008544922 151.69700622558594
v 213.56700134277344 118.7750015258789 127.63700103759766
v 211.08799743652344 115.39800262451172 128.531005859375
v 230.58299255371094 141.8300018310547 156.7729949951172
v 228.56700134277344 140.81500244140625 158.22300720214844
v 229.9219970703125 138.61700439453125 138.2310028076172
v 230.18299865722656 139.6649932861328 140.51800537109375
v 176.46200561523438 122.01100158691406 154.36900329589844
v 182.32000732421875 145.53900146484375 158.5970001220703
v 184.9550018310547 146.8509979248047 158.51199340820312
v 182.07400512695312 140.19400024414062 163.0919952392578
v 180.91600036621094 142.33700561523438 162.03799438476562
v 238.86900329589844 135.802001953125 157.92300415039062
v 237.1020050048828 137.51300048828125 157.6439971923828
v 225.2550048828125 145.75999450683594 155.47000122070312
v 227.156005859375 142.9010009765625 157.02699279785156
v 246.5800018310547 115.11699676513672 146.23800659179688
v 247.68800354003906 115.56999969482422 148.01100158691406
v 193.29800415039062 109.19599914550781 169.1009979248047
v 194.1009979248047 111.54399871826172 169.58700561523438
v 212.83700561523438 109.39399719238281 133.23800659179688
v 209.0189971923828 110.9749984741211 131.64100646972656
v 233.85499572753906 140.1929931640625 153.51100158691406
v 235.65699768066406 138.60499572753906 154.38499450683594
v 248.427001953125 117.5979995727539 148.6790008544922
v 224.54800415039062 125.97200012207031 162.73699951171875
v 183.6909942626953 144.1490020751953 161.99899291992188
v 242.906005859375 129.52200317382812 145.88600158691406
v 243.4149932861328 126.7229995727539 145.60000610351562
v 190.20799255371094 119.01300048828125 132.58200073242188
v 192.21499633789062 121.86000061035156 131.24899291992188
v 214.5659942626953 151.90199279785156 151.49600219726562
v 214.04200744628906 151.8300018310547 154.13800048828125
v 205.94700622558594 110.0770034790039 132.72500610351562
v 232.3280029296875 132.38900756835938 142.51100158691406
v 209.13499450683594 108.2509994506836 134.88600158691406
v 205.8419952392578 108.04399871826172 135.08799743652344
v 247.71600341796875 129.4250030517578 146.36099243164062
v 189.24899291992188 150.58799743652344 142.1199951171875
v 189.60400390625 150.8719940185547 145.88999938964844
v 241.0659942626953 113.53099822998047 149.38600158691406
v 238.47999572753906 113.58599853515625 151.5189971923828
v 186.32699584960938 149.06399536132812 145.98199462890625
v 187.31900024414062 149.1999969482422 141.3939971923828
v 207.0500030517578 148.7259979248047 134.7449951171875
v 209.80099487304688 145.76100158691406 132.93800354003906
v 229.04400634765625 142.9600067138672 156.3730010986328
v 232.27000427246094 117.77100372314453 161.83700561523438
v 231.81900024414062 114.25900268554688 162.0070037841797
v 179.41700744628906 110.4209976196289 146.7310028076172
v 179.01300048828125 112.1709976196289 145.0240020751953
v 213.08999633789062 152.75900268554688 151.96099853515625
v 247.7899932861328 120.63099670410156 145.60000610351562
v 249.1699981689453 123.17900085449219 145.60000610351562
v 209.9340057373047 119.47599792480469 126.91400146484375
v 205.95700073242188 119.21600341796875 127.06600189208984
v 176.72000122070312 127.13899993896484 157.3769989013672
v 176.61900329589844 129.29299926757812 158.625
v 241.50799560546875 114.36499786376953 152.17300415039062
v 202.54200744628906 150.125 135.60699462890625
v 205.73899841308594 151.99099731445312 137.26499938964844
v 218.46800231933594 127.13300323486328 127.41000366210938
v 222.20899963378906 148.3179931640625 138.71400451660156
v 222.6529998779297 145.60000610351562 136.94900512695312
v 202.50799560546875 146.6580047607422 132.9409942626953
v 223.95399475097656 116.86100006103516 130.5590057373047
v 225.38499450683594 115.197998046875 131.91299438476562
v 237.3459930419922 115.61000061035156 146.322998046875
v 238.6009979248047 113.52999877929688 148.59300231933594
v 214.97500610351562 107.36299896240234 164.8000030517578
v 213.61300659179688 110.25800323486328 165.1490020751953
v 201.41400146484375 127.93000030517578 126.51599884033203
v 204.02200317382812 130.63499450683594 126.23300170898438
v 233.7830047607422 111.99800109863281 159.39999389648438
v 235.44200134277344 113.60199737548828 159.62600708007812
v 177.21499633789062 131.1280059814453 155.16099548339844
v 176.2779998779297 132.21400451660156 151.26699829101562
v 192.3730010986328 151.15199279785156 152.83399963378906
v 192.9929962158203 152.19500732421875 147.2209930419922
v 220.0709991455078 106.2020034790039 163.13600158691406
v 218.63900756835938 106.5719985961914 164.6820068359375
v 233.64599609375 129.85499572753906 142.03900146484375
v 234.27099609375 127.28299713134766 142.41099548339844
v 200.0760040283203 150.76600646972656 157.53900146484375
v 203.73399353027344 149.50100708007812 158.76300048828125
v 245.572998046875 122.13500213623047 158.21200561523438
v 241.29100036621094 120.75399780273438 158.46099853515625
v 247.26600646972656 122.45999908447266 154.85899353027344
v 247.3260040283203 123.6510009765625 155.927001953125
v 244.98399353027344 128.25 145.60000610351562
v 245.68499755859375 126.06199645996094 145.60000610351562
v 228.03799438476562 142.2429962158203 139.71499633789062
v 226.97799682617188 142.66799926757812 141.8459930419922
v 179.09100341796875 143.33999633789062 159.5989990234375
v 179.51800537109375 141.29400634765625 157.47999572753906
v 228.1300048828125 125.6500015258789 131.33900451660156
v 229.57400512695312 122.33599853515625 132.31900024414062
v 192.22999572753906 112.03099822998047 169.30299377441406
v 190.4720001220703 109.82099914550781 167.6820068359375
v 224.28199768066406 111.33899688720703 163.6820068359375
v 222.34800720214844 109.48300170898438 164.1750030517578
v 184.8350067138672 132.0240020751953 164.7689971923828
v 182.17799377441406 135.6540069580078 164.3280029296875
v 199.5800018310547 118.1719970703125 129.1750030517578
v 202.26300048828125 121.36900329589844 127.21700286865234
v 246.75399780273438 123.64299774169922 149.98300170898438
v 247.02200317382812 121.54499816894531 152.76699829101562
v 222.3300018310547 148.67100524902344 141.03799438476562
v 221.41600036621094 146.83700561523438 143.1580047607422
v 187.98899841308594 148.48300170898438 139.14199829101562
v 228.92100524902344 110.06500244140625 137.66299438476562
v 226.9510040283203 109.39099884033203 137.40899658203125
v 222.89100646972656 108.03900146484375 149.7259979248047
v 220.3070068359375 107.76100158691406 153.73899841308594
v 195.83599853515625 147.93800354003906 135.00799560546875
v 191.67799377441406 151.98500061035156 142.84100341796875
v 192.7310028076172 151.89700317382812 139.9770050048828
v 220.572998046875 149.36199951171875 154.4459991455078
v 177.49000549316406 136.03399658203125 152.4219970703125
v 176.20799255371094 135.37600708007812 149.16600036621094
v 218.20700073242188 149.24400329589844 155.677001953125
v 218.4250030517578 150.86000061035156 153.7740020751953
v 231.73300170898438 136.25900268554688 141.2969970703125
v 247.51699829101562 128.4759979248047 148.6719970703125
v 248.0919952392578 129.4029998779297 147.83200073242188
v 194.8249969482422 120.01499938964844 167.4290008544922
v 197.5679931640625 124.77100372314453 166.6060028076172
v 230.43299865722656 139.63600158691406 158.3000030517578
v 190.0019989013672 135.06100463867188 164.8000030517578
v 214.33099365234375 132.78599548339844 126.83100128173828
v 218.1230010986328 131.1490020751953 127.56500244140625
v 182.88800048828125 134.96499633789062 136.4459991455078
v 187.00799560546875 135.68499755859375 133.66799926757812
v 216.44700622558594 106.1510009765625 152.35699462890625
v 249.177001953125 126.33499908447266 145.60000610351562
v 250.5070037841797 126.61100006103516 145.79400634765625
v 230.82000732421875 112.35700225830078 162.2790069580078
v 228.8300018310547 111.87899780273438 163.00999450683594
v 230.28500366210938 125.927001953125 133.4239959716797
v 231.37899780273438 121.75900268554688 134.11199951171875
v 245.7259979248047 130.41400146484375 146.6479949951172
v 177.0399932861328 120.55599975585938 160.35299682617188
v 177.5970001220703 139.9759979248047 159.91299438476562
v 178.66799926757812 141.95399475097656 159.8300018310547
v 208.1909942626953 104.23699951171875 154.81199645996094
v 203.69500732421875 102.93699645996094 159.39700317382812
v 219.875 146.218994140625 145.85000610351562
v 217.66799926757812 147.32400512695312 148.08900451660156
v 178.6909942626953 142.30999755859375 147.87899780273438
v 180.9149932861328 144.6929931640625 146.0449981689453
v 236.27999877929688 125.95899963378906 146.4340057373047
v 191.843994140625 104.40699768066406 160.84100341796875
v 211.9759979248047 117.51799774169922 164.9759979248047
v 207.77999877929688 120.04000091552734 165.73599243164062
v 181.48500061035156 144.87899780273438 160.8679962158203
v 232.62399291992188 119.61399841308594 145.55799865722656
v 233.34300231933594 118.28900146484375 146.98199462890625
v 247.30799865722656 120.5469970703125 156.20899963378906
v 228.03799438476562 111.26200103759766 135.50399780273438
v 234.34500122070312 120.14199829101562 146.38699340820312
v 205.156005859375 122.63899993896484 126.16899871826172
v 245.968994140625 114.72699737548828 148.07000732421875
v 245.00900268554688 114.26499938964844 146.15199279785156
v 181.98199462890625 108.75 144.98199462890625
v 232.46099853515625 114.38500213623047 136.36500549316406
v 176.41700744628906 129.31900024414062 160.8990020751953
v 176.63800048828125 130.24099731445312 162.1750030517578
v 251.5240020751953 126.12300109863281 148.5050048828125
v 250.25399780273438 124.93499755859375 148.8000030517578
v 212.01699829101562 150.28799438476562 146.13600158691406
v 214.77000427246094 148.93699645996094 147.5540008544922
v 194.0780029296875 129.1699981689453 128.6820068359375
v 193.19900512695312 133.26699829101562 129.70799255371094
v 242.5050048828125 131.8209991455078 155.46499633789062
v 243.93499755859375 129.88499450683594 154.8520050048828
v 246.61500549316406 116.44599914550781 145.64300537109375
v 183.03700256347656 107.44400024414062 151.86599731445312
v 185 105.79399871826172 148.23199462890625
v 186.79299926757812 149.4320068359375 151.21499633789062
v 187.3560028076172 149.95199584960938 149.54400634765625
v 231.60400390625 132.48699951171875 144.85499572753906
v 186.5489959716797 110.36499786376953 166.3679962158203
v 185.62600708007812 113.18399810791016 166.39999389648438
v 188.26600646972656 113.29499816894531 138.9949951171875
v 189.38999938964844 113.72100067138672 136.19400024414062
v 240.8990020751953 126.36599731445312 158.4239959716797
v 237.2519989013672 123.36299896240234 159.2689971923828
v 232.49400329589844 139.69700622558594 157.94700622558594
v 238.44400024414062 116.27999877929688 144.3939971923828
v 239.2209930419922 119.08499908447266 144.22500610351562
v 242.60899353027344 130.63900756835938 147.2969970703125
v 244.3769989013672 130.1959991455078 148.2480010986328
v 245.2740020751953 127.06300354003906 157.85499572753906
v 244.63999938964844 129.0330047607422 158.0570068359375
v 236.906005859375 132.12100219726562 158.85800170898438
v 182.7779998779297 115.16500091552734 166.39999389648438
v 217.64199829101562 122.68199920654297 127.6240005493164
v 226.5800018310547 109.41500091552734 140.5070037841797
v 215.81500244140625 148.79800415039062 136.45700073242188
v 217.68099975585938 146.218994140625 135.56500244140625
v 233.68099975585938 124.97100067138672 144.5
v 234.77000427246094 123.78800201416016 141.718994140625
v 191.1999969482422 144.46499633789062 163.25900268554688
v 186.78599548339844 144.7519989013672 162.5709991455078
v 217.6840057373047 148.8280029296875 143.64199829101562
v 180.2740020751953 115.65799713134766 165.5489959716797
v 178.31100463867188 117.63400268554688 163.87399291992188
v 178.10899353027344 113.85600280761719 145.43800354003906
v 178.302001953125 114.94599914550781 144.58299255371094
v 215.92799377441406 105.56199645996094 148.71499633789062
v 197.62600708007812 139.53599548339844 129.3730010986328
v 198.65499877929688 135.23500061035156 128.0540008544922
v 229.59100341796875 111.25399780273438 148.04200744628906
v 206.74400329589844 138.10499572753906 164.8000030517578
v 206.16900634765625 143.13400268554688 164.20199584960938
v 185.60499572753906 111.41500091552734 141.60499572753906
v 183.9219970703125 113.00299835205078 141.54299926757812
v 238.52200317382812 117.40499877929688 159.3470001220703
v 235.28399658203125 116.41400146484375 161.23699951171875
v 194.43699645996094 106.48699951171875 167.58599853515625
v 229.59800720214844 110.5989990234375 151.99400329589844
v 228.77999877929688 110.22000122070312 156.75900268554688
v 212.66900634765625 124.66100311279297 164.8179931640625
v 206.29100036621094 125.59100341796875 165.13099670410156
v 221.16099548339844 106.77200317382812 161.9239959716797
v 220.85400390625 107.53900146484375 164.0229949951172
v 212.093994140625 151.80999755859375 143.58200073242188
v 208.81300354003906 152.1929931640625 144.2729949951172
v 209.7949981689453 152.15899658203125 149.87899780273438
v 180.85800170898438 144.61099243164062 159.35899353027344
v 182.1739959716797 144.33799743652344 156.23899841308594
v 190.06199645996094 147.3249969482422 136.7969970703125
v 190.11300659179688 143.93499755859375 134.41099548339844
v 194.82200622558594 120.177001953125 130.52099609375
v 194.99099731445312 116.58699798583984 131.74600219726562
v 195.28700256347656 141.24400329589844 131.2550048828125
v 199.78900146484375 143.0260009765625 130.7480010986328
v 242.82899475097656 130.25100708007812 152.85400390625
v 244.20799255371094 128.0659942626953 152.968994140625
v 180.0570068359375 140.41200256347656 153.69200134277344
v 181.24000549316406 142.57000732421875 153.98599243164062
v 236.9290008544922 131.10000610351562 147.55099487304688
v 238.1280059814453 132.96499633789062 149.4239959716797
v 234.57400512695312 125.15599822998047 147.08900451660156
v 187.0279998779297 147.90499877929688 156.81199645996094
v 189.6179962158203 149.70599365234375 154.8560028076172
v 251.1750030517578 125.2249984741211 145.76699829101562
v 252.04200744628906 126.26499938964844 146.61599731445312
v 181.1280059814453 111.88200378417969 162.4739990234375
v 179.66400146484375 113.7020034790039 161.16799926757812
v 242.16299438476562 114.96499633789062 154.3000030517578
v 178.64199829101562 115.32099914550781 159.63499450683594
v 176.47999572753906 118.88700103759766 151.44400024414062
v 175.42999267578125 122.08499908447266 149.51300048828125
v 181.56700134277344 131.84300231933594 136.89700317382812
v 179.50599670410156 133.3679962158203 139.52000427246094
v 210.31700134277344 112.21800231933594 165.80799865722656
v 216.45799255371094 106.66799926757812 138.5780029296875
v 213.29200744628906 107.23600006103516 136.41799926757812
v 204.2790069580078 106.73500061035156 137.95599365234375
v 206.46499633789062 104.87100219726562 142.52200317382812
v 233.77000427246094 121.81400299072266 146.48800659179688
v 235.58399963378906 120.9530029296875 146.31300354003906
v 229.5570068359375 124.76599884033203 161.97799682617188
v 180.4980010986328 140.73199462890625 155.37899780273438
v 245.20199584960938 117.8219985961914 157.44900512695312
v 243.5780029296875 116.0199966430664 156.64999389648438
v 232.6820068359375 124.93499755859375 135.56100463867188
v 233.8719940185547 114.06999969482422 161.14100646972656
v 244.6009979248047 126.2959976196289 151.68800354003906
v 245.36700439453125 124.59200286865234 151.927001953125
v 230.7050018310547 115.06199645996094 144.95599365234375
v 229.25599670410156 111.82099914550781 142.7779998779297
v 209.73300170898438 122.87300109863281 125.77100372314453
v 201.88699340820312 139.68800354003906 128.63499450683594
v 233.6699981689453 121.39600372314453 136.0240020751953
v 234.1540069580078 117.59200286865234 137.11599731445312
v 227.74000549316406 130.79800415039062 132.38999938964844
v 231.2429962158203 129.13699340820312 135.26600646972656
v 219.43099975585938 106.83000183105469 147.6529998779297
v 228.41099548339844 109.80500030517578 139.49200439453125
v 224.947998046875 130.50599670410156 162.01199340820312
v 226.59300231933594 109.63899993896484 148.20399475097656
v 214.9510040283203 114.71800231933594 164.8209991455078
v 206.3209991455078 145.63099670410156 132.08799743652344
v 247.25399780273438 125.48400115966797 145.60000610351562
v 184.08900451660156 120.46399688720703 135.8260040283203
v 183.0590057373047 122.66899871826172 136.16600036621094
v 180.625 110.74099731445312 144.05799865722656
v 180.656005859375 113.18099975585938 143.0590057373047
v 245.27000427246094 128.3560028076172 155.12399291992188
v 246.45599365234375 125.96199798583984 155.30099487304688
v 184.1580047607422 148.2969970703125 149.33099365234375
v 249.4709930419922 119.56800079345703 145.94900512695312
v 249.39599609375 119.03399658203125 147.51199340820312
v 223.68899536132812 147.0959930419922 139.78599548339844
v 225.21099853515625 144.43299865722656 141.64999389648438
v 252.32400512695312 125.08000183105469 146.52000427246094
v 251.96200561523438 124.04900360107422 147.51400756835938
v 190.41700744628906 149.98300170898438 139.03599548339844
v 181.61399841308594 121.36100006103516 138.98599243164062
v 181.302001953125 125.30999755859375 137.66799926757812
v 177.14500427246094 123.43199920654297 163.89500427246094
v 179.14100646972656 111.21700286865234 150.5749969482422
v 208.50100708007812 114.60199737548828 166.44200134277344
v 188.59800720214844 116.18199920654297 134.13699340820312
v 190.7969970703125 115.26799774169922 133.51699829101562
v 232.29800415039062 118.75700378417969 144.65699768066406
v 232.1269989013672 116.90699768066406 143.73800659179688
v 241.2220001220703 132.5919952392578 153.3990020751953
v 241.63800048828125 133.41600036621094 156.2519989013672
v 227.83700561523438 115.87100219726562 162.92999267578125
v 219.63900756835938 108.88700103759766 164.79200744628906
v 216.98399353027344 134.7729949951172 128.10699462890625
v 210.16400146484375 103.63600158691406 164.21099853515625
v 207.1820068359375 103.06999969482422 161.3780059814453
v 210.90199279785156 105.58799743652344 142.38400268554688
v 183.54800415039062 139.11900329589844 163.34800720214844
v 179.72000122070312 137.4199981689453 162.7949981689453
v 250.7449951171875 127.22100067138672 148.51600646972656
v 248.6529998779297 127.177001953125 148.79200744628906
v 227.53199768066406 137.6510009765625 135.33900451660156
v 250.1540069580078 126.20999908447266 148.77499389648438
v 248.65699768066406 125.31900024414062 148.8000030517578
v 200.97300720214844 114.052001953125 168.843994140625
v 197.75399780273438 111.26799774169922 169.57899475097656
v 233.7790069580078 124.17900085449219 146.21600341796875
v 196.87899780273438 150.6580047607422 136.5760040283203
v 198.38299560546875 147.60800170898438 161.8459930419922
v 195.25599670410156 102.75499725341797 153.7969970703125
v 192.48300170898438 102.81900024414062 150.52099609375
v 227.14199829101562 110.81600189208984 145.02699279785156
v 224.23800659179688 108.71499633789062 141.0709991455078
v 224.8719940185547 112.00299835205078 133.79800415039062
v 223.15199279785156 109.18499755859375 135.38400268554688
v 246.36900329589844 120.0719985961914 157.86000061035156
v 220.3040008544922 138.63099670410156 131.17100524902344
v 223.51800537109375 138.25399780273438 132.73800659179688
v 187.49099731445312 105.69499969482422 158.3520050048828
v 213.71600341796875 103.87999725341797 161.23399353027344
v 231.58599853515625 111.34100341796875 152.5970001220703
v 182.7689971923828 145.30499267578125 153.4709930419922
v 185.60499572753906 118.68299865722656 135.13299560546875
v 218.53900146484375 150.80499267578125 150.71200561523438
v 216.60699462890625 151.76499938964844 150.8249969482422
v 175.74400329589844 132.50799560546875 146.3470001220703
v 215.13299560546875 142.6020050048828 131.9040069580078
v 196.7779998779297 118.44999694824219 130.30499267578125
v 184.93299865722656 115.53600311279297 166.39999389648438
v 180.34100341796875 144.53399658203125 149.51300048828125
v 182.08399963378906 146.64700317382812 149.41299438476562
v 184.90899658203125 108.90799713134766 164.40199279785156
v 184.61599731445312 107.78800201416016 159.52499389648438
v 186.63699340820312 146.51800537109375 160.94000244140625
v 188.81199645996094 133.5500030517578 132.2550048828125
v 186.7949981689453 117.08000183105469 134.9810028076172
v 176.5449981689453 137.5679931640625 160.093994140625
v 177.947998046875 139.20599365234375 158.38800048828125
v 209.3800048828125 140.68899536132812 164.343994140625
v 216.9739990234375 130.0260009765625 164.3979949951172
v 233.13999938964844 114.23500061035156 138.73399353027344
v 226.61700439453125 143.77999877929688 139.47500610351562
v 211.95399475097656 142.55599975585938 162.39199829101562
v 212.90899658203125 138.906005859375 163.75900268554688
v 210.427001953125 153.20700073242188 140.96499633789062
v 209.63400268554688 151.9499969482422 137.53399658203125
v 235.25100708007812 120.73500061035156 137.79800415039062
v 219.0489959716797 134.99200439453125 163.0019989013672
v 191.281005859375 140.78900146484375 164.0679931640625
v 179.86000061035156 143.8249969482422 161.3679962158203
v 183.18800354003906 110.98500061035156 142.2790069580078
v 236.9969940185547 118.82599639892578 145.38699340820312
v 201.91900634765625 104.4209976196289 142.74200439453125
v 198.68600463867188 103.10800170898438 144.9290008544922
v 203.42799377441406 103.24299621582031 165.18899536132812
v 200.5469970703125 103.11799621582031 164.92599487304688
v 232.75900268554688 129.65899658203125 146.21099853515625
v 232.593994140625 130.58700561523438 143.95700073242188
v 224.02099609375 143.77999877929688 156.9709930419922
v 228.5959930419922 140.83700561523438 141.88499450683594
v 225.8719940185547 141.5659942626953 144.697998046875
v 197.86700439453125 121.4739990234375 128.62899780273438
v 226.47000122070312 140.9759979248047 147.30099487304688
v 228.46400451660156 138.67300415039062 147.01499938964844
v 211.33099365234375 104.68000030517578 151.01100158691406
v 177.4409942626953 139.1529998779297 161.1300048828125
v 209.57400512695312 132.1580047607422 126.06400299072266
v 211.27999877929688 129.60800170898438 125.54499816894531
v 178.89500427246094 137.45899963378906 155.04800415039062
v 221.0540008544922 150.11599731445312 152.031005859375
v 223.14199829101562 148.6179962158203 151.67999267578125
v 223.42100524902344 113.44999694824219 163.96499633789062
v 221.7570037841797 111.2030029296875 164.63900756835938
v 245.32000732421875 125.90699768066406 153.65699768066406
v 179.39599609375 139.8350067138672 162.1820068359375
v 243.81900024414062 113.76399993896484 147.48399353027344
v 193.7010040283203 102.65899658203125 147.50599670410156
v 250.43099975585938 122.45500183105469 148.32699584960938
v 251.0749969482422 124.40699768066406 148.5959930419922
v 212.66200256347656 145.5500030517578 133.47000122070312
v 211.96200561523438 143.08200073242188 131.3209991455078
v 214.8520050048828 152.86199951171875 140.82000732421875
v 178.906005859375 115.31700134277344 163.82699584960938
v 201.04200744628906 110.13400268554688 168.98500061035156
v 199.93800354003906 107.31400299072266 168.781005859375
v 207.8939971923828 127.82499694824219 125.22200012207031
v 249.12899780273438 128.48300170898438 148.20899963378906
v 222.5449981689453 113.9520034790039 131.8090057373047
v 220.3699951171875 116.86799621582031 129.85000610351562
v 218.86399841308594 106.06600189208984 160.30499267578125
v 216.85000610351562 104.6050033569336 161.69900512695312
v 198.5659942626953 105.66100311279297 141.2989959716797
v 233.5590057373047 122.15599822998047 143.75599670410156
v 233.1020050048828 120.94200134277344 145.05799865722656
v 216.2740020751953 149.82400512695312 150.13499450683594
v 232.25999450683594 132.5679931640625 146.55099487304688
v 225.43699645996094 139.50799560546875 159.1529998779297
v 222.65199279785156 136.99400329589844 161.3979949951172
v 205.6580047607422 135.59500122070312 127.02100372314453
v 197.4429931640625 115.31500244140625 131.43800354003906
v 196.3159942626953 112.16400146484375 133.16400146484375
v 184.4340057373047 119.2699966430664 166.09500122070312
v 230.3800048828125 138.92100524902344 141.9239959716797
v 235.4029998779297 138.13800048828125 151.25900268554688
v 237.5800018310547 136.55799865722656 153.21200561523438
v 246.2209930419922 128.28700256347656 156.71299743652344
v 250.11900329589844 124.05599975585938 145.60000610351562
v 250.19000244140625 122.76100158691406 145.6959991455078
v 176.31700134277344 135.62600708007812 160.16299438476562
v 176.62600708007812 133.76800537109375 161.5500030517578
v 219.7209930419922 146.4550018310547 148.54400634765625
v 176.72999572753906 136.7740020751953 146.11300659179688
v 215.6909942626953 105.60600280761719 158
v 215.27999877929688 104.427001953125 160.6269989013672
v 234.8459930419922 133.8179931640625 159.14300537109375
v 234.0800018310547 137.40199279785156 158.3699951171875
v 201.96200561523438 105.58899688720703 167.55999755859375
v 244.44400024414062 128.62100219726562 150.1320037841797
v 225.23300170898438 124.10600280761719 129.73699951171875
v 225.42999267578125 129.04100036621094 130.10000610351562
v 188.75999450683594 106.72699737548828 164.12100219726562
v 186.072998046875 107.48799896240234 162.62100219726562
v 222.45799255371094 149.1179962158203 153.89599609375
v 224.38600158691406 147.98500061035156 153.2949981689453
v 218.68699645996094 141.81199645996094 132.78799438476562
v 222.0850067138672 141.93899536132812 134.41799926757812
v 190.50999450683594 103.36000061035156 147.8280029296875
v 192.21499633789062 103.62699890136719 145.43299865722656
v 212.28799438476562 106.09700012207031 164.99099731445312
v 208.47300720214844 104.75199890136719 165.47000122070312
v 213.27999877929688 148.1840057373047 135.5229949951172
v 219.4499969482422 150.9720001220703 151.41299438476562
v 203.04600524902344 109.03099822998047 134.39100646972656
v 233.00399780273438 128.8699951171875 144.41099548339844
v 233.23699951171875 127.47599792480469 146.37399291992188
v 181.7100067138672 116.9469985961914 166.2949981689453
v 178.99000549316406 119.37300109863281 165.2259979248047
v 244.3489990234375 117.19200134277344 145.45700073242188
v 244.03700256347656 120.38700103759766 145.3730010986328
v 179.2239990234375 138.875 156.2689971923828
v 226.61500549316406 146.3419952392578 152.84800720214844
v 224.56199645996094 147.23399353027344 154.4239959716797
v 250.0989990234375 120.53399658203125 147.53500366210938
v 205.156005859375 116.81700134277344 167.6320037841797
v 243.8719940185547 130.49000549316406 157.12100219726562
v 245.05499267578125 129.8090057373047 156.8350067138672
v 217.04600524902344 106.39199829101562 143.41900634765625
v 232.94500732421875 119.98999786376953 143.81199645996094
v 223.23599243164062 147.0030059814453 155.50799560546875
v 214.302001953125 149.7729949951172 144.96499633789062
v 233.35800170898438 129.87399291992188 138.26800537109375
v 234.56500244140625 127.96900177001953 139.75900268554688
v 193.91700744628906 111.4520034790039 134.91099548339844
v 191.41600036621094 112.4800033569336 135.65699768066406
v 225.55499267578125 146.52200317382812 150.97300720214844
v 243.3260040283203 127.71499633789062 158.39999389648438
v 242.71200561523438 129.44500732421875 158.37100219726562
v 225.3679962158203 135.27999877929688 132.33799743652344
v 233.56100463867188 126.04000091552734 146.5189971923828
v 214.4810028076172 135.4149932861328 164.40499877929688
v 207.25999450683594 139.88699340820312 128.4290008544922
v 239.10499572753906 134.13099670410156 158.3730010986328
v 237.08900451660156 135.08599853515625 158.52999877929688
v 191.22500610351562 124.81300354003906 130.82899475097656
v 176.85499572753906 136.26699829101562 161.4219970703125
v 233.7689971923828 137.66099548339844 150.25399780273438
v 230.88099670410156 134.4980010986328 145.86700439453125
v 185.79800415039062 140.26600646972656 135.56399536132812
v 184.9080047607422 142.26800537109375 137.16900634765625
v 176.50900268554688 135.40899658203125 158.55499267578125
v 226.80299377441406 117.33899688720703 131.54299926757812
v 247.6909942626953 123.36299896240234 145.60000610351562
v 218.63800048828125 108.83699798583984 134.59300231933594
v 219.10000610351562 112.39299774169922 131.89999389648438
v 233.46800231933594 122.58300018310547 145.15699768066406
v 188.5279998779297 121.94999694824219 132.4709930419922
v 187.5489959716797 118.7979965209961 133.3350067138672
v 227.7100067138672 114.23699951171875 133.48699951171875
v 190.56100463867188 151.31500244140625 149.16900634765625
v 231.97999572753906 111.2959976196289 156.19200134277344
v 231.468994140625 110.82599639892578 158.22500610351562
v 194.66099548339844 107.63800048828125 140.48399353027344
v 194.97799682617188 109.5999984741211 137.63900756835938
v 199.16900634765625 153.22500610351562 140.40199279785156
v 199.12399291992188 151.65199279785156 137.13099670410156
v 178.7779998779297 141.57400512695312 161.38299560546875
v 226.7010040283203 142.26300048828125 137.593994140625
v 225.60699462890625 140.3000030517578 135.49899291992188
v 201.85499572753906 152.48399353027344 137.87899780273438
v 219.38299560546875 134.93299865722656 128.93600463867188
v 222.13800048828125 135.38600158691406 130.25799560546875
v 183.60299682617188 110.78900146484375 166.16900634765625
v 224.7899932861328 108.81099700927734 137.3300018310547
v 214.0749969482422 150.5679931640625 137.1020050048828
v 215.3990020751953 151.78799438476562 138.64500427246094
v 233.5709991455078 116.46700286865234 141.56900024414062
v 231.7899932861328 113.81199645996094 141.72799682617188
v 177.75100708007812 118.322998046875 143.98800659179688
v 178.68499755859375 120.60600280761719 142.197998046875
v 203.76199340820312 103.12699890136719 146.18600463867188
v 200.46200561523438 102.61299896240234 147.03199768066406
v 228.11599731445312 139.4980010986328 144.4459991455078
v 177.38499450683594 126.63500213623047 142.38499450683594
v 205.00999450683594 126.24500274658203 125.56099700927734
v 249.5050048828125 127.8550033569336 145.79800415039062
v 234.30799865722656 126.75900268554688 147.1699981689453
v 224.24000549316406 145.0959930419922 149.25799560546875
v 175.01600646972656 129.1529998779297 147.96299743652344
v 208.5070037841797 104.12200164794922 145.98699951171875
v 206.89100646972656 103.69499969482422 149.75100708007812
v 196.34300231933594 102.34600067138672 149.02000427246094
v 182.00799560546875 125.75800323486328 164.99000549316406
v 238.01699829101562 121.16600036621094 159.0449981689453
v 235.56399536132812 120.38400268554688 160.78799438476562
v 213.50900268554688 123.5009994506836 126.38899993896484
v 232.17999267578125 117.447998046875 135.1219940185547
v 229.64300537109375 117.77300262451172 133.19200134277344
v 180.46200561523438 140.64599609375 141.0229949951172
v 182.2449951171875 142.14999389648438 139.5749969482422
v 233.9499969482422 120.68299865722656 142.6820068359375
v 244.1479949951172 114.81600189208984 149.9429931640625
v 234.16299438476562 122.96800231933594 146.59500122070312
v 235.33799743652344 122.32099914550781 146.70399475097656
v 207.6840057373047 153.1909942626953 140.26499938964844
v 207.25 147.95199584960938 159.7760009765625
v 206.53700256347656 150.4010009765625 156.7449951171875
v 176.3939971923828 121.7300033569336 144.92799377441406
v 242.1929931640625 131.96600341796875 157.71200561523438
v 232.8090057373047 132.13600158691406 138.88299560546875
v 188.18899536132812 147.76699829101562 159.35499572753906
v 184.74600219726562 137.97300720214844 135.69000244140625
v 180.0780029296875 129.4340057373047 138.45700073242188
v 234.53900146484375 118.99700164794922 142.0850067138672
v 235.3090057373047 121.25499725341797 140.65499877929688
v 231.96099853515625 118.05400085449219 145.98300170898438
v 219.76300048828125 115.08200073242188 164.8000030517578
v 217.52200317382812 121.70700073242188 164.7790069580078
v 245.75100708007812 127.41200256347656 149.4949951171875
v 246.46600341796875 129.39199829101562 148.54200744628906
v 240.18699645996094 122.16500091552734 144.39700317382812
v 195.0500030517578 124.06199645996094 129.06399536132812
v 185.99899291992188 120.21800231933594 133.64500427246094
v 228.20799255371094 137.83900451660156 158.86300659179688
v 204.2239990234375 103.18900299072266 150.84800720214844
v 199.94400024414062 125.12200164794922 127.16600036621094
v 241.27699279785156 115.1780014038086 156.83599853515625
v 219.6490020751953 139.85699462890625 161.52200317382812
v 180.62899780273438 108.74600219726562 148.74099731445312
v 181.4199981689453 144.8040008544922 152.13499450683594
v 203.83200073242188 152.90499877929688 152.28500366210938
v 198.16600036621094 152.86099243164062 149.55999755859375
v 187.4949951171875 124.9800033569336 132.4929962158203
v 229.88699340820312 136.8040008544922 146.8560028076172
v 182.6300048828125 140.1540069580078 138.07000732421875
v 222.14700317382812 126.30500030517578 128.63499450683594
v 176.6269989013672 123.58899688720703 158.67799377441406
v 186.14599609375 127.90299987792969 132.89999389648438
v 234.16400146484375 133 147.63299560546875
v 234.4459991455078 130.49899291992188 147.19200134277344
v 217.197998046875 118.90499877929688 128.36199951171875
v 215.4219970703125 114.8479995727539 129.64999389648438
v 177.2480010986328 120.54199981689453 163.51400756835938
v 203.7449951171875 151.52999877929688 155.47000122070312
v 240.71200561523438 134.29200744628906 157.66799926757812
v 177.37399291992188 114.53299713134766 148.8090057373047
v 213.46200561523438 152.61199951171875 138.6790008544922
v 182.88800048828125 110.18699645996094 162.1540069580078
v 218.8820037841797 148.427001953125 150.04800415039062
v 219.51300048828125 151.06199645996094 152.44700622558594
v 185.68899536132812 116.78299713134766 137.63499450683594
v 187.23399353027344 144.19900512695312 136.50900268554688
v 231.61000061035156 114.12799835205078 146.81100463867188
v 230.26800537109375 113.06700134277344 146.41099548339844
v 186.93099975585938 139.6540069580078 163.9980010986328
v 236.71800231933594 136.41900634765625 150.79299926757812
v 202.7259979248047 128.21800231933594 165.60899353027344
v 227.1739959716797 120.91799926757812 162.70399475097656
v 187.39700317382812 123.87100219726562 165.73500061035156
v 223.5469970703125 146.26199340820312 142.2169952392578
v 182.0489959716797 144.36000061035156 142.46499633789062
v 222.2550048828125 144.89199829101562 145.61700439453125
v 224.48800659179688 143.02699279785156 147.11199951171875
v 239.4040069580078 113.99299621582031 146.0189971923828
v 240.593994140625 116.16100311279297 144.20799255371094
v 242.36500549316406 117.2979965209961 158.20599365234375
v 224.1840057373047 109.40399932861328 162.7790069580078
v 222.5 108.09600067138672 162.927001953125
v 246.3470001220703 126.11900329589844 149.76300048828125
v 225.38099670410156 135.031005859375 160.73199462890625
v 228.86599731445312 134.20700073242188 159.9669952392578
v 232.08099365234375 130.88400268554688 145.33799743652344
v 246.47999572753906 123.7229995727539 153.1009979248047
v 228.4290008544922 129.8560028076172 161.22900390625
v 203.73599243164062 112.03399658203125 131.52000427246094
v 207.46499633789062 144.79200744628906 162.6320037841797
v 187.5800018310547 109.2770004272461 141.8000030517578
v 225.89500427246094 109.54499816894531 152.43600463867188
v 224.79800415039062 109.0510025024414 157.98899841308594
v 182.83900451660156 147.1959991455078 151.0800018310547
v 251.80999755859375 126.79499816894531 147.76100158691406
v 184.96099853515625 147.55099487304688 141.78700256347656
v 184.00100708007812 144.57699584960938 139.48199462890625
v 240.85699462890625 124.47599792480469 144.91200256347656
v 217.4219970703125 104.94999694824219 163.86300659179688
v 240.37600708007812 130.83900451660156 148.13699340820312
v 231.8520050048828 133.90199279785156 159.40899658203125
v 215.58399963378906 146.54600524902344 158.25399780273438
v 208.25100708007812 116.427001953125 127.88500213623047
v 232.4499969482422 112.01399993896484 160.34100341796875
v 180.66400146484375 142.77099609375 156.98500061035156
v 176.83099365234375 117.78500366210938 146.71400451660156
v 192.7969970703125 146.14100646972656 134.73399353027344
v 195.25599670410156 152.46600341796875 150.8990020751953
v 202.0760040283203 153.20899963378906 145.1060028076172
v 206.46099853515625 152.83900451660156 147.99400329589844
v 240.42799377441406 113.23200225830078 147.9969940185547
v 241.61199951171875 114.34100341796875 145.41200256347656
v 178.44000244140625 112.36599731445312 147.8990020751953
v 178.47300720214844 113.375 152.85000610351562
v 211.86199951171875 136.8179931640625 164.77999877929688
v 180.20700073242188 121.56700134277344 165.3780059814453
v 210.9980010986328 140.45700073242188 129.20399475097656
v 210.8699951171875 136.4429931640625 127.2959976196289
v 211.26199340820312 145.57899475097656 160.78599548339844
v 240.2550048828125 123.58599853515625 158.44000244140625
v 225.63800048828125 108.93399810791016 161.28799438476562
v 223.57899475097656 108.03199768066406 160.98899841308594
v 211.11500549316406 106.5739974975586 138.73300170898438
v 207.80299377441406 106.47899627685547 138.61700439453125
v 220.9600067138672 147.44000244140625 150.24899291992188
v 221.99400329589844 148.50900268554688 150.6439971923828
v 216.2259979248047 139.69500732421875 162.39599609375
v 186.37399291992188 146.47300720214844 138.73399353027344
v 221.47900390625 131.35699462890625 162.61099243164062
v 249.92300415039062 121.20600128173828 145.88999938964844
v 208.34800720214844 143.302001953125 130.58399963378906
v 199.93499755859375 152.6510009765625 152.843994140625
v 194.7480010986328 113.66000366210938 132.7729949951172
v 228.7050018310547 140.24200439453125 138.35400390625
v 242.3179931640625 116.16300201416016 144.73500061035156
v 243.71499633789062 114.88600158691406 145.5500030517578
v 183.5919952392578 147.375 146.0989990234375
v 231.1300048828125 137.61599731445312 139.53900146484375
v 196.38600158691406 108.00599670410156 168.97900390625
v 245.18099975585938 115.64099884033203 145.6219940185547
v 235.68600463867188 137.61900329589844 158.1790008544922
v 234.27699279785156 139.18699645996094 157.76400756835938
v 229.9149932861328 110.5250015258789 160.58999633789062
v 220.3520050048828 107.31700134277344 141.12600708007812
v 216.99400329589844 143.42599487304688 160.11399841308594
v 214.18600463867188 105.54199981689453 153.7209930419922
v 212.28399658203125 104.79299926757812 156.90199279785156
v 224.3209991455078 142.9759979248047 136.2100067138672
v 199.5679931640625 108.98699951171875 135.40699768066406
v 187.906005859375 104.5989990234375 151.16799926757812
v 214.41099548339844 128.19200134277344 126.11100006103516
v 220.28199768066406 149.3780059814453 141.7790069580078
v 176.25799560546875 133.23500061035156 159.83599853515625
v 216.27000427246094 150.4530029296875 155.1529998779297
v 235.61500549316406 123.85900115966797 146.79299926757812
v 234.4239959716797 112.18000030517578 157.61099243164062
v 178.54800415039062 138.8730010986328 143.0540008544922
v 180.56300354003906 137.58700561523438 139.48599243164062
v 206.75999450683594 152.46800231933594 153.66900634765625
v 210.15199279785156 152.26499938964844 153.9029998779297
v 228.68299865722656 144.92300415039062 152.26100158691406
v 228.35400390625 143.98699951171875 150.8070068359375
v 233.18800354003906 131.24200439453125 141.25
v 230.45199584960938 113.83300018310547 134.97500610351562
v 211.85800170898438 150.25900268554688 155.93899536132812
v 237.36700439453125 121.41999816894531 145.0919952392578
v 230.25399780273438 136.03799438476562 136.9530029296875
v 231.55299377441406 132.43099975585938 136.6750030517578
v 236.52699279785156 112.99700164794922 154.6020050048828
v 233.51100158691406 112.05799865722656 152.93800354003906
v 213.96400451660156 106.33300018310547 140.52499389648438
v 178.93600463867188 113.88899993896484 156.3719940185547
v 195.65699768066406 152.88400268554688 143.8520050048828
v 244.19700622558594 123.44300079345703 158.3820037841797
v 192.94000244140625 114.12799835205078 133.14700317382812
v 248.98500061035156 128.88400268554688 146.5749969482422
v 188.10499572753906 141.593994140625 134.4720001220703
v 177.51800537109375 134.71200561523438 155.8979949951172
v 221.23899841308594 121.677001953125 128.7760009765625
v 194.61199951171875 104.85399627685547 165.14199829101562
v 192.83399963378906 118.03399658203125 132.0399932861328
v 239.92100524902344 114.0510025024414 155.38499450683594
v 243.33200073242188 125.44300079345703 158.39999389648438
v 230.93499755859375 138.3179931640625 149.26400756835938
v 239.98500061035156 134.4250030517578 154.44200134277344
v 233.08099365234375 129.52099609375 160.5500030517578
v 229.75100708007812 143.8520050048828 154.3280029296875
v 230.2740020751953 143.19700622558594 152.2429962158203
v 177.4600067138672 139.70700073242188 147.05099487304688
v 176.04200744628906 128.17599487304688 152.94400024414062
v 180.67300415039062 129.9010009765625 164.8000030517578
v 177.01199340820312 136.42799377441406 158.18600463867188
v 222.03599548339844 147.35699462890625 155.73800659179688
v 249.6479949951172 125.19499969482422 145.60000610351562
v 203.73699951171875 123.33399963378906 166.4550018310547
v 245.8820037841797 125.09700012207031 158.16200256347656
v 185.24400329589844 122.19200134277344 133.89199829101562
v 218.80099487304688 148.75999450683594 137.17300415039062
v 220.8800048828125 148.89199829101562 138.0050048828125
v 179.5240020751953 141.8300018310547 143.9949951171875
v 197.2169952392578 115.41400146484375 168.88600158691406
v 217.33900451660156 151.91200256347656 140.03199768066406
v 219.52000427246094 150.40699768066406 138.89999389648438
v 233.1280059814453 118.64299774169922 143.0659942626953
v 222.4669952392578 141.05499267578125 159.20899963378906
v 235.73399353027344 134.8780059814453 149.42999267578125
v 178.38299560546875 125.7969970703125 164.35299682617188
v 191.21600341796875 117.10199737548828 167.5279998779297
v 192.2740020751953 121.25499725341797 166.55299377441406
v 228.2550048828125 141.0449981689453 149.2830047607422
v 230.322998046875 141.49000549316406 150.41200256347656
v 221.2469940185547 149.73199462890625 139.76400756835938
v 197.6060028076172 108.04299926757812 138.26199340820312
v 187.73699951171875 108.31500244140625 165.89700317382812
v 237.1929931640625 137.68899536132812 156.13999938964844
v 228.85000610351562 133.8300018310547 134.6790008544922
v 242.67100524902344 130.91200256347656 149.06900024414062
v 190.10299682617188 146.20799255371094 162.45799255371094
v 211.71800231933594 153.06500244140625 138.79200744628906
v 212.14700317382812 151.11599731445312 137.04299926757812
v 231.843994140625 121.67900085449219 161.6999969482422
v 213.08799743652344 150.86000061035156 149.30799865722656
v 184.3040008544922 125.30400085449219 134.375
v 188.63099670410156 118.01699829101562 166.4199981689453
v 205.927001953125 153.37899780273438 142.13600158691406
v 191.3820037841797 137.22799682617188 131.6540069580078
v 234.1840057373047 128.45599365234375 147.16600036621094
v 200.81399536132812 107.10800170898438 138.1840057373047
v 247.375 122.00900268554688 156.83399963378906
v 176.41299438476562 123.30899810791016 161.85299682617188
v 239.8040008544922 132.83299255371094 158.35699462890625
v 247.8000030517578 118.26100158691406 145.76300048828125
v 248.3719940185547 116.84500122070312 146.9530029296875
v 198.77200317382812 104.63300323486328 167.1540069580078
v 223.86399841308594 143.81399536132812 144.28199768066406
v 215.3719940185547 148.98699951171875 156.23300170898438
v 245.6439971923828 123.13200378417969 145.60000610351562
v 221.95899963378906 145.07699584960938 156.66600036621094
v 200.56300354003906 102.70999908447266 156.16799926757812
v 177.34800720214844 122.42500305175781 142.87600708007812
v 185.8990020751953 142.21400451660156 163.13400268554688
v 248.802001953125 123.09200286865234 148.8990020751953
v 217.13900756835938 143.94200134277344 133.83999633789062
v 214.10400390625 137.4320068359375 128.27999877929688
v 201.04100036621094 111.30799865722656 132.78500366210938
v 203.95599365234375 146.1820068359375 162.17100524902344
v 226.30999755859375 143.8730010986328 149.83700561523438
v 235.25100708007812 113.83300018310547 148.343994140625
v 233.2480010986328 111.99400329589844 149.86900329589844
v 210.09100341796875 103.63500213623047 160.0449981689453
v 233.9250030517578 126.71199798583984 137.2989959716797
v 195.6739959716797 103.10399627685547 144.89199829101562
v 193.76499938964844 147.11199951171875 162.7169952392578
v 194.90499877929688 149.00900268554688 160.5500030517578
v 222.1300048828125 107.73600006103516 137.7949981689453
v 234.91799926757812 123.72699737548828 137.9340057373047
v 226.35499572753906 110.53500366210938 162.7519989013672
v 196.8509979248047 127.2229995727539 127.76799774169922
v 241.7429962158203 118.9739990234375 144.593994140625
v 200.27999877929688 138.4040069580078 164.8000030517578
v 240.24600219726562 132.6219940185547 150.78399658203125
v 223.23199462890625 108.44999694824219 145.5279998779297
v 210.2729949951172 125.88200378417969 125.26100158691406
v 197.38999938964844 130.3769989013672 127.76100158691406
v 252.27699279785156 125.63800048828125 147.7429962158203
v 247.32899475097656 120.09600067138672 150.94000244140625
v 246.97799682617188 118.94200134277344 154.33999633789062
v 224.88299560546875 144.66400146484375 138.1820068359375
v 199.06300354003906 148.9199981689453 134.95700073242188
v 176.16000366210938 124.15399932861328 154.00599670410156
v 232.57400512695312 140.27000427246094 151.17999267578125
v 232.10699462890625 135.94900512695312 148.29100036621094
v 203.3979949951172 142.61700439453125 164.3459930419922
v 235.56500244140625 138.8300018310547 156.98899841308594
v 203.2050018310547 124.97699737548828 126.23100280761719
v 194.90699768066406 137.1479949951172 129.61300659179688
v 230.0659942626953 113.81400299072266 162.9499969482422
v 227.53799438476562 120.94000244140625 131.0330047607422
v 185.0489959716797 106.4739990234375 155.29400634765625
v 190.83999633789062 126.69499969482422 165.63600158691406
v 243.7779998779297 119.99400329589844 158.39999389648438
v 202.71400451660156 132.2469940185547 164.8800048828125
v 242.44200134277344 113.60900115966797 146.90699768066406
v 199.01600646972656 113.05699920654297 132.16700744628906
v 237.7169952392578 123.8550033569336 145.10899353027344
v 251.13699340820312 127.45500183105469 146.88699340820312
v 191.48199462890625 148.56100463867188 159.78900146484375
v 220.29100036621094 149.63699340820312 150.70599365234375
v 243.08599853515625 123.73300170898438 145.4459991455078
v 246.96600341796875 130.13499450683594 147.58999633789062
v 216.0399932861328 107.7699966430664 135.28700256347656
v 230.13499450683594 136.80599975585938 144.31300354003906
v 179.39999389648438 142.03700256347656 151.4029998779297
v 218.91200256347656 107.13300323486328 137.31500244140625
v 176.718994140625 132.93499755859375 157.64199829101562
v 200.822998046875 119.93399810791016 167.55299377441406
v 196.23599243164062 104.89900207519531 142.48500061035156
v 216.4980010986328 148.22999572753906 145.82000732421875
v 219.89500427246094 144.53199768066406 135.281005859375
v 192.06300354003906 105.55699920654297 142.906005859375
v 235.6959991455078 128.0019989013672 147.1999969482422
v 224.25599670410156 119.6969985961914 129.89300537109375
v 178.27200317382812 138.97999572753906 151.99400329589844
v 176.72799682617188 137.99200439453125 149.6490020751953
v 225.61599731445312 110.13600158691406 135.35499572753906
v 227.51699829101562 109.66400146484375 161.1540069580078
v 199.78199768066406 143.6490020751953 164.33700561523438
v 188.4409942626953 138.83399963378906 133.4709930419922
v 242.7830047607422 130.61700439453125 150.2220001220703
v 233.33099365234375 126.87899780273438 144.6199951171875
v 214.93899536132812 145.66700744628906 134.20899963378906
v 187.51600646972656 115.08399963378906 137.0290069580078
v 209.65899658203125 108.72599792480469 166.2729949951172
v 238.2209930419922 114.77100372314453 158.30299377441406
v 211.01199340820312 130.5240020751953 164.80799865722656
v 248.75799560546875 121.14099884033203 148.83999633789062
v 183.80499267578125 118.7040023803711 138.2570037841797
v 217.39999389648438 150.79400634765625 138.1009979248047
v 182.822998046875 108.89199829101562 156.68299865722656
v 227.14300537109375 113.36599731445312 163.1820068359375
v 198.38800048828125 110.82499694824219 133.5919952392578
v 183.53700256347656 146.05299377441406 160.3040008544922
v 238.3459930419922 134.8249969482422 151.51600646972656
v 234.1179962158203 139.95199584960938 156.21200561523438
v 235.11399841308594 125.65699768066406 139.48300170898438
v 212.36199951171875 112.31400299072266 130.63800048828125
v 210.7689971923828 148.15199279785156 158.08599853515625
v 204.32200622558594 143.2050018310547 130.2030029296875
v 240.8090057373047 130.83099365234375 158.38999938964844
v 177.43600463867188 140.125 149.91600036621094
v 203.58599853515625 153.41799926757812 139.83900451660156
v 227.88699340820312 144.82899475097656 154.59500122070312
v 250.17300415039062 128.2760009765625 147.36000061035156
v 235.1009979248047 118.10199737548828 139.7729949951172
v 191.10400390625 107.65599822998047 167.04600524902344
v 215.98199462890625 105.0530014038086 164.58200073242188
v 189.91000366210938 104.08200073242188 153.6580047607422
v 232.718994140625 130.8679962158203 146.86000061035156
v 195.42100524902344 150.8979949951172 156.10499572753906
v 189.59300231933594 127.62000274658203 131.2480010986328
v 193.34800720214844 115.1050033569336 168.8730010986328
v 214.41600036621094 104.9229965209961 164.54100036621094
v 192.2239990234375 110.44100189208984 138.73699951171875
v 189.77699279785156 112.02300262451172 138.8249969482422
v 201.28399658203125 114.73899841308594 130.38900756835938
v 196.61500549316406 109.83300018310547 135.31500244140625
v 177.90699768066406 130.71200561523438 141.21600341796875
v 251.23699951171875 123.8740005493164 146.0030059814453
v 183.22999572753906 129.0780029296875 135.07699584960938
v 184.9499969482422 106.66000366210938 144.38600158691406
v 188.55099487304688 104.9219970703125 144.98899841308594
v 190.7729949951172 108.25499725341797 141.27099609375
v 235.72500610351562 112.9520034790039 149.77699279785156
v 197.85000610351562 145.61399841308594 132.968994140625
v 210.8679962158203 148.5189971923828 135.27999877929688
v 177.56700134277344 134.62899780273438 142.5290069580078
v 238.2989959716797 128.0279998779297 146.49899291992188
v 216.95199584960938 107.23600006103516 164.7830047607422
v 220.62100219726562 147.08799743652344 136.843994140625
v 246.80799865722656 118.33100128173828 156.57400512695312
v 194.57899475097656 144.48800659179688 133.19200134277344
v 231.7220001220703 141.98300170898438 154.281005859375
v 208.80799865722656 113.68000030517578 129.375
v 239.06300354003906 135.97900390625 156.3070068359375
v 251.15199279785156 122.48999786376953 146.6649932861328
v 247.44400024414062 121.75900268554688 149.94500732421875
v 218.177001953125 110.76000213623047 164.8000030517578
v 245.5189971923828 130.54299926757812 147.6179962158203
v 184.6649932861328 132.58599853515625 134.43800354003906
v 216.0469970703125 110.72000122070312 132.43899536132812
v 231.41000366210938 137.0780029296875 158.54600524902344
v 227.1199951171875 145.31100463867188 150.9040069580078
v 191.61300659179688 141.718994140625 132.9029998779297
v 178.67100524902344 134.656005859375 163.10299682617188
v 207.42599487304688 132.02000427246094 164.81700134277344
v 189.5 113.2760009765625 167.3209991455078
v 199.125 102.51599884033203 150.96600341796875
v 215.28199768066406 143.44900512695312 161.11300659179688
v 175.156005859375 125.08699798583984 148.60800170898438
v 218.57699584960938 105.27200317382812 162.8090057373047
v 213.49600219726562 105.3270034790039 145.33399963378906
v 186.9409942626953 130.4980010986328 132.66799926757812
v 219.53500366210938 150.81500244140625 140.593994140625
v 232.7469940185547 140.83700561523438 156.35400390625
v 248.5330047607422 125.19499969482422 145.60000610351562

g grp1
usemtl mtl1
f 957 2 1 
f 264 1 2 
f 81 4 3 
f 83 3 4 
f 856 6 5 
f 244 5 6 
f 494 8 7 
f 297 7 8 
f 615 10 9 
f 394 9 10 
f 215 12 11 
f 127 11 12 
f 453 14 13 
f 203 13 14 
f 130 16 15 
f 182 15 16 
f 884 18 17 
f 29 17 18 
f 789 20 19 
f 936 19 20 
f 298 22 21 
f 34 21 22 
f 276 24 23 
f 308 23 24 
f 974 26 25 
f 715 25 26 
f 603 28 27 
f 532 27 28 
f 18 30 29 
f 343 29 30 
f 337 32 31 
f 434 31 32 
f 21 34 33 
f 604 33 34 
f 959 36 35 
f 432 35 36 
f 209 38 37 
f 420 37 38 
f 64 40 39 
f 962 39 40 
f 17 42 41 
f 117 41 42 
f 439 44 43 
f 861 43 44 
f 344 46 45 
f 345 45 46 
f 319 8 47 
f 494 47 8 
f 619 49 48 
f 742 48 49 
f 233 51 50 
f 120 50 51 
f 620 53 52 
f 615 52 53 
f 150 55 54 
f 847 54 55 
f 961 56 24 
f 708 24 56 
f 259 58 57 
f 808 57 58 
f 866 60 59 
f 305 59 60 
f 249 62 61 
f 865 61 62 
f 40 64 63 
f 980 63 64 
f 249 61 65 
f 684 65 61 
f 233 15 51 
f 182 51 15 
f 877 67 66 
f 221 66 67 
f 502 69 68 
f 206 68 69 
f 762 71 70 
f 855 70 71 
f 617 73 72 
f 16 72 73 
f 924 74 67 
f 461 67 74 
f 649 76 75 
f 118 75 76 
f 366 78 77 
f 253 77 78 
f 708 80 79 
f 967 79 80 
f 279 4 81 
f 946 83 82 
f 4 82 83 
f 496 85 84 
f 930 84 85 
f 427 87 86 
f 585 86 87 
f 382 89 88 
f 934 88 89 
f 813 91 90 
f 181 90 91 
f 214 93 92 
f 437 92 93 
f 673 95 94 
f 147 94 95 
f 139 97 96 
f 220 96 97 
f 751 99 98 
f 755 98 99 
f 234 100 46 
f 345 46 100 
f 939 102 101 
f 31 101 102 
f 119 104 103 
f 487 103 104 
f 832 106 105 
f 575 105 106 
f 471 108 107 
f 949 107 108 
f 850 110 109 
f 254 109 110 
f 756 112 111 
f 190 111 112 
f 128 114 113 
f 943 113 114 
f 941 116 115 
f 516 115 116 
f 850 117 110 
f 42 110 117 
f 374 75 118 
f 247 104 119 
f 182 121 120 
f 26 120 121 
f 588 123 122 
f 798 122 123 
f 144 125 124 
f 92 124 125 
f 63 114 126 
f 128 126 114 
f 273 127 12 
f 741 129 128 
f 126 128 129 
f 72 16 130 
f 135 132 131 
f 208 131 132 
f 151 134 133 
f 161 133 134 
f 131 136 135 
f 713 135 136 
f 972 138 137 
f 377 137 138 
f 804 139 96 
f 404 141 140 
f 361 140 141 
f 730 143 142 
f 381 142 143 
f 777 125 144 
f 584 146 145 
f 747 145 146 
f 720 148 147 
f 78 147 148 
f 55 150 149 
f 168 149 150 
f 799 134 151 
f 601 153 152 
f 137 152 153 
f 667 154 27 
f 223 27 154 
f 388 156 155 
f 976 155 156 
f 152 137 157 
f 377 157 137 
f 583 159 158 
f 500 158 159 
f 695 161 160 
f 865 160 161 
f 984 163 162 
f 541 162 163 
f 881 165 164 
f 616 164 165 
f 773 167 166 
f 361 166 167 
f 795 169 168 
f 807 168 169 
f 725 171 170 
f 591 170 171 
f 318 173 172 
f 997 172 173 
f 546 175 174 
f 564 174 175 
f 421 177 176 
f 675 176 177 
f 791 179 178 
f 898 178 179 
f 704 181 180 
f 846 180 181 
f 16 183 182 
f 121 182 183 
f 454 185 184 
f 472 184 185 
f 722 187 186 
f 236 186 187 
f 231 189 188 
f 895 188 189 
f 993 191 190 
f 111 190 191 
f 485 193 192 
f 698 192 193 
f 686 195 194 
f 808 194 195 
f 474 197 196 
f 39 196 197 
f 704 199 198 
f 983 198 199 
f 769 201 200 
f 691 200 201 
f 392 202 136 
f 713 136 202 
f 373 204 203 
f 251 203 204 
f 709 206 205 
f 372 205 206 
f 420 207 37 
f 724 37 207 
f 790 209 208 
f 131 208 209 
f 213 70 210 
f 810 210 70 
f 791 178 91 
f 846 91 178 
f 921 212 211 
f 169 211 212 
f 210 214 213 
f 771 213 214 
f 909 12 215 
f 499 217 216 
f 651 216 217 
f 913 219 218 
f 826 218 219 
f 280 96 220 
f 283 50 120 
f 686 194 221 
f 897 221 194 
f 406 223 222 
f 768 222 223 
f 643 225 224 
f 986 224 225 
f 525 226 69 
f 206 69 226 
f 617 228 227 
f 811 227 228 
f 894 230 229 
f 760 229 230 
f 360 232 231 
f 189 231 232 
f 985 233 50 
f 668 100 234 
f 598 236 235 
f 450 235 236 
f 408 238 237 
f 656 237 238 
f 915 240 239 
f 523 239 240 
f 442 242 241 
f 817 241 242 
f 974 25 243 
f 902 243 25 
f 797 244 6 
f 315 246 245 
f 397 245 246 
f 939 101 247 
f 322 247 101 
f 252 249 248 
f 647 248 249 
f 846 250 180 
f 199 180 250 
f 203 251 13 
f 781 13 251 
f 62 249 252 
f 616 77 253 
f 488 255 254 
f 109 254 255 
f 381 256 142 
f 660 142 256 
f 617 227 73 
f 1002 73 227 
f 453 13 257 
f 781 257 13 
f 58 259 258 
f 770 258 259 
f 415 261 260 
f 491 260 261 
f 839 263 262 
f 562 262 263 
f 2 265 264 
f 881 264 265 
f 557 267 266 
f 330 266 267 
f 757 268 109 
f 850 109 268 
f 660 270 269 
f 767 269 270 
f 591 272 271 
f 385 271 272 
f 579 273 12 
f 993 275 274 
f 604 274 275 
f 929 277 276 
f 961 276 277 
f 4 279 278 
f 737 278 279 
f 1001 96 280 
f 464 282 281 
f 696 281 282 
f 834 284 283 
f 50 283 284 
f 518 286 285 
f 568 285 286 
f 848 287 83 
f 3 83 287 
f 298 21 288 
f 33 288 21 
f 667 289 154 
f 627 154 289 
f 373 290 204 
f 605 204 290 
f 815 292 291 
f 928 291 292 
f 505 294 293 
f 175 293 294 
f 835 296 295 
f 858 295 296 
f 239 201 297 
f 769 297 201 
f 549 299 298 
f 495 298 299 
f 723 301 300 
f 143 300 301 
f 763 302 226 
f 372 226 302 
f 367 304 303 
f 893 303 304 
f 313 305 60 
f 451 307 306 
f 890 306 307 
f 463 309 308 
f 23 308 309 
f 626 311 310 
f 931 310 311 
f 756 111 312 
f 952 312 111 
f 592 314 313 
f 709 313 314 
f 932 316 315 
f 246 315 316 
f 699 318 317 
f 172 317 318 
f 457 319 47 
f 727 321 320 
f 262 320 321 
f 101 323 322 
f 722 322 323 
f 724 325 324 
f 683 324 325 
f 440 327 326 
f 798 326 327 
f 971 329 328 
f 303 328 329 
f 267 331 330 
f 530 330 331 
f 357 333 332 
f 910 332 333 
f 823 335 334 
f 717 334 335 
f 618 243 336 
f 772 336 243 
f 642 338 337 
f 32 337 338 
f 228 340 339 
f 390 339 340 
f 441 33 275 
f 604 275 33 
f 22 342 341 
f 19 341 342 
f 359 343 30 
f 495 344 342 
f 789 342 344 
f 100 346 345 
f 723 345 346 
f 644 348 347 
f 224 347 348 
f 397 84 349 
f 930 349 84 
f 788 351 350 
f 908 350 351 
f 741 353 352 
f 465 352 353 
f 635 355 354 
f 252 354 355 
f 689 356 118 
f 705 118 356 
f 552 357 332 
f 697 359 358 
f 30 358 359 
f 88 23 309 
f 371 360 231 
f 140 361 311 
f 167 311 361 
f 486 363 362 
f 700 362 363 
f 685 365 364 
f 609 364 365 
f 627 147 366 
f 78 366 147 
f 329 367 303 
f 459 369 368 
f 628 368 369 
f 833 371 370 
f 231 370 371 
f 879 205 372 
f 365 290 373 
f 746 75 374 
f 709 205 375 
f 879 375 205 
f 649 245 376 
f 349 376 245 
f 748 377 138 
f 73 378 16 
f 183 16 378 
f 393 380 379 
f 814 379 380 
f 143 382 381 
f 463 381 382 
f 518 384 383 
f 486 383 384 
f 135 385 272 
f 555 387 386 
f 849 386 387 
f 691 389 388 
f 885 388 389 
f 882 391 390 
f 965 390 391 
f 710 68 206 
f 209 37 392 
f 324 392 37 
f 9 394 393 
f 380 393 394 
f 847 395 54 
f 824 54 395 
f 731 396 20 
f 660 20 396 
f 556 397 246 
f 122 399 398 
f 277 398 399 
f 647 401 400 
f 821 400 401 
f 802 403 402 
f 266 402 403 
f 689 404 140 
f 485 405 193 
f 318 193 405 
f 602 223 406 
f 542 408 407 
f 867 407 408 
f 621 353 409 
f 741 409 353 
f 103 411 410 
f 195 410 411 
f 499 413 412 
f 415 412 413 
f 751 98 414 
f 784 414 98 
f 413 416 415 
f 261 415 416 
f 818 418 417 
f 496 417 418 
f 233 130 15 
f 571 336 419 
f 634 419 336 
f 597 420 38 
f 202 392 324 
f 871 421 176 
f 677 45 345 
f 954 423 422 
f 623 422 423 
f 879 425 424 
f 290 424 425 
f 922 427 426 
f 86 426 427 
f 846 178 428 
f 898 428 178 
f 538 430 429 
f 603 429 430 
f 244 431 5 
f 954 5 431 
f 526 35 432 
f 313 60 433 
f 866 433 60 
f 323 31 434 
f 934 379 435 
f 654 435 379 
f 945 367 329 
f 507 437 436 
f 93 436 437 
f 341 34 22 
f 169 212 438 
f 524 438 212 
f 493 439 43 
f 512 327 440 
f 288 33 441 
f 661 443 442 
f 242 442 443 
f 679 445 444 
f 534 444 445 
f 642 102 446 
f 939 446 102 
f 2 447 265 
f 843 265 447 
f 682 435 448 
f 589 448 435 
f 235 450 449 
f 809 449 450 
f 732 451 306 
f 315 75 452 
f 746 452 75 
f 389 185 454 
f 859 261 416 
f 451 456 455 
f 744 455 456 
f 836 458 457 
f 636 457 458 
f 873 459 368 
f 572 452 460 
f 746 460 452 
f 221 67 461 
f 625 310 179 
f 697 179 310 
f 611 9 393 
f 322 186 462 
f 236 462 186 
f 382 309 463 
f 160 464 281 
f 613 466 465 
f 504 465 466 
f 529 468 467 
f 238 467 468 
f 546 470 469 
f 703 469 470 
f 509 108 471 
f 185 473 472 
f 614 472 473 
f 657 197 474 
f 827 476 475 
f 614 475 476 
f 764 237 477 
f 622 477 237 
f 931 311 167 
f 577 478 449 
f 235 449 478 
f 222 480 479 
f 498 479 480 
f 795 481 211 
f 920 211 481 
f 535 483 482 
f 743 482 483 
f 648 485 484 
f 192 484 485 
f 331 486 362 
f 411 103 487 
f 753 255 488 
f 539 489 423 
f 623 423 489 
f 391 491 490 
f 859 490 491 
f 439 493 492 
f 138 492 493 
f 678 47 494 
f 46 344 495 
f 434 333 323 
f 722 323 333 
f 418 497 496 
f 529 496 497 
f 337 31 102 
f 165 479 498 
f 950 499 412 
f 672 94 289 
f 627 289 94 
f 586 501 500 
f 158 500 501 
f 997 503 502 
f 525 502 503 
f 845 465 504 
f 790 38 209 
f 349 163 376 
f 984 376 163 
f 587 506 505 
f 560 505 506 
f 993 274 191 
f 831 191 274 
f 437 507 124 
f 839 124 507 
f 579 508 273 
f 703 273 508 
f 822 510 509 
f 701 509 510 
f 304 511 165 
f 479 165 511 
f 901 513 512 
f 750 512 513 
f 684 364 65 
f 647 65 364 
f 841 514 441 
f 288 441 514 
f 909 215 515 
f 755 515 215 
f 116 517 516 
f 687 516 517 
f 558 518 383 
f 965 520 519 
f 146 519 520 
f 770 522 521 
f 577 521 522 
f 680 523 240 
f 921 524 212 
f 503 526 525 
f 764 525 526 
f 758 528 527 
f 718 527 528 
f 851 529 497 
f 894 141 404 
f 124 92 437 
f 362 530 331 
f 667 532 531 
f 188 531 532 
f 831 534 533 
f 431 533 534 
f 561 536 535 
f 483 535 536 
f 916 538 537 
f 429 537 538 
f 810 535 210 
f 482 210 535 
f 968 540 539 
f 489 539 540 
f 930 542 541 
f 407 541 542 
f 972 543 492 
f 928 492 543 
f 93 544 436 
f 905 436 544 
f 869 489 540 
f 352 545 129 
f 126 129 545 
f 469 547 546 
f 927 546 547 
f 733 549 548 
f 298 548 549 
f 876 551 550 
f 849 550 551 
f 481 552 332 
f 536 554 553 
f 107 553 554 
f 933 41 555 
f 387 555 41 
f 913 417 556 
f 84 556 417 
f 286 558 557 
f 267 557 558 
f 372 302 559 
f 998 559 302 
f 609 14 453 
f 632 505 560 
f 107 561 471 
f 855 471 561 
f 915 562 263 
f 174 564 563 
f 868 563 564 
f 679 34 341 
f 960 566 565 
f 792 565 566 
f 536 553 567 
f 989 567 553 
f 809 552 481 
f 286 569 568 
f 278 568 569 
f 833 370 570 
f 28 570 370 
f 618 336 571 
f 744 572 460 
f 945 573 367 
f 511 367 573 
f 105 575 574 
f 287 574 575 
f 42 254 110 
f 588 576 123 
f 653 123 576 
f 478 577 411 
f 991 411 577 
f 888 516 578 
f 687 578 516 
f 360 368 232 
f 628 232 368 
f 666 581 580 
f 794 580 581 
f 930 85 542 
f 467 542 85 
f 809 582 521 
f 770 521 582 
f 590 159 583 
f 1002 584 378 
f 854 378 584 
f 987 586 585 
f 86 585 586 
f 354 506 587 
f 880 366 77 
f 122 589 588 
f 654 588 589 
f 426 159 590 
f 272 591 132 
f 171 132 591 
f 653 474 326 
f 440 326 474 
f 166 593 592 
f 314 592 593 
f 405 173 318 
f 960 595 594 
f 830 594 595 
f 601 597 596 
f 38 596 597 
f 462 598 104 
f 487 104 598 
f 708 308 24 
f 751 600 599 
f 765 599 600 
f 152 597 601 
f 783 464 355 
f 252 355 464 
f 429 603 602 
f 27 602 603 
f 830 504 594 
f 914 594 504 
f 922 204 605 
f 678 607 606 
f 291 606 607 
f 401 609 608 
f 453 608 609 
f 882 260 491 
f 258 54 58 
f 824 58 54 
f 639 611 610 
f 89 610 611 
f 656 613 612 
f 465 612 613 
f 686 221 461 
f 949 553 107 
f 473 475 614 
f 857 52 615 
f 498 77 616 
f 46 495 299 
f 793 617 72 
f 844 618 547 
f 571 547 618 
f 567 619 48 
f 438 53 620 
f 477 622 621 
f 612 621 622 
f 260 412 415 
f 85 496 529 
f 994 623 613 
f 466 613 623 
f 808 624 194 
f 690 194 624 
f 279 626 625 
f 310 625 626 
f 781 629 628 
f 232 628 629 
f 692 631 630 
f 666 630 631 
f 646 294 632 
f 505 632 294 
f 151 133 633 
f 488 633 133 
f 772 635 634 
f 354 634 635 
f 948 636 153 
f 458 153 636 
f 90 518 285 
f 647 364 401 
f 609 401 364 
f 944 638 637 
f 177 637 638 
f 723 639 610 
f 676 640 403 
f 266 403 640 
f 155 200 388 
f 691 388 200 
f 598 462 236 
f 780 563 641 
f 785 641 563 
f 835 642 446 
f 286 518 558 
f 666 580 643 
f 925 643 580 
f 964 348 644 
f 537 429 44 
f 602 44 429 
f 951 646 645 
f 632 645 646 
f 654 589 435 
f 76 649 648 
f 376 648 649 
f 216 651 650 
f 530 650 651 
f 253 78 148 
f 783 652 282 
f 876 282 652 
f 357 552 187 
f 450 187 552 
f 1 653 576 
f 97 655 220 
f 988 220 655 
f 237 656 622 
f 612 622 656 
f 54 258 150 
f 912 150 258 
f 875 164 657 
f 892 657 164 
f 397 349 245 
f 911 585 87 
f 697 310 658 
f 931 658 310 
f 822 659 510 
f 460 510 659 
f 142 660 396 
f 333 434 661 
f 711 661 434 
f 789 19 342 
f 726 663 662 
f 749 662 663 
f 576 588 664 
f 814 664 588 
f 889 579 665 
f 909 665 579 
f 985 284 651 
f 530 651 284 
f 581 666 631 
f 763 226 525 
f 27 532 667 
f 744 460 659 
f 821 401 608 
f 847 668 234 
f 840 669 664 
f 957 664 669 
f 334 671 670 
f 955 670 671 
f 910 661 442 
f 762 659 71 
f 822 71 659 
f 501 673 672 
f 94 672 673 
f 549 674 299 
f 234 299 674 
f 749 176 675 
f 907 217 130 
f 793 130 217 
f 802 676 403 
f 723 300 677 
f 730 677 300 
f 837 678 606 
f 19 679 341 
f 436 680 507 
f 240 507 680 
f 93 681 544 
f 482 544 681 
f 88 682 23 
f 929 23 682 
f 714 683 581 
f 794 581 683 
f 733 395 549 
f 674 549 395 
f 59 685 684 
f 364 684 685 
f 812 316 688 
f 992 688 316 
f 886 207 420 
f 76 404 689 
f 514 690 624 
f 32 338 271 
f 591 271 338 
f 714 631 692 
f 619 694 693 
f 852 693 694 
f 281 696 695 
f 729 695 696 
f 658 359 697 
f 495 22 298 
f 193 699 698 
f 739 698 699 
f 216 700 413 
f 416 413 700 
f 62 464 160 
f 374 702 701 
f 655 701 702 
f 955 469 703 
f 384 181 704 
f 598 235 478 
f 374 705 702 
f 718 702 705 
f 759 280 528 
f 988 528 280 
f 126 706 63 
f 40 63 706 
f 451 455 707 
f 736 707 455 
f 964 615 53 
f 308 708 79 
f 783 355 635 
f 809 450 552 
f 832 517 116 
f 314 710 709 
f 206 709 710 
f 434 32 711 
f 271 711 32 
f 412 260 712 
f 882 712 260 
f 308 79 463 
f 256 463 79 
f 431 534 445 
f 745 714 713 
f 692 713 714 
f 26 121 715 
f 906 715 121 
f 127 641 11 
f 785 11 641 
f 975 716 173 
f 997 173 716 
f 961 24 276 
f 283 26 717 
f 974 717 26 
f 803 718 705 
f 773 166 592 
f 408 542 467 
f 853 719 213 
f 70 213 719 
f 253 148 197 
f 39 197 148 
f 365 424 290 
f 741 352 129 
f 95 720 147 
f 930 163 349 
f 166 721 593 
f 760 593 721 
f 187 722 357 
f 333 357 722 
f 909 614 476 
f 677 345 723 
f 978 724 207 
f 838 140 626 
f 311 626 140 
f 956 725 170 
f 662 727 726 
f 842 726 727 
f 695 729 728 
f 900 728 729 
f 396 731 730 
f 677 730 731 
f 451 732 456 
f 572 456 732 
f 757 109 255 
f 824 395 733 
f 861 735 734 
f 573 734 735 
f 944 736 719 
f 995 719 736 
f 953 35 716 
f 503 716 35 
f 625 737 279 
f 704 180 199 
f 698 739 738 
f 710 738 739 
f 409 741 740 
f 128 740 741 
f 905 743 742 
f 48 742 743 
f 456 572 744 
f 739 317 68 
f 502 68 317 
f 997 716 503 
f 600 414 430 
f 570 430 414 
f 644 394 10 
f 575 527 287 
f 3 287 527 
f 202 324 745 
f 683 745 324 
f 510 746 701 
f 374 701 746 
f 787 592 433 
f 313 433 592 
f 520 747 146 
f 945 748 573 
f 734 573 748 
f 573 735 511 
f 479 511 735 
f 533 431 244 
f 662 749 675 
f 565 750 513 
f 849 268 550 
f 757 550 268 
f 472 99 751 
f 962 196 39 
f 722 186 322 
f 550 753 752 
f 729 752 753 
f 135 754 385 
f 443 385 754 
f 811 519 146 
f 784 98 755 
f 14 609 365 
f 418 112 756 
f 891 759 758 
f 528 758 759 
f 923 314 760 
f 593 760 314 
f 559 350 761 
f 911 761 350 
f 719 762 70 
f 841 441 275 
f 876 550 752 
f 525 764 763 
f 477 763 764 
f 885 765 156 
f 538 156 765 
f 408 467 238 
f 845 766 545 
f 862 545 766 
f 177 638 675 
f 776 675 638 
f 640 569 557 
f 286 557 569 
f 746 510 460 
f 548 514 733 
f 624 733 514 
f 423 767 539 
f 270 539 767 
f 222 768 480 
f 880 480 768 
f 7 297 769 
f 557 266 640 
f 125 771 92 
f 214 92 771 
f 955 703 508 
f 902 772 243 
f 780 641 127 
f 546 174 470 
f 780 470 174 
f 705 374 118 
f 823 334 670 
f 630 775 774 
f 973 774 775 
f 638 777 776 
f 321 776 777 
f 886 420 597 
f 752 729 696 
f 805 779 778 
f 989 778 779 
f 257 781 628 
f 771 125 782 
f 777 782 125 
f 354 587 634 
f 419 634 587 
f 902 783 635 
f 11 785 784 
f 833 784 785 
f 326 123 653 
f 773 787 786 
f 970 786 787 
f 799 786 134 
f 970 134 786 
f 409 740 788 
f 351 788 740 
f 704 486 384 
f 813 791 91 
f 961 277 566 
f 399 566 277 
f 798 327 792 
f 750 792 327 
f 789 45 731 
f 677 731 45 
f 950 793 499 
f 217 499 793 
f 426 86 500 
f 586 500 86 
f 886 152 157 
f 169 795 211 
f 667 796 289 
f 672 289 796 
f 874 698 738 
f 108 509 97 
f 655 97 509 
f 995 736 455 
f 756 497 418 
f 910 442 241 
f 533 244 797 
f 326 798 123 
f 775 224 348 
f 864 619 567 
f 568 278 800 
f 737 800 278 
f 888 578 801 
f 889 801 578 
f 907 651 217 
f 369 257 628 
f 548 298 288 
f 321 777 144 
f 424 685 305 
f 59 305 685 
f 981 676 802 
f 356 81 803 
f 3 803 81 
f 171 790 208 
f 571 419 293 
f 587 293 419 
f 979 805 804 
f 778 804 805 
f 817 774 806 
f 524 806 774 
f 299 234 46 
f 772 634 336 
f 149 168 807 
f 824 624 808 
f 57 522 259 
f 770 259 522 
f 894 229 141 
f 721 141 229 
f 582 809 795 
f 481 795 809 
f 952 797 312 
f 851 312 797 
f 855 561 810 
f 535 810 561 
f 760 721 229 
f 536 561 554 
f 107 554 561 
f 824 808 58 
f 855 810 70 
f 339 519 811 
f 219 812 688 
f 800 791 813 
f 663 726 790 
f 596 790 726 
f 588 654 814 
f 379 814 654 
f 820 816 815 
f 976 815 816 
f 242 692 817 
f 630 817 692 
f 929 448 398 
f 589 398 448 
f 112 418 818 
f 346 639 723 
f 1000 820 819 
f 935 819 820 
f 632 821 645 
f 608 645 821 
f 610 301 723 
f 620 169 438 
f 362 650 530 
f 527 803 3 
f 471 822 509 
f 733 624 824 
f 218 826 825 
f 841 825 826 
f 840 664 814 
f 779 828 827 
f 801 827 828 
f 155 816 829 
f 820 829 816 
f 676 105 574 
f 963 830 595 
f 918 671 334 
f 952 533 797 
f 934 89 393 
f 611 393 89 
f 274 444 831 
f 534 831 444 
f 769 200 829 
f 155 829 200 
f 981 517 832 
f 262 319 320 
f 457 320 319 
f 569 82 278 
f 4 278 82 
f 647 249 65 
f 717 834 283 
f 868 371 563 
f 785 563 371 
f 446 296 835 
f 933 555 490 
f 982 490 555 
f 678 837 836 
f 458 836 837 
f 140 838 689 
f 356 689 838 
f 866 787 433 
f 263 839 507 
f 380 394 840 
f 966 840 394 
f 543 606 291 
f 826 690 841 
f 514 841 690 
f 320 842 727 
f 354 252 506 
f 248 506 252 
f 36 541 407 
f 792 750 565 
f 225 843 447 
f 375 424 305 
f 99 472 515 
f 614 515 472 
f 671 844 469 
f 547 469 844 
f 465 845 352 
f 545 352 845 
f 948 153 601 
f 395 847 674 
f 234 674 847 
f 61 59 684 
f 375 313 709 
f 574 287 848 
f 387 850 849 
f 268 849 850 
f 468 529 851 
f 47 836 457 
f 994 422 623 
f 473 852 694 
f 270 660 256 
f 944 719 853 
f 693 201 239 
f 145 854 584 
f 822 855 71 
f 6 856 238 
f 656 238 856 
f 538 600 430 
f 988 702 718 
f 639 52 857 
f 848 640 676 
f 686 858 410 
f 103 410 858 
f 261 859 491 
f 928 292 860 
f 916 860 292 
f 222 735 861 
f 938 862 766 
f 323 101 31 
f 924 863 421 
f 177 421 863 
f 989 779 864 
f 827 864 779 
f 117 850 387 
f 887 149 807 
f 892 616 253 
f 147 627 94 
f 970 866 865 
f 59 865 866 
f 237 867 408 
f 102 642 337 
f 946 569 640 
f 371 868 360 
f 873 360 868 
f 269 20 660 
f 623 489 869 
f 838 626 81 
f 279 81 626 
f 421 871 870 
f 904 870 871 
f 425 872 605 
f 427 605 872 
f 596 38 790 
f 368 360 873 
f 945 377 748 
f 428 250 846 
f 309 382 88 
f 192 698 874 
f 85 529 467 
f 653 875 657 
f 867 237 764 
f 696 876 752 
f 899 877 66 
f 891 106 832 
f 867 36 407 
f 926 834 878 
f 717 878 834 
f 461 858 686 
f 751 414 600 
f 97 139 108 
f 949 108 139 
f 370 231 188 
f 863 637 177 
f 946 848 83 
f 768 627 880 
f 366 880 627 
f 976 292 815 
f 996 52 639 
f 619 693 49 
f 239 49 693 
f 765 600 538 
f 188 532 370 
f 28 370 532 
f 512 750 327 
f 145 747 386 
f 555 386 747 
f 903 228 617 
f 228 339 811 
f 962 706 862 
f 545 862 706 
f 875 264 881 
f 199 884 883 
f 17 883 884 
f 198 700 363 
f 156 388 885 
f 839 262 321 
f 996 620 52 
f 971 886 157 
f 681 210 482 
f 914 504 466 
f 980 720 95 
f 149 887 668 
f 100 668 887 
f 979 115 888 
f 516 888 115 
f 578 823 889 
f 670 889 823 
f 305 313 375 
f 602 406 44 
f 861 44 406 
f 929 682 448 
f 924 877 890 
f 306 890 877 
f 998 621 409 
f 122 398 589 
f 214 681 93 
f 988 655 702 
f 527 718 803 
f 941 891 116 
f 832 116 891 
f 41 883 17 
f 11 784 755 
f 653 657 474 
f 164 616 892 
f 1 875 653 
f 827 475 864 
f 694 864 475 
f 383 331 267 
f 303 893 328 
f 843 328 893 
f 907 130 233 
f 995 744 762 
f 659 762 744 
f 188 895 531 
f 919 531 895 
f 248 400 560 
f 821 560 400 
f 965 339 390 
f 936 269 896 
f 767 896 269 
f 502 317 172 
f 195 57 808 
f 927 175 546 
f 144 839 321 
f 281 695 160 
f 690 897 194 
f 884 199 250 
f 358 428 898 
f 951 608 453 
f 966 669 840 
f 688 899 66 
f 728 900 133 
f 488 133 900 
f 443 754 242 
f 692 242 754 
f 962 901 512 
f 906 121 183 
f 712 340 903 
f 228 903 340 
f 870 904 835 
f 642 835 904 
f 436 905 680 
f 742 680 905 
f 904 338 642 
f 854 551 906 
f 652 906 551 
f 556 84 397 
f 756 851 497 
f 985 907 233 
f 236 187 450 
f 414 784 833 
f 911 350 908 
f 432 867 764 
f 739 68 710 
f 515 614 909 
f 782 777 638 
f 333 661 910 
f 979 804 96 
f 997 502 172 
f 325 794 683 
f 320 457 636 
f 966 644 347 
f 934 682 88 
f 908 585 911 
f 737 179 791 
f 795 168 912 
f 150 912 168 
f 812 913 556 
f 195 686 410 
f 942 564 175 
f 917 594 914 
f 562 915 297 
f 239 297 915 
f 851 756 312 
f 106 758 575 
f 527 575 758 
f 688 66 219 
f 897 219 66 
f 976 916 292 
f 560 821 632 
f 757 255 753 
f 500 159 426 
f 463 256 381 
f 869 917 914 
f 852 473 389 
f 185 389 473 
f 974 243 918 
f 618 918 243 
f 681 214 210 
f 817 630 774 
f 583 158 919 
f 501 919 158 
f 193 318 699 
f 536 567 483 
f 48 483 567 
f 947 921 920 
f 211 920 921 
f 406 222 861 
f 263 507 240 
f 454 599 885 
f 765 885 599 
f 198 416 700 
f 924 890 863 
f 307 863 890 
f 643 224 775 
f 779 805 828 
f 888 828 805 
f 184 751 599 
f 605 427 922 
f 711 271 385 
f 760 230 923 
f 874 923 230 
f 537 860 916 
f 74 924 421 
f 715 652 902 
f 783 902 652 
f 753 550 757 
f 1002 378 73 
f 361 141 721 
f 843 225 925 
f 643 925 225 
f 582 912 770 
f 258 770 912 
f 330 926 402 
f 878 402 926 
f 197 892 253 
f 802 402 878 
f 721 166 361 
f 962 40 706 
f 806 524 921 
f 161 695 728 
f 492 928 439 
f 860 439 928 
f 965 519 339 
f 679 604 34 
f 937 192 874 
f 932 452 572 
f 857 615 9 
f 301 89 382 
f 905 482 743 
f 23 929 276 
f 881 164 875 
f 120 51 182 
f 99 515 755 
f 90 285 813 
f 800 813 285 
f 163 930 541 
f 951 453 369 
f 257 369 453 
f 882 340 712 
f 484 76 648 
f 999 447 2 
f 221 897 66 
f 732 932 572 
f 432 36 867 
f 935 820 815 
f 694 619 864 
f 265 893 304 
f 582 795 912 
f 386 849 145 
f 551 145 849 
f 490 859 933 
f 983 933 859 
f 607 819 935 
f 332 920 481 
f 665 909 476 
f 445 679 936 
f 19 936 679 
f 425 605 290 
f 204 922 251 
f 426 251 922 
f 972 458 837 
f 894 937 230 
f 874 230 937 
f 901 862 938 
f 226 372 206 
f 446 939 119 
f 247 119 939 
f 84 417 496 
f 130 793 72 
f 886 597 152 
f 35 526 503 
f 786 931 167 
f 517 940 687 
f 823 687 940 
f 537 44 439 
f 977 18 884 
f 854 906 183 
f 45 789 344 
f 174 563 780 
f 379 934 393 
f 963 513 938 
f 901 938 513 
f 877 899 306 
f 992 306 899 
f 873 646 459 
f 951 459 646 
f 937 894 404 
f 564 942 868 
f 873 868 942 
f 392 136 131 
f 833 785 371 
f 980 95 943 
f 673 943 95 
f 39 148 64 
f 720 64 148 
f 776 727 662 
f 124 839 144 
f 197 657 892 
f 801 889 665 
f 8 562 297 
f 936 896 445 
f 431 445 896 
f 663 790 171 
f 335 878 717 
f 782 638 944 
f 157 377 945 
f 707 736 637 
f 944 637 736 
f 981 832 105 
f 853 771 782 
f 82 569 946 
f 920 910 947 
f 241 947 910 
f 842 636 948 
f 583 629 590 
f 781 590 629 
f 940 335 823 
f 857 611 639 
f 801 665 476 
f 412 903 950 
f 617 950 903 
f 511 304 367 
f 893 265 843 
f 606 543 837 
f 972 837 543 
f 934 435 682 
f 380 840 814 
f 331 383 486 
f 603 570 28 
f 263 240 915 
f 739 699 317 
f 514 548 288 
f 1002 811 146 
f 771 853 213 
f 878 335 940 
f 117 387 41 
f 984 405 485 
f 738 710 923 
f 314 923 710 
f 975 953 716 
f 767 423 954 
f 469 955 671 
f 971 157 329 
f 945 329 157 
f 904 871 956 
f 176 956 871 
f 973 438 524 
f 254 42 633 
f 29 633 42 
f 484 192 937 
f 999 2 957 
f 948 726 842 
f 127 703 470 
f 928 543 291 
f 264 875 1 
f 818 958 112 
f 190 112 958 
f 399 792 566 
f 162 959 953 
f 35 953 959 
f 635 772 902 
f 956 749 725 
f 663 725 749 
f 697 898 179 
f 56 961 960 
f 566 960 961 
f 12 909 579 
f 581 631 714 
f 976 816 155 
f 440 474 196 
f 882 390 340 
f 933 883 41 
f 544 482 905 
f 796 667 531 
f 315 452 932 
f 473 694 475 
f 301 610 89 
f 508 889 670 
f 685 424 365 
f 901 962 862 
f 758 106 891 
f 794 925 580 
f 766 830 963 
f 196 512 440 
f 729 753 900 
f 488 900 753 
f 800 737 791 
f 629 583 895 
f 919 895 583 
f 10 964 644 
f 842 320 636 
f 464 783 282 
f 181 91 846 
f 917 869 540 
f 999 669 966 
f 270 256 967 
f 79 967 256 
f 167 773 786 
f 917 540 968 
f 761 372 559 
f 960 594 969 
f 917 969 594 
f 990 325 724 
f 156 538 916 
f 865 161 970 
f 134 970 161 
f 796 919 501 
f 980 64 720 
f 67 877 924 
f 623 869 466 
f 914 466 869 
f 913 812 219 
f 996 639 346 
f 987 113 943 
f 307 707 863 
f 637 863 707 
f 920 332 910 
f 904 956 170 
f 190 958 825 
f 218 825 958 
f 942 175 294 
f 644 966 394 
f 523 742 49 
f 137 153 458 
f 650 700 216 
f 941 759 891 
f 768 223 154 
f 128 351 740 
f 1002 227 811 
f 979 888 805 
f 604 444 274 
f 449 809 521 
f 353 621 612 
f 438 973 53 
f 964 53 973 
f 454 184 599 
f 247 322 462 
f 754 135 713 
f 132 135 272 
f 468 797 6 
f 640 848 946 
f 803 705 356 
f 162 953 975 
f 984 648 376 
f 1000 769 829 
f 372 761 879 
f 425 879 761 
f 577 449 521 
f 539 270 968 
f 967 968 270 
f 156 916 976 
f 980 114 63 
f 428 977 250 
f 884 250 977 
f 1002 146 584 
f 766 963 938 
f 826 897 690 
f 987 943 673 
f 865 62 160 
f 351 128 113 
f 838 81 356 
f 908 351 113 
f 969 708 56 
f 873 294 646 
f 27 223 602 
f 787 866 970 
f 971 978 207 
f 882 491 391 
f 315 649 75 
f 991 57 195 
f 198 859 416 
f 701 655 509 
f 711 443 661 
f 114 980 943 
f 711 385 443 
f 300 143 730 
f 955 508 670 
f 806 241 817 
f 801 828 888 
f 748 138 493 
f 991 577 522 
f 37 724 324 
f 865 59 61 
f 806 947 241 
f 1000 7 769 
f 266 330 402 
f 239 523 49 
f 948 601 596 
f 691 852 389 
f 495 342 22 
f 431 896 954 
f 767 954 896 
f 818 417 913 
f 222 479 735 
f 499 216 413 
f 531 919 796 
f 671 918 844 
f 618 844 918 
f 761 911 872 
f 87 872 911 
f 459 951 369 
f 802 517 981 
f 391 982 965 
f 520 965 982 
f 553 949 778 
f 804 778 949 
f 649 315 245 
f 987 673 586 
f 501 586 673 
f 989 864 567 
f 198 983 859 
f 20 269 936 
f 902 25 715 
f 854 183 378 
f 763 477 302 
f 998 302 477 
f 923 874 738 
f 680 742 523 
f 969 80 708 
f 648 984 485 
f 137 458 972 
f 789 731 20 
f 384 518 90 
f 983 883 933 
f 734 43 861 
f 967 80 968 
f 917 968 80 
f 949 139 804 
f 761 872 425 
f 993 190 825 
f 687 823 578 
f 432 764 526 
f 590 251 426 
f 439 860 537 
f 959 162 541 
f 745 713 202 
f 74 295 461 
f 858 461 295 
f 36 959 541 
f 447 986 225 
f 405 975 173 
f 998 788 559 
f 350 559 788 
f 362 700 650 
f 995 762 719 
f 468 851 797 
f 982 747 520 
f 964 10 615 
f 576 957 1 
f 165 881 304 
f 265 304 881 
f 293 175 927 
f 781 251 590 
f 940 517 802 
f 451 707 307 
f 1001 115 979 
f 876 652 551 
f 747 982 555 
f 992 899 688 
f 1000 829 820 
f 375 879 424 
f 248 560 506 
f 973 524 774 
f 562 8 319 
f 978 971 328 
f 651 907 985 
f 598 478 487 
f 411 487 478 
f 576 664 957 
f 273 703 127 
f 963 565 513 
f 617 793 950 
f 1001 759 941 
f 80 969 917 
f 76 689 118 
f 488 254 633 
f 382 143 301 
f 926 530 284 
f 238 468 6 
f 780 127 470 
f 998 409 788 
f 570 603 430 
f 662 675 776 
f 570 414 833 
f 743 483 48 
f 794 325 990 
f 818 218 958 
f 284 834 926 
f 668 847 55 
f 528 988 718 
f 170 338 904 
f 184 472 751 
f 493 734 748 
f 732 992 932 
f 316 932 992 
f 960 969 56 
f 607 935 291 
f 815 291 935 
f 830 845 504 
f 897 826 219 
f 787 773 592 
f 737 625 179 
f 398 277 929 
f 921 947 806 
f 358 30 18 
f 927 571 293 
f 985 50 284 
f 11 755 215 
f 798 399 122 
f 248 647 400 
f 645 608 951 
f 74 421 870 
f 676 574 848 
f 872 87 427 
f 845 830 766 
f 611 857 9 
f 547 571 927 
f 666 775 630 
f 908 987 585 
f 616 165 498 
f 880 77 498 
f 971 207 886 
f 931 799 658 
f 343 658 799 
f 565 595 960 
f 666 643 775 
f 29 42 17 
f 252 464 62 
f 704 363 486 
f 887 996 346 
f 819 494 7 
f 596 726 948 
f 812 246 316 
f 5 422 856 
f 994 856 422 
f 138 972 492 
f 343 359 658 
f 392 131 209 
f 883 983 199 
f 133 161 728 
f 119 858 296 
f 984 162 975 
f 679 444 604 
f 405 984 975 
f 730 142 396 
f 119 296 446 
f 553 778 989 
f 841 275 993 
f 982 391 490 
f 854 145 551 
f 822 471 855 
f 522 57 991 
f 512 196 962 
f 668 55 149 
f 348 973 775 
f 706 126 545 
f 715 906 652 
f 100 887 346 
f 786 799 931 
f 704 198 363 
f 870 295 74 
f 595 565 963 
f 525 69 502 
f 913 218 818 
f 940 802 878 
f 607 678 494 
f 873 942 294 
f 669 999 957 
f 358 898 697 
f 411 991 195 
f 841 993 825 
f 455 744 995 
f 693 691 201 
f 691 693 852 
f 633 29 151 
f 343 151 29 
f 768 154 627 
f 476 827 801 
f 727 776 321 
f 819 7 1000 
f 678 836 47 
f 246 812 556 
f 796 501 672 
f 191 831 952 
f 533 952 831 
f 477 621 998 
f 267 558 383 
f 973 348 964 
f 819 607 494 
f 870 835 295 
f 14 365 373 
f 465 353 612 
f 714 745 683 
f 334 717 974 
f 283 120 26 
f 925 794 990 
f 591 338 170 
f 132 171 208 
f 992 732 306 
f 280 759 1001 
f 587 505 293 
f 90 181 384 
f 358 977 428 
f 925 990 843 
f 328 843 990 
f 799 151 343 
f 724 978 990 
f 328 990 978 
f 880 498 480 
f 986 447 999 
f 956 176 749 
f 979 96 1001 
f 422 5 954 
f 792 399 798 
f 656 994 613 
f 782 944 853 
f 462 104 247 
f 713 692 754 
f 358 18 977 
f 876 696 282 
f 941 115 1001 
f 189 232 629 
f 14 373 203 
f 508 579 889 
f 981 105 676 
f 986 966 347 
f 113 987 908 
f 629 895 189 
f 119 103 858 
f 285 568 800 
f 807 620 996 
f 712 903 412 
f 620 807 169 
f 493 43 734 
f 986 347 224 
f 952 111 191 
f 484 937 404 
f 454 885 389 
f 988 280 220 
f 262 562 319 
f 999 966 986 
f 996 887 807 
f 918 334 974 
f 404 76 484 
f 530 926 330 
f 663 171 725 
f 856 994 656 
