#  wavefront obj file written by the visualization toolkit

mtllib livertumor1.mtl

v 120.74800109863281 164.71299743652344 162.68800354003906
v 122.31099700927734 163.3249969482422 160.9429931640625
v 117.0469970703125 152.85499572753906 173.343994140625
v 117.95999908447266 150.406005859375 174.0570068359375
v 88.47920227050781 132.22900390625 137.572998046875
v 89.17350006103516 133.6999969482422 135.69900512695312
v 115.98100280761719 139.0229949951172 177.91400146484375
v 110.25499725341797 139.66200256347656 179.6300048828125
v 76.78610229492188 157.26499938964844 140.20399475097656
v 76.57060241699219 155.6510009765625 139.73199462890625
v 87.20549774169922 160.26800537109375 164.2030029296875
v 89.11969757080078 163.4709930419922 162.81399536132812
v 130.93499755859375 131.1999969482422 158.75999450683594
v 132.09500122070312 130.74200439453125 163.8209991455078
v 121.19499969482422 147.3939971923828 171.43600463867188
v 121.21800231933594 146.35499572753906 173.5019989013672
v 95.66120147705078 107.94000244140625 160.8520050048828
v 93.45870208740234 111.052001953125 163.88999938964844
v 115.46600341796875 127.9520034790039 177.1280059814453
v 109.7249984741211 129.4929962158203 179.00999450683594
v 118.36699676513672 128.0399932861328 175.3509979248047
v 116.68199920654297 125.16500091552734 175.64700317382812
v 132.66099548339844 147.35400390625 160.02200317382812
v 132.4929962158203 143.73800659179688 160.9029998779297
v 102.2490005493164 134.24200439453125 137.15699768066406
v 103.84400177001953 131.91700744628906 137.6490020751953
v 125.99700164794922 152.77099609375 165.9290008544922
v 122.94400024414062 151.2969970703125 167.86199951171875
v 85.81439971923828 112.85700225830078 153.343994140625
v 85.25450134277344 114.8759994506836 156.69700622558594
v 88.62349700927734 111.38099670410156 146.23699951171875
v 87.48819732666016 111.80500030517578 144.74099731445312
v 119.08499908447266 152.21400451660156 170.10800170898438
v 119.63400268554688 150.15899658203125 170.99200439453125
v 122.14399719238281 162.98199462890625 164.56100463867188
v 124.13700103759766 161.34100341796875 162.9080047607422
v 94.15370178222656 141.21499633789062 134.71400451660156
v 95.70680236816406 140.31300354003906 134.5
v 113.44200134277344 147.18800354003906 177.4949951171875
v 111.61499786376953 148.55599975585938 177.62899780273438
v 97.25789642333984 147.2830047607422 138.55799865722656
v 101.35099792480469 147.7209930419922 138.98399353027344
v 107.64900207519531 139.79600524902344 138.72900390625
v 111.6449966430664 140.06700134277344 139.51499938964844
v 112.05599975585938 165.21499633789062 169.53900146484375
v 109.44100189208984 165.88099670410156 169.84100341796875
v 93.73829650878906 123.98799896240234 139.052001953125
v 93.41120147705078 120.41600036621094 140.13600158691406
v 92.05580139160156 139.30599975585938 134.4409942626953
v 91.68509674072266 136.98300170898438 134.43899536132812
v 124.38500213623047 159.1929931640625 149.10000610351562
v 124.70600128173828 158.35699462890625 148.11900329589844
v 83.88929748535156 161.95399475097656 141.88699340820312
v 82.36900329589844 160.97500610351562 144.78599548339844
v 99.36280059814453 144.8730010986328 137.96499633789062
v 95.35089874267578 162.68699645996094 170.38400268554688
v 95.7947998046875 158.38900756835938 172.99000549316406
v 78.63420104980469 123.48999786376953 138.45599365234375
v 77.5989990234375 124.91400146484375 138.656005859375
v 133.72999572753906 146.3070068359375 154.86599731445312
v 133.5240020751953 145.20899963378906 158.04100036621094
v 106.80799865722656 148.5070037841797 178.49600219726562
v 101.08499908447266 147.98500061035156 179.61099243164062
v 130.38400268554688 146.53700256347656 147.9290008544922
v 131.77699279785156 148.09100341796875 149.11300659179688
v 124.822998046875 121.12899780273438 155.66200256347656
v 128.1699981689453 122.40399932861328 159.9709930419922
v 122.65799713134766 157.22000122070312 167.45599365234375
v 119.51499938964844 157.47900390625 169.24000549316406
v 77.89659881591797 158.4219970703125 140.19000244140625
v 79.44519805908203 158.552001953125 139.46499633789062
v 130.43800354003906 149.42100524902344 148.00999450683594
v 97.81919860839844 108.54900360107422 151.88600158691406
v 101.99500274658203 109.16100311279297 152.30599975585938
v 120.8740005493164 148.25399780273438 169.69000244140625
v 121.93599700927734 146.38400268554688 169.50100708007812
v 91.4312973022461 131.781005859375 181.66600036621094
v 87.69249725341797 130.23199462890625 179.46800231933594
v 85.8594970703125 142.56399536132812 137.281005859375
v 90.52839660644531 143.52699279785156 136.47000122070312
v 90.7509994506836 134.52499389648438 134.74600219726562
v 91.4281997680664 132.36599731445312 135.48300170898438
v 128.54400634765625 147.96800231933594 147.3939971923828
v 84.9572982788086 115.91799926757812 142.20199584960938
v 84.12979888916016 117.58200073242188 141.47000122070312
v 80.7936019897461 160.29200744628906 143.125
v 79.02420043945312 159.26499938964844 142.73500061035156
v 78.2114028930664 159.01800537109375 141.5070037841797
v 106.18499755859375 143.6909942626953 139.0070037841797
v 116.5790023803711 163.85299682617188 168.593994140625
v 115.89900207519531 160.78199768066406 170.39999389648438
v 109.5469970703125 115.8280029296875 146.67799377441406
v 111.63400268554688 115.00199890136719 150.13699340820312
v 96.25689697265625 156.67100524902344 137.81900024414062
v 92.06900024414062 152 138.5500030517578
v 106.61900329589844 160.10400390625 144.68600463867188
v 106.84700012207031 157.68299865722656 143.55299377441406
v 87.53739929199219 110.80400085449219 152.45700073242188
v 88.73410034179688 111.46499633789062 150.73599243164062
v 101.98500061035156 163.19500732421875 144.51300048828125
v 104.00399780273438 161.88099670410156 143.92599487304688
v 87.4363021850586 110.4990005493164 155.3679962158203
v 87.15019989013672 112.18099975585938 158.14700317382812
v 93.63520050048828 132.36099243164062 135.0449981689453
v 95.11849975585938 134.08200073242188 134.5570068359375
v 84.68219757080078 162.25 144.1580047607422
v 85.27780151367188 162.55499267578125 141.45199584960938
v 120.91000366210938 121.10199737548828 151.3000030517578
v 120.96800231933594 119.68800354003906 153.14700317382812
v 87.9209976196289 148.66600036621094 138.4290008544922
v 91.2739028930664 148.13299560546875 138.447998046875
v 99.0802001953125 151.06700134277344 138.72799682617188
v 107.4020004272461 123.44000244140625 178.11099243164062
v 105.62000274658203 127.31999969482422 179.74099731445312
v 122.94599914550781 148.21099853515625 167.97900390625
v 90.55989837646484 111.13500213623047 145.5019989013672
v 90.53690338134766 111.06400299072266 148.17100524902344
v 87.2405014038086 144.65199279785156 176.97000122070312
v 89.79650115966797 149.30099487304688 176.66900634765625
v 103.85199737548828 164.8990020751953 150.68099975585938
v 107.99800109863281 164.04800415039062 150.9239959716797
v 98.10449981689453 138.26499938964844 134.7570037841797
v 100.47000122070312 136.4739990234375 135.87100219726562
v 105.48500061035156 159.0229949951172 173.86599731445312
v 110.572998046875 159.6300048828125 172.93800354003906
v 128.4720001220703 132.9770050048828 168.21299743652344
v 129.2689971923828 134.22799682617188 166.6699981689453
v 87.09239959716797 117.90299987792969 141.1649932861328
v 90.1417007446289 121.1709976196289 139.89999389648438
v 127.5459976196289 119.42500305175781 164.30099487304688
v 126.9749984741211 119.33000183105469 165.97000122070312
v 93.10089874267578 146.15199279785156 137.81900024414062
v 96.43150329589844 144.86399841308594 137.05799865722656
v 130.5279998779297 123.56999969482422 163.80099487304688
v 129.03900146484375 121.14099884033203 164.25599670410156
v 130.31500244140625 127.34600067138672 160.4980010986328
v 131.41400146484375 127.7699966430664 162.73199462890625
v 100.27300262451172 151.3070068359375 178.5469970703125
v 94.38400268554688 150.0749969482422 178.04100036621094
v 115.28600311279297 135.8780059814453 140.46400451660156
v 115.26899719238281 134.0260009765625 140.7449951171875
v 107.87200164794922 151.8070068359375 142.61399841308594
v 105.83200073242188 150.92999267578125 140.80299377441406
v 125.49099731445312 146.80299377441406 166.93800354003906
v 123.31199645996094 145.75100708007812 168.49000549316406
v 128.70799255371094 150.8489990234375 147.4759979248047
v 130.1219940185547 151.91900634765625 148.00900268554688
v 91.93209838867188 141.677001953125 135.02000427246094
v 104.6050033569336 141.10699462890625 138.21099853515625
v 102.06500244140625 155.197998046875 176.43099975585938
v 115.052001953125 125.18699645996094 176.9429931640625
v 131.38299560546875 134.8000030517578 157.1510009765625
v 132.30799865722656 133.34300231933594 161.88299560546875
v 76.14530181884766 137.36199951171875 146.3800048828125
v 75.46440124511719 139.03599548339844 143.02699279785156
v 75.9531021118164 145.85400390625 139.99899291992188
v 78.93240356445312 146.3470001220703 138.98399353027344
v 92.64559936523438 110.96099853515625 146.01699829101562
v 102.3479995727539 116.26599884033203 143.36700439453125
v 106.58699798583984 117.01899719238281 144.03799438476562
v 76.77970123291016 151.0279998779297 139.6790008544922
v 78.06320190429688 152.54100036621094 139.25399780273438
v 131.38600158691406 144.88499450683594 149.02099609375
v 132.36900329589844 141.35800170898438 153.0070037841797
v 90.98390197753906 167.7779998779297 160.08399963378906
v 92.75830078125 169.875 158.1699981689453
v 120.77100372314453 152.9600067138672 146.74000549316406
v 124.79499816894531 153.9080047607422 147.31900024414062
v 91.90260314941406 108.71199798583984 159.9499969482422
v 89.22370147705078 111.36100006103516 160.91799926757812
v 130.65499877929688 154.93600463867188 159.88800048828125
v 132.01400756835938 153.2209930419922 158.4929962158203
v 123.00900268554688 115.6259994506836 165.03399658203125
v 121.4219970703125 114.21700286865234 164.73899841308594
v 97.72100067138672 135.281005859375 134.8800048828125
v 131.3090057373047 126.04000091552734 163.8800048828125
v 130.51100158691406 125.53099822998047 161.75399780273438
v 124.5199966430664 144.82200622558594 167.61199951171875
v 127.12799835205078 143.125 166.53199768066406
v 111.33200073242188 163.0070037841797 170.94400024414062
v 113.63800048828125 160.8939971923828 171.4739990234375
v 131.54600524902344 155.39999389648438 156.50599670410156
v 81.73650360107422 140.07400512695312 138.6020050048828
v 81.20169830322266 137.6179962158203 139.06399536132812
v 77.45189666748047 129.97300720214844 139.34300231933594
v 78.1718978881836 129.1790008544922 138.5469970703125
v 100.65899658203125 169.31700134277344 157.20899963378906
v 103.30000305175781 169.63999938964844 159.03399658203125
v 126.88500213623047 138.8730010986328 167.50900268554688
v 126.68699645996094 135.88099670410156 169.7949981689453
v 85.84880065917969 124.75399780273438 139.30799865722656
v 88.88860321044922 129.05599975585938 138.50599670410156
v 123.16799926757812 141.13699340820312 173.58799743652344
v 120.47799682617188 140.9459991455078 175.39199829101562
v 85.41560363769531 165.7779998779297 150.5449981689453
v 87.51640319824219 164.6790008544922 148.80099487304688
v 87.7509994506836 166.281005859375 157.46099853515625
v 89.3301010131836 169.85000610351562 156.0850067138672
v 79.19280242919922 159.6199951171875 140.38499450683594
v 80.72419738769531 160.16900634765625 140.11599731445312
v 124.58599853515625 121.86799621582031 170.41799926757812
v 123.9729995727539 119.74400329589844 169.22999572753906
v 99.13480377197266 161.03799438476562 172.2729949951172
v 100.9280014038086 158.1280059814453 174.23800659179688
v 111.68900299072266 116.2490005493164 171.3769989013672
v 112.10399627685547 118.2249984741211 171.9739990234375
v 111.53700256347656 110.23400115966797 165.24600219726562
v 110.375 111.447998046875 168.4530029296875
v 75.68340301513672 148.14599609375 144.02499389648438
v 75.6812973022461 149.86199951171875 141.25799560546875
v 92.59709930419922 151.59800720214844 176.3820037841797
v 85.49690246582031 114.0469970703125 150.53199768066406
v 115.11499786376953 151.43699645996094 145.0749969482422
v 117.64099884033203 152.2209930419922 145.9739990234375
v 121.4520034790039 120.69400024414062 171.31900024414062
v 118.85199737548828 118.49800109863281 171.08599853515625
v 81.7437973022461 119.03800201416016 151.88999938964844
v 80.68810272216797 119.53800201416016 148.125
v 105.4260025024414 120.76599884033203 176.80799865722656
v 103 121.20700073242188 177.8159942626953
v 120.36199951171875 148.77699279785156 171.5540008544922
v 119.59100341796875 149.14999389648438 173.1269989013672
v 121.822998046875 128.07200622558594 173.0919952392578
v 132.0279998779297 137.61700439453125 157.6750030517578
v 120.6760025024414 117.0459976196289 155.00799560546875
v 89.73190307617188 159.39999389648438 138.3300018310547
v 91.21859741210938 161.79200744628906 138.697998046875
v 85.46320343017578 160.16099548339844 160.34500122070312
v 99.73979949951172 161.7899932861328 139.01300048828125
v 101.87300109863281 162.12399291992188 141.1020050048828
v 79.7157974243164 135.59100341796875 139.21600341796875
v 81.05879974365234 133.19900512695312 139.17999267578125
v 128.6219940185547 144.40699768066406 147.6750030517578
v 120.18299865722656 151.11300659179688 168.9340057373047
v 113.8740005493164 163.29299926757812 169.83099365234375
v 76.42259979248047 153.27999877929688 139.76600646972656
v 77.625 154.83799743652344 139.2760009765625
v 112.56900024414062 169.22799682617188 164.33599853515625
v 114.38800048828125 168.8249969482422 162.61500549316406
v 104.09400177001953 157.55299377441406 140.0540008544922
v 104.68299865722656 155.3769989013672 141.406005859375
v 130.35800170898438 154.9459991455078 149.60899353027344
v 130.97000122070312 153.29800415039062 149.28700256347656
v 103.35099792480469 160.6020050048828 140.7429962158203
v 83.17870330810547 161.92799377441406 147.63099670410156
v 85.64969635009766 163.52099609375 147.3990020751953
v 85.68930053710938 157.48500061035156 168.10800170898438
v 87.9136962890625 158.66900634765625 169.8780059814453
v 93.17890167236328 163.67799377441406 139.54200744628906
v 105.6969985961914 169.1320037841797 159.2030029296875
v 113.12799835205078 136.38800048828125 139.64700317382812
v 113.99299621582031 143.77699279785156 178.01199340820312
v 109.21099853515625 143.9010009765625 179.19400024414062
v 93.08170318603516 170.28199768066406 152.66600036621094
v 93.90670013427734 171.1820068359375 154.64199829101562
v 78.7040023803711 124.77799987792969 137.9499969482422
v 80.70590209960938 125.60099792480469 138.03399658203125
v 122.76000213623047 144.66099548339844 170.71299743652344
v 103.0979995727539 124.59700012207031 179.0959930419922
v 100.60800170898438 121.18099975585938 177.5780029296875
v 120.15599822998047 160.31900024414062 167.9250030517578
v 123.61399841308594 143.48800659179688 170.55499267578125
v 83.27680206298828 135.3260040283203 138.6719970703125
v 86.00469970703125 136.39500427246094 136.46499633789062
v 114.43900299072266 153.9739990234375 174.0970001220703
v 115.53500366210938 154.52999877929688 145.9409942626953
v 75.92240142822266 137.12600708007812 140.81199645996094
v 75.84729766845703 140.28799438476562 140.7209930419922
v 121.8489990234375 137.61099243164062 174.41600036621094
v 130.40899658203125 129.5709991455078 166.3560028076172
v 129.57699584960938 131.58999633789062 167.49200439453125
v 113.49600219726562 119.5270004272461 145.5469970703125
v 112.18699645996094 117.00800323486328 147.41000366210938
v 84.88809967041016 117.47200012207031 160.77000427246094
v 83.08830261230469 120.14199829101562 159.96200561523438
v 98.70330047607422 115.35299682617188 143.27999877929688
v 100.98899841308594 113.64199829101562 144.38499450683594
v 89.13099670410156 139.4709930419922 180.11000061035156
v 90.8655014038086 145.19700622558594 179.10899353027344
v 90.05960083007812 134.7480010986328 181.73199462890625
v 89.92240142822266 136.7449951171875 181.5070037841797
v 83.97769927978516 144.3769989013672 174.11399841308594
v 116.41500091552734 165.4980010986328 159.4980010986328
v 118.32499694824219 166.63400268554688 162.55599975585938
v 122.11299896240234 162.23599243164062 158.31199645996094
v 124.34300231933594 161.70700073242188 160.52499389648438
v 84.84449768066406 154.58999633789062 139.0659942626953
v 86.82830047607422 151.99400329589844 138.83900451660156
v 92.48529815673828 164.87600708007812 165.32000732421875
v 95.42749786376953 167.44200134277344 164.67799377441406
v 117.31900024414062 117.6240005493164 151.78199768066406
v 97.09770202636719 111.43099975585938 167.0279998779297
v 93.70140075683594 113.60399627685547 168.0780029296875
v 77.45179748535156 156.93600463867188 143.80499267578125
v 76.9623031616211 157.5 141.71499633789062
v 117.83000183105469 120.80500030517578 172.00100708007812
v 95.20829772949219 136.61300659179688 134.43699645996094
v 87.08930206298828 159.33099365234375 167.8070068359375
v 127.6780014038086 120.55000305175781 162.0290069580078
v 113.30899810791016 122.66300201416016 176.05099487304688
v 89.20369720458984 111.552001953125 144.34300231933594
v 109.79199981689453 155.21400451660156 144.4720001220703
v 112.89600372314453 156.19400024414062 145.70199584960938
v 130.33299255371094 135.91400146484375 152.0019989013672
v 113.1989974975586 110.52300262451172 163.06199645996094
v 109.99099731445312 109.60299682617188 162.98899841308594
v 116.93099975585938 165.5260009765625 167.58700561523438
v 118.3499984741211 166.13299560546875 165.6719970703125
v 117.62100219726562 141.23199462890625 143.16600036621094
v 116.19400024414062 138.22799682617188 141.4149932861328
v 129.94700622558594 156.4600067138672 151.0279998779297
v 131.30499267578125 155.15499877929688 151.27000427246094
v 76.2260971069336 155.4530029296875 142.2259979248047
v 76.043701171875 154.9429931640625 140.50999450683594
v 105.79499816894531 163.56500244140625 171.55099487304688
v 126.03500366210938 150.45899963378906 147.2429962158203
v 128.72799682617188 153.23599243164062 147.93800354003906
v 107.65499877929688 113.05799865722656 149.5679931640625
v 77.94270324707031 134.31500244140625 154.42300415039062
v 77.08260345458984 141.7530059814453 153.68699645996094
v 103.91600036621094 114.50399780273438 144.7270050048828
v 120.55799865722656 158.35499572753906 147.26199340820312
v 123.02200317382812 159.052001953125 147.66000366210938
v 89.9801025390625 113.88700103759766 142.7740020751953
v 92.91819763183594 113.07499694824219 143.76499938964844
v 82.35489654541016 123.80999755859375 138.8070068359375
v 83.02870178222656 121.40399932861328 140.06199645996094
v 77.92970275878906 158.25999450683594 142.79200744628906
v 132.42100524902344 152.85499572753906 151.67999267578125
v 77.02970123291016 154.7949981689453 145.08799743652344
v 125.53199768066406 121.27100372314453 168.57400512695312
v 127.18299865722656 122.83999633789062 167.2100067138672
v 116.53099822998047 158.04400634765625 171.8979949951172
v 125.83499908447266 141.9340057373047 167.9080047607422
v 122.83499908447266 118.91899871826172 154.94500732421875
v 76.89769744873047 126.53500366210938 140.91099548339844
v 77.17169952392578 126.74600219726562 138.78399658203125
v 133.44700622558594 142.9149932861328 156.5050048828125
v 78.09929656982422 137.32400512695312 166.26100158691406
v 77.77639770507812 138.57200622558594 159.7969970703125
v 119.22599792480469 149.27000427246094 145.9949951171875
v 120.83999633789062 146.14500427246094 146.23899841308594
v 124.87999725341797 139.802001953125 170.98899841308594
v 97.15299987792969 164.7760009765625 146.36700439453125
v 99.73560333251953 164.44900512695312 146.8719940185547
v 111.12300109863281 125.26699829101562 178.03199768066406
v 76.0354995727539 153.38699340820312 143.23800659179688
v 107.83499908447266 109.62000274658203 166.24600219726562
v 105.11599731445312 110.6240005493164 168.4149932861328
v 129.29200744628906 157.16600036621094 158.94000244140625
v 130.47000122070312 156.8090057373047 153.7949981689453
v 81.74479675292969 152.7030029296875 162.72500610351562
v 82.05390167236328 155.46600341796875 159.63400268554688
v 79.4740982055664 158.88699340820312 144.64999389648438
v 83.50980377197266 148.86700439453125 138.57400512695312
v 106.60299682617188 155.2030029296875 143.3040008544922
v 77.8989028930664 133.81199645996094 139.53399658203125
v 92.69950103759766 133.9810028076172 134.6219940185547
v 119.50399780273438 140.01499938964844 144.50599670410156
v 117.98300170898438 136.281005859375 142.8300018310547
v 97.26329803466797 152.63600158691406 177.29200744628906
v 118.2490005493164 159.15199279785156 169.38400268554688
v 119.48400115966797 164.39100646972656 167.04800415039062
v 83.49430084228516 117.32099914550781 155.39300537109375
v 81.8228988647461 120.43599700927734 155.1719970703125
v 113.7509994506836 158.58700561523438 172.48899841308594
v 117.05599975585938 122.7770004272461 173.83099365234375
v 115.052001953125 163.22900390625 155.9320068359375
v 114.50800323486328 162.197998046875 153.12100219726562
v 132.9199981689453 145.13400268554688 151.85499572753906
v 122.7509994506836 136.5 146.57699584960938
v 125.21499633789062 135.99400329589844 147.4929962158203
v 97.78189849853516 125.5999984741211 138.43699645996094
v 117.68599700927734 146.61199951171875 144.97999572753906
v 103.25399780273438 127.57099914550781 138.1929931640625
v 99.14730072021484 142.57899475097656 136.32200622558594
v 100.2959976196289 139.6999969482422 135.7259979248047
v 126.11100006103516 120.30899810791016 167.0260009765625
v 124.87200164794922 119.02300262451172 167.37600708007812
v 83.70079803466797 138.6540069580078 176.22799682617188
v 83.40650177001953 134.4429931640625 175.8820037841797
v 123.11000061035156 123.18800354003906 151.7519989013672
v 114.16600036621094 116.91500091552734 149.83700561523438
v 99.2134017944336 164.46099853515625 169.8459930419922
v 115.05500030517578 168.42599487304688 164.55299377441406
v 123.79399871826172 117.31500244140625 161.32000732421875
v 124.44499969482422 117.14600372314453 164.50100708007812
v 113.91000366210938 125.28199768066406 142.0489959716797
v 111.76399993896484 122.8010025024414 142.19000244140625
v 91.3833999633789 128.74899291992188 181.19400024414062
v 83.9697036743164 138.30299377441406 137.78900146484375
v 86.37359619140625 138.5469970703125 135.7530059814453
v 109.26300048828125 136.09800720214844 138.80099487304688
v 90.6063003540039 115.8479995727539 168.947998046875
v 89.40689849853516 114.03299713134766 164.93600463867188
v 92.82830047607422 136.3699951171875 134.4409942626953
v 95.75659942626953 165.18600463867188 167.5540008544922
v 88.87840270996094 162.48199462890625 139.58299255371094
v 90.98269653320312 163.4929962158203 140.0030059814453
v 115.98200225830078 112.25399780273438 161.71600341796875
v 76.25019836425781 156.39500427246094 140.88400268554688
v 99.01470184326172 114.87200164794922 171.24000549316406
v 95.0427017211914 115.37200164794922 171.00100708007812
v 85.90029907226562 165.60800170898438 156.16700744628906
v 86.88480377197266 167.86500549316406 155.4739990234375
v 129.66200256347656 122.41899871826172 165.6179962158203
v 90.38159942626953 168.95700073242188 157.64999389648438
v 79.80149841308594 125.96900177001953 155.61599731445312
v 78.36370086669922 128.16799926757812 150.84500122070312
v 133.5590057373047 150.06900024414062 153.0709991455078
v 115.56099700927734 111.05799865722656 163.91700744628906
v 76.61270141601562 139.5260009765625 149.6230010986328
v 76.56749725341797 143.26300048828125 149.13600158691406
v 127.5469970703125 132.9340057373047 170.39999389648438
v 125.68900299072266 133.58599853515625 172.1479949951172
v 76.71320343017578 150.64199829101562 146.7209930419922
v 121.79499816894531 115.54399871826172 162.3679962158203
v 89.6874008178711 109.16400146484375 152.21299743652344
v 87.70089721679688 137.68299865722656 134.822998046875
v 129.33299255371094 124.677001953125 159.79200744628906
v 127.447998046875 124.68299865722656 156.2220001220703
v 83.8727035522461 154.82400512695312 167.28700256347656
v 83.96880340576172 156.3459930419922 163.57899475097656
v 121.60900115966797 160.23599243164062 153.87100219726562
v 122.1240005493164 159.9969940185547 151.38699340820312
v 94.36959838867188 165.55299377441406 148.89100646972656
v 98.31759643554688 166.7209930419922 150.8719940185547
v 91.58670043945312 157.85699462890625 171.92799377441406
v 89.71219635009766 161.5780029296875 167.34500122070312
v 93.14440155029297 163.31700134277344 168.4770050048828
v 113.3489990234375 151.11199951171875 176.21800231933594
v 88.04730224609375 135.91700744628906 135.0760040283203
v 88.97949981689453 137.83299255371094 134.46099853515625
v 122.70700073242188 156.72999572753906 147.23800659179688
v 94.85130310058594 170.7760009765625 156.36700439453125
v 116.99700164794922 158.8350067138672 147.11500549316406
v 118.6050033569336 155.7449951171875 146.7830047607422
v 80.42160034179688 129.3090057373047 138.5290069580078
v 121.08599853515625 149.50799560546875 168.58399963378906
v 87.53939819335938 163.06100463867188 146.072998046875
v 105.54199981689453 113.8740005493164 170.56399536132812
v 103.19599914550781 114.61199951171875 171.052001953125
v 97.82579803466797 140.84500122070312 134.9040069580078
v 97.23370361328125 169.35899353027344 163.0659942626953
v 75.30570220947266 146.50900268554688 141.75100708007812
v 94.25879669189453 162.6269989013672 138.55599975585938
v 96.79789733886719 162.25399780273438 138.43099975585938
v 129.53199768066406 122.7959976196289 162.33799743652344
v 94.88500213623047 109.2979965209961 150.81500244140625
v 91.52980041503906 108.10099792480469 153.06900024414062
v 91.4292984008789 160.37399291992188 170.70899963378906
v 118.27400207519531 156.80599975585938 171.37399291992188
v 83.80909729003906 158.10800170898438 160.15899658203125
v 85.68779754638672 158.64500427246094 164.28799438476562
v 83.34210205078125 132.093994140625 138.9709930419922
v 85.56919860839844 134.26199340820312 138.03599548339844
v 128.13499450683594 136.63499450683594 166.68699645996094
v 128.56900024414062 140.3090057373047 166.16900634765625
v 130.89500427246094 141.49200439453125 149.64999389648438
v 128.20199584960938 141.0749969482422 148.0290069580078
v 99.05950164794922 118.61199951171875 141.56900024414062
v 96.41840362548828 121.36900329589844 139.9149932861328
v 99.05989837646484 138.1020050048828 181.64999389648438
v 94.14669799804688 134.41299438476562 182.36000061035156
v 85.89910125732422 120.89299774169922 140.1790008544922
v 91.53050231933594 122.66100311279297 177.47000122070312
v 87.2020034790039 122.94000244140625 174.88099670410156
v 90.9635009765625 167.0709991455078 150.4080047607422
v 114.76899719238281 140.48599243164062 140.78500366210938
v 120.20700073242188 148.16099548339844 173.3070068359375
v 106.2750015258789 162.83200073242188 147.70199584960938
v 109.75700378417969 161.00900268554688 146.88299560546875
v 114.26399993896484 120.53299713134766 173.40699768066406
v 132.0749969482422 150.7050018310547 160.38699340820312
v 108.36299896240234 115.38999938964844 171.36399841308594
v 112.9010009765625 153.46200561523438 144.98199462890625
v 126.41200256347656 159.8070068359375 160.08900451660156
v 114.46900177001953 112.42500305175781 157.24099731445312
v 111.0739974975586 111.13999938964844 155.38499450683594
v 122.7959976196289 143.32400512695312 173.24899291992188
v 100.31500244140625 110.5790023803711 167.28799438476562
v 98.05709838867188 109.62100219726562 164.5970001220703
v 75.79859924316406 153.40699768066406 141.2949981689453
v 131.68800354003906 129.28599548339844 162.58399963378906
v 76.63420104980469 142.14700317382812 139.68600463867188
v 75.3582992553711 142.6280059814453 140.7740020751953
v 103.84500122070312 163.50599670410156 146.87899780273438
v 99.53990173339844 110.43900299072266 148.86399841308594
v 121.6449966430664 160.0240020751953 147.89500427246094
v 108.62300109863281 162.42999267578125 172.19200134277344
v 104.98400115966797 108.22799682617188 156.4499969482422
v 85.18060302734375 166.46099853515625 153.41700744628906
v 86.93360137939453 168.03799438476562 152.57899475097656
v 94.07849884033203 127.01899719238281 180.87399291992188
v 92.08719635009766 125.19999694824219 179.63900756835938
v 85.72450256347656 163.15199279785156 157.9709930419922
v 129.7209930419922 151.19700622558594 162.74400329589844
v 128.0229949951172 149.8520050048828 164.65699768066406
v 107.76899719238281 169.4759979248047 165.0540008544922
v 109.8290023803711 169.74600219726562 163.46499633789062
v 118.98500061035156 115.5250015258789 169.0590057373047
v 116.26599884033203 113.36299896240234 168.2949981689453
v 100.28500366210938 158.6929931640625 137.9409942626953
v 102.47200012207031 157.71200561523438 138.46800231933594
v 75.29820251464844 144.37600708007812 141.39999389648438
v 102.24199676513672 167.343994140625 153.8179931640625
v 124.04000091552734 117.25599670410156 166.77999877929688
v 122.42500305175781 115.77799987792969 166.95599365234375
v 115.78299713134766 122.29100036621094 145.21600341796875
v 81.92040252685547 116.39800262451172 146.44900512695312
v 81.73680114746094 116.26799774169922 144.35400390625
v 95.16220092773438 116.86100006103516 142.03700256347656
v 104.25599670410156 167.93800354003906 155.43499755859375
v 106.49500274658203 167.71200561523438 156.6219940185547
v 104.74199676513672 159.44000244140625 141.75900268554688
v 105.78199768066406 113.98200225830078 146.4510040283203
v 118.78500366210938 112.48300170898438 164.3800048828125
v 93.68070220947266 138.79100036621094 134.4040069580078
v 94.74839782714844 138.3990020751953 134.39999389648438
v 76.53559875488281 129.80299377441406 141.02499389648438
v 76.9406967163086 131.68299865722656 140.10899353027344
v 131.66099548339844 135.1719970703125 165.46299743652344
v 131.75799560546875 137.89500427246094 164.01400756835938
v 121.52899932861328 117.15299987792969 168.83999633789062
v 115.70899963378906 119.2770004272461 147.6719970703125
v 120.24400329589844 123.46700286865234 172.406005859375
v 114.80699920654297 114.45099639892578 170.5240020751953
v 126.24400329589844 118.40799713134766 164.1529998779297
v 77.74600219726562 123.63800048828125 139.56500244140625
v 78.88899993896484 122.47200012207031 139.33900451660156
v 78.19229888916016 127.87899780273438 138.14700317382812
v 110.44499969482422 143.8800048828125 139.8509979248047
v 93.86129760742188 143.77099609375 136.07000732421875
v 87.21749877929688 134.1959991455078 136.76300048828125
v 98.11399841308594 117.89299774169922 174.81300354003906
v 93.03829956054688 117.76699829101562 172.77200317382812
v 120.35700225830078 114.37300109863281 166.9929962158203
v 85.19539642333984 121.55500030517578 171.31100463867188
v 119.6719970703125 165.572998046875 164.34100341796875
v 78.60289764404297 135.41700744628906 170.5749969482422
v 97.03990173339844 110.80699920654297 147.03700256347656
v 126.46800231933594 123.5780029296875 169.07699584960938
v 95.05549621582031 111.29000091552734 145.5970001220703
v 77.70770263671875 157.0500030517578 139.39300537109375
v 119.46600341796875 161.0679931640625 148.36900329589844
v 99.34100341796875 167.10499572753906 166.95799255371094
v 80.6875991821289 118.41100311279297 144.2969970703125
v 80.86750030517578 119.74199676513672 141.3820037841797
v 77.40779876708984 127.7770004272461 145.88800048828125
v 77.02850341796875 131.00599670410156 147.5229949951172
v 102.04299926757812 160.08099365234375 139.07000732421875
v 121.3270034790039 144.28199768066406 174.33900451660156
v 118.4530029296875 143.76199340820312 175.94000244140625
v 77.83439636230469 123.4010009765625 140.7969970703125
v 88.36720275878906 139.36700439453125 134.80799865722656
v 82.88970184326172 123.34100341796875 167.6009979248047
v 81.07479858398438 126.81300354003906 167.98699951171875
v 79.60130310058594 121.2979965209961 146.06199645996094
v 79.37560272216797 120.74199676513672 142.78700256347656
v 97.56109619140625 125.81600189208984 180.01199340820312
v 97.47509765625 121.2699966430664 177.5989990234375
v 76.29530334472656 134.52200317382812 145.8260040283203
v 75.85179901123047 135.06500244140625 142.1479949951172
v 123.31400299072266 132.79400634765625 147.18499755859375
v 121.42400360107422 127.50199890136719 147.302001953125
v 78.52799987792969 154.54600524902344 149.49400329589844
v 80.52179718017578 156.32699584960938 154.61700439453125
v 100.322998046875 122.62300109863281 139.49000549316406
v 118.6520004272461 148.6820068359375 174.47000122070312
v 115.89299774169922 150.3990020751953 175.3300018310547
v 103.14399719238281 111.30699920654297 169.0500030517578
v 103.14399719238281 109.73100280761719 167.16200256347656
v 104.58699798583984 117.84100341796875 174.34300231933594
v 82.13860321044922 160.81100463867188 140.0050048828125
v 83.94779968261719 160.2530059814453 139.47300720214844
v 115.4739990234375 161.35000610351562 150.44000244140625
v 118.10700225830078 160.9709930419922 150.35499572753906
v 93.83779907226562 159.91799926757812 137.88499450683594
v 89.87670135498047 156.17599487304688 138.42100524902344
v 77.06050109863281 128.35000610351562 139.38299560546875
v 120.93399810791016 162.593994140625 167.26600646972656
v 103.58300018310547 138.24200439453125 137.28799438476562
v 84.01490020751953 161.3159942626953 157.23500061035156
v 84.36499786376953 164.593994140625 154.9550018310547
v 100.58200073242188 155.39100646972656 138.08099365234375
v 102.19200134277344 152.16000366210938 139.01699829101562
v 96.30400085449219 139.10899353027344 134.468994140625
v 119.66699981689453 143.4969940185547 145.36300659179688
v 120.7249984741211 133.8300018310547 174.78199768066406
v 120.63400268554688 130.95799255371094 174.33299255371094
v 124.11499786376953 159.35899353027344 165.27499389648438
v 125.52300262451172 157.80799865722656 164.3699951171875
v 123.56999969482422 117.9530029296875 157.92599487304688
v 115.44100189208984 123.34200286865234 175.50100708007812
v 88.38639831542969 156.26400756835938 171.29100036621094
v 95.18099975585938 168.33799743652344 151.68699645996094
v 114.8499984741211 147.88099670410156 143.58099365234375
v 131.5070037841797 151.2830047607422 149.0970001220703
v 132.5449981689453 150.35699462890625 150.3090057373047
v 121.73899841308594 159.37600708007812 167.57699584960938
v 89.90869903564453 136.6909942626953 134.57400512695312
v 78.61849975585938 122.60800170898438 144.18699645996094
v 87.82610321044922 170.1439971923828 154.8179931640625
v 116.71600341796875 149.322998046875 145.23300170898438
v 99.97750091552734 163.58700561523438 141.96299743652344
v 79.40670013427734 141.5399932861328 167.98899841308594
v 79.33540344238281 144.54600524902344 163.7010040283203
v 85.69110107421875 155.375 170.38299560546875
v 119.56099700927734 125.73100280761719 173.71299743652344
v 101.96499633789062 142.9219970703125 137.86300659179688
v 90.28939819335938 139.5500030517578 134.50900268554688
v 128.22500610351562 128.1929931640625 168.37600708007812
v 128.21499633789062 131.14100646972656 170.0019989013672
v 87.97750091552734 133.24400329589844 180.3350067138672
v 85.447998046875 131.58999633789062 177.78700256347656
v 94.5645980834961 169.13800048828125 161.3300018310547
v 78.30829620361328 134.6009979248047 167.20599365234375
v 88.41290283203125 125.87899780273438 178.24600219726562
v 113.7249984741211 135.16400146484375 178.63099670410156
v 109.40899658203125 134.67999267578125 179.78900146484375
v 85.16120147705078 134.59800720214844 177.9340057373047
v 84.21330261230469 120.7509994506836 166.66200256347656
v 84.43170166015625 123.52300262451172 172.4770050048828
v 116.88899993896484 160.95899963378906 147.94200134277344
v 119.29499816894531 160.09300231933594 147.3040008544922
v 117.9489974975586 115.10700225830078 154.64500427246094
v 89.88079833984375 171.1739959716797 154.33799743652344
v 91.25240325927734 171.08999633789062 152.8979949951172
v 82.652099609375 159.2519989013672 156.79600524902344
v 117.66500091552734 132.75999450683594 142.93299865722656
v 121.06999969482422 160.64999389648438 149.9219970703125
v 102.44599914550781 161.58299255371094 172.3350067138672
v 128.4149932861328 155.70700073242188 148.7010040283203
v 93.38050079345703 137.8990020751953 181.843994140625
v 88.5885009765625 163.3419952392578 141.3459930419922
v 113.58699798583984 144.22000122070312 141.08700561523438
v 125.947998046875 158.6230010986328 150.1540069580078
v 95.19920349121094 142.33900451660156 180.875
v 88.99970245361328 108.9020004272461 155.36099243164062
v 88.99520111083984 109.81199645996094 158.83999633789062
v 112.79499816894531 165.63099670410156 157.3939971923828
v 130.05799865722656 139.41400146484375 165.36500549316406
v 93.33200073242188 107.10900115966797 157.41099548339844
v 90.97460174560547 107.59300231933594 155.41099548339844
v 110.69100189208984 118.85700225830078 144.3280029296875
v 128.88699340820312 123.53800201416016 166.36300659179688
v 79.58699798583984 131.1529998779297 170.15499877929688
v 120.1969985961914 149.38299560546875 169.88699340820312
v 105.53800201416016 146.60699462890625 139.302001953125
v 108.80999755859375 146.89300537109375 140.1230010986328
v 111.8489990234375 162.52999877929688 149.53199768066406
v 127.95700073242188 158.42999267578125 156.64500427246094
v 95.37100219726562 164.0500030517578 139.95399475097656
v 132.58999633789062 140.28700256347656 160.0850067138672
v 131.40199279785156 141.06399536132812 163.6929931640625
v 121.28800201416016 138.34500122070312 145.67599487304688
v 132.9770050048828 152.4409942626953 155.94000244140625
v 126.8489990234375 145.32400512695312 166.38299560546875
v 127.41200256347656 128.73599243164062 170.5050048828125
v 125.39199829101562 127.98799896240234 171.59100341796875
v 79.73809814453125 154.9980010986328 139.20199584960938
v 83.0385971069336 156.67300415039062 139.19400024414062
v 105.33100128173828 157.4040069580078 142.0260009765625
v 81.902099609375 117.44499969482422 142.5030059814453
v 82.84449768066406 118.96099853515625 141.0449981689453
v 126.48999786376953 129.6300048828125 150.96499633789062
v 119.4729995727539 123.58499908447266 147.5489959716797
v 117.38899993896484 112.35600280761719 166.2760009765625
v 86.55789947509766 162.91799926757812 143.60000610351562
v 117.06900024414062 167.41799926757812 163.83299255371094
v 90.66829681396484 131.24000549316406 136.97000122070312
v 87.14320373535156 136.66200256347656 179.5399932861328
v 102.21600341796875 112.44599914550781 146.17100524902344
v 120.37200164794922 134.6699981689453 145.18800354003906
v 102.02999877929688 140.83399963378906 137
v 82.14430236816406 162.1790008544922 150.17300415039062
v 83.88520050048828 164.9239959716797 151.97000122070312
v 90.6082992553711 163.9759979248047 141.8179931640625
v 93.10459899902344 164.36000061035156 141.22300720214844
v 76.25189971923828 135.2220001220703 140.28199768066406
v 77.14029693603516 136.052001953125 139.58299255371094
v 108.26000213623047 168.81900024414062 160.35499572753906
v 129.45399475097656 132.51499938964844 152.802001953125
v 127.76499938964844 133.9550018310547 149.55799865722656
v 81.5083999633789 161.072998046875 141.36000061035156
v 90.05889892578125 164.05099487304688 147.02499389648438
v 100.25900268554688 129.51600646972656 181.03900146484375
v 118.22699737548828 163.7169952392578 158.27699279785156
v 120.43099975585938 164.21400451660156 159.64999389648438
v 87.08450317382812 114.48500061035156 161.6840057373047
v 99.58910369873047 111.83399963378906 145.53700256347656
v 97.84480285644531 112.59200286865234 144.5679931640625
v 108.37899780273438 124.34300231933594 139.94400024414062
v 107.68000030517578 121.04000091552734 141.68499755859375
v 108.87799835205078 166.24200439453125 155.64500427246094
v 111.77799987792969 163.87600708007812 153.1020050048828
v 123.89900207519531 118.25700378417969 167.8699951171875
v 106.73600006103516 116.46700286865234 171.96200561523438
v 82.82749938964844 146.39500427246094 171.79299926757812
v 80.36730194091797 145.00100708007812 168.03399658203125
v 115.39399719238281 119.35600280761719 171.7689971923828
v 102.1240005493164 108.48200225830078 163.94200134277344
v 84.60430145263672 127.46900177001953 138.80099487304688
v 82.85150146484375 114.70999908447266 145.08599853515625
v 84.32250213623047 114.1709976196289 147.63499450683594
v 122.01899719238281 141.3350067138672 146.4010009765625
v 88.12680053710938 151.7469940185547 173.41000366210938
v 119.91799926757812 117.36499786376953 170.62100219726562
v 118.16500091552734 116.04199981689453 170.49099731445312
v 125.64900207519531 149.30099487304688 166.7010040283203
v 97.82109832763672 163.8979949951172 140.42300415039062
v 130.1479949951172 153.12100219726562 161.6219940185547
v 80.68190002441406 159.1199951171875 151.2169952392578
v 78.8136978149414 157.3459930419922 146.99200439453125
v 91.10060119628906 110.06199645996094 151.12100219726562
v 128.9530029296875 128.41200256347656 155.86300659179688
v 86.13780212402344 140.31199645996094 136.45700073242188
v 105.48699951171875 108.197998046875 161.99600219726562
v 99.51519775390625 129.7310028076172 137.5189971923828
v 118.56999969482422 151.30999755859375 172.30999755859375
v 114.1780014038086 110.96900177001953 165.2270050048828
v 80.10700225830078 124.07499694824219 137.9969940185547
v 107.01599884033203 148.7429962158203 140.0050048828125
v 97.92420196533203 170.25799560546875 159.99099731445312
v 82.96739959716797 115.8280029296875 143.01400756835938
v 80.18589782714844 122.9020004272461 138.4510040283203
v 80.1863021850586 133.1540069580078 172.37600708007812
v 81.00170135498047 137.0469970703125 173.1999969482422
v 105.81800079345703 170.2790069580078 161.96800231933594
v 90.84819793701172 111.9800033569336 144.03599548339844
v 111.13400268554688 113.83000183105469 170.87399291992188
v 107.91999816894531 112.35700225830078 169.78399658203125
v 79.04429626464844 156.73500061035156 139.20700073242188
v 109.67400360107422 157.9530029296875 145.18299865722656
v 78.59020233154297 143.7969970703125 139.00999450683594
v 80.16739654541016 142.156005859375 138.81500244140625
v 106.02999877929688 110.33399963378906 152.97999572753906
v 97.85749816894531 159.92300415039062 137.7969970703125
v 115.10700225830078 114.95800018310547 153.00599670410156
v 86.5259017944336 117.8270034790039 166.6439971923828
v 108.96399688720703 117.26399993896484 172.30799865722656
v 125.40899658203125 118.30500030517578 166.0959930419922
v 132.08399963378906 132.81300354003906 165.18299865722656
v 130.41299438476562 133.20399475097656 166.4669952392578
v 82.39900207519531 150.80799865722656 168.55799865722656
v 78.6187973022461 124.83699798583984 147.11599731445312
v 119.26100158691406 165.4669952392578 161.02699279785156
v 122.24800109863281 149.5780029296875 146.7740020751953
v 98.91999816894531 107.69599914550781 161.51800537109375
v 127.29499816894531 126.24700164794922 169.5449981689453
v 77.2573013305664 133.7740020751953 150.0679931640625
v 130.7779998779297 148.0469970703125 162.58399963378906
v 123.87999725341797 130.677001953125 172.41400146484375
v 122.08899688720703 153.75599670410156 168.32699584960938
v 128.2239990234375 156.59800720214844 161.95700073242188
v 127.3489990234375 154.94400024414062 163.7779998779297
v 76.24739837646484 133.55299377441406 141.08799743652344
v 107.9280014038086 109.95899963378906 155.15199279785156
v 93.60459899902344 130.60000610351562 136.53900146484375
v 96.125 132.53700256347656 135.3459930419922
v 94.04190063476562 107.65899658203125 153.96499633789062
v 83.42530059814453 145.3179931640625 138.20799255371094
v 123.9489974975586 143.2259979248047 146.92999267578125
v 128.35800170898438 120.58699798583984 165.89700317382812
v 127.7699966430664 121.5459976196289 166.51600646972656
v 123.5989990234375 134.19500732421875 173.17100524902344
v 75.70230102539062 151.2239990234375 142.8990020751953
v 112.53900146484375 110.57099914550781 160.343994140625
v 131.5919952392578 128.53599548339844 164.87600708007812
v 93.53230285644531 110.39099884033203 148.51800537109375
v 90.2219009399414 120.697998046875 174.78199768066406
v 87.79879760742188 119.23100280761719 171.2010040283203
v 98.4281005859375 133.0709991455078 181.6909942626953
v 102.62699890136719 168.39100646972656 166.25900268554688
v 104.73999786376953 168.99899291992188 165.76699829101562
v 84.95819854736328 140.38999938964844 176.88400268554688
v 124.4520034790039 139.552001953125 147.07899475097656
v 129.4600067138672 142.6199951171875 165.36599731445312
v 80.77839660644531 159.98199462890625 147.55499267578125
v 79.17109680175781 121.56199645996094 140.7519989013672
v 78.18229675292969 122.93499755859375 142.3769989013672
v 128.00999450683594 157.43699645996094 149.86900329589844
v 122.74299621582031 161.0489959716797 166.30999755859375
v 114.55799865722656 156.22300720214844 173.0489959716797
v 95.53369903564453 130.49200439453125 182.2899932861328
v 111.9729995727539 150.93299865722656 143.60400390625
v 128.23399353027344 124.802001953125 167.23599243164062
v 94.65149688720703 123.08200073242188 178.5709991455078
v 76.45449829101562 130.13900756835938 144.08099365234375
v 75.7654037475586 140.97799682617188 145.781005859375
v 125.71399688720703 120.22100067138672 158.1959991455078
v 126.08799743652344 119.10600280761719 161.625
v 85.106201171875 151.1020050048828 171.8300018310547
v 82.62370300292969 162.26400756835938 153.83799743652344
v 115.49400329589844 156.822998046875 146.54299926757812
v 84.37999725341797 113.21299743652344 145.58700561523438
v 88.9719009399414 166.156005859375 159.51499938964844
v 90.06279754638672 125.27200317382812 139.06199645996094
v 82.60700225830078 125.42900085449219 171.0070037841797
v 89.25980377197266 141.36500549316406 135.3719940185547
v 133.05599975585938 148.17100524902344 151.3780059814453
v 82.40299987792969 117.12100219726562 149.27699279785156
v 75.62870025634766 144.62600708007812 144.8419952392578
v 129.98800659179688 144.73599243164062 164.23899841308594
v 82.26380157470703 128.6230010986328 172.41099548339844
v 82.88719940185547 131.91600036621094 174.822998046875
v 86.36689758300781 132.5240020751953 138.4810028076172
v 84.1615982055664 129.99899291992188 138.89199829101562
v 86.52300262451172 158.3419952392578 138.92100524902344
v 112.82499694824219 111.99400329589844 168.38299560546875
v 116.41200256347656 144.05499267578125 143.01600646972656
v 97.65019989013672 113.07599639892578 169.3350067138672
v 101.52999877929688 107.18299865722656 158.60699462890625
v 89.17610168457031 163.5399932861328 144.03399658203125
v 107.96099853515625 127.46700286865234 138.95199584960938
v 110.69000244140625 129.5229949951172 139.16000366210938
v 78.4540023803711 126.23999786376953 137.95700073242188
v 119.78099822998047 160.20899963378906 152.10299682617188
v 80.88009643554688 152.98500061035156 139.18899536132812
v 79.27339935302734 130.6739959716797 162.48399353027344
v 107.19499969482422 117.7300033569336 173.52499389648438
v 115.02799987792969 131.53399658203125 140.8179931640625
v 113.5739974975586 128.63400268554688 140.552001953125
v 75.4802017211914 148.3260040283203 141.0229949951172
v 76.78309631347656 149.32000732421875 139.63999938964844
v 102.89700317382812 143.1009979248047 180.33900451660156
v 103.36000061035156 166.13600158691406 169.5800018310547
v 84.91179656982422 125.77100372314453 174.468994140625
v 97.26229858398438 170.2209930419922 156.3769989013672
v 75.20570373535156 142.1300048828125 142.71200561523438
v 77.66709899902344 146.33999633789062 153.072998046875
v 120.6500015258789 164.14500427246094 165.91299438476562
v 75.777099609375 151.68800354003906 140.8260040283203
v 116.5270004272461 129.21800231933594 142.69200134277344
v 119.36199951171875 130.50100708007812 145.06300354003906
v 81.36530303955078 124.15299987792969 161.4510040283203
v 119.197998046875 113.96199798583984 161.79100036621094
v 84.88349914550781 153.18600463867188 170.46800231933594
v 118.0250015258789 135.99400329589844 176.6909942626953
v 117.4280014038086 131.98399353027344 176.9459991455078
v 111.28900146484375 168.40899658203125 160.8000030517578
v 114.85399627685547 167.76800537109375 161.22500610351562
v 92.93370056152344 164.2689971923828 144.4969940185547
v 91.37560272216797 170.7429962158203 156.36300659179688
v 92.41419982910156 171.18099975585938 155.41600036621094
v 79.83529663085938 160.1719970703125 141.5489959716797
v 78.87660217285156 150.60699462890625 139.20199584960938
v 82.05349731445312 141.5500030517578 173.26499938964844
v 90.7760009765625 116.95800018310547 141.6009979248047
v 117.28600311279297 113.93800354003906 157.57699584960938
v 123.30000305175781 159.91400146484375 149.3520050048828
v 110.44599914550781 118.98500061035156 173.59500122070312
v 124.23999786376953 159.33399963378906 151.3260040283203
v 89.29609680175781 170.13699340820312 152.90499877929688
v 119.48300170898438 162.39700317382812 157.11700439453125
v 131.59500122070312 126.90899658203125 165.05599975585938
v 90.7697982788086 169.7259979248047 152
v 89.17340087890625 167.6529998779297 151.08299255371094
v 114.18800354003906 165.69500732421875 168.67599487304688
v 75.70770263671875 136.53399658203125 143.23599243164062
v 112.9530029296875 113.94999694824219 152.83999633789062
v 88.35399627685547 112.64199829101562 143.33700561523438
v 109.55500030517578 112.33200073242188 152.38099670410156
v 104.38700103759766 149.50999450683594 139.47300720214844
v 124.9010009765625 146.47799682617188 147.04800415039062
v 86.85279846191406 162.79600524902344 159.87399291992188
v 118.53099822998047 154.0279998779297 171.55499267578125
v 111.87100219726562 132.6020050048828 139.3699951171875
v 82.26519775390625 151.0919952392578 139.03700256347656
v 80.86920166015625 127.58699798583984 138.2209930419922
v 77.09380340576172 125.18900299072266 140.0800018310547
v 128.2519989013672 157.86500549316406 152.69000244140625
v 83.0167007446289 161.58299255371094 140.76600646972656
v 101.99400329589844 164.2570037841797 148.26300048828125
v 76.11830139160156 131.69900512695312 142.1510009765625
v 76.1436996459961 132.86500549316406 144.03900146484375
v 133.46499633789062 149.08299255371094 156.9219970703125
v 104.78800201416016 123.60900115966797 139.59100341796875
v 103.73400115966797 132.28700256347656 180.54800415039062
v 77.27220153808594 124.86000061035156 141.85699462890625
v 126.34600067138672 159.2570037841797 161.85499572753906
v 100.85299682617188 170.22000122070312 159.947998046875
v 102.96199798583984 170.27200317382812 161.95199584960938
v 83.59590148925781 116.08000183105469 152.03500366210938
v 132.11700439453125 154.94900512695312 153.9709930419922
v 118.71299743652344 161.66000366210938 168.41400146484375
v 80.72339630126953 121.68499755859375 139.52699279785156
v 110.5989990234375 168.8000030517578 166.39500427246094
v 130.08799743652344 136.5780029296875 165.92999267578125
v 86.66069793701172 162.63800048828125 140.53799438476562
v 100.86499786376953 107.56800079345703 154.177001953125
v 126.41600036621094 130.72300720214844 171.42999267578125
v 117.2979965209961 154.96600341796875 172.65899658203125
v 104.30899810791016 153.01199340820312 177.80999755859375
v 104.85299682617188 108.93900299072266 165.83700561523438
v 112.90499877929688 167.61700439453125 167.30599975585938
v 115.96499633789062 166.78399658203125 166.8159942626953
v 88.64129638671875 145.4949951171875 137.71600341796875
v 94.9281997680664 149.69000244140625 138.6529998779297
v 96.3905029296875 142.63600158691406 135.31399536132812
v 118.62200164794922 120.36199951171875 149.60499572753906
v 98.16510009765625 155.65899658203125 175.4739990234375
v 107.10900115966797 167.38099670410156 168.8040008544922
v 78.0884017944336 138.1649932861328 139.48599243164062
v 119.6510009765625 146.64500427246094 174.67599487304688
v 92.96520233154297 154.7259979248047 174.04400634765625
v 122.27999877929688 118.69499969482422 169.947998046875
v 76.37629699707031 147.6179962158203 139.80599975585938
v 131.43099975585938 138.46499633789062 151.9949951171875
v 99.02950286865234 133.02099609375 136.1909942626953
v 91.75569915771484 128.8560028076172 138.01400756835938
v 94.57350158691406 127.71600341796875 138.06500244140625
v 78.1593017578125 150.53500366210938 151.99099731445312
v 79.28890228271484 148.81100463867188 139.08599853515625
v 124.70600128173828 155.906005859375 166.43099975585938
v 82.4177017211914 161.26400756835938 142.5679931640625
v 87.1989974975586 161.06199645996094 139.1529998779297
v 78.64559936523438 146.45599365234375 157.69700622558594
v 128.13900756835938 133.8350067138672 167.9149932861328
v 103.4990005493164 159.00599670410156 139.60000610351562
v 90.77729797363281 108.13400268554688 158.32400512695312
v 110.00700378417969 153.44000244140625 176.35899353027344
v 105.16000366210938 166.322998046875 153.3719940185547
v 105.71399688720703 153.11199951171875 142.30799865722656
v 87.16010284423828 130.70899963378906 138.76300048828125
v 108.8499984741211 149.8939971923828 141.5760040283203
v 79.94629669189453 123.197998046875 151.13099670410156
v 87.01360321044922 114.77100372314453 142.53399658203125
v 128.16700744628906 137.45399475097656 148.76199340820312
v 100.23300170898438 169.46600341796875 163.1510009765625
v 87.61090087890625 112.37699890136719 148.52099609375
v 103.11000061035156 119.63999938964844 141.50799560546875
v 79.36840057373047 138.9709930419922 169.74400329589844
v 96.4124984741211 147.3459930419922 179.5659942626953
v 115.7300033569336 117.24700164794922 171.1999969482422
v 132.343994140625 135.86599731445312 163.02200317382812
v 81.31749725341797 158.40699768066406 139.3280029296875
v 109.65599822998047 120.98799896240234 176.0760040283203
v 109.13500213623047 153.05299377441406 143.7729949951172
v 116.96600341796875 162.1840057373047 155.68600463867188
v 99.24320220947266 168.79299926757812 154.09800720214844
v 96.98989868164062 153.34800720214844 138.177001953125
v 94.85250091552734 120.28399658203125 176.51100158691406
v 95.89199829101562 164.60299682617188 142.53399658203125
v 126.1709976196289 157.0050048828125 148.33599853515625
v 96.51339721679688 170.00100708007812 153.85299682617188
v 77.59660339355469 125.27400207519531 143.71400451660156
v 122.14900207519531 145.2220001220703 172.22999572753906
v 77.94120025634766 140.5070037841797 139.43699645996094
v 123.38800048828125 126.15299987792969 171.98399353027344
v 130.5290069580078 124.74500274658203 165.69000244140625
v 111.1520004272461 126.45899963378906 140.00900268554688
v 114.05999755859375 160.781005859375 147.4770050048828
v 79.28140258789062 131.09300231933594 139.0800018310547
v 108.52799987792969 109.21700286865234 158.447998046875
v 125.00599670410156 160.0019989013672 156.427001953125
v 97.14730072021484 107.28500366210938 156.281005859375
v 113.13099670410156 158.64999389648438 146.4969940185547
v 85.37670135498047 128.51499938964844 176.41299438476562
v 86.28109741210938 112.28199768066406 146.593994140625
v 96.66300201416016 130.4239959716797 136.822998046875
v 101.20899963378906 112.01100158691406 169.11000061035156
v 116.21600341796875 125.8479995727539 143.6280059814453
v 95.59519958496094 170.322998046875 158.29200744628906
v 107.52799987792969 131.92599487304688 138.32200622558594
v 91.69280242919922 166.63999938964844 162.406005859375
v 102.50700378417969 144.8159942626953 138.68299865722656
v 86.63990020751953 148.88099670410156 174.18699645996094
v 125.60900115966797 125.03600311279297 170.75
v 124.40699768066406 136.95799255371094 173.14199829101562
v 95.8136978149414 113.46800231933594 143.8520050048828
v 123.24800109863281 123.05500030517578 171.28399658203125
v 114.37899780273438 131.32400512695312 178.21200561523438
v 85.86540222167969 112.80999755859375 144.30599975585938
v 116.85399627685547 147.552001953125 175.91700744628906
v 105.73200225830078 135.6280059814453 137.91000366210938
v 104.31700134277344 138.57899475097656 180.73300170898438
v 76.79440307617188 127.83599853515625 142.2899932861328
v 118.68299865722656 160.95799255371094 154.58799743652344
v 126.11000061035156 158.86099243164062 153.45199584960938
v 120.45800018310547 115.44400024414062 158.49899291992188
v 76.34880065917969 144.10899353027344 139.7030029296875
v 79.6624984741211 151.76100158691406 156.69400024414062
v 76.74230194091797 146.93600463867188 148.51400756835938
v 120.00599670410156 154.62399291992188 169.34100341796875
v 118.29199981689453 127.08399963378906 145.05999755859375
v 84.79989624023438 161.99600219726562 140.0780029296875
v 111.49400329589844 156.08700561523438 174.07200622558594
v 127.947998046875 147.39500427246094 165.44200134277344
v 111.79299926757812 147.71499633789062 141.7169952392578
v 107.25800323486328 155.9320068359375 175.5449981689453
v 103.14900207519531 155.46499633789062 139.1750030517578
v 100.43299865722656 166.0989990234375 151.4949951171875
v 117.4000015258789 160.83900451660156 153.28399658203125
v 101.53500366210938 117.5459976196289 174.52699279785156
v 129.3350067138672 126.33999633789062 166.86300659179688
v 130.42599487304688 138.68800354003906 150.0469970703125
v 84.17790222167969 114.28299713134766 143.656005859375
v 84.3009033203125 164.19000244140625 149.66700744628906
v 104.05500030517578 152.7030029296875 140.19400024414062
v 98.34609985351562 164.43800354003906 143.21499633789062
v 103.4990005493164 111.31199645996094 149.4429931640625

g grp1
usemtl mtl1
f 35 2 1 
f 689 1 2 
f 570 4 3 
f 720 3 4 
f 534 6 5 
f 671 5 6 
f 252 8 7 
f 619 7 8 
f 544 10 9 
f 401 9 10 
f 429 12 11 
f 866 11 12 
f 153 14 13 
f 484 13 14 
f 470 16 15 
f 948 15 16 
f 482 18 17 
f 169 17 18 
f 973 20 19 
f 346 19 20 
f 19 22 21 
f 609 21 22 
f 752 24 23 
f 61 23 24 
f 976 26 25 
f 719 25 26 
f 754 28 27 
f 710 27 28 
f 103 30 29 
f 884 29 30 
f 960 32 31 
f 301 31 32 
f 720 34 33 
f 234 33 34 
f 783 36 35 
f 2 35 36 
f 900 38 37 
f 518 37 38 
f 431 40 39 
f 253 39 40 
f 112 42 41 
f 55 41 42 
f 532 44 43 
f 393 43 44 
f 896 46 45 
f 180 45 46 
f 462 48 47 
f 129 47 48 
f 518 50 49 
f 601 49 50 
f 637 52 51 
f 323 51 52 
f 916 54 53 
f 106 53 54 
f 133 41 55 
f 451 57 56 
f 203 56 57 
f 529 59 58 
f 256 58 59 
f 877 61 60 
f 338 60 61 
f 894 63 62 
f 826 62 63 
f 72 65 64 
f 163 64 65 
f 421 67 66 
f 791 66 67 
f 600 69 68 
f 985 68 69 
f 199 71 70 
f 544 70 71 
f 83 72 64 
f 488 74 73 
f 891 73 74 
f 15 76 75 
f 115 75 76 
f 614 78 77 
f 390 77 78 
f 898 80 79 
f 800 79 80 
f 358 82 81 
f 6 81 82 
f 146 72 83 
f 725 85 84 
f 128 84 85 
f 846 87 86 
f 354 86 87 
f 199 70 88 
f 295 88 70 
f 149 89 43 
f 532 43 89 
f 235 91 90 
f 886 90 91 
f 273 93 92 
f 318 92 93 
f 942 95 94 
f 579 94 95 
f 734 97 96 
f 515 96 97 
f 212 99 98 
f 418 98 99 
f 487 101 100 
f 230 100 101 
f 640 103 102 
f 29 102 103 
f 358 105 104 
f 760 104 105 
f 669 107 106 
f 53 106 107 
f 382 109 108 
f 901 108 109 
f 95 111 110 
f 898 110 111 
f 899 112 41 
f 346 114 113 
f 259 113 114 
f 710 28 115 
f 439 115 28 
f 158 117 116 
f 31 116 117 
f 279 119 118 
f 968 118 119 
f 923 121 120 
f 471 120 121 
f 377 123 122 
f 175 122 123 
f 991 125 124 
f 490 124 125 
f 744 127 126 
f 919 126 127 
f 465 129 128 
f 849 128 129 
f 148 37 49 
f 518 49 37 
f 764 131 130 
f 528 130 131 
f 41 133 132 
f 533 132 133 
f 406 135 134 
f 448 134 135 
f 484 137 136 
f 177 136 137 
f 361 139 138 
f 934 138 139 
f 360 141 140 
f 251 140 141 
f 926 143 142 
f 924 142 143 
f 115 145 144 
f 178 144 145 
f 317 147 146 
f 72 146 147 
f 533 37 148 
f 610 89 149 
f 991 124 150 
f 204 150 124 
f 19 151 22 
f 594 22 151 
f 936 153 152 
f 13 152 153 
f 790 155 154 
f 860 154 155 
f 908 157 156 
f 982 156 157 
f 730 158 116 
f 932 160 159 
f 321 159 160 
f 236 162 161 
f 847 161 162 
f 370 164 163 
f 459 163 164 
f 616 166 165 
f 407 165 166 
f 434 168 167 
f 748 167 168 
f 18 170 169 
f 640 169 170 
f 712 172 171 
f 182 171 172 
f 508 174 173 
f 417 173 174 
f 910 175 123 
f 134 177 176 
f 137 176 177 
f 334 179 178 
f 658 178 179 
f 301 116 31 
f 125 181 180 
f 235 180 181 
f 885 182 172 
f 391 184 183 
f 904 183 184 
f 954 186 185 
f 580 185 186 
f 882 188 187 
f 513 187 188 
f 343 190 189 
f 457 189 190 
f 703 192 191 
f 798 191 192 
f 480 194 193 
f 269 193 194 
f 493 196 195 
f 246 195 196 
f 407 198 197 
f 405 197 198 
f 846 200 199 
f 71 199 200 
f 215 202 201 
f 331 201 202 
f 57 204 203 
f 632 203 204 
f 935 206 205 
f 741 205 206 
f 810 208 207 
f 348 207 208 
f 767 210 209 
f 824 209 210 
f 139 211 119 
f 707 119 211 
f 29 212 98 
f 266 214 213 
f 604 213 214 
f 296 216 215 
f 907 215 216 
f 484 136 13 
f 716 13 136 
f 927 218 217 
f 802 217 218 
f 259 220 219 
f 573 219 220 
f 34 222 221 
f 470 221 222 
f 590 21 223 
f 609 223 21 
f 654 224 164 
f 909 164 224 
f 291 109 225 
f 335 225 109 
f 917 227 226 
f 578 226 227 
f 866 228 11 
f 454 11 228 
f 605 230 229 
f 551 229 230 
f 263 232 231 
f 357 231 232 
f 605 100 230 
f 64 233 83 
f 865 83 233 
f 648 234 34 
f 181 91 235 
f 10 237 236 
f 162 236 237 
f 385 239 238 
f 841 238 239 
f 663 241 240 
f 992 240 241 
f 312 243 242 
f 317 242 243 
f 101 244 230 
f 551 230 244 
f 999 246 245 
f 106 245 246 
f 608 248 247 
f 298 247 248 
f 399 249 227 
f 446 227 249 
f 729 250 188 
f 513 188 250 
f 310 140 251 
f 39 253 252 
f 8 252 253 
f 628 255 254 
f 946 254 255 
f 817 257 256 
f 722 256 257 
f 76 258 145 
f 262 145 258 
f 560 260 259 
f 220 259 260 
f 600 261 69 
f 362 69 261 
f 480 262 258 
f 391 264 263 
f 456 263 264 
f 570 3 265 
f 893 265 3 
f 476 266 213 
f 155 268 267 
f 904 267 268 
f 970 193 269 
f 743 271 270 
f 612 270 271 
f 383 273 272 
f 645 272 273 
f 622 275 274 
f 364 274 275 
f 159 277 276 
f 692 276 277 
f 638 279 278 
f 118 278 279 
f 464 281 280 
f 672 280 281 
f 931 99 212 
f 776 118 282 
f 968 282 118 
f 842 284 283 
f 747 283 284 
f 2 286 285 
f 956 285 286 
f 579 288 287 
f 869 287 288 
f 397 290 289 
f 966 289 290 
f 626 291 225 
f 812 293 292 
f 18 292 293 
f 328 295 294 
f 313 294 295 
f 526 296 215 
f 122 175 297 
f 105 297 175 
f 454 247 298 
f 448 135 299 
f 130 299 135 
f 346 300 151 
f 594 151 300 
f 730 116 301 
f 734 303 302 
f 476 302 303 
f 224 152 304 
f 683 304 152 
f 207 306 305 
f 768 305 306 
f 363 308 307 
f 897 307 308 
f 359 310 309 
f 469 309 310 
f 351 312 311 
f 242 311 312 
f 401 314 313 
f 483 313 314 
f 490 315 124 
f 632 124 315 
f 168 317 316 
f 146 316 317 
f 516 92 318 
f 340 320 319 
f 412 319 320 
f 277 159 321 
f 489 323 322 
f 434 322 323 
f 849 325 324 
f 730 324 325 
f 191 327 326 
f 887 326 327 
f 88 328 87 
f 354 87 328 
f 885 329 312 
f 243 312 329 
f 294 313 330 
f 347 330 313 
f 378 332 331 
f 542 331 332 
f 362 91 333 
f 366 333 91 
f 632 204 124 
f 343 334 262 
f 178 262 334 
f 791 335 66 
f 109 66 335 
f 580 337 336 
f 871 336 337 
f 24 338 61 
f 607 340 339 
f 617 339 340 
f 760 105 175 
f 748 342 341 
f 374 341 342 
f 193 343 262 
f 427 345 344 
f 1001 344 345 
f 938 346 113 
f 416 330 347 
f 732 349 348 
f 895 348 349 
f 182 351 350 
f 652 350 351 
f 423 353 352 
f 983 352 353 
f 294 354 328 
f 914 355 157 
f 762 157 355 
f 663 356 241 
f 924 241 356 
f 954 357 232 
f 82 358 104 
f 656 360 359 
f 310 359 360 
f 902 361 150 
f 138 150 361 
f 452 362 333 
f 539 308 363 
f 275 365 364 
f 217 364 365 
f 125 366 181 
f 91 181 366 
f 526 367 296 
f 473 296 367 
f 350 171 182 
f 940 369 368 
f 696 368 369 
f 884 212 29 
f 801 370 65 
f 163 65 370 
f 569 222 4 
f 720 4 222 
f 777 372 371 
f 564 371 372 
f 462 47 373 
f 912 373 47 
f 588 374 342 
f 719 375 373 
f 568 373 375 
f 675 377 376 
f 443 376 377 
f 331 379 378 
f 742 378 379 
f 728 381 380 
f 621 380 381 
f 421 66 382 
f 109 382 66 
f 861 93 383 
f 273 383 93 
f 360 140 310 
f 203 384 56 
f 397 56 384 
f 670 239 385 
f 528 387 386 
f 417 386 387 
f 146 83 316 
f 865 316 83 
f 509 389 388 
f 952 388 389 
f 618 390 78 
f 717 392 391 
f 264 391 392 
f 44 251 393 
f 868 393 251 
f 740 395 394 
f 293 394 395 
f 50 396 81 
f 358 81 396 
f 430 397 289 
f 635 399 398 
f 227 398 399 
f 411 305 400 
f 768 400 305 
f 313 295 401 
f 9 401 295 
f 535 403 402 
f 812 402 403 
f 197 405 404 
f 492 404 405 
f 743 14 153 
f 951 406 134 
f 844 407 166 
f 598 72 147 
f 319 409 408 
f 927 408 409 
f 657 410 329 
f 599 329 410 
f 721 305 411 
f 320 413 412 
f 790 412 413 
f 190 415 414 
f 892 414 415 
f 767 416 347 
f 173 417 387 
f 715 418 99 
f 392 419 264 
f 432 264 419 
f 67 421 420 
f 716 420 421 
f 247 423 422 
f 352 422 423 
f 853 425 424 
f 818 424 425 
f 262 178 145 
f 596 427 426 
f 344 426 427 
f 906 57 428 
f 451 428 57 
f 451 430 429 
f 289 429 430 
f 570 431 39 
f 419 433 432 
f 601 432 433 
f 323 52 434 
f 945 434 52 
f 845 166 435 
f 964 435 166 
f 322 437 436 
f 795 436 437 
f 954 438 186 
f 531 186 438 
f 764 135 406 
f 648 75 439 
f 115 439 75 
f 686 440 196 
f 246 196 440 
f 221 15 75 
f 928 84 128 
f 698 442 441 
f 571 441 442 
f 900 443 38 
f 587 38 443 
f 546 444 290 
f 616 290 444 
f 908 156 445 
f 505 445 156 
f 653 447 446 
f 578 446 447 
f 761 450 449 
f 715 449 450 
f 867 69 452 
f 362 452 69 
f 423 454 453 
f 228 453 454 
f 263 456 455 
f 807 455 456 
f 642 458 457 
f 189 457 458 
f 997 460 459 
f 233 459 460 
f 743 270 14 
f 769 14 270 
f 542 201 331 
f 507 173 387 
f 512 462 461 
f 568 461 462 
f 469 310 251 
f 634 464 463 
f 773 463 464 
f 665 465 85 
f 128 85 465 
f 618 467 466 
f 771 466 467 
f 263 184 391 
f 858 468 196 
f 686 196 468 
f 44 469 251 
f 15 221 470 
f 121 472 471 
f 96 471 472 
f 701 296 473 
f 712 474 172 
f 657 172 474 
f 741 475 205 
f 731 205 475 
f 786 476 213 
f 881 477 286 
f 956 286 477 
f 139 361 211 
f 906 211 361 
f 768 479 478 
f 861 478 479 
f 262 480 193 
f 297 105 358 
f 292 482 481 
f 702 481 482 
f 236 483 314 
f 769 137 484 
f 268 486 485 
f 982 485 486 
f 120 471 487 
f 101 487 471 
f 1002 74 488 
f 370 60 338 
f 851 323 489 
f 62 253 40 
f 734 302 97 
f 356 97 302 
f 46 315 490 
f 737 491 74 
f 891 74 491 
f 405 493 492 
f 195 492 493 
f 390 495 494 
f 788 494 495 
f 866 496 228 
f 583 228 496 
f 27 498 497 
f 752 497 498 
f 888 500 499 
f 729 499 500 
f 709 502 501 
f 668 501 502 
f 551 504 503 
f 585 503 504 
f 982 505 156 
f 941 187 506 
f 513 506 187 
f 697 508 507 
f 173 507 508 
f 272 389 509 
f 547 511 510 
f 704 510 511 
f 276 512 461 
f 250 514 513 
f 923 513 514 
f 334 343 189 
f 663 515 97 
f 970 343 193 
f 160 516 321 
f 673 321 516 
f 537 517 174 
f 837 174 517 
f 519 396 518 
f 50 518 396 
f 297 396 519 
f 875 521 520 
f 185 520 521 
f 936 523 522 
f 889 522 523 
f 651 472 121 
f 458 179 334 
f 708 501 524 
f 537 524 501 
f 291 383 525 
f 272 525 383 
f 609 367 526 
f 709 527 502 
f 810 502 527 
f 742 387 528 
f 58 530 529 
f 554 529 530 
f 870 531 438 
f 584 404 492 
f 163 459 233 
f 900 533 133 
f 264 432 534 
f 6 534 432 
f 943 536 535 
f 403 535 536 
f 10 236 314 
f 668 517 537 
f 623 538 467 
f 772 467 538 
f 308 539 284 
f 747 284 539 
f 933 339 540 
f 617 540 339 
f 488 449 541 
f 770 541 449 
f 645 389 272 
f 584 496 404 
f 197 404 496 
f 846 199 88 
f 770 543 541 
f 692 541 543 
f 9 70 544 
f 710 498 27 
f 631 489 545 
f 625 545 489 
f 397 546 290 
f 559 548 547 
f 664 547 548 
f 409 550 549 
f 789 549 550 
f 231 184 263 
f 905 553 552 
f 194 552 553 
f 780 554 530 
f 433 419 555 
f 392 555 419 
f 799 557 556 
f 836 556 557 
f 602 559 558 
f 547 558 559 
f 792 130 528 
f 788 561 560 
f 260 560 561 
f 860 563 562 
f 876 562 563 
f 633 311 242 
f 969 201 542 
f 666 565 564 
f 835 564 565 
f 913 567 566 
f 713 566 567 
f 878 568 375 
f 4 570 569 
f 975 569 570 
f 962 572 571 
f 349 571 572 
f 456 264 534 
f 821 219 573 
f 873 575 574 
f 937 574 575 
f 994 577 576 
f 624 576 577 
f 446 578 227 
f 288 579 95 
f 520 185 580 
f 886 261 581 
f 783 581 261 
f 935 205 527 
f 731 527 205 
f 11 454 298 
f 675 582 377 
f 123 377 582 
f 496 584 583 
f 794 583 584 
f 992 586 585 
f 112 585 586 
f 519 587 297 
f 122 297 587 
f 359 309 588 
f 811 588 309 
f 2 36 286 
f 881 286 36 
f 840 590 589 
f 766 589 590 
f 68 592 591 
f 881 591 592 
f 792 386 593 
f 981 593 386 
f 650 532 89 
f 954 455 438 
f 808 438 455 
f 428 451 595 
f 248 595 451 
f 946 427 596 
f 604 597 213 
f 786 213 597 
f 329 599 598 
f 65 598 599 
f 68 591 600 
f 783 600 591 
f 81 6 601 
f 432 601 6 
f 830 505 486 
f 982 486 505 
f 781 559 602 
f 493 405 603 
f 198 603 405 
f 341 604 214 
f 345 100 605 
f 700 607 606 
f 339 606 607 
f 618 495 390 
f 595 248 608 
f 900 376 443 
f 675 610 149 
f 593 225 335 
f 939 356 302 
f 611 433 555 
f 601 433 611 
f 271 613 612 
f 659 612 613 
f 621 615 614 
f 78 614 615 
f 966 290 616 
f 451 429 248 
f 298 248 429 
f 673 277 321 
f 828 467 618 
f 8 620 619 
f 973 619 620 
f 854 493 603 
f 672 380 621 
f 538 623 622 
f 556 622 623 
f 820 340 319 
f 545 625 624 
f 436 624 625 
f 918 340 607 
f 739 291 626 
f 845 628 627 
f 854 627 628 
f 353 629 567 
f 713 567 629 
f 360 630 141 
f 822 141 630 
f 328 88 295 
f 577 631 545 
f 827 632 315 
f 243 147 317 
f 443 122 587 
f 242 317 633 
f 168 633 317 
f 464 634 281 
f 278 281 634 
f 922 431 265 
f 570 265 431 
f 987 53 107 
f 890 635 398 
f 990 597 636 
f 811 636 597 
f 945 52 637 
f 999 195 246 
f 634 463 638 
f 826 638 463 
f 921 640 639 
f 102 639 640 
f 283 368 641 
f 696 641 368 
f 545 624 577 
f 889 642 457 
f 921 644 643 
f 761 643 644 
f 92 645 273 
f 594 300 473 
f 852 473 300 
f 787 332 646 
f 765 646 332 
f 805 647 557 
f 820 557 647 
f 234 648 439 
f 761 644 450 
f 418 450 644 
f 874 487 100 
f 723 650 649 
f 89 649 650 
f 369 576 651 
f 953 651 576 
f 350 652 477 
f 956 477 652 
f 732 348 208 
f 249 653 446 
f 28 234 439 
f 24 655 654 
f 523 654 655 
f 777 371 656 
f 674 656 371 
f 877 410 657 
f 989 144 658 
f 178 658 144 
f 10 314 401 
f 892 660 659 
f 750 659 660 
f 937 662 661 
f 819 661 662 
f 356 663 97 
f 548 665 664 
f 85 664 665 
f 716 421 666 
f 382 666 421 
f 901 509 667 
f 963 667 509 
f 973 620 20 
f 879 20 620 
f 537 501 668 
f 246 669 106 
f 420 136 177 
f 308 284 670 
f 842 670 284 
f 5 671 192 
f 911 192 671 
f 740 538 622 
f 917 398 227 
f 280 672 614 
f 621 614 672 
f 615 621 381 
f 656 674 360 
f 630 360 674 
f 519 518 38 
f 38 587 519 
f 610 675 376 
f 859 45 235 
f 180 235 45 
f 794 677 676 
f 999 676 677 
f 843 679 678 
f 399 678 679 
f 681 357 680 
f 757 680 357 
f 904 681 267 
f 680 267 681 
f 250 682 514 
f 695 514 682 
f 666 684 683 
f 304 683 684 
f 916 685 86 
f 846 86 685 
f 962 481 572 
f 702 572 481 
f 426 686 468 
f 785 560 687 
f 259 687 560 
f 747 689 688 
f 855 688 689 
f 724 616 444 
f 437 322 434 
f 103 690 30 
f 274 30 690 
f 541 692 691 
f 277 691 692 
f 836 365 275 
f 389 694 693 
f 878 693 694 
f 641 696 695 
f 121 695 696 
f 860 155 267 
f 379 697 507 
f 475 698 441 
f 745 700 699 
f 606 699 700 
f 206 701 473 
f 594 473 367 
f 749 702 482 
f 191 326 703 
f 257 703 326 
f 796 705 704 
f 510 704 705 
f 825 210 161 
f 833 161 210 
f 777 656 706 
f 359 706 656 
f 906 595 707 
f 838 707 595 
f 216 709 708 
f 501 708 709 
f 144 710 115 
f 1001 605 711 
f 229 711 605 
f 904 184 231 
f 148 49 611 
f 601 611 49 
f 800 148 611 
f 779 714 713 
f 566 713 714 
f 801 65 599 
f 770 449 715 
f 420 716 136 
f 922 40 431 
f 647 540 617 
f 555 392 717 
f 857 628 254 
f 306 348 718 
f 895 718 348 
f 844 198 407 
f 912 719 373 
f 222 34 720 
f 502 721 668 
f 411 668 721 
f 395 18 293 
f 326 722 257 
f 926 650 723 
f 448 420 177 
f 882 187 724 
f 829 724 187 
f 288 110 355 
f 762 355 110 
f 511 664 725 
f 85 725 664 
f 887 726 326 
f 722 326 726 
f 454 423 247 
f 806 728 727 
f 540 727 728 
f 883 729 188 
f 862 324 730 
f 475 732 731 
f 208 731 732 
f 544 71 733 
f 937 733 71 
f 958 303 734 
f 762 736 735 
f 485 735 736 
f 1002 737 74 
f 748 168 316 
f 447 229 738 
f 503 738 229 
f 814 669 440 
f 246 440 669 
f 850 739 626 
f 622 274 740 
f 690 740 274 
f 852 741 206 
f 131 378 742 
f 522 744 743 
f 271 743 744 
f 999 245 676 
f 779 676 245 
f 422 352 745 
f 607 745 352 
f 77 464 280 
f 947 602 746 
f 558 746 602 
f 283 747 688 
f 231 357 681 
f 524 508 697 
f 482 17 749 
f 957 749 17 
f 139 119 279 
f 612 659 750 
f 409 319 751 
f 412 751 319 
f 977 8 253 
f 23 474 752 
f 497 752 474 
f 766 753 415 
f 892 415 753 
f 33 234 754 
f 28 754 234 
f 592 756 755 
f 712 755 756 
f 563 680 757 
f 907 202 215 
f 564 674 371 
f 149 43 582 
f 976 582 43 
f 491 737 758 
f 863 758 737 
f 104 760 759 
f 961 759 760 
f 838 595 608 
f 712 497 474 
f 157 762 735 
f 18 395 170 
f 690 170 395 
f 94 503 585 
f 753 223 660 
f 950 660 223 
f 233 460 763 
f 777 763 460 
f 841 641 695 
f 406 765 764 
f 131 764 765 
f 183 79 717 
f 800 717 79 
f 663 240 515 
f 920 515 240 
f 266 437 214 
f 167 214 437 
f 222 569 470 
f 905 470 569 
f 970 766 415 
f 416 767 209 
f 384 203 632 
f 484 14 769 
f 981 225 593 
f 959 618 78 
f 909 224 304 
f 403 394 293 
f 467 772 771 
f 536 771 772 
f 785 687 773 
f 879 773 687 
f 827 775 774 
f 883 774 775 
f 694 645 160 
f 92 160 645 
f 1002 516 318 
f 221 75 648 
f 19 346 151 
f 672 776 380 
f 848 380 776 
f 820 319 408 
f 655 778 642 
f 458 642 778 
f 889 457 127 
f 919 127 457 
f 714 779 354 
f 54 354 779 
f 559 781 780 
f 554 780 781 
f 955 768 306 
f 945 782 633 
f 311 633 782 
f 581 783 35 
f 259 219 113 
f 938 113 219 
f 988 265 784 
f 893 784 265 
f 464 77 785 
f 390 785 77 
f 811 469 636 
f 44 636 469 
f 691 277 673 
f 750 542 787 
f 332 787 542 
f 495 466 788 
f 943 788 466 
f 804 655 24 
f 875 520 789 
f 978 789 520 
f 412 790 154 
f 797 165 407 
f 384 546 397 
f 299 791 67 
f 386 792 528 
f 838 745 793 
f 699 793 745 
f 677 794 584 
f 437 266 795 
f 303 795 266 
f 810 527 731 
f 998 796 704 
f 966 797 12 
f 866 12 797 
f 792 299 130 
f 191 798 465 
f 129 465 798 
f 976 25 582 
f 123 582 25 
f 805 557 799 
f 555 717 800 
f 79 183 736 
f 949 736 183 
f 410 801 599 
f 510 802 218 
f 209 445 803 
f 505 803 445 
f 378 765 332 
f 989 804 752 
f 24 752 804 
f 488 541 691 
f 970 190 343 
f 959 806 805 
f 727 805 806 
f 456 534 807 
f 5 807 534 
f 379 202 697 
f 907 697 202 
f 989 498 710 
f 925 808 807 
f 455 807 808 
f 170 103 640 
f 791 299 792 
f 917 226 809 
f 579 809 226 
f 981 386 417 
f 464 785 773 
f 289 12 429 
f 721 810 207 
f 968 793 699 
f 469 811 309 
f 962 402 812 
f 978 520 580 
f 872 351 311 
f 702 749 813 
f 957 813 749 
f 341 214 167 
f 990 532 650 
f 635 669 814 
f 186 531 580 
f 337 580 531 
f 942 585 112 
f 965 816 815 
f 952 815 816 
f 615 381 806 
f 728 806 381 
f 916 86 54 
f 354 54 86 
f 337 817 59 
f 256 59 817 
f 870 817 531 
f 337 531 817 
f 482 292 18 
f 979 424 818 
f 945 633 168 
f 539 1 747 
f 689 747 1 
f 278 634 638 
f 58 256 722 
f 661 819 162 
f 847 162 819 
f 617 820 647 
f 741 821 698 
f 573 698 821 
f 905 552 16 
f 948 16 552 
f 785 494 560 
f 788 560 494 
f 834 823 822 
f 868 822 823 
f 210 825 824 
f 908 824 825 
f 410 60 801 
f 370 801 60 
f 63 638 826 
f 981 626 225 
f 598 243 329 
f 903 827 315 
f 902 150 204 
f 958 795 303 
f 742 528 131 
f 503 94 738 
f 578 738 94 
f 467 828 623 
f 799 623 828 
f 977 463 773 
f 964 829 435 
f 946 435 829 
f 623 799 556 
f 995 573 220 
f 790 830 155 
f 268 155 830 
f 877 474 23 
f 996 769 270 
f 918 831 320 
f 413 320 831 
f 98 418 639 
f 644 639 418 
f 915 754 27 
f 665 327 465 
f 191 465 327 
f 363 832 539 
f 1 539 832 
f 767 483 833 
f 236 833 483 
f 630 835 834 
f 986 834 835 
f 820 408 836 
f 365 836 408 
f 417 174 837 
f 727 540 647 
f 707 838 793 
f 619 840 839 
f 589 839 840 
f 239 842 841 
f 641 841 842 
f 814 843 678 
f 166 845 844 
f 627 844 845 
f 915 756 592 
f 869 847 819 
f 282 848 776 
f 512 849 48 
f 129 48 849 
f 492 677 584 
f 478 739 850 
f 957 761 73 
f 449 73 761 
f 631 425 851 
f 853 851 425 
f 473 852 206 
f 994 576 369 
f 980 637 853 
f 51 853 637 
f 865 763 342 
f 588 342 763 
f 618 466 495 
f 627 854 603 
f 830 486 268 
f 126 613 271 
f 127 744 522 
f 507 387 742 
f 911 798 192 
f 285 424 855 
f 979 855 424 
f 936 743 153 
f 951 176 856 
f 137 856 176 
f 533 148 80 
f 800 80 148 
f 330 566 714 
f 468 858 857 
f 854 857 858 
f 896 45 859 
f 294 714 354 
f 58 722 726 
f 863 93 861 
f 81 601 50 
f 674 835 630 
f 974 862 32 
f 301 32 862 
f 758 863 479 
f 861 479 863 
f 1000 864 586 
f 42 586 864 
f 742 379 507 
f 325 849 512 
f 895 702 718 
f 813 718 702 
f 316 865 748 
f 342 748 865 
f 391 183 717 
f 566 330 416 
f 197 866 797 
f 684 564 372 
f 893 3 867 
f 720 867 3 
f 748 341 167 
f 880 554 781 
f 965 868 816 
f 823 816 868 
f 819 287 869 
f 703 257 870 
f 817 870 257 
f 548 327 665 
f 880 871 554 
f 529 554 871 
f 382 565 666 
f 980 872 637 
f 782 637 872 
f 919 457 190 
f 198 627 603 
f 987 575 873 
f 509 525 272 
f 516 160 92 
f 753 590 223 
f 662 809 287 
f 579 287 809 
f 287 819 662 
f 120 487 874 
f 789 876 875 
f 757 875 876 
f 804 658 778 
f 179 778 658 
f 22 594 367 
f 61 877 23 
f 932 568 878 
f 977 773 879 
f 477 881 350 
f 755 350 881 
f 927 558 218 
f 547 218 558 
f 930 883 882 
f 188 882 883 
f 564 835 674 
f 948 480 258 
f 995 402 442 
f 962 442 402 
f 364 217 884 
f 802 884 217 
f 172 657 885 
f 329 885 657 
f 947 336 880 
f 871 880 336 
f 112 586 42 
f 876 789 550 
f 363 90 886 
f 442 698 573 
f 939 786 142 
f 926 142 786 
f 327 548 887 
f 780 887 548 
f 922 62 40 
f 851 853 51 
f 903 888 499 
f 911 671 759 
f 82 759 671 
f 164 370 338 
f 522 889 127 
f 669 635 890 
f 685 574 200 
f 937 200 574 
f 857 854 628 
f 910 25 719 
f 966 165 797 
f 296 701 216 
f 935 216 701 
f 617 340 820 
f 530 726 887 
f 689 2 285 
f 686 843 814 
f 383 291 739 
f 426 843 686 
f 138 63 894 
f 572 702 895 
f 731 208 810 
f 859 897 896 
f 385 896 897 
f 942 94 585 
f 762 898 79 
f 111 95 899 
f 942 899 95 
f 833 236 161 
f 583 453 228 
f 608 422 838 
f 745 838 422 
f 22 367 609 
f 778 179 458 
f 993 874 345 
f 100 345 874 
f 207 305 721 
f 278 776 672 
f 768 478 400 
f 850 400 478 
f 525 509 901 
f 970 415 190 
f 591 36 783 
f 315 46 903 
f 888 903 46 
f 887 780 530 
f 681 904 231 
f 975 905 569 
f 281 278 672 
f 361 902 906 
f 57 906 902 
f 563 267 680 
f 294 330 714 
f 898 762 110 
f 708 907 216 
f 907 708 524 
f 164 909 459 
f 997 459 909 
f 478 861 739 
f 383 739 861 
f 123 25 910 
f 759 912 911 
f 798 911 912 
f 984 913 416 
f 566 416 913 
f 888 238 500 
f 841 500 238 
f 102 98 639 
f 869 355 914 
f 299 67 448 
f 420 448 67 
f 452 893 867 
f 212 884 802 
f 825 161 847 
f 705 212 802 
f 778 655 804 
f 511 725 704 
f 998 704 725 
f 27 756 915 
f 53 873 916 
f 685 916 873 
f 809 662 575 
f 937 575 662 
f 890 398 917 
f 919 190 414 
f 374 604 341 
f 135 764 130 
f 607 352 918 
f 983 918 352 
f 934 638 63 
f 145 115 76 
f 775 499 729 
f 414 126 919 
f 751 154 562 
f 860 562 154 
f 394 403 536 
f 832 581 35 
f 197 496 866 
f 997 909 304 
f 859 90 307 
f 363 307 90 
f 551 920 504 
f 240 504 920 
f 285 855 689 
f 930 444 546 
f 169 921 643 
f 550 751 562 
f 671 6 82 
f 988 922 265 
f 513 923 506 
f 120 506 923 
f 1000 241 924 
f 331 202 379 
f 5 192 925 
f 703 925 192 
f 643 17 169 
f 990 926 786 
f 935 527 709 
f 408 927 365 
f 217 365 927 
f 896 238 888 
f 434 167 437 
f 7 619 839 
f 660 892 753 
f 555 800 611 
f 631 818 425 
f 727 647 805 
f 414 613 126 
f 324 862 928 
f 974 928 862 
f 460 929 777 
f 372 777 929 
f 841 695 682 
f 366 784 333 
f 893 333 784 
f 894 150 138 
f 762 79 736 
f 925 703 808 
f 870 808 703 
f 444 930 724 
f 882 724 930 
f 757 876 563 
f 705 931 212 
f 871 59 529 
f 449 488 73 
f 338 654 164 
f 632 827 384 
f 546 384 827 
f 978 549 789 
f 939 476 786 
f 953 576 624 
f 694 160 932 
f 706 763 777 
f 33 867 720 
f 868 251 141 
f 848 606 933 
f 339 933 606 
f 921 639 644 
f 578 447 738 
f 696 651 121 
f 275 556 836 
f 279 934 139 
f 631 851 489 
f 232 263 455 
f 206 935 701 
f 224 936 152 
f 886 362 261 
f 1000 143 864 
f 723 864 143 
f 776 278 118 
f 821 938 219 
f 924 939 142 
f 91 362 886 
f 899 41 132 
f 233 64 163 
f 688 940 368 
f 808 870 438 
f 993 941 506 
f 897 670 385 
f 468 596 426 
f 337 59 871 
f 29 98 102 
f 443 377 122 
f 763 706 588 
f 359 588 706 
f 72 598 65 
f 988 366 125 
f 70 9 295 
f 604 374 597 
f 811 597 374 
f 108 667 382 
f 565 382 667 
f 112 899 942 
f 934 63 138 
f 453 629 353 
f 293 812 403 
f 771 943 466 
f 982 157 735 
f 711 653 944 
f 679 944 653 
f 593 791 792 
f 546 827 774 
f 954 185 521 
f 168 434 945 
f 967 649 89 
f 68 915 592 
f 255 435 946 
f 781 947 880 
f 472 734 96 
f 308 670 897 
f 852 821 741 
f 736 949 485 
f 268 485 949 
f 869 288 355 
f 954 232 455 
f 108 901 667 
f 489 322 625 
f 436 625 322 
f 721 502 810 
f 629 453 583 
f 551 503 229 
f 223 609 950 
f 526 950 609 
f 814 440 686 
f 933 540 728 
f 996 787 951 
f 646 951 787 
f 388 952 823 
f 816 823 952 
f 544 237 10 
f 483 767 347 
f 624 436 953 
f 958 953 436 
f 635 814 678 
f 491 758 955 
f 479 955 758 
f 453 353 423 
f 198 844 627 
f 798 912 47 
f 306 207 348 
f 547 664 511 
f 128 849 928 
f 324 928 849 
f 830 803 505 
f 949 183 904 
f 73 891 957 
f 813 957 891 
f 472 953 958 
f 51 323 851 
f 968 699 282 
f 848 282 699 
f 651 953 472 
f 907 524 697 
f 134 176 951 
f 629 794 713 
f 676 713 794 
f 811 374 588 
f 983 831 918 
f 562 876 550 
f 253 62 826 
f 842 283 641 
f 828 618 959 
f 974 32 960 
f 912 759 961 
f 984 209 803 
f 442 962 571 
f 920 551 244 
f 986 667 963 
f 936 522 743 
f 358 396 297 
f 828 805 799 
f 30 364 884 
f 955 306 718 
f 984 413 831 
f 711 229 447 
f 924 356 939 
f 224 654 523 
f 745 607 700 
f 304 684 929 
f 372 929 684 
f 616 724 964 
f 829 964 724 
f 930 546 774 
f 177 134 448 
f 805 828 959 
f 552 480 948 
f 967 89 610 
f 976 965 26 
f 375 26 965 
f 479 768 955 
f 649 967 42 
f 55 42 967 
f 117 158 770 
f 543 770 158 
f 765 378 131 
f 20 879 114 
f 687 114 879 
f 858 493 854 
f 863 737 318 
f 1002 318 737 
f 613 892 659 
f 629 583 794 
f 673 488 691 
f 733 661 237 
f 162 237 661 
f 461 568 932 
f 660 950 969 
f 972 969 950 
f 133 376 900 
f 55 376 133 
f 649 42 864 
f 692 971 276 
f 512 276 971 
f 750 969 542 
f 267 563 860 
f 275 622 556 
f 201 969 972 
f 941 829 187 
f 956 853 424 
f 21 590 840 
f 54 245 106 
f 975 570 39 
f 682 500 841 
f 807 5 925 
f 237 544 733 
f 233 763 865 
f 399 635 678 
f 530 58 726 
f 961 719 912 
f 532 636 44 
f 508 524 537 
f 414 892 613 
f 840 973 19 
f 182 885 351 
f 312 351 885 
f 908 914 157 
f 960 796 974 
f 998 974 796 
f 344 944 843 
f 679 843 944 
f 39 252 975 
f 553 975 252 
f 471 96 101 
f 515 101 96 
f 535 260 561 
f 508 537 174 
f 143 926 723 
f 972 950 526 
f 313 483 347 
f 683 716 666 
f 349 572 895 
f 393 976 43 
f 946 596 254 
f 468 254 596 
f 117 931 31 
f 960 31 931 
f 964 166 616 
f 709 216 935 
f 826 463 977 
f 755 881 592 
f 13 683 152 
f 826 977 253 
f 961 760 910 
f 175 910 760 
f 553 252 7 
f 346 20 114 
f 712 171 755 
f 350 755 171 
f 982 735 485 
f 917 809 575 
f 660 969 750 
f 591 881 36 
f 855 979 940 
f 994 940 979 
f 652 872 980 
f 417 837 981 
f 850 981 837 
f 567 983 353 
f 677 492 195 
f 868 965 393 
f 976 393 965 
f 582 675 149 
f 57 902 204 
f 859 307 897 
f 610 55 967 
f 221 648 34 
f 896 385 238 
f 775 903 499 
f 883 930 774 
f 280 614 77 
f 943 535 561 
f 640 921 169 
f 756 497 712 
f 824 908 445 
f 200 937 71 
f 76 15 948 
f 35 1 832 
f 877 60 410 
f 803 413 984 
f 754 68 985 
f 994 369 940 
f 565 667 986 
f 132 80 898 
f 788 943 561 
f 705 802 510 
f 491 813 891 
f 890 917 987 
f 575 987 917 
f 957 17 643 
f 839 589 269 
f 766 269 589 
f 338 24 654 
f 827 903 775 
f 366 988 784 
f 915 68 754 
f 890 987 107 
f 858 196 493 
f 723 649 864 
f 13 716 683 
f 956 652 980 
f 426 344 843 
f 958 734 472 
f 19 21 840 
f 975 553 905 
f 441 571 349 
f 54 779 245 
f 752 498 989 
f 756 27 497 
f 951 646 406 
f 765 406 646 
f 658 804 989 
f 992 585 504 
f 373 568 462 
f 125 180 490 
f 46 490 180 
f 652 351 872 
f 517 400 837 
f 850 837 400 
f 863 318 93 
f 211 906 707 
f 376 55 610 
f 532 990 636 
f 1002 488 673 
f 104 759 82 
f 1000 992 241 
f 427 941 993 
f 468 857 254 
f 698 475 741 
f 395 740 690 
f 824 445 209 
f 357 954 521 
f 600 783 261 
f 932 159 461 
f 276 461 159 
f 946 941 427 
f 855 940 688 
f 547 510 218 
f 846 685 200 
f 693 815 952 
f 818 994 979 
f 873 574 685 
f 746 549 947 
f 978 947 549 
f 839 194 7 
f 553 7 194 
f 914 847 869 
f 847 914 825 
f 908 825 914 
f 779 713 676 
f 451 56 430 
f 397 430 56 
f 340 918 320 
f 235 90 859 
f 872 311 782 
f 956 424 285 
f 728 380 848 
f 846 88 87 
f 972 526 215 
f 834 986 963 
f 894 62 922 
f 269 194 839 
f 666 564 684 
f 291 525 901 
f 99 117 715 
f 770 715 117 
f 913 831 983 
f 409 751 550 
f 848 933 728 
f 679 249 399 
f 573 995 442 
f 956 980 853 
f 769 996 856 
f 951 856 996 
f 119 707 968 
f 793 968 707 
f 271 744 126 
f 852 938 821 
f 705 796 960 
f 651 696 369 
f 983 567 913 
f 521 875 757 
f 578 94 579 
f 11 298 429 
f 693 952 389 
f 536 943 771 
f 512 48 462 
f 803 830 790 
f 626 981 850 
f 653 249 679 
f 1000 924 143 
f 931 705 960 
f 687 259 114 
f 533 900 37 
f 559 780 548 
f 931 117 99 
f 84 998 725 
f 818 577 994 
f 772 538 740 
f 873 53 987 
f 782 945 637 
f 894 922 991 
f 988 991 922 
f 995 535 402 
f 170 690 103 
f 620 977 879 
f 189 458 334 
f 476 939 302 
f 733 937 661 
f 325 158 730 
f 107 669 890 
f 966 616 165 
f 655 642 523 
f 889 523 642 
f 997 929 460 
f 990 650 926 
f 883 775 729 
f 985 33 754 
f 325 543 158 
f 144 989 710 
f 615 959 78 
f 504 240 992 
f 790 413 803 
f 111 899 132 
f 612 750 996 
f 787 996 750 
f 147 243 598 
f 283 688 368 
f 1001 711 944 
f 668 411 517 
f 400 517 411 
f 936 224 523 
f 288 95 110 
f 820 836 557 
f 521 757 357 
f 289 966 12 
f 84 928 998 
f 974 998 928 
f 993 345 427 
f 268 949 904 
f 394 772 740 
f 416 209 984 
f 491 955 718 
f 823 834 963 
f 409 549 746 
f 677 195 999 
f 972 215 201 
f 418 715 450 
f 729 500 682 
f 390 494 785 
f 255 845 435 
f 947 978 336 
f 580 336 978 
f 481 962 812 
f 910 719 961 
f 593 335 791 
f 109 291 901 
f 938 300 346 
f 815 693 878 
f 579 226 578 
f 512 971 325 
f 543 325 971 
f 279 638 934 
f 345 605 1001 
f 475 441 732 
f 349 732 441 
f 536 772 394 
f 894 991 150 
f 301 862 730 
f 76 948 258 
f 132 898 111 
f 364 30 274 
f 806 959 615 
f 269 766 970 
f 695 121 923 
f 628 845 255 
f 984 831 913 
f 210 767 833 
f 260 535 995 
f 993 506 120 
f 304 929 997 
f 491 718 813 
f 303 266 476 
f 514 695 923 
f 631 577 818 
f 375 719 26 
f 428 595 906 
f 815 878 375 
f 47 129 798 
f 868 141 822 
f 986 835 565 
f 848 699 606 
f 120 874 993 
f 769 856 137 
f 409 746 927 
f 558 927 746 
f 888 46 896 
f 852 300 938 
f 946 829 941 
f 985 867 33 
f 893 452 333 
f 388 963 509 
f 363 886 581 
f 670 842 239 
f 344 1001 944 
f 1000 586 992 
f 977 620 8 
f 729 682 250 
f 630 834 822 
f 516 1002 673 
f 16 470 905 
f 761 957 643 
f 132 533 80 
f 781 602 947 
f 694 389 645 
f 867 985 69 
f 515 920 244 
f 515 244 101 
f 270 612 996 
f 447 653 711 
f 194 480 552 
f 971 692 543 
f 812 292 481 
f 766 590 753 
f 436 795 958 
f 797 407 197 
f 878 694 932 
f 832 363 581 
f 474 877 657 
f 597 990 786 
f 751 412 154 
f 823 963 388 
f 375 965 815 
f 840 619 973 
f 260 995 220 
f 422 608 247 
f 125 991 988 
