#  wavefront obj file written by the visualization toolkit

mtllib livertumor.mtl

v 76.41470336914062 183.61300659179688 38.002498626708984
v 75.80789947509766 185.03599548339844 36.69139862060547
v 104.45899963378906 186.72900390625 88.302001953125
v 103.32099914550781 186.05999755859375 88.75029754638672
v 107.51100158691406 168.31700134277344 82.58429718017578
v 106.5719985961914 168.0229949951172 83.82820129394531
v 103.26399993896484 186.22799682617188 90.92479705810547
v 91.76490020751953 210.96299743652344 86.00740051269531
v 90.18180084228516 212.41700744628906 85.07050323486328
v 96.7874984741211 214.29400634765625 50.70709991455078
v 93.75189971923828 212.04200744628906 48.47600173950195
v 98.14759826660156 213.04600524902344 81.5197982788086
v 95.55870056152344 211.79400634765625 84.39579772949219
v 74.53040313720703 185.63400268554688 36.51350021362305
v 74.6572036743164 184.31199645996094 37.502899169921875
v 77.13059997558594 185.03700256347656 37.21390151977539
v 75.54109954833984 186.23800659179688 36.11090087890625
v 76.53260040283203 185.968994140625 36.342498779296875
v 96.1958999633789 177.74099731445312 79.03620147705078
v 97.4813003540039 179.4080047607422 84.39800262451172
v 77.83589935302734 201.03599548339844 37.0635986328125
v 79.27079772949219 198.82000732421875 37.83430099487305
v 96.31050109863281 173.0989990234375 85.74140167236328
v 95.18890380859375 173.2899932861328 85.902099609375
v 101.51599884033203 189.96800231933594 90.82160186767578
v 98.86920166015625 192.65199279785156 90.9364013671875
v 75.4708023071289 208.54400634765625 84.04319763183594
v 77.3479995727539 210.07899475097656 82.77179718017578
v 103.86799621582031 187.2239990234375 85.49500274658203
v 87.1156005859375 175.4980010986328 64.0635986328125
v 85.73709869384766 173.24000549316406 63.88010025024414
v 73.34459686279297 186.7100067138672 36.477500915527344
v 73.28119659423828 185.16299438476562 37.55580139160156
v 74.66020202636719 186.91200256347656 36.096900939941406
v 89.00830078125 220.7469940185547 52.2843017578125
v 91.01309967041016 221.1580047607422 53.0906982421875
v 79.98889923095703 172.5449981689453 54.836299896240234
v 78.3635025024414 173.22300720214844 53.670799255371094
v 81.35160064697266 177.61900329589844 44.8489990234375
v 79.58489990234375 177.4239959716797 43.30160140991211
v 105.927001953125 189.49899291992188 70.4175033569336
v 106.91100311279297 190.3780059814453 73.57389831542969
v 84.1781997680664 169.83599853515625 70.81770324707031
v 82.96379852294922 171.10800170898438 74.66539764404297
v 74.86669921875 216.81500244140625 65.81400299072266
v 79.72940063476562 217.87899780273438 67.36540222167969
v 99.01570129394531 165.20899963378906 74.96959686279297
v 98.96430206298828 165.1490020751953 73.40039825439453
v 107.33300018310547 189.5679931640625 88.34770202636719
v 107.94100189208984 190.4340057373047 89.20610046386719
v 113.37100219726562 199.42100524902344 66.5333023071289
v 113.1780014038086 197.99400329589844 68.38890075683594
v 97.8572998046875 170.85800170898438 78.08580017089844
v 99.54499816894531 171.2270050048828 79.98390197753906
v 66.97949981689453 200.51300048828125 42.457401275634766
v 66.06639862060547 195.49000549316406 43.747398376464844
v 101.9280014038086 213.38699340820312 62.03099822998047
v 103.68099975585938 210.98800659179688 60.05459976196289
v 86.59549713134766 219.97999572753906 51.894798278808594
v 83.83460235595703 176.78199768066406 49.679298400878906
v 81.93830108642578 176.6009979248047 47.47010040283203
v 99.0697021484375 213.92999267578125 52.63610076904297
v 107.68399810791016 199.08299255371094 84.90660095214844
v 108.38700103759766 202.36900329589844 83.78240203857422
v 88.40570068359375 177.60400390625 63.16579818725586
v 88.87999725341797 176.3489990234375 66.83159637451172
v 110.96399688720703 199.48800659179688 63.56079864501953
v 112.55400085449219 200.2259979248047 64.4666976928711
v 87.77870178222656 221.63099670410156 54.377498626708984
v 72.20819854736328 187.51800537109375 36.69660186767578
v 73.1697998046875 188.55299377441406 36.14080047607422
v 74.3405990600586 187.9759979248047 36.05149841308594
v 82.05269622802734 170.93800354003906 71.48989868164062
v 81.44439697265625 172.95899963378906 75.80960083007812
v 75.2031021118164 201.968994140625 85.96520233154297
v 72.87359619140625 202.7310028076172 85.7926025390625
v 107.44999694824219 202.6219940185547 60.88990020751953
v 104.83000183105469 200.06500244140625 61.009300231933594
v 79.28079986572266 180.29100036621094 81.55460357666016
v 78.908203125 184.5959930419922 84.00849914550781
v 96.39340209960938 171.86599731445312 85.7842025756836
v 65.46399688720703 208.9250030517578 56.14699935913086
v 66.75569915771484 212.69500732421875 59.52949905395508
v 75.63050079345703 187.28799438476562 36.00979995727539
v 76.50589752197266 187.11000061035156 36.10110092163086
v 100.9530029296875 214.76400756835938 58.4192008972168
v 90.60780334472656 193.38400268554688 92.92790222167969
v 93.15280151367188 195.1020050048828 92.26840209960938
v 85.34880065917969 176.33999633789062 52.7672004699707
v 103.46600341796875 192.1230010986328 89.41210174560547
v 105.10600280761719 193.28700256347656 87.47720336914062
v 93.61949920654297 189.3419952392578 95.31849670410156
v 91.77940368652344 186.39700317382812 95.34269714355469
v 113.06600189208984 200.48300170898438 68.94200134277344
v 112.1729965209961 199.18499755859375 71.5740966796875
v 90.29530334472656 185.08200073242188 95.32279968261719
v 88.92060089111328 183.97300720214844 94.4271011352539
v 103.10700225830078 190.38600158691406 91.44190216064453
v 70.82569885253906 188.17599487304688 37.95869827270508
v 105.18199920654297 197.46800231933594 86.65190124511719
v 71.20890045166016 181.0570068359375 73.16390228271484
v 69.60489654541016 185.43499755859375 75.15609741210938
v 71.66490173339844 189.02699279785156 36.69129943847656
v 76.54840087890625 210.7790069580078 80.34290313720703
v 77.69539642333984 211.78599548339844 80.33550262451172
v 83.20860290527344 175.6199951171875 81.32640075683594
v 81.67620086669922 180.781005859375 84.32949829101562
v 71.98729705810547 199.4709930419922 83.30899810791016
v 74.5072021484375 198.06900024414062 84.92949676513672
v 71.94819641113281 201.81300354003906 84.83509826660156
v 71.46209716796875 202.73699951171875 83.27159881591797
v 86.23280334472656 187.03700256347656 94.33709716796875
v 85.68699645996094 186.67599487304688 91.98079681396484
v 74.96510314941406 181.36399841308594 78.331298828125
v 73.79530334472656 184.9720001220703 80.10330200195312
v 84.40889739990234 174.26600646972656 54.74039840698242
v 82.24169921875 173.00999450683594 54.956199645996094
v 110.06999969482422 199.2259979248047 82.16439819335938
v 108.74500274658203 196.14199829101562 83.00849914550781
v 75.45480346679688 188.07699584960938 36.00419998168945
v 76.43309783935547 188.13999938964844 36.02389907836914
v 77.75569915771484 186.50799560546875 36.95539855957031
v 77.58689880371094 188.08599853515625 36.36399841308594
v 70.36239624023438 186.72999572753906 39.828399658203125
v 78.86759948730469 190.9929962158203 86.50389862060547
v 78.73100280761719 193.51699829101562 86.37799835205078
v 87.12870025634766 201.68800354003906 44.648101806640625
v 90.17549896240234 201.53799438476562 48.17070007324219
v 106.9729995727539 169.968994140625 80.15399932861328
v 106.99099731445312 168.45399475097656 80.05059814453125
v 75.50890350341797 181.5780029296875 39.40449905395508
v 74.47979736328125 182.96499633789062 38.65650177001953
v 78.61399841308594 187.7969970703125 37.222801208496094
v 67.35700225830078 189.05299377441406 44.33689880371094
v 65.6406021118164 192.0399932861328 48.02619934082031
v 98.85359954833984 207.51699829101562 53.86750030517578
v 102.1760025024414 209.05599975585938 57.03030014038086
v 68.83039855957031 214.94900512695312 61.70330047607422
v 70.84870147705078 180.9770050048828 52.56100082397461
v 69.9761962890625 183.72000122070312 48.14820098876953
v 109.3219985961914 194.29400634765625 65.26300048828125
v 110.87100219726562 192.91299438476562 66.5542984008789
v 97.76940155029297 170.02699279785156 85.61399841308594
v 74.91670227050781 178.8470001220703 75.72429656982422
v 72.4489974975586 183.36000061035156 77.814697265625
v 96.92579650878906 165.39199829101562 76.33609771728516
v 97.59259796142578 164.68099975585938 77.79440307617188
v 98.5967025756836 164.0760040283203 79.09750366210938
v 67.07029724121094 211.98300170898438 53.79010009765625
v 69.24150085449219 214.2259979248047 52.213199615478516
v 76.04620361328125 215.55499267578125 76.80599975585938
v 77.27580261230469 217.0229949951172 75.11990356445312
v 99.28179931640625 205.822998046875 87.97709655761719
v 95.17369842529297 206.36199951171875 87.93119812011719
v 92.6697006225586 167.0749969482422 71.33699798583984
v 92.51820373535156 165.427001953125 72.06529998779297
v 78.64119720458984 178.28599548339844 41.24720001220703
v 80.73509979248047 178.75900268554688 42.557701110839844
v 75.53040313720703 189.06900024414062 36.0015983581543
v 76.34639739990234 188.9340057373047 36.00379943847656
v 77.26409912109375 188.9969940185547 36.17060089111328
v 105.66500091552734 202.218994140625 85.23979949951172
v 105.10700225830078 168.47000122070312 78.11219787597656
v 106.18699645996094 168.7729949951172 78.8948974609375
v 94.14230346679688 178.156005859375 73.11090087890625
v 94.00599670410156 175.59800720214844 75.60649871826172
v 99.93049621582031 169.61700439453125 77.74109649658203
v 79.32109832763672 193.7480010986328 37.65679931640625
v 81.39440155029297 193.97500610351562 39.74169921875
v 104.72799682617188 187.31700134277344 91.76100158691406
v 93.90180206298828 199.4770050048828 53.74140167236328
v 92.61209869384766 195.20399475097656 55.13990020751953
v 71.31430053710938 190.6439971923828 36.59389877319336
v 72.65270233154297 190.6199951171875 36.098899841308594
v 68.0896987915039 209.10800170898438 47.233001708984375
v 70.24199676513672 212.31300354003906 48.80339813232422
v 92.30770111083984 212.552001953125 84.6489028930664
v 91.7302017211914 214.45700073242188 81.66320037841797
v 99.70680236816406 165.06199645996094 81.17990112304688
v 97.93389892578125 165.6479949951172 74.8595962524414
v 105.9260025024414 186.93299865722656 89.64129638671875
v 105.22100067138672 186.72799682617188 90.95130157470703
v 74.51390075683594 189.14199829101562 36.006500244140625
v 109.61900329589844 203.1020050048828 61.774200439453125
v 111.50199890136719 201.8350067138672 63.02579879760742
v 71.82129669189453 195.61900329589844 81.90730285644531
v 68.15969848632812 196.43499755859375 77.72859954833984
v 74.17330169677734 190.406005859375 36.007598876953125
v 75.54129791259766 190.30499267578125 36.00080108642578
v 76.92070007324219 190.01800537109375 36.14720153808594
v 72.98899841308594 180.36900329589844 45.7411994934082
v 80.38240051269531 173.29600524902344 52.615501403808594
v 91.46620178222656 188.60699462890625 96
v 92.05380249023438 190.9080047607422 95.12149810791016
v 73.09140014648438 201.96600341796875 36.23310089111328
v 75.51090240478516 201.3520050048828 36.16569900512695
v 101.12899780273438 187.2830047607422 91.30860137939453
v 97.8197021484375 172.41299438476562 80.68810272216797
v 99.20010375976562 172.1280059814453 82.95339965820312
v 77.67250061035156 176.73800659179688 47.66709899902344
v 77.98870086669922 177.1649932861328 44.61940002441406
v 85.37149810791016 183.5959930419922 95.53089904785156
v 85.3239974975586 184.71600341796875 95.5873031616211
v 94.71240234375 174.98800659179688 85.83390045166016
v 106.71800231933594 170.72000122070312 81.50289916992188
v 106.97799682617188 170.59800720214844 83.05670166015625
v 105.55699920654297 189.64999389648438 85.63259887695312
v 83.16210174560547 218.72000122070312 62.33580017089844
v 81.53489685058594 219.6909942626953 57.12160110473633
v 106.46900177001953 191.06300354003906 86.62850189208984
v 88.05770111083984 168.95399475097656 69.5687026977539
v 87.17289733886719 168.58799743652344 70.95349884033203
v 104.46600341796875 186.197998046875 90.04180145263672
v 74.15560150146484 213.31500244140625 47.98849868774414
v 75.05970001220703 216.30499267578125 50.448699951171875
v 65.05400085449219 197.89599609375 46.670501708984375
v 106.38500213623047 192.5850067138672 87.24569702148438
v 106.62699890136719 192.35899353027344 88.92130279541016
v 102.39199829101562 197.6959991455078 87.8583984375
v 99.34760284423828 196.1479949951172 89.91609954833984
v 108.74700164794922 200.10000610351562 62.20589828491211
v 87.63130187988281 170.76300048828125 67.918701171875
v 90.04869842529297 170.17100524902344 69.7654037475586
v 95.83719635009766 205.05299377441406 51.67300033569336
v 96.87650299072266 202.85000610351562 54.629798889160156
v 105.38800048828125 166.3800048828125 79.7343978881836
v 104.20600128173828 165.6750030517578 80.69860076904297
v 102.39900207519531 167.09800720214844 77.47319793701172
v 103.49199676513672 166.302001953125 78.22129821777344
v 106.14399719238281 192.51199340820312 65.21430206298828
v 107.6050033569336 191.8769989013672 66.3135986328125
v 79.42680358886719 172.26499938964844 71.09429931640625
v 78.34400177001953 170.81500244140625 67.34980010986328
v 100.34300231933594 166.6719970703125 83.68399810791016
v 78.96379852294922 171.2259979248047 64.26809692382812
v 78.91069793701172 170.5570068359375 66.22889709472656
v 79.77140045166016 169.9040069580078 68.99829864501953
v 83.0186996459961 186.28599548339844 43.7781982421875
v 84.27400207519531 183.5959930419922 46.47639846801758
v 78.18199920654297 210.9810028076172 81.98519897460938
v 79.00420379638672 210.60000610351562 84.56430053710938
v 101.20600128173828 168.75 77.4030990600586
v 102.74299621582031 169.42999267578125 78.77999877929688
v 76.11160278320312 177.76400756835938 45.64179992675781
v 74.16310119628906 178.2790069580078 48.67610168457031
v 107.9749984741211 206.82699584960938 61.18170166015625
v 108.73999786376953 205.4040069580078 61.31380081176758
v 85.96019744873047 179.64999389648438 51.37179946899414
v 87.93920135498047 182.781005859375 54.731300354003906
v 105.4209976196289 192.781005859375 88.77780151367188
v 91.34200286865234 165.70399475097656 72.53099822998047
v 91.42169952392578 166.61599731445312 70.4468002319336
v 72.79440307617188 217.03599548339844 52.5364990234375
v 84.21790313720703 169.04200744628906 67.08799743652344
v 86.01170349121094 168.6929931640625 68.75060272216797
v 99.50379943847656 208.27499389648438 87.64230346679688
v 97.45110321044922 208.59800720214844 87.1260986328125
v 70.59929656982422 191.7760009765625 37.1598014831543
v 101.4530029296875 165.6280059814453 82.32009887695312
v 102.13200378417969 166.76199340820312 83.99819946289062
v 81.87989807128906 190.41700744628906 89.15679931640625
v 71.40679931640625 191.76400756835938 36.37779998779297
v 72.02239990234375 191.58700561523438 36.11920166015625
v 95.22109985351562 219.46400451660156 55.22359848022461
v 96.94400024414062 217.96800231933594 55.49169921875
v 90.89420318603516 182.6999969482422 63.69810104370117
v 95.91500091552734 193.8090057373047 59.12929916381836
v 91.90760040283203 190.16299438476562 57.667999267578125
v 84.34639739990234 210.51100158691406 87.4718017578125
v 82.08260345458984 209.40199279785156 87.9259033203125
v 92.81279754638672 170.3520050048828 83.46800231933594
v 92.57099914550781 172.9709930419922 84.92040252685547
v 74.25679779052734 193.30599975585938 36.00189971923828
v 74.17500305175781 192.02200317382812 36.002899169921875
v 104.37799835205078 188.38400268554688 92
v 102.70600128173828 188.66400146484375 91.91619873046875
v 103.70700073242188 190.33399963378906 65.9977035522461
v 87.63459777832031 185.03599548339844 95.94969940185547
v 86.41590118408203 184.60499572753906 95.92379760742188
v 77.60549926757812 205.89300537109375 85.9614028930664
v 75.660400390625 207.54100036621094 85.658203125
v 75.60710144042969 191.82200622558594 36.00870132446289
v 67.65440368652344 206.8470001220703 45.19029998779297
v 82.716796875 179.43800354003906 44.82830047607422
v 73.04759979248047 208.19400024414062 80.39790344238281
v 73.12310028076172 210.26600646972656 78.80349731445312
v 74.49909973144531 208.0919952392578 38.12310028076172
v 75.98149871826172 208.81399536132812 39.511600494384766
v 78.63929748535156 189.46299743652344 37.02840042114258
v 99.79769897460938 196.54400634765625 60.54650115966797
v 99.59030151367188 190.97999572753906 63.7234992980957
v 65.77729797363281 208.57699584960938 51.77349853515625
v 97.80879974365234 217.3040008544922 57.96969985961914
v 99.90129852294922 215.18299865722656 59.9390983581543
v 84.9708023071289 169.8520050048828 74.38760375976562
v 84.85559844970703 170.69900512695312 78.37259674072266
v 80.10679626464844 212.1490020751953 81.06900024414062
v 83.168701171875 212.54100036621094 82.83899688720703
v 65.90059661865234 203.03799438476562 45.39390182495117
v 112.7959976196289 195.83399963378906 70.5541000366211
v 86.07599639892578 189.09300231933594 91.70860290527344
v 83.79450225830078 190.22799682617188 90.11430358886719
v 72.99359893798828 183.71499633789062 39.11520004272461
v 71.18710327148438 184.30299377441406 41.103599548339844
v 71.37059783935547 193.01199340820312 36.42639923095703
v 72.0718994140625 192.56500244140625 36.10430145263672
v 103.33300018310547 165.5989990234375 79.2970962524414
v 72.95469665527344 192.36199951171875 36.01390075683594
v 93.4634017944336 217.70199584960938 61.71440124511719
v 96.44170379638672 216.34100341796875 63.08689880371094
v 70.04299926757812 198.55499267578125 80.24610137939453
v 84.654296875 183.82200622558594 95.03170013427734
v 93.48159790039062 202.08599853515625 51.24209976196289
v 71.64739990234375 204.30999755859375 83.10859680175781
v 72.73370361328125 206.4669952392578 82.47530364990234
v 74.38960266113281 174.7100067138672 68.55660247802734
v 75.2688980102539 173.01300048828125 65.09410095214844
v 83.00189971923828 172.06100463867188 62.943599700927734
v 109.77200317382812 207.9530029296875 66.07260131835938
v 109.67400360107422 207.24099731445312 62.941898345947266
v 93.66470336914062 208.53500366210938 48.542701721191406
v 97.54750061035156 211.17799377441406 51.27920150756836
v 110.29499816894531 206.18499755859375 70.20610046386719
v 72.0270004272461 213.1490020751953 71.78289794921875
v 68.25140380859375 212.1999969482422 68.38469696044922
v 105.4739990234375 190.0240020751953 67.32029724121094
v 76.64450073242188 191.39599609375 36.07460021972656
v 77.04460144042969 193.13900756835938 36.28609848022461
v 94.17340087890625 170.3560028076172 75.4905014038086
v 95.74189758300781 169.28399658203125 75.4301986694336
v 86.29409790039062 204.8979949951172 43.3202018737793
v 84.36969757080078 202.1699981689453 41.83760070800781
v 81.21279907226562 210.76699829101562 86.15799713134766
v 71.69850158691406 182.6060028076172 43.40769958496094
v 69.12100219726562 186.32899475097656 43.77429962158203
v 78.31729888916016 191.60699462890625 36.80569839477539
v 78.30780029296875 209.06500244140625 40.50830078125
v 79.99970245361328 207.93800354003906 39.48419952392578
v 65.92530059814453 208.39700317382812 68.78980255126953
v 65.9229965209961 210.80999755859375 64.74130249023438
v 71.83550262451172 196.32400512695312 36.333499908447266
v 71.08499908447266 194.697998046875 36.7244987487793
v 86.71549987792969 210.56700134277344 44.260799407958984
v 88.00289916992188 208.18800354003906 44.51679992675781
v 85.243896484375 168.92300415039062 70.79850006103516
v 83.23930358886719 168.55299377441406 68.52279663085938
v 87.13400268554688 168.4980010986328 73.61190032958984
v 99.87249755859375 166.80799865722656 74.82350158691406
v 100.03199768066406 165.76800537109375 76.33760070800781
v 72.17579650878906 193.44400024414062 36.07569885253906
v 73.0011978149414 193.3800048828125 36.01100158691406
v 88.27860260009766 210.7449951171875 86.26730346679688
v 86.0062026977539 211.01400756835938 86.84559631347656
v 107.94499969482422 205.2469940185547 83.27660369873047
v 109.72699737548828 202.91200256347656 82.4011001586914
v 90.5718002319336 207.9929962158203 87.13379669189453
v 106.96900177001953 204.60899353027344 60.17250061035156
v 92.71389770507812 221.01600646972656 54.0452995300293
v 94.17949676513672 219.98800659179688 53.87120056152344
v 96.2615966796875 164.76600646972656 72.8395004272461
v 97.0114974975586 164.8070068359375 74.47039794921875
v 70.39900207519531 208.28599548339844 77.88469696044922
v 70.80580139160156 210.7760009765625 76.34480285644531
v 96.40979766845703 188.5709991455078 93.1614990234375
v 95.1438980102539 189.91400146484375 94.62640380859375
v 67.3364028930664 194.33799743652344 41.27830123901367
v 84.7771987915039 183.04600524902344 94.35559844970703
v 107.76300048828125 170.09800720214844 81.5625
v 81.20680236816406 202.2530059814453 86.12349700927734
v 77.43099975585938 200.072998046875 86
v 100.51000213623047 187.5449981689453 67.15730285644531
v 98.83899688720703 185.24200439453125 69.67539978027344
v 85.3843994140625 198.89199829101562 43.49549865722656
v 83.8917007446289 196.90699768066406 42.1797981262207
v 82.30989837646484 171.96800231933594 77.72149658203125
v 95.61419677734375 164.41400146484375 73.44039916992188
v 93.98709869384766 164.8419952392578 73.21520233154297
v 104.4749984741211 191.7550048828125 90.57640075683594
v 72.04769897460938 194.24899291992188 36.132198333740234
v 73.0011978149414 194.2530059814453 36.01100158691406
v 74.25679779052734 194.2760009765625 36.00189971923828
v 107.08499908447266 190.21299743652344 91.63829803466797
v 105.9020004272461 191.05299377441406 91.54640197753906
v 106.70999908447266 187.79100036621094 90.83159637451172
v 106.43299865722656 188.6009979248047 91.92150115966797
v 79.86419677734375 176.71800231933594 46.1245002746582
v 75.49259948730469 193.0229949951172 36.01259994506836
v 101.44300079345703 213.24000549316406 80.27069854736328
v 103.78199768066406 210.90199279785156 81.77529907226562
v 75.84010314941406 194.35400390625 36.07350158691406
v 73.65019989013672 210.22999572753906 43.86830139160156
v 78.0457992553711 212.4949951171875 46.085201263427734
v 111.48400115966797 197.4499969482422 74.02030181884766
v 86.91210174560547 178.7169952392578 54.1171989440918
v 66.32129669189453 184.0050048828125 64.55729675292969
v 66.33260345458984 186.3489990234375 59.93920135498047
v 111.43599700927734 205.81399536132812 65.07430267333984
v 111.94599914550781 204.48899841308594 68.168701171875
v 86.24939727783203 208.57200622558594 87.17559814453125
v 87.80770111083984 188.33999633789062 94.74230194091797
v 64.7885971069336 204.9320068359375 52.87329864501953
v 71.35050201416016 199.73599243164062 36.950401306152344
v 70.52300262451172 201.88099670410156 37.661800384521484
v 71.87310028076172 203.19900512695312 84.65709686279297
v 72.69120025634766 205.218994140625 84.87039947509766
v 86.20790100097656 188.91299438476562 49.18170166015625
v 84.23919677734375 189.4250030517578 45.4370002746582
v 88.4740982055664 187.9969940185547 53.70640182495117
v 67.55380249023438 191.37399291992188 73.185302734375
v 66.89620208740234 196.37899780273438 74.90480041503906
v 88.50170135498047 167.8260040283203 71.73799896240234
v 72.09719848632812 195.23500061035156 36.12900161743164
v 72.95269775390625 195.12600708007812 36.01100158691406
v 74.11199951171875 195.12600708007812 36
v 105.87999725341797 189.5229949951172 91.98729705810547
v 73.05419921875 212.28599548339844 77.17019653320312
v 89.79029846191406 171.26800537109375 82.56729888916016
v 86.62120056152344 173.10000610351562 81.71499633789062
v 89.63510131835938 187.41600036621094 95.9894027709961
v 75.28209686279297 195.1540069580078 36.0088005065918
v 77.64759826660156 171.10299682617188 65.47810363769531
v 98.83070373535156 165.1219940185547 76.61370086669922
v 98.10240173339844 165.41799926757812 76.13410186767578
v 64.74140167236328 195.4770050048828 53.4286003112793
v 64.40799713134766 200.35800170898438 55.42620086669922
v 94.61000061035156 173.28900146484375 77.3750991821289
v 95.97360229492188 171.41000366210938 77.97599792480469
v 91.27839660644531 221.64700317382812 55.56050109863281
v 91.55799865722656 220.07000732421875 58.674198150634766
v 67.50450134277344 203.74200439453125 75.61239624023438
v 68.55599975585938 206.10000610351562 76.91110229492188
v 73.06159973144531 200.3560028076172 84.96379852294922
v 70.29940032958984 197.13699340820312 37.62049865722656
v 72.252197265625 197.88499450683594 36.357601165771484
v 92.0166015625 218.7760009765625 69.40540313720703
v 94.34369659423828 218.28500366210938 72.82540130615234
v 91.47589874267578 204.05499267578125 87.9894027709961
v 87.26239776611328 204.31300354003906 87.0022964477539
v 101.75599670410156 213.18800354003906 57.3224983215332
v 100.69499969482422 209.29100036621094 86.00990295410156
v 102.86100006103516 207.3820037841797 85.3905029296875
v 98.86009979248047 215.01800537109375 66.20439910888672
v 110.70800018310547 195.1300048828125 65.40399932861328
v 75.82109832763672 198.14500427246094 36.15409851074219
v 77.4126968383789 198.67300415039062 36.828399658203125
v 72.86289978027344 196.0500030517578 36.027400970458984
v 73.91799926757812 195.99899291992188 36
v 66.76119995117188 200.30099487304688 75.18470001220703
v 98.81909942626953 200.7689971923828 58.075199127197266
v 72.93240356445312 191.0800018310547 81.71299743652344
v 69.93669891357422 191.8179931640625 79.35749816894531
v 66.85700225830078 186.85800170898438 69.385498046875
v 65.88379669189453 189.16200256347656 64.82099914550781
v 75.17420196533203 195.99899291992188 36.01100158691406
v 76.40760040283203 195.78500366210938 36.225799560546875
v 83.1552963256836 174.28500366210938 52.3119010925293
v 87.95320129394531 193.5050048828125 91.22689819335938
v 87.6530990600586 178.53399658203125 57.432498931884766
v 85.15380096435547 184.07400512695312 93.30909729003906
v 103.42400360107422 168.65199279785156 77.90899658203125
v 104.06900024414062 167.36000061035156 77.99349975585938
v 112.38200378417969 198.26699829101562 65.10759735107422
v 107.49500274658203 168.8070068359375 83.48989868164062
v 107.38800048828125 169.6750030517578 83.66329956054688
v 69.49919891357422 203.54800415039062 79.6041030883789
v 67.88510131835938 201.16700744628906 77.27670288085938
v 72.90070343017578 196.9669952392578 36.04460144042969
v 73.82099914550781 196.8719940185547 36
v 74.96810150146484 196.9320068359375 36.01100158691406
v 97.06420135498047 216.63800048828125 60.83300018310547
v 105.06199645996094 171.0959930419922 82.80439758300781
v 105.38899993896484 170.73300170898438 80.63150024414062
v 76.35980224609375 172.5959930419922 67.5708999633789
v 76.36070251464844 197.00799560546875 36.28010177612305
v 77.75389862060547 195.13999938964844 36.759498596191406
v 77.95349884033203 196.89500427246094 37.04349899291992
v 72.03630065917969 187.72000122070312 80.03720092773438
v 104.2239990234375 213.31700134277344 77.7842025756836
v 105.12200164794922 212.2010040283203 74.73909759521484
v 98.68830108642578 216.77699279785156 55.46879959106445
v 97.92369842529297 216.17300415039062 52.97370147705078
v 106.10800170898438 192.04400634765625 90.26679992675781
v 102.62300109863281 186.96600341796875 91.73629760742188
v 112.8270034790039 202.2790069580078 66.01470184326172
v 73.55879974365234 217.781005859375 56.80870056152344
v 77.14630126953125 218.58599853515625 53.445098876953125
v 101.53700256347656 167.9029998779297 85.15809631347656
v 99.50039672851562 167.9600067138672 84.50350189208984
v 81.114501953125 218.04200744628906 75.65609741210938
v 83.19960021972656 218.84800720214844 73.78610229492188
v 90.09590148925781 186.36500549316406 57.67060089111328
v 69.60710144042969 210.90699768066406 72.05819702148438
v 73.7155990600586 197.83399963378906 36.01559829711914
v 74.62809753417969 197.7010040283203 36.00659942626953
v 105.57099914550781 170.92999267578125 84.40019989013672
v 68.53240203857422 207.43899536132812 74.86329650878906
v 68.45369720458984 208.89700317382812 72.69750213623047
v 106.5479965209961 169.13600158691406 84.65679931640625
v 80.42680358886719 170.968994140625 64.66010284423828
v 84.88300323486328 212.1699981689453 85.18289947509766
v 85.57520294189453 194.6179962158203 45.81290054321289
v 83.14720153808594 193.8769989013672 42.322200775146484
v 90.30130004882812 167.58299255371094 79.3302001953125
v 87.4738998413086 168.7449951171875 77.49520111083984
v 102.2239990234375 165.0679931640625 80.69280242919922
v 101.31999969482422 164.8179931640625 80.34860229492188
v 70.65760040283203 216.5709991455078 58.0968017578125
v 68.71040344238281 202.74000549316406 40.255401611328125
v 73.8572006225586 207.63900756835938 83.1719970703125
v 103.79000091552734 187.33200073242188 72.45950317382812
v 102.44000244140625 185.82899475097656 76.35209655761719
v 90.10330200195312 197.822998046875 90.18699645996094
v 86.31439971923828 183.9600067138672 50.79290008544922
v 80.02619934082031 210.81500244140625 43.300899505615234
v 82.38349914550781 213.86000061035156 46.52790069580078
v 73.8313980102539 199.42799377441406 36.121700286865234
v 74.80879974365234 198.54299926757812 36.02669906616211
v 95.32959747314453 165.97000122070312 72.24140167236328
v 67.46080017089844 210.5030059814453 49.968101501464844
v 106.64099884033203 210.6510009765625 79.59609985351562
v 107.51599884033203 209.58299255371094 74.71549987792969
v 96.06800079345703 170.63900756835938 85.04630279541016
v 97.95819854736328 172.3070068359375 85.06919860839844
v 95.68920135498047 175.31199645996094 79.62480163574219
v 96.07730102539062 176.74000549316406 84.23719787597656
v 95.27210235595703 165.00999450683594 77.46859741210938
v 91.74440002441406 168.77699279785156 70.7843017578125
v 70.58679962158203 209.82899475097656 45.823699951171875
v 86.9646987915039 187.21800231933594 95.71820068359375
v 108.54000091552734 195.031005859375 80.60330200195312
v 108.61799621582031 193.05499267578125 76.47429656982422
v 83.02330017089844 211.45799255371094 85.95890045166016
v 95.6760025024414 217.2689971923828 67.70210266113281
v 70.86419677734375 216.44900512695312 54.27579879760742
v 102.73400115966797 170.19000244140625 85.654296875
v 103.04199981689453 171.00599670410156 83.45770263671875
v 73.66560363769531 209.28599548339844 39.98720169067383
v 72.79499816894531 177.5070037841797 55.4379997253418
v 106.53399658203125 170.343994140625 84.54219818115234
v 65.99369812011719 194.98500061035156 67.63390350341797
v 65.7323989868164 199.88499450683594 69.4738998413086
v 103.38200378417969 186.44900512695312 80.76119995117188
v 104.73799896240234 188.0709991455078 76.67520141601562
v 76.0447006225586 199.56900024414062 36.27429962158203
v 64.73049926757812 203.4029998779297 60.292598724365234
v 75.00530242919922 194.6959991455078 84.25399780273438
v 94.4990005493164 217.38999938964844 65.23090362548828
v 111.59100341796875 192.85800170898438 70.96739959716797
v 110.26300048828125 192.31199645996094 71.35559844970703
v 94.69259643554688 171.91600036621094 84.95709991455078
v 104.50499725341797 205.10800170898438 85.27870178222656
v 93.64230346679688 177.46400451660156 86.23770141601562
v 71.7520980834961 206.4949951171875 80.68360137939453
v 86.6530990600586 176.24899291992188 60.38209915161133
v 97.11489868164062 217.43600463867188 77.67350006103516
v 94.54640197753906 216.98399353027344 78.40989685058594
v 71.74629974365234 185.11500549316406 39.071998596191406
v 71.91699981689453 186.4949951171875 37.6879997253418
v 107.52999877929688 208.41200256347656 81.46820068359375
v 109.62999725341797 206.781005859375 80.33059692382812
v 78.14969635009766 182.03599548339844 39.4989013671875
v 80.36219787597656 182.6439971923828 40.760101318359375
v 112.37799835205078 195.61300659179688 66.67230224609375
v 97.1416015625 166.22500610351562 72.59559631347656
v 97.89309692382812 165.96499633789062 73.37740325927734
v 75.6322021484375 191.64700317382812 84.13999938964844
v 107.5979995727539 193.1280059814453 82.19670104980469
v 65.49649810791016 192.0050048828125 59.66830062866211
v 101.59100341796875 193.68800354003906 88.9220962524414
v 102.13999938964844 213.4709930419922 71.79409790039062
v 104.90899658203125 211.0240020751953 71.01529693603516
v 69.98829650878906 190.2519989013672 38.234798431396484
v 95.98380279541016 198.0279998779297 56.86410140991211
v 99.9448013305664 182.98500061035156 85.23419952392578
v 99.18609619140625 184.72900390625 89.2123031616211
v 94.92520141601562 214.2949981689453 81.43900299072266
v 97.4666976928711 169.3800048828125 76.06610107421875
v 98.67569732666016 167.42799377441406 74.27059936523438
v 68.16940307617188 204.93499755859375 42.468299865722656
v 70.09459686279297 207.906005859375 42.90489959716797
v 79.94490051269531 218.1909942626953 72.5968017578125
v 110.83200073242188 197.3280029296875 64.47570037841797
v 73.62999725341797 174.89300537109375 65.12329864501953
v 70.43070220947266 179.00799560546875 67.84259796142578
v 68.22550201416016 190.63499450683594 40.89830017089844
v 68.10769653320312 192.70599365234375 40.40950012207031
v 86.1416015625 176.27099609375 56.05379867553711
v 80.50650024414062 213.91900634765625 79.41850280761719
v 79.55079650878906 216.50100708007812 77.49559783935547
v 68.14550018310547 185.01199340820312 53.79499816894531
v 83.57129669189453 204.7469940185547 41.1067008972168
v 83.95800018310547 208.51300048828125 88
v 92.03340148925781 186.19500732421875 61.82320022583008
v 102.92500305175781 202.0449981689453 59.862701416015625
v 95.86129760742188 174.54299926757812 85.06929779052734
v 97.34960174560547 173.17100524902344 83.72879791259766
v 107.12200164794922 191.19200134277344 90.93840026855469
v 83.28189849853516 218.72500610351562 68.23169708251953
v 91.09760284423828 213.52099609375 47.41809844970703
v 91.068603515625 215.90499877929688 49.032501220703125
v 99.80329895019531 168.94900512695312 85.43789672851562
v 94.64839935302734 188.4429931640625 62.535099029541016
v 110.72000122070312 203.9739990234375 73.8656005859375
v 111.14299774169922 202.8560028076172 76.9844970703125
v 71.61620330810547 208.7989959716797 40.542701721191406
v 110.66600036621094 204.3249969482422 79.85269927978516
v 98.4406967163086 171.18299865722656 85.72090148925781
v 93.65010070800781 165.50999450683594 76.15070343017578
v 93.73860168457031 165.01499938964844 78.78500366210938
v 85.59190368652344 217.02200317382812 77.01360321044922
v 83.86759948730469 219.75799560546875 52.0349006652832
v 111.5199966430664 202.84300231933594 71.25170135498047
v 75.7748031616211 174.33999633789062 57.09489822387695
v 74.05909729003906 175.05499267578125 60.66830062866211
v 91.4729995727539 181.36099243164062 66.3322982788086
v 91.39800262451172 217.95700073242188 62.88610076904297
v 107.77300262451172 196.3800048828125 84.88870239257812
v 109.08799743652344 199.46400451660156 83.6613998413086
v 79.79560089111328 188.47799682617188 38.51100158691406
v 83.64689636230469 213.36500549316406 80.8936996459961
v 83.07209777832031 215.75799560546875 78.39820098876953
v 105.18900299072266 207.02200317382812 59.558799743652344
v 94.04039764404297 209.47500610351562 86.93689727783203
v 71.88980102539062 205.54600524902344 36.715599060058594
v 71.40390014648438 203.59300231933594 36.75709915161133
v 109.56600189208984 206.79600524902344 73.75029754638672
v 105.36399841308594 167.3000030517578 78.67410278320312
v 84.75240325927734 202.6280059814453 86.33650207519531
v 82.3927001953125 199.85000610351562 86.51789855957031
v 107.16300201416016 191.13400268554688 88.24849700927734
v 74.95659637451172 203.61500549316406 36.17539978027344
v 104.08000183105469 211.75599670410156 65.94830322265625
v 93.43090057373047 185.44400024414062 64.62789916992188
v 99.42230224609375 168.35899353027344 75.70850372314453
v 99.13929748535156 203.80799865722656 88
v 96.30740356445312 167.46099853515625 73.44039916992188
v 97.23789978027344 168.1020050048828 74.46369934082031
v 76.52149963378906 205.35499572753906 36.97679901123047
v 77.9480972290039 207.21099853515625 38.394500732421875
v 88.1073989868164 218.72000122070312 73.17369842529297
v 69.3228988647461 194.5019989013672 38.61399841308594
v 69.40170288085938 192.31500244140625 38.62860107421875
v 106.71099853515625 209.33099365234375 62.85639953613281
v 102.0999984741211 165.3070068359375 78.71369934082031
v 100.38600158691406 164.61300659179688 78.79679870605469
v 70.33879852294922 204.93099975585938 80.1436996459961
v 89.23490142822266 167.0050048828125 75.05120086669922
v 70.48709869384766 193.19000244140625 37.272701263427734
v 110.68299865722656 191.9409942626953 68.5333023071289
v 101.1969985961914 206.74200439453125 87.1719970703125
v 107.28299713134766 209.33799743652344 69.17389678955078
v 73.11160278320312 213.3780059814453 75.38400268554688
v 95.40489959716797 217.92100524902344 52.67279815673828
v 94.8948974609375 218.9320068359375 58.27479934692383
v 94.57520294189453 164.88299560546875 72.42120361328125
v 101.04399871826172 185.91900634765625 90.56199645996094
v 95.71710205078125 165.00799560546875 75.3572006225586
v 94.64849853515625 164.88400268554688 74.48509979248047
v 98.09719848632812 216.66400146484375 72.4468002319336
v 90.5344009399414 218.63699340820312 65.5459976196289
v 98.45780181884766 180.66799926757812 79.35769653320312
v 96.06120300292969 182.0070037841797 87.78140258789062
v 91.08899688720703 182.21800231933594 90.3323974609375
v 98.69969940185547 210.64100646972656 85.18409729003906
v 88.81710052490234 213.48800659179688 83.04319763183594
v 66.98919677734375 183.15699768066406 66.46859741210938
v 101.05400085449219 165.6529998779297 77.37159729003906
v 86.506103515625 185.83999633789062 95.7750015258789
v 85.87059783935547 185.66700744628906 94.14459991455078
v 67.98709869384766 197.1699981689453 40.33430099487305
v 74.46089935302734 215.10000610351562 74.15149688720703
v 99.45860290527344 171.80299377441406 84.85820007324219
v 100.39600372314453 171.49200439453125 84.23600006103516
v 78.1135025024414 176.63099670410156 76.70800018310547
v 99.28700256347656 164.71099853515625 77.90299987792969
v 88.2770004272461 175.0749969482422 84.72470092773438
v 69.12220001220703 200.01600646972656 39.0900993347168
v 78.38929748535156 173.10800170898438 56.530399322509766
v 96.3019027709961 202.927001953125 88.20989990234375
v 79.1875991821289 176.7169952392578 78.52230072021484
v 97.0459976196289 181.0760040283203 73.33999633789062
v 96.19660186767578 173.08299255371094 79.16999816894531
v 85.68090057373047 213.29800415039062 82.97760009765625
v 73.10340118408203 204.2570037841797 36.15330123901367
v 89.04620361328125 185.5290069580078 95.9541015625
v 95.14360046386719 169.42599487304688 84.11620330810547
v 94.87159729003906 166.5399932861328 82.10980224609375
v 108.79100036621094 196.8719940185547 63.74300003051758
v 88.82450103759766 190.58599853515625 93.13970184326172
v 112.3290023803711 193.302001953125 69.0259017944336
v 112.0989990234375 194.63299560546875 72.31800079345703
v 74.17140197753906 206.01100158691406 36.70949935913086
v 86.33470153808594 214.3000030517578 80.47830200195312
v 70.65390014648438 178.5070037841797 62.722599029541016
v 103.3239974975586 166.92999267578125 84.25309753417969
v 103.4990005493164 168.48699951171875 85.69139862060547
v 65.3656005859375 207.60899353027344 66.135498046875
v 96.21890258789062 191.19700622558594 93.5000991821289
v 80.52120208740234 172.71099853515625 61.00149917602539
v 98.11810302734375 165.3179931640625 74.05989837646484
v 98.4375 165.63499450683594 73.21440124511719
v 73.53459930419922 177.322998046875 71.38510131835938
v 99.32209777832031 217.24099731445312 76.44270324707031
v 98.404296875 215.42100524902344 79.08999633789062
v 77.58180236816406 214.0540008544922 78.6843032836914
v 106.39399719238281 166.9720001220703 80.67279815673828
v 106.63700103759766 167.23199462890625 82.48079681396484
v 74.9011001586914 204.79299926757812 85.96029663085938
v 85.46790313720703 220.45700073242188 58.05160140991211
v 82.14399719238281 207.31300354003906 87.67410278320312
v 77.05740356445312 203.26800537109375 36.757999420166016
v 83.02670288085938 199.85800170898438 40.70029830932617
v 81.67359924316406 197.4320068359375 39.56639862060547
v 101.33999633789062 170.22300720214844 79.61620330810547
v 87.30020141601562 182.96099853515625 92.7750015258789
v 104.49700164794922 208.31900024414062 83.65149688720703
v 100.02799987792969 170.6529998779297 85.52839660644531
v 98.2677001953125 166.3509979248047 74.07019805908203
v 81.2791976928711 184.72300720214844 87.11930084228516
v 84.1865005493164 179.90899658203125 86.16699981689453
v 105.60800170898438 166.2530059814453 81.4761962890625
v 75.27020263671875 178.4980010986328 43.60060119628906
v 100.14800262451172 200.21400451660156 88.64990234375
v 70.42130279541016 204.781005859375 37.61949920654297
v 69.79730224609375 203.47799682617188 38.41709899902344
v 85.73290252685547 170.84800720214844 66.14969635009766
v 83.98200225830078 170.52099609375 64.68280029296875
v 81.24919891357422 173.0469970703125 57.524898529052734
v 110.97599792480469 193.8000030517578 73.13249969482422
v 101.05899810791016 171.28399658203125 82.33300018310547
v 80.28050231933594 188.1719970703125 86.97869873046875
v 76.02100372314453 181.83299255371094 79.8021011352539
v 90.3467025756836 178.73800659179688 87.7385025024414
v 77.98570251464844 177.4239959716797 42.43980026245117
v 97.99839782714844 164.6020050048828 73.49250030517578
v 75.32869720458984 214.22000122070312 77.91429901123047
v 107.71499633789062 169.0800018310547 81.2416000366211
v 76.46589660644531 184.47799682617188 82.05269622802734
v 101.70700073242188 186.14999389648438 71.35130310058594
v 84.52279663085938 209.2729949951172 42.32709884643555
v 85.31729888916016 207.447998046875 42.474700927734375
v 97.28610229492188 164.93099975585938 80.92780303955078
v 85.62039947509766 182.8090057373047 94.59880065917969
v 86.63729858398438 183.65699768066406 95.60230255126953
v 65.86920166015625 206.1999969482422 48.37329864501953
v 74.50559997558594 180.03199768066406 41.523399353027344
v 76.97979736328125 179.77699279785156 40.20199966430664
v 88.0322036743164 186.6959991455078 95.97879791259766
v 109.677001953125 192.0330047607422 67.30789947509766
v 77.40619659423828 175.0989990234375 72.95890045166016
v 94.12239837646484 167.68499755859375 72.79979705810547
v 80.67269897460938 211.5709991455078 83.60179901123047
v 80.45120239257812 206.38699340820312 38.915000915527344
v 72.70909881591797 207.60299682617188 37.702301025390625
v 100.44000244140625 211.72300720214844 54.40909957885742
v 83.43949890136719 194.43499755859375 88.47949981689453
v 86.92130279541016 212.35800170898438 85.24530029296875
v 102.61499786376953 168.73800659179688 85.78399658203125
v 67.90029907226562 213.79299926757812 64.85659790039062
v 80.57440185546875 191.07000732421875 39.10110092163086
v 102.76399993896484 167.66099548339844 85.05180358886719
v 82.24639892578125 168.99899291992188 69.47229766845703
v 75.81950378417969 173.43699645996094 61.552101135253906
v 107.89099884033203 169.46499633789062 82.63990020751953
v 101.26499938964844 205.08099365234375 57.52399826049805
v 86.6897964477539 182.1199951171875 90.79720306396484
v 85.17169952392578 182.85499572753906 90.20130157470703
v 84.23390197753906 204.87899780273438 86.94709777832031
v 80.26640319824219 205.01499938964844 86.54319763183594
v 65.00309753417969 197.28199768066406 61.188899993896484
v 102.5009994506836 201.4499969482422 87.28520202636719
v 85.02459716796875 185.07400512695312 90.9458999633789
v 77.31580352783203 218.03900146484375 61.15510177612305
v 77.720703125 219.0989990234375 56.78239822387695
v 78.74259948730469 184.48300170898438 38.867698669433594
v 101.8030014038086 204.32699584960938 87.28980255126953
v 98.61150360107422 165.59800720214844 74.35369873046875
v 85.73169708251953 221.27200317382812 54.3286018371582
v 92.52999877929688 169.6060028076172 72.79889678955078
v 83.59559631347656 211.13499450683594 43.66529846191406
v 86.3760986328125 182.74099731445312 93.081298828125
v 89.99729919433594 167.9340057373047 70.19779968261719
v 67.91510009765625 183.00100708007812 59.25630187988281
v 106.18699645996094 167.45799255371094 79.51940155029297
v 75.8656997680664 175.2100067138672 53.08729934692383
v 108.6510009765625 191.21400451660156 70.25759887695312
v 94.99569702148438 187.08900451660156 93.80049896240234
v 92.76290130615234 185.11399841308594 93.48159790039062
v 80.18299865722656 169.7259979248047 67.42120361328125
v 89.51139831542969 182.31399536132812 59.65330123901367
v 84.34249877929688 174.20199584960938 61.39229965209961
v 81.13459777832031 184.99000549316406 41.242698669433594
v 81.96289825439453 181.80299377441406 42.915401458740234
v 109.125 208.32000732421875 78.25679779052734
v 107.28299713134766 193.18099975585938 85.13169860839844
v 111.59100341796875 204 63.32849884033203
v 65.21739959716797 205.2899932861328 66.19979858398438
v 110.73799896240234 198.7469940185547 78.8405990600586
v 110.9729995727539 196.63499450683594 76.28060150146484
v 99.47109985351562 165.6490020751953 74.83049774169922
v 73.24500274658203 182.1230010986328 40.51190185546875
v 85.64320373535156 182.6060028076172 92.49099731445312
v 102.27799987792969 212.70700073242188 67.34040069580078
v 110.33100128173828 205.43099975585938 62.33140182495117
v 82.49829864501953 220.30599975585938 53.7672004699707
v 83.73819732666016 187.04600524902344 89.98090362548828
v 65.99479675292969 189.76100158691406 54.02539825439453
v 78.39859771728516 197.04100036621094 85.6812973022461
v 92.27469635009766 165.67599487304688 78.55940246582031
v 97.74130249023438 166.93600463867188 83.32140350341797
v 79.47689819335938 186.67599487304688 38.756900787353516
v 105.29499816894531 188.41000366210938 87.6260986328125
v 106.52999877929688 187.9949951171875 88.87000274658203
v 92.50849914550781 174.88999938964844 72.30989837646484
v 79.78810119628906 196.26300048828125 38.037601470947266
v 98.75460052490234 164.92100524902344 73.95020294189453
v 106.76499938964844 191.18899536132812 79.62840270996094
v 105.58599853515625 189.27499389648438 81.27459716796875
v 107.36199951171875 191.37899780273438 89.86669921875
v 87.36669921875 201.01600646972656 87.5802001953125
v 69.08180236816406 188.67300415039062 40.59519958496094
v 88.61370086669922 169.85299682617188 80.54419708251953
v 89.7345962524414 205.46200561523438 46.17649841308594
v 90.80740356445312 209.2050018310547 46.4109992980957
v 102.41000366210938 170.9429931640625 81.32759857177734
v 103.9260025024414 170.9770050048828 81.41670227050781
v 92.7354965209961 168.0070037841797 82.4011001586914
v 74.73880004882812 187.89599609375 82.26100158691406
v 101.71499633789062 170.98500061035156 84.73280334472656
v 91.08219909667969 166.07000732421875 75.27660369873047
v 89.89679718017578 166.74000549316406 72.10230255126953
v 92.36039733886719 200.45799255371094 88.89649963378906
v 87.77050018310547 181.66400146484375 90.21080017089844
v 96.10060119628906 207.61599731445312 50.68830108642578
v 91.17980194091797 168.91299438476562 81.90670013427734
v 100.02100372314453 215.61900329589844 56.835601806640625
v 83.04669952392578 184.13999938964844 88.95159912109375
v 83.10079956054688 177.84800720214844 46.842899322509766
v 92.97239685058594 179.6699981689453 70.06009674072266
v 103.44000244140625 195.0659942626953 87.72979736328125
v 85.8009033203125 181.29100036621094 88.56710052490234
v 76.55439758300781 210.1300048828125 42.505699157714844
v 79.88159942626953 218.03399658203125 51.1234016418457
v 86.29869842529297 197.45799255371094 88.90809631347656
v 78.31230163574219 202.28500366210938 86
v 97.50460052490234 169.08999633789062 84.65149688720703
v 105.23100280761719 168.45399475097656 85.2699966430664
v 104.32599639892578 167.5800018310547 84.83329772949219
v 87.78910064697266 198.20899963378906 47.167301177978516
v 107.95800018310547 190.40499877929688 90.44740295410156
v 83.39219665527344 159.31500244140625 64.88890075683594
v 83.39219665527344 159.31500244140625 64.96299743652344
v 75.18340301513672 209.26800537109375 81.0072021484375
v 82.63739776611328 190.6540069580078 42.40480041503906
v 81.44049835205078 188.19500732421875 40.95790100097656
v 71.4614028930664 201.41900634765625 83.23280334472656
v 77.18229675292969 209.27699279785156 85.20780181884766
v 84.84320068359375 173.10000610351562 80.29879760742188
v 91.81780242919922 171.802001953125 72.15339660644531
v 107.66600036621094 191.12899780273438 67.93689727783203
v 80.73159790039062 175.33999633789062 49.58530044555664
v 90.92369842529297 198.30499267578125 51.125099182128906
v 75.89140319824219 207.15699768066406 37.699501037597656
v 107.6449966430664 188.87600708007812 89.02010345458984
v 107.58300018310547 189.02999877929688 90.71440124511719
v 101.08300018310547 184.28399658203125 80.39610290527344
v 104.5719985961914 166.42599487304688 78.85340118408203
v 100.53900146484375 211.15199279785156 83.36810302734375
v 97.56310272216797 166.86599731445312 73.51249694824219
v 104.53900146484375 190.23199462890625 91.80899810791016
v 73.9761962890625 207.08299255371094 85.45379638671875
v 106.76799774169922 191.40499877929688 83.92579650878906
v 71.56809997558594 216.5469970703125 61.92219924926758
v 79.64689636230469 180.20199584960938 40.861000061035156
v 82.68689727783203 206.1199951171875 40.4202995300293
v 93.033203125 165.2989959716797 74.23390197753906
v 89.77239990234375 211.05799865722656 45.958900451660156
v 93.3656997680664 165.49200439453125 72.11090087890625
v 64.60310363769531 201.10699462890625 49.57619857788086
v 110.8499984741211 200.76499938964844 79.74949645996094
v 103.8280029296875 188.13900756835938 69.2385025024414
v 105.88800048828125 194.7779998779297 86.29209899902344
v 66.75789642333984 191.70799255371094 43.34880065917969
v 95.38770294189453 184.0030059814453 68.25450134277344
v 102.3499984741211 185.67799377441406 85.53829956054688
v 94.19920349121094 191.70599365234375 94.5208969116211
v 105.29900360107422 199.02200317382812 86.19499969482422
v 93.12010192871094 204.7830047607422 49.317901611328125
v 88.76619720458984 193.5050048828125 51.355499267578125
v 86.04219818115234 219.3209991455078 68.92649841308594
v 92.74130249023438 172.62600708007812 74.45079803466797
v 76.8051986694336 177.5659942626953 43.1796989440918
v 95.67739868164062 164.47799682617188 79.56449890136719
v 111.09400177001953 200.58599853515625 75.08899688720703
v 103.8489990234375 170.70799255371094 84.96910095214844
v 98.6146011352539 186.72900390625 90.82360076904297
v 105.49700164794922 167.04800415039062 83.5
v 104.4000015258789 166.1490020751953 82.83460235595703
v 104.80899810791016 195.00900268554688 63.4380989074707
v 70.25240325927734 201.18099975585938 80.77420043945312
v 100.34500122070312 184.19000244140625 74.34559631347656
v 96.21720123291016 186.6909942626953 65.50740051269531
v 101.10900115966797 167.2010040283203 76.14360046386719
v 77.83190155029297 174.9239959716797 51.2218017578125
v 87.30149841308594 178.71800231933594 87.1365966796875
v 85.66739654541016 176.27099609375 84.03990173339844
v 69.45020294189453 205.01300048828125 39.58679962158203
v 70.15470123291016 207.09100341796875 40.075599670410156
v 108.00599670410156 189.61900329589844 89.41929626464844
v 99.62760162353516 214.4040069580078 62.96049880981445
v 76.72830200195312 171.96099853515625 63.82939910888672
v 86.44779968261719 215.2740020751953 47.3307991027832
v 85.41999816894531 213.0240020751953 45.55670166015625
v 104.27100372314453 169.17999267578125 85.9406967163086
v 103.45600128173828 169.78599548339844 85.95059967041016
v 106.44200134277344 189.9080047607422 87.63919830322266
v 96.56829833984375 174.29200744628906 81.99469757080078
v 71.37740325927734 211.49600219726562 75.24130249023438
v 95.59200286865234 218.0989990234375 75.95980072021484
v 88.26589965820312 213.10400390625 46.05759811401367
v 105.09300231933594 169.7519989013672 78.94869995117188
v 91.3364028930664 217.15699768066406 76.8323974609375
v 88.45850372314453 217.77099609375 49.87179946899414
v 89.10240173339844 214.74400329589844 80.0425033569336
v 90.9529037475586 175.85000610351562 69.73919677734375
v 76.5479965209961 178.24899291992188 41.46979904174805
v 93.49839782714844 220.74600219726562 55.891300201416016
v 92.98480224609375 219.33799743652344 52.273101806640625
v 93.16419982910156 216.69400024414062 50.39609909057617
v 91.01319885253906 218.81700134277344 51.21009826660156
v 71.66439819335938 208.2519989013672 38.676700592041016
v 70.88899993896484 206.552001953125 38.00910186767578
v 93.61640167236328 214.5760040283203 49.13410186767578
v 67.3561019897461 187.7010040283203 48.925899505615234
v 77.89859771728516 172.697998046875 60.79209899902344
v 78.98320007324219 215.48300170898438 48.99300003051758
v 75.7854995727539 176.9969940185547 49.24330139160156
v 84.18949890136719 174.32400512695312 57.79800033569336
v 79.72109985351562 209.08200073242188 86.49559783935547
v 87.07479858398438 218.947998046875 62.75130081176758
v 91.81629943847656 166.78500366210938 80.677001953125
v 90.73799896240234 166.3719940185547 77.9397964477539
v 96.98190307617188 198.38299560546875 90.00340270996094
v 101.24099731445312 215.6540069580078 74.5177001953125
v 103.20099639892578 214.56399536132812 74.45709991455078
v 89.10639953613281 183.09100341796875 92.38249969482422
v 68.35209655761719 192.33299255371094 77.18309783935547
v 81.88719940185547 187.71499633789062 89.45120239257812
v 98.91909790039062 189.61199951171875 91.65910339355469
v 67.88420104980469 183.8979949951172 70.14070129394531
v 109.94300079345703 197.56300354003906 81.10420227050781
v 92.7667007446289 218.4239959716797 73.0094985961914
v 87.58280181884766 173.53399658203125 66.53559875488281
v 79.37339782714844 203.0989990234375 37.9630012512207
v 78.68479919433594 205.0989990234375 37.77009963989258
v 80.95249938964844 204.75599670410156 39.049198150634766
v 66.29190063476562 204.38499450683594 71.41449737548828
v 84.54029846191406 179.87399291992188 48.02560043334961
v 81.5270004272461 209.23699951171875 41.24409866333008
v 68.96640014648438 214.94500732421875 56.294498443603516
v 80.47160339355469 200.75999450683594 38.60070037841797
v 81.84100341796875 202.71099853515625 39.64979934692383
v 71.63919830322266 215.35899353027344 50.79330062866211
v 95.58070373535156 215.90199279785156 50.7776985168457
v 82.29830169677734 169.781005859375 65.85079956054688
v 70.09149932861328 188.30599975585938 78.16210174560547
v 89.02030181884766 219.50999450683594 60.19240188598633
v 89.27300262451172 221.28900146484375 57.296600341796875
v 103.36299896240234 170.46400451660156 80.0927963256836
v 93.35970306396484 165.64100646972656 80.5385971069336
v 83.93620300292969 217.2790069580078 49.6776008605957
v 89.25060272216797 215.15499877929688 47.55950164794922
v 83.42449951171875 159.3470001220703 64.96299743652344
v 101.73600006103516 169.56900024414062 85.7760009765625
v 99.0979995727539 166.23300170898438 74.15010070800781
v 107.23400115966797 167.81900024414062 81.34459686279297
v 96.38999938964844 193.5800018310547 92.32240295410156
v 102.90699768066406 165.75100708007812 82.52999877929688
v 97.6001968383789 165.3990020751953 72.5302963256836
v 109.66500091552734 195.44900512695312 77.67639923095703
v 96.00900268554688 185.19000244140625 91.18609619140625
v 83.39219665527344 159.3470001220703 64.96299743652344
v 90.09410095214844 189.77499389648438 95.2300033569336
v 102.4489974975586 215.55299377441406 76.88059997558594
v 75.72869873046875 212.26600646972656 79.01589965820312
v 87.38189697265625 221.37100219726562 57.017799377441406
v 89.39659881591797 221.94500732421875 54.36330032348633
v 90.07510375976562 172.5850067138672 69.94300079345703
v 75.931396484375 216.10499572753906 71.13240051269531
v 99.07620239257812 165.74400329589844 73.67729949951172
v 70.40239715576172 215.31100463867188 65.04949951171875
v 88.08769989013672 184.281005859375 95.58820343017578
v 65.2490005493164 208.5070037841797 61.90610122680664
v 86.85700225830078 183.23500061035156 94.62349700927734
v 101.81800079345703 185.33799743652344 89.12989807128906
v 99.98750305175781 214.9530029296875 54.597900390625
v 110.38800048828125 206.03500366210938 76.7593002319336
v 71.53939819335938 214.68499755859375 67.9406967163086
v 82.63590240478516 207.6479949951172 40.66709899902344
v 77.34819793701172 188.29600524902344 84.18769836425781
v 68.68949890136719 181.21400451660156 60.96120071411133
v 105.0009994506836 170.0989990234375 85.61299896240234

g grp1
usemtl mtl1
f 15 2 1 
f 16 1 2 
f 213 4 3 
f 29 3 4 
f 463 6 5 
f 707 5 6 
f 213 7 4 
f 995 4 7 
f 177 9 8 
f 352 8 9 
f 322 11 10 
f 933 10 11 
f 576 13 12 
f 664 12 13 
f 2 15 14 
f 33 14 15 
f 17 2 14 
f 18 16 2 
f 18 2 17 
f 661 20 19 
f 525 19 20 
f 961 22 21 
f 445 21 22 
f 595 24 23 
f 81 23 24 
f 569 26 25 
f 949 25 26 
f 857 28 27 
f 853 27 28 
f 885 29 4 
f 953 31 30 
f 791 30 31 
f 14 33 32 
f 558 32 33 
f 34 14 32 
f 17 14 34 
f 987 36 35 
f 930 35 36 
f 678 38 37 
f 192 37 38 
f 386 40 39 
f 158 39 40 
f 786 42 41 
f 510 41 42 
f 295 44 43 
f 73 43 44 
f 989 46 45 
f 773 45 46 
f 816 48 47 
f 800 47 48 
f 630 50 49 
f 909 49 50 
f 94 52 51 
f 462 51 52 
f 198 54 53 
f 167 53 54 
f 670 56 55 
f 216 55 56 
f 632 58 57 
f 439 57 58 
f 69 35 59 
f 923 59 35 
f 861 61 60 
f 838 60 61 
f 481 62 10 
f 322 10 62 
f 618 64 63 
f 162 63 64 
f 615 66 65 
f 30 65 66 
f 185 68 67 
f 462 67 68 
f 987 35 69 
f 71 32 70 
f 558 70 32 
f 72 34 32 
f 72 32 71 
f 44 74 73 
f 232 73 74 
f 708 76 75 
f 110 75 76 
f 221 78 77 
f 357 77 78 
f 84 17 34 
f 107 80 79 
f 738 79 80 
f 523 23 81 
f 993 83 82 
f 149 82 83 
f 85 17 84 
f 18 17 85 
f 439 86 57 
f 294 57 86 
f 122 18 85 
f 194 88 87 
f 512 87 88 
f 456 60 89 
f 248 89 60 
f 250 91 90 
f 840 90 91 
f 193 93 92 
f 787 92 93 
f 612 95 94 
f 52 94 95 
f 992 97 96 
f 788 96 97 
f 25 98 90 
f 378 90 98 
f 103 70 99 
f 558 99 70 
f 887 100 63 
f 617 63 100 
f 145 102 101 
f 950 101 102 
f 71 70 103 
f 240 105 104 
f 985 104 105 
f 720 107 106 
f 79 106 107 
f 186 109 108 
f 432 108 109 
f 404 111 110 
f 856 110 111 
f 301 113 112 
f 669 112 113 
f 732 115 114 
f 145 114 115 
f 938 117 116 
f 456 116 117 
f 618 119 118 
f 951 118 119 
f 72 120 34 
f 84 34 120 
f 121 85 84 
f 121 84 120 
f 123 122 85 
f 123 85 121 
f 821 99 124 
f 558 124 99 
f 261 126 125 
f 566 125 126 
f 823 128 127 
f 849 127 128 
f 737 130 129 
f 164 129 130 
f 801 132 131 
f 1 131 132 
f 123 133 122 
f 811 122 133 
f 934 135 134 
f 883 134 135 
f 755 137 136 
f 765 136 137 
f 759 138 83 
f 960 83 138 
f 590 140 139 
f 191 139 140 
f 443 142 141 
f 749 141 142 
f 607 81 143 
f 522 143 81 
f 114 145 144 
f 101 144 145 
f 423 147 146 
f 526 146 147 
f 675 148 147 
f 893 147 148 
f 960 150 149 
f 519 149 150 
f 589 152 151 
f 671 151 152 
f 257 154 153 
f 635 153 154 
f 878 156 155 
f 252 155 156 
f 159 120 72 
f 874 158 157 
f 40 157 158 
f 183 159 72 
f 160 121 120 
f 160 120 159 
f 161 123 121 
f 161 121 160 
f 887 63 162 
f 289 123 161 
f 921 164 163 
f 627 163 164 
f 289 133 123 
f 19 166 165 
f 814 165 166 
f 714 167 54 
f 815 169 168 
f 760 168 169 
f 182 170 7 
f 483 7 170 
f 573 172 171 
f 862 171 172 
f 174 103 173 
f 572 173 103 
f 71 103 174 
f 519 176 175 
f 528 175 176 
f 188 71 174 
f 576 178 177 
f 9 177 178 
f 645 179 148 
f 742 148 179 
f 423 146 180 
f 361 180 146 
f 384 182 181 
f 213 181 182 
f 188 183 71 
f 72 71 183 
f 796 185 184 
f 221 184 185 
f 311 187 186 
f 451 186 187 
f 189 159 183 
f 189 183 188 
f 190 160 159 
f 190 159 189 
f 190 161 160 
f 245 139 191 
f 456 117 192 
f 37 192 117 
f 92 194 193 
f 983 193 194 
f 289 161 190 
f 631 196 195 
f 516 195 196 
f 276 25 197 
f 949 197 25 
f 596 199 198 
f 54 198 199 
f 244 201 200 
f 386 200 201 
f 279 203 202 
f 312 202 203 
f 595 204 24 
f 272 24 204 
f 471 206 205 
f 368 205 206 
f 812 29 207 
f 818 207 29 
f 709 209 208 
f 773 208 209 
f 916 207 210 
f 872 210 207 
f 411 212 211 
f 255 211 212 
f 7 213 182 
f 963 215 214 
f 936 214 215 
f 424 216 135 
f 56 135 216 
f 250 218 217 
f 630 217 218 
f 723 220 219 
f 569 219 220 
f 77 184 221 
f 988 223 222 
f 211 222 223 
f 136 225 224 
f 313 224 225 
f 721 227 226 
f 867 226 227 
f 461 229 228 
f 644 228 229 
f 141 231 230 
f 326 230 231 
f 473 233 232 
f 237 232 233 
f 327 190 189 
f 259 234 179 
f 810 179 234 
f 499 236 235 
f 421 235 236 
f 73 232 237 
f 407 239 238 
f 793 238 239 
f 28 241 240 
f 752 240 241 
f 714 243 242 
f 460 242 243 
f 937 245 244 
f 722 244 245 
f 320 247 246 
f 357 246 247 
f 513 249 248 
f 394 248 249 
f 482 218 250 
f 831 252 251 
f 156 251 252 
f 486 215 253 
f 963 253 215 
f 726 255 254 
f 346 254 255 
f 664 257 256 
f 153 256 257 
f 262 173 258 
f 572 258 173 
f 978 260 259 
f 234 259 260 
f 756 126 261 
f 263 173 262 
f 174 173 263 
f 654 265 264 
f 653 264 265 
f 615 65 266 
f 790 266 65 
f 602 268 267 
f 172 267 268 
f 532 270 269 
f 592 269 270 
f 550 272 271 
f 417 271 272 
f 387 274 273 
f 308 273 274 
f 870 276 275 
f 483 275 276 
f 326 277 230 
f 899 230 277 
f 668 279 278 
f 744 278 279 
f 857 281 280 
f 708 280 281 
f 274 282 188 
f 189 188 282 
f 528 283 175 
f 745 175 283 
f 327 189 282 
f 838 39 284 
f 158 284 39 
f 853 286 285 
f 362 285 286 
f 537 288 287 
f 863 287 288 
f 217 91 250 
f 899 291 290 
f 267 290 291 
f 401 82 292 
f 149 292 82 
f 470 294 293 
f 836 293 294 
f 504 296 295 
f 44 295 296 
f 752 298 297 
f 620 297 298 
f 579 55 299 
f 216 299 55 
f 95 300 52 
f 563 52 300 
f 457 302 301 
f 806 301 302 
f 801 304 303 
f 557 303 304 
f 648 305 258 
f 262 258 305 
f 306 263 262 
f 306 262 305 
f 867 227 307 
f 505 307 227 
f 308 263 306 
f 174 263 308 
f 547 310 309 
f 470 309 310 
f 274 174 308 
f 108 311 186 
f 367 202 312 
f 888 224 313 
f 405 315 314 
f 553 314 315 
f 387 282 274 
f 583 317 316 
f 473 316 317 
f 727 318 31 
f 791 31 318 
f 397 320 319 
f 643 319 320 
f 11 322 321 
f 834 321 322 
f 651 323 319 
f 398 319 323 
f 998 325 324 
f 492 324 325 
f 881 326 41 
f 860 41 326 
f 282 328 327 
f 336 327 328 
f 427 330 329 
f 751 329 330 
f 127 332 331 
f 591 331 332 
f 532 333 270 
f 939 270 333 
f 140 335 334 
f 304 334 335 
f 870 98 276 
f 25 276 98 
f 168 336 328 
f 959 338 337 
f 639 337 338 
f 325 340 339 
f 697 339 340 
f 412 342 341 
f 433 341 342 
f 877 344 343 
f 741 343 344 
f 762 346 345 
f 255 345 346 
f 350 306 305 
f 295 345 347 
f 212 347 345 
f 903 349 348 
f 800 348 349 
f 351 308 306 
f 351 306 350 
f 273 308 351 
f 757 353 352 
f 399 352 353 
f 882 91 217 
f 64 355 354 
f 560 354 355 
f 623 356 154 
f 437 154 356 
f 77 357 247 
f 927 359 358 
f 928 358 359 
f 735 361 360 
f 376 360 361 
f 927 264 359 
f 653 359 264 
f 286 363 362 
f 496 362 363 
f 698 365 364 
f 787 364 365 
f 670 366 56 
f 883 56 366 
f 459 367 312 
f 129 205 368 
f 845 370 369 
f 629 369 370 
f 739 372 371 
f 902 371 372 
f 501 374 373 
f 712 373 374 
f 858 375 296 
f 44 296 375 
f 658 377 376 
f 655 376 377 
f 756 261 302 
f 948 302 261 
f 618 118 355 
f 880 355 118 
f 250 90 378 
f 379 305 342 
f 648 342 305 
f 350 305 379 
f 380 351 350 
f 380 350 379 
f 381 273 351 
f 381 351 380 
f 597 383 382 
f 415 382 383 
f 865 385 384 
f 170 384 385 
f 861 386 61 
f 39 61 386 
f 390 387 273 
f 868 389 388 
f 478 388 389 
f 381 390 273 
f 214 392 391 
f 842 391 392 
f 894 393 95 
f 300 95 393 
f 89 248 394 
f 453 396 395 
f 783 395 396 
f 319 398 397 
f 484 397 398 
f 353 269 399 
f 592 399 269 
f 475 328 390 
f 387 390 328 
f 277 371 291 
f 902 291 371 
f 689 301 400 
f 112 400 301 
f 745 401 292 
f 677 403 402 
f 195 402 403 
f 76 405 404 
f 314 404 405 
f 239 407 406 
f 501 406 407 
f 513 406 408 
f 889 408 406 
f 412 379 342 
f 947 410 409 
f 540 409 410 
f 347 212 411 
f 413 380 379 
f 413 379 412 
f 414 381 380 
f 414 380 413 
f 382 415 385 
f 275 385 415 
f 985 416 286 
f 363 286 416 
f 676 418 417 
f 822 417 418 
f 420 390 381 
f 193 419 93 
f 685 93 419 
f 414 420 381 
f 233 421 236 
f 147 423 422 
f 47 422 423 
f 770 425 424 
f 879 424 425 
f 682 427 426 
f 329 426 427 
f 968 429 428 
f 927 428 429 
f 465 431 430 
f 496 430 431 
f 856 108 432 
f 402 434 433 
f 341 433 434 
f 952 436 435 
f 533 435 436 
f 356 438 437 
f 820 437 438 
f 58 137 439 
f 755 439 137 
f 650 441 440 
f 716 440 441 
f 657 361 146 
f 533 442 310 
f 910 310 442 
f 563 142 443 
f 544 445 444 
f 474 444 445 
f 777 423 180 
f 446 413 412 
f 446 412 341 
f 447 414 413 
f 447 413 446 
f 886 88 194 
f 454 414 447 
f 541 410 448 
f 187 448 410 
f 454 420 414 
f 594 290 449 
f 573 449 290 
f 186 451 450 
f 477 450 451 
f 409 453 452 
f 395 452 453 
f 455 420 454 
f 390 420 455 
f 812 3 29 
f 475 390 455 
f 111 404 314 
f 116 456 89 
f 756 302 457 
f 587 394 458 
f 249 458 394 
f 669 459 203 
f 312 203 459 
f 163 461 460 
f 228 460 461 
f 476 445 22 
f 68 51 462 
f 467 446 341 
f 764 464 463 
f 498 463 464 
f 430 466 465 
f 900 465 466 
f 468 447 446 
f 468 446 467 
f 469 454 447 
f 469 447 468 
f 654 309 470 
f 205 472 471 
f 826 471 472 
f 750 473 232 
f 474 455 454 
f 469 474 454 
f 476 475 455 
f 476 455 474 
f 828 477 115 
f 145 115 477 
f 520 479 478 
f 945 478 479 
f 996 481 480 
f 265 480 481 
f 378 482 250 
f 170 275 483 
f 94 51 484 
f 68 484 51 
f 774 486 485 
f 253 485 486 
f 601 488 487 
f 234 487 488 
f 610 490 489 
f 581 489 490 
f 268 491 408 
f 249 408 491 
f 325 339 492 
f 497 492 339 
f 493 468 467 
f 493 467 434 
f 341 434 467 
f 494 469 468 
f 494 468 493 
f 206 471 495 
f 895 495 471 
f 444 469 494 
f 363 497 496 
f 957 496 497 
f 444 474 469 
f 680 74 375 
f 44 375 74 
f 539 498 464 
f 445 476 474 
f 965 499 318 
f 699 318 499 
f 353 500 269 
f 532 269 500 
f 407 502 501 
f 374 501 502 
f 822 504 503 
f 647 503 504 
f 259 506 505 
f 644 505 506 
f 873 485 507 
f 534 507 485 
f 579 508 55 
f 677 55 508 
f 315 509 285 
f 853 285 509 
f 543 511 510 
f 739 510 511 
f 87 512 457 
f 844 457 512 
f 958 513 248 
f 516 493 434 
f 392 515 514 
f 780 514 515 
f 517 494 493 
f 517 493 516 
f 979 360 518 
f 655 518 360 
f 444 494 517 
f 149 519 292 
f 745 292 519 
f 815 168 475 
f 328 475 168 
f 794 521 520 
f 479 520 521 
f 550 522 81 
f 612 94 398 
f 484 398 94 
f 607 523 81 
f 19 525 524 
f 917 524 525 
f 657 146 526 
f 859 527 223 
f 782 223 527 
f 214 391 528 
f 580 528 391 
f 762 43 73 
f 400 112 529 
f 668 529 112 
f 567 531 530 
f 980 530 531 
f 752 333 532 
f 659 533 436 
f 960 507 534 
f 895 536 535 
f 829 535 536 
f 842 537 391 
f 605 391 537 
f 785 538 245 
f 139 245 538 
f 495 539 206 
f 464 206 539 
f 410 541 540 
f 770 540 541 
f 818 29 542 
f 885 542 29 
f 544 444 517 
f 511 543 542 
f 818 542 543 
f 516 544 517 
f 358 36 428 
f 987 428 36 
f 770 545 425 
f 401 425 545 
f 808 546 126 
f 566 126 546 
f 616 547 309 
f 729 549 548 
f 649 548 549 
f 686 522 550 
f 790 458 249 
f 776 162 551 
f 354 551 162 
f 20 552 525 
f 204 525 552 
f 760 289 336 
f 190 336 289 
f 315 285 553 
f 362 553 285 
f 573 171 225 
f 313 225 171 
f 265 293 480 
f 836 480 293 
f 129 472 205 
f 966 409 102 
f 452 102 409 
f 65 30 554 
f 791 554 30 
f 919 556 555 
f 704 555 556 
f 124 558 557 
f 33 557 558 
f 19 524 166 
f 426 166 524 
f 354 560 559 
f 794 559 560 
f 775 562 561 
f 874 561 562 
f 196 544 516 
f 644 307 505 
f 52 563 462 
f 582 462 563 
f 21 544 196 
f 869 565 564 
f 979 564 565 
f 450 566 546 
f 817 531 567 
f 453 540 568 
f 770 568 540 
f 646 314 553 
f 26 569 220 
f 479 571 570 
f 803 570 571 
f 99 572 103 
f 290 267 573 
f 172 573 267 
f 995 575 574 
f 662 574 575 
f 704 576 12 
f 690 142 563 
f 634 578 577 
f 637 577 578 
f 283 580 579 
f 908 579 580 
f 598 46 581 
f 989 581 46 
f 498 6 463 
f 443 582 563 
f 605 580 391 
f 316 584 583 
f 694 583 584 
f 883 586 585 
f 642 585 586 
f 458 554 587 
f 938 587 554 
f 182 384 170 
f 295 43 345 
f 762 345 43 
f 621 589 588 
f 705 588 589 
f 255 212 345 
f 664 13 257 
f 623 257 13 
f 934 140 590 
f 8 13 177 
f 576 177 13 
f 606 560 355 
f 978 259 505 
f 962 591 332 
f 710 592 270 
f 633 266 593 
f 790 593 266 
f 78 290 594 
f 23 596 595 
f 917 595 596 
f 383 597 482 
f 819 482 597 
f 490 598 581 
f 972 600 599 
f 933 599 600 
f 717 143 601 
f 846 601 143 
f 593 268 602 
f 997 604 603 
f 894 603 604 
f 908 580 605 
f 997 560 606 
f 672 523 607 
f 526 609 608 
f 809 608 609 
f 621 610 489 
f 778 59 611 
f 971 611 59 
f 323 612 398 
f 763 614 613 
f 538 613 614 
f 633 615 266 
f 967 616 309 
f 119 618 617 
f 63 617 618 
f 760 619 289 
f 133 289 619 
f 665 9 178 
f 693 621 620 
f 588 620 621 
f 643 246 622 
f 357 622 246 
f 8 356 623 
f 684 625 624 
f 724 624 625 
f 879 216 424 
f 334 191 140 
f 794 626 521 
f 651 521 626 
f 957 430 496 
f 163 627 461 
f 867 461 627 
f 369 629 628 
f 820 628 629 
f 916 630 49 
f 711 196 631 
f 174 274 188 
f 651 632 571 
f 803 571 632 
f 1001 139 538 
f 903 348 634 
f 578 634 348 
f 679 635 154 
f 330 637 636 
f 869 636 637 
f 863 639 638 
f 955 638 639 
f 952 435 640 
f 890 640 435 
f 347 504 295 
f 870 378 98 
f 648 642 641 
f 586 641 642 
f 320 246 643 
f 506 645 644 
f 667 644 645 
f 111 314 646 
f 504 347 647 
f 411 647 347 
f 684 195 625 
f 403 625 195 
f 342 648 641 
f 786 649 549 
f 960 149 83 
f 725 403 508 
f 677 508 403 
f 256 650 440 
f 854 169 502 
f 713 502 169 
f 643 651 319 
f 671 324 652 
f 492 652 324 
f 481 653 265 
f 491 268 593 
f 293 654 470 
f 927 358 428 
f 360 376 655 
f 153 650 256 
f 741 331 591 
f 483 656 7 
f 995 7 656 
f 608 658 657 
f 376 657 658 
f 728 37 117 
f 551 441 650 
f 190 327 336 
f 442 533 659 
f 435 547 660 
f 616 660 547 
f 574 20 661 
f 981 663 662 
f 733 662 663 
f 757 9 665 
f 950 666 584 
f 694 584 666 
f 3 181 213 
f 675 667 645 
f 112 669 668 
f 203 668 669 
f 366 670 641 
f 433 641 670 
f 886 92 365 
f 787 365 92 
f 151 671 652 
f 797 545 541 
f 770 541 545 
f 928 359 653 
f 717 673 672 
f 199 672 673 
f 936 515 392 
f 114 144 674 
f 750 674 144 
f 349 675 422 
f 147 422 675 
f 748 668 278 
f 733 676 552 
f 272 552 676 
f 55 677 670 
f 433 670 677 
f 935 613 678 
f 785 678 613 
f 154 437 679 
f 832 679 437 
f 114 674 680 
f 74 680 674 
f 901 681 372 
f 884 372 681 
f 524 682 426 
f 757 683 500 
f 298 500 683 
f 692 684 624 
f 328 282 387 
f 96 93 685 
f 827 687 686 
f 810 686 687 
f 24 272 550 
f 405 509 315 
f 582 688 67 
f 221 67 688 
f 688 582 141 
f 443 141 582 
f 87 457 689 
f 301 689 457 
f 300 691 690 
f 548 690 691 
f 638 631 692 
f 684 692 631 
f 15 1 132 
f 665 693 683 
f 620 683 693 
f 866 574 661 
f 1001 538 694 
f 614 694 538 
f 848 696 695 
f 761 695 696 
f 797 339 697 
f 886 365 698 
f 499 235 699 
f 935 699 235 
f 777 701 700 
f 565 700 701 
f 733 552 662 
f 20 662 552 
f 487 234 260 
f 101 702 144 
f 750 144 702 
f 555 704 703 
f 984 703 704 
f 589 151 705 
f 736 705 151 
f 838 61 39 
f 976 707 706 
f 721 706 707 
f 533 310 547 
f 871 405 708 
f 76 708 405 
f 805 209 709 
f 823 127 331 
f 768 592 710 
f 67 462 582 
f 963 214 176 
f 528 176 214 
f 253 534 485 
f 21 196 711 
f 374 713 712 
f 961 712 713 
f 969 243 714 
f 994 715 97 
f 946 97 715 
f 868 440 716 
f 672 607 717 
f 143 717 607 
f 869 718 565 
f 180 565 718 
f 107 720 719 
f 837 719 720 
f 768 628 438 
f 820 438 628 
f 226 706 721 
f 746 722 191 
f 245 191 722 
f 943 220 723 
f 402 433 677 
f 255 222 211 
f 651 643 632 
f 58 632 643 
f 19 681 661 
f 901 661 681 
f 625 725 724 
f 907 724 725 
f 254 727 726 
f 31 726 727 
f 678 37 728 
f 255 726 222 
f 953 222 726 
f 759 83 340 
f 993 340 83 
f 691 729 548 
f 871 27 509 
f 853 509 27 
f 825 714 730 
f 54 730 714 
f 948 731 719 
f 80 719 731 
f 738 115 732 
f 905 676 733 
f 752 532 298 
f 500 298 532 
f 201 734 40 
f 157 40 734 
f 938 116 587 
f 89 587 116 
f 700 361 735 
f 588 105 297 
f 240 297 105 
f 985 705 736 
f 368 737 129 
f 977 26 220 
f 989 324 671 
f 828 115 738 
f 42 543 510 
f 901 739 511 
f 343 741 740 
f 999 740 741 
f 893 148 742 
f 994 744 743 
f 202 743 744 
f 768 399 592 
f 175 745 519 
f 131 747 746 
f 926 746 747 
f 400 748 419 
f 685 419 748 
f 786 749 649 
f 142 649 749 
f 775 16 122 
f 18 122 16 
f 316 750 702 
f 779 329 751 
f 361 657 376 
f 297 240 752 
f 127 373 332 
f 712 332 373 
f 338 753 639 
f 955 639 753 
f 932 754 624 
f 692 624 754 
f 62 755 322 
f 136 322 755 
f 808 126 756 
f 353 757 500 
f 915 758 696 
f 761 696 758 
f 730 199 673 
f 991 138 759 
f 758 487 761 
f 260 761 487 
f 865 382 385 
f 883 135 56 
f 74 674 750 
f 614 317 583 
f 556 178 576 
f 154 257 623 
f 846 143 522 
f 834 136 224 
f 614 763 317 
f 911 317 763 
f 464 764 206 
f 368 206 764 
f 932 624 724 
f 594 449 765 
f 225 765 449 
f 802 767 766 
f 841 766 767 
f 710 769 768 
f 369 768 769 
f 424 568 770 
f 708 75 280 
f 845 280 75 
f 842 337 288 
f 639 288 337 
f 776 771 162 
f 887 162 771 
f 28 240 104 
f 113 772 669 
f 459 669 772 
f 899 290 78 
f 892 201 244 
f 209 774 773 
f 485 773 774 
f 16 775 1 
f 561 1 775 
f 484 68 185 
f 9 757 352 
f 635 771 776 
f 782 411 211 
f 975 777 718 
f 180 718 777 
f 403 725 625 
f 805 778 611 
f 859 779 527 
f 155 527 779 
f 913 343 780 
f 740 780 343 
f 802 766 781 
f 715 781 766 
f 429 309 654 
f 983 400 419 
f 761 260 695 
f 978 695 260 
f 211 223 782 
f 297 620 588 
f 590 783 396 
f 226 627 784 
f 164 784 627 
f 961 713 22 
f 815 22 713 
f 678 785 38 
f 904 38 785 
f 93 788 787 
f 981 787 788 
f 801 334 304 
f 965 789 499 
f 236 499 789 
f 907 725 508 
f 81 24 550 
f 593 790 491 
f 249 491 790 
f 938 791 728 
f 699 728 791 
f 238 793 792 
f 562 792 793 
f 458 790 65 
f 807 424 135 
f 997 794 560 
f 980 531 729 
f 549 729 531 
f 180 700 565 
f 895 471 536 
f 826 536 471 
f 882 217 795 
f 210 795 217 
f 484 796 397 
f 804 397 796 
f 966 102 145 
f 817 543 42 
f 957 339 797 
f 662 20 574 
f 951 799 798 
f 393 798 799 
f 997 626 794 
f 409 540 453 
f 811 775 122 
f 362 431 646 
f 465 646 431 
f 940 660 616 
f 617 795 119 
f 567 119 795 
f 807 590 396 
f 170 385 275 
f 990 800 48 
f 746 334 801 
f 210 217 630 
f 743 802 781 
f 430 448 466 
f 187 466 448 
f 819 50 630 
f 933 11 599 
f 877 599 11 
f 632 57 803 
f 910 803 57 
f 764 463 5 
f 750 232 74 
f 320 804 247 
f 184 247 804 
f 843 805 611 
f 113 301 806 
f 934 590 807 
f 370 109 808 
f 546 808 109 
f 926 722 746 
f 225 449 573 
f 399 768 438 
f 804 796 184 
f 970 809 609 
f 488 810 234 
f 649 142 690 
f 811 133 619 
f 300 690 563 
f 49 813 812 
f 3 812 813 
f 925 165 814 
f 520 478 389 
f 476 815 475 
f 751 636 518 
f 564 518 636 
f 700 735 816 
f 48 816 735 
f 872 818 817 
f 543 817 818 
f 998 759 325 
f 340 325 759 
f 316 473 750 
f 218 819 630 
f 844 820 629 
f 134 585 821 
f 572 821 585 
f 835 822 503 
f 370 432 109 
f 857 27 281 
f 871 281 27 
f 344 824 823 
f 321 823 824 
f 881 371 277 
f 356 8 352 
f 536 826 825 
f 969 825 826 
f 686 271 827 
f 835 827 271 
f 21 445 544 
f 831 647 411 
f 396 568 807 
f 424 807 568 
f 636 751 330 
f 974 535 829 
f 647 831 830 
f 251 830 831 
f 820 832 437 
f 789 233 236 
f 899 277 291 
f 946 715 833 
f 766 833 715 
f 974 829 717 
f 673 717 829 
f 919 703 659 
f 944 659 703 
f 484 185 796 
f 110 76 404 
f 888 321 834 
f 417 835 271 
f 1000 566 828 
f 450 828 566 
f 996 480 836 
f 948 719 837 
f 650 153 776 
f 635 776 153 
f 884 681 839 
f 165 839 681 
f 100 219 840 
f 569 840 219 
f 720 841 837 
f 767 837 841 
f 551 650 776 
f 486 843 215 
f 936 215 843 
f 890 435 660 
f 457 844 756 
f 629 756 844 
f 888 128 823 
f 860 231 749 
f 141 749 231 
f 769 845 369 
f 691 393 799 
f 686 846 522 
f 964 653 481 
f 523 199 596 
f 12 388 704 
f 984 704 388 
f 914 848 847 
f 897 847 848 
f 862 849 128 
f 657 526 608 
f 597 382 850 
f 865 850 382 
f 973 852 851 
f 982 851 852 
f 983 419 193 
f 320 397 804 
f 28 104 853 
f 286 853 104 
f 917 682 524 
f 238 855 854 
f 760 854 855 
f 732 79 738 
f 981 662 575 
f 422 47 800 
f 642 648 258 
f 748 400 529 
f 966 477 451 
f 370 75 432 
f 110 432 75 
f 502 713 374 
f 107 719 80 
f 110 856 432 
f 855 811 619 
f 256 440 664 
f 868 664 440 
f 130 784 164 
f 880 604 606 
f 997 606 604 
f 1000 125 566 
f 939 857 280 
f 106 375 858 
f 642 572 585 
f 988 859 223 
f 583 694 614 
f 326 231 860 
f 904 861 192 
f 456 192 861 
f 171 862 313 
f 128 313 862 
f 280 845 769 
f 692 287 863 
f 909 865 864 
f 813 864 865 
f 942 647 830 
f 885 574 866 
f 461 867 229 
f 307 229 867 
f 536 825 730 
f 957 448 430 
f 953 726 31 
f 548 649 690 
f 716 389 868 
f 587 89 394 
f 578 718 869 
f 383 870 415 
f 275 415 870 
f 861 60 456 
f 877 824 344 
f 884 615 633 
f 603 612 323 
f 571 479 521 
f 708 281 871 
f 795 210 872 
f 357 78 594 
f 943 832 88 
f 512 88 832 
f 939 710 270 
f 773 485 873 
f 793 158 874 
f 567 872 817 
f 999 741 875 
f 591 875 741 
f 82 401 545 
f 914 696 848 
f 594 622 357 
f 829 536 730 
f 658 876 377 
f 156 377 876 
f 919 555 703 
f 920 599 877 
f 155 751 878 
f 518 878 751 
f 999 753 338 
f 486 774 209 
f 976 706 130 
f 784 130 706 
f 746 191 334 
f 934 335 140 
f 685 748 278 
f 878 655 377 
f 407 854 502 
f 869 564 636 
f 894 604 880 
f 326 881 277 
f 342 641 433 
f 965 318 727 
f 817 42 531 
f 549 531 42 
f 739 371 881 
f 840 91 882 
f 514 337 842 
f 366 586 883 
f 615 884 839 
f 675 349 667 
f 903 667 349 
f 643 622 58 
f 137 58 622 
f 771 219 887 
f 100 887 219 
f 100 882 617 
f 795 617 882 
f 815 713 169 
f 370 808 629 
f 756 629 808 
f 100 840 882 
f 224 888 834 
f 172 268 889 
f 408 889 268 
f 621 489 589 
f 152 589 489 
f 975 718 578 
f 490 890 598 
f 940 598 890 
f 994 781 715 
f 426 891 166 
f 814 166 891 
f 994 743 781 
f 958 248 60 
f 201 892 734 
f 926 734 892 
f 567 795 872 
f 894 612 603 
f 209 805 486 
f 843 486 805 
f 768 369 628 
f 584 316 702 
f 233 789 237 
f 762 237 789 
f 238 854 407 
f 765 225 136 
f 609 526 893 
f 147 893 526 
f 981 364 787 
f 612 894 95 
f 569 90 840 
f 675 645 148 
f 621 693 610 
f 924 610 693 
f 989 671 152 
f 949 364 896 
f 981 896 364 
f 518 655 878 
f 848 898 897 
f 721 897 898 
f 78 221 899 
f 688 899 221 
f 150 176 519 
f 399 438 356 
f 856 465 900 
f 208 46 598 
f 849 373 127 
f 757 665 683 
f 64 354 162 
f 979 735 360 
f 383 378 870 
f 322 136 834 
f 798 894 880 
f 561 131 1 
f 372 739 901 
f 902 884 633 
f 602 902 633 
f 242 228 903 
f 667 903 228 
f 918 492 497 
f 506 179 645 
f 200 861 904 
f 53 577 427 
f 330 427 577 
f 902 372 884 
f 279 202 744 
f 720 906 905 
f 676 905 906 
f 579 908 907 
f 932 907 908 
f 691 300 393 
f 510 881 41 
f 864 49 909 
f 721 898 227 
f 978 227 898 
f 488 846 810 
f 686 810 846 
f 442 803 910 
f 736 151 652 
f 195 684 631 
f 452 395 666 
f 1001 666 395 
f 935 911 763 
f 948 261 731 
f 125 731 261 
f 920 913 912 
f 515 912 913 
f 509 405 871 
f 942 830 809 
f 608 809 830 
f 1002 915 914 
f 696 914 915 
f 812 207 916 
f 559 520 389 
f 854 760 169 
f 344 331 741 
f 416 918 363 
f 497 363 918 
f 418 676 906 
f 783 590 139 
f 6 897 707 
f 721 707 897 
f 343 913 920 
f 416 652 918 
f 492 918 652 
f 596 23 523 
f 969 921 243 
f 460 243 921 
f 924 922 610 
f 640 610 922 
f 1002 495 895 
f 971 59 923 
f 11 321 824 
f 839 165 925 
f 537 842 288 
f 877 343 920 
f 165 681 19 
f 602 291 902 
f 501 373 849 
f 157 734 926 
f 608 830 876 
f 251 876 830 
f 653 929 928 
f 930 928 929 
f 923 35 930 
f 754 932 931 
f 908 931 932 
f 964 933 929 
f 600 929 933 
f 135 934 807 
f 242 634 167 
f 53 167 634 
f 1002 895 915 
f 535 915 895 
f 775 792 562 
f 763 613 935 
f 971 936 843 
f 276 197 483 
f 656 483 197 
f 242 460 228 
f 577 53 634 
f 651 571 521 
f 245 937 785 
f 904 785 937 
f 855 238 792 
f 683 620 298 
f 728 117 938 
f 993 82 545 
f 925 66 839 
f 615 839 66 
f 41 860 786 
f 749 786 860 
f 296 822 418 
f 716 354 559 
f 936 392 214 
f 862 172 889 
f 287 754 537 
f 931 537 754 
f 6 847 897 
f 258 572 642 
f 241 857 939 
f 208 598 940 
f 503 942 941 
f 809 941 942 
f 977 220 943 
f 916 210 630 
f 984 945 944 
f 570 944 945 
f 335 124 304 
f 557 304 124 
f 187 947 451 
f 966 451 947 
f 230 899 688 
f 450 477 828 
f 302 948 806 
f 837 806 948 
f 970 687 827 
f 698 949 26 
f 157 926 747 
f 452 950 102 
f 646 553 362 
f 829 730 673 
f 313 128 888 
f 984 478 945 
f 516 434 402 
f 889 501 849 
f 272 676 417 
f 513 408 249 
f 980 799 951 
f 410 947 187 
f 267 291 602 
f 922 952 640 
f 885 866 542 
f 511 542 866 
f 706 226 784 
f 747 131 561 
f 66 925 953 
f 988 953 925 
f 21 711 954 
f 955 954 711 
f 370 845 75 
f 956 954 955 
f 965 254 346 
f 753 956 955 
f 22 815 476 
f 990 48 701 
f 979 701 48 
f 986 778 709 
f 805 709 778 
f 541 448 957 
f 907 932 724 
f 972 912 923 
f 971 923 912 
f 458 65 554 
f 200 386 861 
f 838 284 958 
f 239 958 284 
f 819 850 50 
f 909 50 850 
f 879 401 745 
f 716 551 354 
f 514 959 337 
f 638 955 711 
f 482 819 218 
f 507 960 138 
f 962 961 954 
f 21 954 961 
f 581 152 489 
f 638 692 863 
f 355 880 606 
f 207 818 872 
f 426 329 891 
f 779 891 329 
f 378 383 482 
f 591 962 956 
f 954 956 962 
f 875 956 753 
f 977 886 698 
f 626 603 323 
f 1001 395 783 
f 355 64 618 
f 806 837 772 
f 767 772 837 
f 150 963 176 
f 907 508 579 
f 11 824 877 
f 668 203 279 
f 119 530 951 
f 980 951 530 
f 962 332 712 
f 929 653 964 
f 198 53 682 
f 427 682 53 
f 631 638 711 
f 254 965 727 
f 665 924 693 
f 534 150 960 
f 850 819 597 
f 957 797 541 
f 608 876 658 
f 221 185 67 
f 613 538 785 
f 429 968 967 
f 986 967 968 
f 732 114 680 
f 10 964 481 
f 288 639 863 
f 823 331 344 
f 947 409 966 
f 593 602 633 
f 534 253 963 
f 893 970 609 
f 528 580 283 
f 945 479 570 
f 936 971 515 
f 912 515 971 
f 923 600 972 
f 622 765 137 
f 983 87 689 
f 835 941 827 
f 970 827 941 
f 982 852 973 
f 241 28 857 
f 5 707 976 
f 141 230 688 
f 698 26 977 
f 227 978 505 
f 13 8 623 
f 565 701 979 
f 186 450 546 
f 512 832 820 
f 979 518 564 
f 859 814 891 
f 704 556 576 
f 204 552 272 
f 556 919 922 
f 952 922 919 
f 578 348 975 
f 800 975 348 
f 90 569 25 
f 641 586 366 
f 911 473 317 
f 283 579 299 
f 69 59 778 
f 436 952 919 
f 792 775 811 
f 788 93 96 
f 402 195 516 
f 1001 694 666 
f 86 836 294 
f 204 595 525 
f 917 525 595 
f 33 303 557 
f 1002 539 495 
f 717 601 974 
f 487 974 601 
f 692 754 287 
f 570 803 442 
f 416 736 652 
f 758 915 535 
f 851 982 973 
f 194 87 983 
f 703 984 944 
f 416 985 736 
f 605 537 931 
f 129 164 921 
f 794 520 559 
f 588 705 105 
f 985 105 705 
f 732 680 79 
f 106 79 680 
f 97 946 788 
f 663 788 946 
f 362 496 431 
f 855 792 811 
f 547 435 533 
f 679 832 943 
f 949 896 197 
f 656 197 896 
f 192 38 904 
f 364 949 698 
f 968 69 986 
f 778 986 69 
f 729 799 980 
f 60 838 958 
f 921 472 129 
f 423 777 47 
f 816 47 777 
f 36 928 930 
f 584 101 950 
f 635 723 771 
f 219 771 723 
f 333 241 939 
f 813 384 181 
f 333 752 241 
f 1002 498 539 
f 470 910 294 
f 57 294 910 
f 54 199 730 
f 377 156 878 
f 473 911 421 
f 235 421 911 
f 908 605 931 
f 874 157 747 
f 581 989 152 
f 900 466 311 
f 187 311 466 
f 930 600 923 
f 584 702 101 
f 869 637 578 
f 156 876 251 
f 716 559 389 
f 889 406 501 
f 969 826 472 
f 886 194 92 
f 777 990 701 
f 716 441 551 
f 668 748 529 
f 956 875 591 
f 993 545 797 
f 45 873 991 
f 138 991 873 
f 299 745 283 
f 987 69 968 
f 920 912 972 
f 239 406 513 
f 990 975 800 
f 709 208 940 
f 428 987 968 
f 473 421 233 
f 994 97 992 
f 809 970 941 
f 356 352 399 
f 992 278 744 
f 833 905 663 
f 733 663 905 
f 242 167 714 
f 760 855 619 
f 472 921 969 
f 436 919 659 
f 841 905 833 
f 900 311 108 
f 844 512 820 
f 904 937 200 
f 244 200 937 
f 503 647 942 
f 644 229 307 
f 961 962 712 
f 862 889 849 
f 513 958 239 
f 972 599 920 
f 303 132 801 
f 237 762 73 
f 284 793 239 
f 368 764 737 
f 5 737 764 
f 831 411 782 
f 478 984 388 
f 567 530 119 
f 66 953 30 
f 822 835 417 
f 514 780 959 
f 740 959 780 
f 40 386 201 
f 866 901 511 
f 601 846 488 
f 685 992 96 
f 439 755 996 
f 62 996 755 
f 997 603 626 
f 656 575 995 
f 801 131 746 
f 779 859 891 
f 654 927 429 
f 998 45 991 
f 821 124 335 
f 821 335 134 
f 934 134 335 
f 988 925 814 
f 226 867 627 
f 786 549 42 
f 873 507 138 
f 924 178 922 
f 556 922 178 
f 901 866 661 
f 879 425 401 
f 917 198 682 
f 106 906 720 
f 868 12 664 
f 48 735 979 
f 118 951 798 
f 874 747 561 
f 252 831 782 
f 252 782 527 
f 45 773 873 
f 367 743 202 
f 665 178 924 
f 879 745 299 
f 663 946 833 
f 388 12 868 
f 45 998 989 
f 324 989 998 
f 802 743 367 
f 959 740 999 
f 504 822 296 
f 523 672 199 
f 697 993 797 
f 134 883 585 
f 990 777 975 
f 481 996 62 
f 637 330 577 
f 392 514 842 
f 916 49 812 
f 546 109 186 
f 898 848 695 
f 106 680 375 
f 825 969 714 
f 303 15 132 
f 875 753 999 
f 751 155 779 
f 933 964 10 
f 349 422 800 
f 667 228 644 
f 709 967 986 
f 731 125 1000 
f 490 610 640 
f 865 909 850 
f 759 998 991 
f 640 890 490 
f 506 259 179 
f 1000 80 731 
f 913 780 515 
f 570 659 944 
f 813 49 864 
f 791 938 554 
f 967 940 616 
f 992 744 994 
f 685 278 992 
f 859 988 814 
f 798 880 118 
f 104 985 286 
f 833 766 841 
f 783 139 1001 
f 339 957 497 
f 77 247 184 
f 765 622 594 
f 917 596 198 
f 659 570 442 
f 983 689 400 
f 222 953 988 
f 847 6 498 
f 791 318 699 
f 874 562 793 
f 535 974 758 
f 487 758 974 
f 654 264 927 
f 88 977 943 
f 651 626 323 
f 890 660 940 
f 242 903 634 
f 709 940 967 
f 384 813 865 
f 858 418 906 
f 700 816 777 
f 999 338 959 
f 788 663 981 
f 284 158 793 
f 361 700 180 
f 723 635 679 
f 921 163 460 
f 572 99 821 
f 893 687 970 
f 299 216 879 
f 699 678 728 
f 699 935 678 
f 179 810 742 
f 687 742 810 
f 893 742 687 
f 296 418 858 
f 1002 914 847 
f 470 310 910 
f 737 5 976 
f 459 772 767 
f 429 967 309 
f 293 265 654 
f 465 111 646 
f 393 894 798 
f 885 4 995 
f 977 88 886 
f 995 574 885 
f 453 568 396 
f 928 36 358 
f 303 33 15 
f 836 439 996 
f 697 340 993 
f 86 439 836 
f 155 252 527 
f 905 841 720 
f 336 168 760 
f 498 1002 847 
f 769 939 280 
f 892 244 722 
f 459 802 367 
f 691 799 729 
f 575 896 981 
f 108 856 900 
f 575 656 896 
f 898 695 978 
f 679 943 723 
f 789 346 762 
f 3 813 181 
f 321 888 823 
f 534 963 150 
f 459 767 802 
f 906 106 858 
f 666 950 452 
f 789 965 346 
f 686 550 271 
f 111 465 856 
f 737 976 130 
f 710 939 769 
f 208 773 46 
f 929 600 930 
f 477 966 145 
f 941 835 503 
f 828 738 1000 
f 80 1000 738 
f 971 843 611 
f 772 113 806 
f 892 722 926 
f 881 510 739 
f 935 235 911 
