#  wavefront obj file written by the visualization toolkit

mtllib liverkyste.mtl

v 143.58099365234375 156.24600219726562 169.14300537109375
v 143.03700256347656 157.06700134277344 168.48399353027344
v 152.20899963378906 167.36500549316406 179.46499633789062
v 151.60299682617188 167.4219970703125 180.99099731445312
v 152.88299560546875 161.56399536132812 184.01100158691406
v 151.57200622558594 161.906005859375 185.08700561523438
v 144.70599365234375 168.95399475097656 181.98800659179688
v 144.2899932861328 169.37600708007812 180.92599487304688
v 155.4810028076172 144.5919952392578 181.0050048828125
v 155.1490020751953 143.77499389648438 181.5989990234375
v 151.19700622558594 168.30999755859375 179.83599853515625
v 142.3280029296875 151.26199340820312 184.90699768066406
v 141.78900146484375 150.6999969482422 183.09800720214844
v 141.44500732421875 157.10000610351562 168.9499969482422
v 141.25599670410156 157.75 168.4510040283203
v 140.43899536132812 157.2729949951172 169.1219940185547
v 142.2010040283203 157.56700134277344 168.3979949951172
v 145.01300048828125 160.9029998779297 186
v 142.56100463867188 160.1020050048828 185.56100463867188
v 142.1649932861328 156.51400756835938 169.20799255371094
v 143.92100524902344 157.01800537109375 168.43299865722656
v 143.0030059814453 157.8000030517578 168.12600708007812
v 143.70899963378906 157.67100524902344 168.1219940185547
v 144.79100036621094 156.75100708007812 168.90499877929688
v 144.6479949951172 157.64100646972656 168.24899291992188
v 145.77000427246094 163.81300354003906 186
v 145.11300659179688 164.9250030517578 185.95799255371094
v 135.95899963378906 157.0679931640625 173.43800354003906
v 136.48399353027344 156.52999877929688 172.22900390625
v 149.51300048828125 165.26699829101562 184.8520050048828
v 149.80299377441406 163.94400024414062 185.41200256347656
v 138.31399536132812 155.63999938964844 182.00399780273438
v 137.33599853515625 156.35400390625 180.90199279785156
v 143.36900329589844 163.23899841308594 169.03700256347656
v 143.40499877929688 162.53799438476562 168.41200256347656
v 144.4010009765625 166.57899475097656 184.85899353027344
v 145.11199951171875 166.72799682617188 184.968994140625
v 139.7790069580078 157.9969940185547 169.0019989013672
v 140.49899291992188 157.92100524902344 168.5489959716797
v 140.2830047607422 158.64999389648438 168.38099670410156
v 141.08999633789062 158.5240020751953 168.1649932861328
v 141.95599365234375 158.4770050048828 168.09800720214844
v 142.8159942626953 158.4810028076172 168.05099487304688
v 143.6750030517578 158.53500366210938 168.01699829101562
v 144.52000427246094 158.51600646972656 168.02999877929688
v 145.90699768066406 157.80999755859375 168.8280029296875
v 145.30999755859375 158.46099853515625 168.18800354003906
v 140.88699340820312 161.83999633789062 184.38499450683594
v 140.37100219726562 162.60699462890625 184.05799865722656
v 138.06199645996094 157.22999572753906 182.08900451660156
v 137.70199584960938 159.05099487304688 181.77200317382812
v 154.12899780273438 143.77999877929688 180.37100219726562
v 154.11700439453125 143.13499450683594 181.2449951171875
v 145.86199951171875 143.10499572753906 181.07400512695312
v 145.57899475097656 143.8520050048828 180.8939971923828
v 144.5260009765625 144.55799865722656 183.21299743652344
v 144.41000366210938 145.2169952392578 182.11599731445312
v 154.94400024414062 146.23500061035156 180.0489959716797
v 154.94900512695312 145.3769989013672 180.09300231933594
v 154.6320037841797 154.52499389648438 185.98199462890625
v 153.22000122070312 153.875 186
v 145.98800659179688 156.26699829101562 169.81300354003906
v 152.68299865722656 166.16200256347656 180.50999450683594
v 146.177001953125 148.38900756835938 186
v 145.36199951171875 148.85499572753906 186
v 140.33900451660156 159.47500610351562 168.2259979248047
v 141.03399658203125 159.37600708007812 168.06399536132812
v 141.8820037841797 159.33799743652344 168.01699829101562
v 142.75100708007812 159.3800048828125 168.0070037841797
v 143.53199768066406 159.33200073242188 168.0050048828125
v 144.6280059814453 159.69500732421875 168.072998046875
v 145.33700561523438 159.26100158691406 168.12100219726562
v 148.08799743652344 151.2740020751953 174.20700073242188
v 149.7530059814453 152.79400634765625 173.51100158691406
v 146.08599853515625 159.15499877929688 168.52999877929688
v 140.0229949951172 161.44200134277344 169.1320037841797
v 140.32699584960938 161.0070037841797 168.54600524902344
v 152.78700256347656 166.6179962158203 178.8300018310547
v 152.33399963378906 146.83700561523438 178.3179931640625
v 153.15199279785156 146.21400451660156 179.375
v 147.0050048828125 164.0780029296875 186
v 145.82000732421875 162.74000549316406 186
v 140.1269989013672 160.14999389648438 168.43699645996094
v 139.2729949951172 159.74600219726562 169.09100341796875
v 139.54600524902344 159.02999877929688 168.84300231933594
v 141.02099609375 160.2209930419922 168.06500244140625
v 141.8719940185547 160.20799255371094 168.0050048828125
v 142.62600708007812 160.14500427246094 168
v 143.66900634765625 160.4770050048828 168.03799438476562
v 156.11599731445312 160.24200439453125 180.50100708007812
v 155.9290008544922 160.968994140625 178.16400146484375
v 144.40199279785156 162.5989990234375 168.77200317382812
v 145.76100158691406 162.73800659179688 169.4199981689453
v 156.2259979248047 160.0449981689453 179.14500427246094
v 157.49200439453125 148.91099548339844 182.156005859375
v 157.82699584960938 149.5070037841797 183.26800537109375
v 148.72999572753906 150.3509979248047 186
v 147.19200134277344 148.39700317382812 186
v 145.3249969482422 166.1649932861328 185.64199829101562
v 145.9459991455078 160.1529998779297 168.4980010986328
v 147.07699584960938 158.99000549316406 169.29600524902344
v 147.00900268554688 160.1649932861328 169.23500061035156
v 139.56700134277344 160.54100036621094 169.0679931640625
v 141.0050048828125 161.0469970703125 168.17999267578125
v 141.86199951171875 161.06900024414062 168.0279998779297
v 142.7729949951172 161.01300048828125 168.01300048828125
v 141.64300537109375 152.0469970703125 183.7530059814453
v 141.0399932861328 153.78199768066406 183.6280059814453
v 146.36900329589844 142.80799865722656 183.67300415039062
v 145.54200744628906 143.11199951171875 183.48599243164062
v 143.47900390625 168.48199462890625 182.38299560546875
v 143.89599609375 168.93499755859375 181.7530059814453
v 150.7570037841797 161.41000366210938 185.77200317382812
v 149.8470001220703 161.28399658203125 185.95599365234375
v 142.41099548339844 155.4010009765625 169.82899475097656
v 140.99000549316406 151.61300659179688 182.10800170898438
v 140.11900329589844 152.48300170898438 181.66299438476562
v 143.02200317382812 168.9250030517578 180.8419952392578
v 149.03500366210938 166.4530029296875 184.29800415039062
v 148.2030029296875 167.0749969482422 184.2830047607422
v 145.1719970703125 161.24200439453125 168.47500610351562
v 146.64500427246094 161.25900268554688 169.26100158691406
v 141.7429962158203 163.81399536132812 184.9010009765625
v 157.34800720214844 150.63299560546875 184.8520050048828
v 157.7830047607422 149.83599853515625 184.3990020751953
v 140.9290008544922 161.7989959716797 168.5780029296875
v 141.79100036621094 161.89300537109375 168.2259979248047
v 142.70399475097656 161.88999938964844 168.11300659179688
v 143.7989959716797 161.7530059814453 168.1820068359375
v 149.14599609375 147.94000244140625 186
v 150.21299743652344 150.26100158691406 186
v 150.59100341796875 150.37399291992188 176.03199768066406
v 151.00999450683594 149.24000549316406 177.2259979248047
v 146.0989990234375 169.98300170898438 180.197998046875
v 144.89700317382812 170.093994140625 178.9739990234375
v 145.81100463867188 142.60299682617188 182.8470001220703
v 153.1280059814453 166.24600219726562 177.5919952392578
v 143.58999633789062 164.2449951171875 185.9459991455078
v 142.8719940185547 164.9010009765625 185.20899963378906
v 146.23500061035156 147.10800170898438 186
v 145.13600158691406 147.44200134277344 185.9550018310547
v 146.6230010986328 142.1840057373047 182.62399291992188
v 151.48199462890625 151.9669952392578 175.13099670410156
v 149.63800048828125 151.0489959716797 175.05599975585938
v 153.2760009765625 155.87600708007812 173.5800018310547
v 153.69200134277344 155.26600646972656 174.3990020751953
v 137.572998046875 162.5449981689453 181
v 137.70799255371094 163.8090057373047 180.5290069580078
v 145.36199951171875 151.4739990234375 186
v 144.48899841308594 150.6009979248047 186
v 157.07699584960938 149.29100036621094 181.17999267578125
v 157.54600524902344 149.9429931640625 182.04600524902344
v 141.6020050048828 162.56500244140625 168.75900268554688
v 142.4929962158203 162.6529998779297 168.52999877929688
v 139.0970001220703 161.98300170898438 183.12100219726562
v 139.27499389648438 163.29800415039062 183.00999450683594
v 155.7830047607422 143.6649932861328 183.25399780273438
v 155.78599548339844 144.45799255371094 184.01600646972656
v 157.78900146484375 146.9499969482422 183.0760040283203
v 157.78799438476562 147.22999572753906 184.4409942626953
v 148.552001953125 168.3939971923828 182.9290008544922
v 149.1199951171875 168.72900390625 181.94700622558594
v 142.9199981689453 148.57899475097656 180.1909942626953
v 143.53700256347656 148.76400756835938 178.74200439453125
v 151.218994140625 154.3489990234375 173.12899780273438
v 154.0500030517578 162.96400451660156 181.7449951171875
v 153.29800415039062 164.6820068359375 181.21600341796875
v 156.6510009765625 145.28900146484375 184.17599487304688
v 157.44500732421875 146.24899291992188 184.3780059814453
v 144.46400451660156 147.31900024414062 180.0019989013672
v 145.25399780273438 146.57899475097656 179.95199584960938
v 157.76400756835938 150.4980010986328 183.25799560546875
v 142.052001953125 163.39199829101562 169.3470001220703
v 138.36900329589844 167.12600708007812 176.8780059814453
v 138.63800048828125 167.29200744628906 175.00900268554688
v 149.6790008544922 146.5749969482422 186
v 148.85499572753906 145.38400268554688 185.9510040283203
v 143.1009979248047 147.36199951171875 183.0399932861328
v 143.1999969482422 147.68499755859375 184.66200256347656
v 157.54200744628906 152.96099853515625 184
v 157.1269989013672 153.43499755859375 184.9510040283203
v 151.85299682617188 163.35899353027344 183.91000366210938
v 150.82000732421875 163.3800048828125 184.8300018310547
v 139.96400451660156 153.80499267578125 171.06300354003906
v 139.48899841308594 154.6580047607422 170.4510040283203
v 155.61599731445312 161.17799377441406 180.41200256347656
v 154.08900451660156 144.55499267578125 184.63699340820312
v 153.2530059814453 144.53500366210938 184.8209991455078
v 140.9320068359375 154.5570068359375 170.35699462890625
v 147.3769989013672 157.86500549316406 169.71400451660156
v 147.72500610351562 156.49000549316406 170.36099243164062
v 145.69700622558594 144.3179931640625 184.3780059814453
v 144.85899353027344 145.01199340820312 184.91900634765625
v 149.58399963378906 169.3179931640625 177.4250030517578
v 150.1529998779297 168.91299438476562 177.08799743652344
v 156.16299438476562 145.70199584960938 181.08799743652344
v 155.98399353027344 144.54400634765625 181.70799255371094
v 140.12399291992188 161.1199951171875 184
v 151.0240020751953 168.40499877929688 177.04200744628906
v 139.2760009765625 166.45599365234375 180.2989959716797
v 138.36500549316406 165.5070037841797 180.0989990234375
v 152.3470001220703 146.23500061035156 186
v 152.40499877929688 147.3990020751953 186
v 140.53199768066406 157.15899658203125 184.21600341796875
v 139.18800354003906 156.1719970703125 183.1009979248047
v 139.80599975585938 151.375 178.94500732421875
v 138.74200439453125 152.4429931640625 178.98300170898438
v 154.21499633789062 163.93600463867188 180.28700256347656
v 153.31300354003906 165.54400634765625 179.60000610351562
v 140.6009979248047 163.91099548339844 183.9029998779297
v 138.552001953125 155.1199951171875 170.5189971923828
v 139.09800720214844 155.94200134277344 170.072998046875
v 140.2239990234375 155.54400634765625 170.00599670410156
v 157.72000122070312 152.3470001220703 183
v 138.19200134277344 152.35699462890625 175.44500732421875
v 138.6840057373047 151.95199584960938 177.01100158691406
v 136.31900024414062 156.9340057373047 178.28399658203125
v 136.04400634765625 157.4550018310547 177.45199584960938
v 142.45599365234375 154.24200439453125 170.54100036621094
v 156.70899963378906 144.61000061035156 182.63699340820312
v 156.5679931640625 144.55999755859375 183.67599487304688
v 156.5279998779297 149.61599731445312 180.2779998779297
v 156.4969940185547 148.62399291992188 180.63999938964844
v 157.40499877929688 148.60400390625 185.59800720214844
v 157.82400512695312 148.18899536132812 184.63699340820312
v 140.34300231933594 151.55999755859375 180.61500549316406
v 148.83799743652344 167.52200317382812 183.71099853515625
v 137.7729949951172 153.15499877929688 178.13800048828125
v 137.2830047607422 154.35699462890625 179.0489959716797
v 143.81500244140625 165.45599365234375 185.64999389648438
v 144.5290069580078 166.1540069580078 185.49899291992188
v 143.5019989013672 155.1479949951172 169.94000244140625
v 157.72000122070312 153.22000122070312 183
v 143.7519989013672 154.03399658203125 170.81500244140625
v 144.51499938964844 155.5030059814453 169.8280029296875
v 148.91400146484375 157.9510040283203 170.19200134277344
v 147.37600708007812 141.98199462890625 181.43699645996094
v 146.8000030517578 142.35299682617188 181.24099731445312
v 137.68499755859375 155.0449981689453 180.73800659179688
v 139.01100158691406 154.4720001220703 182.01800537109375
v 155.86300659179688 145.36599731445312 184.7169952392578
v 155.0050048828125 145.4149932861328 185.26400756835938
v 150.552001953125 152.10400390625 186
v 157.5330047607422 153.8459930419922 184
v 157.0970001220703 154.31300354003906 184.9290008544922
v 149.77099609375 144.63999938964844 185.6540069580078
v 149.72799682617188 145.38400268554688 185.9510040283203
v 154.9980010986328 162.31100463867188 180.54100036621094
v 144.50399780273438 167.12600708007812 184.2779998779297
v 143.63999938964844 167.18099975585938 183.97000122070312
v 142.66700744628906 169.27499389648438 174.32200622558594
v 143.13999938964844 169.7010040283203 175.28799438476562
v 137.79299926757812 155.30499267578125 171.0399932861328
v 148.2449951171875 169.2740020751953 180.96400451660156
v 147.70799255371094 169.7519989013672 179.83299255371094
v 138.10800170898438 155.92300415039062 170.42599487304688
v 143.9770050048828 151.322998046875 185.9510040283203
v 142.0449981689453 164.49000549316406 169.91900634765625
v 147.27099609375 169.06900024414062 181.91099548339844
v 146.66799926757812 168.72000122070312 182.6320037841797
v 142.52499389648438 149.1510009765625 179.17599487304688
v 150.20799255371094 168.33200073242188 181.54600524902344
v 154.95599365234375 146.2519989013672 185.91700744628906
v 154.8939971923828 143.06300354003906 182.23800659179688
v 155.7899932861328 143.75999450683594 182.2740020751953
v 156.27200317382812 159.06300354003906 178.9669952392578
v 156.45799255371094 158.17999267578125 180.46499633789062
v 152.36700439453125 142.47999572753906 181.36000061035156
v 151.45399475097656 142.30499267578125 181.55599975585938
v 155.87100219726562 146.28700256347656 185.7220001220703
v 155.83399963378906 147.10400390625 185.97900390625
v 143.6820068359375 146.23899841308594 183.73699951171875
v 143.43099975585938 146.6479949951172 182.68600463867188
v 140.4530029296875 150.76699829101562 178.9739990234375
v 156.08999633789062 150.20399475097656 179.7270050048828
v 156.94400024414062 150.46299743652344 180.78799438476562
v 155.8260040283203 148.8419952392578 186
v 155.83099365234375 149.69200134277344 185.97900390625
v 149.1909942626953 149.03199768066406 177.12399291992188
v 147.0489959716797 147.7310028076172 178.14199829101562
v 143.4029998779297 146.95799255371094 184.3419952392578
v 149.62100219726562 166.99200439453125 183.6649932861328
v 142.08900451660156 149.7270050048828 181.88499450683594
v 142.33099365234375 150.3459930419922 184.5989990234375
v 141.77499389648438 149.76300048828125 180.0540008544922
v 136.01199340820312 159.281005859375 178.48699951171875
v 135.5189971923828 159.5760040283203 176.7519989013672
v 144.3070068359375 145.21600341796875 184.37600708007812
v 144.04600524902344 145.53599548339844 183.26800537109375
v 153.21499633789062 146.2310028076172 185.97900390625
v 152.33700561523438 145.37899780273438 185.91700744628906
v 149.13800048828125 169.44000244140625 179.3090057373047
v 145.46499633789062 142.9510040283203 182.34800720214844
v 146.7779998779297 154.95199584960938 170.89100646972656
v 147.39100646972656 141.7969970703125 182.82699584960938
v 144.44900512695312 165.47999572753906 185.88800048828125
v 139.01600646972656 151.6510009765625 175.5500030517578
v 157.5449981689453 150.85000610351562 182.02099609375
v 150.2519989013672 169.11000061035156 179.21499633789062
v 149.5959930419922 169.1300048828125 180.62399291992188
v 145.19500732421875 154.5290069580078 170.73500061035156
v 146.0540008544922 143.50399780273438 183.96800231933594
v 138.4219970703125 157.00599670410156 170.07400512695312
v 156.6699981689453 148.80599975585938 185.94400024414062
v 156.5399932861328 149.5279998779297 185.93699645996094
v 146.5679931640625 149.6439971923828 186
v 148.677001953125 147.39100646972656 178.16000366210938
v 143.8979949951172 169.7740020751953 179.75799560546875
v 143.69200134277344 170.0800018310547 177.80999755859375
v 147.51100158691406 143.26300048828125 184.2270050048828
v 147.41099548339844 144.13699340820312 184.97500610351562
v 155.3520050048828 160.1580047607422 183
v 155.85400390625 159.88900756835938 182.1300048828125
v 154.95399475097656 161.38600158691406 181.9510040283203
v 139.97500610351562 156.5500030517578 169.70599365234375
v 140.93699645996094 156.4770050048828 169.5540008544922
v 144.06900024414062 145.94500732421875 184.69200134277344
v 141.31300354003906 155.68099975585938 169.85800170898438
v 153.23399353027344 145.3719940185547 179.94700622558594
v 137.322998046875 153.8489990234375 173.28900146484375
v 137.36500549316406 154.35699462890625 172.5570068359375
v 148.8070068359375 163.69500732421875 170.9080047607422
v 150.01199340820312 162.9010009765625 171.13299560546875
v 148.71400451660156 165.2760009765625 185.64599609375
v 155.22000122070312 149.53700256347656 178.88499450683594
v 155.01699829101562 148.38900756835938 179.2310028076172
v 150.36700439453125 168.77000427246094 180.6280059814453
v 139.07200622558594 167.77499389648438 177.86500549316406
v 151.16000366210938 166.90699768066406 182.12399291992188
v 150.39300537109375 166.9290008544922 183.00799560546875
v 145.37399291992188 169.5 181.1529998779297
v 155.68800354003906 159.11599731445312 183.48399353027344
v 156.25599670410156 158.65899658203125 182.40899658203125
v 139.47999572753906 152.33599853515625 173.28900146484375
v 138.30099487304688 153.2830047607422 172.9149932861328
v 151.93099975585938 151.39100646972656 186
v 152.01400756835938 153.552001953125 186
v 148.9739990234375 153.7310028076172 172.48199462890625
v 150.0780029296875 154.7729949951172 172.3090057373047
v 150.85899353027344 144.05299377441406 185
v 149.98599243164062 144.05299377441406 185
v 147.1739959716797 144.85499572753906 185.63699340820312
v 147.1320037841797 145.8939971923828 185.94700622558594
v 157.7429962158203 146.28199768066406 183.28700256347656
v 144.22000122070312 152.24400329589844 185.9510040283203
v 144.9290008544922 169.80599975585938 180.2050018310547
v 147.88400268554688 146.18800354003906 178.9739990234375
v 148.23199462890625 145.24000549316406 179.72799682617188
v 155.83900451660156 147.9810028076172 186
v 154.96600341796875 147.9810028076172 186
v 155.68800354003906 146.197998046875 180.35800170898438
v 154.927001953125 144.58799743652344 180.37100219726562
v 152.3459930419922 165.65199279785156 181.79200744628906
v 151.4770050048828 165.4040069580078 183.12600708007812
v 154.97799682617188 147.1219940185547 179.98199462890625
v 155.70899963378906 147.06500244140625 180.3419952392578
v 156.35299682617188 147.6719970703125 180.968994140625
v 147.64199829101562 160.3979949951172 186
v 147.5449981689453 162.822998046875 186
v 153.7550048828125 161.42999267578125 173.4320068359375
v 154.45599365234375 160.45799255371094 174.0189971923828
v 146.75999450683594 143.68899536132812 184.29400634765625
v 136.73899841308594 157.30299377441406 171.77499389648438
v 137.85000610351562 157.8990020751953 170.38600158691406
v 143.6580047607422 149.7760009765625 185.94400024414062
v 142.9149932861328 149.98599243164062 185.61599731445312
v 137.4010009765625 156.4969940185547 170.9320068359375
v 145.03900146484375 143.60699462890625 182.947998046875
v 151.7100067138672 156.8990020751953 186
v 150.6009979248047 154.09300231933594 186
v 151.9029998779297 150.64199829101562 176.32200622558594
v 142.49899291992188 149.56199645996094 184.82899475097656
v 139.38299560546875 157.22999572753906 169.62100219726562
v 136.0240020751953 158.16400146484375 173.3990020751953
v 136.33299255371094 159.16200256347656 172.73599243164062
v 153.14999389648438 150.60699462890625 177.0500030517578
v 153.84500122070312 149.37899780273438 177.9340057373047
v 135.75 157.39500427246094 176.2050018310547
v 135.61000061035156 157.6840057373047 174.9029998779297
v 143.1929931640625 169.74000549316406 178.9530029296875
v 155.8260040283203 155.46499633789062 185.73699951171875
v 140.08099365234375 165.03799438476562 182.9239959716797
v 141.01600646972656 165.968994140625 183.31399536132812
v 143.66099548339844 148.03599548339844 179.89100646972656
v 143.7949981689453 146.9550018310547 181.04600524902344
v 145.44400024414062 167.54200744628906 184.0659942626953
v 145.9770050048828 166.7519989013672 185
v 153.5590057373047 152.73500061035156 186
v 151.4739990234375 146.23500061035156 186
v 143.718994140625 165.95799255371094 184.9949951171875
v 146.15199279785156 152.6790008544922 186
v 153.22000122070312 142.91600036621094 183.60499572753906
v 153.17300415039062 143.60499572753906 184.03399658203125
v 146.2449951171875 146.24600219726562 185.95399475097656
v 145.98500061035156 167.4980010986328 171.7949981689453
v 146.02699279785156 166.58700561523438 171.08999633789062
v 150.1750030517578 165.96400451660156 183.91799926757812
v 138.6230010986328 152.3560028076172 174.1750030517578
v 156.5489959716797 157.6230010986328 183.16200256347656
v 155.9459991455078 157.5850067138672 184.2689971923828
v 145.3679962158203 146.29600524902344 185.91700744628906
v 154.13099670410156 145.49200439453125 185.64599609375
v 136.5330047607422 162.3679962158203 173.5760040283203
v 136.98599243164062 162.99400329589844 172.9550018310547
v 154.20899963378906 148.0399932861328 186
v 154.09300231933594 148.85499572753906 186
v 136.8820037841797 158.24899291992188 171.6199951171875
v 137.6929931640625 158.97799682617188 170.50599670410156
v 142.9759979248047 152.61199951171875 185.73300170898438
v 142.2270050048828 150.43899536132812 174.80599975585938
v 143.4290008544922 150.6739959716797 174.14999389648438
v 142.7570037841797 153.96600341796875 185.40699768066406
v 138.92999267578125 158.14599609375 169.58099365234375
v 147.8070068359375 154.26699829101562 186
v 146.04100036621094 154.86900329589844 186
v 152.375 148.76600646972656 177.6300048828125
v 142.43099975585938 161.28199768066406 185.71600341796875
v 142.54600524902344 162.54299926757812 185.78399658203125
v 156.55299377441406 153.8419952392578 185.64700317382812
v 136.11599731445312 162.68899536132812 176.99200439453125
v 136.2429962158203 162.54600524902344 174.90699768066406
v 157.82200622558594 147.7239990234375 183.30299377441406
v 156.56100463867188 152.96099853515625 185.6540069580078
v 146.31700134277344 169.45899963378906 181.51300048828125
v 145.22999572753906 143.66099548339844 181.79800415039062
v 156.7570037841797 145.46499633789062 181.8699951171875
v 157.24400329589844 155.4199981689453 181.3070068359375
v 157.1739959716797 154.0919952392578 180.8040008544922
v 144.65199279785156 145.68099975585938 185.4290008544922
v 144.4219970703125 146.46299743652344 185.62899780273438
v 136.62600708007812 154.8730010986328 177.79600524902344
v 136.39700317382812 154.6959991455078 176.41299438476562
v 150 142.1439971923828 180.2729949951172
v 149.8350067138672 141.80999755859375 180.93499755859375
v 151.21600341796875 152.9320068359375 174.15899658203125
v 136.93299865722656 159.1179962158203 171.52699279785156
v 143.9290008544922 153.26300048828125 185.9510040283203
v 153.74400329589844 160.3699951171875 184.1269989013672
v 152.42799377441406 160.63699340820312 184.97999572753906
v 140.9969940185547 155.26800537109375 184.10800170898438
v 138.61700439453125 159.04600524902344 169.66799926757812
v 154.8800048828125 156.2030029296875 185.91900634765625
v 153.50399780273438 155.54100036621094 186
v 136.65199279785156 157.4149932861328 179.80499267578125
v 146.49400329589844 167.3179931640625 184.29600524902344
v 140.03199768066406 166.1959991455078 181.6280059814453
v 153.25799560546875 145.41400146484375 185.73399353027344
v 155.906005859375 156.38400268554688 185.26300048828125
v 156.8209991455078 155.44200134277344 184.73199462890625
v 155.7469940185547 159.3990020751953 175.9340057373047
v 155.75399780273438 158.18499755859375 176.03500366210938
v 137.0229949951172 159.1179962158203 180.83700561523438
v 137.31100463867188 160.13900756835938 181.20599365234375
v 148.56900024414062 159.16700744628906 169.91900634765625
v 157.82899475097656 148.60499572753906 183.3209991455078
v 135.83599853515625 159.60699462890625 174.0590057373047
v 149.9320068359375 159.11099243164062 170.34500122070312
v 138.9239959716797 167.9669952392578 175.96299743652344
v 139.3489990234375 167.9759979248047 174.927001953125
v 154.08799743652344 146.24200439453125 185.95399475097656
v 138.49099731445312 162.97900390625 182.07400512695312
v 142.468994140625 148.6020050048828 182.85499572753906
v 142.7740020751953 148.1219940185547 181.84300231933594
v 136.48599243164062 159.69200134277344 179.66700744628906
v 136.52699279785156 160.9429931640625 179.7010040283203
v 136.75 155.96400451660156 179.08299255371094
v 144.92599487304688 157.43899536132812 186
v 146.04100036621094 160.3979949951172 186
v 154.80299377441406 142.9600067138672 183.25399780273438
v 146.9429931640625 169.66900634765625 180.76300048828125
v 138.593994140625 159.93499755859375 169.8000030517578
v 150.41799926757812 165.40499877929688 172.38699340820312
v 151.23500061035156 164.7010040283203 172.73300170898438
v 142.18600463867188 153.13099670410156 171.56700134277344
v 142.53700256347656 152.08700561523438 172.45399475097656
v 156.2550048828125 159.36599731445312 180.83399963378906
v 151.44700622558594 160.45799255371094 185.7169952392578
v 149.76400756835938 159.40899658203125 186
v 145.6199951171875 148.61300659179688 177.4739990234375
v 148.24600219726562 144.05799865722656 185
v 154.06199645996094 143.6269989013672 183.99600219726562
v 144.67100524902344 168.05299377441406 172.0260009765625
v 147.98199462890625 167.8939971923828 183.6929931640625
v 149.84100341796875 160.10000610351562 170.28500366210938
v 139.99099731445312 167.98800659179688 173.93899536132812
v 148.63900756835938 155.23800659179688 171.4499969482422
v 147.59300231933594 153.66200256347656 172.04600524902344
v 157.72300720214844 151.46400451660156 183.02099609375
v 157.572998046875 151.29400634765625 183.9770050048828
v 154.90899658203125 163.24000549316406 178.58200073242188
v 155.37399291992188 162.1540069580078 176.74099731445312
v 157.3990020751953 147.72000122070312 185.5749969482422
v 156.6699981689453 147.07699584960938 185.8800048828125
v 140.0030059814453 154.76199340820312 183.1929931640625
v 135.7969970703125 158.39999389648438 177.4219970703125
v 138.75100708007812 160.99400329589844 170.07000732421875
v 137.52099609375 161.21600341796875 171.42599487304688
v 137.5959930419922 159.9949951171875 170.83299255371094
v 150.89199829101562 149.06199645996094 186
v 147.96800231933594 165.99400329589844 185.5749969482422
v 147.2729949951172 162.31900024414062 169.83900451660156
v 148.0189971923828 161.31500244140625 169.85499572753906
v 144.71800231933594 144.55299377441406 184.1009979248047
v 154.09300231933594 145.36199951171875 180
v 148.02499389648438 144.66200256347656 185.64700317382812
v 152.71099853515625 153.47900390625 174.83900451660156
v 148.12100219726562 164.86900329589844 170.94500732421875
v 156.9409942626953 148.16600036621094 181.55599975585938
v 152.38600158691406 144.54200744628906 185.26400756835938
v 151.51100158691406 144.63999938964844 185.64199829101562
v 148.3179931640625 160.14300537109375 169.8249969482422
v 149.48699951171875 161.13299560546875 170.17100524902344
v 149.1219940185547 156.70799255371094 170.76300048828125
v 146.1020050048828 142.5500030517578 181.62399291992188
v 151.08799743652344 159.6009979248047 171.08399963378906
v 138.0030059814453 161.6300048828125 181.9199981689453
v 147.06700134277344 151.14100646972656 186
v 140.46400451660156 167.5749969482422 180.3979949951172
v 141.64199829101562 168.85000610351562 179.4029998779297
v 151.86199951171875 148.02999877929688 186
v 136.94000244140625 153.64999389648438 176.95399475097656
v 136.6320037841797 158.6719970703125 179.96800231933594
v 154.09300231933594 147.10800170898438 186
v 157.41299438476562 146.26300048828125 182.343994140625
v 153.697998046875 147.44700622558594 178.88900756835938
v 140.62600708007812 162.58399963378906 169.39300537109375
v 139.39999389648438 151.69700622558594 174.44000244140625
v 144.7530059814453 147.94900512695312 179.01400756835938
v 152.3070068359375 155.71299743652344 172.8699951171875
v 142.5989990234375 156.3979949951172 185.38900756835938
v 143.8209991455078 158.7220001220703 185.97500610351562
v 143.875 170.06300354003906 175.77999877929688
v 143.88999938964844 146.0659942626953 182.23899841308594
v 144.63499450683594 145.96600341796875 180.99000549316406
v 147.7050018310547 168.47999572753906 182.9510040283203
v 152.48599243164062 155.97799682617188 186
v 153.1790008544922 157.9080047607422 185.94400024414062
v 146.02999877929688 170.1999969482422 178.58099365234375
v 141.26499938964844 150.0959930419922 178.9949951171875
v 140.9709930419922 150.218994140625 177.09300231933594
v 156.95599365234375 152.8070068359375 180.54100036621094
v 151.4739990234375 145.38400268554688 185.9510040283203
v 150.6439971923828 144.63999938964844 185.6540069580078
v 142.87899780273438 169.83599853515625 177.1179962158203
v 141.6179962158203 158.36900329589844 185.0399932861328
v 150.74400329589844 160.9080047607422 170.79600524902344
v 148.79100036621094 162.45199584960938 170.3179931640625
v 150.1479949951172 161.85499572753906 170.5959930419922
v 157.5330047607422 154.28599548339844 181.9080047607422
v 153.4219970703125 165.5290069580078 176.5279998779297
v 145.94200134277344 146.74000549316406 179.26600646972656
v 154.96600341796875 153.22000122070312 186
v 153.656005859375 151.91000366210938 186
v 154.94200134277344 143.63299560546875 183.92799377441406
v 138.42300415039062 162.11000061035156 170.8520050048828
v 139.4949951171875 161.9810028076172 169.8769989013672
v 139.4949951171875 163.18099975585938 170.32899475097656
v 138.7050018310547 166.7519989013672 179.14500427246094
v 150.6009979248047 146.5260009765625 186
v 142.43800354003906 148.9340057373047 181.22500610351562
v 150.3419952392578 143.48699951171875 184.29600524902344
v 149.72799682617188 142.8520050048828 183.70700073242188
v 153.0030059814453 159.43899536132812 185.38400268554688
v 151.8800048828125 158.8520050048828 185.9720001220703
v 140.82000732421875 152.6719970703125 182.65899658203125
v 146.08700561523438 168.2050018310547 183.31100463867188
v 144.35499572753906 154.98699951171875 185.97500610351562
v 154.96600341796875 148.85499572753906 186
v 156.58200073242188 151.218994140625 185.6580047607422
v 155.947998046875 150.60499572753906 185.94500732421875
v 136.19400024414062 161.96099853515625 178.59500122070312
v 154.92799377441406 144.4510040283203 184.26499938964844
v 138.73899841308594 158.73800659179688 182.9510040283203
v 157.2949981689453 155.822998046875 183.07400512695312
v 157.593994140625 154.9340057373047 182.58999633789062
v 147.92300415039062 147.86500549316406 186
v 145.59500122070312 150.54200744628906 186
v 143.51499938964844 169.36500549316406 180.42100524902344
v 147.99099731445312 142.71400451660156 183.93699645996094
v 155.7519989013672 160.60299682617188 176.1929931640625
v 153.2100067138672 142.51400756835938 182.64700317382812
v 139.7760009765625 159.94500732421875 183.79600524902344
v 138.80299377441406 160.33799743652344 182.93099975585938
v 140.83299255371094 163.67599487304688 169.88099670410156
v 137.38699340820312 153.09800720214844 175.62399291992188
v 155.1719970703125 161.2530059814453 175.24099731445312
v 142.5290069580078 148.8459930419922 184.36199951171875
v 155.48300170898438 161.9759979248047 178.76199340820312
v 146.19200134277344 166.1649932861328 185.6540069580078
v 146.843994140625 166.7469940185547 185
v 137.13400268554688 161.4199981689453 180.86399841308594
v 143.40499877929688 164.2259979248047 169.72500610351562
v 148.59100341796875 143.46099853515625 184.3249969482422
v 141.468994140625 161.78199768066406 185.052001953125
v 144.3699951171875 163.61199951171875 169.48399353027344
v 141.1179962158203 150.7030029296875 180.86199951171875
v 145.0989990234375 164.66900634765625 169.98599243164062
v 147.2530059814453 163.78900146484375 170.21400451660156
v 153.2550048828125 156.78700256347656 173.03799438476562
v 151.30599975585938 156.1020050048828 172.1320037841797
v 152.45899963378906 157.2429962158203 172.33399963378906
v 155.79600524902344 147.95700073242188 180.21299743652344
v 144.59300231933594 167.0229949951172 171.27999877929688
v 136.75 163.51499938964844 178.72300720214844
v 156.656005859375 150.281005859375 185.7760009765625
v 156.7259979248047 146.2519989013672 185.2239990234375
v 157.35400390625 146.99899291992188 185.42599487304688
v 148.38800048828125 164.17599487304688 185.9459991455078
v 144.11500549316406 162.822998046875 186
v 154.08299255371094 142.92300415039062 183.58599853515625
v 140.55499267578125 164.4669952392578 170.2270050048828
v 137.5469970703125 164.98599243164062 179.01800537109375
v 152.9290008544922 163.88900756835938 173.99400329589844
v 153.74200439453125 162.74600219726562 174.1300048828125
v 148.51699829101562 166.18600463867188 184.97500610351562
v 153.9499969482422 142.59500122070312 182.48399353027344
v 136.24600219726562 158.1820068359375 178.78900146484375
v 156.69000244140625 147.93800354003906 185.9510040283203
v 147.95700073242188 142.072998046875 183.45599365234375
v 150.99400329589844 167.97000122070312 175.4810028076172
v 151.50799560546875 166.84300231933594 174.51400756835938
v 139.48399353027344 158.72300720214844 183.73300170898438
v 148.8979949951172 144.63999938964844 185.6540069580078
v 153.04100036621094 164.99899291992188 174.96200561523438
v 147.6790008544922 166.66799926757812 184.97500610351562
v 147.06500244140625 166.14199829101562 185.64700317382812
v 150.66099548339844 164.6750030517578 184.23899841308594
v 149.45399475097656 146.70799255371094 178.3000030517578
v 147.5260009765625 165.32000732421875 185.91600036621094
v 154.91299438476562 157.33299255371094 185.64999389648438
v 155.8249969482422 157.093994140625 184.91000366210938
v 138.03799438476562 152.58399963378906 177.04299926757812
v 141.0570068359375 160.96600341796875 184.62399291992188
v 139.2449951171875 164.32400512695312 170.93899536132812
v 143.64199829101562 167.92100524902344 183.447998046875
v 140.2989959716797 158.42599487304688 184.13299560546875
v 140.61700439453125 159.552001953125 184.31500244140625
v 139.3719940185547 152.5469970703125 180.61900329589844
v 138.29299926757812 153.70700073242188 180.57899475097656
v 141.72799682617188 165.39199829101562 170.27499389648438
v 157.42300415039062 145.572998046875 182.51499938964844
v 147.27499389648438 157.91799926757812 186
v 143.22300720214844 147.5780029296875 181.30499267578125
v 143.31399536132812 165.33700561523438 170.1179962158203
v 154.96600341796875 152.3470001220703 186
v 154.05099487304688 150.51699829101562 186
v 156.85699462890625 147.3560028076172 181.6909942626953
v 157.4320068359375 147.11700439453125 182.3209991455078
v 147.36300659179688 167.2969970703125 184.29299926757812
v 149.38299560546875 167.9149932861328 182.95700073242188
v 143.86199951171875 147.28199768066406 185.5260009765625
v 157.1269989013672 152.56199645996094 184.9510040283203
v 157.1320037841797 151.69500732421875 184.9510040283203
v 147.99000549316406 145.41400146484375 185.94400024414062
v 155.05599975585938 157.91600036621094 185.00399780273438
v 146.4429931640625 165.51300048828125 170.48800659179688
v 154.5019989013672 161.65899658203125 174.3769989013672
v 152.3990020751953 159.8249969482422 172.07000732421875
v 153.50100708007812 160.1179962158203 172.92999267578125
v 140.94900512695312 169.04400634765625 175.48300170898438
v 141.05599975585938 168.53199768066406 173.84100341796875
v 149.85800170898438 164.3509979248047 171.73699951171875
v 142.85400390625 167.9530029296875 182.7779998779297
v 137.3769989013672 165.41400146484375 177.4409942626953
v 157.7100067138672 154.10499572753906 183
v 140.27999877929688 165.3179931640625 170.7790069580078
v 153.22000122070312 148.85499572753906 186
v 141.17100524902344 166.1510009765625 171.0330047607422
v 142.88099670410156 166.38400268554688 170.80999755859375
v 156.86199951171875 155.281005859375 179.92100524902344
v 152.63800048828125 150.16400146484375 186
v 144.71099853515625 166.08700561523438 170.50799560546875
v 148.68699645996094 141.96400451660156 182.70199584960938
v 148.01100158691406 141.7519989013672 182.01100158691406
v 157.3459930419922 145.37899780273438 183.4239959716797
v 152.22799682617188 143.6179962158203 184.2519989013672
v 151.6439971923828 144.03799438476562 184.92799377441406
v 141.2259979248047 153.6820068359375 171.02499389648438
v 150.0189971923828 144.4250030517578 179.94700622558594
v 151.4029998779297 144.62399291992188 179.84100341796875
v 145.43099975585938 145.5240020751953 185.64599609375
v 144.44000244140625 148.9709930419922 177.50999450683594
v 140.77999877929688 169.02699279785156 177.52499389648438
v 151.23199462890625 163.26199340820312 172.05999755859375
v 152.25999450683594 162.3090057373047 172.35400390625
v 147.17999267578125 142.26600646972656 183.5850067138672
v 149.14599609375 152.05599975585938 186
v 148.83399963378906 141.74400329589844 181.26100158691406
v 149.47500610351562 141.8979949951172 182.03799438476562
v 145.63400268554688 169.01699829101562 182.1060028076172
v 149.25 142.302001953125 183.03799438476562
v 156.56100463867188 152.08799743652344 185.6540069580078
v 142.2689971923828 149.45799255371094 183.30599975585938
v 142.63400268554688 169.38699340820312 178.9409942626953
v 147.91799926757812 144.36599731445312 179.9720001220703
v 141.3800048828125 151.61099243164062 173.31700134277344
v 145.06500244140625 144.64500427246094 181.18099975585938
v 140.91900634765625 167.19700622558594 181.77000427246094
v 140.00799560546875 168.18299865722656 179.04200744628906
v 152.4600067138672 142.96099853515625 183.677001953125
v 151.56300354003906 142.77200317382812 183.322998046875
v 144.36399841308594 152.3179931640625 172.302001953125
v 147.98800659179688 146.67799377441406 186
v 147.10800170898438 147.10800170898438 186
v 157.07400512695312 156.68099975585938 182.302001953125
v 144.85699462890625 151.13099670410156 173.61700439453125
v 150.6009979248047 145.38400268554688 185.9510040283203
v 136.1439971923828 155.9530029296875 173.69200134277344
v 143.65199279785156 166.4510040283203 184.3560028076172
v 147.8459930419922 169.5449981689453 175.1699981689453
v 148.2790069580078 168.572998046875 173.50900268554688
v 157.1820068359375 151.66600036621094 181.1230010986328
v 157.59100341796875 151.73899841308594 182.13299560546875
v 138.35400390625 163.61099243164062 181.55099487304688
v 139.04800415039062 164.98500061035156 181.55099487304688
v 139.40499877929688 153.29200744628906 172.00799560546875
v 140.83799743652344 152.39999389648438 172.5760040283203
v 143.17100524902344 149.4459991455078 177.10000610351562
v 139.9949951171875 150.83200073242188 177.1020050048828
v 141.87899780273438 165.47000122070312 184.04200744628906
v 143.1060028076172 150.0189971923828 175.5050048828125
v 146.56900024414062 152.0760040283203 172.9969940185547
v 145.802001953125 153.49400329589844 171.697998046875
v 136.11500549316406 155.80799865722656 175.5449981689453
v 150.48300170898438 142.01699829101562 181.677001953125
v 146.27200317382812 150.43899536132812 174.86500549316406
v 148.3780059814453 152.57200622558594 173.0590057373047
v 141.83200073242188 167.25999450683594 182.91299438476562
v 146.38099670410156 165.1300048828125 185.9510040283203
v 138.01100158691406 154.35899353027344 171.83099365234375
v 143.71299743652344 169.2740020751953 173.4250030517578
v 138.75100708007812 154.3419952392578 171.0800018310547
v 140.68499755859375 153.1909942626953 171.65899658203125
v 135.78199768066406 161.80799865722656 177.14500427246094
v 135.86500549316406 161.7169952392578 175.5989990234375
v 142.01100158691406 166.3820037841797 183.89500427246094
v 157.81399536132812 149.07200622558594 184.6230010986328
v 148.4459991455078 166.66400146484375 171.89100646972656
v 147.48800659179688 166.0489959716797 171.17999267578125
v 143.39300537109375 152.8939971923828 171.73699951171875
v 144.46099853515625 153.3719940185547 171.5070037841797
v 142.781005859375 148.0050048828125 183.69200134277344
v 142.91799926757812 148.36099243164062 185.01800537109375
v 144.08200073242188 161.48500061035156 186
v 156.1280059814453 158.66000366210938 177.36199951171875
v 153.19500732421875 142.56700134277344 181.3560028076172
v 154.43299865722656 161.0399932861328 183.1280059814453
v 155.6009979248047 145.36500549316406 180.43699645996094
v 155.81700134277344 153.177001953125 185.9510040283203
v 155.1529998779297 159.79299926757812 174.8679962158203
v 153.7729949951172 163.96400451660156 175.2270050048828
v 154.43299865722656 163.91900634765625 176.6179962158203
v 148.56300354003906 148.9709930419922 186
v 142.55999755859375 163.72300720214844 185.76300048828125
v 139.25399780273438 157.7519989013672 183.43800354003906
v 156.35000610351562 157.64999389648438 178.84500122070312
v 142.14500427246094 152.9510040283203 184.78900146484375
v 147.28500366210938 169.32899475097656 174.16200256347656
v 145.26499938964844 143.83700561523438 183.72300720214844
v 137.68899536132812 153.14300537109375 174.13999938964844
v 142.3260040283203 151.18600463867188 173.5189971923828
v 153.30299377441406 147.5240020751953 186
v 144.85800170898438 169.08999633789062 172.93800354003906
v 155.38900756835938 155 176.86000061035156
v 154.0030059814453 153.6580047607422 175.8679962158203
v 150.03900146484375 168.45799255371094 175.2209930419922
v 137.98500061035156 165.9499969482422 178.61000061035156
v 136.6750030517578 154.7429962158203 173.3719940185547
v 136.9320068359375 155.5070037841797 172.11500549316406
v 155.86700439453125 152.19900512695312 178.76499938964844
v 140.81100463867188 164.7550048828125 183.73300170898438
v 144.46099853515625 167.91099548339844 183.66299438476562
v 155.8040008544922 157.093994140625 176.9499969482422
v 156.31900024414062 156.06199645996094 178.63400268554688
v 152.21800231933594 145.64599609375 179.29400634765625
v 150.63299560546875 145.77499389648438 179.04299926757812
v 142.93499755859375 168.718994140625 172.73800659179688
v 154.97000122070312 158.3509979248047 174.64599609375
v 152.65699768066406 166.2429962158203 175.50799560546875
v 155.01400756835938 149.97000122070312 186
v 148.78599548339844 142.69400024414062 183.7480010986328
v 150.8159942626953 142.36099243164062 182.65499877929688
v 149.46400451660156 143.4709930419922 184.3000030517578
v 148.18800354003906 168.85699462890625 182.12100219726562
v 141.89500427246094 164.71600341796875 184.3560028076172
v 142.76800537109375 165.593994140625 184.36599731445312
v 142.7570037841797 166.33900451660156 184.04200744628906
v 146.89300537109375 144.58399963378906 180.01600646972656
v 146.24000549316406 143.69000244140625 180.33999633789062
v 145.63699340820312 144.9770050048828 185.13299560546875
v 150.25399780273438 156.54100036621094 171.4320068359375
v 148.93800354003906 153.63499450683594 186
v 136.7899932861328 160.16700744628906 172.03700256347656
v 148.48199462890625 169.71200561523438 176.5850067138672
v 157.4459991455078 147.98500061035156 182.3090057373047
v 140.26499938964844 153.51699829101562 182.56399536132812
v 139.38900756835938 151.39700317382812 177.30799865722656
v 153.572998046875 162.1929931640625 182.87899780273438
v 151.927001953125 167.50100708007812 176.34500122070312
v 151.59300231933594 158.0970001220703 171.69000244140625
v 142.09500122070312 168.2449951171875 181.33200073242188
v 142.10299682617188 168.79200744628906 173.34500122070312
v 139.22999572753906 167.27999877929688 173.8300018310547
v 139.20399475097656 166.71299743652344 173.09500122070312
v 152.35499572753906 142.48699951171875 182.69700622558594
v 146.53799438476562 144.54200744628906 185
v 146.29299926757812 145.3459930419922 185.67300415039062
v 144.9459991455078 170.2100067138672 177.05499267578125
v 146.82899475097656 170.11099243164062 178.99600219726562
v 152.98300170898438 158.81300354003906 172.5260009765625
v 152.81399536132812 152.21299743652344 175.86000061035156
v 156.47999572753906 154.75100708007812 185.58299255371094
v 155.80099487304688 154.26400756835938 185.9219970703125
v 156.7740020751953 157.5919952392578 181.63800048828125
v 156.78799438476562 156.81399536132812 180.3990020751953
v 144.5070037841797 149.96200561523438 175.55599975585938
v 157.54200744628906 153.49099731445312 181.97900390625
v 140.31399536132812 167.54600524902344 172.9429931640625
v 151.19900512695312 146.65899658203125 178.281005859375
v 154.29200744628906 156.89700317382812 174.14999389648438
v 147.28399658203125 167.97300720214844 172.39999389648438
v 147.3489990234375 167.00399780273438 171.75399780273438
v 136.24000549316406 160.4149932861328 173.1540069580078
v 136.77999877929688 161.5709991455078 172.60499572753906
v 150.3070068359375 157.99200439453125 170.8070068359375
v 143.58399963378906 150.53599548339844 185.9409942626953
v 151.92599487304688 160.91200256347656 171.76300048828125
v 147.38499450683594 149.57400512695312 176.2790069580078
v 152.97000122070312 161.23599243164062 172.5959930419922
v 149.98800659179688 142.322998046875 182.90699768066406
v 144.01100158691406 168.6909942626953 172.45899963378906
v 145.73899841308594 169.25599670410156 173.20899963378906
v 148.73800659179688 146.177001953125 186
v 148.2050018310547 169.86000061035156 178.2830047607422
v 156.46099853515625 153.8419952392578 179.09300231933594
v 152.7169952392578 163.91200256347656 182.6280059814453
v 155.9040069580078 149.03700256347656 179.82000732421875
v 136.83599853515625 162.16000366210938 180.03199768066406
v 137.52999877929688 162.55099487304688 172.01199340820312
v 151.2270050048828 143.4980010986328 184.29299926757812
v 152.41099548339844 154.5290069580078 173.7899932861328
v 137.6909942626953 163.9980010986328 172.42799377441406
v 138.36900329589844 163.34500122070312 171.37899780273438
v 154.2270050048828 152.13099670410156 176.9759979248047
v 144.2519989013672 168.4770050048828 182.8769989013672
v 152.12899780273438 163.75100708007812 172.99899291992188
v 149.87399291992188 167.94700622558594 182.34100341796875
v 138.4669952392578 164.4409942626953 171.75900268554688
v 154.11099243164062 146.2449951171875 179.93699645996094
v 157.54200744628906 152.60499572753906 182
v 141.58999633789062 162.7239990234375 185.10499572753906
v 137.42300415039062 164.80599975585938 173.36399841308594
v 138.27200317382812 165.23699951171875 172.56500244140625
v 139.19700622558594 165.3280029296875 171.6439971923828
v 154.96299743652344 150.76100158691406 178.4429931640625
v 149.15499877929688 165.77000427246094 171.81500244140625
v 141.8719940185547 169.14500427246094 174.67799377441406
v 135.5540008544922 160.60000610351562 175.62399291992188
v 135.86900329589844 160.74000549316406 174.29299926757812
v 137.6739959716797 165.41700744628906 173.88800048828125
v 138.3730010986328 165.9550018310547 173.35000610351562
v 139.17599487304688 166.1269989013672 172.42300415039062
v 140.09100341796875 166.17100524902344 171.66099548339844
v 144.4550018310547 148.0919952392578 185.93699645996094
v 143.5570068359375 148.1959991455078 185.63400268554688
v 155.3070068359375 157.30299377441406 175.41299438476562
v 140.16799926757812 168.51499938964844 174.8820037841797
v 150.4290008544922 167.781005859375 174.2969970703125
v 150.19700622558594 166.281005859375 172.5570068359375
v 151.1199951171875 165.95799255371094 173.23399353027344
v 151.20199584960938 161.9290008544922 171.4219970703125
v 139.98399353027344 166.83900451660156 172.38400268554688
v 142.0330047607422 167.1230010986328 171.61399841308594
v 149.11300659179688 144.05299377441406 185
v 156.68299865722656 156.6179962158203 184.01300048828125
v 144.9320068359375 149.73399353027344 186
v 149.43499755859375 166.9969940185547 172.5030059814453
v 154.83700561523438 156.11300659179688 175.33399963378906
v 150.5570068359375 162.56500244140625 185.656005859375
v 140.8679962158203 166.95799255371094 171.9219970703125
v 156.281005859375 146.843994140625 181
v 141.7550048828125 167.9949951171875 172.46400451660156
v 143.38800048828125 167.34100341796875 171.58599853515625
v 143.13499450683594 168.0229949951172 172.06500244140625
v 155.87100219726562 152.41099548339844 185.9409942626953
v 137.08999633789062 157.9530029296875 180.91299438476562
v 152.94900512695312 162.6750030517578 173.16600036621094
v 144.75399780273438 144.30999755859375 182.21400451660156
v 148.53900146484375 167.60299682617188 172.4969940185547
v 149.48399353027344 168.01199340820312 173.61300659179688
v 153.6929931640625 157.9510040283203 173.18800354003906
v 154.16200256347656 159.2010040283203 173.62399291992188
v 150.3800048828125 167.0709991455078 173.32200622558594
v 145.947998046875 168.51699829101562 172.4669952392578
v 154.96600341796875 147.10800170898438 186
v 145.50900268554688 145.39300537109375 180.3419952392578
v 149.66900634765625 143.5 180
v 136.39100646972656 163.4980010986328 175.30799865722656
v 136.50999450683594 164.08099365234375 176.35299682617188
v 155.25900268554688 158.5260009765625 184.23199462890625
v 139.75900268554688 151.1719970703125 175.59500122070312
v 140.31399536132812 151.4810028076172 174.0850067138672
v 140.4980010986328 150.74200439453125 175.57699584960938
v 141.24000549316406 150.91299438476562 174.4040069580078
v 143.52000427246094 151.41299438476562 173.0030059814453
v 139.71099853515625 168.5290069580078 176.4720001220703
v 136.9239959716797 164.96400451660156 176.98699951171875
v 151.02000427246094 168.625 178.63600158691406
v 154.3939971923828 158.99099731445312 184.64500427246094
v 142.83799743652344 167.20799255371094 183.70199584960938
v 157.48300170898438 154.78199768066406 183.91900634765625
v 154.92300415039062 159.76199340820312 183.7469940185547
v 135.78199768066406 160.7899932861328 177.75900268554688
v 142.8939971923828 150.85800170898438 185.6230010986328
v 153.8459930419922 165.12399291992188 178.48800659179688
v 150.6020050048828 142.8730010986328 183.6719970703125
v 136.8090057373047 164.27099609375 174.36599731445312
v 137.1009979248047 164.0240020751953 173.25100708007812
v 147.10800170898438 167.9320068359375 183.70399475097656
v 156.8300018310547 146.48199462890625 181.70700073242188
v 135.8179931640625 156.6529998779297 174.95899963378906
v 145.26199340820312 170.0290069580078 175.29200744628906
v 145.197998046875 169.6490020751953 173.9239959716797
v 145.10499572753906 168.49000549316406 182.9510040283203
v 136.91299438476562 153.88800048828125 174.33399963378906
v 136.70199584960938 153.8209991455078 175.54800415039062
v 143.79400634765625 146.6020050048828 185.03500366210938
v 142.8939971923828 151.73199462890625 185.6540069580078
v 136.37600708007812 154.7530059814453 174.78799438476562
v 153.3769989013672 143.0469970703125 180.48399353027344
v 144.13499450683594 148.91099548339844 185.94700622558594
v 139.39199829101562 167.23699951171875 179.5989990234375
v 149.9219970703125 156.8090057373047 186
v 157.54200744628906 152.08799743652344 184
v 151.8179931640625 167.96200561523438 178.3260040283203
v 139.35899353027344 153.2899932861328 181.58999633789062
v 135.5540008544922 158.9250030517578 175.15899658203125
v 139.4459991455078 164.0540008544922 182.74400329589844
v 141.33099365234375 150.34300231933594 175.58200073242188
v 136.21499633789062 161.48800659179688 173.79800415039062
v 157.31300354003906 149.5500030517578 185.5290069580078
v 136.64700317382812 163.36300659179688 173.98800659179688
v 147.9810028076172 156.71200561523438 186
v 135.5229949951172 158.39199829101562 176.24099731445312
v 154.12600708007812 158.1699981689453 185.60499572753906
v 154.00399780273438 157.08399963378906 185.94400024414062
v 154.69200134277344 162.56199645996094 175.23399353027344
v 149.2790069580078 162.57699584960938 185.9510040283203
v 152.18600463867188 165.18699645996094 173.97500610351562
v 137.69700622558594 166.03399658203125 176.52200317382812
v 136.98800659179688 164.9320068359375 174.88699340820312
v 146.83900451660156 168.90699768066406 173.1929931640625
v 137.2429962158203 165.41799926757812 175.60000610351562
v 138.44900512695312 166.5240020751953 174.1219940185547
v 137.80499267578125 165.9029998779297 174.7239990234375
v 149.36599731445312 145.41900634765625 179.3520050048828
v 138.06700134277344 166.5290069580078 175.3159942626953
v 155.45799255371094 153.4340057373047 177.5290069580078
v 155.5290069580078 151.47799682617188 185.95799255371094
v 149.2209930419922 168.9149932861328 175.16400146484375
v 144.30799865722656 169.71299743652344 174.27699279785156
v 146.5850067138672 145.51400756835938 179.86300659179688
v 146.1230010986328 169.6219940185547 174.15899658203125
v 154.81700134277344 143.9720001220703 180.89599609375
v 146.59800720214844 169.96800231933594 175.40199279785156
v 142.12600708007812 149.88800048828125 176.29200744628906
v 142.00799560546875 149.5469970703125 177.8000030517578
v 156.53700256347656 151.53799438476562 179.89100646972656
v 143.01499938964844 149.0500030517578 185.53799438476562
v 155.94000244140625 158.32400512695312 183.68600463867188
v 150.6529998779297 147.80799865722656 177.97000122070312
v 154.0449981689453 154.64100646972656 175.1739959716797
v 152.50599670410156 167.13600158691406 177.3260040283203
v 136.07400512695312 156.53900146484375 176.58299255371094
v 136.322998046875 155.8459930419922 177.2220001220703
v 156.11900329589844 159.94000244140625 177.3459930419922
v 142.03199768066406 169.44200134277344 176.697998046875
v 146.24200439453125 170.21299743652344 177.02999877929688
v 147.10899353027344 170.18299865722656 177.01800537109375
v 145.73899841308594 144.53900146484375 180.36700439453125
v 148.1699981689453 142.1490020751953 180.46800231933594
v 149.13900756835938 142.06900024414062 180.37399291992188
v 150.78199768066406 142.16700744628906 180.5469970703125
v 146.54299926757812 142.91600036621094 180.5679931640625
v 147.40199279785156 142.7310028076172 180.32699584960938
v 148.18099975585938 142.9149932861328 180.06300354003906
v 148.9029998779297 142.78500366210938 180.05599975585938
v 149.77099609375 142.76499938964844 180.0489959716797
v 150.6479949951172 142.77499389648438 180.08299255371094
v 151.61300659179688 142.7760009765625 180.36399841308594
v 152.625 142.92100524902344 180.4040069580078
v 147.1580047607422 143.6320037841797 180.07899475097656
v 148.01699829101562 143.625 180.02099609375
v 148.86700439453125 143.62899780273438 180
v 150.6009979248047 143.61599731445312 180
v 151.48300170898438 143.61599731445312 180.02099609375
v 152.3769989013672 143.6269989013672 180.04600524902344
v 153.26199340820312 143.6580047607422 180.09300231933594
v 148.85499572753906 144.46800231933594 179.9510040283203
v 152.3509979248047 144.49400329589844 179.97900390625
v 153.22000122070312 144.48899841308594 180
v 154.1020050048828 144.50799560546875 180.06300354003906

g grp1
usemtl mtl1
f 20 2 1 
f 21 1 2 
f 11 4 3 
f 63 3 4 
f 182 6 5 
f 439 5 6 
f 331 8 7 
f 112 7 8 
f 197 10 9 
f 964 9 10 
f 327 4 11 
f 107 13 12 
f 284 12 13 
f 16 15 14 
f 17 14 15 
f 39 15 16 
f 20 14 17 
f 744 19 18 
f 531 18 19 
f 2 20 17 
f 22 2 17 
f 23 21 2 
f 23 2 22 
f 25 24 21 
f 1 21 24 
f 25 21 23 
f 729 27 26 
f 609 26 27 
f 363 29 28 
f 708 28 29 
f 46 24 25 
f 324 31 30 
f 627 30 31 
f 50 33 32 
f 239 32 33 
f 92 35 34 
f 154 34 35 
f 231 37 36 
f 249 36 37 
f 40 39 38 
f 16 38 39 
f 85 40 38 
f 41 15 39 
f 41 39 40 
f 42 17 15 
f 42 15 41 
f 43 22 17 
f 43 17 42 
f 44 23 22 
f 44 22 43 
f 45 25 23 
f 45 23 44 
f 47 46 25 
f 47 25 45 
f 851 49 48 
f 198 48 49 
f 573 51 50 
f 886 50 51 
f 964 53 52 
f 930 52 53 
f 425 55 54 
f 789 54 55 
f 289 57 56 
f 888 56 57 
f 351 59 58 
f 504 58 59 
f 443 61 60 
f 388 60 61 
f 46 62 24 
f 235 24 62 
f 353 63 4 
f 306 65 64 
f 141 64 65 
f 67 41 40 
f 67 40 66 
f 85 66 40 
f 68 42 41 
f 68 41 67 
f 69 43 42 
f 69 42 68 
f 70 44 43 
f 70 43 69 
f 71 45 44 
f 71 44 70 
f 72 47 45 
f 72 45 71 
f 727 74 73 
f 144 73 74 
f 75 47 72 
f 46 47 75 
f 126 77 76 
f 103 76 77 
f 101 46 75 
f 3 63 78 
f 209 78 63 
f 525 80 79 
f 775 79 80 
f 26 82 81 
f 359 81 82 
f 85 84 83 
f 103 83 84 
f 83 66 85 
f 86 67 66 
f 86 66 83 
f 87 68 67 
f 87 67 86 
f 88 69 68 
f 88 68 87 
f 89 70 69 
f 89 69 88 
f 94 91 90 
f 186 90 91 
f 71 70 89 
f 595 93 92 
f 121 92 93 
f 476 94 90 
f 152 96 95 
f 455 95 96 
f 306 98 97 
f 753 97 98 
f 100 75 72 
f 387 37 99 
f 231 99 37 
f 71 100 72 
f 102 101 75 
f 102 75 100 
f 77 83 103 
f 104 86 83 
f 104 83 77 
f 105 87 86 
f 105 86 104 
f 106 88 87 
f 106 87 105 
f 609 82 26 
f 89 88 106 
f 757 108 107 
f 565 107 108 
f 121 71 89 
f 302 110 109 
f 136 109 110 
f 845 112 111 
f 118 111 112 
f 879 114 113 
f 478 113 114 
f 1 115 20 
f 318 20 115 
f 565 117 116 
f 226 116 117 
f 121 100 71 
f 578 118 112 
f 227 120 119 
f 615 119 120 
f 122 102 100 
f 122 100 121 
f 210 49 123 
f 851 123 49 
f 941 125 124 
f 172 124 125 
f 526 126 76 
f 126 104 77 
f 127 105 104 
f 127 104 126 
f 128 106 105 
f 128 105 127 
f 129 89 106 
f 129 106 128 
f 499 131 130 
f 753 130 131 
f 371 133 132 
f 279 132 133 
f 538 135 134 
f 346 134 135 
f 316 14 20 
f 142 109 136 
f 973 78 137 
f 209 137 78 
f 230 139 138 
f 754 138 139 
f 64 141 140 
f 401 140 141 
f 514 142 136 
f 132 144 143 
f 435 143 144 
f 820 146 145 
f 841 145 146 
f 93 122 121 
f 714 148 147 
f 838 147 148 
f 257 150 149 
f 577 149 150 
f 276 152 151 
f 95 151 152 
f 153 127 126 
f 526 153 126 
f 154 128 127 
f 154 127 153 
f 35 129 128 
f 35 128 154 
f 49 156 155 
f 461 155 156 
f 92 129 35 
f 221 158 157 
f 554 157 158 
f 422 160 159 
f 344 159 160 
f 650 162 161 
f 784 161 162 
f 261 164 163 
f 384 163 164 
f 435 74 165 
f 339 165 74 
f 208 167 166 
f 836 166 167 
f 675 169 168 
f 606 168 169 
f 528 171 170 
f 534 170 171 
f 298 172 152 
f 96 152 172 
f 173 154 153 
f 34 154 173 
f 458 175 174 
f 957 174 175 
f 833 177 176 
f 247 176 177 
f 281 179 178 
f 742 178 179 
f 244 181 180 
f 652 180 181 
f 627 183 182 
f 6 182 183 
f 732 185 184 
f 189 184 185 
f 313 90 186 
f 402 188 187 
f 393 187 188 
f 678 184 189 
f 236 191 190 
f 62 190 191 
f 790 193 192 
f 503 192 193 
f 299 195 194 
f 960 194 195 
f 426 197 196 
f 9 196 197 
f 49 155 198 
f 583 198 155 
f 908 199 195 
f 766 195 199 
f 558 201 200 
f 715 200 201 
f 762 203 202 
f 389 202 203 
f 755 205 204 
f 440 204 205 
f 638 207 206 
f 797 206 207 
f 915 209 208 
f 167 208 209 
f 785 210 123 
f 212 185 211 
f 732 211 185 
f 213 189 185 
f 213 185 212 
f 934 214 180 
f 233 180 214 
f 297 216 215 
f 632 215 216 
f 617 218 217 
f 974 217 218 
f 115 219 189 
f 678 189 219 
f 675 221 220 
f 157 220 221 
f 151 223 222 
f 837 222 223 
f 492 225 224 
f 737 224 225 
f 638 226 117 
f 282 227 119 
f 639 229 228 
f 521 228 229 
f 296 231 230 
f 390 230 231 
f 115 232 219 
f 234 219 232 
f 244 180 233 
f 235 234 232 
f 301 234 235 
f 513 191 236 
f 142 238 237 
f 985 237 238 
f 639 240 239 
f 32 239 240 
f 270 242 241 
f 572 241 242 
f 687 97 243 
f 131 243 97 
f 911 245 244 
f 181 244 245 
f 707 247 246 
f 623 246 247 
f 314 248 166 
f 208 166 248 
f 772 250 249 
f 709 249 250 
f 977 252 251 
f 731 251 252 
f 256 211 253 
f 732 253 211 
f 292 255 254 
f 470 254 255 
f 212 211 256 
f 345 257 149 
f 592 173 258 
f 584 258 173 
f 424 260 259 
f 535 259 260 
f 560 261 163 
f 327 262 4 
f 329 4 262 
f 270 263 242 
f 402 242 263 
f 10 265 264 
f 157 264 265 
f 476 267 266 
f 756 266 267 
f 805 269 268 
f 990 268 269 
f 493 271 270 
f 263 270 271 
f 281 273 272 
f 533 272 273 
f 596 226 274 
f 206 274 226 
f 968 276 275 
f 222 275 276 
f 305 278 277 
f 568 277 278 
f 307 280 279 
f 828 279 280 
f 178 273 281 
f 397 282 119 
f 693 284 283 
f 13 283 284 
f 13 285 283 
f 261 283 285 
f 913 287 286 
f 495 286 287 
f 643 273 178 
f 798 182 5 
f 298 152 276 
f 317 289 288 
f 56 288 289 
f 202 291 290 
f 447 290 291 
f 834 255 292 
f 425 54 293 
f 514 293 54 
f 235 1 24 
f 191 294 62 
f 301 62 294 
f 686 142 295 
f 237 295 142 
f 99 296 27 
f 138 27 296 
f 797 216 297 
f 488 172 298 
f 167 209 63 
f 292 300 299 
f 327 299 300 
f 474 219 234 
f 741 234 301 
f 303 212 256 
f 362 192 302 
f 759 302 192 
f 367 303 256 
f 941 305 304 
f 277 304 305 
f 64 98 306 
f 971 307 279 
f 135 309 308 
f 380 308 309 
f 480 311 310 
f 362 310 311 
f 332 313 312 
f 314 312 313 
f 186 314 313 
f 316 213 315 
f 212 315 213 
f 318 213 316 
f 927 272 317 
f 289 317 272 
f 20 318 316 
f 849 319 80 
f 775 80 319 
f 314 186 248 
f 588 248 186 
f 768 321 320 
f 335 320 321 
f 662 323 322 
f 547 322 323 
f 608 31 324 
f 837 326 325 
f 377 325 326 
f 262 327 300 
f 232 115 1 
f 558 328 174 
f 458 174 328 
f 847 330 329 
f 354 329 330 
f 578 112 8 
f 845 7 112 
f 927 281 272 
f 690 331 7 
f 232 1 235 
f 970 333 332 
f 313 332 333 
f 398 335 334 
f 716 334 335 
f 388 337 336 
f 243 336 337 
f 486 339 338 
f 74 338 339 
f 543 341 340 
f 561 340 341 
f 654 343 342 
f 807 342 343 
f 160 169 344 
f 675 344 169 
f 391 345 149 
f 135 308 346 
f 8 346 308 
f 956 348 347 
f 962 347 348 
f 277 350 349 
f 895 349 350 
f 881 196 351 
f 748 351 196 
f 748 9 352 
f 964 352 9 
f 329 354 353 
f 836 353 354 
f 356 58 355 
f 849 355 58 
f 602 357 356 
f 881 356 357 
f 948 359 358 
f 468 358 359 
f 657 361 360 
f 659 360 361 
f 109 362 302 
f 407 364 363 
f 367 363 364 
f 826 366 365 
f 969 365 366 
f 303 367 364 
f 759 56 368 
f 888 368 56 
f 792 370 369 
f 536 369 370 
f 143 371 132 
f 284 372 366 
f 969 366 372 
f 373 38 16 
f 315 373 16 
f 212 373 315 
f 303 373 212 
f 456 375 374 
f 407 374 375 
f 353 4 329 
f 568 350 277 
f 855 377 376 
f 416 376 377 
f 16 316 315 
f 316 16 14 
f 944 379 378 
f 921 378 379 
f 544 380 309 
f 847 329 262 
f 442 60 381 
f 813 381 60 
f 374 28 379 
f 921 379 28 
f 771 383 382 
f 446 382 383 
f 170 385 384 
f 643 384 385 
f 37 387 386 
f 445 386 387 
f 553 388 336 
f 520 389 203 
f 390 231 36 
f 46 190 62 
f 517 391 149 
f 481 393 392 
f 700 392 393 
f 704 140 394 
f 401 394 140 
f 822 396 395 
f 603 395 396 
f 627 354 397 
f 330 397 354 
f 760 398 215 
f 297 215 398 
f 970 400 399 
f 875 399 400 
f 681 394 401 
f 249 37 386 
f 618 349 271 
f 895 271 349 
f 242 402 187 
f 942 404 403 
f 824 403 404 
f 568 406 405 
f 762 405 406 
f 408 364 407 
f 436 408 407 
f 572 242 187 
f 437 409 345 
f 928 345 409 
f 761 411 410 
f 721 410 411 
f 914 284 366 
f 437 412 409 
f 757 409 412 
f 364 413 303 
f 373 303 413 
f 413 85 38 
f 413 38 373 
f 101 190 46 
f 943 415 414 
f 391 414 415 
f 971 133 416 
f 371 416 133 
f 609 418 417 
f 594 417 418 
f 423 181 419 
f 245 419 181 
f 898 421 420 
f 735 420 421 
f 455 225 422 
f 160 422 225 
f 652 181 423 
f 134 331 424 
f 690 424 331 
f 368 425 293 
f 920 426 196 
f 709 36 249 
f 549 428 427 
f 670 427 428 
f 401 430 429 
f 317 429 430 
f 276 151 222 
f 975 432 431 
f 521 431 432 
f 983 434 433 
f 982 433 434 
f 74 435 144 
f 793 436 375 
f 407 375 436 
f 5 439 438 
f 563 438 439 
f 938 156 210 
f 49 210 156 
f 530 204 440 
f 413 441 85 
f 84 85 441 
f 364 441 413 
f 408 441 364 
f 946 443 442 
f 60 442 443 
f 886 444 33 
f 466 33 444 
f 590 445 387 
f 715 382 446 
f 509 447 291 
f 381 449 448 
f 875 448 449 
f 745 451 450 
f 778 450 451 
f 51 453 452 
f 464 452 453 
f 511 454 101 
f 190 101 454 
f 454 236 190 
f 795 95 455 
f 823 375 456 
f 460 402 263 
f 457 236 454 
f 825 236 457 
f 971 279 133 
f 906 459 458 
f 175 458 459 
f 290 447 460 
f 402 460 447 
f 516 155 461 
f 560 463 462 
f 742 462 463 
f 453 465 464 
f 913 464 465 
f 33 466 239 
f 229 239 466 
f 358 468 467 
f 531 467 468 
f 554 469 157 
f 264 157 469 
f 424 470 134 
f 809 134 470 
f 498 471 408 
f 441 408 471 
f 426 220 197 
f 265 197 220 
f 855 275 325 
f 837 325 275 
f 471 84 441 
f 870 473 472 
f 662 472 473 
f 740 475 474 
f 717 474 475 
f 471 103 84 
f 468 359 82 
f 313 333 476 
f 267 476 333 
f 113 478 477 
f 564 477 478 
f 511 101 102 
f 828 280 479 
f 551 479 280 
f 505 311 480 
f 610 481 392 
f 894 395 482 
f 603 482 395 
f 505 342 311 
f 806 311 342 
f 161 483 227 
f 120 227 483 
f 484 457 454 
f 535 483 161 
f 511 484 454 
f 867 485 459 
f 803 459 485 
f 338 487 486 
f 294 486 487 
f 934 489 488 
f 172 488 489 
f 588 491 490 
f 752 490 491 
f 618 493 492 
f 607 492 493 
f 205 240 494 
f 796 494 240 
f 617 286 495 
f 498 497 496 
f 555 496 497 
f 496 471 498 
f 678 219 474 
f 176 499 130 
f 430 401 141 
f 496 76 103 
f 496 103 471 
f 629 324 500 
f 615 500 324 
f 547 502 501 
f 122 501 502 
f 759 192 503 
f 1002 504 59 
f 972 506 146 
f 841 146 506 
f 122 502 102 
f 511 102 502 
f 662 322 507 
f 598 507 322 
f 223 508 357 
f 647 357 508 
f 291 510 509 
f 677 509 510 
f 512 484 511 
f 144 132 279 
f 502 512 511 
f 791 486 513 
f 191 513 486 
f 546 484 512 
f 238 142 514 
f 546 515 484 
f 457 484 515 
f 583 516 453 
f 591 453 516 
f 313 476 90 
f 687 517 97 
f 306 97 517 
f 801 519 518 
f 699 518 519 
f 671 499 520 
f 559 520 499 
f 431 521 229 
f 464 522 452 
f 886 452 522 
f 282 397 330 
f 895 523 460 
f 290 460 523 
f 556 76 496 
f 648 159 524 
f 344 524 159 
f 326 525 377 
f 416 377 525 
f 556 526 76 
f 398 527 297 
f 901 297 527 
f 170 384 528 
f 164 528 384 
f 841 165 529 
f 600 529 165 
f 467 531 530 
f 545 530 531 
f 544 532 252 
f 961 252 532 
f 748 196 9 
f 385 534 533 
f 57 533 534 
f 784 259 535 
f 946 537 536 
f 369 536 537 
f 808 135 538 
f 274 540 539 
f 967 539 540 
f 817 541 428 
f 835 428 541 
f 707 543 542 
f 510 542 543 
f 547 512 502 
f 977 544 252 
f 636 204 545 
f 530 545 204 
f 548 546 512 
f 548 512 547 
f 575 549 427 
f 871 546 548 
f 915 550 137 
f 779 137 550 
f 347 551 280 
f 388 553 552 
f 645 552 553 
f 610 469 554 
f 557 556 555 
f 496 555 556 
f 843 557 555 
f 855 325 377 
f 526 556 557 
f 641 524 344 
f 461 147 516 
f 591 516 147 
f 767 201 558 
f 520 559 389 
f 707 389 559 
f 693 283 560 
f 261 560 283 
f 167 63 353 
f 783 562 561 
f 916 561 562 
f 477 564 563 
f 537 563 564 
f 836 167 353 
f 116 107 565 
f 609 27 138 
f 924 386 566 
f 445 566 386 
f 241 158 168 
f 221 168 158 
f 642 567 415 
f 437 415 567 
f 596 274 539 
f 188 402 447 
f 405 350 568 
f 959 570 569 
f 605 569 570 
f 838 571 465 
f 913 465 571 
f 241 572 158 
f 554 158 572 
f 755 573 50 
f 694 380 544 
f 911 575 574 
f 427 574 575 
f 753 98 576 
f 704 576 98 
f 517 149 577 
f 323 548 547 
f 593 310 579 
f 686 579 310 
f 665 244 233 
f 518 200 446 
f 715 446 200 
f 491 91 580 
f 976 580 91 
f 584 526 557 
f 588 186 91 
f 610 392 581 
f 805 581 392 
f 198 583 582 
f 573 582 583 
f 173 526 584 
f 798 314 166 
f 926 585 521 
f 228 521 585 
f 947 491 586 
f 580 586 491 
f 969 372 587 
f 693 587 372 
f 153 526 173 
f 932 328 558 
f 592 34 173 
f 91 491 588 
f 626 590 589 
f 387 589 590 
f 838 465 591 
f 453 591 465 
f 595 34 592 
f 623 247 177 
f 608 81 359 
f 874 480 593 
f 310 593 480 
f 796 565 108 
f 851 594 418 
f 10 197 265 
f 34 595 92 
f 597 93 595 
f 285 596 539 
f 598 93 597 
f 501 93 598 
f 820 145 599 
f 529 599 145 
f 800 601 600 
f 529 600 601 
f 837 223 602 
f 357 602 223 
f 612 604 148 
f 838 148 604 
f 598 322 547 
f 278 605 570 
f 598 547 501 
f 270 241 606 
f 168 606 241 
f 13 116 596 
f 226 596 116 
f 493 606 607 
f 169 607 606 
f 948 608 359 
f 690 260 424 
f 418 609 138 
f 616 610 581 
f 634 611 557 
f 584 557 611 
f 907 604 612 
f 751 614 613 
f 887 613 614 
f 639 228 207 
f 632 207 228 
f 30 119 615 
f 611 258 584 
f 610 616 469 
f 264 469 616 
f 522 286 617 
f 879 183 31 
f 627 31 183 
f 371 376 416 
f 493 618 271 
f 686 295 619 
f 674 619 295 
f 799 621 620 
f 868 620 621 
f 582 573 622 
f 755 622 573 
f 874 246 623 
f 779 550 624 
f 751 624 550 
f 615 625 500 
f 626 500 625 
f 629 500 626 
f 120 625 615 
f 506 143 435 
f 182 354 627 
f 971 628 307 
f 347 307 628 
f 608 324 629 
f 448 631 630 
f 655 630 631 
f 493 270 606 
f 207 632 216 
f 110 293 136 
f 514 136 293 
f 48 198 633 
f 582 633 198 
f 666 611 634 
f 845 111 635 
f 663 635 111 
f 751 613 624 
f 949 624 613 
f 545 637 636 
f 622 636 637 
f 936 639 638 
f 207 638 639 
f 640 258 611 
f 481 610 554 
f 666 640 611 
f 426 524 641 
f 644 258 640 
f 363 28 374 
f 358 642 114 
f 478 114 642 
f 178 463 643 
f 163 643 463 
f 476 266 94 
f 976 94 266 
f 597 592 644 
f 258 644 592 
f 553 646 645 
f 959 645 646 
f 795 648 647 
f 920 647 648 
f 220 157 265 
f 346 331 134 
f 590 626 625 
f 590 625 649 
f 120 649 625 
f 161 227 650 
f 282 650 227 
f 864 651 141 
f 430 141 651 
f 692 653 652 
f 934 652 653 
f 177 654 505 
f 342 505 654 
f 400 655 631 
f 507 598 656 
f 597 656 598 
f 614 657 360 
f 829 659 658 
f 810 658 659 
f 857 661 660 
f 867 660 661 
f 305 605 278 
f 684 323 662 
f 910 635 663 
f 633 637 19 
f 545 19 637 
f 767 664 612 
f 907 612 664 
f 911 244 665 
f 668 640 666 
f 671 667 646 
f 406 646 667 
f 669 644 640 
f 669 640 668 
f 815 427 670 
f 553 671 646 
f 397 30 627 
f 672 597 644 
f 669 672 644 
f 442 381 448 
f 619 674 673 
f 688 673 674 
f 682 528 164 
f 344 675 641 
f 220 641 675 
f 509 677 676 
f 840 676 677 
f 881 357 647 
f 776 680 679 
f 995 679 680 
f 623 177 505 
f 217 444 617 
f 522 617 444 
f 401 429 681 
f 193 681 429 
f 739 507 656 
f 479 528 682 
f 259 470 424 
f 977 660 683 
f 906 683 660 
f 846 685 684 
f 871 684 685 
f 310 109 686 
f 142 686 109 
f 370 687 243 
f 578 308 380 
f 172 489 124 
f 653 124 489 
f 531 19 545 
f 689 673 688 
f 434 689 688 
f 781 673 691 
f 689 691 673 
f 656 672 396 
f 603 396 672 
f 597 672 656 
f 811 143 506 
f 669 603 672 
f 423 692 652 
f 543 340 510 
f 677 510 340 
f 792 414 391 
f 118 578 694 
f 380 694 578 
f 999 695 348 
f 788 348 695 
f 288 503 193 
f 761 696 475 
f 717 475 696 
f 55 425 697 
f 888 697 425 
f 801 518 698 
f 446 698 518 
f 932 518 699 
f 280 307 347 
f 676 701 700 
f 805 700 701 
f 740 702 475 
f 905 475 702 
f 532 544 309 
f 576 704 703 
f 343 703 704 
f 749 552 645 
f 875 574 705 
f 427 705 574 
f 722 706 702 
f 905 702 706 
f 389 707 542 
f 769 708 29 
f 946 536 443 
f 337 443 536 
f 390 36 709 
f 719 274 206 
f 960 711 710 
f 758 710 711 
f 850 713 712 
f 298 712 713 
f 760 335 398 
f 293 110 368 
f 759 368 110 
f 938 715 714 
f 148 714 715 
f 717 334 716 
f 733 717 716 
f 667 520 203 
f 914 12 284 
f 932 200 518 
f 837 602 326 
f 355 326 602 
f 733 474 717 
f 682 164 718 
f 261 718 164 
f 797 719 206 
f 397 119 30 
f 736 383 720 
f 771 720 383 
f 808 309 135 
f 816 721 411 
f 64 140 98 
f 704 98 140 
f 723 722 702 
f 741 723 702 
f 921 708 724 
f 929 724 708 
f 60 388 552 
f 689 434 725 
f 983 725 434 
f 932 558 200 
f 780 568 278 
f 936 638 117 
f 73 726 722 
f 706 722 726 
f 338 727 487 
f 722 487 727 
f 383 728 698 
f 801 698 728 
f 286 522 464 
f 331 346 8 
f 838 591 147 
f 385 170 534 
f 626 729 629 
f 81 629 729 
f 416 525 79 
f 335 730 716 
f 732 716 730 
f 321 730 335 
f 777 251 731 
f 716 732 184 
f 733 716 184 
f 733 184 678 
f 943 478 642 
f 825 513 236 
f 420 735 734 
f 858 734 735 
f 678 474 733 
f 728 383 736 
f 704 394 343 
f 807 343 394 
f 638 206 226 
f 273 643 385 
f 96 737 455 
f 225 455 737 
f 740 474 234 
f 856 739 738 
f 822 738 739 
f 466 431 229 
f 762 290 523 
f 234 741 740 
f 702 740 741 
f 179 743 742 
f 587 742 743 
f 723 741 301 
f 82 609 744 
f 417 744 609 
f 746 53 616 
f 264 616 53 
f 179 281 651 
f 927 651 281 
f 330 650 282 
f 51 583 453 
f 773 451 745 
f 930 53 746 
f 5 438 747 
f 912 747 438 
f 194 292 299 
f 759 110 302 
f 814 267 333 
f 915 208 490 
f 248 490 208 
f 107 116 13 
f 825 457 515 
f 419 749 423 
f 885 423 749 
f 295 237 674 
f 981 674 237 
f 580 450 750 
f 778 750 450 
f 586 750 361 
f 892 361 750 
f 730 253 732 
f 550 752 751 
f 947 751 752 
f 97 753 131 
f 139 123 754 
f 851 754 123 
f 130 753 576 
f 585 215 632 
f 229 639 239 
f 636 622 755 
f 82 744 18 
f 13 596 285 
f 745 266 756 
f 412 440 757 
f 108 757 440 
f 649 120 483 
f 487 723 294 
f 301 294 723 
f 805 268 581 
f 746 581 268 
f 849 504 319 
f 1001 319 504 
f 965 710 758 
f 503 56 759 
f 595 592 597 
f 335 760 320 
f 925 320 760 
f 904 696 761 
f 600 165 339 
f 405 762 523 
f 894 482 763 
f 831 763 482 
f 958 765 764 
f 972 764 765 
f 960 195 766 
f 201 767 612 
f 708 769 768 
f 321 768 769 
f 769 367 253 
f 256 253 367 
f 730 769 253 
f 321 769 730 
f 835 541 770 
f 968 770 541 
f 938 771 382 
f 924 772 386 
f 249 386 772 
f 191 486 294 
f 850 214 713 
f 488 713 214 
f 756 774 773 
f 764 773 774 
f 680 776 775 
f 819 775 776 
f 802 251 777 
f 570 780 278 
f 783 593 781 
f 579 781 593 
f 701 782 269 
f 725 269 782 
f 561 341 783 
f 874 783 341 
f 494 108 440 
f 254 784 162 
f 139 785 123 
f 709 787 786 
f 720 786 787 
f 781 579 619 
f 686 619 579 
f 873 669 668 
f 462 693 560 
f 992 789 788 
f 980 788 789 
f 189 318 115 
f 806 192 362 
f 29 367 769 
f 363 367 29 
f 445 590 649 
f 138 754 418 
f 851 418 754 
f 807 681 790 
f 193 790 681 
f 847 162 650 
f 825 791 513 
f 687 370 792 
f 824 497 793 
f 498 793 497 
f 785 786 720 
f 600 339 791 
f 486 791 339 
f 979 794 710 
f 960 710 794 
f 727 73 722 
f 455 422 795 
f 648 795 422 
f 936 796 240 
f 578 8 308 
f 599 529 601 
f 909 438 563 
f 881 351 356 
f 58 356 351 
f 461 714 147 
f 673 781 619 
f 667 671 520 
f 369 537 564 
f 205 50 32 
f 125 737 96 
f 941 304 224 
f 618 224 304 
f 836 798 166 
f 199 799 620 
f 600 791 800 
f 825 800 791 
f 118 519 801 
f 891 599 601 
f 857 802 661 
f 882 661 802 
f 495 378 218 
f 974 218 378 
f 818 804 803 
f 954 803 804 
f 407 363 374 
f 336 131 499 
f 866 451 773 
f 984 514 54 
f 130 576 703 
f 342 807 806 
f 790 806 807 
f 810 601 800 
f 255 809 470 
f 891 601 810 
f 671 336 499 
f 143 811 371 
f 376 371 811 
f 381 813 812 
f 419 812 813 
f 82 18 468 
f 531 468 18 
f 705 815 814 
f 267 814 815 
f 718 721 816 
f 850 541 817 
f 560 163 463 
f 661 818 485 
f 803 485 818 
f 803 175 459 
f 515 658 800 
f 810 800 658 
f 833 176 130 
f 415 437 391 
f 345 391 437 
f 837 275 222 
f 171 528 551 
f 479 551 528 
f 971 79 819 
f 775 819 79 
f 823 793 375 
f 436 793 498 
f 866 820 778 
f 891 778 820 
f 817 428 549 
f 635 250 772 
f 889 822 821 
f 395 821 822 
f 284 693 372 
f 905 411 761 
f 883 603 669 
f 785 771 210 
f 938 210 771 
f 774 756 815 
f 267 815 756 
f 824 793 823 
f 940 824 823 
f 446 383 698 
f 826 365 150 
f 876 150 365 
f 800 825 515 
f 787 736 720 
f 201 612 148 
f 515 546 827 
f 871 827 546 
f 813 749 419 
f 406 667 762 
f 203 762 667 
f 827 829 658 
f 360 659 829 
f 956 776 679 
f 725 830 689 
f 691 689 830 
f 731 763 831 
f 462 742 587 
f 923 832 763 
f 894 763 832 
f 118 694 519 
f 977 519 694 
f 255 834 809 
f 979 809 834 
f 499 176 559 
f 247 559 176 
f 569 124 653 
f 291 542 510 
f 381 812 449 
f 245 449 812 
f 665 549 575 
f 958 835 770 
f 685 829 827 
f 703 654 833 
f 177 833 654 
f 871 685 827 
f 481 187 393 
f 940 403 824 
f 839 824 404 
f 497 824 839 
f 1000 680 775 
f 830 725 782 
f 555 497 839 
f 722 723 487 
f 676 840 701 
f 916 701 840 
f 933 792 369 
f 109 310 362 
f 817 665 233 
f 435 165 841 
f 343 654 703 
f 840 340 561 
f 816 726 479 
f 828 479 726 
f 405 523 350 
f 895 350 523 
f 816 706 726 
f 385 533 273 
f 121 129 92 
f 918 842 404 
f 839 404 842 
f 843 555 839 
f 843 839 842 
f 701 269 805 
f 148 715 201 
f 111 118 801 
f 910 787 250 
f 709 250 787 
f 958 770 844 
f 855 844 770 
f 670 428 835 
f 95 795 508 
f 647 508 795 
f 477 563 439 
f 948 358 114 
f 230 390 139 
f 786 139 390 
f 494 796 108 
f 887 685 846 
f 336 243 131 
f 262 162 847 
f 848 843 842 
f 607 169 160 
f 634 843 848 
f 707 559 247 
f 355 849 525 
f 80 525 849 
f 817 233 850 
f 214 850 233 
f 138 296 230 
f 879 6 183 
f 798 747 314 
f 312 314 747 
f 473 684 662 
f 636 755 204 
f 594 851 48 
f 846 684 473 
f 719 540 274 
f 399 814 333 
f 853 842 852 
f 918 852 842 
f 860 853 852 
f 848 842 853 
f 927 430 651 
f 848 854 634 
f 666 634 854 
f 530 440 412 
f 853 854 848 
f 376 844 855 
f 472 662 856 
f 507 856 662 
f 977 251 857 
f 802 857 251 
f 914 366 826 
f 254 300 292 
f 735 859 858 
f 456 858 859 
f 552 813 60 
f 504 849 58 
f 477 439 6 
f 861 853 860 
f 862 853 861 
f 804 862 861 
f 862 854 853 
f 801 663 111 
f 854 863 666 
f 668 666 863 
f 862 863 854 
f 298 276 712 
f 968 712 276 
f 880 668 863 
f 213 318 189 
f 562 783 781 
f 931 865 864 
f 651 864 865 
f 739 856 507 
f 878 866 773 
f 485 867 661 
f 151 95 508 
f 869 472 856 
f 766 620 868 
f 870 472 869 
f 684 871 323 
f 548 323 871 
f 862 804 872 
f 818 872 804 
f 872 863 862 
f 429 288 193 
f 880 863 872 
f 505 480 623 
f 874 623 480 
f 467 530 567 
f 412 567 530 
f 880 873 668 
f 883 669 873 
f 967 261 285 
f 337 370 243 
f 967 718 261 
f 972 765 506 
f 811 506 765 
f 822 739 396 
f 656 396 739 
f 567 412 437 
f 896 534 171 
f 449 574 875 
f 888 57 697 
f 534 697 57 
f 151 508 223 
f 577 876 306 
f 65 306 876 
f 205 494 440 
f 442 448 630 
f 869 856 877 
f 738 877 856 
f 820 878 146 
f 972 146 878 
f 893 869 877 
f 643 163 384 
f 893 870 869 
f 948 879 31 
f 633 417 594 
f 818 880 872 
f 882 880 818 
f 873 880 882 
f 884 883 873 
f 884 873 882 
f 692 423 885 
f 482 603 883 
f 50 886 33 
f 884 482 883 
f 910 250 635 
f 829 685 887 
f 202 389 542 
f 192 806 790 
f 681 807 394 
f 254 259 784 
f 291 202 542 
f 895 263 271 
f 969 587 743 
f 738 822 889 
f 889 890 877 
f 893 877 890 
f 877 738 889 
f 946 442 630 
f 161 784 535 
f 949 846 473 
f 661 882 818 
f 777 882 802 
f 777 884 882 
f 599 891 820 
f 659 892 810 
f 891 810 892 
f 831 482 884 
f 10 264 53 
f 777 831 884 
f 304 349 618 
f 621 893 868 
f 890 868 893 
f 821 395 894 
f 952 821 894 
f 289 272 533 
f 938 714 461 
f 889 821 711 
f 952 711 821 
f 692 569 653 
f 711 890 889 
f 778 892 750 
f 831 777 731 
f 171 551 896 
f 962 896 551 
f 952 894 832 
f 995 897 679 
f 994 679 897 
f 836 354 182 
f 762 202 290 
f 420 899 898 
f 917 898 899 
f 942 403 421 
f 940 421 403 
f 706 816 411 
f 326 355 525 
f 683 699 519 
f 728 663 801 
f 912 900 332 
f 970 332 900 
f 144 828 73 
f 726 73 828 
f 902 901 527 
f 903 901 902 
f 902 904 903 
f 939 903 904 
f 696 904 902 
f 761 410 904 
f 939 904 410 
f 887 360 829 
f 475 905 761 
f 699 906 328 
f 458 328 906 
f 57 289 533 
f 604 907 899 
f 951 899 907 
f 840 677 340 
f 905 706 411 
f 368 888 425 
f 935 199 908 
f 913 286 464 
f 945 909 563 
f 6 113 477 
f 575 911 665 
f 393 188 676 
f 509 676 188 
f 299 11 908 
f 935 908 11 
f 955 861 860 
f 747 912 312 
f 332 312 912 
f 864 141 65 
f 571 734 913 
f 858 913 734 
f 928 914 257 
f 826 257 914 
f 334 527 398 
f 557 843 634 
f 137 209 915 
f 527 334 902 
f 717 902 334 
f 370 337 536 
f 717 696 902 
f 959 646 780 
f 406 780 646 
f 959 780 570 
f 830 916 562 
f 887 614 360 
f 885 749 645 
f 959 885 645 
f 911 574 449 
f 852 918 917 
f 942 917 918 
f 875 400 631 
f 933 564 478 
f 633 582 637 
f 622 637 582 
f 535 919 483 
f 649 483 919 
f 966 721 718 
f 524 426 920 
f 974 378 921 
f 221 675 168 
f 875 631 448 
f 879 113 6 
f 585 760 215 
f 968 855 770 
f 32 240 205 
f 427 815 705 
f 963 923 922 
f 961 922 923 
f 355 602 356 
f 834 292 194 
f 772 924 845 
f 7 845 924 
f 470 259 254 
f 117 565 796 
f 964 10 53 
f 562 691 830 
f 729 626 589 
f 585 926 925 
f 929 925 926 
f 760 585 925 
f 593 783 874 
f 991 746 268 
f 337 61 443 
f 351 748 59 
f 352 59 748 
f 336 671 553 
f 179 651 865 
f 841 506 435 
f 257 345 928 
f 757 928 409 
f 768 925 929 
f 708 768 929 
f 925 768 320 
f 727 338 74 
f 503 288 56 
f 690 7 924 
f 452 886 51 
f 785 139 786 
f 876 365 931 
f 969 931 365 
f 195 299 908 
f 648 422 159 
f 911 449 245 
f 928 757 12 
f 107 12 757 
f 390 709 786 
f 529 145 841 
f 27 729 589 
f 876 931 65 
f 864 65 931 
f 940 735 421 
f 417 19 744 
f 959 569 692 
f 921 28 708 
f 984 238 514 
f 962 348 788 
f 235 62 301 
f 414 792 933 
f 214 934 488 
f 826 150 257 
f 615 324 30 
f 3 935 11 
f 835 764 774 
f 947 614 751 
f 937 374 379 
f 796 936 117 
f 945 563 537 
f 906 699 683 
f 479 682 816 
f 718 816 682 
f 328 932 699 
f 892 778 891 
f 456 374 937 
f 715 938 382 
f 81 608 629 
f 543 707 246 
f 187 481 572 
f 554 572 481 
f 933 369 564 
f 361 892 659 
f 886 522 444 
f 966 540 939 
f 903 939 540 
f 48 633 594 
f 937 858 456 
f 859 940 823 
f 859 823 456 
f 670 774 815 
f 388 61 337 
f 881 920 196 
f 657 586 361 
f 940 859 735 
f 910 663 728 
f 524 920 648 
f 881 647 920 
f 635 772 845 
f 875 705 399 
f 814 399 705 
f 305 941 605 
f 124 605 941 
f 462 587 693 
f 866 878 820 
f 833 130 703 
f 218 617 495 
f 947 657 614 
f 737 125 941 
f 898 942 421 
f 942 918 404 
f 478 943 933 
f 414 933 943 
f 613 887 846 
f 287 937 944 
f 379 944 937 
f 946 630 945 
f 655 945 630 
f 628 819 776 
f 400 900 655 
f 909 655 900 
f 945 537 946 
f 917 942 898 
f 608 948 31 
f 26 81 729 
f 967 285 539 
f 913 858 287 
f 937 287 858 
f 501 122 93 
f 846 949 613 
f 174 950 767 
f 664 767 950 
f 951 917 899 
f 852 951 860 
f 953 860 951 
f 917 951 852 
f 650 330 847 
f 870 949 473 
f 489 934 653 
f 767 558 174 
f 172 125 96 
f 812 419 245 
f 955 860 953 
f 861 955 954 
f 957 954 955 
f 577 306 517 
f 954 804 861 
f 628 956 347 
f 966 410 721 
f 246 341 543 
f 779 949 621 
f 870 621 949 
f 624 949 779 
f 175 954 957 
f 175 803 954 
f 957 950 174 
f 764 835 958 
f 916 782 701 
f 724 929 432 
f 926 432 929 
f 799 779 621 
f 844 811 765 
f 752 915 490 
f 728 736 910 
f 787 910 736 
f 870 893 621 
f 959 692 885 
f 658 515 827 
f 488 298 713 
f 415 943 642 
f 299 327 11 
f 420 604 899 
f 758 711 952 
f 240 639 936 
f 953 664 950 
f 890 711 960 
f 766 890 960 
f 766 868 890 
f 277 349 304 
f 690 924 566 
f 961 763 731 
f 961 731 252 
f 980 896 962 
f 923 763 961 
f 963 952 832 
f 963 832 923 
f 975 431 466 
f 982 434 688 
f 955 950 957 
f 660 867 906 
f 459 906 867 
f 922 961 532 
f 676 700 393 
f 965 963 922 
f 758 963 965 
f 952 963 758 
f 967 966 718 
f 540 966 967 
f 934 180 652 
f 785 720 771 
f 948 114 879 
f 838 604 571 
f 420 571 604 
f 362 311 806 
f 492 607 160 
f 719 903 540 
f 830 782 916 
f 410 966 939 
f 300 162 262 
f 162 300 254 
f 583 155 516 
f 541 712 968 
f 260 919 535 
f 588 490 248 
f 279 828 144 
f 840 561 916 
f 642 358 467 
f 51 573 583 
f 901 903 719 
f 797 901 719 
f 297 901 797 
f 225 492 160 
f 981 688 674 
f 400 970 900 
f 792 517 687 
f 976 91 94 
f 399 333 970 
f 746 616 581 
f 844 376 811 
f 585 632 228 
f 931 969 865 
f 743 865 969 
f 549 665 817 
f 260 566 919 
f 445 919 566 
f 912 909 900 
f 550 915 752 
f 700 805 392 
f 150 876 577 
f 521 432 926 
f 947 586 657 
f 217 466 444 
f 589 99 27 
f 552 749 813 
f 3 78 973 
f 976 266 745 
f 975 724 432 
f 878 764 972 
f 655 909 945 
f 724 974 921 
f 975 974 724 
f 605 124 569 
f 19 417 633 
f 774 670 835 
f 797 207 216 
f 764 878 773 
f 495 944 378 
f 778 451 866 
f 836 182 798 
f 968 275 855 
f 755 50 205 
f 697 534 896 
f 976 745 450 
f 976 450 580 
f 586 580 750 
f 317 288 429 
f 912 438 909 
f 134 809 538 
f 978 538 809 
f 752 491 947 
f 983 269 725 
f 953 951 907 
f 664 953 907 
f 406 568 780 
f 89 129 121 
f 979 834 794 
f 194 794 834 
f 844 765 958 
f 955 953 950 
f 980 55 697 
f 79 971 416 
f 260 690 566 
f 973 779 799 
f 137 779 973 
f 517 792 391 
f 977 683 519 
f 589 387 99 
f 620 766 199 
f 460 263 895 
f 977 857 660 
f 927 317 430 
f 794 194 960 
f 642 467 567 
f 808 922 532 
f 309 808 532 
f 978 965 922 
f 808 978 922 
f 979 710 965 
f 978 979 965 
f 928 12 914 
f 776 956 628 
f 179 865 743 
f 747 798 5 
f 436 498 408 
f 156 938 461 
f 341 246 874 
f 971 819 628 
f 509 188 447 
f 463 178 742 
f 973 935 3 
f 426 641 220 
f 618 492 224 
f 941 224 737 
f 287 944 495 
f 691 562 781 
f 999 348 956 
f 347 962 551 
f 935 973 799 
f 789 55 980 
f 975 466 217 
f 1000 775 319 
f 712 541 850 
f 980 962 788 
f 217 974 975 
f 745 756 773 
f 296 99 231 
f 571 420 734 
f 649 919 445 
f 935 799 199 
f 977 694 544 
f 538 978 808 
f 809 979 978 
f 982 688 981 
f 985 238 984 
f 985 981 237 
f 986 981 985 
f 987 982 981 
f 987 981 986 
f 988 433 982 
f 988 982 987 
f 989 983 433 
f 989 433 988 
f 990 269 983 
f 990 983 989 
f 991 268 990 
f 930 746 991 
f 789 984 54 
f 992 985 984 
f 992 984 789 
f 993 986 985 
f 993 985 992 
f 994 987 986 
f 994 986 993 
f 897 988 987 
f 897 987 994 
f 995 989 988 
f 995 988 897 
f 996 990 989 
f 996 989 995 
f 997 991 990 
f 997 990 996 
f 998 930 991 
f 998 991 997 
f 52 930 998 
f 695 993 992 
f 695 992 788 
f 999 994 993 
f 999 993 695 
f 679 994 999 
f 680 996 995 
f 1000 997 996 
f 1000 996 680 
f 1001 998 997 
f 1001 997 1000 
f 1002 52 998 
f 1002 998 1001 
f 352 964 52 
f 352 52 1002 
f 896 980 697 
f 956 679 999 
f 319 1001 1000 
f 504 1002 1001 
f 59 352 1002 
