#  wavefront obj file written by the visualization toolkit

mtllib leftsurrenalgland.mtl

v 221.43600463867188 200.41900634765625 79.60870361328125
v 220.89199829101562 200.8070068359375 78.91410064697266
v 220.77099609375 200.45599365234375 79.9135971069336
v 222.08200073242188 200.4600067138672 79.53820037841797
v 221.65199279785156 200.73300170898438 78.86930084228516
v 222.2480010986328 200.78799438476562 78.9845962524414
v 219.14100646972656 201.08700561523438 79.4489974975586
v 218.6840057373047 201.5229949951172 78.93569946289062
v 218.52699279785156 201.14199829101562 80.05480194091797
v 219.74200439453125 200.9080047607422 79.48919677734375
v 219.4759979248047 201.39700317382812 78.81439971923828
v 220.21800231933594 201.24099731445312 78.75019836425781
v 220.2949981689453 200.71099853515625 79.33699798583984
v 220.8249969482422 201.39300537109375 78.56169891357422
v 221.4010009765625 201.27099609375 78.60099792480469
v 221.96800231933594 201.1479949951172 78.68070220947266
v 222.5050048828125 200.58200073242188 79.52549743652344
v 222.65199279785156 200.87100219726562 79.33589935302734
v 222.49600219726562 201.3260040283203 79.10910034179688
v 217.82400512695312 201.55799865722656 79.53630065917969
v 217.31700134277344 202.15499877929688 79.30619812011719
v 214.3090057373047 200.41799926757812 96.75959777832031
v 211.4409942626953 200.7480010986328 97.12300109863281
v 221.76800537109375 210.1529998779297 115.63300323486328
v 222.83799743652344 211.43699645996094 117.12799835205078
v 211.03399658203125 202.87899780273438 119.29499816894531
v 211.35699462890625 201.98800659179688 118.4010009765625
v 218.0489959716797 201.99000549316406 78.84649658203125
v 218.65699768066406 202.09100341796875 78.61229705810547
v 219.25 201.98699951171875 78.58519744873047
v 219.95399475097656 201.91099548339844 78.57530212402344
v 220.53799438476562 201.8040008544922 78.5542984008789
v 221.1479949951172 201.95700073242188 78.7146987915039
v 221.92799377441406 201.77200317382812 78.9186019897461
v 222.49099731445312 201.95599365234375 79.58000183105469
v 222.83099365234375 201.64500427246094 79.80999755859375
v 222.91600036621094 201.1719970703125 79.98139953613281
v 212.88800048828125 208.25999450683594 124.60800170898438
v 212.23500061035156 207.83599853515625 123.68699645996094
v 222.26600646972656 203.76199340820312 106.50299835205078
v 222.85899353027344 203.79299926757812 107.98300170898438
v 217 204.7899932861328 82.17289733886719
v 217.21200561523438 205.29299926757812 83.56829833984375
v 213.58099365234375 200.33900451660156 108.31400299072266
v 214.38900756835938 201.27499389648438 109.77300262451172
v 217.78700256347656 202.4720001220703 78.9541015625
v 218.35699462890625 202.52099609375 78.80549621582031
v 219.02699279785156 202.54600524902344 78.75669860839844
v 219.73199462890625 202.51400756835938 78.7665023803711
v 220.49899291992188 202.41600036621094 78.81099700927734
v 221.06500244140625 202.5290069580078 79.11060333251953
v 221.58299255371094 202.3820037841797 79.27690124511719
v 222.08900451660156 202.30099487304688 79.57279968261719
v 217.53500366210938 202.73699951171875 79.33100128173828
v 218.07899475097656 202.95199584960938 79.25669860839844
v 218.74200439453125 203.00900268554688 79.21089935302734
v 219.42300415039062 203.0189971923828 79.24140167236328
v 220.13699340820312 202.97799682617188 79.30329895019531
v 220.7239990234375 202.86000061035156 79.34410095214844
v 218.11599731445312 213.76400756835938 106.46399688720703
v 218.88499450683594 213.6320037841797 107.177001953125
v 223.9510040283203 201.23199462890625 107.59600067138672
v 223.72300720214844 201.65699768066406 108.41100311279297
v 211.718994140625 208.5659942626953 92.07649993896484
v 212.95399475097656 208.36300659179688 93.42970275878906
v 220.9239959716797 200.5780029296875 81.3407974243164
v 221.38800048828125 200.3730010986328 80.57569885253906
v 222.00999450683594 200.38800048828125 80.50090026855469
v 222.53399658203125 200.5050048828125 80.30889892578125
v 222.78199768066406 200.7270050048828 79.94560241699219
v 224.6199951171875 214.86199951171875 121.38999938964844
v 224.5659942626953 213.79800415039062 120.68199920654297
v 223.1529998779297 217.10000610351562 123.98500061035156
v 221.8179931640625 217.64100646972656 124.58399963378906
v 214.89300537109375 214.51400756835938 126.35299682617188
v 214.27499389648438 213.60699462890625 126.16400146484375
v 217.63499450683594 201.3979949951172 80.94950103759766
v 218.63299560546875 201.0919952392578 81.5802001953125
v 219.3419952392578 200.8780059814453 80.70919799804688
v 216.7239990234375 219.3800048828125 121.16000366210938
v 218.27499389648438 220.47000122070312 120.68000030517578
v 217.36599731445312 210.05799865722656 106.4229965209961
v 218.0540008544922 208.23699951171875 108.27100372314453
v 212.23599243164062 202.50999450683594 118.9280014038086
v 220.13499450683594 200.6199951171875 80.41470336914062
v 222.86500549316406 200.86700439453125 80.9540023803711
v 214.2570037841797 201.81300354003906 81.29769897460938
v 213.66799926757812 202.27000427246094 80.55390167236328
v 213.52000427246094 201.86199951171875 81.66500091552734
v 214.99400329589844 201.79600524902344 81.23490142822266
v 214.50100708007812 202.16799926757812 80.44730377197266
v 215.72900390625 201.79100036621094 81.19039916992188
v 215.22999572753906 202.1529998779297 80.42720031738281
v 216.5570068359375 201.7429962158203 80.94149780273438
v 215.9510040283203 202.1510009765625 80.34230041503906
v 215.86900329589844 216.91700744628906 115.927001953125
v 216.125 217.41099548339844 117.59100341796875
v 216.6179962158203 202.156005859375 79.9447021484375
v 217.07699584960938 201.76100158691406 79.9749984741211
v 221.0229949951172 206.38699340820312 116.31600189208984
v 220.87399291992188 208.03199768066406 117.93699645996094
v 223.69000244140625 202.0030059814453 83.73799896240234
v 223.31199645996094 201.72900390625 82.47429656982422
v 208.16200256347656 202.05099487304688 101.79100036621094
v 208.21099853515625 202.03500366210938 99.72139739990234
v 208.8280029296875 200.68499755859375 102.18900299072266
v 208.4080047607422 201.38800048828125 100.94100189208984
v 224.4409942626953 201.53700256347656 90.25810241699219
v 225.14599609375 201.41799926757812 92.02970123291016
v 215.4239959716797 217.03500366210938 126.10600280761719
v 215.0240020751953 218.01699829101562 125.36699676513672
v 222.85800170898438 202.1179962158203 80.4990005493164
v 223.10899353027344 201.6439971923828 80.95079803466797
v 223.072998046875 201.23800659179688 80.90959930419922
v 221.74200439453125 218.35899353027344 115.68599700927734
v 220.83900451660156 219.60499572753906 116.4020004272461
v 212.8179931640625 202.37399291992188 81.18360137939453
v 221.6820068359375 219.9029998779297 123.0469970703125
v 220.78700256347656 220.4499969482422 121.28600311279297
v 213.0590057373047 202.89300537109375 80.40699768066406
v 213.6790008544922 202.87100219726562 80.13099670410156
v 214.27200317382812 202.74600219726562 80.1144027709961
v 214.96499633789062 202.6999969482422 80.10600280761719
v 215.656005859375 202.70399475097656 80.12110137939453
v 216.36300659179688 202.71800231933594 80.04759979248047
v 220.8070068359375 218.99899291992188 115.21099853515625
v 217.8280029296875 218.25100708007812 113.13999938964844
v 218.40499877929688 217.86099243164062 111.00499725341797
v 217.04400634765625 202.71499633789062 79.72149658203125
v 215.81399536132812 213.8090057373047 105.40799713134766
v 216.89700317382812 213.6929931640625 105.71900177001953
v 221.21499633789062 202.8730010986328 79.6803970336914
v 221.80999755859375 202.76800537109375 80.01640319824219
v 222.38099670410156 202.51800537109375 80.29399871826172
v 214.63400268554688 202.01600646972656 111.91400146484375
v 221.60899353027344 200.28900146484375 106.12300109863281
v 221.17799377441406 200.73599243164062 107.50700378417969
v 214.27099609375 213.8489990234375 108.3949966430664
v 215.34100341796875 214.84100341796875 108.09600067138672
v 224.53399658203125 205.80599975585938 88.693603515625
v 224.46400451660156 205.6820068359375 87.22160339355469
v 212.6199951171875 207.13999938964844 124.11299896240234
v 221.6199951171875 210.41099548339844 120.00199890136719
v 220.7259979248047 211.28500366210938 120.375
v 222.57000732421875 208.44500732421875 114.90399932861328
v 223.04800415039062 209.42999267578125 116.46499633789062
v 212.30599975585938 203.1750030517578 81.00980377197266
v 213.03799438476562 203.7899932861328 80.50189971923828
v 213.531005859375 203.3780059814453 80.14759826660156
v 214.16200256347656 203.38699340820312 80.09850311279297
v 214.85299682617188 203.33799743652344 80.10320281982422
v 215.43699645996094 203.22799682617188 80.11109924316406
v 216.10800170898438 203.42300415039062 80.28559875488281
v 216.96299743652344 203.34100341796875 80.16670227050781
v 217.72500610351562 203.31900024414062 79.8375015258789
v 218.51100158691406 203.4510040283203 79.7656021118164
v 219.10899353027344 203.39700317382812 79.70690155029297
v 219.7480010986328 203.52200317382812 80.03780364990234
v 220.61199951171875 203.3090057373047 80.02189636230469
v 217.58299255371094 201.29400634765625 89.55229949951172
v 216.6719970703125 200.85899353027344 92.56890106201172
v 221.34100341796875 203.25999450683594 80.36930084228516
v 224.41099548339844 213.36199951171875 119.48300170898438
v 224.23399353027344 212.4669952392578 120.05500030517578
v 222.43099975585938 205.89199829101562 111.79499816894531
v 221.3489990234375 205.7480010986328 110.73899841308594
v 213.27499389648438 212.34300231933594 125.18299865722656
v 213.55999755859375 212.91299438476562 122.00499725341797
v 224.28900146484375 200.5449981689453 105.5
v 223.22300720214844 200.33099365234375 106
v 211.8769989013672 202.9600067138672 119.93199920654297
v 212.7729949951172 202.9429931640625 119.36699676513672
v 225.37600708007812 202.49899291992188 102.02100372314453
v 225.14300537109375 203.26699829101562 100.822998046875
v 213.1790008544922 202.0070037841797 117.13500213623047
v 212.53900146484375 201.89100646972656 117.71600341796875
v 209.177001953125 202.01600646972656 117.20600128173828
v 208.48800659179688 201.92100524902344 116.4749984741211
v 213.98800659179688 213.1840057373047 104.38400268554688
v 213.33799743652344 212.57200622558594 103.4530029296875
v 219.81100463867188 200.4499969482422 106.24600219726562
v 213.93299865722656 203.94900512695312 80.35209655761719
v 214.68299865722656 203.94700622558594 80.36009979248047
v 215.4040069580078 203.81700134277344 80.36479949951172
v 215.89599609375 204.1649932861328 80.86470031738281
v 216.73899841308594 203.92100524902344 80.73310089111328
v 217.68699645996094 206.16200256347656 106.1780014038086
v 209.09800720214844 199.38099670410156 107.96499633789062
v 208.00900268554688 199.31300354003906 108.48100280761719
v 217.5590057373047 203.86700439453125 80.50509643554688
v 218.3040008544922 203.91000366210938 80.37860107421875
v 219.03799438476562 203.8489990234375 80.33170318603516
v 219.63900756835938 204.13400268554688 81.1509017944336
v 220.25100708007812 203.78700256347656 80.7260971069336
v 220.90199279785156 203.70700073242188 80.86000061035156
v 221.50900268554688 203.55299377441406 80.9625015258789
v 221.9949951171875 203.09500122070312 80.73770141601562
v 218.4409942626953 219.42300415039062 124.51399993896484
v 219.5570068359375 218.57699584960938 124.58799743652344
v 207.43499755859375 198.9669952392578 114.16899871826172
v 206.37399291992188 199.11399841308594 113.48799896240234
v 216.05499267578125 214.87399291992188 106.55699920654297
v 213.6320037841797 204.41600036621094 80.88590240478516
v 214.375 204.43800354003906 80.88600158691406
v 215.12100219726562 204.38099670410156 80.89420318603516
v 206.59800720214844 200.00100708007812 113.96199798583984
v 206.59300231933594 200.8459930419922 112.80500030517578
v 221.2100067138672 205.7259979248047 89.95870208740234
v 222.76600646972656 205.7899932861328 91.11499786376953
v 217.23800659179688 204.29100036621094 81.26580047607422
v 218.0399932861328 204.28599548339844 81.17469787597656
v 218.78399658203125 204.28500366210938 81.16570281982422
v 211.26499938964844 204.94000244140625 111.78900146484375
v 210.98300170898438 206.4340057373047 106.81400299072266
v 214.99600219726562 216.1959991455078 118.41600036621094
v 214.927001953125 215.4149932861328 115.7490005493164
v 219.89999389648438 204.44500732421875 106.7699966430664
v 221.49600219726562 203.74600219726562 105.55599975585938
v 213.62899780273438 213.40499877929688 125.48200225830078
v 219.53900146484375 215.23199462890625 110.7229995727539
v 219.16799926757812 213.96499633789062 109.49800109863281
v 214.45799255371094 204.34800720214844 119.63899993896484
v 215.11399841308594 203.70199584960938 116.6520004272461
v 225.58999633789062 202.49899291992188 87.03669738769531
v 225.85000610351562 202.2429962158203 88.55809783935547
v 212.83900451660156 203.58900451660156 120.35900115966797
v 211.8090057373047 203.55599975585938 120.75900268554688
v 220.2429962158203 209.63699340820312 118.91799926757812
v 221.8560028076172 200.56399536132812 81.46859741210938
v 220.88699340820312 219.3679962158203 123.95600128173828
v 222.4530029296875 200.58799743652344 81.21849822998047
v 218.54800415039062 211.43699645996094 120.84100341796875
v 217.13800048828125 209.53500366210938 121.61799621582031
v 224.89700317382812 202.36399841308594 106.30799865722656
v 225.1199951171875 202.2030029296875 105.15399932861328
v 206.81500244140625 201.51600646972656 108.17900085449219
v 207.07000732421875 201.9980010986328 106.61100006103516
v 223.12399291992188 204.2030029296875 98.59320068359375
v 222.66000366210938 204.8249969482422 96.25350189208984
v 224.96800231933594 200.5780029296875 99.06829833984375
v 224.27200317382812 200.3249969482422 99.5469970703125
v 206.19000244140625 200.02200317382812 112.7979965209961
v 216.36300659179688 204.60299682617188 81.62850189208984
v 218.6750030517578 211.96800231933594 110.21800231933594
v 218.41600036621094 210.0780029296875 109.66500091552734
v 211.60400390625 202.7259979248047 87.88800048828125
v 211.9340057373047 202.52200317382812 85.90339660644531
v 214.74000549316406 217.88900756835938 122.70600128173828
v 215.0570068359375 217.66200256347656 121.11299896240234
v 220.072998046875 200.88099670410156 81.9928970336914
v 219.31900024414062 201.0240020751953 82.16200256347656
v 222.4239959716797 200.92100524902344 82.13719940185547
v 222.66299438476562 203.47799682617188 111.2959976196289
v 222.91400146484375 204.63400268554688 112.41000366210938
v 214.6490020751953 216.25599670410156 120.12999725341797
v 214.61199951171875 217.14999389648438 121.73500061035156
v 218.4080047607422 215.4409942626953 123.1760025024414
v 217.43800354003906 216.85899353027344 124.63600158691406
v 221.5659942626953 200.8769989013672 82.356201171875
v 213.4409942626953 201.99200439453125 87.36969757080078
v 214.85699462890625 201.4810028076172 89.96859741210938
v 223.00599670410156 201.2969970703125 82.05269622802734
v 209.31900024414062 199.76300048828125 115.26200103759766
v 210.42300415039062 200.4340057373047 116.18900299072266
v 225.99600219726562 203.71099853515625 86.28260040283203
v 226.56300354003906 203.99000549316406 87.74849700927734
v 226.75 205.0989990234375 92.4802017211914
v 227.33799743652344 204.02499389648438 90.99949645996094
v 212.86700439453125 202.03199768066406 82.62570190429688
v 213.63600158691406 201.70399475097656 82.9126968383789
v 214.2209930419922 201.65199279785156 82.59559631347656
v 214.92799377441406 201.64300537109375 82.5022964477539
v 215.64999389648438 201.64100646972656 82.48780059814453
v 216.38400268554688 201.63499450683594 82.4541015625
v 217.1929931640625 201.55499267578125 82.45230102539062
v 217.82200622558594 215.7100067138672 108.28900146484375
v 219.18800354003906 215.7519989013672 109
v 209.552001953125 202.1739959716797 95.07029724121094
v 208.6840057373047 202.0399932861328 96.44319915771484
v 223.8509979248047 211.96299743652344 118.44499969482422
v 223.76400756835938 210.93600463867188 119.30000305175781
v 224.97799682617188 200.4219970703125 100.83399963378906
v 219.01699829101562 214.5800018310547 107.9540023803711
v 226.18800354003906 205.10400390625 95.35919952392578
v 226.71200561523438 204.61399841308594 96.91649627685547
v 223.32400512695312 202.2169952392578 81.87809753417969
v 212.18600463867188 202.63699340820312 81.84539794921875
v 212.06100463867188 202.47799682617188 82.98049926757812
v 218.33999633789062 212.33399963378906 107.36799621582031
v 217.82000732421875 211.36300659179688 106.89299774169922
v 215.65699768066406 208.98699951171875 124.38500213623047
v 215.06500244140625 207.65499877929688 123.39399719238281
v 218.53199768066406 220.33399963378906 123.40899658203125
v 215.8260040283203 209.59300231933594 125.22699737548828
v 216.34500122070312 209.51100158691406 123.97899627685547
v 222.9459991455078 210.76600646972656 120.302001953125
v 222.552001953125 208.3300018310547 117.49700164794922
v 224.72999572753906 203.01800537109375 101.87200164794922
v 224.93299865722656 202.6479949951172 103.4280014038086
v 222.73399353027344 202.80599975585938 81.26170349121094
v 223.32200622558594 202.80299377441406 82.07569885253906
v 223.79200744628906 202.531005859375 82.89669799804688
v 224.74000549316406 201.6280059814453 106.90799713134766
v 224.54299926757812 202.1439971923828 107.69400024414062
v 217.08200073242188 208.36700439453125 120.4520034790039
v 209.98800659179688 200.18600463867188 101.93599700927734
v 210.28199768066406 199.7310028076172 104.63600158691406
v 209.281005859375 200.16400146484375 103.5780029296875
v 216.718994140625 215.4459991455078 107.5250015258789
v 223.58700561523438 203.33099365234375 107.87100219726562
v 223.48699951171875 203.35699462890625 108.93699645996094
v 224.31399536132812 203.51400756835938 100.52899932861328
v 222.19500732421875 203.37899780273438 102.83699798583984
v 222.7760009765625 203.49400329589844 104.65799713134766
v 210.6510009765625 199.8459930419922 114.52899932861328
v 218.56199645996094 216.7469940185547 124.09200286865234
v 222.10699462890625 203.4980010986328 81.43879699707031
v 209.6540069580078 199.28199768066406 113.88600158691406
v 208.71099853515625 198.9770050048828 114.1500015258789
v 222.93299865722656 203.44200134277344 82.17720031738281
v 207.38400268554688 201.802001953125 110.33000183105469
v 208.36599731445312 202.322998046875 111.68599700927734
v 223.6009979248047 203.03799438476562 82.63050079345703
v 213.7790069580078 201.01100158691406 93.63369750976562
v 212.61099243164062 201.76600646972656 92.35659790039062
v 211.14599609375 203.51400756835938 82.6272964477539
v 211.45700073242188 204.09300231933594 82.05850219726562
v 215.50999450683594 216.95599365234375 118.53199768066406
v 209.13800048828125 204.1009979248047 90.43280029296875
v 208.9739990234375 204.30799865722656 92.26920318603516
v 211.66799926757812 203.23599243164062 82.03810119628906
v 212.18699645996094 204.031005859375 81.26609802246094
v 221.54400634765625 214.4459991455078 116.88899993896484
v 223.3070068359375 213.21200561523438 118.43399810791016
v 223.27200317382812 213.33399963378906 121.83999633789062
v 222.9969940185547 214.25999450683594 122.63099670410156
v 225.84500122070312 201.36900329589844 102.14800262451172
v 225.66799926757812 201.91099548339844 102.5770034790039
v 212.07899475097656 207.8209991455078 122.33200073242188
v 211.9770050048828 207.34800720214844 121.29499816894531
v 208.78199768066406 202.56399536132812 116.2959976196289
v 208.7530059814453 202.7050018310547 114.93299865722656
v 218.38499450683594 220.8730010986328 121.92900085449219
v 219.1999969482422 220.54400634765625 122.21199798583984
v 211.01499938964844 203.81500244140625 119.84200286865234
v 220.4969940185547 204.1179962158203 81.51190185546875
v 221.36300659179688 203.9980010986328 81.65059661865234
v 211.13600158691406 200.343994140625 99.71720123291016
v 206.39100646972656 200.30999755859375 111.29900360107422
v 206.50599670410156 199.53799438476562 110.4530029296875
v 222.17100524902344 204.06900024414062 82.25659942626953
v 216.31300354003906 201.60499572753906 83.79460144042969
v 216.84500122070312 201.59100341796875 85.54419708251953
v 214.81100463867188 207.22000122070312 92.16709899902344
v 210.87100219726562 204.0570068359375 83.0990982055664
v 220.56399536132812 211.36599731445312 115.43299865722656
v 221.66000366210938 212.45199584960938 117.00499725341797
v 211.41700744628906 204.86500549316406 82.5885009765625
v 211.9149932861328 204.6280059814453 81.87809753417969
v 212.9530029296875 204.38099670410156 81.00990295410156
v 218.197998046875 201.5780029296875 85.55249786376953
v 218.78700256347656 201.4980010986328 88.04720306396484
v 212.71200561523438 209.16200256347656 121.09700012207031
v 208.07899475097656 201.84300231933594 115.33399963378906
v 208.49200439453125 202.30299377441406 115.46800231933594
v 212.56500244140625 204.71299743652344 81.67359924316406
v 213.30299377441406 204.80599975585938 81.61180114746094
v 214.02200317382812 204.83299255371094 81.60880279541016
v 214.7570037841797 204.8209991455078 81.61170196533203
v 215.5189971923828 204.74400329589844 81.61219787597656
v 209.22000122070312 199.7449951171875 105.66699981689453
v 216.44900512695312 212.45799255371094 125.73799896240234
v 216.0679931640625 210.60800170898438 125.73400115966797
v 206.79100036621094 201.21400451660156 106.66899871826172
v 207.57899475097656 201.9199981689453 104.85299682617188
v 226.25999450683594 201.17100524902344 98.28240203857422
v 225.4499969482422 200.843994140625 98.1155014038086
v 227.89599609375 203.99899291992188 95.56520080566406
v 227.58700561523438 203.97799682617188 96.95980072021484
v 208.45700073242188 204.50999450683594 99.7686996459961
v 209.27099609375 206.11199951171875 100.7300033569336
v 220.9510040283203 205.26800537109375 85.64029693603516
v 222.46499633789062 205.5489959716797 86.0259017944336
v 219.1479949951172 217.11599731445312 109.91300201416016
v 217.7480010986328 204.65899658203125 82.19029998779297
v 218.52999877929688 204.58900451660156 82.1530990600586
v 219.26800537109375 204.5540008544922 82.17160034179688
v 211.81900024414062 200.2790069580078 113.33499908447266
v 210.11099243164062 199.26499938964844 112.677001953125
v 214.8699951171875 214.13699340820312 106.3550033569336
v 220.38499450683594 202.29400634765625 110.69100189208984
v 220.12399291992188 201.50799560546875 109.29000091552734
v 216.81399536132812 217.0679931640625 111.05400085449219
v 217.35499572753906 216.7969970703125 109.64900207519531
v 220.06199645996094 204.49400329589844 82.25180053710938
v 220.86199951171875 204.4720001220703 82.427001953125
v 221.55599975585938 204.44900512695312 82.55770111083984
v 223.59800720214844 212.20199584960938 121.05599975585938
v 215.60699462890625 218.47799682617188 124.68299865722656
v 211.98199462890625 206.17999267578125 115.23699951171875
v 212.33200073242188 206.58999633789062 111.69000244140625
v 209.41700744628906 205.38800048828125 86.71309661865234
v 209.93099975585938 205.22300720214844 85.46050262451172
v 210.02099609375 206.2830047607422 103.80500030517578
v 210.3560028076172 208.51100158691406 104.18800354003906
v 219.24099731445312 206.39700317382812 109.39099884033203
v 225.5449981689453 201.4080047607422 103.58899688720703
v 225.13900756835938 201.37100219726562 105.24099731445312
v 212.20399475097656 205.1280059814453 82.43699645996094
v 212.93600463867188 205.17599487304688 82.40280151367188
v 213.66000366210938 205.21800231933594 82.44380187988281
v 214.3820037841797 205.218994140625 82.44380187988281
v 215.1179962158203 205.18699645996094 82.40640258789062
v 215.8040008544922 205.1269989013672 82.37059783935547
v 208.73899841308594 199.0260009765625 109.49600219726562
v 208.33900451660156 198.51699829101562 111.56900024414062
v 216.35800170898438 205.2729949951172 82.87590026855469
v 219.42599487304688 220.00100708007812 117.54000091552734
v 208.1320037841797 202.42300415039062 109.05599975585938
v 209.34100341796875 203.00399780273438 107.80500030517578
v 213.39700317382812 211.3730010986328 120.91999816894531
v 213.02699279785156 211.29400634765625 123.6500015258789
v 210.52499389648438 204.3679962158203 116.99099731445312
v 218.98300170898438 201.25599670410156 83.02549743652344
v 210.6199951171875 204.39300537109375 118.66200256347656
v 211.4669952392578 205.7550048828125 118.28600311279297
v 219.74099731445312 201.2220001220703 83.20189666748047
v 220.84800720214844 200.9199981689453 82.44760131835938
v 220.48800659179688 201.20399475097656 83.24440002441406
v 221.23599243164062 201.20799255371094 83.35430145263672
v 221.97500610351562 201.21099853515625 83.30970001220703
v 217.4010009765625 208.0659942626953 118.54399871826172
v 217.88299560546875 206.42100524902344 116.90299987792969
v 207.06399536132812 200.53599548339844 106.4800033569336
v 208.08599853515625 201.67300415039062 102.96700286865234
v 222.3419952392578 204.1269989013672 112.8290023803711
v 207.68699645996094 201.6179962158203 114.19300079345703
v 214.82400512695312 211.55999755859375 126.4000015258789
v 214.3459930419922 212.74000549316406 126.16899871826172
v 213.47900390625 201.78199768066406 84.1521987915039
v 214.2259979248047 201.625 84.0979995727539
v 214.9219970703125 201.60499572753906 84.01940155029297
v 215.67999267578125 201.60400390625 84.00879669189453
v 217.08599853515625 201.59800720214844 84.00689697265625
v 218.11000061035156 201.3699951171875 82.64119720458984
v 217.80799865722656 201.5449981689453 83.8135986328125
v 208.04600524902344 200.41799926757812 104.88899993896484
v 207.21800231933594 201.12399291992188 105.25599670410156
v 221.83099365234375 204.01499938964844 107.5009994506836
v 225.43600463867188 205.50599670410156 93.62329864501953
v 224.40499877929688 205.78399658203125 92.0728988647461
v 224.48500061035156 204.79299926757812 97.01480102539062
v 221.947998046875 219.98500061035156 119.28399658203125
v 222.3730010986328 218.4810028076172 117.4990005493164
v 218.62399291992188 201.4810028076172 84.13410186767578
v 219.5019989013672 201.4499969482422 84.29740142822266
v 220.18299865722656 201.4239959716797 84.1719970703125
v 220.82400512695312 201.4290008544922 84.27030181884766
v 221.70199584960938 201.47900390625 84.83080291748047
v 222.58900451660156 201.26400756835938 83.095703125
v 222.39700317382812 201.44000244140625 84.16290283203125
v 223.05999755859375 201.55599975585938 83.78739929199219
v 219.572998046875 208.9409942626953 112.65799713134766
v 221.7729949951172 207.35000610351562 113.07599639892578
v 215.64999389648438 217.96200561523438 125.51799774169922
v 216.375 217.6959991455078 125.302001953125
v 211.3800048828125 202.9040069580078 83.21510314941406
v 211.98800659179688 202.43600463867188 84.28600311279297
v 222.13299560546875 204.125 98.87750244140625
v 221.86500549316406 203.6230010986328 100.46600341796875
v 218.8800048828125 200.17100524902344 102.14199829101562
v 216.3939971923828 200.20399475097656 99.09660339355469
v 224.2570037841797 214.1820068359375 119.68000030517578
v 212.72000122070312 202.08099365234375 83.96949768066406
v 212.4530029296875 209.25900268554688 96.04139709472656
v 222.24099731445312 202.2209930419922 110.84400177001953
v 221.4290008544922 201.74099731445312 109.85399627685547
v 209.76499938964844 201.3179931640625 97.00879669189453
v 224.27000427246094 202.47000122070312 84.22640228271484
v 212.1320037841797 212.1529998779297 103.17500305175781
v 213.45599365234375 211.21499633789062 101.90499877929688
v 227.07400512695312 201.69200134277344 97.87699890136719
v 227.18699645996094 202.375 98.87200164794922
v 224.08399963378906 202.9810028076172 83.36710357666016
v 210.91400146484375 203.32400512695312 83.49440002441406
v 211.1529998779297 202.9040069580078 84.53910064697266
v 211.09800720214844 208.83399963378906 94.28669738769531
v 223.48699951171875 210.50100708007812 117.69100189208984
v 207.81100463867188 201.15699768066406 115.5719985961914
v 223.61199951171875 203.64700317382812 83.03780364990234
v 224.20899963378906 203.51499938964844 83.5780029296875
v 222.8489990234375 218.73199462890625 119.42900085449219
v 223.1230010986328 217.4550018310547 119.73799896240234
v 210.58900451660156 203.58900451660156 84.56990051269531
v 227.07000732421875 203.22300720214844 98.84449768066406
v 210.64100646972656 203.31500244140625 86.4761962890625
v 209.66000366210938 204.2550048828125 87.17430114746094
v 222.69700622558594 200.71099853515625 107.44400024414062
v 222.35400390625 201.24200439453125 108.64399719238281
v 225.54100036621094 200.76600646972656 101.64199829101562
v 224.56300354003906 200.28199768066406 102.7770004272461
v 214.87100219726562 205.58299255371094 121.30599975585938
v 222.85400390625 219.04200744628906 123.92400360107422
v 223.57699584960938 218.00799560546875 123.19200134277344
v 222.8459930419922 204.20799255371094 82.92539978027344
v 223.43299865722656 204.45199584960938 83.52149963378906
v 224.06500244140625 204.13699340820312 83.72640228271484
v 224.63400268554688 203.0749969482422 84.26679992675781
v 224.5399932861328 203.80099487304688 84.07379913330078
v 210.44200134277344 204.29100036621094 84.11039733886719
v 210.7740020751953 204.7429962158203 83.3301010131836
v 219.03599548339844 213.41000366210938 108.322998046875
v 209.93099975585938 203.9199981689453 106.23999786376953
v 225.6020050048828 204.9409942626953 96.5613021850586
v 211.39599609375 201.16700744628906 117.24400329589844
v 227.7429962158203 203.11300659179688 97.82969665527344
v 223.61399841308594 217.322998046875 120.89700317382812
v 224.00900268554688 215.52499389648438 120.6510009765625
v 218.25599670410156 204.9239959716797 83.23799896240234
v 219.01300048828125 204.83599853515625 83.20780181884766
v 219.74099731445312 204.8179931640625 83.21549987792969
v 220.43299865722656 204.781005859375 83.16690063476562
v 221.1840057373047 204.88800048828125 83.66940307617188
v 214.14300537109375 202.73300170898438 116.76100158691406
v 222.10699462890625 204.66200256347656 83.18499755859375
v 221.7570037841797 208.89599609375 118.61199951171875
v 207.4969940185547 198.17799377441406 112.58699798583984
v 220.42300415039062 216.17999267578125 113.1709976196289
v 219.95700073242188 215.00999450683594 113.0270004272461
v 222.7550048828125 204.7790069580078 83.5697021484375
v 223.9149932861328 204.79400634765625 84.31600189208984
v 224.49600219726562 200.61700439453125 97.55829620361328
v 222.3350067138672 200.2689971923828 98.44850158691406
v 221.4290008544922 204.5919952392578 97.06269836425781
v 210.70599365234375 202.4600067138672 93.25060272216797
v 224.60400390625 204.51199340820312 84.75959777832031
v 214.98599243164062 206.83700561523438 99.77339935302734
v 216.031005859375 205.75999450683594 97.3749008178711
v 208.24899291992188 202.16200256347656 113.76899719238281
v 222.21400451660156 218.5240020751953 124.74600219726562
v 216.3300018310547 206.41400146484375 90.73909759521484
v 217.65699768066406 205.90499877929688 90.36740112304688
v 211.0970001220703 205.36599731445312 83.44400024414062
v 208.39599609375 200.8159942626953 116.41899871826172
v 211.85499572753906 205.5070037841797 83.20269775390625
v 212.60899353027344 205.57699584960938 83.22440338134766
v 213.28199768066406 205.55999755859375 83.17780303955078
v 214.07400512695312 205.71499633789062 83.51270294189453
v 214.78900146484375 205.53599548339844 83.15399932861328
v 215.5050048828125 205.53599548339844 83.21630096435547
v 224.2530059814453 202.8780059814453 106.78299713134766
v 224.05299377441406 202.63400268554688 108.4520034790039
v 215.8719940185547 216.26300048828125 111.97699737548828
v 216.26400756835938 217.0500030517578 113.23200225830078
v 219.48899841308594 217.7570037841797 124.60700225830078
v 218.23899841308594 218.2259979248047 124.75599670410156
v 209.84800720214844 203.7519989013672 115.697998046875
v 209.31700134277344 203.1510009765625 113.86299896240234
v 218.7050018310547 219.1490020751953 115.27999877929688
v 219.343994140625 218.7790069580078 113.53500366210938
v 215.6840057373047 200.80999755859375 107.81500244140625
v 216.375 201.822998046875 109.49500274658203
v 225.9530029296875 201.91400146484375 101.44499969482422
v 213.45399475097656 210.58099365234375 125.65699768066406
v 212.81900024414062 209.69500732421875 124.60600280761719
v 217.96400451660156 205.28199768066406 84.40689849853516
v 218.75799560546875 205.0800018310547 84.3386001586914
v 219.47799682617188 205.0489959716797 84.33290100097656
v 220.2480010986328 205.04100036621094 84.29570007324219
v 215.44900512695312 215.55599975585938 111.61399841308594
v 216.1269989013672 216.18600463867188 110.73200225830078
v 208.53900146484375 202.9669952392578 103.50299835205078
v 222.99099731445312 209.6999969482422 118.55000305175781
v 222.1280059814453 205.12899780273438 84.3052978515625
v 223.17799377441406 205.11000061035156 84.37030029296875
v 210.23300170898438 199.447998046875 107.56800079345703
v 212.8780059814453 207.70599365234375 86.86589813232422
v 214.19000244140625 207.08200073242188 86.48030090332031
v 219.43600463867188 219.4409942626953 123.90799713134766
v 220.38299560546875 220.01199340820312 123
v 222.61500549316406 211.531005859375 121.08599853515625
v 210.41799926757812 205.02200317382812 84.20850372314453
v 210.6439971923828 205.77999877929688 84.4655990600586
v 211.53799438476562 206.01699829101562 84.07389831542969
v 212.2779998779297 206.02000427246094 83.96070098876953
v 213.16099548339844 206.17300415039062 84.21600341796875
v 213.01800537109375 202.03700256347656 85.32869720458984
v 220.36500549316406 203.09800720214844 111.88999938964844
v 212.8820037841797 208.0189971923828 116.37200164794922
v 213.30299377441406 209.92300415039062 119.00599670410156
v 214.43099975585938 217.3820037841797 123.53900146484375
v 214.2209930419922 216.38099670410156 122.05699920654297
v 215.04100036621094 205.91099548339844 84.07109832763672
v 216.0469970703125 205.80999755859375 84.22689819335938
v 207.17799377441406 200.8260040283203 114.50900268554688
v 218.92799377441406 205.6060028076172 89.53990173339844
v 214.2830047607422 206.3679962158203 84.83390045166016
v 225.51100158691406 200.9080047607422 103.1760025024414
v 225.0590057373047 200.8679962158203 104.68599700927734
v 221.1199951171875 217.65699768066406 114.70800018310547
v 221.86300659179688 217.13999938964844 116.36100006103516
v 214.13699340820312 201.7010040283203 85.668701171875
v 214.86900329589844 201.60299682617188 85.39939880371094
v 215.67100524902344 201.5970001220703 85.59400177001953
v 215.13400268554688 209.80599975585938 126.06099700927734
v 214.38400268554688 210.41299438476562 126.35199737548828
v 219.02200317382812 202.58200073242188 110.66000366210938
v 219.3260040283203 203.88499450683594 113.03600311279297
v 224.0050048828125 200.9810028076172 93.97090148925781
v 220.4600067138672 205.1999969482422 94.30180358886719
v 219.3249969482422 201.5659942626953 85.64070129394531
v 220.50900268554688 201.55099487304688 85.47789764404297
v 223.01400756835938 207.2050018310547 114.46800231933594
v 223.04299926757812 208.06399536132812 115.98999786376953
v 224.1020050048828 205.20899963378906 95.14579772949219
v 221.76600646972656 205.48300170898438 92.96839904785156
v 212.58299255371094 209.45899963378906 123.0739974975586
v 214.9010009765625 208.67799377441406 102.52999877929688
v 209.84800720214844 201.1719970703125 117.22000122070312
v 208.1060028076172 199.8179931640625 106.72699737548828
v 217.69700622558594 200.43699645996094 95.49530029296875
v 222.7790069580078 201.5959930419922 85.44719696044922
v 223.47500610351562 201.75799560546875 85.17549896240234
v 216.3179931640625 219.39500427246094 123.8239974975586
v 224.11099243164062 213.70599365234375 121.80699920654297
v 223.93699645996094 214.91400146484375 122.73500061035156
v 208.24899291992188 198.4550018310547 113.39099884033203
v 209.13600158691406 204.25399780273438 102.61299896240234
v 212.05799865722656 206.67999267578125 123.13099670410156
v 211.81399536132812 206.30099487304688 122.15899658203125
v 224 216.01800537109375 122.62899780273438
v 213.4770050048828 213.6219940185547 124.38899993896484
v 218.16400146484375 209.82400512695312 119.13800048828125
v 219.26600646972656 211.72000122070312 113.25299835205078
v 212.66799926757812 200.39199829101562 110.61499786376953
v 213.78399658203125 212.66400146484375 115.29900360107422
v 214.4600067138672 214.33599853515625 115.01499938964844
v 224.92100524902344 202.53500366210938 85.6052017211914
v 224.177001953125 202.0760040283203 85.77210235595703
v 225.16900634765625 203.03700256347656 85.07620239257812
v 227.06500244140625 203.26800537109375 89.28140258789062
v 226.34500122070312 202.92100524902344 87.7770004272461
v 207.07200622558594 198.6280059814453 111.28800201416016
v 206.81900024414062 201.01300048828125 110.31300354003906
v 220.6199951171875 203.76600646972656 112.81700134277344
v 220.49000549316406 204.572998046875 114.0260009765625
v 222.85400390625 206.05099487304688 114.16200256347656
v 221.88699340820312 203.38800048828125 112.04199981689453
v 215.21400451660156 210.64300537109375 126.29100036621094
v 217.73599243164062 204.62899780273438 100.16200256347656
v 218.2570037841797 204.2969970703125 103.91300201416016
v 225.031005859375 203.6529998779297 84.67549896240234
v 225.5229949951172 203.4709930419922 85.33159637451172
v 225.6479949951172 202.93600463867188 86.09020233154297
v 220.1959991455078 205.59300231933594 115.48699951171875
v 218.35699462890625 201.1060028076172 108.0469970703125
v 225.4040069580078 204.22500610351562 85.45960235595703
v 223.12100219726562 203.66799926757812 100.18299865722656
v 214.19900512695312 214.16799926757812 117.16200256347656
v 214.66000366210938 215.30799865722656 117.54100036621094
v 210.1529998779297 204.28500366210938 85.36370086669922
v 215.06700134277344 213.33299255371094 104.61499786376953
v 209.52200317382812 200.79400634765625 99.69999694824219
v 209.03500366210938 206.64300537109375 90.29969787597656
v 209.49099731445312 207.08999633789062 88.97360229492188
v 211.81300354003906 207.52000427246094 108.11499786376953
v 224.98599243164062 205.13600158691406 86.252197265625
v 209.2469940185547 207.0449981689453 97.93939971923828
v 208.9550018310547 206.55499267578125 94.74759674072266
v 225.87600708007812 204.69200134277344 86.91960144042969
v 228.0679931640625 203.1060028076172 96.52230072021484
v 210.04200744628906 203.8300018310547 117.63300323486328
v 215.84300231933594 205.06199645996094 117.64299774169922
v 216.5989990234375 206.875 119.5790023803711
v 209.01699829101562 206.1840057373047 88.87300109863281
v 217.2760009765625 214.98199462890625 106.5530014038086
v 217.0679931640625 205.80099487304688 85.64730072021484
v 218.41600036621094 205.36399841308594 85.83609771728516
v 219.30599975585938 205.18600463867188 85.69139862060547
v 219.9550018310547 205.177001953125 85.4896011352539
v 220.06199645996094 216.9239959716797 123.79900360107422
v 213.77699279785156 200.177001953125 101.08100128173828
v 222.9409942626953 200.1699981689453 102.60099792480469
v 220.9409942626953 200.16299438476562 100.6240005493164
v 213.97500610351562 213.91600036621094 119.4020004272461
v 216.33200073242188 210.13099670410156 124.75900268554688
v 216.88099670410156 211.30599975585938 124.41500091552734
v 221.9720001220703 220.1300048828125 121.31500244140625
v 222.47300720214844 219.89999389648438 120.4749984741211
v 216.5760040283203 203.16000366210938 112.81600189208984
v 211.07400512695312 199.96600341796875 102.96299743652344
v 215.84100341796875 207.0019989013672 121.63800048828125
v 223.8769989013672 205.39300537109375 85.67559814453125
v 220.97900390625 212.9530029296875 121.36900329589844
v 218.7519989013672 213.82000732421875 122.02200317382812
v 207.7530059814453 202.4340057373047 107.50199890136719
v 215.31399536132812 216.18899536132812 116.05899810791016
v 217.98800659179688 205.70700073242188 87.77259826660156
v 211.3249969482422 208.46800231933594 90.45010375976562
v 210.2899932861328 207.98199462890625 89.59880065917969
v 223.03500366210938 216.1269989013672 119.52300262451172
v 210.1580047607422 206.3509979248047 85.9312973022461
v 211.22300720214844 201.48800659179688 94.86910247802734
v 207.08700561523438 199.51300048828125 109.35299682617188
v 207.1840057373047 199.95799255371094 107.95999908447266
v 211.14599609375 206.5850067138672 85.00650024414062
v 212.281005859375 206.89999389648438 85.13500213623047
v 224.92799377441406 200.9429931640625 95.51010131835938
v 213.38099670410156 206.98199462890625 85.52339935302734
v 214.17599487304688 213.44500732421875 112.84100341796875
v 209.19700622558594 200.52499389648438 116.34500122070312
v 208.20599365234375 200.33099365234375 115.71800231933594
v 211.72900390625 199.656005859375 106.48600006103516
v 224.41200256347656 205.843994140625 90.42569732666016
v 215.53599548339844 206.32899475097656 85.66840362548828
v 226.68899536132812 201.98599243164062 91.94080352783203
v 226.31100463867188 201.54600524902344 94.20230102539062
v 221.41000366210938 203.54200744628906 112.49500274658203
v 217.7270050048828 219.36700439453125 124.7239990234375
v 224.98199462890625 202.19500732421875 87.19930267333984
v 224.33900451660156 201.92799377441406 87.49600219726562
v 220.06500244140625 216.81399536132812 111.66699981689453
v 212.0240020751953 202.44900512695312 90.2406997680664
v 210.03700256347656 203.2830047607422 91.63899993896484
v 226.14300537109375 202.77200317382812 100.36799621582031
v 211.30099487304688 204.27099609375 120.72599792480469
v 222.86199951171875 218.33999633789062 124.60900115966797
v 210.156005859375 203.40699768066406 89.1885986328125
v 213.2480010986328 201.25799560546875 112.41400146484375
v 212.39199829101562 205.80499267578125 122.76499938964844
v 206.7519989013672 200.5800018310547 107.94000244140625
v 227.61199951171875 202.15199279785156 95.91320037841797
v 226.15899658203125 201.21200561523438 96.71769714355469
v 216.72799682617188 200.32400512695312 105.10399627685547
v 220.21600341796875 217.97900390625 112.95099639892578
v 219.5760040283203 217.80099487304688 111.2760009765625
v 222.04100036621094 219.34500122070312 123.9990005493164
v 221.0970001220703 218.4250030517578 124.63300323486328
v 223.1060028076172 219.2050018310547 121.45899963378906
v 213.47799682617188 207.79200744628906 88.23750305175781
v 213.05099487304688 208.10800170898438 90.40489959716797
v 213.21299743652344 202.58599853515625 118.34500122070312
v 212.85800170898438 208.60899353027344 113.13200378417969
v 212.21800231933594 209.29100036621094 108.58699798583984
v 222.97999572753906 206.29100036621094 113.15899658203125
v 211.718994140625 200.61199951171875 115.63999938964844
v 211.11099243164062 209.13499450683594 105.83000183105469
v 207.14500427246094 198.5189971923828 113.4800033569336
v 216.66900634765625 206.0919952392578 93.76119995117188
v 224.3459930419922 202.99099731445312 103.27400207519531
v 221.72300720214844 219.51699829101562 117.14199829101562
v 207.5260009765625 198.98599243164062 110.0250015258789
v 213.77699279785156 209.11199951171875 125.34600067138672
v 208.0749969482422 200.95700073242188 103.8759994506836
v 208.26499938964844 203.1219940185547 100.51799774169922
v 207.9530029296875 203.93099975585938 98.05169677734375
v 213.96800231933594 211.5500030517578 126.15899658203125
v 220.9219970703125 200.1649932861328 102.99199676513672
v 220.3090057373047 200.21499633789062 104.74400329589844
v 211.4949951171875 206.04200744628906 120.53500366210938
v 209.09100341796875 203.15499877929688 115.6259994506836
v 220.83399963378906 201.2270050048828 108.71299743652344
v 213.16000366210938 211.21499633789062 110.21399688720703
v 213.89700317382812 213.02099609375 110.62000274658203
v 222.48800659179688 219.75599670410156 122.36399841308594
v 211.4550018310547 211.48300170898438 100.95800018310547
v 212.7259979248047 211.13099670410156 100.34700012207031
v 215.34500122070312 201.57400512695312 87.15760040283203
v 210.0399932861328 203.46800231933594 109.95899963378906
v 216.73500061035156 201.54600524902344 87.16500091552734
v 220.5050048828125 215.2949981689453 122.26899719238281
v 220.92599487304688 216.5760040283203 123.47799682617188
v 222.5050048828125 217.15899658203125 118.31800079345703
v 217.2100067138672 212.66900634765625 124.24500274658203
v 216.3470001220703 214.21600341796875 125.6050033569336
v 210.80499267578125 199.57200622558594 111.0739974975586
v 222.6529998779297 205.072998046875 113.48500061035156
v 215.63099670410156 212.05599975585938 126.2979965209961
v 219.5989990234375 201.57400512695312 87.23819732666016
v 220.5780029296875 201.58399963378906 87.10179901123047
v 216.45700073242188 216.64100646972656 125.74299621582031
v 215.7779998779297 215.8470001220703 126.19000244140625
v 213.88299560546875 206.06300354003906 122.64199829101562
v 212.63900756835938 206.40199279785156 123.43800354003906
v 208.01300048828125 202.69000244140625 98.54129791259766
v 215.6790008544922 216.37100219726562 113.47000122070312
v 222.2010040283203 201.5989990234375 87.03289794921875
v 210.9709930419922 204.8820037841797 119.67500305175781
v 222.97300720214844 205.55599975585938 112.80400085449219
v 211.47000122070312 199.54299926757812 109.25900268554688
v 223.5240020751953 201.74899291992188 86.76490020751953
v 222.24400329589844 213.83599853515625 122.052001953125
v 217.94000244140625 204.81399536132812 115.22000122070312
v 209.94400024414062 208.3990020751953 95.72419738769531
v 209.5679931640625 207.62100219726562 93.35099792480469
v 220.4149932861328 215.5240020751953 114.33599853515625
v 220.2100067138672 213.4029998779297 115.06900024414062
v 213.75100708007812 201.96099853515625 114.51100158691406
v 214.9429931640625 214.91299438476562 113.29100036621094
v 215.31199645996094 215.71099853515625 113.58899688720703
v 217.2550048828125 218.51699829101562 117.75900268554688
v 216.9199981689453 217.93099975585938 115.79000091552734
v 217.42999267578125 213.9810028076172 123.87999725341797
v 219.80499267578125 220.76400756835938 120.3219985961914
v 219.27099609375 220.37899780273438 119.16100311279297
v 208.5760040283203 205.1280059814453 94.15899658203125
v 210.25900268554688 201.87899780273438 118.05899810791016
v 217.7010040283203 200.2220001220703 103.11100006103516
v 225.35800170898438 202.01800537109375 103.53199768066406
v 222.7949981689453 204.9980010986328 111.16500091552734
v 221.9010009765625 201.48599243164062 89.21240234375
v 226.94000244140625 203.91099548339844 98.14209747314453
v 221.68899536132812 200.76600646972656 94.12139892578125
v 219.29100036621094 200.8209991455078 92.95860290527344
v 221.7969970703125 215.43099975585938 122.94200134277344
v 221.8939971923828 216.59800720214844 123.82099914550781
v 210.98300170898438 210.83200073242188 99.9531021118164
v 210.4669952392578 209.58700561523438 98.20249938964844
v 223.89300537109375 216.5050048828125 122.56999969482422
v 225.77999877929688 204.46200561523438 97.97669982910156
v 223.125 203.9510040283203 109.74400329589844
v 217.8780059814453 219.55299377441406 118.95500183105469
v 220.04600524902344 218.927001953125 114.47100067138672
v 217.9739990234375 214.98300170898438 107.15899658203125
v 213.34500122070312 210.43299865722656 115.91600036621094
v 209.39300537109375 202.95899963378906 117.21600341796875
v 217.58299255371094 212.177001953125 122.61100006103516
v 207.4250030517578 201.5399932861328 112.68299865722656
v 223.07200622558594 201.16000366210938 91.96160125732422
v 212.5989990234375 201.24400329589844 115.4469985961914
v 220.3209991455078 203.77099609375 102.51499938964844
v 214.2949981689453 207.50999450683594 95.75199890136719
v 221.6999969482422 204.76600646972656 109.4000015258789
v 223.15699768066406 202.20199584960938 109.46499633789062
v 209.08399963378906 204.76499938964844 87.86070251464844
v 223.80599975585938 201.67999267578125 88.51959991455078
v 219.14500427246094 205.3520050048828 87.38359832763672
v 220.02999877929688 205.2899932861328 86.966796875
v 214.9980010986328 207.01699829101562 88.53060150146484
v 209.17999267578125 204.11599731445312 88.91280364990234
v 208.8260040283203 205.01699829101562 89.0989990234375
v 220.58799743652344 216.89500427246094 113.2979965209961
v 208.13999938964844 201.38099670410156 116.39399719238281
v 214.28199768066406 209.55299377441406 126.15799713134766
v 209.04400634765625 205.5970001220703 87.78690338134766
v 224.33900451660156 200.8560028076172 106.41100311279297
v 209.45199584960938 206.3470001220703 87.40370178222656
v 216.89100646972656 218.83799743652344 124.6989974975586
v 219.9290008544922 200.94200134277344 107.81300354003906
v 211.19700622558594 210.3769989013672 105.0979995727539
v 212.61500549316406 211.68499755859375 106.62799835205078
v 220.05799865722656 205.61099243164062 91.24109649658203
v 220.02200317382812 205.5070037841797 88.82450103759766
v 222.54800415039062 212.52499389648438 121.58100128173828
v 223.58399963378906 203.177001953125 101.80899810791016
v 213.43299865722656 211.3509979248047 113.31099700927734
v 226.82899475097656 205.0989990234375 94.09850311279297
v 210.35000610351562 208.25 91.87419891357422
v 214.11700439453125 215.8260040283203 124.43900299072266
v 219.19900512695312 207.75 117.39700317382812
v 222.76199340820312 205.8280029296875 88.6227035522461
v 223.51499938964844 205.8000030517578 87.20459747314453
v 216.04400634765625 215.6999969482422 109.46900177001953
v 221.29200744628906 202.42799377441406 111.21800231933594
v 224.7310028076172 202.82000732421875 104.83999633789062
v 224.54299926757812 204.12600708007812 98.88520050048828
v 225.9409942626953 203.7100067138672 99.41600036621094
v 209.3260040283203 198.9720001220703 110.93599700927734
v 211.822998046875 208.2030029296875 88.49150085449219
v 211.4250030517578 207.50100708007812 86.368896484375
v 216.12600708007812 219.2100067138672 122.49099731445312
v 225.47900390625 205.4429931640625 88.03959655761719
v 221.6719970703125 204.30499267578125 113.3010025024414
v 206.71099853515625 198.26300048828125 112.13500213623047
v 211.11000061035156 209.71600341796875 96.60269927978516
v 216.68899536132812 206.1959991455078 87.94529724121094
v 212.08399963378906 210.5800018310547 98.4207992553711
v 220.03500366210938 210.08999633789062 114.06199645996094
v 221.09500122070312 208.6649932861328 114.2239990234375
v 209.781005859375 199.3280029296875 109.36399841308594
v 220.4770050048828 200.42100524902344 96.00789642333984
v 223.55999755859375 203.14999389648438 103.32599639892578
v 213.85699462890625 214.64700317382812 122.55500030517578
v 214.3300018310547 215.33299255371094 119.78299713134766
v 219.9149932861328 207.48899841308594 111.02200317382812
v 212.2259979248047 204.5590057373047 121.70099639892578
v 220.68600463867188 220.31900024414062 118.6729965209961
v 223.41900634765625 200.1840057373047 100.92500305175781
v 218.68299865722656 218.5540008544922 112.51499938964844
v 226.4029998779297 202.00900268554688 100.30699920654297
v 213.48399353027344 206.87899780273438 123.80000305175781
v 216.37399291992188 206.1739959716797 103.38800048828125
v 217.56700134277344 220.21299743652344 123.88800048828125
v 210.33799743652344 210.16900634765625 102.37699890136719
v 225.802001953125 205.55499267578125 89.95059967041016
v 208.8090057373047 201.25399780273438 116.74600219726562
v 208.21200561523438 202.12600708007812 97.79779815673828
v 215.61000061035156 217.53500366210938 119.49400329589844
v 211.82000732421875 211.70199584960938 105.2699966430664
v 213.31199645996094 209.28700256347656 98.15460205078125
v 214.03199768066406 214.33799743652344 125.55599975585938
v 221.1439971923828 205.56100463867188 87.75990295410156
v 208.5 204.02200317382812 94.32319641113281
v 208.47500610351562 202.99000549316406 95.10230255126953
v 219.2949981689453 218.28900146484375 112.11799621582031
v 227.38400268554688 202.85000610351562 91.27890014648438
v 214.82000732421875 214.5070037841797 110.64600372314453
v 226.53399658203125 201.55099487304688 99.32779693603516
v 214.16299438476562 208.0449981689453 124.61799621582031
v 215.0240020751953 209.14700317382812 125.52100372314453
v 209.43499755859375 207.37399291992188 91.05750274658203
v 225.02499389648438 201.89100646972656 88.77429962158203
v 218.85800170898438 210.4530029296875 112.11499786376953
v 222.5709991455078 206.58799743652344 115.56199645996094
v 220.5959930419922 201.1719970703125 91.1498031616211
v 208.4250030517578 202.86700439453125 105.88300323486328
v 213.63900756835938 200.20199584960938 105.4010009765625
v 222.9029998779297 215.78399658203125 123.39600372314453
v 225.7310028076172 200.9320068359375 99.54609680175781
v 207.80999755859375 199.72999572753906 114.92900085449219
v 207.927001953125 203.8070068359375 96.04010009765625
v 208.13600158691406 204.70199584960938 96.06829833984375
v 215.40499877929688 218.36300659179688 121.82499694824219
v 219.19000244140625 213.19900512695312 112.18499755859375
v 223.1580047607422 203.54100036621094 106.34400177001953
v 207.97500610351562 202.85299682617188 96.75550079345703
v 215.86900329589844 209.82400512695312 104.27200317382812
v 212.32000732421875 207.5 119.5770034790039
v 211.156005859375 204.75999450683594 114.60600280761719
v 223.05599975585938 203.031005859375 110.26599884033203
v 226.36599731445312 204.93800354003906 88.74849700927734
v 226.072998046875 201.38600158691406 100.63300323486328
v 208.78199768066406 205.4550018310547 90.55339813232422
v 213.7310028076172 203.31300354003906 118.84400177001953
v 223.9239959716797 203.18600463867188 104.69400024414062
v 221.96299743652344 215.86099243164062 117.46499633789062
v 218.42799377441406 216.6280059814453 109.03700256347656
v 206.2169952392578 199.18800354003906 112.05799865722656
v 208.68699645996094 201.5659942626953 98.55370330810547
v 210.28700256347656 207.4010009765625 87.5802001953125
v 215.9530029296875 218.33799743652344 120.4990005493164
v 223.57200622558594 205.59500122070312 93.17179870605469
v 227.58999633789062 204.36199951171875 93.59439849853516
v 228.03799438476562 203.31199645996094 94.62000274658203
v 213.64300537109375 212.9530029296875 107.71700286865234
v 213.53700256347656 204.91400146484375 121.56800079345703
v 213.8159942626953 212.65699768066406 118.46800231933594
v 213.84500122070312 209.36700439453125 100.23200225830078
v 216.3070068359375 208.5019989013672 122.7030029296875
v 214.08900451660156 213.5019989013672 106.0260009765625
v 215.06100463867188 216.9739990234375 119.93399810791016
v 215.2949981689453 218.5760040283203 123.33300018310547
v 221.00599670410156 216.27000427246094 114.89900207519531
v 214.77099609375 218.1580047607422 124.21900177001953
v 214.5919952392578 217.0489959716797 125.41799926757812
v 214.57899475097656 211.58999633789062 103.3949966430664
v 206.6929931640625 200.08700561523438 109.41999816894531
v 225.00399780273438 200.5469970703125 103.71199798583984
v 226.96499633789062 204.2239990234375 89.14739990234375
v 226.70599365234375 204.97900390625 90.50389862060547
v 211.5540008544922 205.375 121.43900299072266
v 221.92100524902344 209.75799560546875 119.41799926757812
v 218.7949981689453 205.04100036621094 96.11730194091797
v 220.5019989013672 204.2270050048828 98.8113021850586
v 217.39599609375 211.9759979248047 105.7229995727539
v 213.10000610351562 212.82899475097656 105.37100219726562
v 208.4980010986328 205.4320068359375 97.42389678955078
v 217.0330047607422 215.53500366210938 124.94400024414062
v 219.17599487304688 200.21400451660156 98.6615982055664
v 210.88299560546875 211.26600646972656 103.59500122070312
v 209.81399536132812 208.77999877929688 100.3030014038086
v 227.79600524902344 202.3520050048828 97.46279907226562
v 225.78599548339844 205.6179962158203 91.69239807128906
v 226.6999969482422 202.3820037841797 89.97239685058594
v 215.66099548339844 205.67100524902344 120.01100158691406
v 209.322998046875 203.20599365234375 93.61070251464844
v 222.42799377441406 200.18899536132812 104.69200134277344
v 216.2790069580078 211.8990020751953 104.7030029296875
v 210.34800720214844 202.8560028076172 118.44999694824219
v 227.2989959716797 204.6490020751953 95.4646987915039
v 223.0590057373047 214.49000549316406 118.88400268554688
v 223.55099487304688 200.61900329589844 106.91100311279297
v 219.43600463867188 219.58599853515625 116.11499786376953
v 206.531005859375 198.46099853515625 112.88700103759766
v 222.9720001220703 200.56199645996094 96.11080169677734
v 217.04299926757812 210.38499450683594 122.90699768066406
v 210.44500732421875 203.75100708007812 118.96499633789062
v 221.68499755859375 205.375 114.63999938964844
v 209.8979949951172 208.22799682617188 102.14800262451172
v 214.63999938964844 215.4219970703125 126.22200012207031
v 224.14199829101562 200.28700256347656 104.40799713134766
v 227.78500366210938 203.47999572753906 92.5645980834961
v 225.81300354003906 201.83799743652344 90.26309967041016
v 216.5749969482422 208.16700744628906 105.08999633789062
v 214.82899475097656 202.697998046875 114.19000244140625
v 217.1719970703125 220.22500610351562 122.52899932861328
v 218.8159942626953 205.56300354003906 92.47319793701172
v 215.26699829101562 213.46099853515625 126.35299682617188
v 209.0399932861328 198.73599243164062 112.75
v 222.10699462890625 207.29800415039062 116.90299987792969
v 208.87899780273438 206.11300659179688 92.21929931640625
v 227.61599731445312 202.5229949951172 93.4343032836914

g grp1
usemtl mtl1
f 3 2 1 
f 5 1 2 
f 13 2 3 
f 1 5 4 
f 6 4 5 
f 17 4 6 
f 9 8 7 
f 11 7 8 
f 20 8 9 
f 7 11 10 
f 12 10 11 
f 13 10 12 
f 12 2 13 
f 14 2 12 
f 15 5 2 
f 15 2 14 
f 16 6 5 
f 16 5 15 
f 18 17 6 
f 19 18 6 
f 19 6 16 
f 37 18 19 
f 99 21 20 
f 28 20 21 
f 348 23 22 
f 324 22 23 
f 357 25 24 
f 146 24 25 
f 28 8 20 
f 979 27 26 
f 84 26 27 
f 29 8 28 
f 30 11 8 
f 30 8 29 
f 31 12 11 
f 31 11 30 
f 32 14 12 
f 32 12 31 
f 33 15 14 
f 33 14 32 
f 34 16 15 
f 34 15 33 
f 34 35 19 
f 36 19 35 
f 19 16 34 
f 37 19 36 
f 617 39 38 
f 142 38 39 
f 449 41 40 
f 925 40 41 
f 417 43 42 
f 385 42 43 
f 46 28 21 
f 561 45 44 
f 635 44 45 
f 47 29 28 
f 47 28 46 
f 48 30 29 
f 48 29 47 
f 49 31 30 
f 49 30 48 
f 50 32 31 
f 50 31 49 
f 50 51 33 
f 52 33 51 
f 33 32 50 
f 34 33 52 
f 53 34 52 
f 35 34 53 
f 55 46 54 
f 21 54 46 
f 47 46 55 
f 56 47 55 
f 48 47 56 
f 57 48 56 
f 49 48 57 
f 58 49 57 
f 50 49 58 
f 59 50 58 
f 51 50 59 
f 85 13 3 
f 283 61 60 
f 289 60 61 
f 304 63 62 
f 498 62 63 
f 487 65 64 
f 741 64 65 
f 67 3 1 
f 67 66 3 
f 85 3 66 
f 68 1 4 
f 68 67 1 
f 69 4 17 
f 70 69 17 
f 69 68 4 
f 86 69 70 
f 625 72 71 
f 473 71 72 
f 727 74 73 
f 816 73 74 
f 901 76 75 
f 998 75 76 
f 78 77 9 
f 20 9 77 
f 79 9 7 
f 79 78 9 
f 996 81 80 
f 822 80 81 
f 245 83 82 
f 994 82 83 
f 7 10 79 
f 85 79 10 
f 85 10 13 
f 176 84 27 
f 18 70 17 
f 70 18 37 
f 37 86 70 
f 114 86 37 
f 89 88 87 
f 91 87 88 
f 117 88 89 
f 87 91 90 
f 93 90 91 
f 90 93 92 
f 95 92 93 
f 92 95 94 
f 98 94 95 
f 328 97 96 
f 802 96 97 
f 99 94 98 
f 21 99 98 
f 77 94 99 
f 1000 101 100 
f 860 100 101 
f 462 103 102 
f 286 102 103 
f 755 105 104 
f 107 104 105 
f 77 99 20 
f 435 107 106 
f 663 106 107 
f 993 109 108 
f 829 108 109 
f 465 111 110 
f 955 110 111 
f 112 36 35 
f 113 36 112 
f 113 37 36 
f 113 114 37 
f 126 116 115 
f 751 115 116 
f 120 88 117 
f 688 119 118 
f 580 118 119 
f 121 88 120 
f 122 91 88 
f 122 88 121 
f 123 93 91 
f 123 91 122 
f 124 95 93 
f 124 93 123 
f 125 98 95 
f 125 95 124 
f 600 126 115 
f 889 128 127 
f 393 127 128 
f 129 21 98 
f 125 129 98 
f 129 54 21 
f 202 131 130 
f 978 130 131 
f 132 52 51 
f 133 53 52 
f 133 52 132 
f 134 53 133 
f 35 53 134 
f 112 35 134 
f 729 45 135 
f 562 135 45 
f 498 137 136 
f 181 136 137 
f 907 139 138 
f 390 138 139 
f 872 141 140 
f 862 140 141 
f 629 142 39 
f 581 144 143 
f 228 143 144 
f 24 146 145 
f 614 145 146 
f 148 120 147 
f 117 147 120 
f 149 121 120 
f 149 120 148 
f 150 122 121 
f 150 121 149 
f 151 123 122 
f 151 122 150 
f 152 124 123 
f 152 123 151 
f 153 125 124 
f 153 124 152 
f 154 129 125 
f 154 125 153 
f 155 55 54 
f 129 155 54 
f 154 155 129 
f 156 56 55 
f 156 55 155 
f 157 57 56 
f 157 56 156 
f 158 58 57 
f 158 57 157 
f 159 59 58 
f 159 58 158 
f 132 51 59 
f 159 132 59 
f 162 132 159 
f 814 161 160 
f 261 160 161 
f 133 132 162 
f 197 133 162 
f 72 164 163 
f 280 163 164 
f 197 134 133 
f 810 166 165 
f 885 165 166 
f 632 168 167 
f 422 167 168 
f 982 170 169 
f 991 169 170 
f 84 172 171 
f 226 171 172 
f 725 174 173 
f 298 173 174 
f 742 176 175 
f 830 175 176 
f 341 178 177 
f 896 177 178 
f 956 180 179 
f 966 179 180 
f 182 150 149 
f 759 136 181 
f 148 182 149 
f 183 151 150 
f 183 150 182 
f 184 152 151 
f 184 151 183 
f 184 185 153 
f 186 153 185 
f 153 152 184 
f 154 153 186 
f 406 187 83 
f 994 83 187 
f 415 189 188 
f 620 188 189 
f 154 186 190 
f 210 190 186 
f 190 155 154 
f 191 156 155 
f 191 155 190 
f 192 157 156 
f 192 156 191 
f 192 193 158 
f 194 158 193 
f 158 157 192 
f 159 158 194 
f 195 159 194 
f 162 159 195 
f 196 162 195 
f 197 162 196 
f 556 199 198 
f 579 198 199 
f 206 201 200 
f 748 200 201 
f 983 116 126 
f 390 202 130 
f 182 148 203 
f 360 203 148 
f 204 182 203 
f 183 182 204 
f 205 183 204 
f 184 183 205 
f 185 184 205 
f 595 207 206 
f 242 206 207 
f 616 209 208 
f 861 208 209 
f 211 190 210 
f 191 190 211 
f 212 191 211 
f 192 191 212 
f 193 192 212 
f 666 214 213 
f 769 213 214 
f 697 216 215 
f 660 215 216 
f 449 218 217 
f 831 217 218 
f 901 219 76 
f 439 76 219 
f 924 221 220 
f 277 220 221 
f 934 223 222 
f 673 222 223 
f 642 225 224 
f 720 224 225 
f 886 227 226 
f 171 226 227 
f 526 228 101 
f 860 101 228 
f 229 67 68 
f 66 67 229 
f 738 230 199 
f 579 199 230 
f 231 68 69 
f 229 68 231 
f 86 231 69 
f 986 233 232 
f 633 232 233 
f 303 235 234 
f 865 234 235 
f 696 237 236 
f 374 236 237 
f 866 239 238 
f 534 238 239 
f 282 241 240 
f 532 240 241 
f 251 78 79 
f 938 201 242 
f 206 242 201 
f 370 243 185 
f 186 185 243 
f 913 245 244 
f 289 244 245 
f 496 247 246 
f 260 246 247 
f 923 249 248 
f 256 248 249 
f 251 79 250 
f 85 250 79 
f 86 252 231 
f 229 231 252 
f 66 250 85 
f 428 250 66 
f 810 254 253 
f 648 253 254 
f 592 256 255 
f 951 255 256 
f 316 258 257 
f 968 257 258 
f 259 66 229 
f 428 66 259 
f 252 259 229 
f 768 261 260 
f 723 260 261 
f 924 244 221 
f 512 221 244 
f 262 252 86 
f 262 86 114 
f 315 264 263 
f 711 263 264 
f 670 266 265 
f 642 265 266 
f 943 268 267 
f 960 267 268 
f 270 269 89 
f 117 89 269 
f 271 89 87 
f 271 270 89 
f 272 87 90 
f 272 271 87 
f 273 90 92 
f 273 272 90 
f 274 92 94 
f 274 273 92 
f 275 94 77 
f 275 274 94 
f 937 277 276 
f 283 276 277 
f 478 279 278 
f 904 278 279 
f 164 281 280 
f 488 280 281 
f 919 282 240 
f 445 275 77 
f 512 61 283 
f 514 285 284 
f 980 284 285 
f 262 113 103 
f 286 103 113 
f 114 113 262 
f 269 288 287 
f 331 287 288 
f 117 269 287 
f 245 290 289 
f 965 289 290 
f 909 292 291 
f 949 291 292 
f 893 198 293 
f 579 293 198 
f 291 295 294 
f 686 294 295 
f 888 241 282 
f 581 143 296 
f 962 296 143 
f 573 297 146 
f 614 146 297 
f 300 112 134 
f 750 299 298 
f 173 298 299 
f 112 286 113 
f 300 286 112 
f 301 286 300 
f 302 102 286 
f 302 286 301 
f 234 304 303 
f 62 303 304 
f 949 305 233 
f 633 233 305 
f 691 307 306 
f 308 306 307 
f 371 308 307 
f 863 309 139 
f 202 139 309 
f 41 311 310 
f 552 310 311 
f 866 312 174 
f 298 174 312 
f 218 314 313 
f 882 313 314 
f 318 315 263 
f 681 316 257 
f 300 134 197 
f 317 300 197 
f 320 300 317 
f 263 319 318 
f 999 318 319 
f 301 300 320 
f 828 322 321 
f 419 321 322 
f 302 301 323 
f 320 323 301 
f 703 325 324 
f 261 324 325 
f 355 327 326 
f 331 326 327 
f 697 328 96 
f 724 330 329 
f 933 329 330 
f 332 147 331 
f 287 331 147 
f 327 332 331 
f 981 334 333 
f 357 333 334 
f 625 336 335 
f 792 335 336 
f 563 338 337 
f 407 337 338 
f 210 186 243 
f 363 340 339 
f 630 339 340 
f 761 342 341 
f 365 341 342 
f 293 344 343 
f 804 343 344 
f 726 345 227 
f 171 227 345 
f 346 195 194 
f 398 281 164 
f 193 346 194 
f 347 196 195 
f 347 195 346 
f 317 197 196 
f 682 348 22 
f 347 317 196 
f 351 317 347 
f 957 350 349 
f 938 349 350 
f 320 317 351 
f 444 353 352 
f 443 352 353 
f 633 228 144 
f 832 354 65 
f 741 65 354 
f 358 327 355 
f 797 357 356 
f 24 356 357 
f 359 332 327 
f 359 327 358 
f 366 360 332 
f 148 332 360 
f 779 362 361 
f 353 361 362 
f 928 340 363 
f 178 365 364 
f 539 364 365 
f 366 332 359 
f 367 203 360 
f 367 360 366 
f 368 204 203 
f 368 203 367 
f 369 205 204 
f 369 204 368 
f 370 185 205 
f 370 205 369 
f 576 188 371 
f 620 371 188 
f 778 373 372 
f 687 372 373 
f 237 375 374 
f 448 374 375 
f 919 377 376 
f 733 376 377 
f 42 210 243 
f 980 379 378 
f 671 378 379 
f 951 256 249 
f 628 381 380 
f 967 380 381 
f 902 383 382 
f 574 382 383 
f 736 384 128 
f 394 128 384 
f 385 211 210 
f 42 385 210 
f 386 212 211 
f 385 386 211 
f 387 193 212 
f 386 387 212 
f 315 389 388 
f 776 388 389 
f 662 390 130 
f 488 146 25 
f 395 193 387 
f 607 392 391 
f 477 391 392 
f 128 394 393 
f 571 393 394 
f 395 346 193 
f 396 346 395 
f 347 346 396 
f 397 347 396 
f 351 347 397 
f 581 296 398 
f 281 398 296 
f 465 399 111 
f 954 111 399 
f 743 401 400 
f 929 400 401 
f 702 403 402 
f 497 402 403 
f 214 405 404 
f 989 404 405 
f 885 406 83 
f 809 408 407 
f 599 407 408 
f 366 359 409 
f 358 409 359 
f 410 366 409 
f 367 366 410 
f 411 367 410 
f 368 367 411 
f 412 368 411 
f 369 368 412 
f 413 369 412 
f 370 369 413 
f 414 370 413 
f 243 370 414 
f 868 416 415 
f 752 415 416 
f 417 243 414 
f 42 243 417 
f 887 116 418 
f 983 418 116 
f 769 420 419 
f 696 419 420 
f 435 104 107 
f 617 422 421 
f 168 421 422 
f 426 400 423 
f 929 423 400 
f 445 78 424 
f 251 424 78 
f 788 426 425 
f 423 425 426 
f 427 251 250 
f 424 251 427 
f 429 250 428 
f 427 250 429 
f 430 428 259 
f 429 428 430 
f 431 259 252 
f 430 259 431 
f 674 433 432 
f 860 432 433 
f 731 374 434 
f 448 434 374 
f 460 431 252 
f 572 104 435 
f 460 252 262 
f 777 436 254 
f 648 254 436 
f 489 364 437 
f 539 437 364 
f 778 439 438 
f 757 438 439 
f 440 269 270 
f 474 269 440 
f 441 270 271 
f 441 440 270 
f 442 271 272 
f 442 441 271 
f 443 272 273 
f 443 442 272 
f 352 273 274 
f 352 443 273 
f 444 274 275 
f 444 352 274 
f 446 275 445 
f 446 444 275 
f 434 448 447 
f 754 447 448 
f 40 218 449 
f 973 451 450 
f 942 450 451 
f 866 452 239 
f 615 239 452 
f 455 446 445 
f 455 445 424 
f 492 454 453 
f 751 453 454 
f 456 455 424 
f 456 424 427 
f 457 456 427 
f 457 427 429 
f 458 457 429 
f 458 429 430 
f 459 458 430 
f 459 430 431 
f 461 459 431 
f 461 431 460 
f 462 461 460 
f 462 460 262 
f 103 462 262 
f 879 464 463 
f 885 463 464 
f 110 466 465 
f 399 465 466 
f 467 331 288 
f 288 468 467 
f 486 467 468 
f 622 459 461 
f 964 470 469 
f 658 469 470 
f 808 472 471 
f 969 471 472 
f 72 163 473 
f 334 473 163 
f 468 288 474 
f 269 474 288 
f 487 475 65 
f 832 65 475 
f 864 477 476 
f 834 476 477 
f 939 279 478 
f 102 302 479 
f 484 479 302 
f 180 481 480 
f 767 480 481 
f 972 483 482 
f 908 482 483 
f 455 361 446 
f 444 446 361 
f 508 479 484 
f 467 486 485 
f 494 485 486 
f 326 467 485 
f 875 475 487 
f 331 467 326 
f 280 488 25 
f 595 489 437 
f 754 106 308 
f 306 308 106 
f 490 323 320 
f 484 302 323 
f 490 484 323 
f 491 484 490 
f 625 164 72 
f 508 484 491 
f 167 439 219 
f 517 493 492 
f 773 492 493 
f 510 355 494 
f 485 494 355 
f 516 495 483 
f 725 483 495 
f 355 326 485 
f 728 497 496 
f 661 496 497 
f 63 499 498 
f 137 498 499 
f 958 501 500 
f 282 500 501 
f 946 222 502 
f 975 502 222 
f 727 504 503 
f 739 503 504 
f 490 320 505 
f 351 505 320 
f 506 490 505 
f 507 491 490 
f 507 490 506 
f 509 508 491 
f 509 491 507 
f 511 355 510 
f 582 511 510 
f 283 221 512 
f 769 513 420 
f 916 420 513 
f 820 514 452 
f 615 452 514 
f 746 515 264 
f 619 264 515 
f 812 495 516 
f 519 386 385 
f 819 518 517 
f 701 517 518 
f 43 519 385 
f 520 387 386 
f 520 386 519 
f 521 395 387 
f 521 387 520 
f 522 396 395 
f 522 395 521 
f 523 397 396 
f 523 396 522 
f 742 175 524 
f 798 524 175 
f 525 397 523 
f 351 397 525 
f 888 282 501 
f 573 526 297 
f 101 297 526 
f 627 527 416 
f 643 416 527 
f 505 351 525 
f 530 505 525 
f 796 529 528 
f 722 528 529 
f 506 505 530 
f 506 531 507 
f 536 507 531 
f 241 533 532 
f 985 532 533 
f 610 534 239 
f 976 535 278 
f 703 278 535 
f 509 507 536 
f 650 538 537 
f 832 537 538 
f 365 342 539 
f 558 539 342 
f 737 540 503 
f 727 503 540 
f 749 542 541 
f 876 541 542 
f 543 358 511 
f 355 511 358 
f 582 543 511 
f 843 489 544 
f 712 544 489 
f 545 409 358 
f 972 516 483 
f 543 545 358 
f 546 410 409 
f 546 409 545 
f 547 411 410 
f 547 410 546 
f 548 412 411 
f 548 411 547 
f 549 413 412 
f 549 412 548 
f 550 414 413 
f 550 413 549 
f 310 552 551 
f 304 551 552 
f 417 414 550 
f 786 554 553 
f 393 553 554 
f 199 556 555 
f 316 555 556 
f 213 558 557 
f 761 557 558 
f 823 560 559 
f 127 559 560 
f 656 562 561 
f 45 561 562 
f 932 563 337 
f 422 565 564 
f 753 564 565 
f 498 136 170 
f 977 170 136 
f 658 238 469 
f 534 469 238 
f 889 127 560 
f 737 118 230 
f 580 230 118 
f 566 519 43 
f 567 519 566 
f 520 519 567 
f 568 520 567 
f 521 520 568 
f 569 521 568 
f 522 521 569 
f 523 522 569 
f 981 473 334 
f 880 415 188 
f 553 571 570 
f 863 570 571 
f 937 394 384 
f 916 572 375 
f 435 375 572 
f 962 526 573 
f 530 525 574 
f 523 574 525 
f 575 530 574 
f 506 530 575 
f 307 576 371 
f 740 578 577 
f 709 577 578 
f 575 531 506 
f 230 580 579 
f 344 579 580 
f 854 144 581 
f 583 543 582 
f 584 543 583 
f 545 543 584 
f 585 545 584 
f 546 545 585 
f 586 546 585 
f 547 546 586 
f 548 547 586 
f 468 474 587 
f 440 587 474 
f 563 173 338 
f 809 338 173 
f 597 548 586 
f 607 391 588 
f 864 588 391 
f 928 590 589 
f 825 589 590 
f 256 592 591 
f 859 591 592 
f 550 549 593 
f 548 593 549 
f 594 550 593 
f 417 550 594 
f 43 417 594 
f 828 595 437 
f 997 596 542 
f 698 542 596 
f 703 535 325 
f 723 325 535 
f 715 597 578 
f 709 578 597 
f 407 598 337 
f 500 337 598 
f 598 407 599 
f 602 440 441 
f 115 601 600 
f 953 600 601 
f 587 440 602 
f 603 441 442 
f 603 602 441 
f 604 442 443 
f 604 603 442 
f 353 604 443 
f 649 606 605 
f 844 605 606 
f 588 608 607 
f 690 607 608 
f 361 353 444 
f 717 609 109 
f 829 109 609 
f 616 610 239 
f 611 455 456 
f 611 361 455 
f 612 456 457 
f 612 611 456 
f 612 457 458 
f 145 614 613 
f 914 613 614 
f 942 616 615 
f 239 615 616 
f 421 363 617 
f 339 617 363 
f 459 612 458 
f 948 481 618 
f 956 618 481 
f 807 619 515 
f 705 434 620 
f 447 620 434 
f 969 472 621 
f 22 621 472 
f 622 461 462 
f 247 486 468 
f 623 462 102 
f 623 622 462 
f 848 624 399 
f 952 399 624 
f 71 626 625 
f 336 625 626 
f 999 627 416 
f 800 553 570 
f 513 404 628 
f 381 628 404 
f 324 261 161 
f 339 630 629 
f 730 629 630 
f 71 518 631 
f 819 631 518 
f 247 468 587 
f 901 632 219 
f 167 219 632 
f 924 634 244 
f 913 244 634 
f 790 44 635 
f 639 102 479 
f 659 637 636 
f 710 636 637 
f 638 479 508 
f 640 638 508 
f 638 639 479 
f 654 638 640 
f 553 393 571 
f 974 642 641 
f 266 641 642 
f 752 416 643 
f 828 321 644 
f 236 644 321 
f 873 646 645 
f 608 645 646 
f 919 240 377 
f 532 377 240 
f 496 486 247 
f 494 486 496 
f 676 131 202 
f 914 647 613 
f 745 613 647 
f 718 648 436 
f 778 438 649 
f 606 649 438 
f 892 651 650 
f 831 650 651 
f 653 640 652 
f 508 652 640 
f 654 640 653 
f 265 654 653 
f 793 646 655 
f 988 655 646 
f 734 656 561 
f 509 652 508 
f 536 652 509 
f 657 653 652 
f 657 652 536 
f 265 653 657 
f 855 658 470 
f 879 24 145 
f 884 660 659 
f 637 659 660 
f 582 510 661 
f 494 661 510 
f 950 662 179 
f 956 179 662 
f 106 663 306 
f 348 306 663 
f 312 238 658 
f 911 665 664 
f 675 664 665 
f 744 666 401 
f 213 401 666 
f 536 667 657 
f 670 657 667 
f 794 669 668 
f 967 668 669 
f 82 290 245 
f 265 657 670 
f 755 628 380 
f 516 671 379 
f 423 672 425 
f 987 425 672 
f 433 674 673 
f 975 673 674 
f 933 664 675 
f 824 60 676 
f 131 676 60 
f 929 401 213 
f 678 566 677 
f 43 677 566 
f 567 566 678 
f 679 568 567 
f 678 679 567 
f 680 569 568 
f 679 680 568 
f 382 523 569 
f 680 382 569 
f 771 681 257 
f 284 450 615 
f 942 615 450 
f 472 682 22 
f 758 684 683 
f 888 683 684 
f 523 382 574 
f 883 685 168 
f 947 168 685 
f 383 575 574 
f 986 687 686 
f 373 686 687 
f 765 689 688 
f 453 688 689 
f 562 607 690 
f 713 307 691 
f 674 305 692 
f 949 692 305 
f 531 575 693 
f 383 693 575 
f 771 695 694 
f 232 694 695 
f 916 696 420 
f 215 328 697 
f 754 435 106 
f 837 678 698 
f 677 698 678 
f 827 232 695 
f 828 644 207 
f 349 207 644 
f 869 700 699 
f 858 699 700 
f 981 701 518 
f 403 702 583 
f 706 583 702 
f 582 403 583 
f 957 705 704 
f 189 704 705 
f 706 584 583 
f 663 23 348 
f 707 585 584 
f 707 584 706 
f 707 586 585 
f 733 532 708 
f 985 708 532 
f 707 577 709 
f 799 710 637 
f 544 712 711 
f 263 711 712 
f 371 620 447 
f 709 586 707 
f 576 307 713 
f 895 140 714 
f 861 714 140 
f 597 593 548 
f 947 421 168 
f 965 131 60 
f 715 594 593 
f 715 593 597 
f 950 390 662 
f 1002 717 716 
f 109 716 717 
f 43 594 677 
f 715 677 594 
f 947 659 636 
f 873 718 436 
f 893 719 198 
f 556 198 719 
f 348 691 306 
f 912 721 720 
f 639 720 721 
f 736 722 384 
f 220 384 722 
f 535 724 723 
f 728 723 724 
f 867 725 495 
f 788 345 726 
f 540 74 727 
f 724 329 728 
f 840 728 329 
f 830 388 729 
f 635 729 388 
f 961 730 630 
f 339 629 39 
f 644 236 731 
f 374 731 236 
f 384 220 277 
f 917 713 691 
f 482 733 732 
f 717 732 733 
f 852 616 208 
f 656 734 181 
f 808 181 734 
f 722 736 735 
f 905 735 736 
f 230 738 737 
f 540 737 738 
f 504 517 739 
f 492 739 517 
f 869 741 740 
f 839 740 741 
f 934 172 742 
f 84 742 172 
f 763 744 743 
f 401 743 744 
f 464 745 165 
f 789 165 745 
f 597 586 709 
f 830 746 388 
f 315 388 746 
f 850 747 744 
f 666 744 747 
f 588 648 718 
f 200 748 627 
f 527 627 748 
f 963 749 538 
f 832 538 749 
f 855 750 298 
f 319 200 627 
f 887 453 751 
f 376 733 482 
f 350 704 752 
f 189 752 704 
f 171 26 84 
f 332 148 147 
f 38 753 565 
f 447 754 308 
f 380 756 755 
f 785 755 756 
f 606 438 757 
f 823 600 735 
f 842 735 600 
f 865 299 750 
f 790 576 713 
f 371 447 308 
f 178 341 365 
f 977 759 758 
f 471 758 759 
f 340 760 630 
f 961 630 760 
f 558 342 761 
f 419 696 236 
f 477 762 499 
f 137 499 762 
f 856 764 763 
f 945 763 764 
f 189 415 752 
f 118 765 688 
f 260 587 602 
f 480 767 766 
f 877 766 767 
f 768 602 603 
f 768 260 602 
f 768 603 604 
f 558 213 769 
f 770 604 353 
f 770 768 604 
f 815 772 771 
f 681 771 772 
f 493 701 773 
f 936 773 701 
f 803 775 774 
f 372 774 775 
f 770 353 362 
f 388 776 635 
f 790 635 776 
f 789 777 254 
f 905 736 128 
f 779 361 611 
f 373 778 649 
f 780 611 612 
f 780 779 611 
f 110 782 781 
f 968 781 782 
f 891 784 783 
f 730 783 784 
f 105 755 785 
f 787 612 459 
f 800 786 553 
f 780 612 787 
f 808 682 472 
f 961 788 726 
f 426 589 400 
f 743 400 589 
f 787 459 622 
f 647 789 745 
f 880 790 776 
f 791 622 623 
f 791 787 622 
f 791 623 639 
f 102 639 623 
f 721 791 639 
f 854 335 792 
f 433 793 655 
f 260 247 587 
f 487 795 794 
f 669 794 795 
f 333 797 796 
f 529 796 797 
f 830 798 175 
f 497 403 661 
f 582 661 403 
f 216 800 799 
f 570 799 800 
f 559 802 801 
f 97 801 802 
f 827 803 774 
f 216 637 660 
f 953 333 796 
f 720 639 638 
f 224 638 654 
f 887 805 804 
f 81 804 805 
f 224 720 638 
f 1001 330 806 
f 903 806 330 
f 265 642 654 
f 224 654 642 
f 406 217 187 
f 651 187 217 
f 27 807 515 
f 682 808 734 
f 235 408 809 
f 971 668 381 
f 967 381 668 
f 789 810 165 
f 536 531 693 
f 787 811 780 
f 779 780 811 
f 867 495 812 
f 881 814 813 
f 915 813 814 
f 918 816 815 
f 772 815 816 
f 877 818 817 
f 971 817 818 
f 285 514 820 
f 494 496 661 
f 833 821 41 
f 311 41 821 
f 843 364 489 
f 784 142 629 
f 808 759 181 
f 805 822 81 
f 560 823 735 
f 221 283 277 
f 309 824 676 
f 304 552 63 
f 834 63 552 
f 743 589 825 
f 979 672 826 
f 557 826 672 
f 803 827 695 
f 539 322 828 
f 515 830 176 
f 223 793 673 
f 433 673 793 
f 218 313 831 
f 470 831 313 
f 166 810 833 
f 821 833 810 
f 930 476 834 
f 845 402 835 
f 497 835 402 
f 749 541 354 
f 839 354 541 
f 746 830 515 
f 912 836 721 
f 791 721 836 
f 837 679 678 
f 1001 669 795 
f 838 680 679 
f 837 838 679 
f 846 303 62 
f 741 354 839 
f 382 680 838 
f 81 343 804 
f 826 761 341 
f 329 841 840 
f 835 840 841 
f 708 717 733 
f 454 601 115 
f 339 39 617 
f 991 683 501 
f 888 501 683 
f 769 214 513 
f 404 513 214 
f 917 682 734 
f 774 687 827 
f 986 827 687 
f 735 842 722 
f 528 722 842 
f 959 641 266 
f 998 372 775 
f 896 843 544 
f 606 564 844 
f 753 844 564 
f 847 402 845 
f 303 846 408 
f 599 408 846 
f 702 402 847 
f 258 848 466 
f 399 466 848 
f 137 849 181 
f 656 181 849 
f 744 851 850 
f 899 850 851 
f 345 26 171 
f 208 853 852 
f 596 852 853 
f 398 335 854 
f 984 748 201 
f 298 312 855 
f 658 855 312 
f 763 743 856 
f 825 856 743 
f 980 857 284 
f 450 284 857 
f 309 676 202 
f 911 858 700 
f 883 859 592 
f 684 758 471 
f 907 710 799 
f 834 499 63 
f 655 100 860 
f 635 45 729 
f 139 202 390 
f 919 500 282 
f 862 383 861 
f 902 861 383 
f 140 862 861 
f 309 863 276 
f 394 276 863 
f 979 826 807 
f 177 807 826 
f 433 655 860 
f 477 864 391 
f 141 693 862 
f 383 862 693 
f 299 865 235 
f 621 161 814 
f 872 667 141 
f 693 141 667 
f 174 867 866 
f 820 866 867 
f 972 482 732 
f 379 285 812 
f 820 812 285 
f 950 138 390 
f 389 868 776 
f 880 776 868 
f 577 870 869 
f 940 869 870 
f 996 871 624 
f 952 624 871 
f 895 872 140 
f 802 559 127 
f 988 646 873 
f 931 670 872 
f 667 872 670 
f 876 677 715 
f 40 314 218 
f 643 527 874 
f 984 874 527 
f 392 762 477 
f 794 875 487 
f 876 715 839 
f 578 839 715 
f 833 449 217 
f 766 877 817 
f 741 699 64 
f 858 64 699 
f 995 798 135 
f 729 135 798 
f 354 832 749 
f 24 879 878 
f 463 878 879 
f 289 61 512 
f 576 790 880 
f 969 881 533 
f 985 533 881 
f 893 848 719 
f 556 719 848 
f 881 621 814 
f 648 864 253 
f 476 253 864 
f 161 621 22 
f 750 855 882 
f 313 882 855 
f 887 751 116 
f 592 884 883 
f 685 883 884 
f 406 885 166 
f 705 620 189 
f 144 694 232 
f 962 143 228 
f 74 772 816 
f 946 886 226 
f 946 226 222 
f 934 222 226 
f 905 889 560 
f 725 563 890 
f 932 890 563 
f 909 891 292 
f 783 292 891 
f 142 784 891 
f 216 799 637 
f 712 489 595 
f 187 651 892 
f 907 570 863 
f 690 793 223 
f 824 283 60 
f 389 315 318 
f 608 588 645 
f 718 645 588 
f 110 781 466 
f 258 466 781 
f 818 877 875 
f 475 875 877 
f 617 38 565 
f 362 160 770 
f 768 770 160 
f 343 893 293 
f 698 677 876 
f 900 832 475 
f 454 115 751 
f 674 432 305 
f 633 305 432 
f 850 894 405 
f 989 405 894 
f 711 896 544 
f 939 478 663 
f 23 663 478 
f 757 167 564 
f 422 564 167 
f 803 695 257 
f 771 257 695 
f 785 897 105 
f 939 105 897 
f 471 759 808 
f 253 821 810 
f 261 768 160 
f 689 492 453 
f 951 898 328 
f 97 328 898 
f 966 899 851 
f 877 767 900 
f 948 900 767 
f 990 901 75 
f 422 617 565 
f 739 689 765 
f 694 144 854 
f 607 562 656 
f 208 861 902 
f 595 828 207 
f 362 779 811 
f 398 854 581 
f 281 296 573 
f 962 573 296 
f 976 904 903 
f 921 903 904 
f 238 312 866 
f 464 613 745 
f 697 786 800 
f 858 487 64 
f 681 772 74 
f 836 787 791 
f 560 735 905 
f 811 787 836 
f 964 469 534 
f 294 686 373 
f 947 636 825 
f 856 825 636 
f 886 726 227 
f 723 246 260 
f 698 876 542 
f 1002 716 906 
f 974 906 716 
f 418 822 805 
f 667 536 693 
f 570 907 799 
f 357 334 25 
f 280 25 334 
f 786 697 96 
f 482 908 376 
f 919 376 908 
f 619 177 896 
f 291 910 909 
f 753 909 910 
f 665 911 700 
f 965 60 289 
f 225 912 720 
f 392 849 762 
f 137 762 849 
f 450 857 267 
f 943 267 857 
f 915 160 362 
f 578 740 839 
f 938 643 874 
f 811 915 362 
f 692 292 783 
f 22 324 161 
f 837 596 853 
f 967 669 806 
f 1001 806 669 
f 747 850 405 
f 375 237 916 
f 696 916 237 
f 691 682 917 
f 497 840 835 
f 728 840 497 
f 631 918 626 
f 336 626 918 
f 595 206 920 
f 200 920 206 
f 909 142 891 
f 756 922 921 
f 903 921 922 
f 941 249 923 
f 78 445 77 
f 263 712 920 
f 595 920 712 
f 310 925 41 
f 258 556 848 
f 615 514 284 
f 74 540 738 
f 935 551 865 
f 234 865 551 
f 756 921 926 
f 904 926 921 
f 983 822 418 
f 977 758 683 
f 978 82 927 
f 994 927 82 
f 572 513 628 
f 340 928 760 
f 426 760 928 
f 996 893 343 
f 841 845 835 
f 968 775 803 
f 596 837 698 
f 605 910 294 
f 291 294 910 
f 937 276 394 
f 853 838 837 
f 902 382 838 
f 853 902 838 
f 299 235 809 
f 870 577 707 
f 439 167 757 
f 96 554 786 
f 821 930 311 
f 834 311 930 
f 980 285 379 
f 232 633 144 
f 266 670 931 
f 959 266 931 
f 500 919 932 
f 908 932 919 
f 675 847 845 
f 572 916 513 
f 675 845 841 
f 675 841 933 
f 329 933 841 
f 334 163 280 
f 935 750 882 
f 999 868 389 
f 905 128 889 
f 314 935 882 
f 415 880 868 
f 408 235 303 
f 551 304 234 
f 925 551 935 
f 38 142 909 
f 926 904 279 
f 601 773 936 
f 216 697 800 
f 738 199 555 
f 873 436 777 
f 160 915 814 
f 188 576 880 
f 725 173 563 
f 984 938 874 
f 995 690 223 
f 289 512 244 
f 884 659 685 
f 947 685 659 
f 731 434 705 
f 940 847 665 
f 675 665 847 
f 702 847 940 
f 348 682 691 
f 278 703 478 
f 23 478 703 
f 541 876 839 
f 769 419 322 
f 982 169 846 
f 599 846 169 
f 898 249 941 
f 378 944 943 
f 992 943 944 
f 700 940 665 
f 980 378 943 
f 764 138 945 
f 950 945 138 
f 119 344 580 
f 831 651 217 
f 783 946 502 
f 119 887 804 
f 981 936 701 
f 166 833 406 
f 217 406 833 
f 864 648 588 
f 618 537 948 
f 900 948 537 
f 571 394 863 
f 516 379 812 
f 492 773 454 
f 601 454 773 
f 740 577 869 
f 295 291 949 
f 788 760 426 
f 277 937 384 
f 345 788 425 
f 488 573 146 
f 1000 100 914 
f 988 914 100 
f 248 952 923 
f 871 923 952 
f 842 600 953 
f 591 955 954 
f 111 954 955 
f 537 892 650 
f 725 890 483 
f 908 483 890 
f 214 666 747 
f 951 249 898 
f 731 705 957 
f 598 958 500 
f 931 960 959 
f 268 959 960 
f 325 723 261 
f 80 923 871 
f 254 810 789 
f 283 824 276 
f 309 276 824 
f 932 337 500 
f 767 481 948 
f 730 961 886 
f 726 886 961 
f 73 631 819 
f 526 962 228 
f 591 248 256 
f 917 561 44 
f 984 527 748 
f 939 107 105 
f 650 964 963 
f 534 963 964 
f 741 869 699 
f 970 850 899 
f 978 131 965 
f 480 899 966 
f 373 649 605 
f 997 749 963 
f 108 811 836 
f 897 926 279 
f 939 897 279 
f 888 533 241 
f 873 645 718 
f 257 968 803 
f 475 877 900 
f 108 836 912 
f 896 711 619 
f 264 619 711 
f 940 870 702 
f 706 702 870 
f 993 108 912 
f 899 480 970 
f 766 970 480 
f 991 501 958 
f 27 515 176 
f 537 832 900 
f 926 897 785 
f 894 817 971 
f 516 972 671 
f 732 671 972 
f 765 118 737 
f 470 313 855 
f 605 844 910 
f 753 910 844 
f 969 684 471 
f 407 338 809 
f 450 267 973 
f 960 973 267 
f 590 363 421 
f 995 524 798 
f 225 642 974 
f 674 692 975 
f 502 975 692 
f 330 976 903 
f 405 214 747 
f 991 170 977 
f 906 974 641 
f 958 598 599 
f 564 606 757 
f 723 728 246 
f 496 246 728 
f 904 976 278 
f 978 956 662 
f 641 959 268 
f 213 557 929 
f 423 929 557 
f 377 532 733 
f 793 690 608 
f 932 908 890 
f 558 322 539 
f 951 328 215 
f 492 689 739 
f 579 344 293 
f 350 957 704 
f 599 169 958 
f 991 958 169 
f 987 979 26 
f 952 954 399 
f 906 641 268 
f 264 315 746 
f 557 761 826 
f 996 343 81 
f 953 796 528 
f 173 299 809 
f 834 477 499 
f 957 644 731 
f 756 926 785 
f 997 542 749 
f 126 600 823 
f 988 100 655 
f 985 881 813 
f 690 135 562 
f 333 936 981 
f 895 931 872 
f 895 960 931 
f 330 724 976 
f 535 976 724 
f 792 815 771 
f 62 498 982 
f 170 982 498 
f 643 350 752 
f 470 964 831 
f 650 831 964 
f 790 713 44 
f 917 44 713 
f 96 802 554 
f 127 554 802 
f 857 980 943 
f 1000 297 101 
f 928 363 590 
f 865 750 935 
f 902 853 208 
f 710 764 856 
f 930 253 476 
f 684 969 533 
f 816 918 73 
f 631 73 918 
f 559 801 983 
f 822 983 801 
f 487 858 795 
f 911 795 858 
f 117 287 147 
f 818 875 794 
f 823 983 126 
f 953 528 842 
f 788 961 760 
f 863 139 907 
f 984 201 938 
f 701 493 517 
f 236 321 419 
f 714 973 895 
f 960 895 973 
f 316 556 258 
f 421 947 590 
f 825 590 947 
f 392 656 849 
f 233 295 949 
f 555 316 681 
f 986 295 233 
f 999 319 627 
f 848 893 624 
f 996 624 893 
f 756 967 922 
f 806 922 967 
f 866 820 452 
f 258 781 968 
f 263 920 319 
f 200 319 920 
f 524 934 742 
f 928 589 426 
f 524 223 934 
f 1001 911 664 
f 707 706 870 
f 554 127 393 
f 940 700 869 
f 672 979 987 
f 896 178 843 
f 364 843 178 
f 607 656 392 
f 753 38 909 
f 879 145 464 
f 613 464 145 
f 807 27 979 
f 759 977 136 
f 993 912 225 
f 765 503 739 
f 253 930 821 
f 777 789 647 
f 314 40 925 
f 345 425 987 
f 941 801 898 
f 97 898 801 
f 804 344 119 
f 605 294 373 
f 220 722 529 
f 887 418 805 
f 464 165 885 
f 104 572 755 
f 628 755 572 
f 990 782 110 
f 164 625 398 
f 335 398 625 
f 647 914 988 
f 245 885 83 
f 619 807 177 
f 792 771 694 
f 1001 933 330 
f 119 688 453 
f 451 209 942 
f 616 942 209 
f 859 901 990 
f 782 775 968 
f 829 811 108 
f 987 26 345 
f 268 943 992 
f 650 963 538 
f 716 109 993 
f 73 504 727 
f 975 222 673 
f 892 994 187 
f 998 76 439 
f 686 295 986 
f 922 806 903 
f 356 24 878 
f 859 883 901 
f 632 901 883 
f 333 953 936 
f 601 936 953 
f 820 867 812 
f 690 995 135 
f 62 982 846 
f 643 938 350 
f 871 996 80 
f 782 990 75 
f 999 389 318 
f 730 784 629 
f 404 989 381 
f 971 381 989 
f 480 966 180 
f 878 463 913 
f 245 913 463 
f 314 925 935 
f 995 223 524 
f 774 372 687 
f 177 826 341 
f 634 878 913 
f 906 268 992 
f 681 738 555 
f 311 834 552 
f 894 766 817 
f 488 281 573 
f 852 596 997 
f 775 782 75 
f 978 662 130 
f 504 73 819 
f 451 714 209 
f 861 209 714 
f 518 473 981 
f 710 907 764 
f 138 764 907 
f 1000 914 614 
f 451 973 714 
f 883 168 632 
f 918 815 336 
f 792 336 815 
f 672 423 557 
f 1001 664 933 
f 529 924 220 
f 949 292 692 
f 775 75 998 
f 692 783 502 
f 970 894 850 
f 778 998 439 
f 416 868 999 
f 232 827 986 
f 725 867 174 
f 626 71 631 
f 710 856 636 
f 763 851 744 
f 614 297 1000 
f 945 851 763 
f 793 608 646 
f 738 681 74 
f 634 356 878 
f 618 994 892 
f 226 172 934 
f 215 255 951 
f 989 894 971 
f 754 448 375 
f 859 955 591 
f 82 978 965 
f 829 813 915 
f 633 860 228 
f 974 993 225 
f 324 23 703 
f 559 983 823 
f 255 215 660 
f 828 437 539 
f 818 794 668 
f 756 380 967 
f 777 988 873 
f 887 119 453 
f 956 927 618 
f 994 618 927 
f 966 950 179 
f 881 969 621 
f 245 463 885 
f 1002 906 992 
f 481 180 956 
f 892 537 618 
f 941 923 80 
f 1002 992 944 
f 609 717 708 
f 82 965 290 
f 449 833 41 
f 829 915 811 
f 955 990 110 
f 634 797 356 
f 792 694 854 
f 754 375 435 
f 708 985 609 
f 813 609 985 
f 432 860 633 
f 813 829 609 
f 207 349 242 
f 938 242 349 
f 988 777 647 
f 610 852 997 
f 616 852 610 
f 783 730 946 
f 886 946 730 
f 977 683 991 
f 801 941 822 
f 80 822 941 
f 717 1002 732 
f 944 732 1002 
f 176 742 84 
f 558 769 322 
f 971 818 668 
f 610 997 963 
f 333 357 797 
f 911 1001 795 
f 924 797 634 
f 917 734 561 
f 529 797 924 
f 925 310 551 
f 349 644 957 
f 884 255 660 
f 966 945 950 
f 894 970 766 
f 974 716 993 
f 765 737 503 
f 851 945 966 
f 518 71 473 
f 888 684 533 
f 884 592 255 
f 107 939 663 
f 610 963 534 
f 671 732 944 
f 248 954 952 
f 927 956 978 
f 859 990 955 
f 778 372 998 
f 504 819 517 
f 671 944 378 
f 248 591 954 
f 729 798 830 
