#  wavefront obj file written by the visualization toolkit

mtllib rightsurrenalgland.mtl

v 145.17300415039062 225.4949951171875 120.0989990234375
v 146.14700317382812 225.1739959716797 120.30699920654297
v 157.1009979248047 200.13499450683594 90.68270111083984
v 157.66799926757812 200.01199340820312 90.4708023071289
v 157.51600646972656 200.61199951171875 90.15180206298828
v 158.27999877929688 205.1999969482422 125.5999984741211
v 157.7949981689453 205.21299743652344 127.95899963378906
v 157.6649932861328 212.61099243164062 137.87399291992188
v 156.4290008544922 212.86500549316406 138.84800720214844
v 146.66000366210938 203.69500732421875 110.91100311279297
v 145.9239959716797 204.78900146484375 111.26399993896484
v 158.43499755859375 207.04400634765625 132.11399841308594
v 157.447998046875 207.24899291992188 132.89500427246094
v 157.06500244140625 200.79299926757812 90.83180236816406
v 157.4770050048828 201.21600341796875 90.21990203857422
v 158.1300048828125 200.66000366210938 90.16259765625
v 158.00399780273438 201.20599365234375 89.93800354003906
v 158.27999877929688 200.281005859375 90.63639831542969
v 158.7519989013672 200.71299743652344 90.8583984375
v 158.58599853515625 201.26300048828125 90.22200012207031
v 157.1929931640625 201.42100524902344 91.04419708251953
v 157.5 201.64100646972656 90.4447021484375
v 157.8679962158203 201.69000244140625 90.15709686279297
v 158.36399841308594 201.7169952392578 90.16000366210938
v 159.04400634765625 201.26400756835938 90.81649780273438
v 158.88800048828125 201.87399291992188 90.67379760742188
v 157.7050018310547 201.8939971923828 90.4894027709961
v 158.13600158691406 202.13299560546875 90.681396484375
v 152.13800048828125 225.0489959716797 138.60000610351562
v 152.38999938964844 224.47000122070312 139.76400756835938
v 147.07400512695312 229.6929931640625 134.2550048828125
v 146.5679931640625 230.63299560546875 135.18099975585938
v 157.7259979248047 199.0469970703125 91.82589721679688
v 157.1280059814453 198.44900512695312 92.78109741210938
v 146.19700622558594 226.93800354003906 127.0250015258789
v 146.51199340820312 227.447998046875 128.6820068359375
v 158.60899353027344 203.8820037841797 92.01180267333984
v 158.7259979248047 203.29800415039062 91.50789642333984
v 148.0959930419922 225.0290069580078 126.54299926757812
v 147.37399291992188 226.32000732421875 127.30000305175781
v 150.27699279785156 198.7239990234375 103.76399993896484
v 150.84100341796875 198.39300537109375 102.37799835205078
v 161.64599609375 208.51300048828125 100.00299835205078
v 162.34300231933594 208.89999389648438 101.35199737548828
v 164.4199981689453 204.81900024414062 107.74299621582031
v 163.10000610351562 204.2010040283203 110.07099914550781
v 148.97799682617188 217.3179931640625 114.61499786376953
v 149.90499877929688 217.6580047607422 116.33999633789062
v 161.10899353027344 202.64599609375 100.697998046875
v 159.70199584960938 201.3939971923828 103.05400085449219
v 156.22900390625 214.13499450683594 139.33700561523438
v 154.91000366210938 213.1719970703125 139.11000061035156
v 150.69200134277344 200.2949981689453 108.93900299072266
v 149.89199829101562 201.23800659179688 110.07099914550781
v 160.43800354003906 208.77699279785156 126.00599670410156
v 160.99899291992188 208.70899963378906 123.85099792480469
v 157.2239990234375 199.70399475097656 90.7322998046875
v 156.8470001220703 199.6750030517578 91.33260345458984
v 157.36500549316406 199.41099548339844 91.1323013305664
v 158.0570068359375 199.10699462890625 98.95089721679688
v 157.10000610351562 198.64599609375 99.84449768066406
v 156.75 199.0850067138672 92.21589660644531
v 162.86599731445312 206.53199768066406 124.15599822998047
v 162.30299377441406 205.97000122070312 125.41600036621094
v 157.99899291992188 199.73899841308594 90.98719787597656
v 147.87399291992188 228.87899780273438 134.3719940185547
v 159.6490020751953 202.96099853515625 112.65699768066406
v 157.0540008544922 201.6060028076172 109.78600311279297
v 142.97799682617188 215.5240020751953 116.55400085449219
v 143.06500244140625 216.60000610351562 117.15799713134766
v 158.4929962158203 199.9550018310547 91.39600372314453
v 159.93899536132812 205.21200561523438 123.83999633789062
v 159.88699340820312 205.21600341796875 125.52400207519531
v 156.4929962158203 199.83399963378906 92.29219818115234
v 156.72500610351562 200.38299560546875 91.63890075683594
v 148.7310028076172 222.42799377441406 136.30799865722656
v 148.56300354003906 223.56900024414062 136.8000030517578
v 145.37399291992188 227.55599975585938 128.18099975585938
v 145.21299743652344 230.36099243164062 134.86700439453125
v 145.7760009765625 230.90899658203125 135.11900329589844
v 152.51400756835938 213.8820037841797 137.29299926757812
v 152.02499389648438 214.5659942626953 137.1750030517578
v 144.55799865722656 228.5189971923828 131.61599731445312
v 145.06700134277344 228.0709991455078 132.8459930419922
v 143.4250030517578 224.78599548339844 112.38200378417969
v 144.2530059814453 223.97000122070312 112.85199737548828
v 160.97300720214844 203.3509979248047 93.74970245361328
v 160.79200744628906 202.81100463867188 94.99639892578125
v 156.7530059814453 211.67300415039062 138.30799865722656
v 155.22999572753906 211.99099731445312 138.30299377441406
v 147.32400512695312 202.7100067138672 110.53700256347656
v 147.3350067138672 201.78900146484375 109.53099822998047
v 151.4010009765625 199.0590057373047 101.71900177001953
v 151.51600646972656 198.3509979248047 101.05899810791016
v 153.45700073242188 221.1580047607422 139.36099243164062
v 152.56399536132812 221.0469970703125 140.61700439453125
v 166.54800415039062 207.19400024414062 112.6520004272461
v 166.0919952392578 206.28399658203125 111.87999725341797
v 156.8730010986328 201.11000061035156 92.03970336914062
v 159.23699951171875 200.9340057373047 91.54199981689453
v 155.4499969482422 209.21400451660156 134.1649932861328
v 155.85400390625 210.08200073242188 135.7790069580078
v 159.0469970703125 200.343994140625 92.08290100097656
v 159.4029998779297 201.47900390625 91.45819854736328
v 157.51600646972656 201.9429931640625 91.04900360107422
v 157.1739959716797 201.9290008544922 92.4719009399414
v 159.52099609375 200.94200134277344 92.52010345458984
v 159.47500610351562 202.22900390625 91.35220336914062
v 159.8300018310547 201.718994140625 92.3738021850586
v 150.58599853515625 216.58999633789062 114.81099700927734
v 151.24899291992188 215.14100646972656 113.66100311279297
v 165.81900024414062 208.91400146484375 110.43499755859375
v 165.34100341796875 209.09100341796875 112.32499694824219
v 157.91799926757812 202.5679931640625 91.62750244140625
v 151.29800415039062 226.18600463867188 139.63600158691406
v 150.0229949951172 226.64999389648438 139.40199279785156
v 158.80499267578125 202.61599731445312 91.10530090332031
v 151.24400329589844 225.18899536132812 140.5189971923828
v 148.3260040283203 217.50999450683594 126.70099639892578
v 148.74400329589844 214.49600219726562 123.75199890136719
v 141.19000244140625 217.91900634765625 112.72699737548828
v 142.3820037841797 217.18299865722656 112.28199768066406
v 145.2429962158203 225.0659942626953 123.71600341796875
v 145.69000244140625 225.8719940185547 122.5270004272461
v 159.5780029296875 203.1820068359375 91.33049774169922
v 161.968994140625 208.2220001220703 98.44719696044922
v 162.94700622558594 208.4029998779297 98.91429901123047
v 141.71499633789062 216.21800231933594 114.4749984741211
v 148.74899291992188 203.6540069580078 112.43399810791016
v 148.00399780273438 203.1999969482422 111.38600158691406
v 146.24200439453125 213.5919952392578 115.1259994506836
v 146.74099731445312 211.27200317382812 113.875
v 158.03599548339844 203.12399291992188 92.14730072021484
v 162.19700622558594 203.40899658203125 103.43699645996094
v 161.947998046875 203.43600463867188 106.77300262451172
v 159.1719970703125 205.90199279785156 95.0989990234375
v 158.98699951171875 205.4929962158203 93.64790344238281
v 160.12899780273438 202.60800170898438 92.17430114746094
v 159.0449981689453 205.86599731445312 96.70770263671875
v 152.40899658203125 199.69900512695312 101.4530029296875
v 166.2259979248047 206.2270050048828 102.05999755859375
v 165.61599731445312 205.41900634765625 103.37200164794922
v 160.3419952392578 203.52499389648438 91.68879699707031
v 166.50100708007812 208.06199645996094 111.3239974975586
v 153.8800048828125 206.63900756835938 126.58399963378906
v 152.56399536132812 207.80299377441406 125.4229965209961
v 161.5709991455078 205.4040069580078 124.06099700927734
v 160.6479949951172 205.2550048828125 122.13899993896484
v 141.88600158691406 224.2030029296875 117.16699981689453
v 141.29100036621094 225.1719970703125 116.20600128173828
v 159.45899963378906 204.0489959716797 91.385498046875
v 139.7530059814453 219.9810028076172 112.94200134277344
v 139.2689971923828 220.84300231933594 112.26499938964844
v 160.08900451660156 204.03500366210938 91.33570098876953
v 160.64700317382812 203.21499633789062 92.59329986572266
v 160.91799926757812 203.8470001220703 92.4583969116211
v 160.70199584960938 204.48699951171875 91.71009826660156
v 143.74400329589844 212.14999389648438 111.94000244140625
v 144.5469970703125 211.39100646972656 111.44499969482422
v 158.3509979248047 211.35800170898438 133.6959991455078
v 158.7239990234375 211.072998046875 134.75900268554688
v 148.14599609375 214.01600646972656 116.03399658203125
v 149.2969970703125 215.32000732421875 114.41600036621094
v 159.3459930419922 204.6529998779297 91.7417984008789
v 158.69500732421875 204.43299865722656 92.37220001220703
v 160.09300231933594 204.73399353027344 91.44930267333984
v 152.00599670410156 221.22900390625 136.0679931640625
v 152.81700134277344 220.22000122070312 136.77000427246094
v 158.3820037841797 211.2449951171875 136.375
v 157.6230010986328 211.40199279785156 137.45700073242188
v 147.32400512695312 205.19400024414062 112.93299865722656
v 158.98500061035156 204.98500061035156 92.65679931640625
v 163.5760040283203 208.29100036621094 120.19300079345703
v 163.74200439453125 207.50999450683594 120.98699951171875
v 148.12899780273438 226.23599243164062 132.52200317382812
v 149.18699645996094 225.21800231933594 133.6479949951172
v 156.6020050048828 211.9459991455078 109.92500305175781
v 158.38600158691406 211.05999755859375 111.03800201416016
v 159.81700134277344 205.24899291992188 91.93289947509766
v 160.56199645996094 205.2969970703125 91.79769897460938
v 150.44400024414062 216.1199951171875 133.3280029296875
v 150.56399536132812 214.46800231933594 130.7030029296875
v 161.17799377441406 205.218994140625 92.19190216064453
v 141.00799560546875 217.28399658203125 114.19200134277344
v 140.41900634765625 218.69000244140625 113.68099975585938
v 154.82200622558594 211.3459930419922 136.63499450683594
v 153.99200439453125 210.7050018310547 134.55599975585938
v 160.19700622558594 205.74899291992188 92.47149658203125
v 160.87399291992188 205.7209930419922 92.31649780273438
v 147.51800537109375 227.0570068359375 137.01400756835938
v 147.6529998779297 227.80799865722656 137.8800048828125
v 162.36500549316406 205.83399963378906 123.90899658203125
v 146.3159942626953 228.27099609375 130.46200561523438
v 147.12100219726562 227.0959930419922 130.7519989013672
v 152.53199768066406 212.03199768066406 133.73599243164062
v 151.91799926757812 213.57000732421875 134.44700622558594
v 157.85000610351562 198.57699584960938 92.73419952392578
v 144.0709991455078 225.49600219726562 116.58200073242188
v 143.57899475097656 225.48599243164062 117.89700317382812
v 149.44900512695312 216.72799682617188 130.81500244140625
v 148.6999969482422 217.66900634765625 129.43899536132812
v 157.6230010986328 198.30299377441406 93.64109802246094
v 161.1179962158203 203.06900024414062 97.93659973144531
v 160.67599487304688 202.4980010986328 96.43699645996094
v 156.38600158691406 198.68699645996094 93.5071029663086
v 160.8719940185547 208.54200744628906 128.4429931640625
v 161.21299743652344 207.9199981689453 129.05599975585938
v 164.7830047607422 209.2030029296875 105.25399780273438
v 165.1199951171875 208.63099670410156 103.20600128173828
v 151.7310028076172 224.20199584960938 137.08700561523438
v 151.53199768066406 222.58099365234375 136.03199768066406
v 158.20700073242188 198.73899841308594 93.81449890136719
v 157.89300537109375 198.46299743652344 94.75980377197266
v 151.66200256347656 218.16600036621094 128.1009979248047
v 152.7760009765625 215.92999267578125 127.2979965209961
v 145.26499938964844 206.2989959716797 110.38500213623047
v 145.08999633789062 207.06100463867188 111.28700256347656
v 143.64199829101562 225.77999877929688 114.91100311279297
v 147.67799377441406 221.58399963378906 133.1510009765625
v 147.30599975585938 221.5500030517578 131.63699340820312
v 146.6840057373047 220.78199768066406 125.16000366210938
v 145.85299682617188 221.73800659179688 123.51499938964844
v 144.93899536132812 228.39500427246094 129.27999877929688
v 145.6649932861328 228.59800720214844 129.406005859375
v 158.51800537109375 199.36399841308594 92.66390228271484
v 156.218994140625 199.59100341796875 93.65609741210938
v 166.73300170898438 207.03199768066406 107.46499633789062
v 166.43299865722656 206.3470001220703 106.14299774169922
v 147.33999633789062 225.843994140625 136.1269989013672
v 146.8990020751953 225.3679962158203 134.98500061035156
v 143.11199951171875 213.8000030517578 115.14700317382812
v 153.40499877929688 215.20899963378906 130.25599670410156
v 145.09500122070312 223.4759979248047 113.84300231933594
v 146.71400451660156 217.0279998779297 114.54000091552734
v 140.1909942626953 223.49200439453125 111.29499816894531
v 141.12100219726562 224.5260009765625 111.96499633789062
v 156.531005859375 200.5330047607422 92.96209716796875
v 148.16000366210938 204.82000732421875 109.01899719238281
v 147.05299377441406 204.0679931640625 108.5
v 149.5780029296875 225.88699340820312 134.72500610351562
v 165.8070068359375 209.04299926757812 108.72000122070312
v 164.45799255371094 209.43099975585938 107.68099975585938
v 159.281005859375 200.22300720214844 93.64990234375
v 147.6750030517578 229.97900390625 135.61900329589844
v 148.54800415039062 229.656005859375 136.9040069580078
v 149.73300170898438 199.61099243164062 104.59100341796875
v 150.3699951171875 200.8159942626953 104.77999877929688
v 159.23800659179688 200.00999450683594 95.48040008544922
v 159.63299560546875 200.64100646972656 97.2958984375
v 151.95399475097656 197.78700256347656 100.6520004272461
v 147.95899963378906 220.8699951171875 118.37699890136719
v 148.58900451660156 222.0679931640625 120.99199676513672
v 140.86399841308594 221.72500610351562 111.37699890136719
v 144.26100158691406 210.44500732421875 111.50199890136719
v 144.9040069580078 209.35000610351562 111.2959976196289
v 160.21099853515625 201.99899291992188 93.3927001953125
v 160.37600708007812 202.03199768066406 94.87889862060547
v 139.0030059814453 223.93299865722656 110.89099884033203
v 147.44200134277344 219.302001953125 126.09300231933594
v 146.76800537109375 219.54200744628906 123.62699890136719
v 156.72799682617188 201.26300048828125 93.76129913330078
v 147.6529998779297 227.33299255371094 132.81500244140625
v 159.88999938964844 201.22900390625 93.96330261230469
v 160.427001953125 205.5030059814453 128.16200256347656
v 159.2239990234375 205.21499633789062 127.11399841308594
v 157.51400756835938 202.6439971923828 92.62159729003906
v 156.91000366210938 201.9250030517578 94.66230010986328
v 157.24400329589844 202.5540008544922 93.82990264892578
v 151.2469940185547 216.37100219726562 117.75
v 146.21499633789062 206.92799377441406 113.64399719238281
v 145.40499877929688 208.32200622558594 113.9530029296875
v 147.65199279785156 211.96200561523438 115.71700286865234
v 165.78700256347656 207.0050048828125 100.72100067138672
v 141.83299255371094 217.1840057373047 115.63300323486328
v 152.468994140625 199.6230010986328 107.7229995727539
v 151.16099548339844 199.38999938964844 107.5530014038086
v 153.81399536132812 218.33299255371094 136.9739990234375
v 153.47000122070312 217.37399291992188 135.47000122070312
v 137.67100524902344 224.3260040283203 112.41699981689453
v 137.8249969482422 224.02499389648438 111.6500015258789
v 144.3249969482422 214.35400390625 112.90899658203125
v 145.18899536132812 213.80099487304688 113.78500366210938
v 157.77499389648438 203.2220001220703 93.033203125
v 163.53900146484375 206.07899475097656 120.08399963378906
v 161.96800231933594 204.93600463867188 119.29399871826172
v 145.6719970703125 230.68600463867188 135.7779998779297
v 145.89999389648438 210.8260040283203 112.09200286865234
v 145.46200561523438 212.18099975585938 112.83300018310547
v 164.21400451660156 207.7270050048828 98.32219696044922
v 164.22000122070312 206.73800659179688 96.93710327148438
v 160.5749969482422 202.65199279785156 93.68949890136719
v 162.31700134277344 207.04400634765625 126.46199798583984
v 151.89700317382812 211.38800048828125 132.00399780273438
v 151.66400146484375 212.9510040283203 132.03199768066406
v 145.02000427246094 226.80999755859375 128.89700317382812
v 145.3780059814453 226.16000366210938 127.26799774169922
v 157.5800018310547 203.36500549316406 94.61840057373047
v 158.12600708007812 203.91600036621094 93.11000061035156
v 142.50799560546875 224.0290069580078 112.03900146484375
v 164.93899536132812 207.69700622558594 99.7876968383789
v 154.58299255371094 214.42100524902344 113.51200103759766
v 156.01499938964844 212.7530059814453 114.27200317382812
v 158.5570068359375 210.1320037841797 135.3990020751953
v 144.6840057373047 227.4199981689453 130.25999450683594
v 144.52499389648438 228.21600341796875 130.18800354003906
v 157.9239959716797 204.02699279785156 94.24629974365234
v 158.3300018310547 204.468994140625 93.4072036743164
v 148.7310028076172 228.843994140625 135.38999938964844
v 148.3719940185547 227.97900390625 134.30999755859375
v 156.3209991455078 211.03599548339844 127.83399963378906
v 157.15499877929688 210.03399658203125 125.35900115966797
v 159.07699584960938 209.63699340820312 134.13900756835938
v 158.1580047607422 208.5919952392578 134.0919952392578
v 161.89199829101562 204.18600463867188 95.25900268554688
v 161.90899658203125 203.91099548339844 97.0969009399414
v 161.84100341796875 204.5760040283203 93.9166030883789
v 161.29800415039062 204.552001953125 92.64350128173828
v 161.35299682617188 203.98899841308594 93.77249908447266
v 161.73300170898438 205.14100646972656 93.03679656982422
v 158.48500061035156 204.9600067138672 93.92980194091797
v 148.03199768066406 203.47999572753906 107.94000244140625
v 150.21400451660156 228.31700134277344 138.02000427246094
v 150.41000366210938 227.3209991455078 138.9530029296875
v 154.48500061035156 217.04200744628906 136.99200439453125
v 154.33399963378906 215.81900024414062 135.2830047607422
v 152.32699584960938 200.4250030517578 109.10399627685547
v 152.22500610351562 207.30299377441406 121.98899841308594
v 150.46299743652344 208.9980010986328 121.31500244140625
v 161.4040069580078 205.77499389648438 92.79000091552734
v 162.07000732421875 205.76199340820312 93.4269027709961
v 162.28900146484375 205.13800048828125 93.97239685058594
v 144.81399536132812 215.0449981689453 114.13200378417969
v 158.62600708007812 205.375 94.54090118408203
v 150.3489990234375 212.781005859375 127.35900115966797
v 149.92599487304688 212.39599609375 124.65299987792969
v 144.07400512695312 211.38800048828125 114.22699737548828
v 144.02699279785156 210.6230010986328 112.77999877929688
v 153.46600341796875 212.55599975585938 110.7030029296875
v 154.05799865722656 213.75100708007812 111.197998046875
v 159.7030029296875 205.968994140625 93.71649932861328
v 159.4810028076172 205.52699279785156 92.7571029663086
v 149.37399291992188 229.24099731445312 138.09500122070312
v 147.28799438476562 220.3699951171875 115.9280014038086
v 148.22799682617188 219.22300720214844 116.04299926757812
v 160.39500427246094 207.3159942626953 98.50779724121094
v 161.531005859375 207.6479949951172 97.2145004272461
v 152.28399658203125 217.21400451660156 130.16900634765625
v 160.62899780273438 206.17599487304688 93.40299987792969
v 140.8509979248047 222.16400146484375 115.70899963378906
v 161.42999267578125 206.2530059814453 93.4937973022461
v 156.10800170898438 215.3470001220703 138.84100341796875
v 156.04100036621094 215.1739959716797 137.2530059814453
v 162.81700134277344 205.83599853515625 94.53890228271484
v 155.86000061035156 215.43699645996094 139.90199279785156
v 150.56199645996094 199.87600708007812 103.64399719238281
v 150.7570037841797 199.18299865722656 102.6780014038086
v 158.55299377441406 205.25599670410156 97.1677017211914
v 155.69900512695312 199.6719970703125 105.30899810791016
v 154.24000549316406 198.54200744628906 104.16600036621094
v 152.1179962158203 203.77099609375 114.96900177001953
v 151.6300048828125 202.75900268554688 112.79100036621094
v 143.80099487304688 216.68800354003906 113.58399963378906
v 147.31300354003906 219.6739959716797 114.64900207519531
v 148.11900329589844 224.37100219726562 136.7760009765625
v 147.98899841308594 225.5959930419922 137.2530059814453
v 163.68600463867188 205.77499389648438 95.92900085449219
v 163.67100524902344 205.15899658203125 96.92469787597656
v 153.51699829101562 214.9219970703125 114.22200012207031
v 144.76400756835938 213.2010040283203 112.68699645996094
v 156.80099487304688 198.2239990234375 94.14209747314453
v 151.88900756835938 216.21800231933594 121.4260025024414
v 151.5800018310547 218.0330047607422 124.94300079345703
v 156.16600036621094 198.447998046875 94.39869689941406
v 155.87399291992188 198.2530059814453 95.49230194091797
v 147.88999938964844 219.0290069580078 128.71800231933594
v 156.70399475097656 198.08200073242188 95.96269989013672
v 138.41200256347656 223.33399963378906 111.06900024414062
v 157.3730010986328 198.19400024414062 94.83100128173828
v 159.03599548339844 208.08700561523438 133.13400268554688
v 145.45899963378906 225.2689971923828 128.79800415039062
v 153.85800170898438 219.2030029296875 140.1790008544922
v 152.31100463867188 219.69900512695312 140.73800659179688
v 155.79600524902344 198.86199951171875 94.80599975585938
v 154.73599243164062 214.20899963378906 111.9020004272461
v 155.8560028076172 213.8260040283203 112.59100341796875
v 138.80299377441406 222.04200744628906 111.40599822998047
v 138.2689971923828 222.8000030517578 111.54000091552734
v 146.01499938964844 205.7270050048828 112.20500183105469
v 145.2740020751953 205.97799682617188 111.35199737548828
v 158.73199462890625 199.3979949951172 94.37120056152344
v 158.27000427246094 198.89100646972656 95.45719909667969
v 157.53700256347656 198.38299560546875 96.15850067138672
v 151.5469970703125 219.2480010986328 140.00100708007812
v 151.6739959716797 220.5240020751953 140.52099609375
v 155.66700744628906 199.5449981689453 95.47669982910156
v 155.14100646972656 215.91099548339844 136.77200317382812
v 166.67300415039062 208.01499938964844 109.01699829101562
v 156.24899291992188 200.4669952392578 94.78009796142578
v 153.05499267578125 216.20799255371094 131.85800170898438
v 148.2030029296875 226.6529998779297 138.1540069580078
v 147.49600219726562 225.70399475097656 123.56800079345703
v 147.2310028076172 226.19000244140625 125.447998046875
v 146.65699768066406 227.76600646972656 136.10899353027344
v 145.69200134277344 228.87100219726562 135.1529998779297
v 162.8419952392578 207.6649932861328 123.20600128173828
v 146.40499877929688 223.68600463867188 118.64099884033203
v 140.03599548339844 226.8300018310547 112.91699981689453
v 141.5189971923828 226.9149932861328 113.95600128173828
v 163.156005859375 204.14599609375 101.18399810791016
v 148.84500122070312 224.28599548339844 131.89700317382812
v 145.1529998779297 207.69700622558594 112.61699676513672
v 154.78700256347656 197.47799682617188 97.36959838867188
v 154.572998046875 197.17799377441406 98.4813003540039
v 165.67300415039062 205.70799255371094 108.5989990234375
v 149.18899536132812 219.6009979248047 119.17400360107422
v 146.13999938964844 222.68899536132812 125.99800109863281
v 151.90499877929688 221.95700073242188 140.58799743652344
v 153.68099975585938 214.51600646972656 112.5469970703125
v 159.68099975585938 200.6739959716797 95.18550109863281
v 156.31399536132812 201.1649932861328 96.17140197753906
v 150.59100341796875 224.13499450683594 140.4499969482422
v 149.97000122070312 223.47799682617188 139.24000549316406
v 160.10299682617188 201.44000244140625 96.04019927978516
v 152.73899841308594 208.2830047607422 128.71499633789062
v 159.23199462890625 203.64999389648438 116.49800109863281
v 156.906005859375 202.61099243164062 113.49800109863281
v 145.96200561523438 223.79100036621094 129.01699829101562
v 145.71800231933594 224.2790069580078 127.18299865722656
v 147.1179962158203 222.66700744628906 132.52699279785156
v 156.80999755859375 206.9759979248047 106.35399627685547
v 158.49000549316406 208.13800048828125 104.88800048828125
v 152.92300415039062 214.50399780273438 139.40499877929688
v 154.70199584960938 215.52000427246094 140.53199768066406
v 153.05799865722656 215.42100524902344 140.13800048828125
v 157.18699645996094 202.70899963378906 95.74240112304688
v 164.30799865722656 204.6739959716797 102.52300262451172
v 163.9720001220703 204.5030059814453 105.20899963378906
v 162.50799560546875 206.94500732421875 95.35900115966797
v 163.41700744628906 206.57000732421875 95.68289947509766
v 142.6280059814453 222.66900634765625 117.85099792480469
v 147.9530029296875 216.61900329589844 123.86699676513672
v 142.39300537109375 225.3509979248047 112.25299835205078
v 141.76699829101562 222.77499389648438 111.81600189208984
v 155.63499450683594 214.38499450683594 135.35800170898438
v 154.12100219726562 216.65199279785156 140.66200256347656
v 152.95199584960938 217.2469940185547 140.31100463867188
v 145.81900024414062 229.09100341796875 130.78599548339844
v 146.1580047607422 229.1529998779297 131.8979949951172
v 164.2220001220703 209.4320068359375 110.4749984741211
v 161.23399353027344 203.44900512695312 95.52539825439453
v 159.3769989013672 209.24099731445312 130.87899780273438
v 160.22999572753906 208.6020050048828 130.19900512695312
v 157.8090057373047 203.99000549316406 95.4740982055664
v 158.1009979248047 204.47799682617188 94.78109741210938
v 147.9720001220703 225 122.48200225830078
v 139.4340057373047 222.59300231933594 110.75299835205078
v 140.06300354003906 220.7169952392578 111.50399780273438
v 162.74400329589844 204.9600067138672 95.23829650878906
v 152.85400390625 222.56399536132812 139.96600341796875
v 146.23699951171875 230.63999938964844 136.322998046875
v 146.85000610351562 230.6790008544922 136.31900024414062
v 153.2729949951172 220.2949981689453 140.45899963378906
v 154.1269989013672 219.88499450683594 139.17599487304688
v 163.82200622558594 209.47000122070312 113.8290023803711
v 165.3679962158203 209.03700256347656 114.65499877929688
v 158.3459930419922 204.9810028076172 95.32730102539062
v 162.23500061035156 209.625 108.41200256347656
v 144.62399291992188 229.16900634765625 130.42300415039062
v 159.08200073242188 209.21400451660156 127.89399719238281
v 145.66299438476562 220.39500427246094 113.13600158691406
v 143.91700744628906 220.99099731445312 112.46199798583984
v 146.1909942626953 203.86099243164062 109.12799835205078
v 145.85299682617188 204.25999450683594 110.2300033569336
v 166.0240020751953 207.77099609375 115.70899963378906
v 165.46200561523438 206.44700622558594 116.23500061035156
v 153.3520050048828 200.06199645996094 100.87899780273438
v 155.13400268554688 206.2779998779297 108.66899871826172
v 155.24099731445312 208.92999267578125 108.78900146484375
v 158.63999938964844 205.45399475097656 95.69580078125
v 138.2570037841797 224.66400146484375 111.59500122070312
v 165.82200622558594 209.0919952392578 106.76799774169922
v 146.83799743652344 221.59500122070312 127.38800048828125
v 153.95599365234375 207.26199340820312 129.8260040283203
v 148.1959991455078 228.87399291992188 138.34800720214844
v 147.1999969482422 229.0019989013672 137.4810028076172
v 162.70899963378906 204.5449981689453 96.5687026977539
v 165.72000122070312 206.10499572753906 100.24800109863281
v 140.63299560546875 219.2969970703125 112.28399658203125
v 160.906005859375 206.63999938964844 94.88179779052734
v 160 206.3489990234375 94.91829681396484
v 145.72999572753906 230.22300720214844 136.05099487304688
v 162.04200744628906 206.4199981689453 94.1521987915039
v 152.78900146484375 218.7270050048828 140.6020050048828
v 149.6179962158203 205.2830047607422 110.06099700927734
v 161.58200073242188 207.04100036621094 95.4052963256836
v 148.5030059814453 200.8209991455078 108.98799896240234
v 148.68699645996094 200.16000366210938 107.3479995727539
v 145.71200561523438 207.46200561523438 110.58799743652344
v 151.63299560546875 201.52999877929688 110.7959976196289
v 149.81199645996094 202.5030059814453 111.58000183105469
v 144.75100708007812 227.65199279785156 131.677001953125
v 145.2689971923828 227.23300170898438 132.79200744628906
v 149.50900268554688 204.03500366210938 108.44499969482422
v 145.73599243164062 215.1199951171875 119.58899688720703
v 144.156005859375 218.14500427246094 118.5250015258789
v 143.15699768066406 225.9029998779297 113.21499633789062
v 159.4219970703125 207.83099365234375 102.6510009765625
v 160.572998046875 208.95799255371094 103.89900207519531
v 143.6179962158203 211.7449951171875 113.01399993896484
v 143.8470001220703 211.25 111.99299621582031
v 139.64700317382812 221.2259979248047 113.91600036621094
v 160.0449981689453 209.95899963378906 110.8290023803711
v 159.74000549316406 209.52200317382812 106.65899658203125
v 138.04600524902344 224.07000732421875 113.21700286865234
v 138.01199340820312 223.39700317382812 112.2760009765625
v 145.36900329589844 205.2689971923828 110.55000305175781
v 147.3509979248047 220.1439971923828 127.3270034790039
v 145.8260040283203 224.64300537109375 130.36399841308594
v 153.19000244140625 197.8459930419922 98.17639923095703
v 153.38600158691406 198.85499572753906 98.4520034790039
v 141.86900329589844 218.81700134277344 112.46800231933594
v 142.8070068359375 218.33200073242188 113.1500015258789
v 159.7429962158203 206.9980010986328 99.95320129394531
v 154.1020050048828 197.77499389648438 96.96160125732422
v 155.031005859375 197.92999267578125 96.40760040283203
v 154.94200134277344 198.55499267578125 96.11370086669922
v 160.33799743652344 201.84100341796875 98.30599975585938
v 145.156005859375 230.65199279785156 133.89700317382812
v 166.64700317382812 208.33299255371094 106.78299713134766
v 143.75999450683594 213.35699462890625 112.35299682617188
v 146.2010040283203 226.14700317382812 133.93499755859375
v 145.7239990234375 225.65899658203125 132.00599670410156
v 145.1510009765625 226.2100067138672 130.29400634765625
v 155.2310028076172 216.63999938964844 139.92100524902344
v 144.7010040283203 213.2550048828125 117.53399658203125
v 145.66299438476562 211.54299926757812 117.33499908447266
v 149.31300354003906 204.22300720214844 113.76200103759766
v 150.36300659179688 205.70399475097656 116.44499969482422
v 144.89300537109375 222.36500549316406 112.31099700927734
v 154.0659942626953 213.45799255371094 139.1719970703125
v 147.83999633789062 222.76100158691406 134.63099670410156
v 147.58299255371094 224.16600036621094 135.44500732421875
v 166.18499755859375 206.85299682617188 114.37999725341797
v 160.4029998779297 209.26300048828125 117.05500030517578
v 162.20399475097656 209.4250030517578 115.41699981689453
v 158.53900146484375 205.75100708007812 100.8010025024414
v 158.0240020751953 206.31100463867188 103.41500091552734
v 151.43299865722656 217.10000610351562 138.14500427246094
v 151.30299377441406 216.3090057373047 136.7220001220703
v 164.50100708007812 208.2429962158203 118.77100372314453
v 164.10800170898438 208.95399475097656 117.15899658203125
v 154.00100708007812 197.75900268554688 102.52200317382812
v 146.25599670410156 222.47500610351562 115.91699981689453
v 146.1719970703125 221.62399291992188 113.93499755859375
v 152.80299377441406 213.82400512695312 111.97699737548828
v 152.25 212.68499755859375 112.02100372314453
v 155.7050018310547 207.92799377441406 133.02200317382812
v 154.25900268554688 201.5970001220703 110.98899841308594
v 153.4759979248047 214.19200134277344 123.22100067138672
v 156.13800048828125 210.72500610351562 121.4469985961914
v 148.51699829101562 201.99099731445312 110.46800231933594
v 158.718994140625 209.20399475097656 122.90499877929688
v 165.25799560546875 207.281005859375 117.7239990234375
v 164.38800048828125 207.2429962158203 119.50900268554688
v 157.9600067138672 198.83599853515625 97.56670379638672
v 157.93499755859375 210.4199981689453 108.5790023803711
v 158.70599365234375 199.41099548339844 96.31929779052734
v 147.4770050048828 223.60299682617188 120.51599884033203
v 159.70399475097656 208.1699981689453 131.83399963378906
v 159.08999633789062 209.87100219726562 133.00100708007812
v 152.2989959716797 215.1510009765625 139.00100708007812
v 152.531005859375 217.95199584960938 133.88600158691406
v 147.1929931640625 212.5800018310547 119.76599884033203
v 148.71099853515625 219.26100158691406 133.26499938964844
v 148.98899841308594 219.90199279785156 134.7949981689453
v 159.08599853515625 199.8730010986328 97.13259887695312
v 144.81700134277344 210.74000549316406 115.22699737548828
v 159.05499267578125 200.03599548339844 98.7042007446289
v 150.97799682617188 222.88999938964844 140.22900390625
v 145.79600524902344 229.6580047607422 131.9669952392578
v 145.5760040283203 223.9530029296875 125.0199966430664
v 144.7530059814453 223.46499633789062 122.25499725341797
v 148.57000732421875 201.28199768066406 106.69599914550781
v 150.09800720214844 201.8730010986328 106.06099700927734
v 152.53599548339844 197.6280059814453 99.45359802246094
v 152.71499633789062 197.26699829101562 100.19599914550781
v 147.28799438476562 207.93299865722656 116.1709976196289
v 146.6790008544922 229.9600067138672 137.0330047607422
v 146.43299865722656 228.92799377441406 136.60000610351562
v 150.7310028076172 223.78199768066406 135.2259979248047
v 159.89100646972656 209.02499389648438 121.28700256347656
v 158.9320068359375 209.406005859375 118.21199798583984
v 165.07000732421875 205.52200317382812 111.48699951171875
v 166.31900024414062 207.4770050048828 102.95600128173828
v 144.9510040283203 228.99099731445312 133.4040069580078
v 138.2220001220703 225.16799926757812 112.83999633789062
v 156.74200439453125 202.5749969482422 99.19000244140625
v 157.35000610351562 203.26499938964844 97.8906021118164
v 155.80099487304688 205.1790008544922 119.81800079345703
v 157.19000244140625 205.14300537109375 121.64900207519531
v 152.99000549316406 214.906005859375 117.16500091552734
v 147.13800048828125 221.91799926757812 118.07099914550781
v 154.91600036621094 212.83599853515625 110.16699981689453
v 157.6300048828125 203.6820068359375 96.58110046386719
v 155.06199645996094 214.28399658203125 139.98699951171875
v 143.2209930419922 212.88900756835938 113.12999725341797
v 156.8159942626953 202.0970001220703 96.8833999633789
v 162.79299926757812 208.86099243164062 118.03099822998047
v 151.61700439453125 199.95599365234375 102.62300109863281
v 149.8000030517578 198.9770050048828 105.35199737548828
v 159.3179931640625 206.22900390625 98.58399963378906
v 158.47900390625 205.23500061035156 99.02169799804688
v 139.52499389648438 223.0050048828125 114.5250015258789
v 138.58999633789062 223.17300415039062 113.51599884033203
v 144.531005859375 224.69900512695312 115.33699798583984
v 145.41000366210938 223.9720001220703 116.54000091552734
v 141.7100067138672 226.2259979248047 112.68800354003906
v 153.60299682617188 220.4219970703125 138.0780029296875
v 154.0019989013672 198.48899841308594 97.19499969482422
v 146.13499450683594 229.85499572753906 136.64999389648438
v 158.0540008544922 204.47500610351562 96.31430053710938
v 162.04100036621094 208.7010040283203 120.09300231933594
v 154.8719940185547 199.96499633789062 97.77010345458984
v 155.6540069580078 200.22799682617188 96.48480224609375
v 145.14599609375 208.15499877929688 111.2979965209961
v 149.98899841308594 225.07200622558594 140.0229949951172
v 150.38099670410156 226.1060028076172 140.06500244140625
v 151.3990020751953 215.20899963378906 135.41200256347656
v 151.63400268554688 202.73500061035156 106.35800170898438
v 151.8719940185547 201.93600463867188 105.07499694824219
v 154.47500610351562 218.91099548339844 138.51199340820312
v 154.70599365234375 217.84300231933594 138.2310028076172
v 165.11300659179688 206.73599243164062 98.73139953613281
v 165.43800354003906 205.38900756835938 101.30999755859375
v 142.48599243164062 221.16600036621094 112.19599914550781
v 141.62600708007812 219.96400451660156 112.21499633789062
v 143.81500244140625 225.2530059814453 113.7020034790039
v 160.3209991455078 207.30099487304688 130.61300659179688
v 146.89500427246094 221.843994140625 129.6060028076172
v 159.91600036621094 206.5399932861328 96.63249969482422
v 150.96400451660156 211.86599731445312 113.9749984741211
v 149.01499938964844 211.44500732421875 115.76300048828125
v 138.98199462890625 221.98300170898438 113.05599975585938
v 146.48699951171875 223.0030059814453 130.4250030517578
v 150.4759979248047 217.24200439453125 135.08200073242188
v 144.68699645996094 208.7010040283203 112.48200225830078
v 144.28599548339844 209.6929931640625 112.28700256347656
v 156.322998046875 206.78399658203125 131.9600067138672
v 157.4600067138672 210.42999267578125 136.74200439453125
v 156.41099548339844 210.76199340820312 137.48500061035156
v 149.0399932861328 222.9969940185547 127.68699645996094
v 148.60400390625 223.87399291992188 128.35499572753906
v 161.843994140625 205.97000122070312 127.03500366210938
v 161.23599243164062 206.51400756835938 128.7899932861328
v 142.28399658203125 225.5070037841797 117.3740005493164
v 143.08999633789062 226.02000427246094 116.45700073242188
v 151.03700256347656 220.13800048828125 139.55799865722656
v 150.63299560546875 219.2740020751953 138.2259979248047
v 145.6929931640625 227.42100524902344 133.89199829101562
v 156.33799743652344 199.00399780273438 102.46600341796875
v 160.8179931640625 207.1179962158203 96.53130340576172
v 150.3769989013672 213.31100463867188 114.66999816894531
v 150.73599243164062 198.35899353027344 104.90399932861328
v 151.08999633789062 218.38499450683594 138.44400024414062
v 150.7570037841797 217.83099365234375 136.9409942626953
v 151.87899780273438 215.65699768066406 138.125
v 164.35400390625 205.31300354003906 114.45700073242188
v 162.35699462890625 204.14199829101562 115.09200286865234
v 153.63600158691406 210.5590057373047 110.4800033569336
v 154.86599731445312 213.6009979248047 132.093994140625
v 156.79600524902344 212.5019989013672 133.78599548339844
v 148.38099670410156 220.86599731445312 134.322998046875
v 156.76199340820312 203.86000061035156 117.04900360107422
v 155.79800415039062 197.843994140625 97.01570129394531
v 155.42999267578125 197.5570068359375 98.84490203857422
v 149.73800659179688 219.42599487304688 136.1929931640625
v 150.69200134277344 225.68499755859375 136.2010040283203
v 149.39599609375 227.96200561523438 135.41700744628906
v 161.55099487304688 203.50599670410156 111.48999786376953
v 159.75799560546875 202.3730010986328 108.4800033569336
v 163.06700134277344 207.63800048828125 97.01640319824219
v 139.68699645996094 224.9459991455078 111.66000366210938
v 154.32699584960938 217.94500732421875 140.59500122070312
v 161.50999450683594 208.33900451660156 126.5250015258789
v 162.17799377441406 207.94500732421875 124.4990005493164
v 149.0850067138672 208.0679931640625 118.4209976196289
v 142.63699340820312 219.8040008544922 113.05599975585938
v 157.59800720214844 205.98199462890625 131.00399780273438
v 138.99000549316406 225.97300720214844 113.37899780273438
v 144.55599975585938 221.94500732421875 120.7030029296875
v 143.5850067138672 223.68600463867188 119.55799865722656
v 159.41299438476562 200.7779998779297 100.46499633789062
v 158.08999633789062 199.54400634765625 100.37899780273438
v 147.16900634765625 228.66900634765625 133.302001953125
v 154.64500427246094 205.80599975585938 127.38400268554688
v 164.63999938964844 206.3040008544922 118.18699645996094
v 163.72000122070312 205.33099365234375 117.35800170898438
v 153.1280059814453 197.24899291992188 98.8676986694336
v 153.85899353027344 197.2519989013672 97.90519714355469
v 154.51499938964844 202.9810028076172 114.25800323486328
v 145.89199829101562 208.5659942626953 110.91200256347656
v 150.32400512695312 217.88099670410156 119.29499816894531
v 144.7310028076172 229.9239959716797 133.6179962158203
v 141.6699981689453 220.0279998779297 116.11499786376953
v 140.32899475097656 220.1739959716797 114.50299835205078
v 149.22799682617188 220.99899291992188 136.52000427246094
v 142.8679962158203 224.82200622558594 118.447998046875
v 152.92999267578125 209.37600708007812 131.52699279785156
v 151.84500122070312 209.71400451660156 128.72300720214844
v 157.83299255371094 210.072998046875 116.18699645996094
v 158.6060028076172 210.11500549316406 115.2959976196289
v 160.25999450683594 209.64199829101562 114.30999755859375
v 151.71200561523438 219.6649932861328 134.21800231933594
v 148.6479949951172 225.32899475097656 138.30099487304688
v 153.91799926757812 202.01300048828125 103.6989974975586
v 155.9810028076172 202.85699462890625 101.97699737548828
v 147.96099853515625 206.0019989013672 114.61100006103516
v 152.17999267578125 209.08599853515625 112.7490005493164
v 152.4949951171875 211.38099670410156 111.7760009765625
v 160.63499450683594 208.39599609375 101.51699829101562
v 156.71200561523438 198.10800170898438 98.02670288085938
v 146.072998046875 209.57899475097656 111.39099884033203
v 145.89700317382812 230.6699981689453 134.2570037841797
v 154.80599975585938 212.79800415039062 127.95899963378906
v 146.93600463867188 208.07400512695312 111.09400177001953
v 148.22799682617188 208.1199951171875 112.2249984741211
v 152.25999450683594 197.43800354003906 101.70800018310547
v 154.94200134277344 199.30499267578125 96.68840026855469
v 150.552001953125 220.15699768066406 128.125
v 151.0679931640625 219.35899353027344 130.33799743652344
v 150.375 227.32200622558594 136.8560028076172
v 147.86199951171875 210.08399963378906 114.16799926757812
v 157.16700744628906 212.61900329589844 111.66100311279297
v 153.9149932861328 209.43600463867188 133.1699981689453
v 153.78700256347656 219.33399963378906 137.55799865722656
v 139.1820068359375 226.0229949951172 112.24099731445312
v 148.0290069580078 218.47500610351562 114.51699829101562
v 160.95399475097656 208.04800415039062 99.52249908447266
v 152.47000122070312 214.85299682617188 113.04900360107422
v 156.95399475097656 211.6230010986328 132.11000061035156
v 162.45199584960938 205.64999389648438 121.91699981689453
v 155.68600463867188 213.43899536132812 110.98600006103516
v 159.53799438476562 206.4759979248047 131.00999450683594
v 157.26600646972656 209.5749969482422 135.3419952392578
v 147.9429931640625 225.66299438476562 130.83599853515625
v 158.56500244140625 199.44900512695312 98.1843032836914
v 151.21200561523438 209.80299377441406 125.12699890136719
v 150.8090057373047 221.37399291992188 139.63699340820312
v 153.94200134277344 199.8280029296875 99.2416000366211
v 151.7270050048828 218.17100524902344 139.57699584960938
v 166.8300018310547 207.51199340820312 105.09700012207031
v 149.4409942626953 227.25399780273438 139.1479949951172
v 145.3459930419922 206.79200744628906 112.3219985961914
v 153.12399291992188 200.63699340820312 102.30500030517578
v 145.0919952392578 229.59300231933594 134.36500549316406
v 142.76699829101562 214.0749969482422 113.19000244140625
v 154.83099365234375 200.56500244140625 99.31729888916016
v 155.531005859375 200.7760009765625 98.04779815673828
v 146.5 218.08200073242188 121.56300354003906
v 145.29100036621094 220.39999389648438 121.0199966430664
v 153.5229949951172 199.2779998779297 106.5260009765625
v 152.69900512695312 198.42799377441406 105.27100372314453
v 150.57200622558594 219.06300354003906 122.08599853515625
v 145.70700073242188 230.27999877929688 133.22999572753906
v 146.38699340820312 230.197998046875 134.08099365234375
v 144.98500061035156 226.9669952392578 131.55999755859375
v 160.1179962158203 205.78900146484375 129.6060028076172
v 153.74400329589844 197.03399658203125 99.24659729003906
v 153.1750030517578 207.32200622558594 111.33499908447266
v 156.2259979248047 201.5240020751953 98.10929870605469
v 157.08099365234375 205.21200561523438 124.06199645996094
v 155.24400329589844 205.58599853515625 124.79199981689453
v 138.7830047607422 224.54100036621094 114.14199829101562
v 142.09100341796875 218.15899658203125 116.26300048828125
v 150.15899658203125 207.6269989013672 113.34400177001953
v 154.14199829101562 213.19500732421875 118.59400177001953
v 144.45799255371094 209.63299560546875 113.35800170898438
v 156.93499755859375 204.45799255371094 102.88999938964844
v 157.53199768066406 204.11300659179688 100.04499816894531
v 146.8159942626953 205.30599975585938 109.2760009765625
v 152.74899291992188 197.843994140625 103.81800079345703
v 151.93699645996094 197.63400268554688 103.12100219726562
v 149.26499938964844 200.2100067138672 105.85600280761719
v 142.03900146484375 226.218994140625 115.78700256347656
v 151.82200622558594 218.5279998779297 132.0489959716797
v 163.23500061035156 209.20399475097656 103.52300262451172
v 153.36099243164062 212.42799377441406 136.1529998779297
v 152.35000610351562 212.95799255371094 135.06500244140625
v 157.98800659179688 204.41400146484375 97.97149658203125
v 148.42300415039062 227.04600524902344 133.8070068359375
v 155.4080047607422 216.51400756835938 138.35400390625
v 146.49899291992188 223.86900329589844 131.97300720214844
v 146.98800659179688 204.3780059814453 111.8550033569336
v 146.32899475097656 222.81900024414062 128.13900756835938
v 151.90899658203125 200.91700744628906 103.70099639892578
v 164.51499938964844 205.85400390625 97.50920104980469
v 164.3520050048828 205.13900756835938 98.54940032958984
v 153.03399658203125 221.43899536132812 137.71499633789062
v 153.15499877929688 222.23699951171875 138.6009979248047
v 152.83299255371094 219.00599670410156 136.06199645996094
v 161.79100036621094 209.58700561523438 112.39199829101562
v 151.9669952392578 223.64100646972656 140.56199645996094
v 146.4320068359375 203.03399658203125 109.93099975585938
v 140.6529998779297 223.71600341796875 115.62999725341797
v 139.98699951171875 224.62600708007812 115.16500091552734
v 144.41200256347656 212.43299865722656 111.84600067138672
v 161.34100341796875 204.0330047607422 116.03800201416016
v 158.04600524902344 209.5050048828125 119.37699890136719
v 143.65199279785156 222.70399475097656 112.05599975585938
v 151.78700256347656 198.73199462890625 106.16500091552734
v 140.57400512695312 226.32400512695312 114.84500122070312
v 161.1179962158203 205.47799682617188 126.27200317382812
v 144.73699951171875 225.05499267578125 117.59500122070312
v 150.10499572753906 209.9199981689453 114.24299621582031
v 151.44700622558594 213.7209930419922 113.04900360107422
v 149.79200744628906 221.67799377441406 131.48500061035156
v 141.16600036621094 218.45700073242188 115.11499786376953
v 159.11199951171875 205.30599975585938 128.6540069580078
v 156.41900634765625 205.302001953125 126.31600189208984
v 148.7449951171875 223.5500030517578 129.968994140625
v 148.38400268554688 223.86099243164062 122.37699890136719
v 148.13299560546875 225.04400634765625 124.07099914550781
v 144.11900329589844 225.25100708007812 119.11399841308594
v 165.2310028076172 208.58999633789062 116.91000366210938
v 151.40499877929688 197.83099365234375 102.10199737548828
v 153.41299438476562 213.49400329589844 138.47500610351562
v 153.74899291992188 214.1790008544922 139.9709930419922
v 140.40199279785156 225.99200439453125 112.05799865722656
v 146.33999633789062 206.5800018310547 110.03800201416016
v 152.88999938964844 199.29800415039062 99.95809936523438
v 152.42300415039062 203.58900451660156 107.4229965209961
v 153.44900512695312 204.88299560546875 108.96299743652344
v 154.25399780273438 199.2760009765625 97.68699645996094
v 144.24099731445312 212.61000061035156 116.24099731445312
v 151.13299560546875 221.3679962158203 134.39599609375
v 156.37100219726562 205.45700073242188 129.1790008544922
v 147.54400634765625 220.30999755859375 129.9759979248047
v 154.60899353027344 207.85000610351562 132.01499938964844
v 148.04100036621094 206.40899658203125 110.45700073242188
v 166.53199768066406 206.406005859375 104.10099792480469
v 165.51199340820312 205.4040069580078 105.65799713134766
v 145.031005859375 210.38600158691406 111.1259994506836
v 154.4250030517578 197.2100067138672 99.92790222167969
v 157.23699951171875 209.03199768066406 107.03600311279297
v 148.62600708007812 210.927001953125 120.64900207519531
v 152.4199981689453 198.38800048828125 99.62149810791016
v 156.0189971923828 197.9550018310547 99.89430236816406
v 156.0659942626953 205.052001953125 106.01699829101562
v 149.6280059814453 222.1020050048828 127.08000183105469
v 152.10699462890625 216.36599731445312 139.21499633789062
v 149.28599548339844 222.89500427246094 125.04900360107422
v 150.20799255371094 220.66400146484375 124.7760009765625
v 143.63900756835938 215.5279998779297 112.60900115966797
v 149.40499877929688 227.02699279785156 135.01699829101562
v 145.7030029296875 205.33999633789062 109.70099639892578
v 147.65899658203125 202.24400329589844 107.50199890136719
v 147.70899963378906 201.16600036621094 107.94999694824219
v 148.7010040283203 224.03700256347656 126.13200378417969
v 149.7469940185547 222.40199279785156 138.3520050048828
v 156.96200561523438 208.23199462890625 133.88400268554688
v 149.42300415039062 228.25100708007812 138.8699951171875
v 164.4949951171875 209.2519989013672 115.73500061035156
v 148.0760040283203 225.1230010986328 128.64599609375
v 159.96200561523438 201.99600219726562 105.39700317382812
v 157.38900756835938 200.94900512695312 106.88700103759766
v 149.33299255371094 221.6750030517578 122.37999725341797
v 157.906005859375 200.55599975585938 104.73699951171875
v 149.20799255371094 218.3679962158203 116.15399932861328
v 146.5240020751953 226.81900024414062 135.18600463867188
v 161.69700622558594 208.59800720214844 122.55699920654297
v 148.5050048828125 227.53199768066406 138.85899353027344
v 155.71800231933594 201.56399536132812 99.85089874267578
v 141.5279998779297 216.66000366210938 112.86900329589844
v 142.80499267578125 226.4340057373047 114.56800079345703
v 146.28799438476562 219.05499267578125 113.69300079345703
v 149.44400024414062 200.17100524902344 108.5199966430664
v 151.40699768066406 214.13800048828125 132.99899291992188
v 150.0850067138672 220.65699768066406 138.125
v 149.25599670410156 223.88099670410156 138.24000549316406
v 153.92599487304688 212.76699829101562 137.99099731445312
v 149.27699279785156 215.343994140625 127.06800079345703
v 158.6929931640625 205.1179962158203 121.95099639892578
v 157.35299682617188 212.8520050048828 135.3520050048828
v 149.76300048828125 224.2449951171875 139.5590057373047
v 149.22300720214844 224.64599609375 138.81700134277344
v 148.29400634765625 218.86500549316406 131.23899841308594
v 154.03799438476562 204.73599243164062 117.6520004272461
v 153.7310028076172 206.1540069580078 121.27400207519531
v 149.26400756835938 217.64100646972656 132.16099548339844
v 166.23800659179688 208.11900329589844 113.66999816894531
v 149.4739990234375 225.59100341796875 139.28199768066406
v 157.04200744628906 213.92100524902344 138.14599609375
v 149.72000122070312 221.51600646972656 129.39599609375
v 152.47799682617188 222.54400634765625 137.44700622558594
v 145.64500427246094 228.21299743652344 134.43699645996094
v 145.91600036621094 209.56900024414062 115.93099975585938
v 163.16700744628906 204.5449981689453 98.11759948730469
v 149.58599853515625 206.51199340820312 111.55799865722656
v 151.35299682617188 205.63299560546875 111.11699676513672
v 157.13600158691406 213.63800048828125 136.66400146484375
v 163.7270050048828 204.58399963378906 99.61519622802734
v 153.34100341796875 197.16799926757812 100.88400268554688
v 164.5760040283203 204.9199981689453 100.4209976196289
v 155.24000549316406 206.30499267578125 130.20599365234375
v 154.75799560546875 203.6219940185547 105.5009994506836
v 165.15199279785156 208.03399658203125 101.44100189208984
v 144.58200073242188 217.9040069580078 114.06600189208984
v 146.85699462890625 203.0570068359375 108.1729965209961
v 143.5570068359375 212.53799438476562 114.4260025024414
v 154.83599853515625 214.1840057373047 133.78199768066406
v 154.53900146484375 200.3780059814453 108.1500015258789
v 154.9080047607422 217.94900512695312 139.5749969482422
v 149.10000610351562 202.6439971923828 107.13500213623047
v 158.60899353027344 205.47500610351562 129.92999267578125
v 160.47300720214844 208.96600341796875 120.1449966430664
v 160.1750030517578 207.70399475097656 100.55000305175781
v 149.79299926757812 199.44700622558594 107.08000183105469
v 162.22000122070312 203.82899475097656 99.283203125
v 163.98399353027344 208.42599487304688 100.13999938964844
v 156.21800231933594 210.46200561523438 108.57099914550781
v 139.44900512695312 225.83099365234375 114.35199737548828
v 158.06900024414062 210.39199829101562 131.031005859375
v 165.11000061035156 205.6280059814453 99.30560302734375
v 166.1699981689453 208.53399658203125 104.8239974975586
v 149.25900268554688 223.156005859375 137.68299865722656
v 145.95700073242188 226.45899963378906 125.89399719238281
v 146.20899963378906 226.20399475097656 124.2979965209961
v 151.70599365234375 198.03500366210938 104.51399993896484
v 151.3470001220703 211.70599365234375 129.63400268554688
v 144.1439971923828 219.3419952392578 113.34700012207031
v 151.427001953125 226.0749969482422 138.10800170898438
v 153.91600036621094 197.35400390625 101.40299987792969
v 154.92799377441406 197.60800170898438 100.79499816894531
v 166.55499267578125 206.8209991455078 110.13400268554688
v 147.92100524902344 229.5659942626953 137.58299255371094
v 147 209.6999969482422 117.64299774169922
v 150.9429931640625 220.20899963378906 132.5260009765625
v 152.0989990234375 198.96299743652344 100.6729965209961
v 149.6439971923828 228.78900146484375 136.6820068359375
v 145.44200134277344 229.31300354003906 130.46499633789062
v 147.07699584960938 228.0570068359375 136.98399353027344
v 158.23699951171875 211.39500427246094 113.34400177001953
v 148.6219940185547 224.43800354003906 137.61900329589844
v 148.802001953125 223.7740020751953 123.88400268554688
v 142.25999450683594 215.02499389648438 114.36299896240234
v 153.7689971923828 206.54299926757812 123.89800262451172
v 153.7740020751953 215.5780029296875 133.48199462890625
v 159.95599365234375 204.63299560546875 119.53600311279297
v 151.88099670410156 206.47300720214844 118.97799682617188
v 147.90899658203125 220.3040008544922 132.33099365234375
v 154.5279998779297 201.05799865722656 101.18000030517578
v 145.65699768066406 229.6179962158203 135.63400268554688
v 144.3990020751953 229.39500427246094 132.25799560546875
v 146 225.906005859375 121.3759994506836
v 148.56300354003906 229.5189971923828 137.9250030517578
v 146.3300018310547 229.66299438476562 133.13999938964844
v 147.11599731445312 209.75 112.58000183105469
v 150.66600036621094 203.1739959716797 107.33799743652344
v 154.32200622558594 214.1439971923828 115.11499786376953
v 152.35000610351562 215.58700561523438 114.86399841308594
v 162.89700317382812 208.23199462890625 121.85199737548828
v 154.91900634765625 211.4340057373047 109.50599670410156
v 158.06100463867188 212.37899780273438 136.60299682617188
v 142.10400390625 215.36300659179688 113.04399871826172
v 144.97799682617188 229.92799377441406 132.22900390625
v 146.79600524902344 228.13600158691406 131.98899841308594
v 146.66799926757812 224.66900634765625 133.64700317382812
v 158.10499572753906 204.60000610351562 119.2979965209961
v 158.39999389648438 205.1999969482422 124
v 151.0659942626953 204.36700439453125 109.0719985961914
v 147.46200561523438 226.3520050048828 129.22900390625
v 159.30099487304688 207.0030059814453 101.41500091552734
v 143.34800720214844 220.4239959716797 118.2030029296875
v 149.5 218.34100341796875 133.968994140625
v 144.5229949951172 224.88800048828125 121.18299865722656
v 155.53900146484375 198.2100067138672 101.62999725341797
v 163.13699340820312 206.71499633789062 122.3290023803711
v 163.96600341796875 208.83599853515625 101.81999969482422
v 149.04600524902344 226.41799926757812 138.98300170898438
v 155.33200073242188 205.6179962158203 122.40299987792969
v 152.98699951171875 197.43800354003906 102.4000015258789
v 151.02699279785156 198.0019989013672 103.49500274658203
v 145.48199462890625 215.94900512695312 115.34500122070312
v 152.75 223.4949951171875 138.6490020751953
v 147.40199279785156 230.10000610351562 136.90199279785156
v 157.6529998779297 199.947998046875 102.98400115966797
v 145.4669952392578 225.4600067138672 125.61699676513672
v 158.32000732421875 211.8699951171875 135.23300170898438
v 143.26100158691406 214.6790008544922 112.48899841308594
v 146.8679962158203 225.875 122.45800018310547
v 147.2010040283203 225.1439971923828 121.64600372314453
v 145.4709930419922 224.68499755859375 118.55500030517578
v 150.09800720214844 222.6739959716797 133.35400390625
v 142.5989990234375 215.6439971923828 112.25900268554688
v 156.29299926757812 211.32200622558594 116.58899688720703
v 150.58399963378906 198.78500366210938 106.21199798583984
v 147.21600341796875 223.552001953125 133.76499938964844
v 138.33799743652344 222.57899475097656 112.3759994506836
v 152.85699462890625 210.56900024414062 132.9429931640625
v 153.1479949951172 202.8509979248047 105.73200225830078
v 162.49400329589844 209.45399475097656 105.8219985961914
v 146.718994140625 202.31199645996094 108.69000244140625

g grp1
usemtl mtl1
f 954 2 1 
f 992 1 2 
f 5 4 3 
f 57 3 4 
f 14 5 3 
f 265 7 6 
f 819 6 7 
f 892 9 8 
f 89 8 9 
f 16 4 5 
f 793 11 10 
f 473 10 11 
f 379 13 12 
f 648 12 13 
f 15 5 14 
f 21 15 14 
f 17 16 5 
f 17 5 15 
f 19 18 16 
f 4 16 18 
f 20 19 16 
f 20 16 17 
f 25 19 20 
f 22 15 21 
f 23 15 22 
f 27 23 22 
f 23 17 15 
f 24 20 17 
f 24 17 23 
f 26 25 20 
f 26 20 24 
f 28 23 27 
f 24 23 28 
f 26 24 28 
f 115 30 29 
f 984 29 30 
f 765 32 31 
f 244 31 32 
f 197 34 33 
f 62 33 34 
f 78 36 35 
f 40 35 36 
f 151 38 37 
f 133 37 38 
f 402 40 39 
f 863 39 40 
f 356 42 41 
f 982 41 42 
f 720 44 43 
f 127 43 44 
f 593 46 45 
f 437 45 46 
f 868 48 47 
f 110 47 48 
f 134 50 49 
f 692 49 50 
f 605 52 51 
f 9 51 52 
f 499 54 53 
f 876 53 54 
f 684 56 55 
f 562 55 56 
f 58 3 57 
f 59 58 57 
f 62 58 59 
f 693 61 60 
f 565 60 61 
f 33 62 59 
f 292 64 63 
f 192 63 64 
f 4 59 57 
f 65 59 4 
f 33 59 65 
f 244 66 31 
f 694 31 66 
f 426 68 67 
f 680 67 68 
f 504 70 69 
f 274 69 70 
f 71 33 65 
f 225 33 71 
f 147 73 72 
f 969 72 73 
f 75 58 74 
f 62 74 58 
f 237 75 74 
f 75 14 3 
f 75 3 58 
f 925 77 76 
f 541 76 77 
f 296 78 35 
f 65 4 18 
f 286 80 79 
f 528 79 80 
f 71 65 18 
f 571 82 81 
f 196 81 82 
f 501 84 83 
f 595 83 84 
f 637 86 85 
f 809 85 86 
f 450 88 87 
f 291 87 88 
f 9 90 89 
f 650 89 90 
f 803 92 91 
f 561 91 92 
f 938 94 93 
f 42 93 94 
f 459 96 95 
f 462 95 96 
f 543 98 97 
f 934 97 98 
f 21 14 99 
f 75 99 14 
f 19 71 18 
f 19 25 100 
f 104 100 25 
f 103 19 100 
f 103 71 19 
f 744 102 101 
f 187 101 102 
f 107 100 104 
f 105 22 21 
f 106 105 21 
f 106 21 99 
f 105 27 22 
f 26 104 25 
f 108 104 26 
f 109 107 104 
f 109 104 108 
f 114 105 106 
f 960 111 110 
f 163 110 111 
f 449 113 112 
f 144 112 113 
f 28 105 114 
f 27 105 28 
f 117 26 28 
f 323 116 115 
f 627 115 116 
f 114 117 28 
f 115 118 30 
f 802 30 118 
f 441 120 119 
f 881 119 120 
f 521 122 121 
f 873 121 122 
f 108 26 117 
f 125 108 117 
f 138 109 108 
f 927 124 123 
f 975 123 124 
f 138 108 125 
f 43 127 126 
f 681 126 127 
f 274 128 69 
f 945 69 128 
f 793 130 129 
f 500 129 130 
f 272 132 131 
f 288 131 132 
f 114 133 38 
f 38 117 114 
f 437 135 134 
f 864 134 135 
f 125 117 38 
f 340 137 136 
f 333 136 137 
f 143 138 125 
f 640 136 139 
f 479 139 136 
f 609 140 93 
f 938 93 140 
f 840 142 141 
f 634 141 142 
f 155 138 143 
f 397 112 144 
f 424 146 145 
f 946 145 146 
f 72 148 147 
f 741 147 148 
f 151 125 38 
f 655 150 149 
f 804 149 150 
f 511 153 152 
f 457 152 153 
f 154 125 151 
f 143 125 154 
f 156 155 143 
f 157 156 143 
f 157 143 154 
f 806 159 158 
f 510 158 159 
f 988 161 160 
f 570 160 161 
f 234 163 162 
f 662 162 163 
f 37 165 164 
f 172 164 165 
f 164 151 37 
f 166 154 151 
f 166 151 164 
f 798 168 167 
f 713 167 168 
f 157 154 166 
f 988 169 161 
f 303 161 169 
f 156 87 155 
f 291 155 87 
f 963 170 169 
f 649 169 170 
f 793 129 171 
f 537 171 129 
f 179 164 172 
f 961 174 173 
f 564 173 174 
f 790 176 175 
f 410 175 176 
f 179 166 164 
f 733 178 177 
f 566 177 178 
f 180 157 166 
f 180 166 179 
f 200 182 181 
f 877 181 182 
f 183 157 180 
f 317 157 183 
f 817 185 184 
f 121 184 185 
f 787 187 186 
f 102 186 187 
f 188 180 179 
f 189 180 188 
f 183 180 189 
f 400 191 190 
f 941 190 191 
f 977 63 192 
f 966 194 193 
f 36 193 194 
f 788 196 195 
f 294 195 196 
f 202 34 197 
f 656 199 198 
f 813 198 199 
f 889 201 200 
f 881 200 201 
f 370 34 202 
f 527 204 203 
f 450 203 204 
f 62 34 205 
f 370 205 34 
f 452 207 206 
f 684 206 207 
f 924 209 208 
f 786 208 209 
f 894 211 210 
f 590 210 211 
f 391 213 212 
f 202 212 213 
f 347 215 214 
f 372 214 215 
f 389 217 216 
f 498 216 217 
f 656 198 218 
f 615 218 198 
f 429 220 219 
f 950 219 220 
f 416 222 221 
f 260 221 222 
f 940 224 223 
f 78 223 224 
f 225 212 197 
f 202 197 212 
f 33 225 197 
f 390 212 225 
f 226 74 62 
f 205 226 62 
f 414 228 227 
f 751 227 228 
f 869 230 229 
f 542 229 230 
f 535 69 231 
f 945 231 69 
f 347 232 215 
f 724 215 232 
f 615 233 86 
f 539 86 233 
f 163 234 47 
f 737 47 234 
f 682 236 235 
f 443 235 236 
f 226 237 74 
f 321 239 238 
f 780 238 239 
f 398 237 226 
f 790 240 176 
f 590 176 240 
f 481 242 241 
f 449 241 242 
f 243 225 103 
f 71 103 225 
f 390 225 243 
f 985 245 244 
f 308 244 245 
f 783 247 246 
f 355 246 247 
f 419 249 248 
f 576 248 249 
f 846 250 94 
f 825 94 250 
f 568 252 251 
f 415 251 252 
f 237 99 75 
f 261 99 237 
f 100 107 103 
f 243 103 107 
f 443 253 235 
f 456 235 253 
f 842 255 254 
f 647 254 255 
f 291 257 256 
f 263 256 257 
f 682 235 258 
f 456 258 235 
f 221 260 259 
f 441 259 260 
f 261 106 99 
f 267 106 261 
f 790 175 262 
f 745 262 175 
f 107 109 263 
f 256 263 109 
f 243 107 263 
f 818 265 264 
f 812 264 265 
f 266 114 106 
f 268 266 106 
f 268 106 267 
f 48 269 110 
f 960 110 269 
f 587 271 270 
f 411 270 271 
f 732 132 272 
f 256 109 138 
f 594 141 273 
f 487 273 141 
f 326 276 275 
f 810 275 276 
f 324 278 277 
f 800 277 278 
f 480 280 279 
f 515 279 280 
f 283 266 268 
f 332 282 281 
f 369 281 282 
f 133 266 283 
f 114 266 133 
f 741 285 284 
f 697 284 285 
f 460 80 286 
f 283 37 133 
f 159 288 287 
f 132 287 288 
f 633 290 289 
f 681 289 290 
f 138 155 291 
f 685 292 63 
f 256 138 291 
f 195 294 293 
f 929 293 294 
f 78 296 295 
f 380 295 296 
f 306 298 297 
f 283 297 298 
f 442 85 299 
f 809 299 85 
f 298 37 283 
f 738 43 126 
f 919 300 289 
f 633 289 300 
f 882 148 72 
f 959 302 301 
f 385 301 302 
f 312 161 303 
f 501 305 304 
f 223 304 305 
f 318 87 156 
f 307 298 306 
f 165 307 172 
f 320 172 307 
f 298 307 165 
f 37 298 165 
f 678 309 308 
f 66 308 309 
f 922 311 310 
f 560 310 311 
f 303 313 312 
f 379 312 313 
f 486 315 314 
f 450 314 315 
f 318 317 316 
f 319 316 317 
f 156 317 318 
f 157 317 156 
f 331 316 319 
f 137 172 320 
f 333 137 320 
f 341 179 172 
f 908 239 321 
f 918 203 315 
f 450 315 203 
f 861 323 322 
f 731 322 323 
f 341 172 137 
f 396 325 324 
f 278 324 325 
f 183 319 317 
f 329 319 183 
f 499 53 326 
f 276 326 53 
f 747 328 327 
f 949 327 328 
f 330 319 329 
f 331 319 330 
f 353 331 330 
f 983 131 332 
f 282 332 131 
f 881 335 334 
f 747 334 335 
f 509 337 336 
f 777 336 337 
f 555 339 338 
f 603 338 339 
f 341 340 188 
f 348 188 340 
f 137 340 341 
f 179 341 188 
f 955 342 245 
f 939 245 342 
f 251 344 343 
f 363 343 344 
f 348 189 188 
f 738 346 345 
f 661 345 346 
f 399 232 347 
f 329 183 189 
f 348 329 189 
f 350 329 348 
f 440 149 349 
f 804 349 149 
f 330 329 350 
f 892 352 351 
f 791 351 352 
f 492 353 330 
f 534 354 351 
f 51 351 354 
f 609 356 355 
f 41 355 356 
f 611 139 357 
f 479 357 139 
f 761 359 358 
f 660 358 359 
f 131 288 282 
f 369 282 288 
f 537 361 360 
f 700 360 361 
f 983 332 362 
f 853 362 332 
f 554 343 363 
f 943 365 364 
f 229 364 365 
f 224 36 78 
f 492 330 350 
f 796 367 366 
f 458 366 367 
f 959 301 368 
f 418 368 301 
f 806 369 288 
f 373 205 370 
f 763 372 371 
f 559 371 372 
f 374 373 370 
f 376 374 370 
f 886 375 201 
f 119 201 375 
f 378 376 370 
f 480 377 280 
f 515 280 377 
f 202 213 378 
f 392 378 213 
f 378 370 202 
f 313 13 379 
f 533 295 380 
f 462 382 381 
f 493 381 382 
f 383 226 205 
f 383 205 373 
f 374 383 373 
f 418 384 339 
f 742 339 384 
f 942 385 302 
f 998 387 386 
f 377 386 387 
f 753 389 388 
f 11 388 389 
f 391 212 390 
f 391 392 213 
f 382 394 393 
f 657 393 394 
f 395 226 383 
f 398 226 395 
f 791 396 324 
f 934 227 397 
f 529 397 227 
f 261 237 398 
f 670 232 399 
f 931 115 29 
f 871 191 400 
f 927 402 401 
f 822 401 402 
f 589 404 403 
f 895 403 404 
f 685 63 405 
f 977 405 63 
f 568 406 2 
f 992 2 406 
f 811 408 407 
f 617 407 408 
f 436 134 409 
f 49 409 134 
f 993 410 176 
f 646 411 271 
f 675 413 412 
f 699 412 413 
f 934 98 414 
f 593 414 98 
f 251 415 344 
f 868 344 415 
f 581 222 416 
f 96 417 394 
f 748 394 417 
f 569 379 12 
f 301 384 418 
f 420 261 398 
f 263 419 243 
f 248 243 419 
f 423 419 263 
f 420 267 261 
f 884 422 421 
f 579 421 422 
f 257 423 263 
f 483 424 145 
f 673 426 425 
f 67 425 426 
f 380 428 427 
f 794 427 428 
f 644 220 429 
f 844 431 430 
f 547 430 431 
f 571 81 432 
f 826 432 81 
f 445 434 433 
f 827 433 434 
f 88 257 291 
f 297 268 435 
f 267 435 268 
f 283 268 297 
f 142 437 436 
f 134 436 437 
f 681 439 438 
f 353 438 439 
f 707 149 440 
f 224 193 36 
f 259 441 119 
f 617 442 236 
f 299 236 442 
f 299 443 236 
f 396 352 444 
f 900 444 352 
f 683 446 445 
f 434 445 446 
f 580 448 447 
f 193 447 448 
f 241 449 112 
f 87 318 450 
f 314 450 318 
f 569 452 451 
f 469 451 452 
f 454 306 453 
f 297 453 306 
f 307 306 454 
f 320 307 454 
f 466 320 454 
f 822 455 401 
f 990 401 455 
f 314 318 316 
f 253 457 456 
f 386 456 457 
f 458 316 331 
f 314 316 458 
f 417 96 459 
f 588 461 460 
f 32 460 461 
f 381 463 462 
f 95 462 463 
f 862 465 464 
f 113 464 465 
f 466 333 320 
f 479 333 466 
f 449 242 467 
f 1001 467 242 
f 223 305 468 
f 83 468 305 
f 922 469 311 
f 562 311 469 
f 458 331 353 
f 930 471 470 
f 539 470 471 
f 803 473 472 
f 855 472 473 
f 563 475 474 
f 543 474 475 
f 754 476 140 
f 830 140 476 
f 769 478 477 
f 430 477 478 
f 136 333 479 
f 242 481 208 
f 924 208 481 
f 416 221 482 
f 517 482 221 
f 708 424 483 
f 919 289 127 
f 681 127 289 
f 935 485 484 
f 191 484 485 
f 367 486 458 
f 314 458 486 
f 501 83 305 
f 633 273 487 
f 439 366 353 
f 458 353 366 
f 492 438 353 
f 881 120 335 
f 845 335 120 
f 301 385 384 
f 742 384 385 
f 521 121 488 
f 185 488 121 
f 490 489 348 
f 350 348 489 
f 340 490 348 
f 286 79 491 
f 952 491 79 
f 350 489 492 
f 495 492 489 
f 683 493 446 
f 750 446 493 
f 503 238 494 
f 839 494 238 
f 438 492 495 
f 857 497 496 
f 876 496 497 
f 682 258 480 
f 377 480 258 
f 829 216 498 
f 361 500 499 
f 54 499 500 
f 766 502 501 
f 84 501 502 
f 558 361 499 
f 321 238 503 
f 759 505 504 
f 70 504 505 
f 206 469 452 
f 442 506 85 
f 637 85 506 
f 618 95 463 
f 431 508 507 
f 720 507 508 
f 158 510 509 
f 337 509 510 
f 705 511 152 
f 467 513 512 
f 566 512 513 
f 279 515 514 
f 614 514 515 
f 47 110 163 
f 389 516 11 
f 473 11 516 
f 375 517 259 
f 221 259 517 
f 380 427 518 
f 644 518 427 
f 389 216 516 
f 855 516 216 
f 846 520 519 
f 619 519 520 
f 687 522 521 
f 122 521 522 
f 916 345 523 
f 611 523 345 
f 827 434 432 
f 571 432 434 
f 526 525 524 
f 412 524 525 
f 619 526 524 
f 423 204 527 
f 703 79 528 
f 692 527 49 
f 203 49 527 
f 729 214 372 
f 397 529 241 
f 481 241 529 
f 989 281 530 
f 369 530 281 
f 502 532 531 
f 967 531 532 
f 766 533 532 
f 518 532 533 
f 791 534 351 
f 834 536 535 
f 573 535 536 
f 360 538 537 
f 717 537 538 
f 392 376 378 
f 554 539 233 
f 90 9 52 
f 605 540 52 
f 880 52 540 
f 77 542 541 
f 997 541 542 
f 890 474 543 
f 608 545 544 
f 712 544 545 
f 602 251 343 
f 778 547 546 
f 972 546 547 
f 681 438 346 
f 495 346 438 
f 665 549 548 
f 666 548 549 
f 525 526 374 
f 383 374 526 
f 824 551 550 
f 608 550 551 
f 781 552 359 
f 976 359 552 
f 343 554 553 
f 233 553 554 
f 338 556 555 
f 815 555 556 
f 565 392 391 
f 734 557 101 
f 860 101 557 
f 700 361 558 
f 724 560 559 
f 776 559 560 
f 496 561 92 
f 383 526 395 
f 728 395 526 
f 560 311 562 
f 380 296 428 
f 987 428 296 
f 550 564 563 
f 696 563 564 
f 567 565 391 
f 178 512 566 
f 390 567 391 
f 567 390 248 
f 243 248 390 
f 576 567 248 
f 602 406 568 
f 451 570 569 
f 379 569 570 
f 666 82 571 
f 800 278 572 
f 947 572 278 
f 441 573 120 
f 845 120 573 
f 974 575 574 
f 672 574 575 
f 896 577 271 
f 777 271 577 
f 692 578 249 
f 576 249 578 
f 859 579 422 
f 956 448 580 
f 123 582 581 
f 222 581 582 
f 913 584 583 
f 783 583 584 
f 698 586 585 
f 250 585 586 
f 717 587 270 
f 620 589 588 
f 485 588 589 
f 677 590 240 
f 915 592 591 
f 808 591 592 
f 543 593 98 
f 840 141 594 
f 953 83 595 
f 249 419 423 
f 514 596 279 
f 480 279 596 
f 779 598 597 
f 607 597 598 
f 968 600 599 
f 980 599 600 
f 269 371 601 
f 776 601 371 
f 568 251 602 
f 627 118 115 
f 727 250 586 
f 742 177 603 
f 962 603 177 
f 453 297 604 
f 435 604 297 
f 354 433 605 
f 827 605 433 
f 909 606 509 
f 158 509 606 
f 681 290 439 
f 366 439 290 
f 607 435 267 
f 420 607 267 
f 598 435 607 
f 88 204 257 
f 423 257 204 
f 545 608 551 
f 604 435 598 
f 672 76 541 
f 795 609 355 
f 783 246 610 
f 41 610 246 
f 881 201 119 
f 357 612 611 
f 546 611 612 
f 204 88 450 
f 773 614 613 
f 643 613 614 
f 813 616 615 
f 233 615 616 
f 506 442 617 
f 798 618 168 
f 735 168 618 
f 728 526 619 
f 952 589 620 
f 454 453 621 
f 604 621 453 
f 466 454 621 
f 357 466 621 
f 173 608 622 
f 544 622 608 
f 758 624 623 
f 728 623 624 
f 646 255 625 
f 701 625 255 
f 118 627 626 
f 891 626 627 
f 82 628 196 
f 877 196 628 
f 1000 630 629 
f 584 629 630 
f 357 479 466 
f 35 40 402 
f 943 364 77 
f 542 77 364 
f 912 632 631 
f 277 631 632 
f 273 633 300 
f 436 634 142 
f 687 636 635 
f 253 635 636 
f 667 46 593 
f 615 86 637 
f 499 326 558 
f 911 558 326 
f 452 638 207 
f 654 207 638 
f 837 639 482 
f 794 482 639 
f 640 490 136 
f 340 136 490 
f 814 642 641 
f 662 641 642 
f 998 643 614 
f 259 119 375 
f 639 220 644 
f 549 645 628 
f 181 628 645 
f 796 366 290 
f 777 647 646 
f 255 646 647 
f 13 557 648 
f 838 648 557 
f 170 650 649 
f 102 649 650 
f 760 260 222 
f 858 652 651 
f 820 651 652 
f 292 654 653 
f 264 653 654 
f 199 656 655 
f 784 655 656 
f 878 658 657 
f 393 657 658 
f 490 640 489 
f 661 489 640 
f 531 659 502 
f 84 502 659 
f 986 358 660 
f 495 489 661 
f 162 662 642 
f 610 41 663 
f 982 663 41 
f 658 665 664 
f 548 664 665 
f 953 468 83 
f 850 548 666 
f 697 668 667 
f 46 667 668 
f 962 669 338 
f 719 338 669 
f 910 671 670 
f 740 670 671 
f 934 397 144 
f 706 672 575 
f 773 596 514 
f 887 673 599 
f 968 599 673 
f 679 135 46 
f 437 46 135 
f 284 564 174 
f 661 346 495 
f 721 675 674 
f 412 674 675 
f 658 676 665 
f 645 665 676 
f 854 677 240 
f 697 667 475 
f 543 475 667 
f 939 678 308 
f 254 337 510 
f 67 680 679 
f 135 679 680 
f 381 493 683 
f 841 437 142 
f 190 403 229 
f 869 229 403 
f 292 685 684 
f 56 684 685 
f 949 686 538 
f 587 538 686 
f 521 636 687 
f 743 12 688 
f 648 688 12 
f 554 470 539 
f 588 460 620 
f 491 620 460 
f 773 689 596 
f 736 596 689 
f 582 691 690 
f 973 690 691 
f 986 693 692 
f 578 692 693 
f 930 522 687 
f 956 694 448 
f 966 448 694 
f 547 431 507 
f 483 145 695 
f 772 695 145 
f 284 697 696 
f 475 696 697 
f 519 699 698 
f 768 698 699 
f 524 699 519 
f 887 360 700 
f 722 701 255 
f 868 702 48 
f 269 48 702 
f 755 703 595 
f 953 595 703 
f 524 412 699 
f 768 699 413 
f 773 514 614 
f 349 705 704 
f 817 704 705 
f 676 706 575 
f 691 707 440 
f 525 674 412 
f 292 207 654 
f 293 709 708 
f 424 708 709 
f 602 553 406 
f 616 406 553 
f 711 302 710 
f 995 710 302 
f 637 506 218 
f 874 218 506 
f 382 96 394 
f 619 524 519 
f 544 712 711 
f 942 711 712 
f 753 270 411 
f 835 167 713 
f 979 400 714 
f 365 714 400 
f 905 716 715 
f 951 715 716 
f 587 717 538 
f 814 719 718 
f 669 718 719 
f 721 674 376 
f 374 376 674 
f 916 507 720 
f 398 395 624 
f 728 624 395 
f 692 249 527 
f 423 527 249 
f 565 721 392 
f 376 392 721 
f 725 701 722 
f 207 292 684 
f 32 723 80 
f 528 80 723 
f 215 724 559 
f 957 726 725 
f 839 725 726 
f 902 727 586 
f 833 728 619 
f 893 730 729 
f 214 729 730 
f 931 677 731 
f 854 731 677 
f 833 619 520 
f 957 732 726 
f 775 726 732 
f 931 29 210 
f 984 210 29 
f 742 733 177 
f 838 557 734 
f 463 631 735 
f 277 735 631 
f 480 596 736 
f 624 420 398 
f 868 47 737 
f 346 738 126 
f 960 368 739 
f 418 739 368 
f 724 670 740 
f 977 741 284 
f 746 576 578 
f 939 731 678 
f 854 678 731 
f 339 742 603 
f 914 743 688 
f 564 284 696 
f 303 744 313 
f 860 313 744 
f 410 745 175 
f 746 565 567 
f 60 565 746 
f 746 567 576 
f 709 747 146 
f 327 146 747 
f 579 748 417 
f 833 749 623 
f 757 623 749 
f 393 664 750 
f 548 750 664 
f 529 227 751 
f 861 752 323 
f 116 323 752 
f 388 270 753 
f 951 476 754 
f 957 722 287 
f 842 287 722 
f 404 755 595 
f 989 530 756 
f 606 756 530 
f 758 623 757 
f 942 512 178 
f 420 624 758 
f 770 420 758 
f 593 543 667 
f 260 760 759 
f 505 759 760 
f 810 762 761 
f 359 761 762 
f 852 372 763 
f 343 553 602 
f 723 765 764 
f 956 764 765 
f 501 304 766 
f 533 766 304 
f 264 654 767 
f 638 767 654 
f 843 768 413 
f 718 669 769 
f 478 769 669 
f 597 607 770 
f 420 770 607 
f 819 772 771 
f 980 771 772 
f 945 756 231 
f 606 231 756 
f 41 246 355 
f 973 774 505 
f 70 505 774 
f 960 739 111 
f 815 111 739 
f 837 482 517 
f 814 718 775 
f 769 775 718 
f 642 732 272 
f 995 776 560 
f 336 777 577 
f 546 779 778 
f 716 778 779 
f 975 582 123 
f 10 91 130 
f 561 130 91 
f 472 780 239 
f 928 782 781 
f 981 781 782 
f 874 617 408 
f 993 176 590 
f 518 533 380 
f 247 783 584 
f 874 784 656 
f 93 356 609 
f 937 785 730 
f 347 730 785 
f 978 44 786 
f 508 786 44 
f 81 788 787 
f 195 787 788 
f 621 604 789 
f 598 789 604 
f 357 621 789 
f 612 357 789 
f 897 315 486 
f 912 534 791 
f 690 760 222 
f 997 792 429 
f 644 429 792 
f 194 262 745 
f 89 650 170 
f 666 628 82 
f 724 232 670 
f 416 794 428 
f 820 745 410 
f 812 147 192 
f 741 192 147 
f 715 795 630 
f 247 630 795 
f 848 430 547 
f 897 486 367 
f 591 562 56 
f 797 367 796 
f 897 367 797 
f 554 363 470 
f 875 470 363 
f 894 799 798 
f 95 798 799 
f 796 290 633 
f 488 185 152 
f 705 152 185 
f 735 277 800 
f 781 359 762 
f 712 801 512 
f 467 512 801 
f 640 139 611 
f 417 459 802 
f 30 802 459 
f 10 473 803 
f 150 805 804 
f 613 804 805 
f 854 790 309 
f 262 309 790 
f 159 806 288 
f 95 618 798 
f 948 425 807 
f 67 807 425 
f 710 808 592 
f 86 539 809 
f 471 809 539 
f 928 762 810 
f 150 811 805 
f 921 805 811 
f 73 147 812 
f 992 616 813 
f 150 655 784 
f 642 814 732 
f 775 732 814 
f 641 815 556 
f 923 796 633 
f 993 816 410 
f 820 410 816 
f 704 817 774 
f 274 774 817 
f 887 700 673 
f 426 673 700 
f 914 818 767 
f 264 767 818 
f 836 695 819 
f 772 819 695 
f 893 651 820 
f 206 684 55 
f 943 714 365 
f 455 822 821 
f 944 821 822 
f 1 813 823 
f 199 823 813 
f 474 465 824 
f 862 824 465 
f 511 643 153 
f 386 153 643 
f 461 244 32 
f 754 609 795 
f 724 740 310 
f 922 310 740 
f 377 258 456 
f 345 640 611 
f 957 725 722 
f 463 381 631 
f 912 631 381 
f 982 42 825 
f 94 825 42 
f 540 827 826 
f 432 826 827 
f 653 64 292 
f 880 540 826 
f 374 674 525 
f 126 681 346 
f 845 686 328 
f 949 328 686 
f 736 828 682 
f 236 682 828 
f 725 829 498 
f 961 173 622 
f 186 102 650 
f 985 588 485 
f 895 595 84 
f 749 830 476 
f 970 832 831 
f 905 831 832 
f 535 231 834 
f 909 834 231 
f 211 167 835 
f 808 560 562 
f 1002 92 803 
f 563 696 475 
f 904 695 836 
f 855 780 472 
f 511 613 643 
f 708 838 734 
f 829 839 780 
f 238 780 839 
f 371 559 776 
f 55 469 206 
f 768 586 698 
f 519 698 585 
f 228 841 840 
f 142 840 841 
f 755 79 703 
f 923 797 796 
f 159 287 842 
f 902 768 843 
f 784 408 811 
f 789 598 779 
f 535 504 69 
f 968 673 425 
f 513 431 844 
f 996 663 810 
f 928 810 663 
f 904 483 695 
f 846 585 250 
f 735 800 168 
f 713 168 800 
f 335 845 328 
f 846 519 585 
f 118 626 421 
f 884 421 626 
f 426 700 558 
f 892 351 51 
f 847 675 721 
f 61 847 721 
f 146 424 709 
f 477 848 832 
f 905 832 848 
f 641 556 719 
f 338 719 556 
f 915 622 544 
f 113 449 464 
f 801 464 449 
f 636 488 457 
f 152 457 488 
f 561 500 130 
f 743 767 638 
f 893 849 651 
f 851 651 849 
f 1001 208 786 
f 788 81 196 
f 635 253 443 
f 647 337 254 
f 929 747 709 
f 853 332 281 
f 349 704 440 
f 973 440 704 
f 750 850 446 
f 434 446 850 
f 844 566 513 
f 849 852 851 
f 866 851 852 
f 7 836 819 
f 241 112 397 
f 790 854 240 
f 666 549 628 
f 534 683 445 
f 583 857 856 
f 1002 856 857 
f 869 659 531 
f 851 858 651 
f 92 857 496 
f 76 706 859 
f 878 859 706 
f 746 693 60 
f 578 693 746 
f 557 13 860 
f 313 860 13 
f 967 542 230 
f 871 752 861 
f 362 122 522 
f 545 862 464 
f 820 652 863 
f 39 863 652 
f 913 856 321 
f 908 321 856 
f 680 865 864 
f 867 864 865 
f 497 583 783 
f 800 572 713 
f 785 713 572 
f 252 866 415 
f 763 415 866 
f 358 867 865 
f 295 533 304 
f 737 344 868 
f 385 733 742 
f 375 837 517 
f 895 869 403 
f 961 622 870 
f 915 870 622 
f 615 637 218 
f 872 758 757 
f 979 752 871 
f 434 850 571 
f 666 571 850 
f 770 758 872 
f 976 660 359 
f 121 873 184 
f 128 184 873 
f 170 8 89 
f 999 293 708 
f 978 786 209 
f 617 874 506 
f 418 555 739 
f 815 739 555 
f 832 769 477 
f 942 712 512 
f 737 875 363 
f 829 855 216 
f 917 53 876 
f 294 877 182 
f 644 794 639 
f 872 597 770 
f 668 679 46 
f 706 676 878 
f 658 878 676 
f 884 879 422 
f 925 422 879 
f 52 880 90 
f 186 90 880 
f 1001 513 467 
f 960 601 368 
f 959 368 601 
f 309 678 854 
f 328 747 335 
f 840 751 228 
f 464 801 545 
f 712 545 801 
f 956 31 694 
f 617 236 828 
f 349 613 511 
f 969 882 72 
f 310 560 724 
f 444 883 671 
f 988 671 883 
f 393 493 382 
f 921 773 805 
f 613 805 773 
f 626 885 884 
f 879 884 885 
f 889 886 201 
f 599 888 887 
f 949 887 888 
f 605 51 354 
f 628 181 877 
f 973 704 774 
f 45 437 841 
f 750 548 850 
f 833 623 728 
f 583 497 857 
f 393 658 664 
f 68 426 558 
f 612 789 779 
f 546 612 779 
f 181 889 200 
f 474 890 465 
f 113 465 890 
f 979 871 400 
f 979 891 116 
f 627 116 891 
f 9 892 51 
f 870 591 56 
f 68 865 680 
f 531 230 869 
f 798 167 894 
f 211 894 167 
f 659 869 895 
f 536 577 896 
f 984 30 459 
f 295 304 223 
f 901 897 797 
f 97 890 543 
f 775 899 898 
f 494 898 899 
f 8 900 892 
f 352 892 900 
f 903 901 797 
f 768 902 586 
f 923 903 797 
f 711 710 592 
f 838 904 648 
f 688 648 904 
f 952 620 491 
f 967 230 531 
f 665 645 549 
f 985 244 461 
f 771 6 819 
f 653 264 812 
f 706 76 672 
f 778 905 848 
f 209 594 906 
f 273 906 594 
f 921 689 773 
f 983 362 907 
f 522 907 362 
f 899 775 769 
f 472 239 908 
f 336 834 909 
f 337 647 777 
f 444 910 325 
f 947 325 910 
f 68 558 911 
f 683 912 381 
f 983 162 131 
f 272 131 162 
f 50 134 864 
f 973 505 760 
f 856 913 583 
f 7 818 914 
f 386 457 153 
f 591 870 915 
f 671 160 740 
f 922 740 160 
f 738 345 916 
f 53 917 276 
f 996 276 917 
f 960 269 601 
f 901 918 897 
f 315 897 918 
f 528 723 764 
f 849 729 852 
f 372 852 729 
f 444 671 910 
f 924 751 594 
f 840 594 751 
f 566 844 920 
f 478 920 844 
f 971 36 194 
f 694 309 262 
f 496 876 54 
f 952 404 589 
f 570 451 922 
f 469 922 451 
f 649 744 303 
f 920 177 566 
f 550 608 173 
f 914 767 743 
f 529 751 924 
f 363 344 737 
f 859 925 76 
f 551 862 545 
f 402 927 926 
f 987 926 927 
f 781 762 928 
f 825 250 727 
f 293 929 709 
f 875 907 930 
f 522 930 907 
f 339 555 418 
f 688 904 836 
f 974 676 575 
f 848 547 778 
f 414 841 228 
f 441 260 759 
f 677 931 210 
f 932 902 843 
f 933 932 843 
f 985 461 588 
f 933 843 675 
f 413 675 843 
f 97 934 144 
f 823 199 707 
f 655 707 199 
f 265 818 7 
f 182 334 929 
f 747 929 334 
f 985 935 245 
f 955 245 935 
f 39 858 822 
f 944 822 858 
f 441 504 573 
f 535 573 504 
f 509 336 909 
f 976 933 847 
f 675 847 933 
f 976 847 61 
f 898 839 726 
f 10 130 793 
f 536 936 573 
f 845 573 936 
f 993 937 816 
f 730 816 937 
f 32 80 460 
f 184 274 817 
f 799 459 95 
f 938 846 94 
f 342 322 939 
f 731 939 322 
f 922 160 570 
f 924 481 529 
f 447 224 940 
f 589 941 485 
f 191 485 941 
f 824 862 551 
f 385 942 733 
f 178 733 942 
f 809 635 443 
f 347 214 730 
f 714 943 885 
f 879 885 943 
f 536 834 577 
f 336 577 834 
f 938 140 830 
f 821 944 866 
f 851 866 944 
f 44 919 127 
f 772 145 946 
f 977 284 174 
f 660 61 693 
f 325 947 278 
f 285 148 948 
f 882 948 148 
f 973 760 690 
f 816 730 893 
f 462 96 382 
f 415 702 868 
f 837 950 220 
f 757 749 951 
f 476 951 749 
f 530 806 158 
f 965 468 953 
f 990 954 124 
f 1 124 954 
f 484 342 955 
f 802 118 421 
f 668 807 679 
f 67 679 807 
f 682 480 736 
f 217 389 753 
f 523 611 546 
f 837 220 639 
f 956 580 764 
f 965 764 580 
f 90 186 650 
f 372 215 559 
f 765 31 956 
f 146 327 946 
f 888 946 327 
f 990 927 401 
f 975 1 823 
f 995 560 808 
f 831 629 958 
f 584 958 629 
f 169 649 303 
f 483 904 838 
f 285 807 668 
f 717 270 171 
f 388 171 270 
f 254 159 842 
f 965 940 468 
f 223 468 940 
f 562 591 808 
f 484 191 871 
f 951 716 872 
f 597 872 716 
f 601 776 959 
f 995 959 776 
f 541 429 219 
f 414 45 841 
f 729 849 893 
f 271 777 646 
f 890 144 113 
f 326 275 911 
f 761 911 275 
f 497 783 917 
f 610 917 783 
f 755 952 79 
f 244 308 66 
f 741 148 285 
f 726 775 898 
f 656 218 874 
f 516 855 473 
f 738 720 43 
f 407 828 736 
f 887 538 360 
f 597 716 779 
f 920 478 962 
f 669 962 478 
f 748 657 394 
f 349 511 705 
f 918 409 49 
f 851 944 858 
f 988 963 169 
f 989 756 964 
f 945 964 756 
f 985 485 935 
f 433 534 445 
f 122 362 853 
f 97 144 890 
f 528 764 965 
f 409 918 901 
f 361 537 129 
f 193 448 966 
f 977 174 961 
f 436 409 903 
f 901 903 409 
f 939 308 245 
f 229 542 364 
f 606 909 231 
f 634 436 903 
f 634 903 923 
f 6 969 73 
f 911 865 68 
f 899 832 970 
f 867 50 864 
f 40 36 971 
f 914 688 836 
f 964 128 873 
f 477 430 848 
f 547 507 972 
f 916 972 507 
f 967 532 792 
f 518 792 532 
f 190 365 400 
f 748 878 657 
f 407 921 811 
f 194 745 971 
f 863 971 745 
f 872 757 951 
f 769 832 899 
f 523 972 916 
f 546 972 523 
f 440 973 691 
f 958 970 831 
f 185 817 705 
f 906 273 300 
f 978 209 906 
f 84 659 895 
f 44 720 508 
f 916 720 738 
f 262 194 966 
f 889 974 574 
f 911 358 865 
f 929 294 182 
f 483 838 708 
f 991 2 954 
f 941 403 190 
f 986 867 358 
f 294 196 877 
f 102 744 649 
f 1 975 124 
f 552 933 976 
f 988 160 671 
f 192 741 977 
f 863 40 971 
f 978 919 44 
f 595 895 404 
f 970 958 503 
f 913 503 958 
f 816 893 820 
f 906 919 978 
f 836 7 914 
f 891 979 714 
f 502 766 532 
f 946 888 980 
f 599 980 888 
f 632 791 324 
f 252 821 866 
f 784 874 408 
f 111 815 662 
f 641 662 815 
f 981 727 902 
f 782 727 981 
f 64 653 812 
f 932 981 902 
f 552 981 932 
f 552 932 933 
f 299 809 443 
f 946 980 772 
f 887 949 538 
f 471 687 635 
f 883 444 900 
f 587 896 271 
f 504 441 759 
f 600 882 969 
f 725 498 701 
f 625 701 498 
f 632 912 791 
f 93 42 356 
f 719 814 641 
f 994 964 873 
f 234 907 875 
f 754 140 609 
f 491 460 286 
f 912 683 534 
f 920 962 177 
f 826 787 880 
f 186 880 787 
f 1001 508 513 
f 431 513 508 
f 54 561 496 
f 886 889 574 
f 735 618 463 
f 285 948 807 
f 349 804 613 
f 447 940 580 
f 965 580 940 
f 459 799 984 
f 894 984 799 
f 593 45 414 
f 936 536 896 
f 839 898 494 
f 295 223 78 
f 1002 472 908 
f 660 976 61 
f 484 871 861 
f 998 386 643 
f 150 784 811 
f 703 965 953 
f 323 931 731 
f 358 911 761 
f 937 835 713 
f 50 986 692 
f 6 771 969 
f 600 969 771 
f 999 708 734 
f 636 457 253 
f 694 262 966 
f 715 754 795 
f 581 428 987 
f 984 894 210 
f 935 484 955 
f 899 970 494 
f 503 494 970 
f 689 407 736 
f 411 217 753 
f 754 715 951 
f 128 964 945 
f 937 713 785 
f 371 269 702 
f 853 281 989 
f 927 990 124 
f 785 399 347 
f 407 689 921 
f 487 634 923 
f 990 991 954 
f 520 749 833 
f 938 830 846 
f 520 846 830 
f 952 755 404 
f 975 691 582 
f 991 568 2 
f 478 844 430 
f 158 606 530 
f 885 891 714 
f 1001 242 208 
f 1 992 813 
f 652 858 39 
f 961 405 977 
f 428 581 416 
f 881 334 182 
f 750 493 393 
f 687 471 930 
f 184 128 274 
f 569 638 452 
f 584 630 247 
f 829 780 855 
f 690 222 582 
f 521 488 636 
f 942 302 711 
f 662 163 111 
f 950 886 574 
f 881 182 200 
f 449 467 801 
f 634 487 141 
f 885 626 891 
f 569 743 638 
f 149 707 655 
f 999 734 187 
f 101 187 734 
f 806 530 369 
f 787 826 81 
f 569 12 743 
f 702 763 371 
f 193 224 447 
f 122 994 873 
f 926 296 35 
f 968 425 948 
f 625 411 646 
f 129 500 361 
f 670 947 910 
f 422 925 859 
f 859 878 748 
f 995 808 710 
f 835 993 590 
f 399 572 947 
f 352 396 791 
f 781 981 552 
f 965 703 528 
f 794 644 427 
f 70 774 274 
f 778 716 905 
f 640 345 661 
f 810 761 275 
f 963 8 170 
f 906 300 919 
f 617 828 407 
f 813 615 198 
f 915 544 592 
f 711 592 544 
f 411 625 217 
f 498 217 625 
f 697 285 668 
f 32 765 723 
f 195 187 787 
f 883 963 988 
f 265 6 73 
f 820 863 745 
f 54 500 561 
f 132 957 287 
f 570 161 312 
f 937 993 835 
f 782 982 825 
f 928 982 782 
f 663 982 928 
f 211 835 590 
f 999 195 293 
f 645 974 181 
f 889 181 974 
f 616 992 406 
f 635 809 471 
f 900 963 883 
f 725 839 829 
f 338 603 962 
f 277 632 324 
f 563 824 550 
f 433 354 534 
f 959 995 302 
f 983 907 234 
f 610 996 917 
f 864 135 680 
f 994 122 853 
f 234 162 983 
f 162 642 272 
f 802 579 417 
f 771 980 600 
f 50 867 986 
f 727 782 825 
f 998 614 515 
f 957 132 732 
f 123 987 927 
f 421 579 802 
f 923 633 487 
f 917 876 497 
f 853 989 994 
f 964 994 989 
f 610 663 996 
f 342 484 861 
f 670 399 947 
f 116 752 979 
f 934 414 227 
f 234 875 737 
f 355 247 795 
f 429 541 997 
f 568 821 252 
f 686 845 936 
f 968 948 882 
f 644 792 518 
f 861 322 342 
f 987 123 581 
f 173 564 550 
f 77 879 943 
f 1000 905 715 
f 10 803 91 
f 950 837 886 
f 375 886 837 
f 991 990 455 
f 540 605 827 
f 562 469 55 
f 403 941 589 
f 660 693 986 
f 672 219 950 
f 998 515 387 
f 377 387 515 
f 963 900 8 
f 785 572 399 
f 645 676 974 
f 717 171 537 
f 365 190 229 
f 823 707 691 
f 997 542 967 
f 672 950 574 
f 219 672 541 
f 875 930 470 
f 510 159 254 
f 830 749 520 
f 677 210 590 
f 192 64 812 
f 924 594 209 
f 967 792 997 
f 600 968 882 
f 405 961 870 
f 386 377 456 
f 565 61 721 
f 870 685 405 
f 296 926 987 
f 115 931 323 
f 1001 786 508 
f 388 793 171 
f 233 616 553 
f 879 77 925 
f 101 860 744 
f 936 587 686 
f 991 821 568 
f 309 694 66 
f 859 748 579 
f 842 722 255 
f 794 416 482 
f 812 265 73 
f 999 187 195 
f 630 1000 715 
f 702 415 763 
f 1002 857 92 
f 896 587 936 
f 822 402 39 
f 918 49 203 
f 570 312 379 
f 870 56 685 
f 11 793 388 
f 472 1002 803 
f 913 958 584 
f 455 821 991 
f 823 691 975 
f 866 852 763 
f 325 396 444 
f 908 856 1002 
f 824 563 474 
f 888 327 949 
f 35 402 926 
f 1000 831 905 
f 810 276 996 
f 913 321 503 
f 831 1000 629 
