#  wavefront obj file written by the visualization toolkit

mtllib Stones.mtl

v 76.18589782714844 101.08399963378906 178.10899353027344
v 76.37090301513672 100.87799835205078 178.49600219726562
v 76.48380279541016 101.1709976196289 178.01400756835938
v 76.6852035522461 101.00499725341797 178.5240020751953
v 75.84660339355469 101.53800201416016 178.3260040283203
v 75.9719009399414 101.25599670410156 178.16099548339844
v 76.13500213623047 101.4020004272461 177.93499755859375
v 76.43289947509766 101.5530014038086 177.97300720214844
v 76.83540344238281 101.48899841308594 178.593994140625
v 76.15460205078125 101.81199645996094 178.20899963378906
v 76.53130340576172 101.85900115966797 178.39500427246094
v 75.72669982910156 101.10399627685547 179.24200439453125
v 76.14769744873047 100.88600158691406 179.22000122070312
v 75.92849731445312 101.09600067138672 178.6199951171875
v 76.5458984375 100.85600280761719 179.0570068359375
v 76.83280181884766 101.14399719238281 179.1580047607422
v 75.30049896240234 101.72100067138672 179.30599975585938
v 75.48310089111328 101.36499786376953 179.4320068359375
v 75.5457992553711 101.54199981689453 178.90899658203125
v 77.08039855957031 101.41799926757812 179.1739959716797
v 77.12850189208984 101.55999755859375 179.04200744628906
v 77.16819763183594 101.56199645996094 179.33099365234375
v 75.29920196533203 102.0530014038086 179.44000244140625
v 75.44969940185547 102.10199737548828 179.04299926757812
v 75.83110046386719 102.02799987792969 178.64999389648438
v 76.30349731445312 102.25399780273438 178.8280029296875
v 76.69249725341797 102.0270004272461 179.0500030517578
v 76.99120330810547 101.74500274658203 179.26699829101562
v 75.47119903564453 102.4020004272461 179.3179931640625
v 75.71019744873047 102.63400268554688 179.44700622558594
v 75.8458023071289 102.52999877929688 179.07200622558594
v 76.15950012207031 102.63200378417969 179.2830047607422
v 76.41259765625 102.39399719238281 179.39300537109375
v 75.9375 102.76000213623047 179.375
v 91.81880187988281 89.2313003540039 180.58799743652344
v 92.01640319824219 89.00350189208984 181.0019989013672
v 92.2313003540039 89.32990264892578 180.40699768066406
v 92.43560028076172 89.12480163574219 181.07899475097656
v 91.28510284423828 89.67369842529297 180.6820068359375
v 91.56800079345703 89.40809631347656 180.61700439453125
v 91.70909881591797 89.73690032958984 180.25399780273438
v 92.1677017211914 89.72720336914062 180.13099670410156
v 92.66239929199219 89.41600036621094 180.73500061035156
v 92.55860137939453 89.79149627685547 180.42100524902344
v 92.88600158691406 89.74739837646484 181.06300354003906
v 90.86399841308594 90.25260162353516 181.06300354003906
v 90.95670318603516 89.93190002441406 180.89700317382812
v 91.1969985961914 90.2113037109375 180.4040069580078
v 91.5823974609375 90.27279663085938 180.13099670410156
v 92.04940032958984 90.26899719238281 180.2830047607422
v 92.54049682617188 90.3468017578125 180.8990020751953
v 92.81510162353516 90.05359649658203 180.91200256347656
v 91.08760070800781 90.58399963378906 180.73500061035156
v 91.31439971923828 90.87519836425781 181.07899475097656
v 91.5186996459961 90.67009735107422 180.40699768066406
v 91.92169952392578 90.79170227050781 180.61500549316406
v 92.21769714355469 90.6615982055664 180.83299255371094
v 91.72100067138672 91.01100158691406 181.00599670410156
v 90.04879760742188 93.66190338134766 180.86300659179688
v 90.35469818115234 93.3218002319336 180.98899841308594
v 90.4623031616211 93.6312026977539 180.33999633789062
v 90.8634033203125 93.1709976196289 180.98500061035156
v 91.12159729003906 93.57270050048828 180.2570037841797
v 91.3947982788086 93.31790161132812 180.69200134277344
v 91.66940307617188 93.64679718017578 180.35699462890625
v 91.71549987792969 93.43900299072266 180.91700744628906
v 89.72679901123047 94.06729888916016 180.61599731445312
v 89.78240203857422 93.90809631347656 180.66000366210938
v 89.96700286865234 94.01689910888672 180.36099243164062
v 90.45539855957031 94.17359924316406 180.07899475097656
v 90.96289825439453 94.08350372314453 180.03500366210938
v 91.55269622802734 94.08360290527344 180.08200073242188
v 91.9636001586914 93.83399963378906 180.81900024414062
v 92.03309631347656 94.13089752197266 180.33399963378906
v 92.20369720458984 94.21610260009766 180.7169952392578
v 89.8760986328125 94.2958984375 180.55299377441406
v 90.1061019897461 94.5647964477539 180.68600463867188
v 90.30770111083984 94.581298828125 180.2729949951172
v 90.9126968383789 94.6521987915039 180.06300354003906
v 91.41570281982422 94.56449890136719 180.04800415039062
v 91.89859771728516 94.6874008178711 180.26699829101562
v 92.19550323486328 94.52860260009766 180.56399536132812
v 90.42479705810547 94.89969635009766 180.56399536132812
v 90.70700073242188 95.1498031616211 180.69000244140625
v 90.81320190429688 95.07510375976562 180.30799865722656
v 91.40460205078125 95.0958023071289 180.26699829101562
v 91.75990295410156 95.13790130615234 180.55999755859375
v 92.01290130615234 94.88490295410156 180.69000244140625
v 91.0718994140625 95.32579803466797 180.55999755859375
v 91.40360260009766 95.32050323486328 180.68600463867188
v 75.9343032836914 101.21600341796875 179.71800231933594
v 76.50309753417969 101.0790023803711 179.625
v 75.52130126953125 101.71199798583984 179.73300170898438
v 76.03479766845703 101.6729965209961 179.9320068359375
v 76.42659759521484 101.4739990234375 179.89599609375
v 76.9020004272461 101.48999786376953 179.61199951171875
v 75.54070281982422 102.27899932861328 179.68499755859375
v 75.87640380859375 102.07599639892578 179.89599609375
v 76.48660278320312 102.00399780273438 179.72999572753906
v 76.01170349121094 102.5270004272461 179.656005859375
v 91.3458023071289 89.21489715576172 181.73500061035156
v 91.77269744873047 89.01119995117188 181.72000122070312
v 91.53610229492188 89.21070098876953 181.1020050048828
v 92.18289947509766 88.9740982055664 181.58799743652344
v 92.47219848632812 89.19029998779297 181.78599548339844
v 90.868896484375 89.84940338134766 181.5590057373047
v 91.09850311279297 89.47740173339844 181.89999389648438
v 91.0978012084961 89.53690338134766 181.31700134277344
v 92.75460052490234 89.43669891357422 181.46600341796875
v 92.88690185546875 89.81909942626953 181.78599548339844
v 90.86309814453125 90.18090057373047 181.78599548339844
v 92.78890228271484 90.28970336914062 181.25
v 92.89029693603516 90.1321029663086 181.53399658203125
v 90.99539947509766 90.56330108642578 181.46600341796875
v 91.27780151367188 90.80970001220703 181.78599548339844
v 92.06900024414062 90.93659973144531 181.14100646972656
v 92.33550262451172 90.76820373535156 181.4980010986328
v 92.64330291748047 90.47899627685547 181.7010040283203
v 91.56710052490234 91.0259017944336 181.58799743652344
v 91.95780181884766 91.0009994506836 181.70199584960938
v 90.8030014038086 92.92520141601562 181.67100524902344
v 90.95539855957031 92.83529663085938 181.86300659179688
v 91.03739929199219 92.91649627685547 181.5590057373047
v 91.16190338134766 92.97679901123047 181.9080047607422
v 90.25070190429688 93.42639923095703 181.52099609375
v 90.53459930419922 93.16539764404297 181.64700317382812
v 91.39320373535156 93.18879699707031 181.42999267578125
v 91.68289947509766 93.58219909667969 181.5
v 89.96330261230469 94.12190246582031 180.9720001220703
v 90.23919677734375 93.77760314941406 181.57200622558594
v 90.46150207519531 94.22209930419922 181.47300720214844
v 90.59010314941406 93.9374008178711 181.91200256347656
v 91.20449829101562 94.13520050048828 181.75999450683594
v 91.43000030517578 93.80580139160156 181.88800048828125
v 91.66210174560547 94.1438980102539 181.3520050048828
v 92.06300354003906 94.15160369873047 180.99400329589844
v 90.44580078125 94.70899963378906 181.00999450683594
v 90.84750366210938 94.19259643554688 181.7740020751953
v 91.05899810791016 94.57759857177734 181.35400390625
v 91.5780029296875 94.63849639892578 181.22500610351562
v 91.99690246582031 94.55740356445312 180.9929962158203
v 91.00700378417969 95.14839935302734 180.9530029296875
v 91.57779693603516 95.02410125732422 180.9929962158203
v 91.56719970703125 89.34880065917969 182.21800231933594
v 92.14179992675781 89.20189666748047 182.1439971923828
v 91.14759826660156 89.8467025756836 182.20700073242188
v 91.67440032958984 89.82319641113281 182.45199584960938
v 92.15170288085938 89.693603515625 182.41400146484375
v 92.59629821777344 89.57340240478516 182.14100646972656
v 91.15370178222656 90.42659759521484 182.14100646972656
v 91.59829711914062 90.306396484375 182.41400146484375
v 92.07559967041016 90.17680358886719 182.45199584960938
v 92.60040283203125 90.15070343017578 182.19200134277344
v 91.6082992553711 90.79810333251953 182.1439971923828
v 92.17489624023438 90.64659881591797 182.18499755859375
v 90.87930297851562 93.0822982788086 182.11599731445312
v 90.56580352783203 93.50499725341797 182.08799743652344
v 90.9375 93.4375 182.34100341796875
v 91.29409790039062 93.38279724121094 182.09300231933594
v 90.99310302734375 93.81649780273438 182.13699340820312

g grp1
usemtl mtl1
f 2 1 3 
f 3 4 2 
f 6 5 7 
f 6 7 1 
f 7 3 1 
f 7 8 3 
f 4 3 9 
f 9 3 8 
f 5 10 7 
f 7 10 8 
f 8 10 11 
f 8 11 9 
f 13 12 14 
f 1 2 14 
f 2 13 14 
f 2 15 13 
f 2 4 15 
f 15 4 16 
f 18 17 19 
f 18 19 12 
f 12 19 14 
f 19 5 14 
f 5 6 14 
f 14 6 1 
f 9 21 20 
f 16 9 20 
f 4 9 16 
f 21 22 20 
f 19 17 24 
f 24 17 23 
f 25 10 5 
f 19 25 5 
f 24 25 19 
f 26 11 10 
f 26 10 25 
f 26 27 11 
f 11 27 9 
f 27 28 9 
f 28 21 9 
f 21 28 22 
f 23 29 24 
f 30 31 29 
f 31 24 29 
f 31 25 24 
f 33 26 32 
f 26 31 32 
f 26 25 31 
f 26 33 27 
f 30 34 31 
f 31 34 32 
f 36 35 37 
f 37 38 36 
f 40 39 41 
f 40 41 35 
f 41 37 35 
f 41 42 37 
f 38 37 43 
f 37 44 43 
f 37 42 44 
f 44 45 43 
f 47 46 48 
f 47 48 39 
f 48 41 39 
f 48 49 41 
f 41 50 42 
f 41 49 50 
f 52 44 51 
f 44 50 51 
f 44 42 50 
f 44 52 45 
f 46 53 48 
f 54 55 53 
f 55 48 53 
f 55 49 48 
f 57 50 56 
f 50 55 56 
f 50 49 55 
f 50 57 51 
f 54 58 55 
f 55 58 56 
f 60 59 61 
f 63 62 61 
f 61 62 60 
f 65 64 63 
f 63 64 62 
f 65 66 64 
f 68 67 69 
f 68 69 59 
f 69 61 59 
f 69 70 61 
f 61 71 63 
f 61 70 71 
f 63 72 65 
f 63 71 72 
f 66 65 73 
f 65 74 73 
f 65 72 74 
f 74 75 73 
f 67 76 69 
f 77 78 76 
f 78 69 76 
f 78 70 69 
f 70 79 71 
f 70 78 79 
f 71 80 72 
f 71 79 80 
f 72 81 74 
f 72 80 81 
f 75 74 82 
f 82 74 81 
f 77 83 78 
f 84 85 83 
f 85 78 83 
f 85 79 78 
f 79 86 80 
f 79 85 86 
f 88 81 87 
f 81 86 87 
f 81 80 86 
f 81 88 82 
f 84 89 85 
f 85 89 86 
f 86 89 90 
f 86 90 87 
f 91 12 13 
f 15 92 13 
f 13 92 91 
f 16 92 15 
f 93 17 18 
f 12 91 18 
f 91 93 18 
f 91 94 93 
f 95 91 92 
f 94 91 95 
f 20 96 16 
f 96 92 16 
f 96 95 92 
f 22 96 20 
f 97 23 93 
f 93 23 17 
f 98 93 94 
f 97 93 98 
f 99 94 95 
f 98 94 99 
f 27 99 28 
f 99 96 28 
f 99 95 96 
f 28 96 22 
f 97 29 23 
f 29 97 30 
f 97 100 30 
f 97 98 100 
f 32 100 33 
f 100 99 33 
f 100 98 99 
f 33 99 27 
f 100 34 30 
f 34 100 32 
f 102 101 103 
f 35 36 103 
f 36 102 103 
f 36 104 102 
f 36 38 104 
f 104 38 105 
f 107 106 108 
f 107 108 101 
f 101 108 103 
f 108 39 103 
f 39 40 103 
f 103 40 35 
f 109 105 38 
f 109 38 43 
f 43 45 109 
f 109 45 110 
f 108 106 47 
f 106 46 47 
f 106 111 46 
f 108 47 39 
f 51 112 52 
f 112 113 52 
f 113 45 52 
f 113 110 45 
f 111 114 46 
f 46 114 53 
f 54 53 114 
f 54 114 115 
f 56 116 57 
f 116 117 57 
f 57 117 51 
f 117 118 51 
f 118 112 51 
f 112 118 113 
f 115 119 54 
f 54 119 58 
f 56 58 116 
f 58 120 116 
f 58 119 120 
f 116 120 117 
f 122 121 123 
f 123 124 122 
f 126 125 60 
f 60 125 59 
f 62 123 121 
f 126 62 121 
f 60 62 126 
f 127 124 123 
f 62 127 123 
f 64 127 62 
f 64 66 127 
f 127 66 128 
f 129 67 68 
f 59 125 130 
f 129 59 130 
f 131 129 130 
f 68 59 129 
f 132 131 130 
f 133 134 135 
f 136 135 73 
f 135 128 73 
f 128 66 73 
f 128 135 134 
f 75 136 73 
f 129 76 67 
f 76 129 77 
f 129 137 77 
f 129 131 137 
f 131 132 138 
f 139 131 138 
f 137 131 139 
f 139 138 133 
f 135 139 133 
f 140 139 135 
f 141 135 136 
f 140 135 141 
f 82 141 75 
f 75 141 136 
f 137 83 77 
f 83 137 84 
f 137 142 84 
f 137 139 142 
f 143 139 140 
f 142 139 143 
f 87 143 88 
f 143 141 88 
f 143 140 141 
f 88 141 82 
f 142 89 84 
f 89 142 90 
f 90 142 143 
f 90 143 87 
f 144 101 102 
f 104 145 102 
f 102 145 144 
f 105 145 104 
f 146 106 107 
f 101 144 107 
f 144 146 107 
f 144 147 146 
f 148 144 145 
f 147 144 148 
f 109 149 105 
f 149 145 105 
f 149 148 145 
f 110 149 109 
f 150 111 146 
f 146 111 106 
f 151 146 147 
f 150 146 151 
f 152 147 148 
f 151 147 152 
f 153 148 149 
f 152 148 153 
f 113 153 110 
f 110 153 149 
f 150 114 111 
f 114 150 115 
f 150 154 115 
f 150 151 154 
f 155 151 152 
f 154 151 155 
f 117 155 118 
f 155 153 118 
f 155 152 153 
f 118 153 113 
f 154 119 115 
f 119 154 120 
f 120 154 155 
f 120 155 117 
f 156 121 122 
f 124 156 122 
f 157 125 126 
f 121 156 126 
f 156 157 126 
f 156 158 157 
f 127 159 124 
f 159 156 124 
f 159 158 156 
f 128 159 127 
f 157 130 125 
f 130 157 132 
f 157 160 132 
f 157 158 160 
f 133 160 134 
f 160 159 134 
f 160 158 159 
f 134 159 128 
f 160 138 132 
f 138 160 133 
