#  wavefront obj file written by the visualization toolkit

mtllib livertumor05.mtl

v 120.10800170898438 115.30400085449219 170.89999389648438
v 119.5739974975586 115.66699981689453 170.13600158691406
v 119.38400268554688 115.31199645996094 171.14500427246094
v 120.89399719238281 115.33999633789062 170.6649932861328
v 120.25599670410156 115.58999633789062 170.0469970703125
v 126.9990005493164 117.34400177001953 178.7760009765625
v 127.1500015258789 116.50399780273438 180.7469940185547
v 108.09100341796875 122.10600280761719 193.21600341796875
v 107.36799621582031 122.41400146484375 192.7100067138672
v 121.84300231933594 115.31800079345703 171.35800170898438
v 121.37699890136719 115.58699798583984 170.14599609375
v 109.20600128173828 118.3949966430664 177.98800659179688
v 108.4540023803711 119.63300323486328 177.6280059814453
v 107.03700256347656 126.00900268554688 193.58999633789062
v 105.91000366210938 125.60199737548828 192.9239959716797
v 128.6320037841797 118.49500274658203 188.63699340820312
v 128.45899963378906 119.91400146484375 191.2239990234375
v 118.96900177001953 116.01300048828125 169.9739990234375
v 118.38999938964844 115.86900329589844 170.48199462890625
v 118.9260025024414 115.5270004272461 170.77000427246094
v 119.55899810791016 116.4020004272461 169.6790008544922
v 120.01599884033203 116.01599884033203 169.718994140625
v 120.7969970703125 115.62799835205078 169.9510040283203
v 120.58300018310547 116.02999877929688 169.6929931640625
v 121.18399810791016 116.02999877929688 169.6959991455078
v 122.11699676513672 115.68199920654297 170.43600463867188
v 121.7040023803711 116.0009994506836 169.781005859375
v 105.91699981689453 124.23699951171875 192.18499755859375
v 105.96600341796875 124.68099975585938 190.5449981689453
v 114.31999969482422 115.85600280761719 175.76800537109375
v 113.0770034790039 115.88300323486328 177.20799255371094
v 119.927001953125 112.88200378417969 184.4080047607422
v 121.81500244140625 113.03600311279297 185.7469940185547
v 136.76400756835938 135.96200561523438 179.45599365234375
v 136.3209991455078 135.3300018310547 179.23199462890625
v 128.1529998779297 126.99500274658203 195.0659942626953
v 126.7979965209961 125.875 195.1999969482422
v 113.66400146484375 135.09500122070312 176.29400634765625
v 115.7239990234375 135.23899841308594 175.1820068359375
v 134.82200622558594 134.11900329589844 179.16099548339844
v 135.56500244140625 134.80499267578125 179.1999969482422
v 132.86000061035156 133.71099853515625 177.59500122070312
v 133.08700561523438 132.70399475097656 177.1219940185547
v 125.38300323486328 123.31999969482422 195.1280059814453
v 123.15299987792969 123.43000030517578 195.5229949951172
v 116.92900085449219 116.927001953125 171.19900512695312
v 117.3290023803711 116.40499877929688 170.98300170898438
v 118.28800201416016 116.47599792480469 169.98399353027344
v 122.21900177001953 115.08200073242188 188.42999267578125
v 120.35900115966797 114.52200317382812 187.8300018310547
v 109.30799865722656 124.57499694824219 180.48899841308594
v 109.73200225830078 126.94300079345703 183.072998046875
v 134.90199279785156 131.06100463867188 178.72900390625
v 135.60400390625 131.88600158691406 179.3280029296875
v 118.93299865722656 116.59400177001953 169.68899536132812
v 132.00900268554688 132.83200073242188 189.38499450683594
v 131.3419952392578 132.0500030517578 189.60699462890625
v 116.21499633789062 138.42300415039062 193.15199279785156
v 114.66100311279297 137 193.75100708007812
v 135.43099975585938 133.97000122070312 183.96800231933594
v 134.52499389648438 132.8820037841797 183.9949951171875
v 117.33300018310547 139.8560028076172 188.02999877929688
v 119.50700378417969 139.68099975585938 189.031005859375
v 118.45800018310547 114.99199676513672 173.83200073242188
v 118.53700256347656 114.22899627685547 177.19000244140625
v 120.36599731445312 116.60299682617188 169.61099243164062
v 121.0999984741211 116.56900024414062 169.60899353027344
v 121.70600128173828 116.53800201416016 169.6280059814453
v 132.01499938964844 132.08799743652344 176.26400756835938
v 132.20199584960938 130.69900512695312 176.13099670410156
v 113.7969970703125 121.01699829101562 173.16000366210938
v 112.83999633789062 119.26300048828125 173.68600463867188
v 107.99299621582031 132.52200317382812 191.2270050048828
v 107.68199920654297 131.7790069580078 189.8419952392578
v 116.05400085449219 122.33000183105469 172.73500061035156
v 114.89600372314453 129.8040008544922 197.1479949951172
v 113.79499816894531 131.4219970703125 195.72500610351562
v 122.3239974975586 116.3740005493164 169.8159942626953
v 122.9800033569336 116.64700317382812 169.85000610351562
v 116.66600036621094 113.99199676513672 184.73199462890625
v 114.197998046875 115.0469970703125 184.83399963378906
v 122.97200012207031 116.0459976196289 170.64700317382812
v 136.60000610351562 136.15499877929688 183.18099975585938
v 136.156005859375 135.8560028076172 183.56199645996094
v 117.40399932861328 136.42999267578125 194.03799438476562
v 117.39299774169922 133.98800659179688 195.1840057373047
v 117.54100036621094 116.77999877929688 170.44700622558594
v 117.9209976196289 117.23600006103516 169.96099853515625
v 116.8219985961914 117.71099853515625 171.20899963378906
v 126.65699768066406 115.16400146484375 183.0019989013672
v 127.25199890136719 115.96600341796875 185.17799377441406
v 135.4759979248047 131.32699584960938 181.18899536132812
v 134.85899353027344 131.25999450683594 182.2480010986328
v 132.37399291992188 136.14199829101562 179.41000366210938
v 133.2209930419922 136.3560028076172 180.89199829101562
v 112.41999816894531 132.21299743652344 195.1790008544922
v 118.66500091552734 117.17900085449219 169.66799926757812
v 119.39800262451172 117.11299896240234 169.61099243164062
v 130.51100158691406 126.4729995727539 181.49600219726562
v 128.70899963378906 124.98699951171875 183.21200561523438
v 120.0260009765625 117.11000061035156 169.60400390625
v 134.48300170898438 130.26800537109375 181.31500244140625
v 109.20800018310547 131.50900268554688 193.99099731445312
v 107.62699890136719 130.1479949951172 193.40499877929688
v 122.1510009765625 139.14199829101562 180.71400451660156
v 123.12100219726562 140.26800537109375 182.83799743652344
v 121.09400177001953 117.16699981689453 169.60000610351562
v 121.69499969482422 117.197998046875 169.60000610351562
v 122.2699966430664 117.16799926757812 169.61599731445312
v 128.4029998779297 132.92999267578125 173.62899780273438
v 129.5749969482422 131.8730010986328 174.41400146484375
v 122.83899688720703 117.1709976196289 169.63699340820312
v 123.6500015258789 116.87799835205078 170.35499572753906
v 123.35600280761719 117.25700378417969 169.74899291992188
v 114.9229965209961 133.1300048828125 195.2209930419922
v 115.96700286865234 135.11700439453125 194.91799926757812
v 117.58300018310547 113.66999816894531 181.62899780273438
v 132.9320068359375 134.5290069580078 185.65199279785156
v 132.5070037841797 135.63800048828125 185.0279998779297
v 131.53599548339844 126.95899963378906 192.5749969482422
v 131.49899291992188 125.70800018310547 193.28500366210938
v 124.9469985961914 115.58599853515625 188.27999877929688
v 117.36900329589844 117.54399871826172 170.5399932861328
v 134.88499450683594 130.66700744628906 179.85000610351562
v 117.84700012207031 118.05799865722656 170.08700561523438
v 118.33499908447266 117.74600219726562 169.7030029296875
v 130.56399536132812 122.5510025024414 192.72799682617188
v 129.52499389648438 122.1510009765625 193.2729949951172
v 113.25900268554688 137.87600708007812 193.3520050048828
v 126.64399719238281 118.802001953125 175.48199462890625
v 126.90499877929688 118.16600036621094 177.18299865722656
v 119.4010009765625 117.73699951171875 169.6020050048828
v 120.0009994506836 117.73699951171875 169.60000610351562
v 120.59400177001953 117.21199798583984 169.60000610351562
v 120.55500030517578 117.70500183105469 169.60000610351562
v 121.04900360107422 117.66699981689453 169.60000610351562
v 121.5989990234375 117.91100311279297 169.60000610351562
v 122.2300033569336 118.03600311279297 169.60299682617188
v 122.85600280761719 118.05400085449219 169.64100646972656
v 123.33899688720703 117.91400146484375 169.70399475097656
v 109.25700378417969 121.68800354003906 174.55999755859375
v 110.4000015258789 122.01599884033203 174.39999389648438
v 123.83599853515625 117.86699676513672 170.09300231933594
v 136.90899658203125 134.7100067138672 182.88699340820312
v 136.21200561523438 134.85299682617188 183.68299865722656
v 124.27799987792969 117.48999786376953 171.01100158691406
v 106.33999633789062 128.16799926757812 190.02499389648438
v 106.9540023803711 129.92999267578125 189.64599609375
v 116.21099853515625 130.7729949951172 173.71600341796875
v 116.54199981689453 128.79600524902344 173.32400512695312
v 128.6540069580078 123.49099731445312 175.84100341796875
v 127.59700012207031 121.88600158691406 175.10800170898438
v 122.94300079345703 139.2100067138672 188.10400390625
v 125.35099792480469 138.07200622558594 188.41400146484375
v 118.88800048828125 117.78199768066406 169.60800170898438
v 118.38899993896484 118.39900207519531 169.7550048828125
v 118.87899780273438 118.32099914550781 169.61500549316406
v 119.35800170898438 118.23699951171875 169.60000610351562
v 120.07099914550781 118.5250015258789 169.60400390625
v 120.5739974975586 118.2750015258789 169.60000610351562
v 121.15599822998047 118.29100036621094 169.60000610351562
v 123.65499877929688 130.09500122070312 172.8249969482422
v 126.68299865722656 131.6699981689453 172.92300415039062
v 126.33599853515625 120.46700286865234 192.98800659179688
v 126.45899963378906 122.61199951171875 194.67300415039062
v 136.3560028076172 132.6179962158203 180.39999389648438
v 136.5330047607422 133.1909942626953 182.01100158691406
v 128.07400512695312 121.88899993896484 193.63099670410156
v 109.82099914550781 134.21800231933594 187.76499938964844
v 110.47000122070312 135.50900268554688 188.4969940185547
v 108.54100036621094 119.87200164794922 175.0290069580078
v 108.5719985961914 118.70999908447266 175.60899353027344
v 133.43800354003906 130.30499267578125 176.8280029296875
v 134.19000244140625 131.06199645996094 177.55999755859375
v 118.20500183105469 131.39999389648438 173.42999267578125
v 130.6009979248047 128.48300170898438 192.78799438476562
v 129.57699584960938 129.0540008544922 193.58999633789062
v 130.80099487304688 128.66400146484375 184.64500427246094
v 130.0399932861328 128.875 187.68299865722656
v 108.75 133.34800720214844 188.8769989013672
v 111.81600189208984 128.23800659179688 196.1219940185547
v 111.40599822998047 130.66299438476562 195.22500610351562
v 122.8280029296875 140.16799926757812 186.02000427246094
v 122.3280029296875 131.5970001220703 195.10000610351562
v 121.66699981689453 133.34300231933594 194.23800659179688
v 124.33999633789062 139.9770050048828 185.47500610351562
v 115.58399963378906 137.93099975585938 176.73699951171875
v 115.71600341796875 136.86300659179688 175.9320068359375
v 118.19100189208984 119.03299713134766 170.20799255371094
v 119.14299774169922 119.27300262451172 169.79400634765625
v 119.5250015258789 118.81400299072266 169.60899353027344
v 131.51300048828125 135.1199951171875 187.42100524902344
v 130.3489990234375 135.6510009765625 187.86700439453125
v 117.96199798583984 140.22500610351562 185.2830047607422
v 107.91600036621094 127.99700164794922 187.5399932861328
v 109.42500305175781 127.76399993896484 186.23899841308594
v 132.48699951171875 134.05299377441406 186.67300415039062
v 132.18499755859375 133.23199462890625 187.96800231933594
v 107.44999694824219 131.14999389648438 192.50999450683594
v 129.89199829101562 123.08000183105469 178.01699829101562
v 121.02100372314453 118.98899841308594 169.60899353027344
v 121.927001953125 118.9280014038086 169.62899780273438
v 106.1760025024414 128.8489990234375 191.45700073242188
v 107.0009994506836 128.76199340820312 188.58399963378906
v 108.21399688720703 120.7239990234375 177.15199279785156
v 108.21299743652344 121.35299682617188 175.98199462890625
v 125.90599822998047 117.5009994506836 175.2729949951172
v 125.06999969482422 117.21199798583984 173.39599609375
v 122.78399658203125 119.05400085449219 169.73500061035156
v 121.0719985961914 116.6709976196289 190.3699951171875
v 118.43000030517578 115.61799621582031 188.83099365234375
v 123.61699676513672 118.88300323486328 170.1269989013672
v 129.11500549316406 134.00999450683594 190.32400512695312
v 119.03199768066406 132.20199584960938 195.88999938964844
v 117.3489990234375 130.58599853515625 197.04800415039062
v 108.8010025024414 120.20099639892578 178.4320068359375
v 135.40899658203125 136.41700744628906 182.14599609375
v 135.03799438476562 136.5189971923828 180.6020050048828
v 108.85299682617188 132.8719940185547 192.84100341796875
v 135.67300415039062 131.61399841308594 180.1510009765625
v 131.73199462890625 126.00900268554688 190.78700256347656
v 131.5050048828125 124.88300323486328 190.0749969482422
v 105.63099670410156 126.82599639892578 191.7689971923828
v 105.91600036621094 127.822998046875 191.3419952392578
v 123.00900268554688 124.68699645996094 172.78700256347656
v 126.30699920654297 124.05899810791016 173.74899291992188
v 136.16299438476562 136.3509979248047 179.34800720214844
v 136.8249969482422 136.52099609375 179.59500122070312
v 133.3979949951172 131.2030029296875 183.83200073242188
v 133.27099609375 131.5240020751953 176.78199768066406
v 129.13099670410156 125.34300231933594 194.85699462890625
v 108.47100067138672 118.84700012207031 176.79100036621094
v 109.83300018310547 117.71800231933594 174.83900451660156
v 110.71700286865234 117.35900115966797 174.76300048828125
v 120.39399719238281 119.58399963378906 169.73599243164062
v 132.10800170898438 125.63099670410156 192.15499877929688
v 123.40899658203125 115.78199768066406 172.0679931640625
v 131.58799743652344 136.78700256347656 180.52000427246094
v 119.83999633789062 136.58700561523438 175.48699951171875
v 120.93099975585938 138.08299255371094 177.3679962158203
v 118.68900299072266 114.08699798583984 186.95899963378906
v 108.27899932861328 126.04000091552734 187.072998046875
v 131.41700744628906 125.72599792480469 178.83099365234375
v 130.00100708007812 124.19400024414062 180.4029998779297
v 112.13600158691406 116.72699737548828 187.093994140625
v 111.05899810791016 117.8499984741211 185.0449981689453
v 107.41799926757812 123.53399658203125 193.3459930419922
v 106.63099670410156 124.5780029296875 193.3520050048828
v 109.81199645996094 125.59600067138672 177.78599548339844
v 111.24600219726562 127.76300048828125 176.91900634765625
v 115.447998046875 123.25800323486328 197.89199829101562
v 114.13200378417969 124.53199768066406 197.91700744628906
v 110.7979965209961 116.78199768066406 177.2030029296875
v 109.89800262451172 117.28900146484375 177.0709991455078
v 125.72200012207031 131.88699340820312 193.7050018310547
v 123.96399688720703 130.49099731445312 194.80499267578125
v 126.46900177001953 128.95599365234375 173.26199340820312
v 122.6449966430664 127.4800033569336 172.83999633789062
v 127.10600280761719 133.3159942626953 192.3719940185547
v 111.09400177001953 117.822998046875 181.4980010986328
v 110.47100067138672 117.6240005493164 178.7760009765625
v 119.60600280761719 112.90699768066406 182.5240020751953
v 121.78299713134766 112.7509994506836 183.14199829101562
v 117.39600372314453 118.50499725341797 170.7830047607422
v 123.43000030517578 113.8740005493164 186.85400390625
v 109.37799835205078 117.65299987792969 175.64599609375
v 106.63500213623047 127.14700317382812 188.927001953125
v 110.20800018310547 128.72300720214844 183.90199279785156
v 110.71900177001953 129.23899841308594 179.92999267578125
v 124.56800079345703 116.53099822998047 173.2030029296875
v 124.01000213623047 116.03199768066406 172.85699462890625
v 121.80999755859375 131.88299560546875 173.08299255371094
v 119.30999755859375 128.5 172.88499450683594
v 114.60299682617188 137.21600341796875 176.7429962158203
v 109.71700286865234 120.31800079345703 174.43299865722656
v 116.72100067138672 138.39700317382812 176.5989990234375
v 126.74800109863281 116.97000122070312 189.06500244140625
v 118.93399810791016 120.29000091552734 170.63999938964844
v 125.12000274658203 140.0290069580078 183.8209991455078
v 126.86000061035156 138.88099670410156 185.5260009765625
v 124.73899841308594 115.99199676513672 175.27999877929688
v 123.4749984741211 115.44400024414062 174.0590057373047
v 128.7429962158203 127.76100158691406 194.59800720214844
v 109.03500366210938 121.66799926757812 179.61199951171875
v 110.41899871826172 118.41100311279297 187.81399536132812
v 124.99099731445312 135.71499633789062 174.21200561523438
v 126.2979965209961 135.0850067138672 173.63800048828125
v 109.18599700927734 121.53399658203125 185.9199981689453
v 108.89700317382812 124.91200256347656 186.1230010986328
v 113.1760025024414 136.40499877929688 177.74099731445312
v 117.94000244140625 138.01300048828125 176.18600463867188
v 119.35700225830078 138.4969940185547 177.093994140625
v 130.21200561523438 122.4739990234375 187.60800170898438
v 129.9040069580078 120.677001953125 187.66900634765625
v 112.3219985961914 116.3740005493164 175.60800170898438
v 123.73600006103516 114.85099792480469 177.06700134277344
v 114.22599792480469 138.70399475097656 185.63400268554688
v 115.09300231933594 138.76699829101562 181.86700439453125
v 122.4540023803711 119.80699920654297 169.85899353027344
v 114.28099822998047 120.70800018310547 194.8070068359375
v 112.21700286865234 120.37999725341797 193.77999877929688
v 123.20600128173828 120 170.39100646972656
v 134.33799743652344 132.8000030517578 178.3070068359375
v 127.7020034790039 119.69599914550781 179.31100463867188
v 114.7229995727539 129.28500366210938 174.28900146484375
v 125.61499786376953 139.44900512695312 182.51800537109375
v 126.322998046875 138.30299377441406 181.18099975585938
v 125.20999908447266 116.677001953125 174.71299743652344
v 115.0790023803711 126.83100128173828 198.19400024414062
v 114.12000274658203 127.86499786376953 197.56100463867188
v 112.8949966430664 138.3040008544922 188.14100646972656
v 113.90899658203125 139.04800415039062 188.61700439453125
v 130.41400146484375 130.62899780273438 190.41900634765625
v 130.0070037841797 132.57699584960938 190.7729949951172
v 110.37799835205078 118.6520004272461 174.43600463867188
v 117.5780029296875 133.98699951171875 174.40899658203125
v 124.47599792480469 119.3219985961914 192.78399658203125
v 106.53900146484375 129.74400329589844 191.06199645996094
v 107 130.88999938964844 190.89500427246094
v 117.09300231933594 118.14399719238281 192.26100158691406
v 115.59500122070312 116.83999633789062 190.0800018310547
v 116.58399963378906 137.62399291992188 176.08599853515625
v 128.322998046875 122.99600219726562 182.0749969482422
v 128.36300659179688 123.01200103759766 183.92300415039062
v 109.11299896240234 125.91400146484375 194.63299560546875
v 117.69999694824219 119.71399688720703 171.14199829101562
v 117.77400207519531 127.4219970703125 198.38699340820312
v 115.80599975585938 128.177001953125 198.1529998779297
v 130.9010009765625 127.94000244140625 191.16200256347656
v 129.35400390625 121.34600067138672 185.73199462890625
v 129.48899841308594 123.03900146484375 185.92799377441406
v 125.74500274658203 128.55999755859375 195.11599731445312
v 131.13900756835938 122.9729995727539 192.02999877929688
v 111.76300048828125 130.54100036621094 177.26100158691406
v 112.8740005493164 129.593994140625 175.62100219726562
v 121.60199737548828 119.82499694824219 169.7790069580078
v 122.94200134277344 128.81900024414062 196.11399841308594
v 121.97100067138672 127.3740005493164 196.8159942626953
v 117.875 122.4219970703125 197.2239990234375
v 118.4010009765625 121.47200012207031 195.91900634765625
v 111.48600006103516 116.76899719238281 178.8489990234375
v 121.11299896240234 115.16000366210938 172.03500366210938
v 112.00399780273438 137.78599548339844 192.55799865722656
v 120.05599975585938 113.40299987792969 186.3249969482422
v 137.031005859375 136.0260009765625 182.25799560546875
v 136.7949981689453 135.51499938964844 183.16099548339844
v 110.10099792480469 127.25499725341797 179.29200744628906
v 114.75800323486328 114.88999938964844 180.20700073242188
v 116.25800323486328 114.84400177001953 177.2969970703125
v 121.5510025024414 136.63900756835938 175.62100219726562
v 121.81500244140625 134.593994140625 174.13499450683594
v 127.96499633789062 117.41100311279297 183.46400451660156
v 113.9020004272461 116.0510025024414 187.65699768066406
v 127.76699829101562 124.49700164794922 195.1719970703125
v 123.73100280761719 117.33300018310547 190.7100067138672
v 109.3740005493164 132.3419952392578 187.29200744628906
v 109.03700256347656 129.80799865722656 187.0989990234375
v 127.8270034790039 121.35299682617188 181.6199951171875
v 128.45799255371094 119.66600036621094 183.7530059814453
v 115.39700317382812 139.40199279785156 185.7270050048828
v 117.2040023803711 139.58399963378906 181.927001953125
v 109.52799987792969 119.82599639892578 186.6230010986328
v 112.30400085449219 117.69499969482422 189.6179962158203
v 111.72200012207031 133.4340057373047 194.60699462890625
v 110.93000030517578 135.06100463867188 193.4929962158203
v 114.13500213623047 139.22799682617188 191.093994140625
v 125.96499633789062 116.7979965209961 176.718994140625
v 118.70600128173828 115.27200317382812 171.9980010986328
v 117.7760009765625 115.53700256347656 172.12600708007812
v 105.83399963378906 126.96700286865234 190.46600341796875
v 127.78800201416016 118.9010009765625 181.0540008544922
v 129.697998046875 130.8560028076172 192.2899932861328
v 127.35900115966797 130.11099243164062 193.9290008544922
v 122.38400268554688 113.51699829101562 179.28700256347656
v 120.0260009765625 113.22200012207031 180.16400146484375
v 119.80000305175781 115.0719985961914 172.57899475097656
v 119.7020034790039 133.80799865722656 174.13400268554688
v 119.50700378417969 135.1060028076172 194.14999389648438
v 125.13500213623047 137.68600463867188 179.26499938964844
v 126.55699920654297 136.76300048828125 177.52200317382812
v 111.27899932861328 134.53799438476562 185.73300170898438
v 111.79199981689453 136.22999572753906 186.3820037841797
v 114.41699981689453 131.406005859375 174.78500366210938
v 116.06900024414062 132.822998046875 174.3070068359375
v 123.00499725341797 140.65899658203125 184.3280029296875
v 116.88200378417969 125.55799865722656 198.39999389648438
v 115.6520004272461 123.9209976196289 198.33399963378906
v 125.02400207519531 113.49299621582031 182.63800048828125
v 123.6760025024414 113.08999633789062 184.16099548339844
v 116.73400115966797 115.43399810791016 174.20199584960938
v 136.51400756835938 134.51600646972656 179.22500610351562
v 136.14599609375 133.3300018310547 179.25599670410156
v 116.87300109863281 116.197998046875 172.05299377441406
v 117.83000183105469 116.2490005493164 170.49400329589844
v 117.75700378417969 115.93199920654297 171.0500030517578
v 118.322998046875 115.55599975585938 171.21800231933594
v 121.4530029296875 123.70800018310547 196.74099731445312
v 120.45700073242188 124.67900085449219 197.88600158691406
v 117.63300323486328 136.2220001220703 175.3769989013672
v 112.05899810791016 122.20700073242188 195.58299255371094
v 122.18399810791016 118.98400115966797 192.98199462890625
v 111.9739990234375 134.75399780273438 178.20599365234375
v 111.78700256347656 135.82699584960938 179.3939971923828
v 121.21199798583984 130.18899536132812 196.36300659179688
v 121.33000183105469 139.88600158691406 187.5709991455078
v 114.13500213623047 133.51300048828125 175.3719940185547
v 135.0919952392578 135.16400146484375 183.86900329589844
v 125.8479995727539 121.36299896240234 173.18499755859375
v 115.85800170898438 136.68099975585938 194.16099548339844
v 111.33599853515625 137.27699279785156 191.4239959716797
v 111.95500183105469 137.5279998779297 188.88600158691406
v 132.77200317382812 129.0919952392578 182.05999755859375
v 120.47200012207031 122.53900146484375 196.29200744628906
v 107.9489974975586 130.8990020751953 187.9969940185547
v 123.69000244140625 116.23200225830078 171.33700561523438
v 109.2239990234375 118.73899841308594 174.75999450683594
v 124.21099853515625 138.76699829101562 181.20700073242188
v 108.71900177001953 122.0790023803711 175.34300231933594
v 109.54900360107422 123.02300262451172 174.98300170898438
v 120.52799987792969 132.5030059814453 195.2899932861328
v 137.447998046875 135.28900146484375 181.38900756835938
v 107.0719985961914 122.47699737548828 191.33999633789062
v 106.16100311279297 123.6500015258789 191.0959930419922
v 122.29100036621094 120.64199829101562 170.5070037841797
v 111.81500244140625 117.07099914550781 174.70399475097656
v 113.0719985961914 117.89199829101562 173.94000244140625
v 130.26300048828125 129.01400756835938 189.4320068359375
v 130.42599487304688 129.5500030517578 191.90199279785156
v 111.98300170898438 122.64399719238281 174.0290069580078
v 129.09300231933594 137.9499969482422 184.18099975585938
v 128.9510040283203 137.85400390625 181.8070068359375
v 135.1280059814453 136.03900146484375 183.07400512695312
v 130.83200073242188 129.69900512695312 175.57899475097656
v 131.2429962158203 127.87799835205078 176.39700317382812
v 135.45700073242188 132.41600036621094 179.07000732421875
v 124.14099884033203 116.69599914550781 171.6199951171875
v 135.11500549316406 133.25799560546875 179.1009979248047
v 125.80899810791016 115.8489990234375 178.44400024414062
v 108.56400299072266 121.01200103759766 174.9250030517578
v 112.92900085449219 131.75100708007812 175.94500732421875
v 134.85800170898438 131.74000549316406 178.37600708007812
v 137.1060028076172 135.04299926757812 179.5260009765625
v 114.43800354003906 137.91700744628906 178.23699951171875
v 114.16400146484375 138.12100219726562 179.91099548339844
v 131.375 136.3679962158203 185.00100708007812
v 129.29100036621094 119.13200378417969 186.3040008544922
v 129.4409942626953 126.76799774169922 184.26800537109375
v 128.96400451660156 124.7249984741211 185.10800170898438
v 134.34100341796875 135.3159942626953 179.2030029296875
v 135.58599853515625 135.56100463867188 179.20700073242188
v 130.4080047607422 125.49299621582031 193.8769989013672
v 128.26699829101562 130.88499450683594 173.41900634765625
v 129.08399963378906 128.73500061035156 174.66000366210938
v 122.3010025024414 114.81900024414062 175.30299377441406
v 124.91799926757812 117.88899993896484 172.25799560546875
v 124.53099822998047 117.13899993896484 172.0709991455078
v 108.98999786376953 123.16400146484375 193.9320068359375
v 125.3499984741211 119.22100067138672 172.63299560546875
v 126.58999633789062 119.99700164794922 174.3699951171875
v 122.08399963378906 136.63999938964844 192.5850067138672
v 121.00800323486328 135.91200256347656 193.51400756835938
v 130.79600524902344 132.7010040283203 175.7779998779297
v 130.7469940185547 131.09800720214844 175.47300720214844
v 116.00800323486328 117.29199981689453 172.25999450683594
v 110.10299682617188 130.3159942626953 194.86399841308594
v 123.64900207519531 112.86000061035156 181.85800170898438
v 121.80699920654297 112.81700134277344 181.2209930419922
v 116.49600219726562 118.66999816894531 171.6649932861328
v 128.10400390625 126.27300262451172 174.69000244140625
v 129.91799926757812 126.66899871826172 175.9720001220703
v 116.09500122070312 139.39100646972656 191.73800659179688
v 134.1510009765625 136.25 181.76199340820312
v 136.3419952392578 133.80299377441406 183.2689971923828
v 107.99600219726562 121.50499725341797 189.4029998779297
v 106.78500366210938 122.94599914550781 190.12100219726562
v 133.18800354003906 129.91200256347656 182.48899841308594
v 132.45799255371094 129.36900329589844 176.43600463867188
v 129.0050048828125 123.76599884033203 194.2449951171875
v 127.44000244140625 137.468994140625 179.73699951171875
v 119.00299835205078 117.66799926757812 191.57000732421875
v 124.8489990234375 139.2239990234375 187.1479949951172
v 106.5510025024414 123.40699768066406 192.468994140625
v 113.63999938964844 126.08399963378906 197.78500366210938
v 137.02200317382812 134.11900329589844 182.3560028076172
v 107.99400329589844 124.80999755859375 193.75100708007812
v 116.95600128173828 138.02499389648438 193.31700134277344
v 112.44400024414062 133.10800170898438 176.8939971923828
v 131.1999969482422 126.90599822998047 193.42100524902344
v 130.21600341796875 126.65899658203125 194.28900146484375
v 132.73399353027344 136.28199768066406 182.8679962158203
v 124.47100067138672 118.48100280761719 171.14100646972656
v 133.97000122070312 134.46499633789062 179.00599670410156
v 134.85299682617188 134.77699279785156 179.1999969482422
v 116.7020034790039 125.40799713134766 173.06199645996094
v 110.11699676513672 127.83699798583984 195.43699645996094
v 132.99400329589844 128.4810028076172 180.5050048828125
v 132.3560028076172 127.4520034790039 179.48399353027344
v 112.7490005493164 127.37200164794922 175.07899475097656
v 108.08699798583984 120.55500030517578 175.86199951171875
v 119.58899688720703 121.71299743652344 171.68299865722656
v 125.64299774169922 115.03900146484375 186.71099853515625
v 120.11699676513672 120.73899841308594 170.54100036621094
v 116.42500305175781 114.79299926757812 186.89100646972656
v 112.27799987792969 125.1719970703125 174.531005859375
v 114.63400268554688 126.90399932861328 173.9550018310547
v 114.34500122070312 118.55599975585938 192.3520050048828
v 112.04000091552734 118.99400329589844 191.8769989013672
v 110.6240005493164 124.04399871826172 174.88400268554688
v 110.87799835205078 125.74400329589844 175.75100708007812
v 126.40699768066406 135.94200134277344 175.11700439453125
v 127.88800048828125 134.77999877929688 174.55499267578125
v 135.96800231933594 132.18699645996094 181.60699462890625
v 112.36699676513672 136.56500244140625 193.59800720214844
v 117.24400329589844 138.97999572753906 191.95899963378906
v 132.80999755859375 128.26699829101562 178.00399780273438
v 115.38800048828125 116.41400146484375 173.68800354003906
v 133.0489959716797 132.71400451660156 185.76600646972656
v 111.60600280761719 120.22799682617188 174.0540008544922
v 133.5800018310547 135.36599731445312 184.26499938964844
v 122.84600067138672 137.697998046875 177.92100524902344
v 111.23300170898438 132.4029998779297 179.25900268554688
v 112.66200256347656 116.18599700927734 185.72900390625
v 108.46199798583984 122.00800323486328 187.5050048828125
v 108.16999816894531 119.71399688720703 176.3489990234375
v 116.13999938964844 138.67999267578125 177.8679962158203
v 108.08499908447266 127.29299926757812 194.11399841308594
v 106.28500366210938 127.22899627685547 193.0030059814453
v 135.91200256347656 136.75 181.58700561523438
v 136.49200439453125 136.75599670410156 182.12399291992188
v 133.17999267578125 135.156005859375 178.98899841308594
v 111.14199829101562 125.63200378417969 196.23199462890625
v 109.77400207519531 124.16899871826172 194.89100646972656
v 127.60399627685547 120.02400207519531 176.69200134277344
v 121.69300079345703 113.822998046875 187.19900512695312
v 129.53599548339844 121.10600280761719 191.7270050048828
v 118.73500061035156 138.6300048828125 191.2050018310547
v 117.41200256347656 139.4340057373047 190.4250030517578
v 124.41300201416016 120.13200378417969 171.59300231933594
v 122.4520034790039 121.0530014038086 194.61099243164062
v 120.11499786376953 119.19200134277344 193.33799743652344
v 109.7300033569336 119.37300109863281 179.9550018310547
v 126.80999755859375 138.41000366210938 187.19900512695312
v 130.31100463867188 127.8239974975586 193.5919952392578
v 116.18800354003906 120.29199981689453 172.23300170898438
v 120.12300109863281 140.5330047607422 184.25599670410156
v 121.52400207519531 140.49400329589844 185.46800231933594
v 129.552001953125 133.6580047607422 175.1269989013672
v 130.4669952392578 134.35499572753906 176.50900268554688
v 121.83899688720703 140.68899536132812 183.7689971923828
v 108.81300354003906 129.41099548339844 194.13999938964844
v 111.81800079345703 135.177001953125 182.14300537109375
v 112.8030014038086 137.05599975585938 179.63900756835938
v 119.68199920654297 125.25800323486328 172.7779998779297
v 136.64300537109375 136.8260040283203 180.53199768066406
v 137.0189971923828 136.64100646972656 181.23500061035156
v 123.73600006103516 125.27300262451172 196.02999877929688
v 114.66500091552734 118.83599853515625 172.85499572753906
v 133.79100036621094 135.9669952392578 183.07200622558594
v 112.78900146484375 138.54600524902344 191.86599731445312
v 131.50900268554688 123.93399810791016 191.02499389648438
v 120.74299621582031 122.7300033569336 172.04400634765625
v 113.44200134277344 116.81999969482422 174.4810028076172
v 121.26399993896484 120.87799835205078 170.54800415039062
v 122.43099975585938 122.18900299072266 171.86500549316406
v 114.11599731445312 123.83000183105469 173.4720001220703
v 130.8820037841797 125.21499633789062 177.63800048828125
v 113.98799896240234 134.16000366210938 195.1060028076172
v 113.61799621582031 137.9720001220703 184.3280029296875
v 106.20999908447266 125.87899780273438 189.51100158691406
v 110.18699645996094 130.58299255371094 185.7779998779297
v 111.197998046875 133.1699981689453 184.14599609375
v 124.42900085449219 114.31099700927734 179.09500122070312
v 125.73699951171875 114.5989990234375 180.86099243164062
v 109.70700073242188 121.49099731445312 193.61300659179688
v 109.18000030517578 120.54000091552734 191.89700317382812
v 131.85299682617188 126.85299682617188 177.83299255371094
v 124.33899688720703 136.0279998779297 191.66700744628906
v 134.17100524902344 130.13299560546875 178.12600708007812
v 133.83700561523438 129.35000610351562 179.77200317382812
v 124.44000244140625 132.8090057373047 193.68800354003906
v 107.447998046875 123.62999725341797 188.35899353027344
v 114.23899841308594 122.55000305175781 196.60400390625
v 130.3679962158203 122.18499755859375 189.1280059814453
v 130.36399841308594 121.93000030517578 191.1320037841797
v 129.05099487304688 135.2030029296875 176.37100219726562
v 128.5919952392578 136.3280029296875 177.9759979248047
v 114.6729965209961 117.37699890136719 173.41099548339844
v 134.05799865722656 132.01400756835938 177.60400390625
v 112.75299835205078 124.20999908447266 196.94700622558594
v 130.0229949951172 137.07000732421875 185.9429931640625
v 131.906005859375 124.86499786376953 192.71600341796875
v 128.34800720214844 117.50800323486328 185.572998046875
v 128.33999633789062 121.32099914550781 183.56900024414062
v 133.50799560546875 135.9969940185547 179.49600219726562
v 126.03399658203125 135.98399353027344 190.18800354003906
v 127.0999984741211 136.85299682617188 188.78500366210938
v 117.75800323486328 138.82699584960938 177.2570037841797
v 114.56500244140625 136.27699279785156 176.12600708007812
v 108.99800109863281 117.97699737548828 176.58799743652344
v 113.32499694824219 127.25900268554688 197.1999969482422
v 108.60600280761719 122.03199768066406 177.43800354003906
v 109.0459976196289 123.41500091552734 178.45599365234375
v 123.28900146484375 136.10000610351562 175.03399658203125
v 123.86000061035156 134.28199768066406 173.43099975585938
v 129.72000122070312 120.63099670410156 189.4759979248047
v 112.95899963378906 115.83599853515625 180.37100219726562
v 112.18699645996094 116.55000305175781 182.1439971923828
v 115.90599822998047 132.48800659179688 195.88400268554688
v 118.94999694824219 138.9810028076172 178.3780059814453
v 127.65499877929688 135.91600036621094 176.3280029296875
v 128.57200622558594 121.4729995727539 177.78500366210938
v 121.24600219726562 114.9469985961914 173.7469940185547
v 111.19400024414062 123.73200225830078 196.03500366210938
v 125.73899841308594 118.30899810791016 173.84300231933594
v 106.3499984741211 124.4520034790039 189.50100708007812
v 131.64500427246094 123.8489990234375 192.5189971923828
v 122.33000183105469 115.1709976196289 173.23300170898438
v 137.1909942626953 136.30299377441406 180.29600524902344
v 133.97999572753906 133.81500244140625 178.6320037841797
v 107.06999969482422 125.73400115966797 188.1929931640625
v 120.68000030517578 121.19999694824219 195.0070037841797
v 108.88500213623047 120.61199951171875 187.85699462890625
v 129.80999755859375 137.10699462890625 179.68099975585938
v 107.81800079345703 121.56199645996094 191.61399841308594
v 122.75499725341797 115.49500274658203 171.93099975585938
v 112.12000274658203 138.14599609375 190.3249969482422
v 112.80799865722656 138.6199951171875 190.0260009765625
v 111.58499908447266 118.25800323486328 174.2949981689453
v 120.9209976196289 138.34800720214844 190.48599243164062
v 115.5790023803711 138.7899932861328 179.62600708007812
v 109.31099700927734 119.86799621582031 189.16900634765625
v 133.98599243164062 136.2449951171875 180.2989959716797
v 131.98300170898438 124.7239990234375 191.3979949951172
v 118.75299835205078 113.27899932861328 185.07000732421875
v 119.91699981689453 140.21400451660156 186.97500610351562
v 110.72100067138672 122.20899963378906 194.58799743652344
v 115.4540023803711 139.58900451660156 189.77999877929688
v 127.34700012207031 116.27999877929688 186.97900390625
v 118.05500030517578 121.25900268554688 171.91600036621094
v 130.84500122070312 130.4929962158203 188.50900268554688
v 126.58499908447266 118.33999633789062 190.5590057373047
v 109.70899963378906 124.33999633789062 176.2740020751953
v 114.6050033569336 138.63999938964844 192.88699340820312
v 130.67799377441406 137.13999938964844 182.18699645996094
v 119.14600372314453 123.47899627685547 197.7469940185547
v 110.81800079345703 136.58200073242188 190.6959991455078
v 109.30500030517578 134.53500366210938 190.6739959716797
v 121.35299682617188 140.33799743652344 182.74400329589844
v 136.97900390625 134.06900024414062 179.5030059814453
v 106.58499908447266 130.00999450683594 192.38999938964844
v 117.55999755859375 119.86900329589844 194.16900634765625
v 127.46900177001953 138.75999450683594 182.8179931640625
v 131.32400512695312 133.99200439453125 189.16900634765625
v 135.95700073242188 136.71499633789062 180.03799438476562
v 135.3769989013672 132.6020050048828 183.0800018310547
v 130.90499877929688 123.13999938964844 190.3090057373047
v 137.48500061035156 134.4040069580078 180.44700622558594
v 136.11399841308594 136.44000244140625 182.9770050048828
v 124.91699981689453 132.5659942626953 172.86000061035156
v 118.28500366210938 137.54600524902344 192.96800231933594
v 114.83100128173828 125.18399810791016 198.3509979248047
v 136.77200317382812 133.3780059814453 179.9219970703125
v 110.32599639892578 116.9749984741211 175.68699645996094
v 120.70999908447266 139.2239990234375 179.82200622558594
v 129.8090057373047 127.15599822998047 188.3300018310547
v 121.24500274658203 114.0780029296875 177.31300354003906
v 120.2020034790039 114.5989990234375 175.10299682617188
v 131.74200439453125 133.54100036621094 176.697998046875
v 128.4510040283203 137.93499755859375 186.18800354003906
v 128.69000244140625 136.50399780273438 188.0240020751953
v 130.88999938964844 136.35499572753906 186.46499633789062
v 129.427001953125 126.91200256347656 186.49200439453125
v 131.94000244140625 135.26300048828125 186.5229949951172
v 125.50599670410156 126.64600372314453 173.24600219726562
v 131.76300048828125 135.3520050048828 178.48500061035156
v 130.2050018310547 135.4810028076172 177.60499572753906
v 108.50800323486328 120.75299835205078 189.73800659179688
v 113.06400299072266 129.302001953125 196.2899932861328
v 127.7509994506836 134.80599975585938 190.38400268554688
v 129.74400329589844 124.8239974975586 176.43299865722656
v 117.38500213623047 139.06700134277344 178.76300048828125
v 116.23999786376953 121.43299865722656 196.04100036621094
v 131.9080047607422 131.4980010986328 187.66000366210938
v 123.3550033569336 135.1490020751953 193.11000061035156
v 107.6709976196289 128.3679962158203 193.72900390625
v 131.53599548339844 134.6540069580078 177.4929962158203
v 130.69400024414062 124.06999969482422 188.5800018310547
v 125.3270034790039 114.20099639892578 185.0919952392578
v 134.4239959716797 136.08999633789062 179.55599975585938
v 135.2790069580078 136.1909942626953 179.468994140625
v 128.71299743652344 121.98699951171875 180.19000244140625
v 134.24600219726562 134.11000061035156 184.53500366210938
v 105.625 125.71600341796875 191.2689971923828
v 112.44999694824219 125.72799682617188 196.906005859375
v 132.86399841308594 134.48800659179688 178.302001953125
v 110.24099731445312 133.19500732421875 193.91400146484375
v 116.28399658203125 122.21399688720703 197.08900451660156
v 130.77000427246094 124.09600067138672 193.49400329589844
v 124.30799865722656 122.41600036621094 172.56700134277344
v 127.98600006103516 132.39500427246094 192.4709930419922
v 110.98999786376953 120.25399780273438 193.05099487304688
v 109.44000244140625 122.81800079345703 183.125
v 118.44100189208984 123.05899810791016 172.593994140625
v 137.39199829101562 135.56500244140625 180.31300354003906
v 116.75199890136719 122.97599792480469 198.1280059814453
v 112.9739990234375 136.9409942626953 181.718994140625
v 135.6820068359375 133.94500732421875 179.19000244140625
v 121.66000366210938 125.197998046875 197.18099975585938
v 137.1020050048828 133.7010040283203 181.21499633789062
v 123.91400146484375 113.30599975585938 180.7469940185547
v 124.15599822998047 120.80699920654297 194.2429962158203
v 111.22899627685547 134.1959991455078 180.822998046875
v 130.71400451660156 126.97100067138672 189.4929962158203
v 129.468994140625 130.4239959716797 174.44000244140625
v 125.06900024414062 127.27200317382812 195.6269989013672
v 137.16099548339844 135.23800659179688 182.40699768066406
v 137.36900329589844 134.55999755859375 181.76800537109375
v 136.00399780273438 132.60899353027344 179.4340057373047
v 110.08000183105469 119.64700317382812 183.20799255371094
v 117.98999786376953 124.36199951171875 198.3800048828125
v 113.16100311279297 135.1479949951172 194.26800537109375
v 133.45399475097656 129.322998046875 177.61099243164062
v 130.73800659179688 125.71900177001953 188.98800659179688
v 128.22300720214844 117.24800109863281 187.29299926757812
v 120.26399993896484 137.01800537109375 192.8990020751953
v 131.84100341796875 136.54200744628906 183.29200744628906
v 130.4239959716797 137.10699462890625 184.3090057373047
v 125.4260025024414 134.39599609375 173.1490020751953
v 111.19300079345703 116.61900329589844 175.69200134277344
v 131.48399353027344 128.11700439453125 182.42100524902344
v 125.99500274658203 134.7530059814453 191.8820037841797
v 126.84100341796875 133.6909942626953 173.16600036621094
v 123.33200073242188 121.09300231933594 171.49600219726562
v 119.87300109863281 126.4729995727539 198.10299682617188
v 109.50800323486328 134.4949951171875 192.74899291992188
v 110.3550033569336 135.8769989013672 191.8939971923828
v 110.51499938964844 119.18900299072266 190.63099670410156
v 119.32499694824219 139.6820068359375 180.88400268554688
v 131.55499267578125 130.08599853515625 185.6719970703125
v 137.27000427246094 136.0679931640625 181.17599487304688
v 130.41600036621094 136.3300018310547 178.88900756835938
v 110.85099792480469 131.4459991455078 182.2969970703125
v 118.85299682617188 128.44400024414062 197.6580047607422
v 106.54900360107422 128.76499938964844 192.75
v 110.73300170898438 131.91900634765625 194.89999389648438
v 110.60600280761719 133.42599487304688 186.3979949951172
v 124.91999816894531 136.78500366210938 176.33799743652344
v 129.65499877929688 125.03399658203125 187.15199279785156
v 111.24800109863281 136.656005859375 192.7469940185547
v 123.55999755859375 137.33399963378906 190.3769989013672
v 109.0510025024414 123.14099884033203 176.35899353027344
v 111.79000091552734 116.33799743652344 177.1909942626953

g grp1
usemtl mtl1
f 3 2 1 
f 5 1 2 
f 20 2 3 
f 1 5 4 
f 23 4 5 
f 371 7 6 
f 438 6 7 
f 247 9 8 
f 624 8 9 
f 4 11 10 
f 26 10 11 
f 23 11 4 
f 216 13 12 
f 232 12 13 
f 527 15 14 
f 248 14 15 
f 605 17 16 
f 641 16 17 
f 20 19 18 
f 48 18 19 
f 18 2 20 
f 21 2 18 
f 22 5 2 
f 22 2 21 
f 24 23 5 
f 24 5 22 
f 25 11 23 
f 25 23 24 
f 27 26 11 
f 27 11 25 
f 693 29 28 
f 423 28 29 
f 348 31 30 
f 295 30 31 
f 78 26 27 
f 263 33 32 
f 344 32 33 
f 442 35 34 
f 450 34 35 
f 715 37 36 
f 231 36 37 
f 598 39 38 
f 406 38 39 
f 493 41 40 
f 707 40 41 
f 303 43 42 
f 668 42 43 
f 37 45 44 
f 539 44 45 
f 87 47 46 
f 393 46 47 
f 55 18 48 
f 210 50 49 
f 534 49 50 
f 702 52 51 
f 347 51 52 
f 441 54 53 
f 220 53 54 
f 21 18 55 
f 653 57 56 
f 683 56 57 
f 66 22 21 
f 643 59 58 
f 409 58 59 
f 692 61 60 
f 655 60 61 
f 66 24 22 
f 537 63 62 
f 635 62 63 
f 667 65 64 
f 390 64 65 
f 67 25 24 
f 67 24 66 
f 68 27 25 
f 68 25 67 
f 230 70 69 
f 463 69 70 
f 78 27 68 
f 557 72 71 
f 518 71 72 
f 180 74 73 
f 319 73 74 
f 565 75 71 
f 544 71 75 
f 608 77 76 
f 678 76 77 
f 112 79 78 
f 82 78 79 
f 503 81 80 
f 348 80 81 
f 113 82 79 
f 658 84 83 
f 346 83 84 
f 116 86 85 
f 378 85 86 
f 88 48 87 
f 394 87 48 
f 123 88 87 
f 123 46 89 
f 464 89 46 
f 97 48 88 
f 352 91 90 
f 688 90 91 
f 512 93 92 
f 102 92 93 
f 238 95 94 
f 594 94 95 
f 115 96 77 
f 182 77 96 
f 98 21 55 
f 98 55 97 
f 48 97 55 
f 447 100 99 
f 244 99 100 
f 101 21 98 
f 66 21 101 
f 476 102 93 
f 134 66 101 
f 199 104 103 
f 550 103 104 
f 107 67 66 
f 648 106 105 
f 417 105 106 
f 134 107 66 
f 108 68 67 
f 108 67 107 
f 109 78 68 
f 109 68 108 
f 547 111 110 
f 452 110 111 
f 112 78 109 
f 114 113 79 
f 114 79 112 
f 86 116 115 
f 567 115 116 
f 375 117 65 
f 349 65 117 
f 519 119 118 
f 673 118 119 
f 488 121 120 
f 236 120 121 
f 355 49 122 
f 265 122 49 
f 125 88 123 
f 220 124 53 
f 578 53 124 
f 126 97 88 
f 126 88 125 
f 698 128 127 
f 535 127 128 
f 155 97 126 
f 643 129 59 
f 513 59 129 
f 132 98 97 
f 533 131 130 
f 207 130 131 
f 155 132 97 
f 133 101 98 
f 133 98 132 
f 135 134 101 
f 135 101 133 
f 136 107 134 
f 136 134 135 
f 137 108 107 
f 137 107 136 
f 138 109 108 
f 138 108 137 
f 139 112 109 
f 139 109 138 
f 140 114 112 
f 140 112 139 
f 419 142 141 
f 275 141 142 
f 143 114 140 
f 113 114 143 
f 346 145 144 
f 473 144 145 
f 146 113 143 
f 436 113 146 
f 318 148 147 
f 204 147 148 
f 175 150 149 
f 305 149 150 
f 156 126 125 
f 611 152 151 
f 226 151 152 
f 750 154 153 
f 481 153 154 
f 157 155 126 
f 157 126 156 
f 158 132 155 
f 158 155 157 
f 159 133 132 
f 159 132 158 
f 160 135 133 
f 160 133 159 
f 161 136 135 
f 161 135 160 
f 659 163 162 
f 257 162 163 
f 137 136 161 
f 168 165 164 
f 711 164 165 
f 709 167 166 
f 512 166 167 
f 354 44 165 
f 711 165 44 
f 478 168 128 
f 17 128 168 
f 647 170 169 
f 746 169 170 
f 416 172 171 
f 524 171 172 
f 202 138 137 
f 230 174 173 
f 578 173 174 
f 273 150 175 
f 428 177 176 
f 543 176 177 
f 739 179 178 
f 672 178 179 
f 491 146 143 
f 212 140 139 
f 647 180 73 
f 678 182 181 
f 465 181 182 
f 405 153 183 
f 481 183 153 
f 580 185 184 
f 420 184 185 
f 385 183 186 
f 481 186 183 
f 322 188 187 
f 274 187 188 
f 190 157 156 
f 190 156 189 
f 125 189 156 
f 191 158 157 
f 191 157 190 
f 671 193 192 
f 653 192 193 
f 159 158 191 
f 635 194 62 
f 360 62 194 
f 357 196 195 
f 242 195 196 
f 192 198 197 
f 517 197 198 
f 650 104 199 
f 201 161 160 
f 680 200 151 
f 611 151 200 
f 159 201 160 
f 202 137 161 
f 202 161 201 
f 318 147 203 
f 224 203 147 
f 267 204 195 
f 414 195 204 
f 601 206 205 
f 499 205 206 
f 308 208 207 
f 614 207 208 
f 209 138 202 
f 139 138 209 
f 480 211 210 
f 50 210 211 
f 212 139 209 
f 670 213 193 
f 653 193 213 
f 608 215 214 
f 404 214 215 
f 541 216 12 
f 528 218 217 
f 472 217 218 
f 103 219 199 
f 73 199 219 
f 166 220 54 
f 633 222 221 
f 723 221 222 
f 527 224 223 
f 370 223 224 
f 674 226 225 
f 699 225 226 
f 654 228 227 
f 34 227 228 
f 655 229 93 
f 476 93 229 
f 588 174 230 
f 489 36 231 
f 599 12 232 
f 235 159 191 
f 315 234 233 
f 663 233 234 
f 190 235 191 
f 653 56 198 
f 683 198 56 
f 120 236 221 
f 633 221 236 
f 625 82 237 
f 415 237 82 
f 741 238 94 
f 292 240 239 
f 350 239 240 
f 211 241 50 
f 344 50 241 
f 336 202 201 
f 620 195 242 
f 469 151 226 
f 99 244 243 
f 566 243 244 
f 634 80 117 
f 348 117 80 
f 285 246 245 
f 522 245 246 
f 485 248 247 
f 482 247 248 
f 347 250 249 
f 509 249 250 
f 490 95 238 
f 387 252 251 
f 582 251 252 
f 261 254 253 
f 663 253 254 
f 580 256 255 
f 373 255 256 
f 674 258 257 
f 162 257 258 
f 580 255 259 
f 700 259 255 
f 541 261 260 
f 607 260 261 
f 467 263 262 
f 32 262 263 
f 123 89 264 
f 468 264 89 
f 534 33 265 
f 389 265 33 
f 416 233 266 
f 663 266 233 
f 620 267 195 
f 742 269 268 
f 52 268 269 
f 281 271 270 
f 436 270 271 
f 162 273 272 
f 175 272 273 
f 443 187 274 
f 518 275 142 
f 525 276 187 
f 322 187 276 
f 355 122 277 
f 638 277 122 
f 391 41 35 
f 450 35 41 
f 502 190 278 
f 189 278 190 
f 186 280 279 
f 652 279 280 
f 296 282 281 
f 271 281 282 
f 332 36 283 
f 489 283 36 
f 336 201 235 
f 159 235 201 
f 602 284 51 
f 702 51 284 
f 362 246 285 
f 510 287 286 
f 728 286 287 
f 523 289 288 
f 702 288 289 
f 443 274 290 
f 598 290 274 
f 597 292 291 
f 239 291 292 
f 583 294 293 
f 330 293 294 
f 562 30 295 
f 454 282 296 
f 360 298 297 
f 568 297 298 
f 336 299 202 
f 209 202 299 
f 400 301 300 
f 506 300 301 
f 302 209 299 
f 212 209 302 
f 588 43 303 
f 371 6 304 
f 131 304 6 
f 212 143 140 
f 505 305 150 
f 652 307 306 
f 417 306 307 
f 408 226 152 
f 270 208 308 
f 328 310 309 
f 600 309 310 
f 627 312 311 
f 297 311 312 
f 57 314 313 
f 372 313 314 
f 416 315 233 
f 399 316 39 
f 384 39 316 
f 711 317 164 
f 641 164 317 
f 199 319 318 
f 148 318 319 
f 506 321 320 
f 480 320 321 
f 291 322 276 
f 100 324 323 
f 593 323 324 
f 634 262 32 
f 526 14 325 
f 485 325 14 
f 189 264 326 
f 468 326 264 
f 743 328 327 
f 309 327 328 
f 120 221 329 
f 713 329 221 
f 324 331 330 
f 293 330 331 
f 373 332 283 
f 616 127 333 
f 584 333 127 
f 440 335 334 
f 250 334 335 
f 424 299 336 
f 404 338 337 
f 715 337 338 
f 697 340 339 
f 413 339 340 
f 607 261 341 
f 253 341 261 
f 10 342 4 
f 1 4 342 
f 559 343 129 
f 513 129 343 
f 534 50 344 
f 83 346 345 
f 716 345 346 
f 51 347 249 
f 30 349 348 
f 117 348 349 
f 603 351 350 
f 239 350 351 
f 90 7 352 
f 371 352 7 
f 522 81 353 
f 503 353 81 
f 231 37 354 
f 44 354 37 
f 173 70 230 
f 641 355 277 
f 570 357 356 
f 414 356 357 
f 593 359 358 
f 371 358 359 
f 194 361 360 
f 298 360 361 
f 622 288 362 
f 719 362 288 
f 353 363 245 
f 285 245 363 
f 721 365 364 
f 696 364 365 
f 627 366 312 
f 637 312 366 
f 438 367 6 
f 131 6 367 
f 64 369 368 
f 396 368 369 
f 390 369 64 
f 569 370 267 
f 147 267 370 
f 653 314 57 
f 3 368 20 
f 396 20 368 
f 352 371 359 
f 376 368 3 
f 376 3 1 
f 700 373 372 
f 177 372 373 
f 467 375 374 
f 666 374 375 
f 342 376 1 
f 414 204 148 
f 239 351 377 
f 272 377 351 
f 420 185 378 
f 461 378 185 
f 479 380 379 
f 747 379 380 
f 170 382 381 
f 551 381 382 
f 406 384 383 
f 149 383 384 
f 598 274 188 
f 175 384 316 
f 279 106 385 
f 549 385 106 
f 477 70 173 
f 661 387 386 
f 720 386 387 
f 688 389 388 
f 466 388 389 
f 393 369 390 
f 649 392 391 
f 707 391 392 
f 395 369 393 
f 395 394 19 
f 48 19 394 
f 396 395 19 
f 369 395 396 
f 708 398 397 
f 645 397 398 
f 322 399 188 
f 39 188 399 
f 582 400 300 
f 19 20 396 
f 480 210 401 
f 355 401 210 
f 712 403 402 
f 290 402 403 
f 718 166 54 
f 743 338 404 
f 635 63 405 
f 629 405 63 
f 625 26 82 
f 78 82 26 
f 384 406 39 
f 145 407 60 
f 692 60 407 
f 459 408 152 
f 567 116 409 
f 85 409 116 
f 626 411 410 
f 646 410 411 
f 518 315 275 
f 416 275 315 
f 476 412 102 
f 579 102 412 
f 645 413 397 
f 45 397 413 
f 271 237 415 
f 172 416 266 
f 379 417 307 
f 751 419 418 
f 141 418 419 
f 86 420 378 
f 47 87 394 
f 395 47 394 
f 393 47 395 
f 439 418 141 
f 716 421 345 
f 740 345 421 
f 664 105 240 
f 520 240 105 
f 205 13 216 
f 482 423 422 
f 475 422 423 
f 302 299 424 
f 628 426 425 
f 562 425 426 
f 313 428 427 
f 329 427 428 
f 508 429 142 
f 518 142 429 
f 669 430 280 
f 652 280 430 
f 727 431 430 
f 652 430 431 
f 658 217 432 
f 472 432 217 
f 477 434 433 
f 453 433 434 
f 74 414 148 
f 437 392 435 
f 718 435 392 
f 456 270 436 
f 303 437 435 
f 608 214 86 
f 420 86 214 
f 367 438 281 
f 296 281 438 
f 275 439 141 
f 46 123 87 
f 406 383 440 
f 335 440 383 
f 522 353 245 
f 435 441 303 
f 588 303 441 
f 704 442 34 
f 666 375 65 
f 171 275 416 
f 630 443 444 
f 552 444 443 
f 673 119 445 
f 726 445 119 
f 593 446 359 
f 592 359 446 
f 752 295 31 
f 672 448 447 
f 100 447 448 
f 690 450 449 
f 493 449 450 
f 489 231 451 
f 478 451 231 
f 35 442 391 
f 649 391 442 
f 92 102 124 
f 579 124 102 
f 714 453 452 
f 257 452 453 
f 666 454 296 
f 456 146 455 
f 491 455 146 
f 436 146 456 
f 485 247 457 
f 8 457 247 
f 408 459 458 
f 614 458 459 
f 269 250 347 
f 725 461 460 
f 684 460 461 
f 69 463 462 
f 111 462 463 
f 468 89 464 
f 745 103 465 
f 550 465 103 
f 263 467 466 
f 710 466 467 
f 547 462 111 
f 453 470 469 
f 680 469 470 
f 637 366 471 
f 643 471 366 
f 125 123 264 
f 487 38 406 
f 484 473 167 
f 655 167 473 
f 503 241 211 
f 422 475 474 
f 581 474 475 
f 739 476 229 
f 722 477 173 
f 463 70 433 
f 477 433 70 
f 446 330 294 
f 184 420 214 
f 165 168 478 
f 586 380 479 
f 321 211 480 
f 542 280 481 
f 186 481 280 
f 9 482 422 
f 661 483 252 
f 589 252 483 
f 709 484 167 
f 532 485 457 
f 367 281 308 
f 270 308 281 
f 58 409 486 
f 85 486 409 
f 38 487 402 
f 521 402 487 
f 543 489 488 
f 451 488 489 
f 726 490 238 
f 538 458 491 
f 455 491 458 
f 441 53 174 
f 578 174 53 
f 449 493 492 
f 40 492 493 
f 553 494 273 
f 150 273 494 
f 321 363 353 
f 526 325 495 
f 531 495 325 
f 544 326 468 
f 730 497 496 
f 515 496 497 
f 538 408 458 
f 250 335 498 
f 305 498 335 
f 674 469 226 
f 688 388 90 
f 573 90 388 
f 439 171 499 
f 524 499 171 
f 639 500 278 
f 502 278 500 
f 122 265 501 
f 688 501 265 
f 235 190 502 
f 498 505 504 
f 565 504 505 
f 651 300 506 
f 301 507 506 
f 363 506 507 
f 642 509 508 
f 504 508 509 
f 610 511 510 
f 287 510 511 
f 655 512 167 
f 434 470 453 
f 541 12 261 
f 254 261 12 
f 749 365 513 
f 721 513 365 
f 660 514 486 
f 58 486 514 
f 576 515 497 
f 278 189 326 
f 390 516 393 
f 464 393 516 
f 118 197 517 
f 628 315 518 
f 467 262 375 
f 117 375 262 
f 565 71 429 
f 518 429 71 
f 543 120 176 
f 329 176 120 
f 674 225 258 
f 553 258 225 
f 558 490 519 
f 119 519 490 
f 240 520 350 
f 603 350 520 
f 487 334 521 
f 269 521 334 
f 260 522 246 
f 581 523 474 
f 622 474 523 
f 205 524 13 
f 232 13 524 
f 443 525 187 
f 607 522 260 
f 685 527 526 
f 14 526 527 
f 658 529 528 
f 554 528 529 
f 705 387 251 
f 594 449 530 
f 492 530 449 
f 325 532 531 
f 613 531 532 
f 484 144 473 
f 250 269 334 
f 459 533 130 
f 256 337 332 
f 715 332 337 
f 52 269 347 
f 733 302 424 
f 49 534 265 
f 17 535 128 
f 692 519 118 
f 250 498 509 
f 504 509 498 
f 63 537 536 
f 514 536 537 
f 733 538 302 
f 212 302 538 
f 621 540 539 
f 401 539 540 
f 284 216 541 
f 596 542 154 
f 481 154 542 
f 283 543 177 
f 557 71 544 
f 635 546 545 
f 549 545 546 
f 597 291 276 
f 585 548 547 
f 462 547 548 
f 648 545 549 
f 495 465 550 
f 571 381 551 
f 418 439 206 
f 499 206 439 
f 706 552 551 
f 403 551 552 
f 703 494 553 
f 529 555 554 
f 618 554 555 
f 637 471 537 
f 514 537 471 
f 478 354 165 
f 232 524 172 
f 397 45 556 
f 37 556 45 
f 716 346 144 
f 490 558 95 
f 472 95 558 
f 634 32 344 
f 643 559 129 
f 256 332 373 
f 534 344 33 
f 633 560 222 
f 687 222 560 
f 500 561 502 
f 563 502 561 
f 516 30 562 
f 564 563 561 
f 424 563 564 
f 384 175 149 
f 733 424 564 
f 279 306 106 
f 417 106 306 
f 163 110 452 
f 52 289 196 
f 242 196 289 
f 414 357 195 
f 504 565 429 
f 453 469 257 
f 674 257 469 
f 576 243 566 
f 115 567 96 
f 364 96 567 
f 311 297 568 
f 693 370 569 
f 746 571 570 
f 742 570 571 
f 438 573 572 
f 710 572 573 
f 8 575 574 
f 701 574 575 
f 647 169 180 
f 356 180 169 
f 113 436 415 
f 271 415 436 
f 700 314 213 
f 653 213 314 
f 702 289 52 
f 243 576 497 
f 750 460 577 
f 684 577 460 
f 124 579 578 
f 722 578 579 
f 592 352 359 
f 242 289 581 
f 523 581 289 
f 438 7 573 
f 90 573 7 
f 682 582 300 
f 656 584 583 
f 605 583 584 
f 605 16 294 
f 446 294 16 
f 610 586 585 
f 676 585 586 
f 565 505 494 
f 150 494 505 
f 562 587 516 
f 464 516 587 
f 43 588 230 
f 444 568 298 
f 582 252 589 
f 669 590 430 
f 727 430 590 
f 121 591 236 
f 633 236 591 
f 171 439 275 
f 352 592 91 
f 638 91 592 
f 183 385 546 
f 549 546 385 
f 330 593 324 
f 529 345 555 
f 740 555 345 
f 530 94 594 
f 679 596 595 
f 154 595 596 
f 145 346 84 
f 628 425 234 
f 729 234 425 
f 172 599 232 
f 309 600 483 
f 694 483 600 
f 284 602 601 
f 751 601 602 
f 373 283 177 
f 473 145 60 
f 385 186 279 
f 286 604 603 
f 351 603 604 
f 583 605 294 
f 81 607 606 
f 341 606 607 
f 115 608 86 
f 618 228 554 
f 654 554 228 
f 664 292 609 
f 597 609 292 
f 194 545 361 
f 738 361 545 
f 380 586 610 
f 64 368 376 
f 328 215 76 
f 608 76 215 
f 145 84 407 
f 432 407 84 
f 304 533 611 
f 152 611 533 
f 667 64 376 
f 612 376 342 
f 667 376 612 
f 589 613 400 
f 636 400 613 
f 572 374 296 
f 666 296 374 
f 459 130 614 
f 207 614 130 
f 646 411 382 
f 568 382 411 
f 517 229 61 
f 655 61 229 
f 212 538 491 
f 620 581 615 
f 475 615 581 
f 698 616 591 
f 633 591 616 
f 612 342 617 
f 10 617 342 
f 228 618 34 
f 704 34 618 
f 492 40 619 
f 437 619 40 
f 581 620 242 
f 413 621 45 
f 539 45 621 
f 288 622 523 
f 660 85 378 
f 553 225 561 
f 564 561 225 
f 644 238 623 
f 741 623 238 
f 540 480 401 
f 701 507 301 
f 9 422 624 
f 474 624 422 
f 282 625 237 
f 540 320 480 
f 271 282 237 
f 559 627 626 
f 311 626 627 
f 72 628 518 
f 725 629 536 
f 63 536 629 
f 361 630 298 
f 444 298 630 
f 622 362 631 
f 285 631 362 
f 46 393 464 
f 747 510 286 
f 744 224 527 
f 689 594 632 
f 95 632 594 
f 563 336 235 
f 241 80 634 
f 546 635 405 
f 552 290 403 
f 400 636 301 
f 701 301 636 
f 360 312 637 
f 457 8 574 
f 501 638 122 
f 75 639 544 
f 326 544 639 
f 69 43 230 
f 208 270 456 
f 427 179 640 
f 739 640 179 
f 360 297 312 
f 51 249 602 
f 642 602 249 
f 317 355 641 
f 740 618 555 
f 751 642 419 
f 508 419 642 
f 727 445 644 
f 726 644 445 
f 616 333 560 
f 656 560 333 
f 658 432 84 
f 383 149 305 
f 720 645 398 
f 749 410 646 
f 455 208 456 
f 722 515 477 
f 434 477 515 
f 73 219 647 
f 735 647 219 
f 664 648 105 
f 318 650 199 
f 15 527 223 
f 455 614 208 
f 76 310 328 
f 621 651 540 
f 320 540 651 
f 457 574 636 
f 701 636 574 
f 152 533 459 
f 426 587 562 
f 204 267 147 
f 279 652 306 
f 344 241 634 
f 749 513 343 
f 296 438 572 
f 380 610 510 
f 597 276 525 
f 722 173 578 
f 575 8 624 
f 589 400 582 
f 665 179 427 
f 257 163 452 
f 115 77 608 
f 528 554 654 
f 293 656 583 
f 704 657 442 
f 649 442 657 
f 272 659 162 
f 625 10 26 
f 536 514 660 
f 483 661 309 
f 386 309 661 
f 366 627 559 
f 709 166 662 
f 718 662 166 
f 560 633 616 
f 254 266 663 
f 325 485 532 
f 605 535 17 
f 672 179 665 
f 65 667 666 
f 454 666 667 
f 491 143 212 
f 559 626 343 
f 410 343 626 
f 43 69 668 
f 462 668 69 
f 713 427 329 
f 239 377 399 
f 316 399 377 
f 9 247 482 
f 542 670 669 
f 590 669 670 
f 673 197 118 
f 426 628 72 
f 387 661 252 
f 676 548 585 
f 405 629 153 
f 750 153 629 
f 724 277 638 
f 75 565 494 
f 471 643 58 
f 590 193 671 
f 596 670 542 
f 371 304 358 
f 691 358 304 
f 710 374 572 
f 175 316 377 
f 455 458 614 
f 585 547 511 
f 110 511 547 
f 495 531 181 
f 694 181 531 
f 401 355 317 
f 729 253 663 
f 558 407 432 
f 668 462 548 
f 729 425 295 
f 562 295 425 
f 651 506 320 
f 687 293 331 
f 677 575 624 
f 686 676 675 
f 741 675 676 
f 499 524 205 
f 612 454 667 
f 631 575 677 
f 62 360 637 
f 617 10 625 
f 172 266 599 
f 254 599 266 
f 435 54 441 
f 77 182 678 
f 681 609 597 
f 472 558 432 
f 731 679 595 
f 17 168 164 
f 746 356 169 
f 715 36 332 
f 469 680 151 
f 636 613 532 
f 747 603 520 
f 256 184 404 
f 214 404 184 
f 512 220 166 
f 684 185 580 
f 361 681 630 
f 525 630 681 
f 651 682 300 
f 710 388 466 
f 517 198 683 
f 731 577 684 
f 34 450 227 
f 690 227 450 
f 706 551 382 
f 29 615 423 
f 475 423 615 
f 550 685 526 
f 548 676 686 
f 16 641 277 
f 485 14 248 
f 92 124 220 
f 706 382 568 
f 656 293 687 
f 256 580 184 
f 389 688 265 
f 684 461 185 
f 601 205 216 
f 218 690 689 
f 449 689 690 
f 127 535 584 
f 605 584 535 
f 611 691 304 
f 198 192 653 
f 199 73 319 
f 399 291 239 
f 290 598 38 
f 517 692 118 
f 162 258 273 
f 553 273 258 
f 717 144 484 
f 223 693 15 
f 28 15 693 
f 589 694 613 
f 531 613 694 
f 284 601 216 
f 530 492 695 
f 619 695 492 
f 723 222 687 
f 503 321 353 
f 557 426 72 
f 537 62 637 
f 192 197 673 
f 735 696 365 
f 732 511 110 
f 251 582 697 
f 682 697 582 
f 591 121 698 
f 451 698 121 
f 675 695 686 
f 42 686 695 
f 721 364 567 
f 408 538 699 
f 733 699 538 
f 321 503 211 
f 520 417 379 
f 714 463 433 
f 558 519 407 
f 692 407 519 
f 487 406 440 
f 255 373 700 
f 262 634 117 
f 649 662 392 
f 718 392 662 
f 588 441 174 
f 200 566 244 
f 736 646 170 
f 382 170 646 
f 311 568 411 
f 431 644 623 
f 532 457 636 
f 75 494 703 
f 421 657 704 
f 720 387 705 
f 568 444 706 
f 552 706 444 
f 282 454 617 
f 612 617 454 
f 437 707 392 
f 541 702 284 
f 734 398 708 
f 722 579 515 
f 496 515 579 
f 679 670 596 
f 178 412 476 
f 429 508 504 
f 699 226 408 
f 639 278 326 
f 657 709 662 
f 619 42 695 
f 675 530 695 
f 467 374 710 
f 654 227 690 
f 319 74 148 
f 121 488 451 
f 314 700 372 
f 370 224 147 
f 556 708 397 
f 576 434 515 
f 83 529 658 
f 566 434 576 
f 632 472 218 
f 705 339 645 
f 413 645 339 
f 632 218 689 
f 551 403 712 
f 471 58 514 
f 683 57 640 
f 313 640 57 
f 292 664 240 
f 665 427 713 
f 730 496 412 
f 579 412 496 
f 111 714 452 
f 748 448 672 
f 749 343 410 
f 431 307 652 
f 390 349 30 
f 550 526 495 
f 678 600 310 
f 495 181 465 
f 703 639 75 
f 144 717 716 
f 421 716 717 
f 323 593 358 
f 489 543 283 
f 54 435 718 
f 248 28 482 
f 423 482 28 
f 229 517 683 
f 533 304 131 
f 741 94 675 
f 530 675 94 
f 714 433 453 
f 246 719 260 
f 541 260 719 
f 679 259 213 
f 700 213 259 
f 600 181 694 
f 520 105 417 
f 719 288 702 
f 604 272 351 
f 717 484 709 
f 486 85 660 
f 516 390 30 
f 705 697 339 
f 41 493 450 
f 106 648 549 
f 256 404 337 
f 383 305 335 
f 478 128 698 
f 401 317 711 
f 713 221 723 
f 16 277 724 
f 460 629 725 
f 238 644 726 
f 599 254 12 
f 446 593 330 
f 38 402 290 
f 318 203 650 
f 744 650 203 
f 638 501 91 
f 688 91 501 
f 557 468 464 
f 703 500 639 
f 644 431 727 
f 604 286 728 
f 668 548 686 
f 234 729 663 
f 60 655 473 
f 99 497 730 
f 42 668 686 
f 679 731 259 
f 580 259 731 
f 82 113 415 
f 287 511 732 
f 738 609 681 
f 693 569 29 
f 615 29 569 
f 726 119 490 
f 564 699 733 
f 691 323 358 
f 542 669 280 
f 200 691 611 
f 386 720 734 
f 398 734 720 
f 678 310 76 
f 745 696 103 
f 219 103 696 
f 744 527 685 
f 730 447 99 
f 721 59 513 
f 679 213 670 
f 619 303 42 
f 566 470 434 
f 365 736 735 
f 647 735 736 
f 81 606 348 
f 31 348 606 
f 419 508 142 
f 427 640 313 
f 437 40 707 
f 334 487 440 
f 507 737 363 
f 285 363 737 
f 399 322 291 
f 624 474 677 
f 622 677 474 
f 507 701 737 
f 575 737 701 
f 589 483 694 
f 648 738 545 
f 601 418 206 
f 207 367 308 
f 715 338 556 
f 708 556 338 
f 362 719 246 
f 414 180 356 
f 751 602 642 
f 561 500 703 
f 569 267 620 
f 409 721 567 
f 750 595 154 
f 640 739 683 
f 229 683 739 
f 411 626 311 
f 61 692 517 
f 689 449 594 
f 622 631 677 
f 361 738 681 
f 570 196 357 
f 180 414 74 
f 732 728 287 
f 225 699 564 
f 676 586 741 
f 623 741 586 
f 338 734 708 
f 192 673 671 
f 445 671 673 
f 630 525 443 
f 461 725 378 
f 660 378 725 
f 664 609 738 
f 570 742 268 
f 235 502 563 
f 740 421 704 
f 734 743 327 
f 704 618 740 
f 512 92 220 
f 506 363 321 
f 705 645 720 
f 587 426 557 
f 479 623 586 
f 389 263 466 
f 658 528 217 
f 647 736 170 
f 714 111 463 
f 597 525 681 
f 498 305 505 
f 724 592 446 
f 712 402 521 
f 96 745 182 
f 465 182 745 
f 712 571 551 
f 655 93 512 
f 323 691 244 
f 200 244 691 
f 712 521 742 
f 269 742 521 
f 356 746 570 
f 566 680 470 
f 380 510 747 
f 244 100 323 
f 354 478 231 
f 723 687 748 
f 331 748 687 
f 705 251 697 
f 665 713 723 
f 598 188 39 
f 478 698 451 
f 620 615 569 
f 448 748 331 
f 657 662 649 
f 446 16 724 
f 573 388 710 
f 196 570 268 
f 178 672 447 
f 577 595 750 
f 746 381 571 
f 702 541 719 
f 707 41 391 
f 697 682 340 
f 651 340 682 
f 544 468 557 
f 370 693 223 
f 592 724 638 
f 464 587 557 
f 619 437 303 
f 178 730 412 
f 104 650 744 
f 529 83 345 
f 488 120 543 
f 479 431 623 
f 743 734 338 
f 742 571 712 
f 752 253 729 
f 752 606 341 
f 418 601 751 
f 189 125 264 
f 215 328 743 
f 727 590 671 
f 448 331 324 
f 364 696 745 
f 732 659 728 
f 604 728 659 
f 421 717 657 
f 709 657 717 
f 749 646 736 
f 656 333 584 
f 545 194 635 
f 479 307 431 
f 680 566 200 
f 379 747 520 
f 175 377 272 
f 595 577 731 
f 28 248 15 
f 641 17 164 
f 324 100 448 
f 625 282 617 
f 349 390 65 
f 727 671 445 
f 81 522 607 
f 272 604 659 
f 698 127 616 
f 295 752 729 
f 104 744 685 
f 643 366 559 
f 561 703 553 
f 631 285 737 
f 290 552 443 
f 163 659 732 
f 556 37 715 
f 372 177 428 
f 585 511 610 
f 178 476 739 
f 313 372 428 
f 752 341 253 
f 336 563 424 
f 241 503 80 
f 656 687 560 
f 642 249 509 
f 606 752 31 
f 327 309 386 
f 748 672 665 
f 665 723 748 
f 224 744 203 
f 696 735 219 
f 59 721 409 
f 738 648 664 
f 33 263 389 
f 736 365 749 
f 632 95 472 
f 193 590 670 
f 746 170 381 
f 413 340 621 
f 651 621 340 
f 575 631 737 
f 447 730 178 
f 528 654 218 
f 690 218 654 
f 327 386 734 
f 364 745 96 
f 207 131 367 
f 196 268 52 
f 110 163 732 
f 99 243 497 
f 731 684 580 
f 747 286 603 
f 628 234 315 
f 546 405 183 
f 355 210 49 
f 685 550 104 
f 307 479 379 
f 176 329 428 
f 536 660 725 
f 539 711 44 
f 711 539 401 
f 181 600 678 
f 215 743 404 
f 629 460 750 
