#  wavefront obj file written by the visualization toolkit

mtllib liverkyst.mtl

v 105.41600036621094 172.56100463867188 135.14599609375
v 105.63500213623047 172.302001953125 135.73300170898438
v 105.85900115966797 172.5970001220703 134.7989959716797
v 106.22699737548828 172.1739959716797 135.70700073242188
v 106.4729995727539 172.54800415039062 134.72900390625
v 106.7229995727539 172.31700134277344 135.33599853515625
v 106.98400115966797 172.61700439453125 134.85400390625
v 107.09400177001953 172.46400451660156 135.79299926757812
v 104.9800033569336 173.10000610351562 135.34300231933594
v 105.19000244140625 172.7449951171875 135.20799255371094
v 105.40499877929688 172.99099731445312 134.74099731445312
v 105.86900329589844 173.10699462890625 134.46099853515625
v 106.33699798583984 173.0229949951172 134.44500732421875
v 106.88600158691406 173.02000427246094 134.49899291992188
v 107.3280029296875 172.73500061035156 135.31399536132812
v 107.33599853515625 173.03700256347656 134.86000061035156
v 107.54000091552734 173.00799560546875 135.63699340820312
v 104.88500213623047 173.7220001220703 135.22300720214844
v 105.27400207519531 173.59100341796875 134.68800354003906
v 105.76899719238281 173.57000732421875 134.44500732421875
v 106.31300354003906 173.572998046875 134.39999389648438
v 106.86100006103516 173.56500244140625 134.44000244140625
v 107.33200073242188 173.5399932861328 134.7259979248047
v 107.60299682617188 173.41200256347656 135.5260009765625
v 104.79499816894531 174.17999267578125 135.125
v 105.18699645996094 174.22799682617188 134.6320037841797
v 105.74199676513672 174.14100646972656 134.43699645996094
v 106.2969970703125 174.1269989013672 134.39999389648438
v 106.84100341796875 174.1300048828125 134.44500732421875
v 107.31900024414062 174.11500549316406 134.73599243164062
v 107.61499786376953 173.9510040283203 135.50599670410156
v 104.4729995727539 174.7429962158203 135.55799865722656
v 104.57599639892578 174.35800170898438 135.5019989013672
v 104.8239974975586 174.68099975585938 134.77200317382812
v 105.28800201416016 174.80999755859375 134.4510040283203
v 105.73500061035156 174.71099853515625 134.41700744628906
v 106.27799987792969 174.68499755859375 134.4219970703125
v 106.73899841308594 174.60400390625 134.45700073242188
v 107.20700073242188 174.72999572753906 134.81199645996094
v 107.5790023803711 174.57899475097656 135.6649932861328
v 104.4520034790039 175.29400634765625 135.86700439453125
v 104.71499633789062 175.2259979248047 134.86900329589844
v 105.17400360107422 175.25599670410156 134.50399780273438
v 105.71199798583984 175.25599670410156 134.44500732421875
v 106.18000030517578 175.156005859375 134.45700073242188
v 106.72799682617188 175.23199462890625 134.76100158691406
v 107.20600128173828 175.2949981689453 135.54400634765625
v 107.4530029296875 175.02000427246094 135.53900146484375
v 104.70700073242188 175.58900451660156 135.16600036621094
v 104.88600158691406 175.81700134277344 135.22999572753906
v 105.04199981689453 175.6649932861328 134.81500244140625
v 105.56300354003906 175.72900390625 134.71400451660156
v 106.18499755859375 175.68699645996094 134.7830047607422
v 106.63999938964844 175.84800720214844 135.54400634765625
v 106.91999816894531 175.5970001220703 135.54200744628906
v 105.19100189208984 176.0449981689453 135.5070037841797
v 105.85199737548828 176.1060028076172 135.30099487304688
v 106.29000091552734 176.1009979248047 135.52699279785156
v 106.18099975585938 171.9340057373047 136.57000732421875
v 106.30500030517578 171.8489990234375 136.8000030517578
v 106.38099670410156 171.9409942626953 136.44400024414062
v 106.43199920654297 171.9409942626953 137.01300048828125
v 104.97799682617188 172.61099243164062 137.10000610351562
v 105.38800048828125 172.31500244140625 137.01400756835938
v 105.1510009765625 172.57200622558594 135.88099670410156
v 105.92900085449219 172.10299682617188 136.8820037841797
v 106.70099639892578 172.1719970703125 136.6199951171875
v 107.13700103759766 172.54800415039062 137.24000549316406
v 104.50700378417969 173.20799255371094 136.92300415039062
v 104.6729965209961 172.88600158691406 137.11700439453125
v 104.7490005493164 172.91799926757812 136.28799438476562
v 107.40699768066406 172.77099609375 136.33099365234375
v 107.59700012207031 173.20700073242188 136.82699584960938
v 104.44599914550781 173.6490020751953 136.72900390625
v 104.63400268554688 173.41700744628906 136.0279998779297
v 107.69100189208984 173.6649932861328 136.53199768066406
v 104.40899658203125 174.16000366210938 136.66700744628906
v 104.59700012207031 173.93499755859375 135.88499450683594
v 107.68699645996094 174.13999938964844 136.7760009765625
v 104.3499984741211 174.70599365234375 136.8459930419922
v 107.60800170898438 174.68600463867188 137.00100708007812
v 104.3489990234375 175.16299438476562 137.1280059814453
v 107.43299865722656 175.24600219726562 135.97900390625
v 107.53700256347656 175.08599853515625 136.36500549316406
v 104.46199798583984 175.67100524902344 137.10400390625
v 104.68499755859375 175.79299926757812 135.85000610351562
v 106.875 175.81399536132812 136
v 107.08200073242188 175.64599609375 136.48399353027344
v 107.36799621582031 175.3730010986328 136.4499969482422
v 104.81900024414062 176.093994140625 136.81199645996094
v 105.06700134277344 176.33900451660156 137.05599975585938
v 105.15299987792969 176.33299255371094 136.3249969482422
v 105.5739974975586 176.375 136.04400634765625
v 106.07499694824219 176.36900329589844 136.12899780273438
v 106.4990005493164 176.19900512695312 136.53599548339844
v 106.81700134277344 175.94500732421875 136.48500061035156
v 105.33100128173828 176.47000122070312 136.7030029296875
v 105.73500061035156 176.4969940185547 136.8000030517578
v 106.1500015258789 176.44500732421875 136.9239959716797
v 106.23100280761719 171.9340057373047 137.13900756835938
v 105.19999694824219 172.44900512695312 137.61300659179688
v 105.4260025024414 172.4149932861328 138.07000732421875
v 105.81099700927734 172.29400634765625 138.08200073242188
v 106.37899780273438 172.16400146484375 137.85299682617188
v 106.83799743652344 172.3179931640625 137.91000366210938
v 107.0009994506836 172.5919952392578 138.33299255371094
v 104.58300018310547 173.11099243164062 137.68800354003906
v 104.85800170898438 172.9040069580078 137.9669952392578
v 105.20500183105469 172.6540069580078 138.1959991455078
v 107.21800231933594 172.94500732421875 138.24200439453125
v 107.39700317382812 172.92100524902344 137.41900634765625
v 104.46299743652344 173.56500244140625 137.7729949951172
v 104.71600341796875 173.2469940185547 138.39100646972656
v 107.45999908447266 173.23500061035156 138.0229949951172
v 107.58599853515625 173.68499755859375 137.87899780273438
v 104.43599700927734 174.1580047607422 138.03900146484375
v 107.57099914550781 174.26199340820312 137.9219970703125
v 104.4229965209961 174.72500610351562 138.10800170898438
v 107.1729965209961 174.8939971923828 138.36700439453125
v 107.3290023803711 174.47000122070312 138.4720001220703
v 107.45899963378906 174.69000244140625 137.85699462890625
v 104.43699645996094 175.27000427246094 138.1529998779297
v 107.02899932861328 175.33799743652344 138.2239990234375
v 107.32599639892578 175.22500610351562 137.37899780273438
v 104.50499725341797 175.67999267578125 138.29800415039062
v 106.5199966430664 175.90899658203125 138.24200439453125
v 106.74800109863281 175.59300231933594 138.4530029296875
v 106.84600067138672 175.81300354003906 137.5240020751953
v 104.63999938964844 175.947998046875 137.93099975585938
v 105.02400207519531 176.10899353027344 138.0290069580078
v 105.38600158691406 176.3800048828125 137.46800231933594
v 105.56500244140625 176.11199951171875 138.3249969482422
v 105.88400268554688 176.36599731445312 137.6020050048828
v 106.0999984741211 176.0570068359375 138.34300231933594
v 106.36299896240234 176.218994140625 137.5749969482422
v 105.71099853515625 172.66400146484375 138.81399536132812
v 106.3010025024414 172.53199768066406 138.8280029296875
v 106.71700286865234 172.45700073242188 138.64199829101562
v 105.22200012207031 173.13800048828125 138.86700439453125
v 105.83599853515625 173.13099670410156 139.14300537109375
v 106.30999755859375 173.0229949951172 139.13800048828125
v 106.84700012207031 172.927001953125 138.91600036621094
v 104.7760009765625 173.6959991455078 138.8090057373047
v 105.28399658203125 173.69000244140625 139.14300537109375
v 105.75499725341797 173.5919952392578 139.17799377441406
v 106.30500030517578 173.56500244140625 139.1999969482422
v 106.83999633789062 173.531005859375 139.1280059814453
v 107.26599884033203 173.4250030517578 138.73500061035156
v 104.71299743652344 174.32699584960938 138.8780059814453
v 105.19300079345703 174.16700744628906 139.15499877929688
v 105.74299621582031 174.14300537109375 139.1999969482422
v 106.30000305175781 174.11099243164062 139.18299865722656
v 106.76300048828125 174.0050048828125 139.1490020751953
v 107.25900268554688 174.01800537109375 138.80299377441406
v 104.70800018310547 174.90199279785156 138.88400268554688
v 105.17900085449219 174.73300170898438 139.16099548339844
v 105.72699737548828 174.69700622558594 139.1999969482422
v 106.28800201416016 174.6719970703125 139.1580047607422
v 106.87899780273438 174.52000427246094 138.96299743652344
v 104.71900177001953 175.43800354003906 138.8679962158203
v 105.17900085449219 175.28900146484375 139.12100219726562
v 105.7300033569336 175.24099731445312 139.15499877929688
v 106.19300079345703 175.14100646972656 139.13900756835938
v 106.71700286865234 175.1529998779297 138.85899353027344
v 104.75299835205078 175.822998046875 138.6529998779297
v 105.15599822998047 175.76800537109375 138.86300659179688
v 105.70600128173828 175.73199462890625 138.91799926757812
v 106.2979965209961 175.61500549316406 138.85699462890625

g grp1
usemtl mtl1
f 2 1 3 
f 5 4 3 
f 3 4 2 
f 7 6 5 
f 5 6 4 
f 7 8 6 
f 10 9 11 
f 10 11 1 
f 11 3 1 
f 11 12 3 
f 3 13 5 
f 3 12 13 
f 5 14 7 
f 5 13 14 
f 8 7 15 
f 7 16 15 
f 7 14 16 
f 16 17 15 
f 11 9 19 
f 19 9 18 
f 11 20 12 
f 11 19 20 
f 12 21 13 
f 12 20 21 
f 13 22 14 
f 13 21 22 
f 14 23 16 
f 14 22 23 
f 17 16 24 
f 24 16 23 
f 19 18 26 
f 26 18 25 
f 19 27 20 
f 19 26 27 
f 20 28 21 
f 20 27 28 
f 21 29 22 
f 21 28 29 
f 22 30 23 
f 22 29 30 
f 24 23 31 
f 31 23 30 
f 33 32 34 
f 33 34 25 
f 34 26 25 
f 34 35 26 
f 26 36 27 
f 26 35 36 
f 27 37 28 
f 27 36 37 
f 28 38 29 
f 28 37 38 
f 29 39 30 
f 29 38 39 
f 31 30 40 
f 40 30 39 
f 34 32 42 
f 42 32 41 
f 34 43 35 
f 34 42 43 
f 35 44 36 
f 35 43 44 
f 36 45 37 
f 36 44 45 
f 37 46 38 
f 37 45 46 
f 48 39 47 
f 39 46 47 
f 39 38 46 
f 39 48 40 
f 41 49 42 
f 50 51 49 
f 51 42 49 
f 51 43 42 
f 43 52 44 
f 43 51 52 
f 44 53 45 
f 44 52 53 
f 55 46 54 
f 46 53 54 
f 46 45 53 
f 46 55 47 
f 50 56 51 
f 51 56 52 
f 52 56 57 
f 52 57 53 
f 53 57 58 
f 53 58 54 
f 60 59 61 
f 61 62 60 
f 64 63 65 
f 1 2 65 
f 2 64 65 
f 2 66 64 
f 4 61 59 
f 66 4 59 
f 2 4 66 
f 67 62 61 
f 4 67 61 
f 6 67 4 
f 6 8 67 
f 67 8 68 
f 70 69 71 
f 70 71 63 
f 63 71 65 
f 71 9 65 
f 9 10 65 
f 65 10 1 
f 72 68 8 
f 72 8 15 
f 15 17 72 
f 72 17 73 
f 71 69 75 
f 75 69 74 
f 75 18 9 
f 75 9 71 
f 24 73 17 
f 24 76 73 
f 75 74 78 
f 78 74 77 
f 78 25 18 
f 78 18 75 
f 31 76 24 
f 31 79 76 
f 78 77 33 
f 77 32 33 
f 77 80 32 
f 78 33 25 
f 40 79 31 
f 40 81 79 
f 80 41 32 
f 82 41 80 
f 47 83 48 
f 83 84 48 
f 84 40 48 
f 84 81 40 
f 49 41 86 
f 41 85 86 
f 41 82 85 
f 86 50 49 
f 54 87 55 
f 87 88 55 
f 55 88 47 
f 88 89 47 
f 89 83 47 
f 83 89 84 
f 85 90 86 
f 90 91 92 
f 90 92 56 
f 86 90 56 
f 50 86 56 
f 93 57 56 
f 93 56 92 
f 94 58 57 
f 94 57 93 
f 94 95 58 
f 58 95 54 
f 95 96 54 
f 96 87 54 
f 87 96 88 
f 91 97 92 
f 92 97 93 
f 93 97 98 
f 93 98 94 
f 94 98 99 
f 94 99 95 
f 100 59 60 
f 62 100 60 
f 101 63 64 
f 101 64 102 
f 64 103 102 
f 64 66 103 
f 66 59 100 
f 104 66 100 
f 103 66 104 
f 104 100 62 
f 67 104 62 
f 105 104 67 
f 67 68 105 
f 105 68 106 
f 107 69 70 
f 108 107 70 
f 108 70 63 
f 109 108 63 
f 101 109 63 
f 109 101 102 
f 68 72 111 
f 110 68 111 
f 106 68 110 
f 73 111 72 
f 113 112 107 
f 112 69 107 
f 112 74 69 
f 113 107 108 
f 114 110 111 
f 111 73 114 
f 73 115 114 
f 73 76 115 
f 112 77 74 
f 116 77 112 
f 79 115 76 
f 79 117 115 
f 116 80 77 
f 118 80 116 
f 119 120 121 
f 120 117 121 
f 117 81 121 
f 117 79 81 
f 118 82 80 
f 122 82 118 
f 119 121 124 
f 119 124 123 
f 84 124 81 
f 81 124 121 
f 122 85 82 
f 125 85 122 
f 126 127 128 
f 128 127 123 
f 128 123 124 
f 88 128 124 
f 89 88 124 
f 89 124 84 
f 125 129 85 
f 85 129 90 
f 130 131 91 
f 90 130 91 
f 129 130 90 
f 132 133 131 
f 132 131 130 
f 134 135 133 
f 134 133 132 
f 135 134 126 
f 135 126 128 
f 95 135 128 
f 96 95 128 
f 96 128 88 
f 131 97 91 
f 97 131 98 
f 98 131 133 
f 98 133 99 
f 99 133 135 
f 99 135 95 
f 136 102 103 
f 104 137 103 
f 103 137 136 
f 105 138 104 
f 104 138 137 
f 106 138 105 
f 139 108 109 
f 102 136 109 
f 136 139 109 
f 136 140 139 
f 141 136 137 
f 140 136 141 
f 142 137 138 
f 141 137 142 
f 110 142 106 
f 106 142 138 
f 143 112 113 
f 108 139 113 
f 139 143 113 
f 139 144 143 
f 145 139 140 
f 144 139 145 
f 146 140 141 
f 145 140 146 
f 147 141 142 
f 146 141 147 
f 114 148 110 
f 148 142 110 
f 148 147 142 
f 115 148 114 
f 149 116 143 
f 143 116 112 
f 150 143 144 
f 149 143 150 
f 151 144 145 
f 150 144 151 
f 152 145 146 
f 151 145 152 
f 153 146 147 
f 152 146 153 
f 154 147 148 
f 153 147 154 
f 117 154 115 
f 115 154 148 
f 155 118 149 
f 149 118 116 
f 156 149 150 
f 155 149 156 
f 157 150 151 
f 156 150 157 
f 158 151 152 
f 157 151 158 
f 159 152 153 
f 158 152 159 
f 119 159 120 
f 159 154 120 
f 159 153 154 
f 120 154 117 
f 160 122 155 
f 155 122 118 
f 161 155 156 
f 160 155 161 
f 162 156 157 
f 161 156 162 
f 163 157 158 
f 162 157 163 
f 164 158 159 
f 163 158 164 
f 123 164 119 
f 119 164 159 
f 165 125 160 
f 160 125 122 
f 166 160 161 
f 165 160 166 
f 167 161 162 
f 166 161 167 
f 168 162 163 
f 167 162 168 
f 126 168 127 
f 168 164 127 
f 168 163 164 
f 127 164 123 
f 165 129 125 
f 129 165 130 
f 130 165 166 
f 130 166 132 
f 132 166 167 
f 132 167 134 
f 134 167 168 
f 134 168 126 
