#  wavefront obj file written by the visualization toolkit

mtllib livertumor04.mtl

v 112.69100189208984 136.57699584960938 147.0970001220703
v 112.60700225830078 136.31199645996094 147.9409942626953
v 119.32099914550781 142.89199829101562 158.87399291992188
v 118.87200164794922 142.8350067138672 156.80499267578125
v 111.02100372314453 134.91299438476562 151.70899963378906
v 110.73400115966797 133.25599670410156 154.05799865722656
v 115.9990005493164 138.60899353027344 147.43099975585938
v 116.41999816894531 138.0399932861328 148.29100036621094
v 115.3489990234375 144.86700439453125 156.71499633789062
v 116.59700012207031 144.49899291992188 156.18499755859375
v 111.68099975585938 138.35699462890625 144.32699584960938
v 112.03399658203125 137.66600036621094 144.91200256347656
v 112.2030029296875 137.97799682617188 144.36900329589844
v 112.81300354003906 137.8249969482422 144.75900268554688
v 112.16500091552734 138.38400268554688 144.1179962158203
v 112.64299774169922 138.2969970703125 144.1840057373047
v 111.74199676513672 136.73300170898438 147.0970001220703
v 113.90299987792969 130.67799377441406 162.99000549316406
v 112.69000244140625 131.3209991455078 165.22500610351562
v 105.8239974975586 138.61900329589844 156.2010040283203
v 106.7509994506836 137.75999450683594 154.0399932861328
v 108.46199798583984 138.96200561523438 148.7899932861328
v 108.98500061035156 138.59300231933594 147.82400512695312
v 110.86499786376953 131.33999633789062 162.85000610351562
v 110.96600341796875 131.02099609375 159.7830047607422
v 117.33899688720703 144.58900451660156 159.7899932861328
v 118.1449966430664 144.03900146484375 158.64599609375
v 111.05999755859375 138.86000061035156 144.3560028076172
v 111.26699829101562 138.18800354003906 144.80599975585938
v 111.55999755859375 139.20799255371094 144.0760040283203
v 112.05400085449219 138.86300659179688 144.05099487304688
v 112.5989990234375 138.81900024414062 144.0229949951172
v 113.17900085449219 138.33599853515625 144.43299865722656
v 113.15799713134766 138.80499267578125 144.13600158691406
v 113.61299896240234 138.19400024414062 145.03399658203125
v 115.18499755859375 140.27499389648438 146.13099670410156
v 115.5510025024414 140.80799865722656 147.0760040283203
v 110.052001953125 141.38299560546875 146.14100646972656
v 109.83200073242188 141.45700073242188 147.4980010986328
v 105.17500305175781 137.13699340820312 161.22900390625
v 105.85900115966797 136.28399658203125 162.38800048828125
v 110.34200286865234 138.15899658203125 146.05799865722656
v 109.62300109863281 138.52499389648438 146.6959991455078
v 115.64199829101562 138.9040069580078 168
v 114.13300323486328 138.3769989013672 168
v 110.63300323486328 139.4409942626953 144.3730010986328
v 110.68099975585938 138.7570037841797 144.80999755859375
v 121.625 137.79100036621094 164.24400329589844
v 121.9489974975586 137.05799865722656 163.36500549316406
v 111.0510025024414 139.49200439453125 144.11399841308594
v 114.93000030517578 138.70700073242188 145.85800170898438
v 114.92400360107422 138.17599487304688 146.3040008544922
v 121.11699676513672 139.27200317382812 164.2259979248047
v 120.65399932861328 139.18899536132812 165.72799682617188
v 108.12999725341797 137.45599365234375 151.093994140625
v 108.62300109863281 137.44200134277344 149.9010009765625
v 112.0979995727539 139.41700744628906 144.00799560546875
v 112.5790023803711 139.3679962158203 144.0019989013672
v 113.14099884033203 139.36700439453125 144.0189971923828
v 113.71900177001953 138.77000427246094 144.57000732421875
v 113.69599914550781 139.34800720214844 144.19900512695312
v 113.26799774169922 140.41299438476562 144.08599853515625
v 113.08899688720703 139.8470001220703 144.01100158691406
v 106.4219970703125 140.0260009765625 157.6739959716797
v 108.1500015258789 141.76600646972656 157.96200561523438
v 120.72699737548828 138.2779998779297 157.82200622558594
v 119.5790023803711 137.28900146484375 156.0800018310547
v 119.71700286865234 139.74899291992188 154.20799255371094
v 119.61799621582031 141.26100158691406 155.9149932861328
v 119.00900268554688 141.14300537109375 150.8730010986328
v 119.48999786376953 140.24600219726562 152.28700256347656
v 110.18800354003906 139.39700317382812 144.9149932861328
v 110.43099975585938 140.197998046875 144.4029998779297
v 110.9739990234375 140.23300170898438 144.08599853515625
v 111.46399688720703 139.95599365234375 144.01499938964844
v 118.84500122070312 136.13499450683594 168
v 118.08499908447266 136.22999572753906 168
v 112.01499938964844 139.91099548339844 144.00399780273438
v 112.59700012207031 139.927001953125 144.00399780273438
v 113.62300109863281 139.9239959716797 144.09800720214844
v 114.2750015258789 139.32699584960938 144.75
v 114.15499877929688 139.88900756835938 144.42799377441406
v 108.79499816894531 136.08599853515625 152.0959930419922
v 109.91699981689453 135.48699951171875 151.6580047607422
v 119.75800323486328 136.06199645996094 167.46499633789062
v 108.85700225830078 131.25399780273438 158.197998046875
v 107.92900085449219 131.92999267578125 157.83799743652344
v 108.6709976196289 131.43899536132812 160.1999969482422
v 107.78600311279297 131.75900268554688 159.32400512695312
v 107.70099639892578 139.8419952392578 150.9759979248047
v 107.93800354003906 140.68699645996094 152.08299255371094
v 106.98899841308594 132.58599853515625 159.08700561523438
v 118.48999786376953 142.79299926757812 153.92999267578125
v 118.58200073242188 142.91600036621094 155.76800537109375
v 117.5770034790039 132.1719970703125 162.3159942626953
v 116.23300170898438 131.5279998779297 160.33399963378906
v 112.56600189208984 133.66299438476562 153.25999450683594
v 111.5510025024414 140.54299926757812 144.0070037841797
v 111.96499633789062 140.427001953125 144.00100708007812
v 112.5469970703125 140.48199462890625 144.01199340820312
v 114.572998046875 133.28700256347656 167.02099609375
v 113.94400024414062 131.8820037841797 166.04400634765625
v 115.04000091552734 142.04600524902344 147.6959991455078
v 116.10299682617188 142.29100036621094 148.6529998779297
v 113.95899963378906 140.4409942626953 144.375
v 114.68299865722656 139.91900634765625 145.1479949951172
v 114.42400360107422 140.33099365234375 144.82899475097656
v 113.74600219726562 136.73599243164062 168
v 110.26799774169922 137.07699584960938 147.86099243164062
v 109.6050033569336 137.8000030517578 147.6699981689453
v 118.62100219726562 143.3509979248047 157.77200317382812
v 110.86599731445312 140.98300170898438 144.18299865722656
v 119.5510025024414 139.05499267578125 152.8730010986328
v 119.10399627685547 138.0070037841797 152.72799682617188
v 111.48799896240234 141.02999877929688 144.0279998779297
v 112.25 140.9929962158203 144.0449981689453
v 117.06700134277344 132.69200134277344 158.31500244140625
v 115.55500030517578 132.5449981689453 156.89199829101562
v 113.58899688720703 141.55799865722656 145.1269989013672
v 114.18099975585938 141.4980010986328 145.906005859375
v 112.9739990234375 140.93800354003906 144.11099243164062
v 113.91799926757812 136.4010009765625 148.05799865722656
v 114.697998046875 136.322998046875 148.9429931640625
v 108.23799896240234 132.61300659179688 156.57200622558594
v 111.6449966430664 131.28599548339844 157.47999572753906
v 114.86199951171875 141.28700256347656 146.5959930419922
v 113.55699920654297 140.99600219726562 144.41299438476562
v 117.90299987792969 140.06500244140625 167.92999267578125
v 117.03600311279297 140.7480010986328 167.7570037841797
v 115.35199737548828 131.10699462890625 163.0030059814453
v 114.60099792480469 137.06300354003906 147.43699645996094
v 114.90399932861328 136.87600708007812 148.06900024414062
v 110.79499816894531 141.49200439453125 144.49200439453125
v 110.29900360107422 141.33700561523438 145.0919952392578
v 110.24400329589844 140.84100341796875 144.7729949951172
v 111.41000366210938 141.58200073242188 144.17300415039062
v 112.11699676513672 141.5749969482422 144.1439971923828
v 118.36799621582031 132.88600158691406 159.61599731445312
v 119.06999969482422 133.41900634765625 161.20700073242188
v 115.91799926757812 141.6750030517578 166.68299865722656
v 114.61499786376953 142.00799560546875 165.16400146484375
v 120.50700378417969 136.81700134277344 166.7969970703125
v 112.9219970703125 141.51600646972656 144.4080047607422
v 106.66400146484375 133.10800170898438 158.1280059814453
v 105.64399719238281 134.27000427246094 158.22000122070312
v 119.1729965209961 133.88400268554688 164.08099365234375
v 117.9749984741211 132.89100646972656 164.41900634765625
v 114.16400146484375 140.89199829101562 144.96600341796875
v 119.46099853515625 141.05799865722656 153.9219970703125
v 107.66999816894531 132.16400146484375 161.08700561523438
v 107.60299682617188 133 161.77000427246094
v 111.23200225830078 141.96499633789062 144.6649932861328
v 110.6510009765625 141.76199340820312 145.17300415039062
v 111.84400177001953 142.02999877929688 144.4929962158203
v 119.9530029296875 134.20899963378906 160.60499572753906
v 114.40899658203125 144.98399353027344 158.11700439453125
v 114.65799713134766 144.9929962158203 159.7949981689453
v 112.18299865722656 135.93299865722656 149.10499572753906
v 112.12100219726562 135.22999572753906 150.70199584960938
v 115.63500213623047 133.52200317382812 155.0290069580078
v 117.29399871826172 134.98300170898438 154.71600341796875
v 112.44400024414062 141.98399353027344 144.5279998779297
v 118.1719970703125 143.1929931640625 154.78199768066406
v 110.97599792480469 142.16000366210938 145.70899963378906
v 111.56500244140625 142.31300354003906 145.33999633789062
v 112.19999694824219 142.32699584960938 145.24099731445312
v 121.31800079345703 138.74099731445312 158.94200134277344
v 120.54000091552734 140.10899353027344 157.75100708007812
v 114.65699768066406 140.20899963378906 167.79400634765625
v 112.35299682617188 136.86300659179688 146.3820037841797
v 112.05999755859375 137.2169952392578 145.656005859375
v 117.91200256347656 140.88099670410156 148.90699768066406
v 118.31199645996094 140.24899291992188 149.00900268554688
v 113.06600189208984 136.90899658203125 146.39199829101562
v 112.66500091552734 137.25799560546875 145.58099365234375
v 116.08599853515625 140.4409942626953 167.77499389648438
v 113.37000274658203 137.52499389648438 145.5970001220703
v 115.55699920654297 142.43899536132812 164.82400512695312
v 116.01799774169922 142.79600524902344 163.76800537109375
v 118.99199676513672 137.27000427246094 168
v 119.38899993896484 138.43600463867188 167.95599365234375
v 113.74500274658203 137.18600463867188 146.32899475097656
v 113.5719985961914 136.68499755859375 147.18499755859375
v 110.66600036621094 143.03700256347656 151.343994140625
v 110.73600006103516 142.69000244140625 149.34800720214844
v 117.61399841308594 134.08200073242188 156.57699584960938
v 110.13899993896484 141.97900390625 148.23399353027344
v 109.70099639892578 141.9770050048828 149.87899780273438
v 108.32499694824219 137.6929931640625 165.34300231933594
v 109.22200012207031 138.88499450683594 165.2429962158203
v 111.47000122070312 137.58999633789062 145.43899536132812
v 111.68800354003906 137.08900451660156 146.1649932861328
v 119.09700012207031 141.66200256347656 152.58299255371094
v 118.17900085449219 141.5749969482422 165.7100067138672
v 118.5719985961914 141.66799926757812 164.4340057373047
v 106.33999633789062 135.06900024414062 162.375
v 106.0999984741211 134.23599243164062 161.6750030517578
v 118.36599731445312 137.55599975585938 168
v 116.8499984741211 136.61000061035156 168
v 120.2760009765625 137.4980010986328 167.5850067138672
v 119.58399963378906 137.4029998779297 167.95700073242188
v 112.80899810791016 142.69200134277344 147.15199279785156
v 113.77400207519531 142.93099975585938 148.01100158691406
v 110.48500061035156 131.49099731445312 156.80599975585938
v 114.66500091552734 141.13800048828125 167.06199645996094
v 119.697998046875 142.0970001220703 157.84800720214844
v 116.81199645996094 144.6490020751953 157.9929962158203
v 117.82599639892578 144.0919952392578 157.56500244140625
v 121.68099975585938 138.5290069580078 163.57699584960938
v 118.5479965209961 137.7220001220703 151.33799743652344
v 117.43800354003906 136.9969940185547 150.7169952392578
v 115.75599670410156 137.16200256347656 148.58399963378906
v 109.73999786376953 137.02499389648438 148.61099243164062
v 105.54299926757812 138.10699462890625 160.79100036621094
v 105.46299743652344 138.5050048828125 158.468994140625
v 118.30400085449219 143.41000366210938 156.7830047607422
v 108.65599822998047 139.3820037841797 164.07400512695312
v 108.58699798583984 141.01199340820312 162.0679931640625
v 107.49600219726562 140.85400390625 155.6580047607422
v 107.0790023803711 137.5970001220703 163.94400024414062
v 106.59300231933594 138.82200622558594 162.07899475097656
v 110.85600280761719 138.1280059814453 145.38900756835938
v 111.01300048828125 137.4340057373047 146.28799438476562
v 115.62699890136719 144.5749969482422 152.90199279785156
v 116.71700286865234 144.21400451660156 153.01400756835938
v 118.26000213623047 135.11399841308594 167.8470001220703
v 117.05699920654297 133.9499969482422 167.41700744628906
v 112.49700164794922 144.3459930419922 154.8419952392578
v 111.70600128173828 144.2469940185547 158.00100708007812
v 113.2239990234375 131.01699829101562 159.28399658203125
v 112.84700012207031 130.66600036621094 161.28799438476562
v 113.07499694824219 144.69000244140625 156.8249969482422
v 113.22000122070312 135.01400756835938 151.06500244140625
v 113.43199920654297 143.74200439453125 149.4499969482422
v 115.02999877929688 139.3979949951172 145.6959991455078
v 114.24400329589844 137.98300170898438 145.8249969482422
v 114.41400146484375 137.4040069580078 146.67999267578125
v 118.97899627685547 135.74099731445312 156.36300659179688
v 116.18099975585938 144.7790069580078 160.29299926757812
v 109.93599700927734 131.20899963378906 157.9080047607422
v 109.65499877929688 131.13400268554688 159.1820068359375
v 118.92400360107422 135.16799926757812 167.63499450683594
v 108.51699829101562 133.27000427246094 163.39700317382812
v 108.12300109863281 134.3159942626953 164.30299377441406
v 109.88899993896484 138.98699951171875 145.70199584960938
v 118.91400146484375 137.3090057373047 154.19400024414062
v 118.35199737548828 136.31900024414062 154.49400329589844
v 110.36699676513672 138.6750030517578 145.33700561523438
v 109.89800262451172 140.78399658203125 163.6269989013672
v 112.02100372314453 134.4969940185547 166.9320068359375
v 110.64900207519531 135.6909942626953 166.55499267578125
v 105.15599822998047 137.625 159.2729949951172
v 115.94300079345703 134.15499877929688 167.6909942626953
v 115.74199676513672 136.00799560546875 168
v 107.30899810791016 134.0229949951172 162.47900390625
v 106.73699951171875 133.33200073242188 161.47999572753906
v 114.34200286865234 138.76199340820312 145.25399780273438
v 119.17500305175781 138.84500122070312 151.13699340820312
v 118.7969970703125 140.17799377441406 149.61300659179688
v 113.96900177001953 144.5989990234375 153.11199951171875
v 118.6050033569336 139.0489959716797 149.57400512695312
v 118.14299774169922 138.01499938964844 149.9340057373047
v 117.50599670410156 144.2169952392578 161.2050018310547
v 117.22699737548828 143.1230010986328 162.51199340820312
v 119.22899627685547 139.89100646972656 150.57400512695312
v 120.05500030517578 138.66099548339844 167.5030059814453
v 112.95500183105469 138.1300048828125 168
v 109.44599914550781 139.51600646972656 146.10000610351562
v 115.9540023803711 143.9219970703125 161.947998046875
v 121.0989990234375 138.41400146484375 165.27200317382812
v 120.71700286865234 138.13499450683594 166.677001953125
v 111.49800109863281 141.70199584960938 163.71800231933594
v 112.95899963378906 142.80499267578125 162.69400024414062
v 106.85399627685547 132.69900512695312 160.6280059814453
v 120.60900115966797 140.68499755859375 162.33999633789062
v 121.44400024414062 139.33200073242188 162.5399932861328
v 109.97799682617188 132.1750030517578 155.80599975585938
v 106.71800231933594 133.97799682617188 156.77999877929688
v 117.99700164794922 139.38299560546875 148.8820037841797
v 114.75900268554688 144.1510009765625 150.2760009765625
v 116.0479965209961 143.47300720214844 149.6060028076172
v 118.03700256347656 133.52699279785156 165.5959930419922
v 108.78199768066406 137.0780029296875 165.93800354003906
v 109.68699645996094 138.18899536132812 166.32899475097656
v 110.8489990234375 137.74000549316406 167.16799926757812
v 111.8759994506836 138.5709991455078 167.4459991455078
v 109.98200225830078 136.18699645996094 150.0760040283203
v 119.81999969482422 140.78199768066406 164.25399780273438
v 119.22599792480469 140.81500244140625 165.7259979248047
v 110.01300048828125 140.11900329589844 144.91400146484375
v 112.0469970703125 143.55599975585938 150.14999389648438
v 113.5 144.31700134277344 151.2050018310547
v 109.75199890136719 139.70399475097656 145.39100646972656
v 108.14600372314453 135.48399353027344 165.12600708007812
v 107.26200103759766 136.48899841308594 164.36199951171875
v 117.93499755859375 134.05599975585938 166.8820037841797
v 115.2040023803711 137.95700073242188 146.94900512695312
v 118.69400024414062 142.09800720214844 151.61599731445312
v 105.11699676513672 135.70899963378906 161.47500610351562
v 115.5270004272461 138.97500610351562 146.53799438476562
v 120.37999725341797 140.01600646972656 164.94400024414062
v 115.61399841308594 139.89100646972656 146.5850067138672
v 109.30899810791016 134.15899658203125 165.75399780273438
v 109.32499694824219 133.33299255371094 164.93899536132812
v 121.3489990234375 136.61399841308594 164.41099548339844
v 107.20099639892578 139.27999877929688 152.4929962158203
v 109.6780014038086 140.27099609375 145.58399963378906
v 105.64199829101562 136.54299926757812 156.16200256347656
v 109 133.52099609375 154.76800537109375
v 109.49500274658203 134.58900451660156 153.1790008544922
v 119.47899627685547 138.38900756835938 154.3179931640625
v 114.697998046875 140.65199279785156 145.5919952392578
v 112.302001953125 130.8520050048828 163.4550018310547
v 117.26200103759766 138.0030059814453 168
v 104.84100341796875 136.69700622558594 160.0449981689453
v 104.98899841308594 136.45700073242188 158.0919952392578
v 105.15699768066406 134.27099609375 159.96099853515625
v 105.96499633789062 133.48399353027344 159.7779998779297
v 109.26100158691406 140.05799865722656 146.69200134277344
v 109.7750015258789 140.8350067138672 145.88400268554688
v 107.69400024414062 139.7270050048828 162.71400451660156
v 112.74800109863281 132.77999877929688 166.47500610351562
v 113.27899932861328 134.33999633789062 167.39100646972656
v 105.16699981689453 134.89599609375 158.16900634765625
v 114.00499725341797 144.73599243164062 155.34300231933594
v 115.03500366210938 131.42799377441406 159.072998046875
v 114.572998046875 130.86000061035156 160.73199462890625
v 112.59600067138672 142.4709930419922 146.06399536132812
v 112.00199890136719 136.39599609375 167.85800170898438
v 109.29299926757812 140.63800048828125 147.54800415039062
v 115.87899780273438 133.12899780273438 166.8419952392578
v 115.2490005493164 132.21299743652344 166.1790008544922
v 122.16000366210938 137.83700561523438 162.33200073242188
v 118.54499816894531 138.96200561523438 167.97799682617188
v 120.78199768066406 140.0449981689453 163.59800720214844
v 119.70500183105469 141.23800659179688 163.052001953125
v 114.5510025024414 131.24400329589844 165.16600036621094
v 120.9000015258789 137.1820068359375 165.67100524902344
v 116.19000244140625 144.13299560546875 151.3179931640625
v 107.48300170898438 134.552001953125 155.48699951171875
v 121.51699829101562 139.35299682617188 160.27000427246094
v 122.02100372314453 137.96499633789062 160.531005859375
v 110.42900085449219 141.9040069580078 146.4969940185547
v 114.01300048828125 142.18099975585938 146.906005859375
v 108.2959976196289 141.3350067138672 153.63999938964844
v 109.18900299072266 141.97300720214844 152.12399291992188
v 117.91000366210938 143.24899291992188 153.0070037841797
v 110.83699798583984 137.052001953125 147.23199462890625
v 112.88899993896484 142.093994140625 145.1909942626953
v 113.32499694824219 142.177001953125 146.08900451660156
v 117.48699951171875 142.29100036621094 164.07000732421875
v 104.78500366210938 135.343994140625 159.9250030517578
v 117.43000030517578 141.48599243164062 166.63400268554688
v 120.32499694824219 141.5260009765625 159.6840057373047
v 110.80699920654297 142.35000610351562 147.3990020751953
v 118.86399841308594 133.85499572753906 158.5590057373047
v 111.21099853515625 132.33099365234375 165.93099975585938
v 111.68499755859375 142.8159942626953 147.99200439453125
v 111.9749984741211 142.55799865722656 146.3769989013672
v 106.39399719238281 136.53399658203125 163.3280029296875
v 121.9020004272461 138.72900390625 161.23699951171875
v 112.04000091552734 133.35000610351562 166.55099487304688
v 114.38500213623047 134.92999267578125 167.96499633789062
v 111.26499938964844 143.8470001220703 155.58200073242188
v 116.90499877929688 139.0330047607422 148.22000122070312
v 118.73699951171875 142.3719940185547 152.92799377441406
v 114.86199951171875 144.54800415039062 151.656005859375
v 116.89900207519531 135.906005859375 152.29200744628906
v 115.68199920654297 135.61099243164062 151.34500122070312
v 111.0530014038086 131.76800537109375 164.95199584960938
v 119.74800109863281 135.00999450683594 158.58099365234375
v 118.59300231933594 142.33200073242188 162.54100036621094
v 105.98500061035156 137.2469940185547 162.66799926757812
v 113.08499908447266 141.81500244140625 164.55799865722656
v 116.76399993896484 140.01600646972656 148.16600036621094
v 106.47899627685547 139.24899291992188 154.677001953125
v 120.79399871826172 140.74899291992188 160.94700622558594
v 121.27400207519531 140.0030059814453 161.48599243164062
v 111.9229965209961 140.28199768066406 166.36700439453125
v 108.51599884033203 140.7729949951172 150.197998046875
v 117.52999877929688 138.39100646972656 148.906005859375
v 117.23899841308594 143.6959991455078 152.13299560546875
v 114.81300354003906 144.5500030517578 160.9969940185547
v 112.31099700927734 141.11199951171875 165.45700073242188
v 110.27400207519531 137.63099670410156 146.94200134277344
v 110.41600036621094 143.1230010986328 154.2209930419922
v 117.5270004272461 139.8939971923828 148.62100219726562
v 108.04499816894531 139.4290008544922 149.7949981689453
v 108.62699890136719 140.07899475097656 148.8350067138672
v 113.73200225830078 144.2570037841797 161.10299682617188
v 114.27400207519531 133.9429931640625 153.28700256347656
v 116.81800079345703 142.1929931640625 165.33099365234375
v 115.49099731445312 137.65199279785156 147.69000244140625
v 116.56199645996094 144.36399841308594 154.4149932861328
v 120.03199768066406 139.16200256347656 155.9949951171875
v 121.31400299072266 136.13499450683594 159.98300170898438
v 110.62999725341797 139.49600219726562 165.8820037841797
v 108.95099639892578 142.16000366210938 155.40699768066406
v 109.10399627685547 136.4759979248047 150.89199829101562
v 117.77200317382812 142.98199462890625 151.28900146484375
v 118.34300231933594 142.64700317382812 152.16799926757812
v 118.25800323486328 143.343994140625 161.59100341796875
v 112.83899688720703 135.19700622558594 167.77699279785156
v 117.62799835205078 142.52000427246094 149.91099548339844
v 118.36399841308594 142.052001953125 150.51800537109375
v 109.86900329589844 131.3560028076172 161.00100708007812
v 121.66000366210938 137.58700561523438 159.7050018310547
v 118.48799896240234 143.78599548339844 160.10699462890625
v 107.20999908447266 140.63099670410156 160.26199340820312
v 113.61699676513672 141.30799865722656 165.99000549316406
v 110.81099700927734 136.22799682617188 149.17999267578125
v 120.68499755859375 135.25 163.40899658203125
v 120.48500061035156 135.89999389648438 165.6280059814453
v 107.22699737548828 140.20199584960938 154.1649932861328
v 111.1989974975586 136.55099487304688 148.03700256347656
v 115.8290023803711 145.0070037841797 158.6230010986328
v 112.90299987792969 139.79800415039062 167.59800720214844
v 112.92500305175781 140.66700744628906 166.73699951171875
v 122.11799621582031 136.81700134277344 161.66700744628906
v 114.76699829101562 143.30499267578125 148.875
v 117.32099914550781 139.45599365234375 168
v 112.03700256347656 132.06399536132812 155.58299255371094
v 116.125 139.8459930419922 147.39300537109375
v 110.43000030517578 142.56900024414062 161.4510040283203
v 109.13899993896484 139.25999450683594 146.92100524902344
v 108.8550033569336 139.5709991455078 147.802001953125
v 106.40499877929688 139.7989959716797 155.9969940185547
v 121.76100158691406 136.41799926757812 163.13099670410156
v 115.45700073242188 137.6230010986328 168
v 109.02200317382812 142.2550048828125 160.15899658203125
v 109.16200256347656 131.50900268554688 157.14199829101562
v 109.41000366210938 135.86300659179688 166.33200073242188
v 121.17500305175781 135.43699645996094 161.32400512695312
v 114.56199645996094 135.43699645996094 150.82200622558594
v 118.78099822998047 134.38900756835938 166.48899841308594
v 111.26599884033203 140.76400756835938 165.08700561523438
v 116.14800262451172 131.96200561523438 165.10699462890625
v 117.84600067138672 140.87100219726562 167.41900634765625
v 110.56999969482422 133.86900329589844 166.2530059814453
v 109.10199737548828 137.69500732421875 148.59800720214844
v 110.8239974975586 143.74099731445312 159.72500610351562
v 119.6259994506836 134.96600341796875 166.13099670410156
v 108.89600372314453 132.20799255371094 162.4290008544922
v 116.10099792480469 141.03399658203125 147.9409942626953
v 113.7959976196289 140.5850067138672 167.42599487304688
v 116.66000366210938 132.91099548339844 166.07699584960938
v 111.96900177001953 143.82699584960938 160.59300231933594
v 109.28900146484375 141.16299438476562 148.78399658203125
v 113.71700286865234 139.5489959716797 167.9720001220703
v 119.04299926757812 139.43600463867188 167.7729949951172
v 118.50700378417969 140.4040069580078 167.3209991455078
v 110.16699981689453 143.36700439453125 158.0260009765625
v 118.39600372314453 141.0330047607422 166.61199951171875
v 108.17900085449219 134.8470001220703 154.13800048828125
v 118.2229995727539 136.92999267578125 152.69500732421875
v 117.2770004272461 141.89700317382812 149.0449981689453
v 118.94499969482422 142.29100036621094 154.54100036621094
v 108.62000274658203 138.15899658203125 148.91799926757812
v 117.46600341796875 143.7779998779297 153.97999572753906
v 109.9489974975586 132.36900329589844 164.49099731445312
v 111.33300018310547 142.44900512695312 146.47999572753906
v 110.06800079345703 137.2449951171875 166.6219940185547
v 106.00599670410156 135.25799560546875 156.38800048828125
v 105.8030014038086 133.6439971923828 160.8719940185547
v 116.89800262451172 137.48399353027344 149.23300170898438
v 113.41799926757812 135.8979949951172 149.11599731445312
v 114.74099731445312 143.29299926757812 162.69400024414062
v 117.71800231933594 143.7830047607422 155.80499267578125
v 119.51799774169922 139.70199584960938 166.9759979248047
v 108.05599975585938 136.00799560546875 153.24400329589844
v 119.33699798583984 142.68699645996094 160.92799377441406
v 108.13200378417969 138.28500366210938 149.8939971923828
v 119.87300109863281 141.73199462890625 161.72000122070312
v 106.01200103759766 139.2949981689453 159.71299743652344
v 115.26000213623047 144.73500061035156 154.5540008544922
v 120.46499633789062 136.67799377441406 158.2100067138672
v 117.31999969482422 135.18600463867188 167.96800231933594
v 115.9729995727539 136.3939971923828 150.04200744628906
v 106.96099853515625 136.0449981689453 154.7310028076172
v 113.9020004272461 132.5760040283203 155.28599548339844
v 106.95899963378906 135.4409942626953 163.4530029296875
v 119.98100280761719 139.92100524902344 166.06700134277344
v 109.2490005493164 136.91299438476562 149.56199645996094
v 107.62300109863281 138.70899963378906 150.93899536132812
v 121.0780029296875 139.9499969482422 159.2480010986328
v 107.64399719238281 137.64199829101562 152.12100219726562
v 112.0469970703125 143.9810028076172 152.76100158691406
v 113.10800170898438 144.66400146484375 159.59300231933594
v 120.3030014038086 139.13600158691406 166.55799865722656
v 111.4020004272461 136.0189971923828 167.1909942626953
v 110.21499633789062 132.74400329589844 165.36300659179688
v 116.98999786376953 140.90899658203125 148.58099365234375
v 105.11599731445312 134.5260009765625 161.00399780273438
v 115.697998046875 134.81300354003906 152.9290008544922
v 113.74400329589844 131.5780029296875 157.25399780273438
v 116.87699890136719 142.77099609375 149.32899475097656
v 118.56199645996094 141.0570068359375 149.50999450683594
v 119.12699890136719 140.4149932861328 166.52200317382812
v 117.05400085449219 143.32699584960938 150.3979949951172
v 118.04299926757812 141.68499755859375 149.375
v 105.33100128173828 137.81700134277344 157.35899353027344
v 112.6760025024414 143.20799255371094 148.49200439453125

g grp1
usemtl mtl1
f 183 2 1 
f 17 1 2 
f 206 4 3 
f 111 3 4 
f 97 6 5 
f 310 5 6 
f 365 8 7 
f 393 7 8 
f 207 10 9 
f 475 9 10 
f 13 12 11 
f 29 11 12 
f 15 13 11 
f 16 14 13 
f 12 13 14 
f 16 13 15 
f 415 17 2 
f 337 19 18 
f 313 18 19 
f 33 14 16 
f 376 21 20 
f 308 20 21 
f 426 23 22 
f 458 22 23 
f 406 25 24 
f 231 24 25 
f 408 27 26 
f 207 26 27 
f 11 29 28 
f 47 28 29 
f 30 11 28 
f 31 15 11 
f 31 11 30 
f 32 16 15 
f 32 15 31 
f 34 33 16 
f 34 16 32 
f 60 35 33 
f 14 33 35 
f 126 37 36 
f 302 36 37 
f 60 33 34 
f 330 39 38 
f 343 38 39 
f 299 41 40 
f 373 40 41 
f 385 43 42 
f 245 42 43 
f 449 45 44 
f 429 44 45 
f 28 47 46 
f 72 46 47 
f 50 28 46 
f 305 49 48 
f 333 48 49 
f 30 28 50 
f 300 52 51 
f 236 51 52 
f 57 31 30 
f 301 54 53 
f 270 53 54 
f 472 56 55 
f 399 55 56 
f 58 32 31 
f 58 31 57 
f 59 34 32 
f 59 32 58 
f 61 60 34 
f 61 34 59 
f 80 63 62 
f 79 62 63 
f 409 65 64 
f 219 64 65 
f 81 60 61 
f 476 67 66 
f 395 66 67 
f 149 69 68 
f 395 68 69 
f 193 71 70 
f 265 70 71 
f 290 73 72 
f 46 72 73 
f 74 50 46 
f 74 46 73 
f 75 30 50 
f 75 50 74 
f 180 77 76 
f 226 76 77 
f 78 30 75 
f 57 30 78 
f 79 58 57 
f 79 57 78 
f 63 59 58 
f 63 58 79 
f 80 61 59 
f 80 59 63 
f 82 81 61 
f 82 61 80 
f 399 84 83 
f 310 83 84 
f 106 81 82 
f 201 76 85 
f 242 85 76 
f 89 87 86 
f 431 86 87 
f 150 89 88 
f 86 88 89 
f 306 91 90 
f 380 90 91 
f 274 92 89 
f 87 89 92 
f 163 94 93 
f 457 93 94 
f 98 75 74 
f 130 96 95 
f 138 95 96 
f 422 6 97 
f 99 78 75 
f 99 75 98 
f 100 79 78 
f 100 78 99 
f 62 79 100 
f 322 102 101 
f 332 101 102 
f 420 104 103 
f 444 103 104 
f 105 82 80 
f 105 80 62 
f 107 106 82 
f 107 82 105 
f 429 45 108 
f 267 108 45 
f 213 110 109 
f 385 109 110 
f 427 20 64 
f 215 64 20 
f 4 94 111 
f 216 111 94 
f 135 112 73 
f 74 73 112 
f 311 114 113 
f 258 113 114 
f 115 74 112 
f 98 74 115 
f 116 99 98 
f 116 98 115 
f 116 100 99 
f 326 118 117 
f 186 117 118 
f 350 120 119 
f 148 119 120 
f 121 62 100 
f 121 100 116 
f 132 123 122 
f 466 122 123 
f 127 62 121 
f 144 124 87 
f 431 87 124 
f 230 25 125 
f 240 125 25 
f 344 126 120 
f 312 120 126 
f 127 105 62 
f 148 105 127 
f 438 129 128 
f 421 128 129 
f 148 107 105 
f 327 96 130 
f 393 132 131 
f 122 131 132 
f 135 134 133 
f 153 133 134 
f 133 112 135 
f 136 115 112 
f 136 112 133 
f 137 116 115 
f 137 115 136 
f 96 117 138 
f 356 138 117 
f 147 95 139 
f 138 139 95 
f 178 141 140 
f 205 140 141 
f 143 121 116 
f 200 85 142 
f 413 142 85 
f 137 143 116 
f 318 145 144 
f 278 144 145 
f 127 121 143 
f 119 127 143 
f 282 147 146 
f 139 146 147 
f 119 148 127 
f 193 149 71 
f 68 71 149 
f 443 151 150 
f 274 150 151 
f 133 153 152 
f 164 152 153 
f 152 136 133 
f 154 137 136 
f 154 136 152 
f 146 139 155 
f 356 155 139 
f 162 137 154 
f 488 157 156 
f 416 156 157 
f 233 159 158 
f 411 158 159 
f 494 161 160 
f 186 160 161 
f 162 143 137 
f 349 143 162 
f 216 94 163 
f 349 119 143 
f 165 152 164 
f 154 152 165 
f 166 154 165 
f 162 154 166 
f 349 162 166 
f 233 97 159 
f 5 159 97 
f 66 168 167 
f 485 167 168 
f 344 103 126 
f 37 126 103 
f 176 169 44 
f 449 44 169 
f 192 171 170 
f 175 170 171 
f 497 173 172 
f 387 172 173 
f 170 175 174 
f 177 174 175 
f 140 176 129 
f 421 129 176 
f 182 174 177 
f 392 179 178 
f 467 178 179 
f 201 181 180 
f 198 180 181 
f 237 183 182 
f 174 182 183 
f 291 185 184 
f 188 184 185 
f 238 186 161 
f 448 188 187 
f 185 187 188 
f 284 190 189 
f 217 189 190 
f 192 191 171 
f 12 171 191 
f 223 191 192 
f 298 193 70 
f 466 158 2 
f 415 2 158 
f 289 195 194 
f 351 194 195 
f 299 197 196 
f 255 196 197 
f 12 175 171 
f 314 199 198 
f 77 198 199 
f 14 175 12 
f 177 175 14 
f 266 201 200 
f 85 200 201 
f 502 203 202 
f 344 202 203 
f 422 125 204 
f 240 204 125 
f 176 140 205 
f 354 206 3 
f 27 208 207 
f 10 207 208 
f 270 48 209 
f 333 209 48 
f 455 211 210 
f 262 210 211 
f 465 212 8 
f 393 8 212 
f 411 213 109 
f 474 215 214 
f 252 214 215 
f 111 216 27 
f 208 27 216 
f 249 218 217 
f 321 217 218 
f 427 64 219 
f 321 221 220 
f 373 220 221 
f 223 222 191 
f 29 191 222 
f 42 222 223 
f 191 29 12 
f 394 225 224 
f 339 224 225 
f 477 227 226 
f 296 226 227 
f 364 229 228 
f 232 228 229 
f 177 14 35 
f 327 231 230 
f 25 230 231 
f 325 228 232 
f 327 18 231 
f 313 231 18 
f 420 203 234 
f 502 234 203 
f 36 235 106 
f 81 106 235 
f 52 237 236 
f 182 236 237 
f 247 238 161 
f 312 106 107 
f 263 26 239 
f 416 239 26 
f 25 241 240 
f 86 240 241 
f 76 226 242 
f 296 242 226 
f 304 244 243 
f 255 243 244 
f 248 42 245 
f 268 245 43 
f 67 247 246 
f 455 246 247 
f 42 248 222 
f 47 222 248 
f 222 47 29 
f 190 249 217 
f 490 251 250 
f 439 250 251 
f 214 252 40 
f 315 40 252 
f 477 254 253 
f 363 253 254 
f 197 256 255 
f 151 255 256 
f 236 35 257 
f 60 257 35 
f 177 35 236 
f 113 258 71 
f 265 71 258 
f 51 236 257 
f 265 259 70 
f 497 70 259 
f 325 260 228 
f 487 228 260 
f 258 262 261 
f 381 261 262 
f 269 264 263 
f 402 263 264 
f 261 265 258 
f 271 266 200 
f 329 108 267 
f 425 268 43 
f 264 269 179 
f 467 179 269 
f 131 122 183 
f 2 183 122 
f 54 271 270 
f 338 270 271 
f 17 223 192 
f 374 273 272 
f 424 272 273 
f 248 72 47 
f 245 72 248 
f 368 247 161 
f 81 257 60 
f 151 256 274 
f 464 274 256 
f 335 276 275 
f 378 275 276 
f 309 6 277 
f 422 277 6 
f 340 124 278 
f 144 278 124 
f 51 257 235 
f 81 235 257 
f 259 261 279 
f 381 279 261 
f 339 281 280 
f 420 280 281 
f 446 147 282 
f 462 284 283 
f 189 283 284 
f 329 286 285 
f 397 285 286 
f 399 287 84 
f 5 84 287 
f 385 42 223 
f 195 289 288 
f 301 288 289 
f 293 290 72 
f 487 292 291 
f 234 291 292 
f 245 293 72 
f 268 293 245 
f 283 295 294 
f 481 294 295 
f 300 297 52 
f 237 52 297 
f 405 298 70 
f 196 41 299 
f 302 300 235 
f 51 235 300 
f 335 301 53 
f 36 302 235 
f 244 304 303 
f 491 303 304 
f 338 305 48 
f 376 306 21 
f 486 21 306 
f 293 268 307 
f 319 307 268 
f 307 135 290 
f 73 290 135 
f 307 290 293 
f 432 294 303 
f 244 303 294 
f 501 20 308 
f 454 310 309 
f 6 309 310 
f 68 311 113 
f 36 106 312 
f 370 313 19 
f 421 44 314 
f 429 314 44 
f 252 316 315 
f 352 315 316 
f 145 318 317 
f 464 317 318 
f 330 320 319 
f 307 319 320 
f 409 221 321 
f 320 135 307 
f 101 323 322 
f 362 322 323 
f 317 324 145 
f 463 145 324 
f 312 107 148 
f 120 312 148 
f 475 260 325 
f 96 327 326 
f 230 326 327 
f 350 328 202 
f 359 202 328 
f 267 286 329 
f 36 312 126 
f 38 320 330 
f 220 189 217 
f 101 332 331 
f 446 331 332 
f 134 320 38 
f 135 320 134 
f 276 209 333 
f 38 153 134 
f 18 327 130 
f 181 334 198 
f 314 198 334 
f 275 336 335 
f 288 335 336 
f 130 337 18 
f 48 270 338 
f 177 236 182 
f 501 308 316 
f 324 316 308 
f 429 108 254 
f 363 254 108 
f 499 281 339 
f 454 309 340 
f 124 340 309 
f 361 342 341 
f 167 341 342 
f 295 283 189 
f 153 343 164 
f 355 164 343 
f 38 343 153 
f 437 130 95 
f 103 344 203 
f 398 346 345 
f 91 345 346 
f 459 163 347 
f 93 347 163 
f 169 176 205 
f 385 223 348 
f 17 348 223 
f 350 119 349 
f 392 351 179 
f 264 179 351 
f 202 344 350 
f 120 350 344 
f 431 204 240 
f 324 317 352 
f 493 352 317 
f 438 353 129 
f 140 129 353 
f 471 354 3 
f 461 164 355 
f 186 356 117 
f 362 357 322 
f 19 322 357 
f 461 165 164 
f 291 358 185 
f 355 185 358 
f 311 246 114 
f 455 114 246 
f 359 166 165 
f 461 359 165 
f 220 360 295 
f 481 295 360 
f 328 349 166 
f 359 328 166 
f 378 276 361 
f 333 361 276 
f 323 250 362 
f 439 362 250 
f 195 288 336 
f 350 349 328 
f 323 101 363 
f 253 363 101 
f 452 229 364 
f 381 8 365 
f 457 193 366 
f 298 366 193 
f 332 102 337 
f 19 337 102 
f 260 367 292 
f 280 292 367 
f 494 369 368 
f 478 368 369 
f 92 318 144 
f 357 370 19 
f 155 356 371 
f 186 371 356 
f 138 356 139 
f 160 186 118 
f 336 372 195 
f 351 195 372 
f 415 348 17 
f 360 373 41 
f 141 273 374 
f 241 88 86 
f 491 370 357 
f 387 365 375 
f 423 375 365 
f 17 192 170 
f 427 376 20 
f 1 17 170 
f 1 170 174 
f 183 1 174 
f 401 93 366 
f 457 366 93 
f 322 19 102 
f 275 378 377 
f 341 377 378 
f 417 379 286 
f 397 286 379 
f 188 380 346 
f 91 346 380 
f 131 183 237 
f 365 279 381 
f 459 347 382 
f 400 382 347 
f 269 239 383 
f 157 383 239 
f 482 301 289 
f 418 384 379 
f 436 379 384 
f 497 259 173 
f 279 173 259 
f 214 40 373 
f 109 385 348 
f 415 109 348 
f 487 184 386 
f 346 386 184 
f 492 387 375 
f 316 324 352 
f 380 389 388 
f 22 388 389 
f 209 53 270 
f 198 77 180 
f 467 390 273 
f 447 273 390 
f 233 391 97 
f 480 97 391 
f 401 347 93 
f 68 113 71 
f 353 194 392 
f 351 392 194 
f 393 131 297 
f 237 297 131 
f 212 132 393 
f 390 383 157 
f 206 168 69 
f 395 69 168 
f 459 225 394 
f 68 395 311 
f 67 311 395 
f 310 84 5 
f 110 43 385 
f 433 371 396 
f 476 396 371 
f 285 397 284 
f 190 284 397 
f 452 398 65 
f 219 65 398 
f 360 220 373 
f 315 299 40 
f 347 401 400 
f 405 400 401 
f 471 402 372 
f 264 372 402 
f 108 403 363 
f 323 363 403 
f 297 7 393 
f 400 405 404 
f 500 404 405 
f 43 110 23 
f 440 23 110 
f 265 261 259 
f 443 88 406 
f 241 406 88 
f 167 342 407 
f 419 407 342 
f 111 27 408 
f 474 221 409 
f 142 338 271 
f 141 410 205 
f 445 205 410 
f 473 336 275 
f 7 297 300 
f 5 287 411 
f 213 411 287 
f 305 413 412 
f 442 412 413 
f 345 91 414 
f 306 414 91 
f 426 330 319 
f 109 415 411 
f 158 411 415 
f 9 156 416 
f 460 24 370 
f 313 370 24 
f 24 231 313 
f 463 340 278 
f 495 326 230 
f 445 418 417 
f 379 417 418 
f 49 419 333 
f 342 333 419 
f 487 260 292 
f 373 221 214 
f 474 214 221 
f 104 420 281 
f 176 44 421 
f 167 407 66 
f 476 66 407 
f 7 423 365 
f 447 424 273 
f 426 319 425 
f 268 425 319 
f 23 426 425 
f 302 423 300 
f 7 300 423 
f 480 391 160 
f 494 160 391 
f 305 412 428 
f 433 428 412 
f 345 414 219 
f 427 219 414 
f 452 65 430 
f 409 430 65 
f 124 277 431 
f 204 431 277 
f 430 409 218 
f 321 218 409 
f 463 278 145 
f 462 432 251 
f 439 251 432 
f 255 151 243 
f 443 243 151 
f 411 159 5 
f 155 433 412 
f 391 233 434 
f 466 434 233 
f 249 190 397 
f 296 282 435 
f 146 435 282 
f 423 302 37 
f 269 263 239 
f 384 272 436 
f 249 436 272 
f 478 123 212 
f 132 212 123 
f 446 332 437 
f 337 437 332 
f 451 438 128 
f 213 440 110 
f 277 124 309 
f 447 441 424 
f 430 424 441 
f 242 442 85 
f 413 85 442 
f 460 243 443 
f 37 444 423 
f 375 423 444 
f 418 445 410 
f 452 386 398 
f 346 398 386 
f 331 253 101 
f 227 446 296 
f 282 296 446 
f 239 416 157 
f 419 396 407 
f 476 407 396 
f 229 441 447 
f 39 330 448 
f 389 448 330 
f 469 451 450 
f 128 450 451 
f 150 88 443 
f 3 111 408 
f 364 386 452 
f 498 453 451 
f 438 451 453 
f 187 343 39 
f 355 343 187 
f 479 454 340 
f 114 455 210 
f 496 404 456 
f 500 456 404 
f 43 23 425 
f 410 141 374 
f 473 372 336 
f 242 435 442 
f 146 442 435 
f 335 53 276 
f 209 276 53 
f 4 69 457 
f 149 457 69 
f 56 458 440 
f 23 440 458 
f 468 459 394 
f 37 103 444 
f 449 267 45 
f 489 266 271 
f 146 155 412 
f 24 460 443 
f 361 333 342 
f 272 424 249 
f 218 249 424 
f 459 382 225 
f 339 225 382 
f 358 359 461 
f 358 202 359 
f 433 155 371 
f 285 284 462 
f 449 417 267 
f 286 267 417 
f 428 49 305 
f 114 210 258 
f 262 258 210 
f 477 77 199 
f 185 355 187 
f 426 389 330 
f 353 392 140 
f 178 140 392 
f 338 142 413 
f 496 456 104 
f 492 104 456 
f 206 69 4 
f 229 452 441 
f 430 441 452 
f 403 108 329 
f 399 83 55 
f 486 55 83 
f 299 315 352 
f 493 317 464 
f 460 304 243 
f 262 211 465 
f 478 465 211 
f 462 283 432 
f 294 432 283 
f 466 233 158 
f 289 194 453 
f 353 453 194 
f 123 434 466 
f 141 467 273 
f 205 445 169 
f 449 169 445 
f 208 468 10 
f 394 10 468 
f 168 206 354 
f 437 95 147 
f 498 451 469 
f 9 325 156 
f 232 156 325 
f 450 334 181 
f 486 83 470 
f 310 470 83 
f 408 471 3 
f 458 56 472 
f 354 473 377 
f 275 377 473 
f 334 421 314 
f 501 252 215 
f 204 277 422 
f 437 337 130 
f 247 368 455 
f 211 455 368 
f 9 475 325 
f 466 2 122 
f 238 476 371 
f 266 181 201 
f 77 477 226 
f 292 280 234 
f 420 234 280 
f 480 422 97 
f 368 478 211 
f 484 306 90 
f 470 454 479 
f 483 213 287 
f 384 418 410 
f 476 238 67 
f 247 67 238 
f 274 318 92 
f 367 224 339 
f 376 414 306 
f 457 94 4 
f 146 412 442 
f 271 200 142 
f 465 478 212 
f 448 389 380 
f 227 477 253 
f 360 41 481 
f 196 481 41 
f 498 469 482 
f 489 482 469 
f 483 440 213 
f 56 440 483 
f 483 287 399 
f 486 484 55 
f 472 55 484 
f 335 288 301 
f 434 478 369 
f 199 314 429 
f 331 227 253 
f 310 454 470 
f 354 377 485 
f 341 485 377 
f 280 367 339 
f 381 262 465 
f 21 479 308 
f 463 308 479 
f 21 486 470 
f 24 443 406 
f 178 467 141 
f 228 487 364 
f 386 364 487 
f 390 488 447 
f 229 447 488 
f 341 378 361 
f 260 224 367 
f 295 189 220 
f 401 366 298 
f 264 351 372 
f 474 64 215 
f 374 384 410 
f 193 457 149 
f 326 117 96 
f 449 445 417 
f 432 303 439 
f 491 439 303 
f 469 266 489 
f 464 256 197 
f 446 437 147 
f 462 251 490 
f 465 8 381 
f 244 294 481 
f 394 475 10 
f 26 207 416 
f 9 416 207 
f 495 422 480 
f 371 186 238 
f 285 490 329 
f 403 329 490 
f 408 402 471 
f 104 492 444 
f 375 444 492 
f 279 365 387 
f 157 488 390 
f 352 493 299 
f 197 299 493 
f 383 390 467 
f 490 285 462 
f 389 426 22 
f 498 289 453 
f 298 405 401 
f 484 486 306 
f 218 424 430 
f 383 467 269 
f 434 494 391 
f 470 479 21 
f 388 472 484 
f 422 495 125 
f 230 125 495 
f 468 208 216 
f 326 495 118 
f 480 118 495 
f 340 463 479 
f 54 301 482 
f 224 475 394 
f 446 227 331 
f 489 54 482 
f 279 387 173 
f 172 387 492 
f 500 172 456 
f 492 456 172 
f 472 22 458 
f 464 318 274 
f 380 188 448 
f 362 439 357 
f 491 357 439 
f 355 358 461 
f 271 54 489 
f 413 305 338 
f 427 414 376 
f 481 255 244 
f 128 421 334 
f 25 406 241 
f 388 22 472 
f 490 250 403 
f 323 403 250 
f 450 128 334 
f 499 382 400 
f 372 473 471 
f 354 471 473 
f 87 92 144 
f 500 405 497 
f 70 497 405 
f 339 382 499 
f 172 500 497 
f 433 396 419 
f 39 448 187 
f 434 123 478 
f 163 468 216 
f 460 491 304 
f 491 460 370 
f 482 289 498 
f 493 464 197 
f 188 346 184 
f 215 20 501 
f 203 420 103 
f 217 321 220 
f 89 150 274 
f 404 496 499 
f 281 499 496 
f 254 477 199 
f 483 399 56 
f 404 499 400 
f 242 296 435 
f 67 246 311 
f 255 481 196 
f 397 436 249 
f 281 496 104 
f 291 184 487 
f 345 219 398 
f 494 434 369 
f 64 474 409 
f 485 341 167 
f 66 395 168 
f 180 76 201 
f 494 368 161 
f 488 232 229 
f 450 181 266 
f 354 485 168 
f 263 402 408 
f 272 384 374 
f 156 232 488 
f 254 199 429 
f 468 163 459 
f 433 419 428 
f 49 428 419 
f 263 408 26 
f 502 202 358 
f 234 502 291 
f 358 291 502 
f 240 86 431 
f 118 480 160 
f 388 484 90 
f 453 353 438 
f 450 266 469 
f 260 475 224 
f 388 90 380 
f 463 324 308 
f 316 252 501 
f 379 436 397 
