#  wavefront obj file written by the visualization toolkit

mtllib livertumor02.mtl

v 96.1937026977539 194.20199584960938 115.41400146484375
v 94.26229858398438 194.73800659179688 116.97100067138672
v 110.84700012207031 193.843994140625 123.27300262451172
v 112.31400299072266 191.52099609375 125.2959976196289
v 93.47589874267578 199.81199645996094 122.29499816894531
v 94.29769897460938 200.28500366210938 119.91300201416016
v 111.84400177001953 189.4739990234375 122.91600036621094
v 101.78099822998047 202.1510009765625 136.89500427246094
v 99.40640258789062 201.11099243164062 137.04100036621094
v 103.39900207519531 201.19700622558594 137.3090057373047
v 104.05699920654297 201.80799865722656 135.9080047607422
v 107.84600067138672 198.55299377441406 135.78500366210938
v 108.59500122070312 196.55599975585938 135.5850067138672
v 102.10800170898438 178.3800048828125 121.58300018310547
v 101.86599731445312 179.13999938964844 123.25399780273438
v 105.0530014038086 177.81500244140625 120.28299713134766
v 103.9540023803711 177.84300231933594 118.49800109863281
v 106.84600067138672 191.197998046875 113.44599914550781
v 107.96099853515625 192.20799255371094 114.10800170898438
v 94.4854965209961 199.1060028076172 118.4000015258789
v 112.41999816894531 194.6320037841797 131.0469970703125
v 111.73899841308594 193.64500427246094 132.76499938964844
v 94.90180206298828 193.4530029296875 135.5030059814453
v 93.37699890136719 194.79400634765625 132.91400146484375
v 103.52899932861328 193.41099548339844 138.4219970703125
v 101.69400024414062 192.9199981689453 139.16600036621094
v 110.96299743652344 192.6510009765625 133.531005859375
v 99.17459869384766 193.47900390625 112.72200012207031
v 98.28469848632812 194.9739990234375 114.03500366210938
v 101.59400177001953 187.0489959716797 136.50100708007812
v 102.53800201416016 187.0679931640625 134.43800354003906
v 99.57559967041016 202.78599548339844 122.10299682617188
v 100.75700378417969 201.23699951171875 119.99400329589844
v 105.93199920654297 189.83200073242188 112.83100128173828
v 107.02300262451172 187.58099365234375 113.28399658203125
v 107.22699737548828 194.78500366210938 114.26899719238281
v 107.5199966430664 193.25599670410156 113.93299865722656
v 111.00800323486328 193.947998046875 133.73300170898438
v 96.14099884033203 204.71600341796875 123.83999633789062
v 97.51429748535156 205.4499969482422 123.94300079345703
v 109.33899688720703 186.2169952392578 130.19400024414062
v 109.99199676513672 188.46400451660156 131.76100158691406
v 98.64119720458984 202.85400390625 134.76699829101562
v 99.98100280761719 203.24400329589844 134.8939971923828
v 104.15799713134766 184.59300231933594 112.50199890136719
v 102.89600372314453 184.4600067138672 112.4800033569336
v 103.08000183105469 199.66099548339844 120.40599822998047
v 99.6218032836914 206.1490020751953 128.5070037841797
v 99.86389923095703 206.21800231933594 127.12799835205078
v 102.95600128173828 202.906005859375 134.92300415039062
v 102.41899871826172 203.4429931640625 133.86500549316406
v 112.58200073242188 194.0760040283203 126.75399780273438
v 95.39869689941406 187.36500549316406 114.77300262451172
v 96.7500991821289 187.53700256347656 113.74099731445312
v 103.33799743652344 178.66299438476562 116.83000183105469
v 102.4469985961914 178.08799743652344 118.09700012207031
v 105.5719985961914 201.2310028076172 135.07699584960938
v 105.11699676513672 200.42999267578125 136.9149932861328
v 108.0510025024414 181.11099243164062 117.55699920654297
v 107.43800354003906 179.9239959716797 117.92500305175781
v 103.5260009765625 203.51199340820312 125.08399963378906
v 103.62699890136719 201.71099853515625 123.5510025024414
v 98.7166976928711 203.38099670410156 133.3209991455078
v 95.74909973144531 200.8520050048828 133.14999389648438
v 94.466796875 201.1439971923828 130.26400756835938
v 100.14299774169922 187.16400146484375 136.7949981689453
v 99.60569763183594 187.81100463867188 137.89199829101562
v 103.63300323486328 186.00399780273438 112.0739974975586
v 96.24549865722656 191.375 137.2519989013672
v 95.66889953613281 192.51100158691406 136.8249969482422
v 95.93779754638672 198.3560028076172 117.09100341796875
v 98.27169799804688 199.36500549316406 116.75900268554688
v 98.4697036743164 191.61900329589844 112.89600372314453
v 99.77469635009766 192.22799682617188 112.21499633789062
v 96.92330169677734 189.6649932861328 136.66200256347656
v 95.43389892578125 189.8699951171875 134.43600463867188
v 106.34300231933594 202.16099548339844 132.63800048828125
v 107.88099670410156 201.35699462890625 131.8990020751953
v 109.89099884033203 185.28399658203125 119.30799865722656
v 110.4209976196289 184.7220001220703 122.2300033569336
v 106.71600341796875 192.3090057373047 113.4520034790039
v 97.71369934082031 202.18499755859375 118.85800170898438
v 97.03669738769531 200.8419952392578 117.697998046875
v 109.36100006103516 192.38999938964844 116.17400360107422
v 110.11399841308594 191.10000610351562 118.1259994506836
v 108.58100128173828 192.90699768066406 135.07699584960938
v 106.81400299072266 191.35400390625 135.79299926757812
v 92.44319915771484 196.24099731445312 124.41100311279297
v 92.44730377197266 195.26699829101562 129.34800720214844
v 101.97200012207031 201.125 122.2020034790039
v 103.56400299072266 199.19700622558594 118.94999694824219
v 93.86730194091797 196.99400329589844 118.33599853515625
v 95.52069854736328 195.99000549316406 116.53600311279297
v 108.41500091552734 195.24099731445312 117.625
v 109.36799621582031 193.54800415039062 117.68299865722656
v 102.48400115966797 189.64599609375 138.8679962158203
v 101.55500030517578 190.9499969482422 139.1999969482422
v 105.15799713134766 203.50599670410156 131.5189971923828
v 112.16699981689453 191.7530059814453 131.54100036621094
v 111.50399780273438 189.54100036621094 130.8939971923828
v 112.69000244140625 189.38299560546875 126.6989974975586
v 112.06300354003906 187.92100524902344 125.76899719238281
v 111.73100280761719 187.31399536132812 123.53900146484375
v 112.44599914550781 188.98899841308594 124.68000030517578
v 106.61699676513672 199.9040069580078 135.7209930419922
v 106.61199951171875 192.27200317382812 136.70599365234375
v 108.26300048828125 194.04600524902344 135.87899780273438
v 106.07499694824219 196.1739959716797 113.90499877929688
v 107.1050033569336 196.12100219726562 115.24099731445312
v 95.74150085449219 183.0050048828125 118.15299987792969
v 94.38629913330078 184.61900329589844 117.8759994506836
v 101.08000183105469 200.822998046875 137.5800018310547
v 100.54499816894531 203.60800170898438 133.91400146484375
v 101.96600341796875 203.21299743652344 134.8090057373047
v 92.55220031738281 190.46499633789062 126.14399719238281
v 92.19889831542969 193.34100341796875 123.7969970703125
v 102.13400268554688 179 116.79499816894531
v 97.89029693603516 184.927001953125 114.11499786376953
v 99.95680236816406 185.68499755859375 112.78700256347656
v 96.543701171875 183.6719970703125 115.9489974975586
v 95.08920288085938 184.5709991455078 116.43800354003906
v 94.05509948730469 184.47900390625 120.16699981689453
v 93.8949966430664 185.12100219726562 122.78199768066406
v 95.50140380859375 186.62100219726562 131.36399841308594
v 94.10880279541016 188.9530029296875 131.73800659179688
v 100.97799682617188 188.67599487304688 112.03800201416016
v 101.25900268554688 187.81500244140625 112.00499725341797
v 111.04499816894531 185.54400634765625 125.3479995727539
v 109.98699951171875 184.99400329589844 127.5479965209961
v 109.80899810791016 199.8159942626953 129.85000610351562
v 109.54299926757812 199.54100036621094 127.07599639892578
v 108.12799835205078 184.2449951171875 128.91400146484375
v 108.14099884033203 199.3249969482422 124.38800048828125
v 106.37999725341797 198.2209930419922 122.33100128173828
v 94.72109985351562 203.18600463867188 124.54299926757812
v 95.6511001586914 203.2830047607422 122.54199981689453
v 102.90499877929688 179.8300018310547 115.53800201416016
v 92.92289733886719 197.08099365234375 131.0330047607422
v 104.39700317382812 204.40899658203125 128.01300048828125
v 105.33499908447266 204.07899475097656 128.9709930419922
v 100.88400268554688 193.95700073242188 112.09100341796875
v 101.94200134277344 187.79400634765625 137.50399780273438
v 100.85199737548828 187.4290008544922 137.85699462890625
v 95.90979766845703 194.23800659179688 137.23399353027344
v 97.55829620361328 194.08299255371094 138.90899658203125
v 95.92400360107422 199.49400329589844 135.12399291992188
v 98.49199676513672 202.37899780273438 119.88300323486328
v 92.28929901123047 193.7830047607422 121.0739974975586
v 92.85050201416016 194.9459991455078 118.91100311279297
v 112.0780029296875 188.68899536132812 128.35800170898438
v 106.29100036621094 198.9969940185547 136.97999572753906
v 104.8949966430664 198.7969970703125 137.5279998779297
v 93.62789916992188 191.32000732421875 116.69300079345703
v 94.94940185546875 189.406005859375 115.2239990234375
v 104.39199829101562 198.50900268554688 118.02100372314453
v 104.60800170898438 198.02999877929688 115.5009994506836
v 92.24919891357422 192.7310028076172 128.02999877929688
v 97.05390167236328 190.39700317382812 113.75499725341797
v 95.79139709472656 185.49099731445312 115.12899780273438
v 107.3489990234375 197.20700073242188 136.9149932861328
v 109.03900146484375 197.23899841308594 123.48400115966797
v 110.13099670410156 198.45399475097656 125.66300201416016
v 109.36499786376953 185.08200073242188 116.96199798583984
v 108.98400115966797 183.6959991455078 117.0479965209961
v 109.80799865722656 191.375 133.89500427246094
v 110.08599853515625 192.93699645996094 134.27200317382812
v 109.55500030517578 193.50799560546875 120.3270034790039
v 102.33300018310547 196.62899780273438 112.125
v 103.30899810791016 196.55499267578125 112.25199890136719
v 92.59770202636719 188.55599975585938 120.62799835205078
v 92.33999633789062 191.20199584960938 122.43800354003906
v 107.55899810791016 185.572998046875 130.88900756835938
v 105.95999908447266 197.10899353027344 115.18499755859375
v 105.6729965209961 197.7530059814453 117.17400360107422
v 99.84629821777344 185.8939971923828 133.677001953125
v 99.73560333251953 186.77999877929688 135.67599487304688
v 96.74299621582031 188.06700134277344 134.40899658203125
v 102.58100128173828 179.9040069580078 125.56400299072266
v 101.30799865722656 181.56199645996094 127.14900207519531
v 93.51309967041016 200.7169952392578 126.56999969482422
v 103.13899993896484 188.00100708007812 135.6439971923828
v 110.88400268554688 187.1909942626953 128.82200622558594
v 104.1510009765625 180.49099731445312 114.43099975585938
v 102.58699798583984 180.97799682617188 114.49299621582031
v 96.64959716796875 188.74899291992188 113.802001953125
v 97.94999694824219 188.1300048828125 112.95500183105469
v 104.91300201416016 186.07899475097656 112.197998046875
v 108.88700103759766 182.50799560546875 120.3740005493164
v 108.39700317382812 180.9600067138672 122.322998046875
v 98.53199768066406 188.5489959716797 137.69500732421875
v 101.38600158691406 197.44200134277344 112.9010009765625
v 101.01799774169922 195.9709930419922 112.26899719238281
v 102.63400268554688 199.22999572753906 116.89299774169922
v 103.14800262451172 198.552001953125 115.42500305175781
v 99.33910369873047 179.5570068359375 120.99400329589844
v 99.625 179.51400756835938 118.50800323486328
v 96.38200378417969 201.968994140625 119.16000366210938
v 97.43800354003906 202.84800720214844 120.63300323486328
v 99.7488021850586 196.4499969482422 113.33599853515625
v 99.42829895019531 188.45799255371094 138.6510009765625
v 102.50299835205078 198.08700561523438 113.58399963378906
v 103.62300109863281 198.04800415039062 114.24600219726562
v 107.51200103759766 189.34300231933594 113.71800231933594
v 96.56829833984375 202.29299926757812 132.4320068359375
v 112.8030014038086 194.7050018310547 128.86500549316406
v 112.93000030517578 191.4340057373047 128.01199340820312
v 97.10540008544922 181.4010009765625 118.64299774169922
v 103.20800018310547 191.76100158691406 138.9669952392578
v 104.49199676513672 191.8990020751953 138.07200622558594
v 105.94200134277344 186.33099365234375 131.22300720214844
v 106.88200378417969 179.24000549316406 124.91300201416016
v 105.302001953125 178.875 125.55899810791016
v 101.1780014038086 178.6060028076172 118.01799774169922
v 97.68930053710938 189.40499877929688 137.69200134277344
v 97.51860046386719 190.66799926757812 138.31700134277344
v 111.90699768066406 195.1929931640625 125.55400085449219
v 112.31099700927734 193.08399963378906 131.8459930419922
v 101.03399658203125 191.2469940185547 112.03199768066406
v 108.7490005493164 181.33900451660156 124.18800354003906
v 107.88200378417969 180.08900451660156 124.39099884033203
v 99.88690185546875 205.4669952392578 125.18299865722656
v 99.66919708251953 204.3470001220703 123.62999725341797
v 97.25080108642578 205.76300048828125 125.15799713134766
v 95.1218032836914 198.28799438476562 134.5970001220703
v 99.3895034790039 189.2550048828125 112.2229995727539
v 99.31199645996094 198.19500732421875 115.69200134277344
v 100.74199676513672 199.63400268554688 116.83599853515625
v 106.11799621582031 186.48300170898438 112.67400360107422
v 106.22000122070312 178.36000061035156 119.24400329589844
v 106.44400024414062 178.5500030517578 121.00499725341797
v 100.79199981689453 187.0780029296875 112.10900115966797
v 99.86650085449219 189.5659942626953 139.14700317382812
v 98.85289764404297 205.96200561523438 125.20600128173828
v 98.26809692382812 204.88900756835938 123.40299987792969
v 93.77300262451172 197.03799438476562 133.06500244140625
v 101.16899871826172 179.968994140625 116.27100372314453
v 109.87999725341797 194.01600646972656 134.5399932861328
v 109.89800262451172 195.1580047607422 134.6020050048828
v 101.58699798583984 178.08099365234375 119.53399658203125
v 106.84400177001953 201.19700622558594 125.35299682617188
v 108.14800262451172 201.4510040283203 128.41200256347656
v 105.58100128173828 185.14999389648438 112.70600128173828
v 104.75499725341797 202.53399658203125 133.697998046875
v 93.23380279541016 188.3419952392578 126.9489974975586
v 92.87120056152344 188.72500610351562 124.52999877929688
v 101.39700317382812 198.55799865722656 114.98600006103516
v 108.72699737548828 184.65699768066406 115.06800079345703
v 98.06659698486328 204.88999938964844 130.05599975585938
v 97.71179962158203 205.95199584960938 127.56199645996094
v 96.52680206298828 197.99000549316406 136.8769989013672
v 95.18289947509766 183.1060028076172 120.70600128173828
v 109.48200225830078 182.95899963378906 123.22899627685547
v 108.71499633789062 181.9340057373047 126.05500030517578
v 105.73100280761719 200.02000427246094 123.45099639892578
v 106.21700286865234 182.23399353027344 127.71199798583984
v 105.00599670410156 181.37399291992188 127.11399841308594
v 108.09100341796875 180.5749969482422 125.87899780273438
v 95.03459930419922 196.02499389648438 135.5469970703125
v 107.31999969482422 200.54600524902344 133.8179931640625
v 108.48200225830078 198.9669952392578 134.447998046875
v 108.1510009765625 187.81100463867188 131.86300659179688
v 101.4739990234375 205.98300170898438 128.63499450683594
v 100.43000030517578 205.23399353027344 130.54600524902344
v 107.95800018310547 180.47500610351562 119.87300109863281
v 100.91799926757812 183.98399353027344 130.4949951171875
v 99.69920349121094 185.01800537109375 131.86500549316406
v 96.76490020751953 204.38699340820312 122.85099792480469
v 96.6094970703125 203.39100646972656 121.63999938964844
v 98.19049835205078 189.42100524902344 112.74800109863281
v 111.37200164794922 197.7100067138672 130.03900146484375
v 106.32499694824219 181.44700622558594 114.22699737548828
v 107.1449966430664 181.21400451660156 115.12300109863281
v 108.61599731445312 183.02699279785156 126.947998046875
v 97.88529968261719 203.7550048828125 122.43199920654297
v 99.74019622802734 180.5679931640625 116.53299713134766
v 99.23600006103516 181.71600341796875 115.66699981689453
v 101.71700286865234 183.875 113.08899688720703
v 102.27300262451172 182.177001953125 113.80899810791016
v 92.94390106201172 189.50100708007812 129.19400024414062
v 92.7500991821289 191.1439971923828 130.93600463867188
v 109.91000366210938 186.6020050048828 118.29000091552734
v 109.16999816894531 186.31399536132812 115.822998046875
v 108.51499938964844 187.6510009765625 114.50499725341797
v 97.38760375976562 196.6699981689453 115.75299835205078
v 94.38760375976562 192.2480010986328 134.43600463867188
v 109.89900207519531 183.34100341796875 125.35299682617188
v 93.94159698486328 187.5800018310547 129.2689971923828
v 100.79199981689453 178.63099670410156 121.0009994506836
v 100.48799896240234 178.5749969482422 119.5270004272461
v 102.29000091552734 204.843994140625 131.1790008544922
v 110.16999816894531 190.61700439453125 132.97300720214844
v 108.48699951171875 193.50100708007812 114.97200012207031
v 104.67500305175781 198.6529998779297 120.82599639892578
v 106.04100036621094 193.3769989013672 113.11000061035156
v 105.22000122070312 191.7949981689453 112.64800262451172
v 105.66000366210938 196.66799926757812 137.5760040283203
v 93.97049713134766 187.5989990234375 116.07099914550781
v 101.30899810791016 204.05099487304688 132.9510040283203
v 98.45030212402344 185.3040008544922 132.1219940185547
v 105.34500122070312 180.3040008544922 114.77200317382812
v 98.39649963378906 180.77999877929688 117.64800262451172
v 104.83499908447266 184.07000732421875 130.24200439453125
v 108.19100189208984 195.16099548339844 115.95700073242188
v 105.52300262451172 193.98899841308594 137.4770050048828
v 105.00599670410156 190.61199951171875 137.22000122070312
v 103.69200134277344 190.00399780273438 138.23599243164062
v 98.36239624023438 202.2259979248047 135.6840057373047
v 97.168701171875 202.0330047607422 134.302001953125
v 99.68209838867188 193.7050018310547 139.1999969482422
v 110.93599700927734 198.27099609375 127.86100006103516
v 112.07099914550781 196.9969940185547 128.5469970703125
v 95.61799621582031 183.22999572753906 123.47699737548828
v 97.24490356445312 192.52200317382812 114.03500366210938
v 98.83219909667969 196.93499755859375 114.7750015258789
v 103.83999633789062 177.99600219726562 121.76899719238281
v 105.66699981689453 178.03900146484375 122.02300262451172
v 108.48100280761719 182.28799438476562 116.91899871826172
v 99.7948989868164 195.15899658203125 112.65599822998047
v 108.25900268554688 183.15199279785156 114.98899841308594
v 102.697998046875 187.60400390625 112.01799774169922
v 107.51200103759766 184.16700744628906 113.87300109863281
v 107.36799621582031 182.52000427246094 114.2959976196289
v 103.18599700927734 200.01499938964844 137.5780029296875
v 102.30999755859375 194.656005859375 138.58900451660156
v 100.66100311279297 196.3489990234375 138.71499633789062
v 98.64350128173828 196.05999755859375 138.97799682617188
v 92.70690155029297 196.6820068359375 121.03900146484375
v 100.96700286865234 200.7899932861328 118.21099853515625
v 106.78099822998047 178.99099731445312 118.16500091552734
v 93.16069793701172 186.2530059814453 119.62200164794922
v 93.62950134277344 185.99400329589844 117.61799621582031
v 98.6238021850586 183.01600646972656 114.94000244140625
v 94.33699798583984 199.33099365234375 132.28399658203125
v 103.86799621582031 179.38999938964844 125.50399780273438
v 95.9574966430664 203.14999389648438 130.02099609375
v 106.92500305175781 195.33700561523438 137.20599365234375
v 100.01699829101562 183.9669952392578 113.6520004272461
v 95.7938003540039 204.76600646972656 126.23799896240234
v 96.55799865722656 193.01699829101562 138.5189971923828
v 101.50299835205078 188.3090057373047 138.6490020751953
v 92.67759704589844 193.42599487304688 131.27099609375
v 99.24800109863281 187.4080047607422 112.41699981689453
v 95.67030334472656 202.39500427246094 120.86199951171875
v 95.55030059814453 200.43099975585938 118.29000091552734
v 102.59200286865234 182.68899536132812 128.78500366210938
v 103.50800323486328 180.71600341796875 126.88999938964844
v 106.13200378417969 182.5760040283203 113.68599700927734
v 109.4229965209961 197.5800018310547 134.1929931640625
v 110.71900177001953 196.3990020751953 133.29200744628906
v 97.1594009399414 200.88600158691406 135.677001953125
v 104.37799835205078 193.6199951171875 112.26599884033203
v 105.15299987792969 194.31199645996094 112.54399871826172
v 104.30999755859375 199.4669952392578 122.18299865722656
v 108.35600280761719 189.44400024414062 133.427001953125
v 92.63469696044922 192.76600646972656 118.87000274658203
v 100.12799835205078 197.70599365234375 114.24800109863281
v 110.9229965209961 194.79200744628906 133.8300018310547
v 98.14540100097656 197.73899841308594 138.0469970703125
v 109.60299682617188 190.16299438476562 116.43699645996094
v 109.46600341796875 188.0709991455078 116.33300018310547
v 99.1250991821289 190.60899353027344 112.39099884033203
v 108.10199737548828 201.7270050048828 130.3990020751953
v 93.05860137939453 186.843994140625 122.70099639892578
v 107.0459976196289 180.86900329589844 126.36799621582031
v 102.74800109863281 188.79600524902344 137.9429931640625
v 100.93699645996094 179.78900146484375 123.83499908447266
v 93.49530029296875 199.08099365234375 120.22599792480469
v 94.42449951171875 185.99200439453125 116.06099700927734
v 103.36499786376953 205.31100463867188 128.95199584960938
v 103.68599700927734 190.0679931640625 112.14900207519531
v 104.21499633789062 181.79400634765625 113.74400329589844
v 103.56199645996094 204.4040069580078 131.33399963378906
v 99.44259643554688 191.18899536132812 139.19000244140625
v 103.72000122070312 197.33200073242188 113.00700378417969
v 105.02100372314453 196.4720001220703 113.08399963378906
v 109.28299713134766 183.93499755859375 119.87999725341797
v 103.56099700927734 203.43299865722656 133.19400024414062
v 103.06099700927734 197.64500427246094 137.7740020751953
v 96.7489013671875 185.08099365234375 130.33799743652344
v 105.73899841308594 195.11700439453125 113.08799743652344
v 98.69920349121094 189.468994140625 138.7760009765625
v 101.3759994506836 205.77999877929688 127.05699920654297
v 107.46700286865234 179.64199829101562 122.03800201416016
v 98.43800354003906 201.31700134277344 117.64800262451172
v 99.73480224609375 200.7989959716797 117.44300079345703
v 98.63619995117188 206.2570037841797 126.7020034790039
v 97.98739624023438 180.50399780273438 120.06300354003906
v 104.57499694824219 204.53900146484375 129.8350067138672
v 105.69499969482422 203.7010040283203 130.3769989013672
v 111.05000305175781 190.9250030517578 132.64599609375
v 111.58300018310547 192.54100036621094 132.781005859375
v 106.58000183105469 203.33099365234375 129.39199829101562
v 102.02200317382812 185.73899841308594 112.23500061035156
v 104.0979995727539 195.697998046875 137.77000427246094
v 101.24700164794922 203.07699584960938 135.4669952392578
v 102.71800231933594 202.40199279785156 136.1750030517578
v 105.08200073242188 187.8300018310547 112.3030014038086
v 97.05120086669922 185.92599487304688 132.17300415039062
v 93.3396987915039 193.52999877929688 117.35700225830078
v 95.01699829101562 192.18899536132812 115.66100311279297
v 106.69200134277344 202.91400146484375 131.08799743652344
v 96.5813980102539 186.43699645996094 114.10199737548828
v 100.38600158691406 188.04200744628906 138.8209991455078
v 103.19499969482422 179.01100158691406 123.87100219726562
v 94.27449798583984 201.822998046875 123.09200286865234
v 98.64679718017578 181.05099487304688 123.43499755859375
v 96.63480377197266 181.6320037841797 120.5260009765625
v 104.68599700927734 178.4239959716797 117.21099853515625
v 98.79340362548828 187.85899353027344 136.86599731445312
v 97.59619903564453 188.67300415039062 136.53900146484375
v 100.83599853515625 189.17300415039062 139.1649932861328
v 98.26280212402344 182.41400146484375 125.92500305175781
v 112.78500366210938 192.5 130.2169952392578
v 96.62159729003906 181.9969940185547 122.83300018310547
v 104.83200073242188 197.3159942626953 113.99199676513672
v 97.38680267333984 182.15899658203125 116.86100006103516
v 109.80599975585938 199.4199981689453 131.23300170898438
v 93.19879913330078 199.32699584960938 129.6580047607422
v 96.7531967163086 196.13400268554688 137.7550048828125
v 96.51830291748047 204.72300720214844 128.89700317382812
v 107.13500213623047 179.25599670410156 119.45999908447266
v 105.14700317382812 189.39999389648438 134.79299926757812
v 103.92400360107422 189.26600646972656 136.97999572753906
v 111.32499694824219 196.83700561523438 125.78500366210938
v 109.39399719238281 198.96400451660156 132.86599731445312
v 99.25250244140625 199.031005859375 137.72500610351562
v 97.76699829101562 199.26300048828125 137.41700744628906
v 98.56439971923828 184.34500122070312 130.7209930419922
v 97.1178970336914 183.76699829101562 127.53700256347656
v 108.83000183105469 189.4010009765625 114.8499984741211
v 105.48100280761719 183.625 113.3489990234375
v 97.58450317382812 192.1840057373047 138.88800048828125
v 106.95899963378906 189.86399841308594 134.27699279785156
v 105.94400024414062 188.10699462890625 132.25999450683594
v 105.80799865722656 203.21600341796875 127.27400207519531
v 108.16500091552734 190.72799682617188 114.12000274658203
v 110.94499969482422 190.0959930419922 120.45999908447266
v 93.5115966796875 191.30299377441406 132.69900512695312
v 100.96900177001953 181.35800170898438 114.927001953125
v 106.39600372314453 180.2530059814453 115.52200317382812
v 99.36190032958984 201.73899841308594 118.60299682617188
v 108.47200012207031 181.57400512695312 119.5989990234375
v 95.09559631347656 184.94000244140625 125.8239974975586
v 106.41799926757812 197.29600524902344 119.70099639892578
v 101.25700378417969 203.46299743652344 123.6719970703125
v 111.04199981689453 187.29299926757812 121.06600189208984
v 102.83999633789062 204.96400451660156 126.76399993896484
v 106.63800048828125 179.44200134277344 116.9489974975586
v 102.72599792480469 195.06500244140625 112.04499816894531
v 108.9000015258789 191.4510040283203 114.98400115966797
v 112.61199951171875 190.375 129.2519989013672
v 92.6063003540039 197.51600646972656 127.31400299072266
v 94.77469635009766 202.94200134277344 127.84200286865234
v 102.87300109863281 177.78599548339844 119.82599639892578
v 100.68099975585938 198.5970001220703 137.88800048828125
v 104.60900115966797 178.4929962158203 123.70099639892578
v 102.68099975585938 197.4029998779297 112.46399688720703
v 111.69300079345703 194.98500061035156 132.61199951171875
v 93.84349822998047 186.9340057373047 126.26699829101562
v 99.14949798583984 197.53700256347656 138.45899963378906
v 101.06999969482422 186.5500030517578 135.3209991455078
v 99.34020233154297 204.06700134277344 132.13900756835938
v 105.30400085449219 177.95700073242188 118.70700073242188
v 102.2229995727539 200.03500366210938 118.44100189208984
v 105.91999816894531 178.5229949951172 117.74299621582031
v 95.1863021850586 185.9320068359375 128.86700439453125
v 95.83219909667969 187.656005859375 132.76600646972656
v 108.99600219726562 193.99600219726562 116.17500305175781
v 105.552001953125 179.2729949951172 116.24600219726562
v 104.31300354003906 179.45599365234375 115.64399719238281
v 100.6729965209961 182.54800415039062 114.1729965209961
v 101.17900085449219 204.8209991455078 125.05400085449219
v 92.84120178222656 190.2830047607422 118.24400329589844
v 102.99099731445312 192.64500427246094 112.06900024414062
v 108.18199920654297 195.63400268554688 120.19300079345703
v 93.06109619140625 199.3520050048828 124.3219985961914
v 99.88510131835938 183.1269989013672 129.00100708007812
v 106.9010009765625 185.4759979248047 113.34600067138672
v 108.23200225830078 186.04100036621094 114.14800262451172
v 110.33999633789062 188.5679931640625 118.56800079345703
v 106.82599639892578 179.6739959716797 126.14399719238281
v 97.32890319824219 203.53900146484375 131.36099243164062
v 104.09500122070312 187.79100036621094 132.54600524902344
v 101.68900299072266 186.33299255371094 133.06399536132812
v 108.55000305175781 191.43299865722656 134.55499267578125
v 93.12249755859375 187.9739990234375 117.6719970703125
v 106.19200134277344 178.65499877929688 123.48699951171875
v 98.23480224609375 186.78700256347656 134.45599365234375
v 100.0770034790039 202.69200134277344 136.00399780273438
v 107.88999938964844 181.74899291992188 115.697998046875
v 107.33599853515625 180.5189971923828 116.43599700927734
v 103.14900207519531 185.9550018310547 131.43899536132812
v 103.4280014038086 183.13699340820312 113.21399688720703
v 107.14600372314453 196.5959930419922 116.88099670410156
v 104.37300109863281 195.6280059814453 112.4010009765625
v 97.9854965209961 186.6529998779297 113.24099731445312
v 94.83529663085938 201.29400634765625 120.53500366210938
v 112.33499908447266 196.0800018310547 127.01200103759766
v 105.25900268554688 181.27699279785156 113.88800048828125
v 93.63040161132812 189.2740020751953 116.41600036621094
v 105.32499694824219 179.81900024414062 126.26000213623047
v 111.33000183105469 196.89599609375 131.54800415039062

g grp1
usemtl mtl1
f 400 2 1 
f 93 1 2 
f 216 4 3 
f 7 3 4 
f 497 6 5 
f 367 5 6 
f 104 7 4 
f 489 9 8 
f 112 8 9 
f 58 11 10 
f 396 10 11 
f 160 13 12 
f 260 12 13 
f 404 15 14 
f 288 14 15 
f 454 17 16 
f 463 16 17 
f 81 19 18 
f 436 18 19 
f 367 6 20 
f 344 20 6 
f 458 22 21 
f 217 21 22 
f 258 24 23 
f 285 23 24 
f 324 26 25 
f 208 25 26 
f 38 27 22 
f 391 22 27 
f 313 29 28 
f 318 28 29 
f 461 31 30 
f 181 30 31 
f 90 33 32 
f 147 32 33 
f 203 35 34 
f 397 34 35 
f 292 37 36 
f 294 36 37 
f 166 27 38 
f 223 40 39 
f 267 39 40 
f 182 42 41 
f 261 41 42 
f 489 44 43 
f 63 43 44 
f 493 46 45 
f 68 45 46 
f 90 47 33 
f 464 33 47 
f 262 49 48 
f 386 48 49 
f 396 11 50 
f 243 50 11 
f 114 50 51 
f 377 51 50 
f 206 4 52 
f 216 52 4 
f 185 54 53 
f 402 53 54 
f 17 56 55 
f 117 55 56 
f 11 58 57 
f 105 57 58 
f 264 60 59 
f 491 59 60 
f 240 62 61 
f 445 61 62 
f 113 63 44 
f 204 65 64 
f 333 64 65 
f 143 67 66 
f 409 66 67 
f 393 68 46 
f 339 70 69 
f 285 69 70 
f 83 72 71 
f 284 71 72 
f 28 74 73 
f 361 73 74 
f 69 76 75 
f 177 75 76 
f 259 78 77 
f 401 77 78 
f 446 80 79 
f 376 79 80 
f 294 37 81 
f 19 81 37 
f 384 83 82 
f 197 82 83 
f 95 85 84 
f 359 84 85 
f 106 87 86 
f 485 86 87 
f 157 89 88 
f 452 88 89 
f 445 90 32 
f 293 91 47 
f 464 47 91 
f 71 93 92 
f 2 92 93 
f 475 95 94 
f 468 94 95 
f 208 97 96 
f 411 96 97 
f 243 77 98 
f 401 98 77 
f 390 100 99 
f 451 99 100 
f 150 102 101 
f 104 101 102 
f 7 104 103 
f 102 103 104 
f 151 12 105 
f 260 105 12 
f 86 107 106 
f 304 106 107 
f 173 109 108 
f 36 108 109 
f 251 111 110 
f 121 110 111 
f 10 8 112 
f 395 114 113 
f 298 113 114 
f 157 116 115 
f 171 115 116 
f 137 55 117 
f 496 119 118 
f 337 118 119 
f 110 121 120 
f 159 120 121 
f 312 123 122 
f 330 122 123 
f 467 125 124 
f 287 124 125 
f 320 127 126 
f 231 126 127 
f 182 129 128 
f 286 128 129 
f 310 131 130 
f 241 130 131 
f 41 132 129 
f 273 129 132 
f 161 134 133 
f 254 133 134 
f 39 136 135 
f 405 135 136 
f 470 55 137 
f 24 138 89 
f 452 89 138 
f 388 140 139 
f 435 139 140 
f 318 141 28 
f 74 28 141 
f 340 143 142 
f 30 142 143 
f 339 145 144 
f 419 144 145 
f 350 64 146 
f 333 146 64 
f 198 147 82 
f 441 82 147 
f 327 149 148 
f 355 148 149 
f 182 102 150 
f 58 152 151 
f 296 151 152 
f 400 154 153 
f 500 153 154 
f 174 156 155 
f 194 155 156 
f 279 157 115 
f 313 73 158 
f 361 158 73 
f 402 159 53 
f 368 53 159 
f 151 160 12 
f 133 162 161 
f 424 161 162 
f 79 164 163 
f 247 163 164 
f 27 166 165 
f 485 165 166 
f 237 86 166 
f 485 166 86 
f 437 85 167 
f 95 167 85 
f 457 169 168 
f 449 168 169 
f 367 20 92 
f 71 92 20 
f 245 171 170 
f 473 170 171 
f 261 172 41 
f 132 41 172 
f 156 174 173 
f 494 173 174 
f 461 176 175 
f 488 175 176 
f 467 177 76 
f 346 179 178 
f 366 178 179 
f 453 135 180 
f 405 180 135 
f 475 134 161 
f 142 30 181 
f 42 182 100 
f 150 100 182 
f 137 184 183 
f 371 183 184 
f 269 186 185 
f 54 185 186 
f 68 187 45 
f 242 45 187 
f 219 189 188 
f 442 188 189 
f 409 67 190 
f 200 190 67 
f 168 192 191 
f 199 191 192 
f 155 194 193 
f 246 193 194 
f 387 196 195 
f 289 195 196 
f 343 198 197 
f 82 197 198 
f 356 191 199 
f 381 190 200 
f 194 202 201 
f 374 201 202 
f 436 203 18 
f 34 18 203 
f 63 204 43 
f 308 43 204 
f 413 206 205 
f 52 205 206 
f 416 207 110 
f 407 110 207 
f 306 209 208 
f 25 208 209 
f 261 210 172 
f 302 172 210 
f 481 212 211 
f 487 211 212 
f 236 117 213 
f 56 213 117 
f 381 215 214 
f 75 214 215 
f 413 21 217 
f 141 218 74 
f 361 74 218 
f 161 3 167 
f 437 167 3 
f 257 220 219 
f 189 219 220 
f 472 222 221 
f 234 221 222 
f 233 40 223 
f 250 146 224 
f 333 224 146 
f 218 126 225 
f 342 225 126 
f 227 226 72 
f 284 72 226 
f 385 227 72 
f 397 35 228 
f 478 228 35 
f 421 230 229 
f 16 229 230 
f 342 231 119 
f 393 119 231 
f 411 232 200 
f 381 200 232 
f 246 201 191 
f 457 191 201 
f 221 234 233 
f 40 233 234 
f 258 224 235 
f 333 235 224 
f 137 117 236 
f 357 238 237 
f 107 237 238 
f 454 14 239 
f 288 239 14 
f 435 241 240 
f 131 240 241 
f 228 242 187 
f 377 50 243 
f 115 245 244 
f 459 244 245 
f 201 246 194 
f 319 247 164 
f 48 249 248 
f 420 248 249 
f 258 250 224 
f 122 111 251 
f 286 253 252 
f 219 252 253 
f 284 29 1 
f 313 1 29 
f 409 176 66 
f 461 66 176 
f 353 254 134 
f 345 256 255 
f 364 255 256 
f 253 257 219 
f 419 258 144 
f 23 144 258 
f 105 260 259 
f 425 259 260 
f 48 263 262 
f 290 262 263 
f 310 162 131 
f 133 131 162 
f 442 189 264 
f 383 264 189 
f 171 116 148 
f 327 148 116 
f 492 266 265 
f 428 265 266 
f 274 268 267 
f 136 267 268 
f 361 225 269 
f 186 269 225 
f 417 270 130 
f 310 130 270 
f 322 272 271 
f 440 271 272 
f 255 273 132 
f 234 274 267 
f 301 276 275 
f 439 275 276 
f 493 278 277 
f 471 277 278 
f 125 280 279 
f 157 279 280 
f 163 282 281 
f 360 281 282 
f 430 283 203 
f 35 203 283 
f 71 284 93 
f 1 93 284 
f 341 285 24 
f 273 253 286 
f 279 244 287 
f 459 287 244 
f 195 289 288 
f 239 288 289 
f 369 262 290 
f 24 258 235 
f 390 291 42 
f 261 42 291 
f 468 84 292 
f 450 292 84 
f 444 155 293 
f 91 293 155 
f 81 295 294 
f 351 294 295 
f 151 296 160 
f 336 160 296 
f 154 53 297 
f 368 297 53 
f 137 236 184 
f 439 184 236 
f 462 113 298 
f 175 299 266 
f 428 266 299 
f 446 7 103 
f 470 183 300 
f 499 300 183 
f 196 301 275 
f 132 172 302 
f 494 303 109 
f 36 109 303 
f 336 296 304 
f 394 304 296 
f 209 306 305 
f 423 305 306 
f 43 308 307 
f 350 307 308 
f 324 309 26 
f 373 26 309 
f 451 150 101 
f 270 311 310 
f 498 310 311 
f 414 312 251 
f 122 251 312 
f 435 240 61 
f 18 295 81 
f 28 73 313 
f 226 314 284 
f 29 284 314 
f 16 316 315 
f 456 315 316 
f 342 126 231 
f 164 188 317 
f 442 317 188 
f 29 199 318 
f 192 318 199 
f 321 247 319 
f 127 320 231 
f 393 231 320 
f 319 322 321 
f 347 321 322 
f 58 323 152 
f 378 152 323 
f 62 240 254 
f 133 254 240 
f 460 326 325 
f 309 325 326 
f 483 181 31 
f 464 328 33 
f 441 33 328 
f 421 329 60 
f 448 60 329 
f 102 182 128 
f 486 331 330 
f 122 330 331 
f 416 332 276 
f 471 276 332 
f 425 78 259 
f 501 334 212 
f 456 212 334 
f 151 105 58 
f 420 335 248 
f 482 248 335 
f 304 107 336 
f 13 336 107 
f 119 277 337 
f 471 337 277 
f 476 5 88 
f 327 88 5 
f 420 249 338 
f 223 338 249 
f 143 66 30 
f 461 30 66 
f 144 70 339 
f 365 96 340 
f 411 340 96 
f 418 65 180 
f 453 180 65 
f 89 341 24 
f 225 342 186 
f 496 186 342 
f 136 268 343 
f 198 343 268 
f 83 71 344 
f 20 344 71 
f 497 343 197 
f 179 346 345 
f 256 345 346 
f 322 271 347 
f 499 347 271 
f 51 290 298 
f 263 298 290 
f 238 349 348 
f 425 348 349 
f 9 307 350 
f 495 352 351 
f 294 351 352 
f 90 353 47 
f 293 47 353 
f 291 354 261 
f 434 261 354 
f 399 153 355 
f 473 355 153 
f 314 356 199 
f 367 92 327 
f 149 327 92 
f 77 243 57 
f 11 57 243 
f 237 38 357 
f 458 357 38 
f 460 358 326 
f 419 326 358 
f 36 303 292 
f 468 292 303 
f 138 235 333 
f 480 360 359 
f 430 359 360 
f 501 256 346 
f 269 158 361 
f 392 362 241 
f 130 241 362 
f 459 363 123 
f 330 123 363 
f 79 163 281 
f 136 39 267 
f 253 255 364 
f 142 365 340 
f 156 202 194 
f 406 195 366 
f 288 366 195 
f 247 282 163 
f 327 5 367 
f 388 139 369 
f 447 369 139 
f 438 285 341 
f 126 370 320 
f 397 320 370 
f 278 371 184 
f 51 372 290 
f 369 290 372 
f 432 215 373 
f 381 373 215 
f 415 375 374 
f 495 374 375 
f 252 376 80 
f 80 128 286 
f 51 377 372 
f 98 372 377 
f 325 324 378 
f 394 378 324 
f 398 124 379 
f 466 379 124 
f 108 36 380 
f 294 380 36 
f 190 381 214 
f 262 382 49 
f 221 49 382 
f 189 220 383 
f 211 383 220 
f 441 385 384 
f 72 384 385 
f 294 352 380 
f 495 380 352 
f 233 386 49 
f 376 164 79 
f 301 196 387 
f 372 98 388 
f 389 388 98 
f 118 337 332 
f 471 332 337 
f 392 140 389 
f 388 389 140 
f 237 107 86 
f 418 138 333 
f 99 391 390 
f 291 390 391 
f 384 72 83 
f 477 179 345 
f 482 335 204 
f 65 204 335 
f 401 362 392 
f 320 68 393 
f 182 41 129 
f 304 394 25 
f 324 25 394 
f 8 396 395 
f 114 395 396 
f 228 187 397 
f 68 397 187 
f 193 246 227 
f 226 227 246 
f 428 398 379 
f 2 400 399 
f 153 399 400 
f 439 278 184 
f 410 190 214 
f 244 279 115 
f 78 362 401 
f 496 402 54 
f 200 67 403 
f 143 403 67 
f 178 404 334 
f 456 334 404 
f 343 405 136 
f 349 238 357 
f 414 407 406 
f 387 406 407 
f 334 346 178 
f 279 287 125 
f 470 408 55 
f 17 55 408 
f 218 225 361 
f 190 410 409 
f 488 409 410 
f 400 158 154 
f 185 154 158 
f 403 340 411 
f 429 312 412 
f 414 412 312 
f 406 366 179 
f 205 21 413 
f 496 54 186 
f 207 301 387 
f 406 412 414 
f 498 52 216 
f 382 262 369 
f 202 156 415 
f 173 415 156 
f 301 416 276 
f 502 270 417 
f 65 418 333 
f 250 258 419 
f 383 421 264 
f 60 264 421 
f 133 240 131 
f 404 178 15 
f 366 15 178 
f 305 423 422 
f 181 422 423 
f 447 139 61 
f 435 61 139 
f 120 118 332 
f 310 424 162 
f 338 39 135 
f 80 286 252 
f 489 8 395 
f 348 425 260 
f 9 427 426 
f 358 426 427 
f 379 429 428 
f 477 428 429 
f 378 394 152 
f 296 152 394 
f 331 297 368 
f 360 283 430 
f 19 37 292 
f 221 233 49 
f 440 300 271 
f 499 271 300 
f 42 100 390 
f 443 312 429 
f 321 347 431 
f 371 431 347 
f 145 432 309 
f 373 309 432 
f 422 434 433 
f 354 433 434 
f 143 340 403 
f 78 417 362 
f 130 362 417 
f 392 435 140 
f 450 436 19 
f 218 370 126 
f 438 280 125 
f 489 307 9 
f 490 272 322 
f 411 200 403 
f 421 229 329 
f 465 329 229 
f 350 308 64 
f 204 64 308 
f 285 438 76 
f 125 76 438 
f 236 275 439 
f 252 219 188 
f 385 441 328 
f 120 159 118 
f 402 118 159 
f 435 392 241 
f 59 442 264 
f 9 350 427 
f 146 427 350 
f 438 341 280 
f 157 280 341 
f 259 77 57 
f 314 199 29 
f 397 68 320 
f 123 312 443 
f 174 155 444 
f 499 371 347 
f 90 445 62 
f 120 416 110 
f 103 80 446 
f 103 102 128 
f 87 422 433 
f 222 445 32 
f 210 261 434 
f 82 441 384 
f 457 201 374 
f 274 222 32 
f 13 238 348 
f 119 393 277 
f 46 277 393 
f 437 7 446 
f 382 369 447 
f 491 448 440 
f 469 440 448 
f 355 171 148 
f 495 351 449 
f 474 449 351 
f 19 292 450 
f 451 100 150 
f 453 65 335 
f 90 62 353 
f 254 353 62 
f 474 295 370 
f 34 370 295 
f 479 247 321 
f 206 413 451 
f 99 451 413 
f 302 265 345 
f 477 345 265 
f 269 185 158 
f 69 75 215 
f 418 452 138 
f 432 69 215 
f 24 235 138 
f 252 188 376 
f 164 376 188 
f 459 123 443 
f 226 246 356 
f 191 356 246 
f 17 454 56 
f 239 56 454 
f 488 299 175 
f 14 454 315 
f 16 315 454 
f 112 455 323 
f 378 323 455 
f 134 444 293 
f 112 426 455 
f 460 455 426 
f 245 115 171 
f 120 332 416 
f 315 456 404 
f 480 437 446 
f 168 191 457 
f 502 349 458 
f 357 458 349 
f 466 459 443 
f 475 444 134 
f 464 227 328 
f 385 328 227 
f 195 406 387 
f 325 455 460 
f 309 324 325 
f 3 7 437 
f 113 462 63 
f 482 63 462 
f 501 364 256 
f 16 463 229 
f 465 229 463 
f 83 344 197 
f 497 197 344 
f 489 395 44 
f 113 44 395 
f 474 370 218 
f 234 222 274 
f 287 459 466 
f 398 177 467 
f 303 94 468 
f 149 399 355 
f 408 470 469 
f 300 469 470 
f 76 125 467 
f 502 21 270 
f 205 270 21 
f 439 276 471 
f 287 466 124 
f 478 431 242 
f 45 242 431 
f 298 263 462 
f 248 462 263 
f 420 453 335 
f 98 377 243 
f 481 220 257 
f 336 13 160 
f 492 302 210 
f 10 396 8 
f 34 295 18 
f 464 91 193 
f 155 193 91 
f 196 213 289 
f 239 289 213 
f 495 449 169 
f 480 85 437 
f 427 146 250 
f 474 351 295 
f 447 472 382 
f 221 382 472 
f 171 355 473 
f 466 429 379 
f 107 238 13 
f 274 198 268 
f 198 32 147 
f 482 462 248 
f 369 372 388 
f 132 302 255 
f 345 255 302 
f 365 181 423 
f 161 167 475 
f 95 475 167 
f 486 297 331 
f 207 387 407 
f 79 281 446 
f 480 446 281 
f 232 373 381 
f 213 56 239 
f 341 89 157 
f 487 316 230 
f 16 230 316 
f 145 309 326 
f 282 283 360 
f 196 236 213 
f 405 5 476 
f 202 415 374 
f 416 301 207 
f 408 463 17 
f 486 330 170 
f 363 170 330 
f 179 477 412 
f 429 412 477 
f 497 344 6 
f 306 365 423 
f 323 10 112 
f 105 259 57 
f 217 22 391 
f 478 242 228 
f 35 479 478 
f 321 478 479 
f 365 142 181 
f 474 218 141 
f 9 426 112 
f 75 177 410 
f 488 410 177 
f 360 480 281 
f 359 85 480 
f 420 338 453 
f 135 453 338 
f 237 166 38 
f 208 96 306 
f 365 306 96 
f 368 159 121 
f 257 364 481 
f 501 481 364 
f 439 471 278 
f 180 405 476 
f 31 484 483 
f 492 483 484 
f 354 165 485 
f 329 465 448 
f 469 448 465 
f 283 282 479 
f 247 479 282 
f 418 180 452 
f 476 452 180 
f 429 466 443 
f 211 487 383 
f 230 383 487 
f 456 316 487 
f 176 409 488 
f 232 411 97 
f 299 398 428 
f 88 452 476 
f 106 209 305 
f 26 97 208 
f 223 39 338 
f 204 63 482 
f 59 491 490 
f 272 490 491 
f 406 179 412 
f 61 472 447 
f 492 484 266 
f 175 266 484 
f 291 391 27 
f 250 419 358 
f 479 35 283 
f 249 48 386 
f 434 492 210 
f 94 444 475 
f 427 250 358 
f 265 302 492 
f 319 164 317 
f 272 491 440 
f 198 274 32 
f 431 371 493 
f 278 493 371 
f 174 444 494 
f 94 494 444 
f 144 23 70 
f 285 70 23 
f 230 421 383 
f 424 216 3 
f 450 84 359 
f 192 449 141 
f 474 141 449 
f 92 2 149 
f 399 149 2 
f 363 245 170 
f 31 461 484 
f 175 484 461 
f 114 51 298 
f 119 496 342 
f 500 154 297 
f 154 185 53 
f 499 183 371 
f 500 473 153 
f 122 331 111 
f 368 111 331 
f 317 59 490 
f 405 497 5 
f 99 413 217 
f 408 465 463 
f 424 310 498 
f 286 129 273 
f 305 422 87 
f 227 464 193 
f 101 206 451 
f 288 15 366 
f 402 496 118 
f 483 422 181 
f 307 489 43 
f 209 106 304 
f 114 396 50 
f 165 291 27 
f 450 359 430 
f 441 147 33 
f 436 450 430 
f 168 449 192 
f 497 405 343 
f 469 465 408 
f 305 87 106 
f 108 375 415 
f 216 424 498 
f 426 358 460 
f 22 458 38 
f 398 488 177 
f 170 473 486 
f 500 486 473 
f 375 380 495 
f 400 1 313 
f 248 263 48 
f 445 222 472 
f 323 58 10 
f 297 486 500 
f 470 137 183 
f 116 157 88 
f 145 339 432 
f 69 432 339 
f 490 322 319 
f 233 223 386 
f 249 386 223 
f 318 192 141 
f 111 368 121 
f 401 392 389 
f 169 374 495 
f 76 69 285 
f 4 101 104 
f 108 380 375 
f 428 477 265 
f 109 173 494 
f 169 457 374 
f 415 173 108 
f 217 391 99 
f 354 291 165 
f 211 220 481 
f 275 236 196 
f 417 78 425 
f 494 94 303 
f 433 354 485 
f 481 501 212 
f 257 253 364 
f 373 232 97 
f 491 60 448 
f 493 277 46 
f 205 498 311 
f 455 325 378 
f 158 400 313 
f 75 410 214 
f 407 414 251 
f 317 442 59 
f 299 488 398 
f 128 80 103 
f 260 13 348 
f 84 468 95 
f 21 502 458 
f 490 319 317 
f 370 34 397 
f 467 124 398 
f 356 314 226 
f 456 487 212 
f 502 425 349 
f 433 485 87 
f 40 234 267 
f 304 25 209 
f 45 431 493 
f 311 270 205 
f 245 363 459 
f 389 98 401 
f 404 14 315 
f 472 61 445 
f 161 424 3 
f 502 417 425 
f 205 52 498 
f 203 436 430 
f 501 346 334 
f 373 97 26 
f 206 101 4 
f 469 300 440 
f 110 407 251 
f 478 321 431 
f 134 293 353 
f 273 255 253 
f 145 326 419 
f 483 492 434 
f 434 422 483 
f 116 88 327 
