#  wavefront obj file written by the visualization toolkit

mtllib livertumor06.mtl

v 59.482398986816406 95.2948989868164 172.322998046875
v 59.11980056762695 95.67160034179688 171.76800537109375
v 63.205101013183594 98.9928970336914 172.5749969482422
v 64.18250274658203 98.24720001220703 172.86399841308594
v 60.3036994934082 103.11100006103516 174.4739990234375
v 61.20180130004883 102.40799713134766 173.76699829101562
v 59.686500549316406 95.6498031616211 171.59800720214844
v 62.17890167236328 101.93599700927734 178.93499755859375
v 61.46080017089844 101.3499984741211 179.1699981689453
v 57.780799865722656 98.96279907226562 179.04100036621094
v 56.96480178833008 98.98819732666016 178.23699951171875
v 61.05910110473633 95.15489959716797 172.3509979248047
v 60.984100341796875 95.63760375976562 171.64100646972656
v 61.134300231933594 103.61000061035156 175.4770050048828
v 61.75230026245117 103.01799774169922 174.5749969482422
v 56.676998138427734 99.0343017578125 177.4929962158203
v 56.72760009765625 99.61129760742188 177.58299255371094
v 61.80099868774414 96.93689727783203 179.0019989013672
v 61.425201416015625 97.71939849853516 179.17799377441406
v 59.75630187988281 95.28900146484375 176.85699462890625
v 59.19049835205078 96.07150268554688 178.19400024414062
v 62.06209945678711 98.44039916992188 171.5330047607422
v 61.88719940185547 97.42220306396484 171.31700134277344
v 58.46220016479492 96.13400268554688 171.8070068359375
v 63.54949951171875 98.2354965209961 178.9429931640625
v 64.02880096435547 97.94120025634766 178.07000732421875
v 60.79999923706055 100.51000213623047 179.1999969482422
v 60.70500183105469 101.54100036621094 179.16099548339844
v 60.007598876953125 101.47100067138672 172.656005859375
v 59.811100006103516 100.49400329589844 171.88299560546875
v 59.39820098876953 96.15579986572266 171.34300231933594
v 60.1599006652832 96.06089782714844 171.32000732421875
v 58.4192008972168 97.89129638671875 179.13999938964844
v 60.294700622558594 95.44979858398438 171.843994140625
v 60.75579833984375 96.056396484375 171.32000732421875
v 61.74319839477539 95.84490203857422 171.91700744628906
v 61.297298431396484 96.11370086669922 171.3679962158203
v 57.80080032348633 97.14849853515625 178.47900390625
v 57.404598236083984 96.89209747314453 177.06900024414062
v 59.22159957885742 102.03399658203125 178.47300720214844
v 58.51459884643555 102.06300354003906 177.50599670410156
v 65.01480102539062 97.17749786376953 175.2689971923828
v 64.83899688720703 96.82430267333984 176.49400329589844
v 56.80339813232422 97.07610321044922 173.4949951171875
v 56.919898986816406 97.49250030517578 172.2480010986328
v 60.39540100097656 102.21600341796875 178.91400146484375
v 59.74549865722656 102.58899688720703 178.00799560546875
v 65.37699890136719 98.72440338134766 174.2100067138672
v 65.28820037841797 99.35040283203125 175.38499450683594
v 62.39550018310547 101.14800262451172 179.17799377441406
v 56.76250076293945 98.25460052490234 177.61500549316406
v 58.050498962402344 96.50990295410156 177.73500061035156
v 57.31949996948242 98.00569915771484 178.61099243164062
v 61.01259994506836 102.76699829101562 178.1840057373047
v 60.169898986816406 103.14800262451172 177.1300048828125
v 62.12110137939453 99.33219909667969 171.99200439453125
v 62.13309860229492 100.34500122070312 172.61099243164062
v 58.804100036621094 96.6863021850586 171.31700134277344
v 61.24689865112305 102.21600341796875 178.92300415039062
v 60.08380126953125 96.57080078125 171.21200561523438
v 60.6875 96.63400268554688 171.20899963378906
v 61.29309844970703 96.64920043945312 171.2239990234375
v 56.61249923706055 99.68509674072266 173.08700561523438
v 56.46269989013672 98.81069946289062 172.90199279785156
v 61.84659957885742 96.61409759521484 171.406005859375
v 59.482200622558594 95.02179718017578 175.3820037841797
v 59.22480010986328 95.10160064697266 173.68099975585938
v 59.50640106201172 96.8740005493164 179.01499938964844
v 59.564998626708984 98.04000091552734 179.1999969482422
v 63.25469970703125 96.0530014038086 177.55999755859375
v 62.4380989074707 95.57350158691406 177.31500244140625
v 62.97129821777344 97.34559631347656 178.71200561523438
v 62.45750045776367 96.56340026855469 171.9510040283203
v 62.651100158691406 96.00389862060547 172.57400512695312
v 62.61940002441406 101.9469985961914 173.98699951171875
v 63.58829879760742 101.18000030517578 174.03799438476562
v 58.32270050048828 97.32050323486328 171.28500366210938
v 59.307098388671875 97.42289733886719 171.20799255371094
v 57.549400329589844 97.331298828125 171.5590057373047
v 58.056800842285156 96.73609924316406 171.53500366210938
v 57.23649978637695 99.34020233154297 172.1929931640625
v 58.09830093383789 99.47100067138672 171.5489959716797
v 60.58769989013672 95.19300079345703 176.7949981689453
v 61.38800048828125 95.8855972290039 177.8719940185547
v 58.0796012878418 100.72000122070312 172.6020050048828
v 58.15840148925781 101.55999755859375 173.43299865722656
v 63.340999603271484 99.42130279541016 179.1280059814453
v 63.53860092163086 100.39099884033203 178.96600341796875
v 59.59830093383789 96.76930236816406 171.21200561523438
v 57.588199615478516 96.69629669189453 172.0709991455078
v 56.43000030517578 98.48159790039062 176.74600219726562
v 60.390098571777344 97.3010025024414 171.1999969482422
v 56.42660140991211 97.93669891357422 172.99200439453125
v 57.37189865112305 98.85099792480469 171.6219940185547
v 61.18429946899414 97.19930267333984 171.20399475097656
v 62.404300689697266 97.12220001220703 171.59500122070312
v 60.41999816894531 98.8949966430664 179.1999969482422
v 60.29330062866211 99.68669891357422 179.1999969482422
v 61.063899993896484 103.49400329589844 176.73300170898438
v 61.874000549316406 103.54900360107422 176.61500549316406
v 64.1541976928711 101.08000183105469 177.552001953125
v 63.87300109863281 100.78199768066406 178.38699340820312
v 64.614501953125 96.4989013671875 175.36700439453125
v 64.1343002319336 96.04409790039062 176.54200744628906
v 58.10580062866211 98.13590240478516 171.26300048828125
v 60.08359909057617 103.4020004272461 175.64599609375
v 61.430999755859375 94.314697265625 174.44000244140625
v 61.38759994506836 94.62090301513672 175.86099243164062
v 59.45819854736328 102.9280014038086 176.63800048828125
v 62.130001068115234 99.65499877929688 179.1999969482422
v 61.820899963378906 95.18800354003906 176.74600219726562
v 65.23380279541016 98.10209655761719 174.06199645996094
v 65.30149841308594 97.73269653320312 175.22900390625
v 58.74959945678711 95.73560333251953 176.67300415039062
v 62.49039840698242 98.31529998779297 179.17300415039062
v 61.46500015258789 98.8949966430664 179.1999969482422
v 63.19139862060547 100.9749984741211 178.94500732421875
v 62.19490051269531 94.88739776611328 176.0709991455078
v 56.724098205566406 97.54019927978516 176.6999969482422
v 59.467098236083984 102.86299896240234 175.2480010986328
v 59.556800842285156 102.57499694824219 174.00999450683594
v 56.831298828125 96.97200012207031 175.14599609375
v 56.22869873046875 97.81780242919922 175.5709991455078
v 65.40859985351562 97.97460174560547 176.32000732421875
v 65.10810089111328 97.38130187988281 176.47799682617188
v 60.20100021362305 95.80329895019531 178.00599670410156
v 62.2047004699707 94.62979888916016 175.1219940185547
v 62.592498779296875 95.19999694824219 176.47900390625
v 61.237701416015625 98.0376968383789 171.24099731445312
v 58.94499969482422 101.06600189208984 172.47000122070312
v 63.97269821166992 100.12100219726562 178.67799377441406
v 61.977699279785156 102.56800079345703 178.3509979248047
v 61.848899841308594 103.15499877929688 177.56100463867188
v 63.00859832763672 97.17220306396484 172.1999969482422
v 58.15449905395508 102.125 174.87399291992188
v 57.241798400878906 101.31700134277344 176.48300170898438
v 58.153099060058594 102.14700317382812 176.39300537109375
v 65.37879943847656 98.68620300292969 176.552001953125
v 60.1349983215332 100.79499816894531 179.1999969482422
v 56.1245002746582 99.70600128173828 175.26499938964844
v 56.14289855957031 98.78939819335938 175.88699340820312
v 60.30839920043945 94.8230972290039 176.01100158691406
v 56.49449920654297 100.06199645996094 176.656005859375
v 57.265499114990234 98.13909912109375 171.54800415039062
v 57.31010055541992 100.20800018310547 172.73699951171875
v 62.534000396728516 102.9260025024414 177.55299377441406
v 63.461700439453125 95.4884033203125 175.80999755859375
v 63.12910079956055 95.55719757080078 177.16299438476562
v 62.69219970703125 97.73670196533203 171.81500244140625
v 64.05829620361328 98.99980163574219 178.625
v 56.005699157714844 98.41649627685547 174.77099609375
v 64.92240142822266 97.43440246582031 174.0540008544922
v 60.434600830078125 97.70169830322266 179.18499755859375
v 59.121700286865234 99.81330108642578 179.1999969482422
v 58.952598571777344 100.93099975585938 179.06900024414062
v 60.90729904174805 96.6613998413086 178.95599365234375
v 59.021400451660156 102.56600189208984 176.84800720214844
v 63.976200103759766 95.91519927978516 174.70799255371094
v 62.88679885864258 101.6050033569336 178.9040069580078
v 62.75529861450195 102.21800231933594 178.38600158691406
v 63.432701110839844 101.98300170898438 177.67599487304688
v 56.11289978027344 98.22370147705078 173.7010040283203
v 64.57749938964844 99.8406982421875 177.8209991455078
v 65.01139831542969 99.36930084228516 174.01100158691406
v 64.47969818115234 96.6978988647461 174.1510009765625
v 57.707401275634766 96.22570037841797 175.7030029296875
v 62.41889953613281 103.26300048828125 175.85699462890625
v 63.32339859008789 102.56900024414062 176.33999633789062
v 59.95069885253906 101.69599914550781 179.14300537109375
v 56.805999755859375 98.46299743652344 172.11900329589844
v 62.135501861572266 94.76129913330078 173.63400268554688
v 58.20209884643555 95.68009948730469 173.8769989013672
v 57.41859817504883 96.3427963256836 173.9219970703125
v 57.81119918823242 98.74469757080078 171.3300018310547
v 62.757598876953125 98.46389770507812 172.06100463867188
v 58.69599914550781 95.56759643554688 172.59500122070312
v 64.64700317382812 100.72599792480469 176.24899291992188
v 64.31819915771484 100.93499755859375 174.71800231933594
v 59.15019989013672 98.81330108642578 171.20799255371094
v 58.89509963989258 98.03269958496094 171.20700073242188
v 60.114498138427734 98.39089965820312 171.21800231933594
v 60.12879943847656 96.36509704589844 178.8769989013672
v 63.475399017333984 101.4520034790039 178.36599731445312
v 56.26649856567383 97.53959655761719 174.15199279785156
v 56.89780044555664 100.4749984741211 177.36900329589844
v 57.62730026245117 101.39800262451172 177.33999633789062
v 64.94439697265625 100.13600158691406 176.4759979248047
v 57.55440139770508 101.63500213623047 174.927001953125
v 64.40480041503906 100.52899932861328 177.5989990234375
v 61.24169921875 99.09120178222656 171.43299865722656
v 58.904998779296875 102.54000091552734 175.24099731445312
v 61.18000030517578 99.65499877929688 179.1999969482422
v 58.44070053100586 98.98069763183594 171.24899291992188
v 64.89179992675781 97.87120056152344 177.2779998779297
v 59.04819869995117 99.6677017211914 171.36900329589844
v 59.21670150756836 98.86329650878906 179.1999969482422
v 58.65950012207031 96.9791030883789 178.8459930419922
v 63.33470153808594 99.8759994506836 172.95899963378906
v 60.381900787353516 94.58180236816406 174.52200317382812
v 63.30189895629883 96.66349792480469 172.66400146484375
v 56.085601806640625 99.17759704589844 173.9040069580078
v 64.15080261230469 100.17900085449219 173.76499938964844
v 57.894500732421875 96.10749816894531 172.82699584960938
v 62.83420181274414 100.96600341796875 173.30999755859375
v 57.20539855957031 99.75420379638672 178.51800537109375
v 64.79979705810547 98.92539978027344 177.63400268554688
v 60.145999908447266 99.48600006103516 171.35299682617188
v 64.93920135498047 98.59089660644531 173.4149932861328
v 64.26029968261719 96.8958969116211 177.4219970703125
v 56.37009811401367 100.21199798583984 174.1510009765625
v 64.14019775390625 101.53900146484375 176.0760040283203
v 58.63570022583008 95.41459655761719 175.00999450683594
v 57.27130126953125 96.69879913330078 172.8560028076172
v 58.67359924316406 100.30599975585938 171.8560028076172
v 59.20650100708008 101.927001953125 173.16600036621094
v 61.11320114135742 100.03800201416016 171.88900756835938
v 63.37969970703125 96.79959869384766 177.843994140625
v 64.7593994140625 97.13629913330078 177.20799255371094
v 64.8916015625 100.15399932861328 175.11300659179688
v 58.75740051269531 102.22000122070312 174.0540008544922
v 61.18840026855469 94.6812973022461 173.29400634765625
v 61.96120071411133 95.25640106201172 172.73699951171875
v 60.18510055541992 94.92440032958984 172.94700622558594
v 61.68669891357422 100.572998046875 179.1999969482422
v 56.61439895629883 100.65799713134766 175.9199981689453
v 62.992698669433594 102.69300079345703 174.88499450683594
v 63.490501403808594 95.65239715576172 174.08399963378906
v 56.388099670410156 99.38020324707031 176.6280059814453
v 61.37310028076172 101.5719985961914 172.97300720214844
v 60.95090103149414 100.875 172.4669952392578
v 56.9114990234375 101.0009994506836 174.75
v 57.385398864746094 101.052001953125 173.48899841308594
v 62.8026008605957 95.49490356445312 173.28799438476562
v 62.37200164794922 96.27439880371094 178.1199951171875
v 62.909400939941406 95.1897964477539 174.7030029296875
v 64.26080322265625 99.197998046875 173.13499450683594
v 58.06549835205078 99.98400115966797 179.14300537109375
v 58.234100341796875 101.3949966430664 178.23899841308594
v 63.59809875488281 101.98200225830078 174.74000549316406
v 63.37689971923828 97.89959716796875 172.4510040283203
v 63.583499908447266 96.15950012207031 173.36099243164062
v 64.22380065917969 96.96810150146484 173.26400756835938
v 65.502197265625 98.33570098876953 175.26699829101562
v 60.17179870605469 102.31800079345703 173.31900024414062
v 63.849998474121094 97.35489654541016 172.781005859375
v 57.165000915527344 97.52400207519531 177.9510040283203
v 57.57550048828125 100.552001953125 178.3800048828125
v 64.6697998046875 97.76229858398438 173.23899841308594
v 57.957298278808594 100.00900268554688 172.0989990234375
v 65.10479736328125 99.6177978515625 176.8350067138672
v 56.805198669433594 100.49299621582031 173.44200134277344
v 62.69459915161133 100.39099884033203 179.18299865722656

g grp1
usemtl mtl1
f 176 2 1 
f 7 1 2 
f 236 4 3 
f 240 3 4 
f 15 6 5 
f 244 5 6 
f 34 1 7 
f 59 9 8 
f 50 8 9 
f 205 11 10 
f 53 10 11 
f 34 13 12 
f 36 12 13 
f 167 15 14 
f 5 14 15 
f 11 17 16 
f 228 16 17 
f 115 19 18 
f 156 18 19 
f 126 21 20 
f 114 20 21 
f 149 23 22 
f 129 22 23 
f 31 2 24 
f 176 24 2 
f 31 7 2 
f 72 26 25 
f 150 25 26 
f 9 28 27 
f 139 27 28 
f 230 30 29 
f 130 29 30 
f 32 7 31 
f 34 7 32 
f 196 10 33 
f 53 33 10 
f 35 34 32 
f 13 34 35 
f 37 36 13 
f 37 13 35 
f 246 39 38 
f 52 38 39 
f 157 41 40 
f 238 40 41 
f 125 43 42 
f 103 42 43 
f 93 45 44 
f 213 44 45 
f 54 47 46 
f 40 46 47 
f 164 49 48 
f 243 48 49 
f 224 50 9 
f 11 16 51 
f 91 51 16 
f 197 52 21 
f 114 21 52 
f 58 31 24 
f 33 53 38 
f 246 38 53 
f 99 55 54 
f 47 54 55 
f 216 57 56 
f 3 56 57 
f 89 31 58 
f 132 59 8 
f 60 32 31 
f 224 9 27 
f 89 60 31 
f 61 35 32 
f 61 32 60 
f 62 37 35 
f 62 35 61 
f 81 64 63 
f 201 63 64 
f 65 37 62 
f 36 37 65 
f 212 67 66 
f 199 66 67 
f 153 69 68 
f 197 68 69 
f 73 36 65 
f 234 71 70 
f 148 70 71 
f 115 72 25 
f 200 74 73 
f 36 73 74 
f 239 76 75 
f 204 75 76 
f 180 78 77 
f 58 77 78 
f 77 80 79 
f 90 79 80 
f 77 58 80 
f 24 80 58 
f 249 82 81 
f 94 81 82 
f 111 84 83 
f 126 83 84 
f 232 86 85 
f 130 85 86 
f 131 88 87 
f 252 87 88 
f 78 89 58 
f 24 90 80 
f 228 91 16 
f 92 60 89 
f 92 89 78 
f 92 61 60 
f 170 45 93 
f 170 81 94 
f 95 62 61 
f 95 61 92 
f 23 65 62 
f 23 62 95 
f 96 73 65 
f 96 65 23 
f 192 98 97 
f 196 97 98 
f 134 73 96 
f 133 100 99 
f 14 99 100 
f 183 102 101 
f 189 101 102 
f 144 79 45 
f 90 45 79 
f 142 20 66 
f 114 66 20 
f 15 75 6 
f 229 6 75 
f 105 77 79 
f 43 104 103 
f 158 103 104 
f 144 105 79 
f 14 5 106 
f 120 106 5 
f 180 77 105 
f 127 108 107 
f 199 107 108 
f 47 55 109 
f 106 109 55 
f 252 110 87 
f 115 87 110 
f 118 111 108 
f 83 108 111 
f 243 113 112 
f 152 112 113 
f 110 116 115 
f 19 115 116 
f 102 117 88 
f 252 88 117 
f 128 111 118 
f 192 116 110 
f 51 91 119 
f 123 119 91 
f 5 121 120 
f 191 120 121 
f 119 123 122 
f 184 122 123 
f 129 95 92 
f 194 125 124 
f 113 124 125 
f 156 126 84 
f 235 128 127 
f 118 127 128 
f 23 95 129 
f 214 85 130 
f 102 88 131 
f 146 133 132 
f 54 132 133 
f 149 134 96 
f 220 86 135 
f 188 135 86 
f 186 137 136 
f 188 136 137 
f 194 124 138 
f 243 138 124 
f 169 139 28 
f 151 141 140 
f 228 140 141 
f 108 83 142 
f 20 142 83 
f 228 17 143 
f 185 143 17 
f 174 105 144 
f 109 106 120 
f 232 85 145 
f 249 145 85 
f 167 100 146 
f 133 146 100 
f 106 99 14 
f 104 148 147 
f 128 147 148 
f 23 149 96 
f 163 131 150 
f 87 150 131 
f 141 151 123 
f 184 123 151 
f 165 152 42 
f 113 42 152 
f 83 126 20 
f 182 153 68 
f 139 155 154 
f 237 154 155 
f 182 126 156 
f 205 17 11 
f 228 141 91 
f 123 91 141 
f 47 157 40 
f 104 147 158 
f 227 158 147 
f 183 160 159 
f 8 159 160 
f 146 160 161 
f 183 161 160 
f 132 8 160 
f 201 162 151 
f 184 151 162 
f 189 131 163 
f 219 49 164 
f 125 42 113 
f 175 22 56 
f 190 56 22 
f 242 152 165 
f 175 149 22 
f 104 70 148 
f 39 122 166 
f 173 166 122 
f 146 168 167 
f 226 167 168 
f 46 169 28 
f 144 170 94 
f 235 127 171 
f 107 171 127 
f 166 173 172 
f 203 172 173 
f 81 170 64 
f 93 64 170 
f 94 174 144 
f 240 149 175 
f 193 105 174 
f 203 176 172 
f 67 172 176 
f 181 129 92 
f 219 178 177 
f 211 177 178 
f 193 179 105 
f 180 105 179 
f 179 181 180 
f 78 180 181 
f 153 182 156 
f 101 161 183 
f 44 184 93 
f 162 93 184 
f 44 122 184 
f 247 186 185 
f 136 185 186 
f 189 163 187 
f 250 187 163 
f 232 188 86 
f 190 129 181 
f 102 131 189 
f 207 190 181 
f 169 155 139 
f 22 129 190 
f 51 53 11 
f 157 191 137 
f 135 137 191 
f 146 132 160 
f 176 1 67 
f 223 67 1 
f 25 87 115 
f 224 192 110 
f 173 122 44 
f 183 117 102 
f 119 122 39 
f 82 174 94 
f 82 193 174 
f 203 24 176 
f 195 179 193 
f 195 193 82 
f 137 135 188 
f 207 179 195 
f 177 189 187 
f 45 170 144 
f 98 27 139 
f 97 116 192 
f 69 196 33 
f 182 21 126 
f 68 197 21 
f 204 198 57 
f 3 57 198 
f 225 143 185 
f 40 155 169 
f 142 66 199 
f 166 52 39 
f 169 46 40 
f 114 52 166 
f 212 166 172 
f 241 74 200 
f 64 162 201 
f 153 156 19 
f 178 202 76 
f 204 76 202 
f 24 203 90 
f 213 90 203 
f 99 106 55 
f 229 75 204 
f 41 157 137 
f 250 206 138 
f 194 138 206 
f 30 207 195 
f 164 48 208 
f 112 208 48 
f 246 51 119 
f 239 178 76 
f 156 84 18 
f 234 18 84 
f 216 190 207 
f 216 56 190 
f 163 150 206 
f 26 206 150 
f 26 209 194 
f 218 194 209 
f 225 210 140 
f 201 140 210 
f 239 211 178 
f 185 17 205 
f 67 212 172 
f 173 44 213 
f 30 195 214 
f 82 214 195 
f 201 151 140 
f 132 54 59 
f 46 59 54 
f 244 29 215 
f 130 215 29 
f 30 216 207 
f 246 119 39 
f 223 34 12 
f 209 26 217 
f 72 217 26 
f 118 108 127 
f 97 153 116 
f 19 116 153 
f 108 142 199 
f 249 214 82 
f 130 30 214 
f 236 208 4 
f 248 4 208 
f 209 43 218 
f 125 218 43 
f 114 212 66 
f 187 219 177 
f 215 86 220 
f 168 146 161 
f 223 221 199 
f 107 199 221 
f 36 222 12 
f 221 12 222 
f 12 221 223 
f 210 63 201 
f 189 177 101 
f 211 101 177 
f 204 202 198 
f 236 198 202 
f 27 192 224 
f 231 210 225 
f 15 167 226 
f 14 100 167 
f 241 158 227 
f 67 223 199 
f 192 27 98 
f 239 75 226 
f 15 226 75 
f 223 1 34 
f 143 140 228 
f 57 230 229 
f 29 229 230 
f 114 166 212 
f 188 232 231 
f 251 231 232 
f 69 33 197 
f 38 197 33 
f 244 229 29 
f 241 227 233 
f 235 233 227 
f 41 137 186 
f 209 104 43 
f 233 171 222 
f 221 222 171 
f 230 57 216 
f 38 52 197 
f 46 28 59 
f 9 59 28 
f 18 234 72 
f 217 72 234 
f 181 179 207 
f 171 233 235 
f 164 208 236 
f 247 237 155 
f 78 181 92 
f 225 185 136 
f 165 103 158 
f 50 159 8 
f 41 186 238 
f 247 238 186 
f 237 205 10 
f 211 239 168 
f 226 168 239 
f 233 222 74 
f 36 74 222 
f 241 165 158 
f 155 40 238 
f 245 240 4 
f 154 10 196 
f 72 115 18 
f 74 241 233 
f 213 203 173 
f 70 104 209 
f 217 234 70 
f 211 161 101 
f 54 133 99 
f 242 165 241 
f 242 241 200 
f 71 84 111 
f 148 71 128 
f 111 128 71 
f 112 48 243 
f 213 45 90 
f 121 5 244 
f 134 200 73 
f 251 63 210 
f 125 194 218 
f 165 42 103 
f 245 242 200 
f 215 121 244 
f 247 205 237 
f 248 242 245 
f 51 246 53 
f 185 205 247 
f 252 224 110 
f 138 243 49 
f 68 21 182 
f 139 154 98 
f 196 98 154 
f 245 134 240 
f 149 240 134 
f 200 134 245 
f 219 202 178 
f 4 248 245 
f 152 242 248 
f 187 49 219 
f 64 93 162 
f 3 240 175 
f 211 168 161 
f 159 50 117 
f 252 117 50 
f 112 152 248 
f 208 112 248 
f 157 47 109 
f 202 219 164 
f 128 235 147 
f 227 147 235 
f 87 25 150 
f 225 140 143 
f 113 243 124 
f 236 202 164 
f 231 136 188 
f 155 238 247 
f 3 175 56 
f 159 117 183 
f 250 163 206 
f 220 191 121 
f 251 145 63 
f 81 63 145 
f 145 249 81 
f 157 120 191 
f 191 220 135 
f 138 49 250 
f 187 250 49 
f 136 231 225 
f 220 121 215 
f 3 198 236 
f 206 26 194 
f 251 210 231 
f 232 145 251 
f 85 214 249 
f 224 252 50 
f 71 234 84 
f 209 217 70 
f 216 30 230 
f 109 120 157 
f 10 154 237 
f 69 153 97 
f 229 244 6 
f 107 221 171 
f 215 130 86 
f 229 204 57 
f 69 97 196 
