#  wavefront obj file written by the visualization toolkit

mtllib livertumor07.mtl

v 135.97799682617188 96.06400299072266 190.4720001220703
v 135.16600036621094 95.77570343017578 190.19000244140625
v 139.01699829101562 91.01850128173828 177.33700561523438
v 140.572998046875 91.3595962524414 177.54400634765625
v 146.3560028076172 81.93569946289062 183.85400390625
v 145.66099548339844 81.70500183105469 182.77000427246094
v 141.86300659179688 89.18240356445312 177.13400268554688
v 143.06300354003906 88.4697036743164 177.98199462890625
v 136.1020050048828 83.91480255126953 181.6790008544922
v 135.01699829101562 85.48090362548828 181.2270050048828
v 139.55299377441406 86.42040252685547 176.32200622558594
v 138.94700622558594 85.99250030517578 176.98199462890625
v 135.96800231933594 96.61910247802734 188.61099243164062
v 136.5050048828125 96.8102035522461 186.78399658203125
v 135.4739990234375 87.5792007446289 190.52699279785156
v 134.35899353027344 86.94319915771484 189.177001953125
v 138.7740020751953 91.96810150146484 192.65699768066406
v 138.2209930419922 92.88179779052734 193.24400329589844
v 146.51699829101562 88.53459930419922 191.69900512695312
v 145.88800048828125 90.28170013427734 192
v 140.1179962158203 86.51689910888672 176.1439971923828
v 139.97999572753906 85.8949966430664 176.65499877929688
v 140.5760040283203 86.31629943847656 176.32699584960938
v 147.4929962158203 82.6010971069336 182.9770050048828
v 150.15899658203125 87.02359771728516 188.7779998779297
v 150.08200073242188 88.38829803466797 189.92100524902344
v 140.70700073242188 85.85240173339844 176.802001953125
v 141.78700256347656 81.09380340576172 183.51100158691406
v 140.05299377441406 81.5613021850586 182.84300231933594
v 135.81300354003906 96.51339721679688 186.83799743652344
v 136.33999633789062 88.6613998413086 191.625
v 138.94700622558594 89.80549621582031 176.57699584960938
v 138.17100524902344 88.94860076904297 176.58299255371094
v 135.1230010986328 94.0197982788086 191.99200439453125
v 135.66700744628906 94.84649658203125 191.84100341796875
v 150.11900329589844 89.63150024414062 181.02499389648438
v 150.76300048828125 88.74629974365234 181.5019989013672
v 139.08799743652344 86.8822021484375 176.2729949951172
v 141.37399291992188 86.41549682617188 176.8679962158203
v 141.95899963378906 85.91429901123047 177.6320037841797
v 144.9510040283203 84.64900207519531 189.63699340820312
v 143.61099243164062 83.71610260009766 189.35000610351562
v 141.16600036621094 88.5416030883789 176.31900024414062
v 147.57200622558594 82.68720245361328 186.33099365234375
v 147.06700134277344 82.32469940185547 185.41000366210938
v 139.95899963378906 87.17849731445312 176.0570068359375
v 140.76800537109375 86.92410278320312 176.197998046875
v 133.1750030517578 92.72840118408203 191.68600463867188
v 133.86500549316406 93.6177978515625 191.55299377441406
v 147.45799255371094 89.52130126953125 180.60400390625
v 148.27499389648438 88.18470001220703 180.78700256347656
v 152.25900268554688 89.55780029296875 187.10800170898438
v 152.18099975585938 88.68440246582031 185.0019989013672
v 132.44900512695312 87.64189910888672 187.39599609375
v 132.01600646972656 88.7947998046875 187.4709930419922
v 147.47500610351562 89.98719787597656 191.4969940185547
v 134.61000061035156 94.71720123291016 191.20700073242188
v 138.48599243164062 81.93199920654297 185.19400024414062
v 139.02699279785156 81.83540344238281 183.5399932861328
v 131.63600158691406 91.74359893798828 187.9770050048828
v 132.11199951171875 92.63469696044922 189.37100219726562
v 135.08799743652344 83.793701171875 184.072998046875
v 134.93699645996094 84.38459777832031 182.75999450683594
v 138.40699768066406 87.56069946289062 176.32000732421875
v 138.3800048828125 86.80480194091797 176.72799682617188
v 138.80299377441406 87.42240142822266 176.16099548339844
v 137.15699768066406 96.30229949951172 190.89300537109375
v 137.89700317382812 96.83159637451172 189.5970001220703
v 139.46200561523438 87.76270294189453 176.03500366210938
v 137.91099548339844 87.46690368652344 176.87100219726562
v 145.5330047607422 86.33650207519531 190.82699584960938
v 144.53700256347656 88.70570373535156 191.906005859375
v 143.4029998779297 94.97850036621094 190.81500244140625
v 144.34800720214844 93.5343017578125 191.46400451660156
v 144.38600158691406 93.5614013671875 180.4499969482422
v 145.5019989013672 94.55960083007812 181.7209930419922
v 145.40499877929688 95.35810089111328 183.3780059814453
v 146.30599975585938 95.05709838867188 185.6280059814453
v 143.8260040283203 81.86389923095703 181.40199279785156
v 144.1959991455078 82.49600219726562 180.7270050048828
v 136.05099487304688 94.89730072021484 180.86700439453125
v 136.99099731445312 93.78040313720703 179.8179931640625
v 151.3179931640625 91.8490982055664 187.6929931640625
v 151.06700134277344 91.63279724121094 189.14300537109375
v 134.36300659179688 93.11740112304688 181.07000732421875
v 135.0260009765625 94.1156997680664 181.0070037841797
v 150.00599670410156 90.5188980102539 181.07699584960938
v 143.33900451660156 85.30269622802734 190.50999450683594
v 144.93499755859375 89.57749938964844 179.46099853515625
v 146.62600708007812 88.23650360107422 180.30499267578125
v 142.84800720214844 90.94670104980469 192
v 141.92300415039062 92.49259948730469 192.1490020751953
v 136.11500549316406 86.14099884033203 189.69200134277344
v 144.40899658203125 95.84929656982422 185.54400634765625
v 138.2830047607422 88.15570068359375 176.3560028076172
v 138.8800048828125 88.08270263671875 176.07699584960938
v 136.27000427246094 83.1364974975586 183.2550048828125
v 140.2209930419922 96.86239624023438 188.40499877929688
v 139.76499938964844 96.88729858398438 185.6750030517578
v 141.16600036621094 92.993896484375 192.8209991455078
v 140.9250030517578 94.56690216064453 193.12899780273438
v 148.66200256347656 88.57689666748047 190.5489959716797
v 133.38299560546875 86.77749633789062 188.03900146484375
v 133.875 91.9832992553711 181.0749969482422
v 133.91900634765625 90.90570068359375 180.6750030517578
v 132.2550048828125 87.68789672851562 183.197998046875
v 132.28700256347656 88.41010284423828 182.2469940185547
v 140.3719940185547 88.18769836425781 176.02999877929688
v 137.93099975585938 93.21959686279297 178.9239959716797
v 140.8509979248047 87.63020324707031 176.11300659179688
v 150.2030029296875 85.64360046386719 182.3000030517578
v 149.26199340820312 84.3646011352539 182.0679931640625
v 141.76100158691406 87.68769836425781 176.74600219726562
v 138.35699462890625 94.51909637451172 179.76400756835938
v 139.41200256347656 93.38469696044922 178.53399658203125
v 147.30799865722656 94.55960083007812 188.16200256347656
v 147.7220001220703 94.18460083007812 189.30999755859375
v 150.67300415039062 87.89440155029297 181.59800720214844
v 150.7969970703125 87.18229675292969 182.11099243164062
v 136.8489990234375 96.62660217285156 183.04299926757812
v 138.58099365234375 96.818603515625 183.96200561523438
v 132.88299560546875 91.97319793701172 191.20899963378906
v 139.48800659179688 95.78800201416016 180.96099853515625
v 141.1820068359375 95.4979019165039 180.6219940185547
v 140.9510040283203 95.46800231933594 192.48199462890625
v 144.15899658203125 91.15910339355469 179.35699462890625
v 145.1820068359375 92.20610046386719 180.3000030517578
v 137.72999572753906 88.17829895019531 176.90199279785156
v 142.71400451660156 85.54759979248047 178.44500732421875
v 141.70899963378906 84.1541976928711 178.61000061035156
v 146.62399291992188 82.40170288085938 187.61900329589844
v 146.03900146484375 81.88670349121094 186.65699768066406
v 142.572998046875 95.65699768066406 190.34500122070312
v 141.77999877929688 96.15840148925781 189.95599365234375
v 138.93499755859375 88.89450073242188 176.13999938964844
v 139.68699645996094 88.6426010131836 176.01800537109375
v 151.08200073242188 88.44709777832031 188.9290008544922
v 132.7519989013672 86.57150268554688 183.98599243164062
v 133.16900634765625 86.66300201416016 182.54600524902344
v 139.4499969482422 82.44670104980469 187.9029998779297
v 138.36199951171875 82.32849884033203 187.3260040283203
v 133.5989990234375 85.2654037475586 184.5449981689453
v 133.4340057373047 85.89959716796875 183.10499572753906
v 134.67300415039062 85.64219665527344 188.3820037841797
v 151.0919952392578 86.55220031738281 183.3820037841797
v 146.8990020751953 85.32740020751953 180.5570068359375
v 146.87899780273438 83.89189910888672 180.91700744628906
v 134.875 95.82559967041016 185.25799560546875
v 136.1179962158203 96.53050231933594 184.63499450683594
v 137.51800537109375 83.04280090332031 187.75999450683594
v 136.24600219726562 83.2083969116211 187.15199279785156
v 131.80499267578125 90.427001953125 183.927001953125
v 131.99099731445312 89.82350158691406 182.78199768066406
v 146.20199584960938 95.035400390625 188.25799560546875
v 143.08299255371094 93.2072982788086 191.87899780273438
v 138.42100524902344 96.26860046386719 191.95700073242188
v 138.62600708007812 95.76000213623047 192.8000030517578
v 139.19200134277344 96.30840301513672 191.94400024414062
v 138.69500732421875 87.41169738769531 191.60499572753906
v 132.40499877929688 89.93080139160156 181.9499969482422
v 132.7469940185547 91.20829772949219 181.8209991455078
v 137.23599243164062 86.74819946289062 190.7689971923828
v 145.4320068359375 83.02469635009766 180.8000030517578
v 144.40899658203125 87.63349914550781 179.1060028076172
v 144.05599975585938 85.82550048828125 179.1649932861328
v 147.89700317382812 83.17849731445312 187.49400329589844
v 151.57400512695312 87.62000274658203 183.2429962158203
v 136.2740020751953 90.63670349121094 178.68600463867188
v 136.9029998779297 89.54940032958984 177.8209991455078
v 142.48199462890625 96.64080047607422 185.7779998779297
v 152.05499267578125 91.30359649658203 185.9239959716797
v 151.3780059814453 91.87470245361328 184.88099670410156
v 132.91700744628906 87.4854965209961 181.9459991455078
v 132.97300720214844 88.50070190429688 181.3459930419922
v 147.04800415039062 94.74510192871094 186.86000061035156
v 133.44900512695312 85.95130157470703 187.02699279785156
v 139.7239990234375 81.65299987792969 186.41700744628906
v 143.94700622558594 81.72109985351562 188.19500732421875
v 143.24899291992188 82.08879852294922 188.59800720214844
v 150.83700561523438 90.46520233154297 181.5760040283203
v 151.38999938964844 90.0916976928711 182.1840057373047
v 140.48899841308594 89.03009796142578 176.1230010986328
v 146.8419952392578 91.0813980102539 191.73800659179688
v 140.69000244140625 89.86699676513672 192.02099609375
v 138.2570037841797 89.5604019165039 191.97999572753906
v 150.63400268554688 85.44270324707031 183.572998046875
v 151.1280059814453 86.2853012084961 184.78799438476562
v 137.96800231933594 96.59490203857422 191.01499938964844
v 137.48599243164062 88.83910369873047 177.18899536132812
v 147.3560028076172 92.20330047607422 191.0500030517578
v 131.7830047607422 88.99909973144531 183.48899841308594
v 133.66000366210938 94.55680084228516 190.33799743652344
v 133.02000427246094 93.28890228271484 191.00399780273438
v 137.9250030517578 89.90670013427734 177.21800231933594
v 134.5919952392578 95.5602035522461 189.49200439453125
v 134.7169952392578 95.23670196533203 190.5760040283203
v 143.2449951171875 81.36509704589844 182.30599975585938
v 141.63999938964844 81.46240234375 182.0570068359375
v 148.2050018310547 85.29640197753906 189.09100341796875
v 146.38999938964844 84.42539978027344 189.11099243164062
v 132.0780029296875 91.9166030883789 183.97300720214844
v 132.65499877929688 92.02459716796875 182.5489959716797
v 151.0780029296875 86.46859741210938 186.08900451660156
v 150.74200439453125 86.58570098876953 187.31100463867188
v 137.41799926757812 86.04810333251953 178.37899780273438
v 137.625 86.78919982910156 177.5970001220703
v 132.58700561523438 86.95050048828125 186.51199340820312
v 132.01499938964844 87.64620208740234 184.74400329589844
v 151.77499389648438 89.51460266113281 188.4010009765625
v 141.90499877929688 96.73179626464844 183.5449981689453
v 142.51800537109375 96.17040252685547 182.21400451660156
v 148.53500366210938 83.27690124511719 182.61900329589844
v 149.33700561523438 83.793701171875 184.43899536132812
v 142.9459991455078 95.56230163574219 181.2449951171875
v 140.40199279785156 95.32060241699219 193.2259979248047
v 139.83900451660156 94.5905990600586 193.55499267578125
v 140.89599609375 89.61799621582031 176.56900024414062
v 136.1999969482422 84.41739654541016 188.41600036621094
v 135.572998046875 92.96530151367188 180.20399475097656
v 148.5749969482422 93.41230010986328 182.63400268554688
v 148.69900512695312 93.86869812011719 184.90199279785156
v 143.09100341796875 86.61039733886719 191.49600219726562
v 137.05499267578125 83.51200103759766 188.30999755859375
v 137.5970001220703 85.03250122070312 189.60699462890625
v 145.56300354003906 83.15260314941406 188.7689971923828
v 144.60899353027344 82.49590301513672 188.7530059814453
v 140.74400329589844 81.79080200195312 187.55099487304688
v 140.82400512695312 82.9729995727539 188.70599365234375
v 150.53700256347656 91.14559936523438 181.61300659179688
v 134.68800354003906 84.39859771728516 186.80599975585938
v 139.8509979248047 89.5062026977539 176.20700073242188
v 141.6840057373047 96.67359924316406 187.8800048828125
v 142.9739990234375 96.16190338134766 188.2790069580078
v 143.81100463867188 81.1072006225586 184.2550048828125
v 141.9340057373047 80.9822006225586 185.04299926757812
v 132.8419952392578 93.83180236816406 189.85699462890625
v 132.69000244140625 94.03720092773438 187.69900512695312
v 151.60899353027344 87.0896987915039 184.88600158691406
v 138.84300231933594 83.54669952392578 188.74000549316406
v 140.30799865722656 84.2791976928711 189.39999389648438
v 139.06500244140625 95.4031982421875 193.29200744628906
v 140.11399841308594 90.32029724121094 176.7729949951172
v 134.14599609375 94.94409942626953 183.5279998779297
v 134.72500610351562 95.55570220947266 183.48899841308594
v 149.88400268554688 86.82969665527344 181.3459930419922
v 133.25599670410156 89.93949890136719 181.0240020751953
v 152.29600524902344 90.75409698486328 187.01499938964844
v 151.75999450683594 91.5999984741211 186.68600463867188
v 139.13699340820312 96.88069915771484 189.7209930419922
v 139.8040008544922 96.76069641113281 190.6909942626953
v 149.00100708007812 89.54180145263672 180.83799743652344
v 142.13299560546875 93.41390228271484 179.12399291992188
v 143.51100158691406 92.71009826660156 179.56100463867188
v 151.9949951171875 87.88009643554688 184.74400329589844
v 152.01100158691406 88.47129821777344 186.74899291992188
v 134.156005859375 95.14849853515625 189.7740020751953
v 150.56900024414062 85.44879913330078 185.14999389648438
v 147.68800354003906 89.09220123291016 191.19000244140625
v 147.27099609375 87.27130126953125 190.75599670410156
v 135.46200561523438 86.23660278320312 180.3090057373047
v 136.25599670410156 85.10870361328125 180.3040008544922
v 145.27999877929688 84.19129943847656 180.20899963378906
v 137.2449951171875 95.46869659423828 180.8040008544922
v 132.125 91.27349853515625 183.25100708007812
v 134.8560028076172 89.8667984008789 179.91600036621094
v 144.23699951171875 95.03829956054688 181.48899841308594
v 142.69400024414062 94.4374008178711 180.12399291992188
v 131.6999969482422 89.25260162353516 184.89999389648438
v 142.7310028076172 90.14299774169922 178.18499755859375
v 140.4949951171875 83.93270111083984 178.44000244140625
v 141.23599243164062 84.82009887695312 177.8719940185547
v 134.0279998779297 88.37169647216797 189.92599487304688
v 134.97999572753906 90.7218017578125 191.9669952392578
v 131.9040069580078 92.64820098876953 186.7220001220703
v 132.947998046875 87.89240264892578 188.322998046875
v 137.38400268554688 93.35679626464844 192.89999389648438
v 136.96800231933594 94.12370300292969 192.9080047607422
v 141.99600219726562 95.05509948730469 191.71600341796875
v 148.63099670410156 86.74639892578125 189.99099731445312
v 134.15499877929688 94.07929992675781 181.96099853515625
v 138.11700439453125 86.01280212402344 177.5970001220703
v 140.2949981689453 95.69850158691406 192.76699829101562
v 148.6510009765625 93.48809814453125 189.48599243164062
v 148.1840057373047 94.13529968261719 188.2209930419922
v 136.8509979248047 82.71990203857422 186.29299926757812
v 140.0959930419922 84.6177978515625 177.82899475097656
v 138.26300048828125 95.94619750976562 181.25
v 141.00100708007812 85.4302978515625 177.36000061035156
v 142.2429962158203 93.93620300292969 192.21499633789062
v 137.48800659179688 94.91899871826172 193.19000244140625
v 137.4010009765625 95.47750091552734 192.61000061035156
v 138.29400634765625 95.20059967041016 193.35800170898438
v 145.37100219726562 81.4845962524414 184.44700622558594
v 143.0240020751953 86.94550323486328 178.0970001220703
v 136.89300537109375 92.3019027709961 178.99400329589844
v 138.30999755859375 85.21440124511719 178.13900756835938
v 139.42999267578125 85.20490264892578 177.48500061035156
v 140.20199584960938 81.30470275878906 184.7169952392578
v 147.73699951171875 92.91639709472656 181.28599548339844
v 147.64100646972656 93.97139739990234 182.9980010986328
v 150.17799377441406 84.72699737548828 184.27699279785156
v 149.67799377441406 84.28450012207031 182.90199279785156
v 137.14599609375 87.97470092773438 177.63299560546875
v 131.68899536132812 90.29139709472656 185.82200622558594
v 136.75900268554688 96.7865982055664 188.9320068359375
v 134.51800537109375 84.17980194091797 185.11599731445312
v 140.33599853515625 85.33070373535156 177.24099731445312
v 142.8730010986328 81.12300109863281 186.4199981689453
v 142.24400329589844 81.49749755859375 187.64700317382812
v 137.27499389648438 85.14189910888672 179.25
v 138.13699340820312 84.24649810791016 179.2469940185547
v 134.94900512695312 87.66519927978516 180.20199584960938
v 136.10299682617188 88.61640167236328 178.73800659179688
v 142.02200317382812 81.99359893798828 188.49400329589844
v 135.8719940185547 92.5167007446289 192.11900329589844
v 133.8040008544922 91.93070220947266 191.9029998779297
v 152.0919952392578 89.293701171875 183.60699462890625
v 152.2949981689453 90.01969909667969 185.47999572753906
v 145.60299682617188 86.8821029663086 179.79200744628906
v 140.87399291992188 92.78489685058594 178.29100036621094
v 149.42300415039062 84.43419647216797 187.1699981689453
v 148.64700317382812 84.38369750976562 188.14599609375
v 137.66700744628906 82.45800018310547 182.9949951171875
v 138.91900634765625 82.34339904785156 181.86700439453125
v 147.36700439453125 94.55249786376953 184.9010009765625
v 133.99400329589844 95.08270263671875 184.85299682617188
v 137.44000244140625 82.44830322265625 186.3040008544922
v 135.33599853515625 96.24720001220703 188.781005859375
v 133.59800720214844 90.62480163574219 191.48500061035156
v 149.63299560546875 93.12899780273438 183.4040069580078
v 150.48500061035156 92.0833969116211 182.52200317382812
v 131.6320037841797 91.2708969116211 186.39500427246094
v 132.19400024414062 92.48040008544922 185.1439971923828
v 141.61300659179688 84.77490234375 190.04800415039062
v 139.18299865722656 85.56559753417969 190.31399536132812
v 148.22500610351562 94.20860290527344 186.75399780273438
v 137.1479949951172 96.84290313720703 185.4239959716797
v 138.57400512695312 96.9000015258789 187.45700073242188
v 132.5489959716797 93.4791030883789 186.3090057373047
v 151.79299926757812 89.59300231933594 182.6959991455078
v 145.19700622558594 81.97899627685547 181.71299743652344
v 142.3280029296875 83.1636962890625 189.0469970703125
v 133.45799255371094 92.80899810791016 181.9720001220703
v 136.0709991455078 93.76799774169922 192.21200561523438
v 144.73199462890625 81.46659851074219 186.86000061035156
v 133.49600219726562 93.66179656982422 183.14999389648438
v 136.1490020751953 94.38169860839844 192.20399475097656
v 145.06100463867188 94.93440246582031 190.07899475097656
v 146.6320037841797 90.89929962158203 180.42599487304688
v 138.36500549316406 92.32710266113281 178.13600158691406
v 139.85400390625 94.69770050048828 179.6219940185547
v 141.06300354003906 94.21080017089844 179.26699829101562
v 141.16299438476562 81.16840362548828 186.0800018310547
v 137.11099243164062 91.57019805908203 192.30599975585938
v 136.67799377441406 94.89019775390625 192.4320068359375
v 140.71299743652344 96.33889770507812 191.0070037841797
v 139.94900512695312 96.21759796142578 191.94500732421875
v 140.6230010986328 95.96829986572266 192.0070037841797
v 133.5780029296875 89.48989868164062 190.5850067138672
v 132.49400329589844 89.3770980834961 189.10000610351562
v 147.01100158691406 83.37259674072266 188.5540008544922
v 145.9709930419922 82.17759704589844 188.33200073242188
v 137.468994140625 91.15809631347656 177.97799682617188
v 140.83099365234375 96.6426010131836 189.57899475097656
v 134.6510009765625 89.2385025024414 191.28799438476562
v 141.13499450683594 96.8677978515625 185.59500122070312
v 134.06100463867188 84.98419952392578 183.6199951171875
v 142.3719940185547 87.04660034179688 177.44700622558594
v 137.64700317382812 96.45140075683594 182.0760040283203
v 144.81700134277344 81.39990234375 182.91400146484375
v 133.86599731445312 85.81189727783203 182.16400146484375
v 148.57000732421875 86.75080108642578 180.83700561523438
v 151.7100067138672 91.16429901123047 183.9669952392578
v 136.85899353027344 87.20130157470703 178.32200622558594
v 133.78900146484375 95.10880279541016 188.30599975585938
v 132.0449981689453 93.21410369873047 187.66200256347656
v 132.51199340820312 92.64550018310547 190.6929931640625
v 150.56199645996094 92.1531982421875 189.39599609375
v 150.22000122070312 92.84149932861328 188.1269989013672
v 151.41200256347656 89.08080291748047 182.16600036621094
v 151.89700317382812 88.5719985961914 183.15699768066406
v 148.80599975585938 90.40560150146484 190.5989990234375
v 148.4709930419922 91.35820007324219 190.78900146484375
v 133.40199279785156 94.74759674072266 189.1750030517578
v 139.906005859375 95.36190032958984 193.3179931640625
v 139.47500610351562 95.75299835205078 192.802001953125
v 150.70199584960938 91.5145034790039 189.93499755859375
v 132.64100646972656 90.50170135498047 190.36900329589844
v 146.6199951171875 94.37529754638672 182.4250030517578
v 146.6699981689453 93.57260131835938 181.29800415039062
v 150.947998046875 89.65160369873047 181.59800720214844
v 135.3769989013672 91.39969635009766 179.72500610351562
v 142.13099670410156 91.72160339355469 178.42300415039062
v 141.46099853515625 87.98680114746094 191.968994140625
v 146.5229949951172 85.37809753417969 189.968994140625
v 135.7100067138672 96.17900085449219 182.97799682617188
v 143.85800170898438 83.34020233154297 179.98199462890625
v 132.3179931640625 91.58450317382812 190.3990020751953
v 146.4199981689453 94.86900329589844 183.37600708007812
v 149.6750030517578 85.4572982788086 187.91299438476562
v 139.9980010986328 93.1720962524414 193.22000122070312
v 145.36500549316406 95.23930358886719 188.9949951171875
v 148.94900512695312 83.65840148925781 186.34800720214844
v 140.83799743652344 96.43199920654297 182.02999877929688
v 150.2530059814453 90.86219787597656 190.20700073242188
v 149.81500244140625 91.6969985961914 190.25799560546875
v 151.70599365234375 90.38980102539062 182.7480010986328
v 139.1750030517578 96.58509826660156 182.39500427246094
v 150.4239959716797 92.93280029296875 186.67799377441406
v 150.94500732421875 92.42250061035156 185.7760009765625
v 138.03199768066406 93.92279815673828 193.5290069580078
v 136.39300537109375 96.23809814453125 181.7989959716797
v 133.73899841308594 85.00900268554688 185.79299926757812
v 138.06300354003906 95.74720001220703 192.75799560546875
v 132.94000244140625 86.09839630126953 185.43800354003906
v 149.6750030517578 93.43329620361328 186.68099975585938
v 150.6790008544922 92.4031982421875 183.81500244140625
v 149.68899536132812 92.73799896240234 189.50100708007812
v 132.0050048828125 88.09940338134766 186.2310028076172
v 151.68499755859375 87.50509643554688 186.26600646972656
v 145.1529998779297 81.9343032836914 188.48800659179688
v 138.31500244140625 83.11650085449219 180.7100067138672
v 138.89100646972656 93.5093002319336 193.55499267578125
v 137.10899353027344 82.50440216064453 184.86199951171875
v 143.46099853515625 84.3488998413086 179.26699829101562
v 148.93499755859375 92.42870330810547 190.3470001220703
v 140.37100219726562 91.44100189208984 192.24400329589844
v 149.05599975585938 90.79460144042969 180.98199462890625
v 134.71600341796875 95.89859771728516 187.81199645996094
v 136.21400451660156 95.43299865722656 191.61099243164062
v 135.80299377441406 83.13899993896484 185.35699462890625
v 133.51199340820312 94.70539855957031 186.33700561523438
v 149.83999633789062 91.73490142822266 181.49899291992188
v 150.17999267578125 85.30560302734375 186.61700439453125
v 150.06100463867188 84.79199981689453 185.927001953125
v 145.2469940185547 85.41079711914062 179.78399658203125
v 140.48399353027344 96.80149841308594 183.4770050048828
v 145.73800659179688 92.02909851074219 191.8419952392578
v 150.906005859375 89.79219818115234 189.6540069580078
v 131.76499938964844 89.54399871826172 186.89500427246094
v 147.96299743652344 83.51959991455078 181.70399475097656
v 131.92999267578125 90.78710174560547 189.3679962158203
v 149.63699340820312 88.19129943847656 180.96800231933594
v 147.9759979248047 93.23159790039062 190.20599365234375
v 141.36099243164062 90.4218978881836 177.38699340820312
v 134.4669952392578 92.99440002441406 191.97000122070312
v 145.8520050048828 93.73059844970703 190.96200561523438
v 142.677001953125 82.64440155029297 180.20199584960938
v 142.0570068359375 82.09120178222656 180.89999389648438
v 152.05999755859375 90.43409729003906 184.02699279785156
v 145.64100646972656 93.472900390625 180.94000244140625
v 143.90899658203125 95.65550231933594 189.29200744628906
v 151.76800537109375 90.89779663085938 188.2550048828125
v 133.74600219726562 87.10209655761719 181.28700256347656
v 139.26600646972656 83.84320068359375 178.88800048828125
v 131.77999877929688 91.23639678955078 184.8520050048828
v 146.4949951171875 82.52020263671875 181.73300170898438
v 151.17999267578125 90.84609985351562 189.39500427246094
v 147.04600524902344 93.29080200195312 190.57200622558594
v 146.6439971923828 94.59049987792969 189.64199829101562
v 150.1020050048828 93.04170227050781 184.9929962158203
v 141.51600646972656 95.69129943847656 191.38299560546875
v 140.48899841308594 82.12539672851562 181.13499450683594
v 151.23199462890625 91.10340118408203 182.46200561523438
v 131.93299865722656 89.92680358886719 188.39500427246094
v 131.68800354003906 90.44429779052734 187.73500061035156
v 150.88900756835938 92.27549743652344 187.8990020751953
v 143.23300170898438 96.35590362548828 184.1840057373047
v 144.30499267578125 91.38999938964844 192
v 137.26800537109375 96.88490295410156 187.8090057373047
v 138.39999389648438 84.20259857177734 189.19900512695312
v 133.21499633789062 93.8634033203125 184.8040008544922
v 151.4250030517578 88.04959869384766 187.91200256347656
v 147.09100341796875 86.79509735107422 180.4669952392578
v 149.2310028076172 93.5770034790039 188.03500366210938
v 146.593994140625 92.35679626464844 180.77499389648438
v 148.37899780273438 91.8207015991211 181.01600646972656
v 139.7169952392578 92.18659973144531 177.76100158691406
v 140.79800415039062 86.16490173339844 191.13600158691406
v 149.6909942626953 89.79429626464844 190.38600158691406
v 139.86000061035156 83.0270004272461 179.84500122070312
v 132.8000030517578 92.65249633789062 183.302001953125
v 135.18800354003906 95.2428970336914 191.14700317382812
v 148.6959991455078 85.15470123291016 181.25
v 144.802001953125 95.58619689941406 187.68499755859375
v 149.19000244140625 92.64610290527344 181.8719940185547
v 142.1719970703125 83.36519622802734 179.41200256347656
v 140.95399475097656 83.40959930419922 179.1219940185547
v 151.13099670410156 91.84719848632812 183.3719940185547
v 137.12899780273438 83.68550109863281 180.9429931640625
v 138.97999572753906 84.5438003540039 178.22300720214844
v 137.74600219726562 96.0707015991211 191.9929962158203
v 136.2729949951172 86.65010070800781 179.29400634765625
v 144.1999969482422 95.82039642333984 182.89599609375
v 137.07200622558594 95.64830017089844 192.0030059814453
v 138.98500061035156 94.70089721679688 193.56100463867188
v 141.15699768066406 82.739501953125 179.96800231933594
v 135.11599731445312 95.43119812011719 182.03199768066406
v 133.86099243164062 88.71269989013672 180.71099853515625
v 151.3070068359375 88.18769836425781 182.177001953125
v 138.89300537109375 96.78189849853516 190.84500122070312
v 148.21800231933594 82.91179656982422 184.5070037841797

g grp1
usemtl mtl1
f 13 2 1 
f 483 1 2 
f 478 4 3 
f 242 3 4 
f 293 6 5 
f 457 5 6 
f 269 8 7 
f 113 7 8 
f 63 10 9 
f 261 9 10 
f 22 12 11 
f 38 11 12 
f 305 14 13 
f 30 13 14 
f 272 16 15 
f 93 15 16 
f 423 18 17 
f 354 17 18 
f 56 20 19 
f 72 19 20 
f 23 22 21 
f 11 21 22 
f 27 22 23 
f 45 5 24 
f 457 24 5 
f 137 26 25 
f 279 25 26 
f 39 27 23 
f 298 29 28 
f 198 28 29 
f 328 13 30 
f 365 15 31 
f 162 31 15 
f 135 33 32 
f 194 32 33 
f 347 35 34 
f 57 34 35 
f 391 37 36 
f 443 36 37 
f 46 11 38 
f 368 40 39 
f 288 39 40 
f 88 42 41 
f 225 41 42 
f 46 21 11 
f 217 7 43 
f 113 43 7 
f 131 45 44 
f 502 44 45 
f 47 23 21 
f 47 21 46 
f 47 39 23 
f 446 49 48 
f 193 48 49 
f 251 51 50 
f 90 50 51 
f 255 53 52 
f 318 52 53 
f 275 55 54 
f 419 54 55 
f 113 39 47 
f 258 56 19 
f 49 34 57 
f 323 59 58 
f 298 58 59 
f 442 61 60 
f 376 60 61 
f 367 63 62 
f 97 62 63 
f 66 65 64 
f 70 64 65 
f 38 65 66 
f 188 68 67 
f 305 67 68 
f 69 38 66 
f 46 38 69 
f 95 64 70 
f 19 72 71 
f 222 71 72 
f 155 74 73 
f 348 73 74 
f 110 47 46 
f 266 76 75 
f 451 75 76 
f 94 78 77 
f 399 77 78 
f 448 80 79 
f 341 79 80 
f 263 82 81 
f 219 81 82 
f 467 84 83 
f 453 83 84 
f 280 86 85 
f 219 85 86 
f 180 36 87 
f 251 87 36 
f 222 88 71 
f 41 71 88 
f 50 90 89 
f 164 89 90 
f 155 92 91 
f 184 91 92 
f 144 93 16 
f 494 94 77 
f 128 95 70 
f 96 66 64 
f 96 64 95 
f 9 97 63 
f 69 66 96 
f 366 99 98 
f 338 98 99 
f 289 101 100 
f 401 100 101 
f 480 102 26 
f 279 26 102 
f 275 54 103 
f 207 103 54 
f 392 105 104 
f 161 104 105 
f 191 107 106 
f 173 106 107 
f 69 108 46 
f 110 46 108 
f 114 109 82 
f 295 82 109 
f 43 110 108 
f 302 112 111 
f 484 111 112 
f 43 113 110 
f 47 110 113 
f 351 115 114 
f 109 114 115 
f 460 117 116 
f 284 116 117 
f 500 119 118 
f 245 118 119 
f 337 121 120 
f 369 120 121 
f 193 122 48 
f 316 48 122 
f 404 124 123 
f 351 123 124 
f 215 101 125 
f 278 125 101 
f 253 127 126 
f 349 126 127 
f 33 95 128 
f 425 130 129 
f 271 129 130 
f 362 132 131 
f 45 131 132 
f 135 96 95 
f 233 134 133 
f 462 133 134 
f 33 135 95 
f 136 69 96 
f 136 96 135 
f 439 26 137 
f 106 139 138 
f 143 138 139 
f 239 141 140 
f 177 140 141 
f 138 143 142 
f 367 142 143 
f 218 93 144 
f 167 145 119 
f 111 119 145 
f 5 45 132 
f 484 147 146 
f 262 146 147 
f 30 149 148 
f 396 148 149 
f 223 151 150 
f 285 150 151 
f 264 153 152 
f 191 152 153 
f 175 154 116 
f 460 116 154 
f 469 74 155 
f 414 157 156 
f 158 156 157 
f 386 158 157 
f 185 31 159 
f 162 159 31 
f 264 161 160 
f 246 160 161 
f 15 93 162 
f 224 162 93 
f 397 163 80 
f 341 80 163 
f 319 165 164 
f 129 164 165 
f 361 131 166 
f 44 166 131 
f 238 145 167 
f 363 169 168 
f 313 168 169 
f 233 94 170 
f 468 170 94 
f 373 172 171 
f 248 171 172 
f 107 174 173 
f 454 173 174 
f 78 154 175 
f 144 103 176 
f 207 176 103 
f 58 177 141 
f 226 179 178 
f 309 178 179 
f 182 108 136 
f 69 136 108 
f 464 181 180 
f 391 180 181 
f 231 182 136 
f 438 20 183 
f 56 183 20 
f 43 108 182 
f 427 185 184 
f 159 184 185 
f 145 187 186 
f 257 186 187 
f 492 188 67 
f 194 189 169 
f 303 169 189 
f 383 190 183 
f 438 183 190 
f 153 107 191 
f 236 193 192 
f 49 192 193 
f 189 194 33 
f 256 196 195 
f 2 195 196 
f 429 30 148 
f 28 198 197 
f 449 197 198 
f 395 200 199 
f 361 199 200 
f 482 202 201 
f 264 201 202 
f 231 135 32 
f 420 204 203 
f 434 203 204 
f 374 206 205 
f 281 205 206 
f 419 208 207 
f 415 207 208 
f 453 209 52 
f 255 52 209 
f 468 211 210 
f 404 210 211 
f 302 213 212 
f 502 212 213 
f 494 214 211 
f 124 211 214 
f 217 43 182 
f 385 216 215 
f 101 215 216 
f 231 217 182 
f 89 164 8 
f 294 8 164 
f 230 151 218 
f 223 218 151 
f 295 219 82 
f 349 89 126 
f 269 126 89 
f 300 221 220 
f 330 220 221 
f 471 224 223 
f 218 223 224 
f 42 226 225 
f 421 225 226 
f 314 228 227 
f 140 227 228 
f 180 87 229 
f 428 229 87 
f 176 230 144 
f 218 144 230 
f 134 233 232 
f 170 232 233 
f 308 235 234 
f 28 234 235 
f 384 237 236 
f 61 236 237 
f 242 217 231 
f 471 223 150 
f 203 187 238 
f 145 238 187 
f 228 240 239 
f 471 239 240 
f 386 157 241 
f 292 241 157 
f 3 242 32 
f 231 32 242 
f 326 244 243 
f 498 243 244 
f 111 245 119 
f 105 246 161 
f 171 248 247 
f 453 247 248 
f 501 250 249 
f 98 249 250 
f 483 57 35 
f 428 251 50 
f 267 253 252 
f 393 252 253 
f 53 255 254 
f 420 254 255 
f 375 256 195 
f 203 257 187 
f 191 106 208 
f 138 208 106 
f 19 259 258 
f 102 258 259 
f 493 261 260 
f 10 260 261 
f 434 257 203 
f 147 163 262 
f 397 262 163 
f 114 82 263 
f 153 264 160 
f 105 265 246 
f 499 246 265 
f 456 201 264 
f 267 266 75 
f 75 253 267 
f 152 191 268 
f 208 268 191 
f 89 8 269 
f 294 129 40 
f 271 40 129 
f 286 271 270 
f 130 270 271 
f 365 272 15 
f 275 103 16 
f 144 16 103 
f 354 273 31 
f 365 31 273 
f 474 90 51 
f 376 274 60 
f 332 60 274 
f 272 275 16 
f 395 41 200 
f 225 200 41 
f 411 277 276 
f 344 276 277 
f 289 278 101 
f 199 25 279 
f 498 280 243 
f 346 243 280 
f 464 180 229 
f 206 65 281 
f 12 281 65 
f 215 125 282 
f 358 282 125 
f 475 284 283 
f 117 283 284 
f 463 198 29 
f 327 150 285 
f 288 271 286 
f 408 123 287 
f 114 287 123 
f 307 288 286 
f 40 271 288 
f 73 289 155 
f 92 155 289 
f 391 36 180 
f 414 291 290 
f 355 290 291 
f 496 241 292 
f 370 293 234 
f 345 234 293 
f 140 228 239 
f 164 129 294 
f 392 219 295 
f 12 297 296 
f 491 296 297 
f 235 298 28 
f 281 12 296 
f 390 300 299 
f 220 299 300 
f 213 302 301 
f 186 301 302 
f 128 303 189 
f 440 304 268 
f 152 268 304 
f 67 305 1 
f 13 1 305 
f 367 62 306 
f 431 306 62 
f 22 307 297 
f 286 297 307 
f 431 62 97 
f 27 307 22 
f 288 307 27 
f 178 309 308 
f 353 308 309 
f 296 311 310 
f 490 310 311 
f 265 313 312 
f 493 312 313 
f 227 309 314 
f 179 314 309 
f 446 316 315 
f 273 315 316 
f 450 318 317 
f 53 317 318 
f 474 319 90 
f 164 90 319 
f 352 252 320 
f 393 320 252 
f 400 322 321 
f 166 321 322 
f 422 324 323 
f 59 323 324 
f 175 325 78 
f 399 78 325 
f 148 244 326 
f 161 264 202 
f 424 327 285 
f 2 13 328 
f 273 316 329 
f 122 329 316 
f 417 331 330 
f 486 330 331 
f 274 333 332 
f 456 332 333 
f 38 12 65 
f 479 335 334 
f 240 334 335 
f 116 284 336 
f 475 336 284 
f 357 250 158 
f 501 158 250 
f 470 338 337 
f 121 337 338 
f 376 339 274 
f 333 274 339 
f 407 340 181 
f 380 181 340 
f 457 341 163 
f 297 12 22 
f 240 228 342 
f 314 342 228 
f 482 343 202 
f 104 202 343 
f 39 288 27 
f 381 317 53 
f 315 276 344 
f 421 178 345 
f 308 345 178 
f 343 346 280 
f 355 35 347 
f 447 348 74 
f 476 349 127 
f 115 350 109 
f 295 109 350 
f 124 352 351 
f 115 351 352 
f 227 353 309 
f 249 98 338 
f 276 315 354 
f 273 354 315 
f 277 355 347 
f 205 281 296 
f 250 357 356 
f 358 356 357 
f 495 355 291 
f 462 358 125 
f 388 360 359 
f 272 359 360 
f 70 65 206 
f 225 362 361 
f 131 361 362 
f 29 59 324 
f 295 363 168 
f 356 134 364 
f 232 364 134 
f 430 35 355 
f 273 329 365 
f 359 365 329 
f 400 199 322 
f 361 322 199 
f 232 170 366 
f 210 366 170 
f 371 63 367 
f 335 159 162 
f 473 137 25 
f 113 368 39 
f 408 369 121 
f 197 370 234 
f 10 63 371 
f 474 372 146 
f 484 146 372 
f 450 373 171 
f 308 234 345 
f 318 171 247 
f 294 368 8 
f 113 8 368 
f 303 206 374 
f 52 318 247 
f 386 282 357 
f 358 357 282 
f 344 347 34 
f 303 70 206 
f 429 375 195 
f 237 376 61 
f 6 370 341 
f 79 341 370 
f 193 236 377 
f 61 377 236 
f 467 379 378 
f 418 378 379 
f 287 114 263 
f 340 381 380 
f 500 380 381 
f 266 267 214 
f 124 214 267 
f 406 383 382 
f 56 382 383 
f 192 384 236 
f 282 386 385 
f 241 385 386 
f 406 387 378 
f 84 378 387 
f 415 176 207 
f 442 360 388 
f 300 390 389 
f 451 389 390 
f 380 391 181 
f 104 219 392 
f 335 162 224 
f 465 55 360 
f 275 360 55 
f 253 126 393 
f 269 393 126 
f 72 394 222 
f 479 222 394 
f 362 345 132 
f 293 132 345 
f 173 139 106 
f 384 256 375 
f 202 104 161 
f 259 71 395 
f 41 395 71 
f 120 396 149 
f 448 397 80 
f 337 149 14 
f 30 14 149 
f 478 3 350 
f 363 350 3 
f 122 398 388 
f 442 388 398 
f 25 400 204 
f 434 204 400 
f 216 401 101 
f 98 232 366 
f 460 154 402 
f 485 402 154 
f 435 321 403 
f 166 403 321 
f 313 169 303 
f 413 142 306 
f 367 306 142 
f 469 91 72 
f 394 72 91 
f 408 404 123 
f 387 406 405 
f 382 405 406 
f 450 340 407 
f 369 408 287 
f 452 133 73 
f 278 73 133 
f 227 177 353 
f 298 353 177 
f 467 410 409 
f 461 409 410 
f 480 405 382 
f 461 330 221 
f 423 411 18 
f 276 18 411 
f 384 375 237 
f 432 237 375 
f 120 412 396 
f 498 396 412 
f 258 382 56 
f 230 176 413 
f 415 413 176 
f 347 344 277 
f 292 157 414 
f 138 415 208 
f 135 231 136 
f 336 416 221 
f 461 221 416 
f 100 92 289 
f 461 417 330 
f 256 384 192 
f 426 418 283 
f 475 283 418 
f 440 268 419 
f 208 419 268 
f 238 420 203 
f 362 421 345 
f 490 422 323 
f 454 139 173 
f 431 424 285 
f 457 163 147 
f 184 159 394 
f 479 394 159 
f 436 262 425 
f 397 425 262 
f 444 190 426 
f 383 426 190 
f 92 427 184 
f 376 237 339 
f 432 339 237 
f 353 235 308 
f 277 290 355 
f 433 229 428 
f 328 30 429 
f 67 1 430 
f 483 430 1 
f 151 230 431 
f 306 431 230 
f 336 221 325 
f 300 325 221 
f 200 225 361 
f 477 433 428 
f 186 302 111 
f 321 435 434 
f 257 434 435 
f 474 436 319 
f 165 319 436 
f 99 437 121 
f 408 121 437 
f 458 84 387 
f 469 20 438 
f 482 201 333 
f 456 333 201 
f 79 370 197 
f 298 177 58 
f 458 439 209 
f 137 209 439 
f 58 327 424 
f 465 440 55 
f 419 55 440 
f 212 441 112 
f 484 112 441 
f 491 311 296 
f 470 305 68 
f 445 242 4 
f 382 258 102 
f 398 61 442 
f 306 230 413 
f 57 256 192 
f 251 36 443 
f 117 444 283 
f 426 283 444 
f 369 412 120 
f 393 445 4 
f 34 49 446 
f 87 251 428 
f 74 438 447 
f 459 447 438 
f 499 265 312 
f 463 29 324 
f 374 313 303 
f 491 297 286 
f 79 449 448 
f 497 448 449 
f 317 340 450 
f 476 451 390 
f 424 323 58 
f 290 277 411 
f 73 348 452 
f 402 452 348 
f 7 217 445 
f 242 445 217 
f 455 422 311 
f 490 311 422 
f 468 210 170 
f 406 418 426 
f 445 269 7 
f 458 209 453 
f 239 150 141 
f 327 141 150 
f 17 354 185 
f 31 185 354 
f 270 455 286 
f 491 286 455 
f 490 9 261 
f 168 265 392 
f 105 392 265 
f 276 354 18 
f 152 456 264 
f 84 458 453 
f 267 252 352 
f 117 460 459 
f 447 459 460 
f 3 194 363 
f 169 363 194 
f 358 462 356 
f 134 356 462 
f 147 441 457 
f 24 457 441 
f 497 449 463 
f 198 463 449 
f 494 266 214 
f 502 45 24 
f 179 226 42 
f 489 172 373 
f 92 100 427 
f 401 427 100 
f 383 183 56 
f 407 181 464 
f 364 98 250 
f 334 240 342 
f 457 6 341 
f 465 360 442 
f 442 466 465 
f 440 465 466 
f 104 85 219 
f 336 175 116 
f 393 269 445 
f 225 421 362 
f 485 154 78 
f 344 34 446 
f 76 77 399 
f 83 410 467 
f 458 405 439 
f 480 439 405 
f 143 139 371 
f 454 371 139 
f 381 53 254 
f 301 186 257 
f 378 84 467 
f 472 339 432 
f 398 377 61 
f 72 20 469 
f 352 124 267 
f 73 278 289 
f 415 138 142 
f 68 338 470 
f 50 89 349 
f 71 259 19 
f 102 259 279 
f 395 279 259 
f 335 471 240 
f 77 76 266 
f 373 407 464 
f 454 10 371 
f 472 243 346 
f 263 369 287 
f 494 211 468 
f 485 94 233 
f 321 434 400 
f 443 245 372 
f 484 372 245 
f 243 472 326 
f 432 326 472 
f 481 422 455 
f 369 263 412 
f 81 412 263 
f 438 74 469 
f 204 473 25 
f 449 79 197 
f 470 14 305 
f 325 300 389 
f 146 436 474 
f 158 386 357 
f 124 404 211 
f 496 411 423 
f 473 209 137 
f 343 85 104 
f 343 280 85 
f 443 51 251 
f 502 24 212 
f 441 212 24 
f 480 382 102 
f 486 220 330 
f 120 149 337 
f 212 112 302 
f 250 356 364 
f 304 466 332 
f 60 332 466 
f 298 235 353 
f 83 453 248 
f 299 477 476 
f 349 476 477 
f 115 478 350 
f 171 318 450 
f 68 249 338 
f 114 123 351 
f 222 479 88 
f 334 88 479 
f 483 196 57 
f 256 57 196 
f 199 279 395 
f 324 422 481 
f 396 244 148 
f 379 467 409 
f 379 409 416 
f 461 416 409 
f 346 343 482 
f 150 239 471 
f 320 4 478 
f 254 167 381 
f 500 381 167 
f 210 437 366 
f 99 366 437 
f 248 172 410 
f 417 410 172 
f 2 196 483 
f 484 245 111 
f 147 484 441 
f 94 485 78 
f 220 486 299 
f 477 299 486 
f 352 320 115 
f 478 115 320 
f 388 359 329 
f 310 205 296 
f 254 420 238 
f 494 468 94 
f 500 118 37 
f 443 37 118 
f 373 450 407 
f 328 195 2 
f 487 397 448 
f 499 454 174 
f 328 429 195 
f 393 4 320 
f 429 148 432 
f 326 432 148 
f 495 67 430 
f 146 262 436 
f 301 257 435 
f 133 452 233 
f 485 233 452 
f 334 342 42 
f 179 42 342 
f 423 401 216 
f 70 303 128 
f 425 397 487 
f 443 118 245 
f 316 446 48 
f 451 127 75 
f 253 75 127 
f 329 122 388 
f 400 25 199 
f 270 488 481 
f 497 481 488 
f 209 473 255 
f 420 255 473 
f 431 97 424 
f 323 424 97 
f 272 360 275 
f 260 10 312 
f 454 312 10 
f 359 272 365 
f 83 248 410 
f 475 418 379 
f 334 42 88 
f 481 455 270 
f 498 412 81 
f 5 132 293 
f 86 81 219 
f 130 487 488 
f 497 488 487 
f 417 172 489 
f 425 487 130 
f 371 367 143 
f 141 327 58 
f 389 76 399 
f 97 490 323 
f 493 205 310 
f 322 361 166 
f 463 324 481 
f 458 387 405 
f 493 310 261 
f 490 261 310 
f 168 313 265 
f 496 385 241 
f 420 473 204 
f 129 165 425 
f 436 425 165 
f 455 311 491 
f 294 40 368 
f 156 188 492 
f 51 443 372 
f 483 35 430 
f 437 210 404 
f 404 408 437 
f 421 226 178 
f 192 49 57 
f 460 348 447 
f 218 224 93 
f 480 26 439 
f 442 60 466 
f 247 453 52 
f 278 133 462 
f 406 378 418 
f 179 342 314 
f 260 312 493 
f 472 346 482 
f 266 494 77 
f 207 54 419 
f 501 249 68 
f 145 186 111 
f 33 128 189 
f 496 292 411 
f 290 411 292 
f 372 474 51 
f 355 495 430 
f 216 385 496 
f 499 312 454 
f 246 174 160 
f 107 160 174 
f 216 496 423 
f 498 86 280 
f 498 244 396 
f 463 481 497 
f 175 336 325 
f 98 364 232 
f 427 17 185 
f 299 476 390 
f 349 477 428 
f 389 399 325 
f 416 336 475 
f 121 338 99 
f 423 17 401 
f 427 401 17 
f 446 315 344 
f 435 403 213 
f 502 213 403 
f 246 499 174 
f 160 107 153 
f 433 331 229 
f 464 229 331 
f 350 363 295 
f 493 374 205 
f 391 380 37 
f 500 37 380 
f 370 6 293 
f 472 482 333 
f 122 193 377 
f 59 29 298 
f 379 416 475 
f 498 81 86 
f 398 122 377 
f 238 167 254 
f 402 348 460 
f 448 497 487 
f 333 339 472 
f 501 188 156 
f 414 290 292 
f 403 166 44 
f 493 313 374 
f 158 501 156 
f 125 278 462 
f 429 432 375 
f 301 435 213 
f 188 501 68 
f 488 270 130 
f 215 282 385 
f 91 184 394 
f 383 406 426 
f 337 14 470 
f 451 76 389 
f 304 456 152 
f 471 335 224 
f 349 428 50 
f 414 156 492 
f 451 476 127 
f 433 486 331 
f 91 469 155 
f 381 340 317 
f 194 3 32 
f 291 414 492 
f 461 410 417 
f 500 167 119 
f 151 431 285 
f 433 477 486 
f 234 28 197 
f 403 44 502 
f 402 485 452 
f 304 332 456 
f 438 190 459 
f 444 459 190 
f 168 392 295 
f 464 489 373 
f 304 440 466 
f 331 489 464 
f 413 415 142 
f 492 495 291 
f 444 117 459 
f 490 97 9 
f 227 140 177 
f 159 335 479 
f 489 331 417 
f 67 495 492 
