#  wavefront obj file written by the visualization toolkit

mtllib livertumor03.mtl

v 149.47300720214844 79.6812973022461 141.78799438476562
v 149.26400756835938 80.55599975585938 141.16299438476562
v 161.1999969482422 73.15070343017578 155.47000122070312
v 159.7729949951172 73.17780303955078 156.3520050048828
v 145.08599853515625 76.49759674072266 146.30099487304688
v 146.3280029296875 76.08660125732422 145.34300231933594
v 146.00100708007812 74.44409942626953 149.0030059814453
v 146.37899780273438 74.27030181884766 147.38499450683594
v 150.81100463867188 76.643798828125 156.9459991455078
v 149.40499877929688 76.39759826660156 155.96400451660156
v 159.1230010986328 83.6803970336914 155.1820068359375
v 157.61599731445312 84.00530242919922 155.54600524902344
v 143.92799377441406 77.62300109863281 150.69200134277344
v 144.03599548339844 78.597900390625 152.1230010986328
v 157.51499938964844 83.36239624023438 143.5570068359375
v 159.08900451660156 83.5656967163086 144.36000061035156
v 151.25799560546875 80.89250183105469 158.3769989013672
v 150.15199279785156 82.78410339355469 158.26699829101562
v 147.6929931640625 86.19670104980469 156.8000030517578
v 145.77099609375 85.37779998779297 156.76199340820312
v 148.08799743652344 83.44049835205078 142.42300415039062
v 147.77200317382812 82.08470153808594 141.93699645996094
v 150.1060028076172 80.1946029663086 141.29800415039062
v 162.76600646972656 75.45590209960938 150.38400268554688
v 161.9530029296875 73.8324966430664 150.39199829101562
v 147.822998046875 79.4375 158.11500549316406
v 147.3679962158203 78.49230194091797 156.94000244140625
v 147.23699951171875 78.56639862060547 142.8719940185547
v 148.83900451660156 78.69439697265625 142.36500549316406
v 149.7899932861328 80.72669982910156 140.90199279785156
v 147.3249969482422 82.05259704589844 158.2469940185547
v 145.69000244140625 81.20809936523438 157.36700439453125
v 145.25900268554688 77.5 144.95399475097656
v 162.78599548339844 78.26010131835938 148.48899841308594
v 162.16000366210938 77.45700073242188 147.63999938964844
v 150.76699829101562 80.65679931640625 141.0540008544922
v 147.9980010986328 89.41840362548828 151.41600036621094
v 148.9980010986328 89.86540222167969 149.03700256347656
v 152.41900634765625 90.43409729003906 154.96800231933594
v 150.8769989013672 90.17259979248047 154.7270050048828
v 151.21299743652344 80.09980010986328 141.76199340820312
v 154.42300415039062 70.41649627685547 148.04600524902344
v 152.9459991455078 70.55460357666016 147.5659942626953
v 157.4320068359375 86.75289916992188 145.03599548339844
v 159.072998046875 85.69879913330078 145.54299926757812
v 157.17100524902344 89.0719985961914 155.156005859375
v 156.46499633789062 88.06500244140625 155.1999969482422
v 150.0959930419922 88.7219009399414 145.8070068359375
v 151.5240020751953 88.44280242919922 145.11700439453125
v 158.73899841308594 71.72650146484375 155.843994140625
v 156.14599609375 73.53730010986328 157.64300537109375
v 154.85000610351562 72.96389770507812 156.29100036621094
v 161.70799255371094 72.3949966430664 152.0800018310547
v 153.56100463867188 82.54730224609375 142.14700317382812
v 155.5260009765625 82.6417007446289 142.76800537109375
v 148.26600646972656 80.98870086669922 141.48699951171875
v 149.39999389648438 81.57230377197266 140.8699951171875
v 151.9010009765625 82.39640045166016 141.07400512695312
v 151.88699340820312 81.82060241699219 141.0279998779297
v 149.68800354003906 81.17639923095703 140.83399963378906
v 150.27000427246094 80.74490356445312 140.88499450683594
v 150.21800231933594 81.26200103759766 140.8090057373047
v 150.80799865722656 81.24340057373047 140.84800720214844
v 145.36500549316406 75.38520050048828 147.70700073242188
v 153.91099548339844 88.22160339355469 155.7550048828125
v 155.23899841308594 87.52210235595703 155.6959991455078
v 149.64599609375 71.87689971923828 148.11700439453125
v 149.36599731445312 73.18409729003906 146.322998046875
v 154.56500244140625 91.7417984008789 151.1999969482422
v 155.47799682617188 91.21240234375 149.68099975585938
v 159.35699462890625 87.89530181884766 154.18299865722656
v 158.60699462890625 87.74720001220703 155.1230010986328
v 154.0240020751953 69.88580322265625 149.4080047607422
v 152.59300231933594 70.18000030517578 150.45599365234375
v 160.23199462890625 87.11509704589844 151.31399536132812
v 159.5780029296875 87.99320220947266 152.43600463867188
v 153.41799926757812 74.06890106201172 145.56300354003906
v 154.77200317382812 72.59149932861328 145.85699462890625
v 158.0959930419922 86.8729019165039 155.19000244140625
v 160.93600463867188 75.9884033203125 156.86500549316406
v 161.56100463867188 78.04319763183594 156.29100036621094
v 162.4290008544922 82.49520111083984 147.96099853515625
v 162.47999572753906 82.4708023071289 150.3780059814453
v 144.47799682617188 85.24250030517578 150.1529998779297
v 144.9010009765625 86.09809875488281 148.5800018310547
v 146.0030059814453 75.0198974609375 151.24400329589844
v 162.11300659179688 77.04920196533203 156.1929931640625
v 151.93499755859375 71.03160095214844 147.2949981689453
v 152.218994140625 70.40239715576172 148.1439971923828
v 143.66400146484375 82.30599975585938 152.64999389648438
v 143.88099670410156 83.36830139160156 152.5030059814453
v 143.71400451660156 79.20899963378906 145.7220001220703
v 143.66600036621094 78.37899780273438 146.81100463867188
v 159.08599853515625 88.60700225830078 153.281005859375
v 156.0800018310547 89.1239013671875 155.1999969482422
v 156.43299865722656 89.88639831542969 155.04299926757812
v 150.12100219726562 81.75890350341797 140.80099487304688
v 150.927001953125 82.05860137939453 140.83299255371094
v 151.53900146484375 81.17340087890625 141.1999969482422
v 151.40199279785156 81.75469970703125 140.8769989013672
v 151.33900451660156 70.93240356445312 148.18499755859375
v 155.65199279785156 70.23870086669922 149.62899780273438
v 150.0679931640625 72.1510009765625 152.12100219726562
v 147.9810028076172 72.95010375976562 150.83700561523438
v 147.7969970703125 76.13680267333984 144.47000122070312
v 149.42599487304688 76.10299682617188 144.4969940185547
v 162.2899932861328 78.78109741210938 146.79400634765625
v 163.4770050048828 76.26390075683594 154.08399963378906
v 163.4810028076172 75.52770233154297 154.0030059814453
v 149.63999938964844 87.58699798583984 156.656005859375
v 148.41400146484375 87.63760375976562 156.53500366210938
v 147.12899780273438 73.4094009399414 148.33299255371094
v 159.4340057373047 70.90350341796875 154.77099609375
v 158.36500549316406 70.64700317382812 154.86900329589844
v 153.4239959716797 72.23709869384766 154.46800231933594
v 152.968994140625 73.92839813232422 155.64100646972656
v 148.72000122070312 81.86070251464844 141.0330047607422
v 144.7740020751953 76.6458969116211 151.57899475097656
v 144.22999572753906 77.97090148925781 145.78799438476562
v 148.47000122070312 82.59310150146484 141.40899658203125
v 156.58200073242188 76.89630126953125 145.3350067138672
v 154.40499877929688 76.30850219726562 145.13999938964844
v 146.14199829101562 77.8917007446289 154.80299377441406
v 149.51699829101562 82.31120300292969 140.81300354003906
v 150.35899353027344 82.55490112304688 140.82400512695312
v 156.68800354003906 72.61009979248047 157.07400512695312
v 143.87100219726562 83.43579864501953 146.8419952392578
v 144.26100158691406 84.67410278320312 147.94000244140625
v 147.49200439453125 74.25689697265625 146.26400756835938
v 146.5679931640625 77.1874008178711 144.06100463867188
v 163.1719970703125 75.58180236816406 154.94000244140625
v 162.89100646972656 76.69750213623047 155.19000244140625
v 160.1179962158203 78.44509887695312 156.4669952392578
v 152.49000549316406 81.93329620361328 141.58999633789062
v 161.97500610351562 73.58049774169922 155.302001953125
v 162.35299682617188 74.70259857177734 155.62399291992188
v 147.9290008544922 73.19450378417969 147.33799743652344
v 155.8249969482422 74.41510009765625 145.7030029296875
v 146.01800537109375 75.25759887695312 146.4600067138672
v 147.64500427246094 75.22010040283203 145.52200317382812
v 162.3979949951172 78.16120147705078 155.37600708007812
v 144.76300048828125 84.68659973144531 145.86900329589844
v 157.9080047607422 75.19660186767578 145.97000122070312
v 158.552001953125 77.23619842529297 145.6230010986328
v 149.1199951171875 82.55999755859375 140.93800354003906
v 161.50399780273438 82.56580352783203 154.37899780273438
v 161.3470001220703 81.34989929199219 154.92799377441406
v 151.19700622558594 73.63130187988281 145.7030029296875
v 152.7969970703125 72.52729797363281 145.9029998779297
v 149.17100524902344 83.4623031616211 141.4510040283203
v 149.8939971923828 83.11859893798828 140.9250030517578
v 158.23199462890625 71.18589782714844 149.76600646972656
v 159.41600036621094 70.86170196533203 151.9949951171875
v 149.53500366210938 71.54640197753906 150.11599731445312
v 157.21200561523438 70.39830017089844 154.43499755859375
v 156.62600708007812 70.86239624023438 155.23699951171875
v 148.99400329589844 76.8458023071289 143.48199462890625
v 148.01300048828125 77.30220031738281 143.16700744628906
v 158.41000366210938 84.65950012207031 144.24400329589844
v 151.3820037841797 76.85240173339844 144.22300720214844
v 143.7480010986328 77.56990051269531 149.56700134277344
v 149.17100524902344 80.55370330810547 158.39999389648438
v 148.96200561523438 82.54440307617188 158.36500549316406
v 163 80.80010223388672 152.39599609375
v 162.3820037841797 80.80850219726562 154.07899475097656
v 163.15499877929688 79.3666000366211 149.60400390625
v 163.4600067138672 78.9072036743164 151.41299438476562
v 157.906005859375 78.74710083007812 145.0709991455078
v 159.81100463867188 78.8677978515625 145.5570068359375
v 152.5 86.7802963256836 143.4459991455078
v 143.7550048828125 81.23249816894531 155.2519989013672
v 143.4600067138672 82.25279998779297 154.39300537109375
v 162.9429931640625 81.3125991821289 150.12100219726562
v 145.92599487304688 87.48419952392578 150.68600463867188
v 145.78700256347656 87.23880004882812 148.44900512695312
v 143.42100524902344 80.5115966796875 149.71499633789062
v 143.68299865722656 82.48860168457031 150.62399291992188
v 154.13099670410156 70.21720123291016 151.0780029296875
v 144.8470001220703 83.76229858398438 144.86599731445312
v 145.8979949951172 84.88249969482422 144.58799743652344
v 150.1649932861328 90.7261962890625 150.51699829101562
v 157.56900024414062 85.7843017578125 144.24400329589844
v 144.38099670410156 80.25090026855469 144.51199340820312
v 163.28900146484375 74.6989974975586 153.2169952392578
v 161.92999267578125 82.51920318603516 146.552001953125
v 143.59500122070312 81.72730255126953 151.69200134277344
v 151.51300048828125 83.19239807128906 141.1510009765625
v 148.43600463867188 79.79180145263672 141.9409942626953
v 149.7100067138672 74.81510162353516 145.46499633789062
v 154.51800537109375 74.00309753417969 156.79299926757812
v 149.9720001220703 78.52449798583984 157.82200622558594
v 148.08700561523438 77.65779876708984 156.51699829101562
v 144.1179962158203 84.43890380859375 152.10400390625
v 151.6199951171875 89.34960174560547 155.38099670410156
v 143.71200561523438 77.71389770507812 147.89500427246094
v 144.10400390625 77.45359802246094 146.71400451660156
v 148.01400756835938 88.22889709472656 146.58799743652344
v 149.2689971923828 89.34529876708984 147.45399475097656
v 162.73300170898438 73.91739654541016 151.7689971923828
v 152.42799377441406 84.54570007324219 142.1320037841797
v 150.093994140625 90.50129699707031 153.58999633789062
v 156.87600708007812 70.42150115966797 150.5570068359375
v 162.9669952392578 74.52130126953125 154.8090057373047
v 145.41299438476562 84.3917007446289 156.8000030517578
v 144.37600708007812 83.17880249023438 156.75999450683594
v 153.82000732421875 89.64630126953125 146.53399658203125
v 155.04299926757812 90.44509887695312 148.0749969482422
v 151.26400756835938 70.70130157470703 150.71299743652344
v 150.74600219726562 83.4489974975586 140.9929962158203
v 146.30299377441406 86.53309631347656 156.5399932861328
v 146.42100524902344 87.40850067138672 155.76499938964844
v 158.38900756835938 88.83779907226562 154.71299743652344
v 150.27099609375 84.07219696044922 141.4459991455078
v 156.89999389648438 89.08439636230469 147.8260040283203
v 143.3719940185547 82.22579956054688 147.86900329589844
v 149.58299255371094 74.47949981689453 154.13600158691406
v 147.4759979248047 76.14450073242188 154.16799926757812
v 151.1909942626953 84.07129669189453 141.47000122070312
v 154.85000610351562 90.32389831542969 155.14100646972656
v 153.64700317382812 90.02130126953125 155.17999267578125
v 143.33299255371094 79.7396011352539 146.99400329589844
v 143.44000244140625 81.66999816894531 146.41400146484375
v 149.3000030517578 90.27349853515625 152.64700317382812
v 151.13099670410156 91.27239990234375 152.48399353027344
v 152.38400268554688 91.48819732666016 150.17100524902344
v 149.04100036621094 88.30359649658203 145.75599670410156
v 154.41000366210938 70.56320190429688 152.46600341796875
v 152.76300048828125 70.85230255126953 152.177001953125
v 163.1739959716797 77.64990234375 154.1999969482422
v 144.99000549316406 82.50849914550781 144.32899475097656
v 144.697998046875 81.408203125 144.1820068359375
v 147.20899963378906 88.67559814453125 150.03500366210938
v 162.37899780273438 72.6843032836914 153.57000732421875
v 161.1009979248047 74.27320098876953 156.3280029296875
v 144.822998046875 77.84500122070312 152.83999633789062
v 151.94200134277344 82.16410064697266 157.78700256347656
v 153.01199340820312 80.89790344238281 157.77000427246094
v 155.32899475097656 74.55329895019531 157.66700744628906
v 147.28399658203125 88.47119903564453 153.8699951171875
v 148.24000549316406 89.28369903564453 153.5540008544922
v 152.44400024414062 90.97859954833984 148.52000427246094
v 152.8719940185547 91.44180297851562 153.5
v 153.1929931640625 91.69709777832031 151.7779998779297
v 150.74000549316406 89.8219985961914 147.4219970703125
v 151.01400756835938 90.66739654541016 148.85499572753906
v 151.14300537109375 85.24579620361328 142.35699462890625
v 156.7519989013672 77.9197006225586 157.03900146484375
v 155.64500427246094 77.7260971069336 156.7729949951172
v 162.33900451660156 75.71170043945312 156.06300354003906
v 155.552001953125 79.64070129394531 143.68099975585938
v 155.96299743652344 78.47850036621094 144.48300170898438
v 156.05999755859375 90.73159790039062 154.85400390625
v 154.66400146484375 91.12439727783203 154.26800537109375
v 161.7469940185547 79.64550018310547 155.20599365234375
v 161.29200744628906 83.47000122070312 146.2729949951172
v 160.61900329589844 84.55079650878906 146.41299438476562
v 158.0760040283203 76.94439697265625 157.60499572753906
v 160.00599670410156 76.74909973144531 157.2270050048828
v 161.12399291992188 85.0521011352539 148.33799743652344
v 161.1300048828125 85.48789978027344 149.93699645996094
v 161.52999877929688 81.3656005859375 145.8159942626953
v 162.33099365234375 81.28569793701172 146.67300415039062
v 156.64100646972656 91.10160064697266 153.0570068359375
v 156.5290069580078 91.05760192871094 151.30999755859375
v 160.22799682617188 86.95320129394531 152.81700134277344
v 152.8470001220703 69.99019622802734 148.67100524902344
v 145.18299865722656 86.5363998413086 150.4040069580078
v 158.41900634765625 72.74120330810547 156.9759979248047
v 159.10499572753906 73.5615005493164 157.1060028076172
v 146.2449951171875 87.60030364990234 153.90699768066406
v 148.1179962158203 80.75379943847656 158.3730010986328
v 144.73899841308594 78.93949890136719 154.24400329589844
v 145.75799560546875 83.68209838867188 144.125
v 160.94000244140625 80.18049621582031 145.63099670410156
v 154.91299438476562 89.33170318603516 155.1999969482422
v 144.48199462890625 85.5072021484375 153.13699340820312
v 162.65699768066406 73.39640045166016 154.62899780273438
v 158.54299926757812 89.38990020751953 152.21099853515625
v 158.7899932861328 72.66169738769531 147.61000061035156
v 159.93499755859375 72.59960174560547 149.0959930419922
v 153.92799377441406 71.36029815673828 146.58599853515625
v 150.20599365234375 79.20580291748047 142.11900329589844
v 145.74400329589844 81.17109680175781 143.5989990234375
v 158.14500427246094 70.51339721679688 151.79200744628906
v 143.75999450683594 82.0376968383789 156.14700317382812
v 143.61399841308594 83.41200256347656 156.42300415039062
v 151.9550018310547 70.30239868164062 149.08900451660156
v 150.83999633789062 70.90519714355469 149.50599670410156
v 160.19900512695312 82.35209655761719 155.0679931640625
v 144.40899658203125 78.83270263671875 144.8179931640625
v 144.20799255371094 85.08070373535156 155.58900451660156
v 145.38900756835938 86.46260070800781 155.4980010986328
v 156.26499938964844 87.8727035522461 145.6649932861328
v 153.89700317382812 84.40059661865234 156.7760009765625
v 157.56199645996094 87.88770294189453 155.17799377441406
v 146.9340057373047 73.54139709472656 149.7779998779297
v 160.13499450683594 80.65879821777344 155.46099853515625
v 153.718994140625 81.4738998413086 142.31500244140625
v 144.87899780273438 85.51110076904297 156.4320068359375
v 157.98500061035156 82.18260192871094 143.83399963378906
v 157.6300048828125 80.38760375976562 144.20799255371094
v 157.8470001220703 70.22200012207031 153.3419952392578
v 159.0330047607422 70.43209838867188 153.7030029296875
v 143.7760009765625 83.37470245361328 148.63600158691406
v 157.55799865722656 72.06529998779297 156.5679931640625
v 146.77499389648438 87.76629638671875 147.3159942626953
v 158.3699951171875 89.50559997558594 153.66000366210938
v 157.6840057373047 90.29170227050781 152.9199981689453
v 147.95899963378906 88.93450164794922 148.32400512695312
v 160.70799255371094 73.82559967041016 148.55299377441406
v 157.6439971923828 71.11389923095703 155.50999450683594
v 160.23500061035156 77.56829833984375 145.9199981689453
v 160.49400329589844 75.76570129394531 146.8520050048828
v 160.6269989013672 71.32379913330078 152.06300354003906
v 161.2480010986328 71.15689849853516 153.81199645996094
v 144.28799438476562 80.76010131835938 155.98899841308594
v 153.281005859375 71.21829986572266 152.9759979248047
v 161.6490020751953 72.26490020751953 154.8800048828125
v 156.72799682617188 70.14109802246094 152.6479949951172
v 155.73300170898438 70.12190246582031 151.5850067138672
v 147.88499450683594 83.72059631347656 157.56199645996094
v 148.60000610351562 85.50700378417969 156.83700561523438
v 156.375 84.64669799804688 155.95599365234375
v 157.0070037841797 86.24009704589844 155.28700256347656
v 159.61000061035156 84.55829620361328 145.07000732421875
v 161.89500427246094 83.5802001953125 147.7550048828125
v 161.89700317382812 84.06300354003906 150.43600463867188
v 161.77499389648438 76.31999969482422 147.70399475097656
v 160.31100463867188 86.09490203857422 154.16099548339844
v 160.4810028076172 85.09210205078125 154.427001953125
v 145.73800659179688 78.92150115966797 155.60000610351562
v 144.38299560546875 76.61289978027344 147.9770050048828
v 158.22900390625 75.86180114746094 158.1909942626953
v 157.94700622558594 74.95500183105469 158.39999389648438
v 156.8000030517578 76.43830108642578 158.0679931640625
v 155.10899353027344 70.95259857177734 154.17300415039062
v 158.85699462890625 71.94740295410156 148.69700622558594
v 155.7169952392578 91.47709655761719 151.01499938964844
v 156.21099853515625 91.03359985351562 150.08200073242188
v 143.79100036621094 84.2738037109375 154.23599243164062
v 154.14199829101562 83.84359741210938 142.41200256347656
v 148.33900451660156 88.58429718017578 155.5590057373047
v 150.2429962158203 89.04540252685547 155.78500366210938
v 149.31300354003906 77.94149780273438 142.60899353027344
v 146.43699645996094 83.61029815673828 157.31300354003906
v 155.70599365234375 81.08570098876953 143.0989990234375
v 155.52699279785156 71.49629974365234 146.63999938964844
v 144.24600219726562 84.4135971069336 156.56500244140625
v 156.35699462890625 84.66259765625 143.25900268554688
v 156.6510009765625 75.00980377197266 158.35899353027344
v 158.0030059814453 85.69000244140625 155.23399353027344
v 143.73500061035156 78.37969970703125 150.51300048828125
v 143.67599487304688 79.90480041503906 151.4929962158203
v 160.08999633789062 72.07479858398438 155.343994140625
v 158.32400512695312 87.22879791259766 146.6020050048828
v 155.8820037841797 85.9760971069336 155.92100524902344
v 143.64599609375 81.60150146484375 153.49600219726562
v 151.25599670410156 83.8009033203125 157.38800048828125
v 152.64599609375 88.6166000366211 155.81500244140625
v 143.5760040283203 80.4489974975586 145.61000061035156
v 152.8459930419922 88.66790008544922 145.1529998779297
v 143.5229949951172 78.62750244140625 148.6719970703125
v 151.0659942626953 75.55699920654297 155.98199462890625
v 143.5500030517578 83.95819854736328 155.6230010986328
v 143.4969940185547 83.32140350341797 153.91700744628906
v 152.16900634765625 75.52149963378906 145.19000244140625
v 144.0229949951172 83.76570129394531 150.30599975585938
v 157.03599548339844 90.6626968383789 154.03700256347656
v 158.7689971923828 74.3384017944336 157.86000061035156
v 158.13699340820312 73.35890197753906 157.66600036621094
v 159.28500366210938 75.27749633789062 157.71800231933594
v 159.19200134277344 75.91600036621094 146.1510009765625
v 150.1750030517578 86.00900268554688 143.08999633789062
v 151.33900451660156 86.75060272216797 143.4239959716797
v 154.4040069580078 79.63159942626953 156.8979949951172
v 157.85699462890625 81.48760223388672 155.54200744628906
v 155.58200073242188 82.06230163574219 156.60499572753906
v 154.37399291992188 83.24610137939453 156.9530029296875
v 144.70199584960938 81.69860076904297 156.8300018310547
v 145.52999877929688 82.79519653320312 157.3159942626953
v 163.14100646972656 75.23660278320312 151.48500061035156
v 163.56199645996094 76.09500122070312 152.8000030517578
v 161.50999450683594 77.73829650878906 146.5449981689453
v 146.77999877929688 87.12210083007812 145.96200561523438
v 159.13699340820312 88.45659637451172 151.60699462890625
v 159.56900024414062 87.43229675292969 149.62600708007812
v 148.02499389648438 72.60690307617188 148.9709930419922
v 146.9600067138672 80.2468032836914 157.90499877929688
v 159.84100341796875 74.47709655761719 157.06100463867188
v 144.1540069580078 83.02179718017578 145.54200744628906
v 157.63299560546875 89.81620025634766 154.48300170898438
v 160.06300354003906 86.03040313720703 147.531005859375
v 161.2570037841797 85.3646011352539 151.593994140625
v 160.81300354003906 85.84940338134766 152.77000427246094
v 143.2779998779297 83.21690368652344 155.3800048828125
v 151.0919952392578 72.06510162353516 146.61199951171875
v 157.0989990234375 90.75029754638672 151.9499969482422
v 157.8260040283203 89.818603515625 150.5399932861328
v 154.88099670410156 89.08550262451172 146.21299743652344
v 155.7519989013672 91.2416000366211 153.8000030517578
v 154.35400390625 91.64330291748047 152.71099853515625
v 157.98899841308594 79.16580200195312 156.322998046875
v 145.8470001220703 76.48400115966797 152.96200561523438
v 159.82400512695312 71.63069915771484 150.80299377441406
v 152.47799682617188 71.49140167236328 146.56199645996094
v 144.0330047607422 81.61060333251953 144.9429931640625
v 152.10800170898438 78.85209655761719 157.68099975585938
v 157.6820068359375 72.1989974975586 147.2259979248047
v 163.25799560546875 77.55400085449219 150.3800048828125
v 149.77999877929688 87.30670166015625 144.2969970703125
v 151.60400390625 73.60900115966797 154.281005859375
v 151.16900634765625 79.22540283203125 142.29600524902344
v 153.3300018310547 75.15229797363281 156.3939971923828
v 161.10800170898438 85.01689910888672 153.26600646972656
v 161.4010009765625 78.91780090332031 145.94500732421875
v 148.69400024414062 78.77970123291016 158.08599853515625
v 157.18499755859375 71.18440246582031 148.29100036621094
v 157.69200134277344 73.3301010131836 146.47500610351562
v 147.052001953125 81.41120147705078 142.5279998779297
v 145.16900634765625 86.51709747314453 153.24200439453125
v 160.48699951171875 81.53250122070312 145.302001953125
v 153.2779998779297 90.88600158691406 154.68899536132812
v 155.92599487304688 71.76719665527344 155.9929962158203
v 144.60400390625 76.21269989013672 149.8179931640625
v 162.09500122070312 79.8687973022461 146.27099609375
v 152.66799926757812 85.96099853515625 156.70399475097656
v 162.1490020751953 82.40519714355469 152.8699951171875
v 159.93499755859375 82.6803970336914 144.83599853515625
v 146.59100341796875 88.05259704589844 148.98699951171875
v 143.1649932861328 80.56600189208984 147.9739990234375
v 159.89599609375 87.16200256347656 154.05299377441406
v 152.37399291992188 80.72660064697266 142.01800537109375
v 152.0780029296875 79.0647964477539 142.74099731445312
v 160.5030059814453 71.22699737548828 154.8070068359375
v 153.9340057373047 91.40139770507812 149.4709930419922
v 151.89599609375 71.2947006225586 152.31900024414062
v 157.34800720214844 72.91670227050781 157.48800659179688
v 157.31700134277344 73.91600036621094 158.2259979248047
v 156.48500061035156 79.80919647216797 156.21299743652344
v 159.1300048828125 74.00599670410156 147.05799865722656
v 144.04600524902344 79.55829620361328 153.26499938964844
v 158.51699829101562 88.53919982910156 149.53599548339844
v 160.71600341796875 83.92350006103516 154.572998046875
v 147.10400390625 84.82150268554688 156.8780059814453
v 148.03700256347656 85.87069702148438 143.9320068359375
v 149.31900024414062 84.74019622802734 142.50999450683594
v 156.6230010986328 90.4280014038086 149.47300720214844
v 153.8070068359375 79.99479675292969 142.87399291992188
v 161.01300048828125 82.65249633789062 145.59500122070312
v 163.3000030517578 79.13990020751953 153.0540008544922
v 162.53700256347656 76.47540283203125 149.17999267578125
v 156.42100524902344 72.58830261230469 146.2030029296875
v 150.45899963378906 77.98179626464844 142.9550018310547
v 160.9499969482422 72.55449676513672 150.6479949951172
v 147.7949981689453 87.10859680175781 144.98800659179688
v 149.46099853515625 89.6427001953125 154.5260009765625
v 159.38699340820312 86.80709838867188 154.95199584960938
v 155.96299743652344 70.84210205078125 147.9239959716797
v 145.50599670410156 79.92449951171875 156.3939971923828
v 151.14199829101562 87.88880157470703 156.33799743652344
v 151.44700622558594 91.03299713134766 153.97999572753906
v 145.5590057373047 86.3582992553711 146.79600524902344
v 146.2570037841797 86.10420227050781 145.23199462890625
v 155.2429962158203 75.88009643554688 157.4149932861328
v 159.44200134277344 80.24340057373047 145.15499877929688
v 145.63900756835938 79.052001953125 143.81399536132812
v 162.67799377441406 80.37069702148438 147.6719970703125
v 161.75799560546875 74.85030364990234 148.81199645996094
v 144.3800048828125 79.81559753417969 154.7949981689453
v 152.62100219726562 83.11280059814453 141.72300720214844
v 160.32400512695312 83.68910217285156 145.30599975585938
v 147.67799377441406 74.42160034179688 152.54400634765625
v 159.5469970703125 85.46510314941406 155.14599609375
v 160.56399536132812 86.35639953613281 149.63800048828125
v 160.23699951171875 70.78160095214844 153.44000244140625
v 160.7729949951172 86.17870330810547 151.0800018310547
v 154.31100463867188 85.9103012084961 143.0800018310547
v 149.5330047607422 84.17060089111328 157.5800018310547
v 159.3699951171875 81.51069641113281 144.68299865722656
v 156.66099548339844 71.6498031616211 147.08399963378906
v 162.8470001220703 79.16629791259766 154.41000366210938
v 153.53500366210938 87.48709869384766 143.94000244140625
v 153.7989959716797 88.47360229492188 144.94400024414062
v 150.23899841308594 85.87480163574219 156.8730010986328
v 156.12399291992188 70.26139831542969 153.4739990234375
v 163.47900390625 76.86910247802734 151.4770050048828
v 143.7949981689453 80.81449890136719 153.67799377441406
v 147.31399536132812 84.36900329589844 143.56100463867188
v 147.3350067138672 87.63289642333984 156.29600524902344
v 154.77499389648438 87.51260375976562 144.32200622558594
v 161.54400634765625 84.16220092773438 152.99000549316406
v 152.90499877929688 90.22270202636719 147.37600708007812
v 153.697998046875 77.96410369873047 144.0570068359375
v 152.93600463867188 76.94819641113281 156.55799865722656
v 146.96400451660156 79.23570251464844 157.29299926757812
v 146.6540069580078 88.16889953613281 152.19000244140625
v 147.197998046875 88.04429626464844 155.41299438476562
v 156.08099365234375 86.50800323486328 143.98800659179688
v 146.6230010986328 82.74949645996094 143.3159942626953
v 163.53399658203125 77.28379821777344 152.7259979248047
v 155.58399963378906 91.5093002319336 152.3699951171875
v 147.06900024414062 80.1769027709961 142.5679931640625

g grp1
usemtl mtl1
f 188 2 1 
f 23 1 2 
f 234 4 3 
f 354 3 4 
f 33 6 5 
f 139 5 6 
f 64 8 7 
f 112 7 8 
f 191 10 9 
f 363 9 10 
f 473 12 11 
f 376 11 12 
f 235 14 13 
f 352 13 14 
f 159 16 15 
f 300 15 16 
f 236 18 17 
f 162 17 18 
f 210 20 19 
f 444 19 20 
f 120 22 21 
f 499 21 22 
f 30 23 2 
f 381 25 24 
f 468 24 25 
f 495 27 26 
f 416 26 27 
f 188 29 28 
f 158 28 29 
f 61 23 30 
f 380 32 31 
f 388 31 32 
f 130 6 33 
f 451 35 34 
f 107 34 35 
f 61 36 23 
f 41 23 36 
f 181 38 37 
f 232 37 38 
f 461 40 39 
f 194 39 40 
f 99 41 36 
f 266 43 42 
f 281 42 43 
f 355 45 44 
f 182 44 45 
f 95 47 46 
f 295 46 47 
f 244 49 48 
f 410 48 49 
f 268 50 4 
f 354 4 50 
f 190 52 51 
f 126 51 52 
f 199 53 25 
f 454 25 53 
f 341 55 54 
f 298 54 55 
f 117 57 56 
f 2 56 57 
f 134 59 58 
f 100 58 59 
f 60 2 57 
f 30 2 60 
f 62 61 30 
f 62 30 60 
f 63 36 61 
f 63 61 62 
f 139 64 5 
f 332 5 64 
f 99 36 63 
f 426 66 65 
f 275 65 66 
f 137 68 67 
f 396 67 68 
f 338 70 69 
f 435 69 70 
f 212 72 71 
f 457 71 72 
f 178 74 73 
f 266 73 74 
f 386 76 75 
f 265 75 76 
f 138 78 77 
f 149 77 78 
f 457 72 79 
f 295 79 72 
f 87 81 80 
f 258 80 81 
f 326 83 82 
f 173 82 83 
f 267 85 84 
f 128 84 85 
f 424 7 86 
f 296 86 7 
f 141 81 87 
f 43 89 88 
f 101 88 89 
f 365 91 90 
f 177 90 91 
f 119 93 92 
f 221 92 93 
f 71 76 94 
f 385 94 76 
f 97 62 60 
f 46 96 95 
f 275 95 96 
f 57 97 60 
f 98 63 62 
f 98 62 97 
f 100 99 63 
f 100 63 98 
f 396 88 101 
f 59 99 100 
f 178 73 102 
f 42 102 73 
f 472 104 103 
f 154 103 104 
f 157 106 105 
f 140 105 106 
f 383 107 35 
f 131 109 108 
f 382 108 109 
f 343 111 110 
f 19 110 111 
f 137 112 8 
f 50 114 113 
f 303 113 114 
f 52 116 115 
f 411 115 116 
f 120 117 22 
f 56 22 117 
f 235 13 118 
f 424 118 13 
f 196 93 119 
f 145 117 120 
f 138 122 121 
f 251 121 122 
f 192 27 123 
f 331 123 27 
f 145 124 117 
f 57 117 124 
f 125 97 57 
f 125 57 124 
f 437 51 126 
f 98 97 125 
f 304 128 127 
f 142 127 128 
f 189 68 129 
f 137 129 68 
f 466 28 130 
f 158 130 28 
f 108 132 131 
f 249 131 132 
f 258 81 133 
f 254 133 81 
f 98 58 100 
f 99 59 134 
f 203 136 135 
f 234 135 136 
f 387 112 137 
f 77 122 138 
f 6 140 139 
f 129 139 140 
f 254 81 141 
f 390 127 142 
f 121 144 143 
f 372 143 144 
f 150 145 120 
f 289 147 146 
f 165 146 147 
f 77 149 148 
f 396 148 149 
f 151 124 145 
f 151 145 150 
f 404 153 152 
f 284 152 153 
f 125 124 151 
f 212 71 94 
f 387 67 154 
f 288 154 67 
f 209 125 151 
f 311 156 155 
f 485 155 156 
f 105 158 157 
f 344 157 158 
f 105 140 6 
f 325 16 159 
f 187 58 98 
f 189 106 160 
f 453 160 106 
f 352 161 13 
f 424 13 161 
f 18 163 162 
f 271 162 163 
f 427 165 164 
f 450 164 165 
f 173 167 166 
f 409 166 167 
f 105 130 158 
f 465 169 168 
f 144 168 169 
f 361 170 49 
f 374 49 170 
f 285 172 171 
f 357 171 172 
f 164 173 83 
f 429 175 174 
f 267 174 175 
f 186 177 176 
f 215 176 177 
f 228 74 178 
f 142 180 179 
f 273 179 180 
f 245 38 181 
f 45 159 182 
f 349 182 159 
f 360 183 92 
f 290 92 183 
f 382 109 184 
f 203 184 109 
f 213 151 150 
f 326 82 185 
f 262 185 82 
f 90 177 186 
f 209 187 125 
f 98 125 187 
f 29 188 1 
f 140 106 189 
f 238 190 51 
f 416 192 191 
f 10 191 192 
f 276 84 193 
f 367 193 84 
f 359 39 194 
f 93 196 195 
f 332 195 196 
f 498 44 182 
f 148 68 189 
f 309 198 197 
f 226 197 198 
f 233 53 199 
f 223 181 37 
f 477 200 170 
f 246 170 200 
f 461 201 40 
f 456 40 201 
f 284 202 152 
f 417 152 202 
f 131 136 203 
f 348 205 204 
f 380 204 205 
f 492 207 206 
f 399 206 207 
f 436 208 74 
f 287 74 208 
f 213 209 151 
f 462 142 128 
f 489 211 210 
f 292 210 211 
f 307 212 94 
f 218 209 213 
f 447 214 207 
f 399 207 214 
f 218 200 187 
f 470 187 200 
f 304 127 215 
f 222 215 127 
f 10 217 216 
f 472 216 217 
f 209 218 187 
f 422 220 219 
f 275 219 220 
f 430 222 221 
f 360 221 222 
f 224 181 223 
f 243 225 224 
f 181 224 225 
f 198 48 226 
f 410 226 48 
f 317 228 227 
f 178 227 228 
f 481 141 229 
f 132 229 141 
f 283 231 230 
f 406 230 231 
f 309 232 38 
f 184 233 199 
f 3 135 234 
f 315 53 233 
f 403 235 118 
f 17 237 236 
f 378 236 237 
f 350 238 51 
f 342 240 239 
f 37 239 240 
f 435 241 225 
f 245 225 241 
f 401 243 242 
f 224 242 243 
f 38 245 244 
f 241 244 245 
f 200 218 246 
f 213 246 218 
f 439 248 247 
f 335 247 248 
f 80 249 87 
f 132 87 249 
f 301 251 250 
f 493 250 251 
f 400 253 252 
f 219 252 253 
f 147 254 165 
f 481 165 254 
f 471 256 255 
f 326 255 256 
f 333 258 257 
f 133 257 258 
f 474 260 259 
f 327 259 260 
f 185 262 261 
f 425 261 262 
f 397 264 263 
f 501 263 264 
f 76 71 265 
f 431 265 71 
f 42 73 266 
f 85 267 175 
f 4 269 268 
f 370 268 269 
f 392 256 45 
f 325 45 256 
f 497 270 211 
f 292 211 270 
f 162 271 26 
f 388 26 271 
f 235 272 14 
f 441 14 272 
f 230 179 273 
f 421 261 274 
f 425 274 261 
f 95 275 66 
f 340 276 193 
f 277 233 184 
f 184 203 277 
f 135 277 203 
f 307 94 278 
f 385 278 94 
f 440 280 279 
f 337 279 280 
f 219 275 96 
f 405 281 43 
f 412 282 41 
f 23 41 282 
f 320 227 178 
f 499 283 230 
f 303 284 153 
f 321 31 163 
f 271 163 31 
f 205 286 285 
f 395 285 286 
f 208 288 287 
f 101 287 288 
f 443 289 146 
f 119 92 290 
f 299 292 291 
f 420 291 292 
f 399 214 293 
f 355 293 214 
f 356 66 294 
f 426 294 66 
f 212 295 72 
f 86 296 104 
f 387 104 296 
f 289 297 147 
f 254 147 297 
f 54 298 134 
f 432 134 298 
f 466 130 33 
f 316 285 171 
f 348 299 291 
f 479 301 300 
f 346 300 301 
f 303 114 302 
f 155 302 114 
f 302 284 303 
f 177 304 215 
f 344 158 29 
f 437 126 305 
f 423 305 126 
f 455 197 226 
f 296 7 112 
f 309 197 306 
f 384 306 197 
f 278 308 307 
f 391 307 308 
f 198 309 38 
f 468 25 310 
f 454 310 25 
f 114 311 155 
f 383 313 312 
f 372 312 313 
f 53 315 314 
f 475 314 315 
f 379 316 32 
f 459 32 316 
f 436 74 228 
f 436 228 317 
f 135 3 318 
f 354 318 3 
f 388 271 31 
f 485 320 319 
f 202 319 320 
f 478 322 321 
f 444 321 322 
f 351 324 323 
f 356 323 324 
f 471 16 325 
f 259 327 326 
f 83 326 327 
f 451 328 35 
f 383 35 328 
f 473 330 329 
f 394 329 330 
f 469 272 331 
f 123 331 272 
f 234 136 249 
f 131 249 136 
f 5 332 196 
f 350 334 333 
f 371 333 334 
f 210 299 20 
f 348 20 299 
f 247 335 257 
f 333 257 335 
f 423 336 156 
f 485 156 336 
f 404 152 337 
f 417 337 152 
f 346 298 55 
f 264 339 338 
f 70 338 339 
f 276 340 291 
f 364 291 340 
f 349 55 341 
f 105 6 130 
f 111 343 342 
f 456 342 343 
f 453 344 282 
f 29 282 344 
f 154 288 208 
f 31 321 345 
f 444 345 321 
f 300 346 55 
f 42 281 347 
f 78 347 281 
f 161 195 332 
f 364 348 291 
f 159 15 349 
f 55 349 15 
f 470 341 54 
f 391 96 46 
f 335 350 333 
f 79 324 351 
f 33 5 119 
f 196 119 5 
f 14 353 352 
f 176 352 353 
f 434 354 113 
f 50 113 354 
f 392 45 355 
f 56 2 188 
f 101 288 67 
f 378 356 294 
f 172 90 357 
f 186 357 90 
f 478 18 358 
f 236 358 18 
f 301 250 346 
f 448 346 250 
f 460 359 194 
f 92 221 360 
f 482 170 361 
f 430 221 362 
f 93 362 221 
f 10 216 363 
f 411 363 216 
f 340 365 364 
f 395 364 365 
f 122 77 366 
f 148 366 77 
f 409 34 166 
f 467 166 34 
f 91 193 367 
f 487 171 357 
f 397 368 308 
f 391 308 368 
f 133 254 297 
f 457 79 351 
f 282 29 1 
f 438 370 369 
f 269 369 370 
f 334 369 371 
f 389 371 369 
f 23 282 1 
f 440 372 313 
f 410 374 373 
f 246 373 374 
f 494 9 363 
f 439 375 248 
f 494 248 375 
f 12 377 376 
f 439 376 377 
f 323 378 377 
f 237 377 378 
f 198 244 48 
f 387 296 112 
f 32 380 379 
f 205 379 380 
f 486 382 381 
f 184 381 382 
f 404 337 280 
f 404 314 153 
f 475 153 314 
f 415 107 383 
f 66 356 47 
f 324 47 356 
f 455 384 197 
f 317 227 336 
f 485 336 227 
f 76 386 385 
f 442 385 386 
f 233 318 315 
f 434 315 318 
f 137 67 387 
f 312 144 169 
f 423 126 52 
f 80 371 389 
f 179 390 142 
f 252 96 368 
f 391 368 96 
f 471 325 256 
f 212 391 46 
f 259 256 392 
f 476 394 393 
f 414 393 394 
f 109 131 203 
f 286 364 395 
f 67 396 101 
f 108 229 132 
f 308 398 397 
f 447 397 398 
f 501 401 400 
f 253 400 401 
f 496 232 174 
f 429 174 232 
f 297 402 133 
f 257 133 402 
f 86 403 118 
f 396 405 88 
f 43 88 405 
f 184 199 381 
f 25 381 199 
f 360 406 183 
f 231 183 406 
f 191 9 407 
f 494 407 9 
f 418 279 408 
f 337 408 279 
f 186 176 353 
f 486 409 167 
f 371 258 333 
f 189 129 140 
f 445 410 373 
f 103 411 216 
f 453 282 412 
f 464 413 238 
f 190 238 413 
f 433 412 41 
f 394 330 414 
f 443 414 330 
f 169 415 312 
f 383 312 415 
f 177 367 304 
f 128 304 367 
f 27 192 416 
f 408 337 417 
f 143 418 138 
f 452 138 418 
f 22 56 419 
f 502 419 56 
f 270 420 292 
f 465 421 274 
f 47 324 295 
f 79 295 324 
f 123 403 217 
f 472 217 403 
f 253 242 422 
f 461 422 242 
f 52 115 423 
f 336 423 115 
f 168 144 121 
f 294 358 236 
f 431 329 265 
f 394 265 329 
f 161 332 424 
f 64 424 332 
f 235 123 272 
f 467 107 425 
f 415 425 107 
f 65 359 426 
f 460 426 359 
f 246 374 170 
f 327 427 83 
f 164 83 427 
f 449 421 428 
f 479 428 421 
f 306 429 309 
f 232 309 429 
f 447 339 264 
f 176 430 362 
f 467 34 107 
f 17 162 191 
f 416 191 162 
f 115 317 336 
f 457 329 431 
f 464 350 335 
f 118 424 86 
f 433 41 432 
f 99 432 41 
f 354 434 318 
f 448 433 432 
f 243 435 225 
f 255 326 185 
f 235 403 123 
f 489 111 342 
f 50 305 311 
f 156 311 305 
f 370 438 437 
f 51 437 438 
f 143 138 121 
f 497 239 270 
f 496 270 239 
f 452 78 138 
f 402 376 439 
f 472 103 216 
f 418 440 279 
f 353 14 441 
f 390 406 222 
f 360 222 406 
f 372 144 312 
f 355 442 386 
f 193 91 340 
f 365 340 91 
f 432 99 134 
f 449 255 185 
f 491 414 443 
f 19 444 322 
f 373 446 445 
f 488 445 446 
f 440 418 143 
f 207 70 447 
f 339 447 70 
f 38 244 198 
f 398 278 442 
f 385 442 278 
f 367 177 91 
f 310 440 313 
f 298 448 432 
f 185 261 449 
f 421 449 261 
f 172 285 395 
f 179 230 390 
f 406 390 230 
f 295 212 46 
f 164 450 167 
f 500 167 450 
f 275 220 65 
f 359 65 220 
f 366 189 160 
f 20 348 204 
f 49 374 410 
f 34 409 451 
f 24 451 409 
f 287 266 74 
f 480 452 408 
f 418 408 452 
f 234 249 80 
f 247 402 439 
f 502 188 28 
f 372 440 143 
f 470 58 187 
f 204 345 444 
f 104 387 154 
f 478 321 163 
f 157 344 453 
f 326 256 259 
f 314 454 53 
f 210 292 299 
f 467 425 262 
f 492 206 361 
f 483 361 206 
f 473 11 330 
f 443 330 11 
f 410 445 455 
f 463 455 445 
f 446 150 21 
f 120 21 150 
f 55 15 300 
f 444 20 204 
f 463 384 455 
f 362 161 352 
f 270 174 420 
f 267 420 174 
f 448 298 346 
f 468 451 24 
f 477 341 200 
f 470 200 341 
f 334 438 369 
f 223 456 201 
f 33 119 290 
f 213 150 446 
f 417 102 458 
f 42 458 102 
f 320 102 202 
f 417 202 102 
f 217 192 123 
f 368 400 252 
f 469 459 316 
f 129 137 8 
f 205 285 379 
f 316 379 285 
f 484 426 460 
f 224 201 461 
f 302 155 319 
f 485 319 155 
f 8 139 129 
f 433 160 453 
f 384 463 462 
f 142 462 463 
f 238 350 464 
f 176 215 430 
f 222 430 215 
f 301 465 168 
f 311 114 50 
f 183 466 290 
f 33 290 466 
f 343 110 460 
f 484 460 110 
f 82 467 262 
f 308 278 398 
f 496 37 232 
f 436 411 103 
f 82 173 467 
f 166 467 173 
f 328 451 468 
f 164 167 173 
f 246 213 446 
f 487 469 316 
f 148 396 68 
f 413 116 190 
f 52 190 116 
f 47 95 66 
f 78 281 149 
f 405 149 281 
f 470 54 134 
f 58 470 134 
f 86 472 403 
f 438 334 350 
f 471 255 449 
f 486 24 409 
f 12 323 377 
f 468 310 313 
f 453 106 157 
f 476 260 474 
f 113 303 475 
f 153 475 303 
f 237 17 407 
f 191 407 17 
f 265 394 476 
f 454 314 404 
f 245 181 225 
f 482 477 170 
f 411 116 413 
f 163 18 478 
f 252 219 96 
f 291 420 276 
f 267 276 420 
f 421 465 479 
f 301 479 465 
f 195 161 362 
f 433 453 412 
f 305 50 268 
f 435 70 207 
f 75 474 386 
f 392 386 474 
f 208 436 103 
f 4 389 269 
f 369 269 389 
f 476 393 260 
f 327 260 393 
f 101 89 287 
f 266 287 89 
f 452 480 347 
f 458 347 480 
f 254 141 481 
f 361 483 482 
f 490 482 483 
f 462 85 175 
f 465 274 169 
f 415 169 274 
f 263 400 368 
f 206 399 483 
f 490 483 399 
f 64 139 8 
f 328 313 383 
f 110 322 484 
f 478 484 322 
f 454 404 280 
f 189 366 148 
f 310 454 280 
f 234 80 389 
f 78 452 347 
f 489 210 111 
f 19 111 210 
f 471 449 428 
f 103 154 208 
f 39 359 220 
f 500 382 486 
f 156 305 423 
f 132 141 87 
f 461 242 224 
f 323 356 378 
f 212 307 391 
f 488 446 21 
f 186 487 357 
f 457 351 473 
f 12 473 351 
f 343 40 456 
f 11 289 443 
f 165 481 450 
f 229 450 481 
f 224 223 201 
f 310 280 440 
f 180 445 488 
f 434 475 315 
f 497 489 342 
f 493 448 250 
f 86 104 472 
f 441 469 487 
f 492 49 244 
f 459 469 331 
f 293 490 399 
f 329 457 473 
f 69 243 401 
f 477 349 341 
f 373 246 446 
f 497 211 489 
f 195 362 93 
f 376 297 289 
f 436 317 115 
f 19 322 110 
f 10 192 217 
f 355 386 392 
f 422 461 39 
f 457 431 71 
f 11 376 289 
f 183 231 283 
f 443 146 491 
f 427 491 146 
f 253 422 219 
f 237 407 375 
f 494 375 407 
f 84 128 367 
f 380 31 345 
f 75 265 476 
f 180 142 463 
f 75 476 474 
f 388 32 459 
f 435 492 241 
f 244 241 492 
f 445 180 463 
f 84 276 267 
f 318 233 277 
f 380 345 204 
f 416 162 26 
f 495 459 331 
f 469 441 272 
f 176 362 352 
f 388 495 26 
f 102 320 178 
f 475 434 113 
f 361 49 492 
f 496 174 270 
f 194 343 460 
f 402 247 257 
f 343 194 40 
f 500 229 108 
f 239 497 342 
f 302 319 202 
f 335 248 464 
f 494 464 248 
f 294 236 378 
f 435 207 492 
f 293 498 490 
f 477 490 498 
f 396 149 405 
f 419 499 22 
f 258 371 80 
f 115 411 436 
f 168 121 251 
f 306 384 462 
f 495 388 459 
f 24 486 381 
f 365 172 395 
f 494 413 464 
f 426 484 358 
f 478 358 484 
f 16 471 428 
f 450 229 500 
f 167 500 486 
f 69 401 501 
f 438 350 51 
f 146 165 427 
f 273 499 230 
f 501 338 69 
f 349 477 498 
f 397 447 264 
f 358 294 426 
f 480 417 458 
f 251 301 168 
f 266 89 43 
f 498 182 349 
f 501 264 338 
f 487 186 353 
f 417 480 408 
f 37 496 239 
f 499 488 21 
f 259 392 474 
f 366 493 122 
f 251 122 493 
f 286 348 364 
f 455 226 410 
f 180 488 273 
f 499 273 488 
f 42 347 458 
f 313 328 468 
f 442 214 398 
f 447 398 214 
f 274 425 415 
f 376 402 297 
f 494 363 413 
f 411 413 363 
f 429 306 175 
f 462 175 306 
f 487 353 441 
f 401 242 253 
f 393 414 491 
f 466 502 28 
f 355 44 293 
f 498 293 44 
f 493 433 448 
f 351 323 12 
f 227 320 485 
f 502 56 188 
f 437 305 268 
f 240 223 37 
f 205 348 286 
f 160 433 493 
f 263 501 400 
f 214 442 355 
f 127 390 222 
f 318 277 135 
f 375 439 377 
f 428 479 300 
f 4 234 389 
f 160 493 366 
f 108 382 500 
f 64 7 424 
f 327 393 491 
f 499 419 283 
f 502 283 419 
f 237 375 377 
f 283 502 466 
f 327 491 427 
f 435 243 69 
f 397 263 368 
f 240 342 456 
f 39 220 422 
f 477 482 490 
f 85 462 128 
f 365 90 172 
f 240 456 223 
f 283 466 183 
f 171 487 316 
f 202 284 302 
f 495 331 27 
f 268 370 437 
f 325 159 45 
f 300 16 428 
