#  wavefront obj file written by the visualization toolkit

mtllib livertumor01.mtl

v 100.08399963378906 88.26609802246094 132.52000427246094
v 97.78589630126953 88.845703125 134.4929962158203
v 111.01699829101562 107.20899963378906 113.7040023803711
v 110.78700256347656 109.79000091552734 113.1729965209961
v 69.38819885253906 97.77369689941406 117.16799926757812
v 72.9636001586914 101.8290023803711 117.11499786376953
v 96.85050201416016 96.57389831542969 88.10289764404297
v 97.58670043945312 93.92279815673828 90.30509948730469
v 117.72799682617188 64.85420227050781 115.04199981689453
v 117.58399963378906 64.24030303955078 116.91899871826172
v 110.88800048828125 67.40709686279297 91.07250213623047
v 112.3290023803711 70.39520263671875 91.67510223388672
v 114.95600128173828 94.89459991455078 115.05799865722656
v 115.9489974975586 93.95980072021484 117.22799682617188
v 79.14920043945312 77.33219909667969 123.83100128173828
v 81.29509735107422 80.15409851074219 127.00199890136719
v 119.33100128173828 77.6135025024414 108.61199951171875
v 118.0719985961914 73.96690368652344 107.18699645996094
v 86.12560272216797 108.45500183105469 83.90380096435547
v 84.47760009765625 106.27200317382812 80.13619995117188
v 111.302001953125 61.542701721191406 118.83999633789062
v 107.30899810791016 61.855201721191406 118.20999908447266
v 92.44550323486328 109.28800201416016 122.0719985961914
v 91.57869720458984 108.22100067138672 123.63800048828125
v 105.2249984741211 91.23909759521484 124.4469985961914
v 105.9010009765625 88.59770202636719 125.56400299072266
v 90.47209930419922 107.1259994506836 124.6510009765625
v 99.39510345458984 108.73200225830078 95.45960235595703
v 102.15399932861328 108.9739990234375 96.02300262451172
v 82.39939880371094 71.70110321044922 114.98600006103516
v 79.63050079345703 73.90070343017578 117.99600219726562
v 115.35900115966797 62.29970169067383 99.3770980834961
v 112.9219970703125 62.236698150634766 97.48660278320312
v 115.0770034790039 85.98590087890625 120.38300323486328
v 114.31900024414062 83.75389862060547 121.28299713134766
v 75.48889923095703 105.3010025024414 115.8740005493164
v 104.2760009765625 63.438899993896484 120.81199645996094
v 104.22899627685547 65.0270004272461 124.78700256347656
v 57.76850128173828 111.0199966430664 91.66470336914062
v 59.234500885009766 111.11199951171875 90.46520233154297
v 55.06850051879883 106.91000366210938 102.64700317382812
v 55.02399826049805 108.73799896240234 101.27899932861328
v 110.73200225830078 112.57099914550781 100.27999877929688
v 111.2959976196289 109.40699768066406 98.70500183105469
v 114.21299743652344 98.27989959716797 112.26000213623047
v 112.85199737548828 96.83830261230469 113.38800048828125
v 78.92739868164062 80.14640045166016 87.44270324707031
v 82.20469665527344 81.32879638671875 85.68409729003906
v 75.75360107421875 110.36599731445312 110.62300109863281
v 73.82009887695312 111.72799682617188 108.9010009765625
v 87.26820373535156 108.61100006103516 121.68699645996094
v 70.04720306396484 109.41899871826172 89.15190124511719
v 73.09490203857422 106.99299621582031 87.57009887695312
v 95.2615966796875 82.5248031616211 85.8467025756836
v 100.56500244140625 82.4801025390625 85.8395004272461
v 88.01499938964844 85.96640014648438 135.39999389648438
v 88.3489990234375 88.24970245361328 134.7030029296875
v 93.1427993774414 81.00170135498047 130.72999572753906
v 92.34300231933594 79.2688980102539 128.83399963378906
v 77.60209655761719 112.11399841308594 109.47899627685547
v 75.87480163574219 102.11000061035156 118.21700286865234
v 72.84120178222656 97.556396484375 118.37799835205078
v 91.56060028076172 106.96099853515625 81.0447998046875
v 94.2073974609375 105.12100219726562 80.9490966796875
v 115.53700256347656 74.404296875 124.47200012207031
v 116.39800262451172 72.75039672851562 123.66100311279297
v 120.26300048828125 81.68910217285156 112.55999755859375
v 117.86199951171875 80.2761001586914 114.56400299072266
v 113.17900085449219 60.50529861450195 115.59400177001953
v 112.66999816894531 60.684898376464844 117.90599822998047
v 116.41799926757812 61.94110107421875 118.04000091552734
v 74.54820251464844 114.1449966430664 104.65799713134766
v 77.7240982055664 113.9489974975586 106.97200012207031
v 100.91200256347656 114.33899688720703 103.16799926757812
v 103.05899810791016 113.54299926757812 100.36399841308594
v 117.8239974975586 103.19000244140625 103.77799987792969
v 117.55699920654297 101.58399963378906 99.41459655761719
v 81.84480285644531 72.15599822998047 109.31199645996094
v 77.48760223388672 74.51419830322266 110.37699890136719
v 91.51570129394531 88.15799713134766 135.718994140625
v 92.32890319824219 91.03109741210938 134.73399353027344
v 92.38610076904297 97.64969635009766 80.06449890136719
v 90.74980163574219 98.99810028076172 78.82080078125
v 58.673500061035156 108.96600341796875 89.89849853515625
v 56.71139907836914 106.9489974975586 91.44329833984375
v 115.9280014038086 77.53179931640625 92.46980285644531
v 113.9729995727539 77.90170288085938 90.25029754638672
v 95.46119689941406 103.33999633789062 81.18399810791016
v 95.31649780273438 101.58200073242188 81.09459686279297
v 91.06610107421875 82.20860290527344 132.96299743652344
v 87.01129913330078 81.95939636230469 132.27499389648438
v 124.16100311279297 80.50379943847656 102.76200103759766
v 122.16899871826172 78.96369934082031 104.71499633789062
v 107.98699951171875 96.25270080566406 120.68199920654297
v 105.96700286865234 93.85919952392578 122.66100311279297
v 96.03780364990234 87.9437026977539 135.552001953125
v 73.32019805908203 92.09120178222656 121.91899871826172
v 71.03710174560547 91.91400146484375 119.11299896240234
v 94.99369812011719 92.24430084228516 133.9709930419922
v 96.36199951171875 94.43620300292969 131.66200256347656
v 114.9729995727539 72.94400024414062 93.46150207519531
v 119.06300354003906 75.55950164794922 95.38919830322266
v 116.99500274658203 67.1488037109375 103.4530029296875
v 116.66100311279297 69.44730377197266 105.21499633789062
v 65.0697021484375 97.24800109863281 116.177001953125
v 63.48749923706055 96.88379669189453 114.67900085449219
v 115.86499786376953 102.24700164794922 97.54119873046875
v 116.55699920654297 104.25399780273438 100.49199676513672
v 103.88800048828125 101.54100036621094 94.12200164794922
v 105.44400024414062 98.41580200195312 93.74669647216797
v 94.63880157470703 109.59500122070312 119.36399841308594
v 112.52400207519531 99.4375991821289 113.7300033569336
v 112.91300201416016 102.51899719238281 113.55699920654297
v 60.7952995300293 96.46990203857422 91.32350158691406
v 62.64860153198242 94.45590209960938 90.76480102539062
v 113.45999908447266 62.21229934692383 119.61499786376953
v 112.30799865722656 63.916900634765625 121.50800323486328
v 94.8198013305664 107.41100311279297 125.1780014038086
v 96.50759887695312 107.6449966430664 124.40599822998047
v 116.52899932861328 67.12660217285156 119.43900299072266
v 115.28700256347656 67.48670196533203 122.71299743652344
v 75.331298828125 112.4540023803711 96.03469848632812
v 72.53469848632812 111.24099731445312 91.67340087890625
v 69.57109832763672 80.28559875488281 111.88899993896484
v 67.83350372314453 82.7970962524414 109.9800033569336
v 68.21109771728516 102.43800354003906 87.41190338134766
v 70.98259735107422 103.37699890136719 86.17489624023438
v 73.87770080566406 109.74800109863281 89.76069641113281
v 59.847198486328125 110.90799713134766 107.03199768066406
v 63.09479904174805 113.41999816894531 106
v 86.81410217285156 107.24299621582031 80.50550079345703
v 86.75279998779297 105.13600158691406 78.3906021118164
v 55.631099700927734 111.14299774169922 100.52400207519531
v 56.942298889160156 113.3949966430664 99.98860168457031
v 88.36119842529297 78.91120147705078 85.61519622802734
v 91.41809844970703 80.98970031738281 85.44490051269531
v 80.1593017578125 112.91500091552734 109.26100158691406
v 84.606201171875 74.73210144042969 126.74500274658203
v 82.15899658203125 77.48739624023438 127.1729965209961
v 111.09400177001953 98.63970184326172 116.09200286865234
v 86.53119659423828 102.9209976196289 77.5154037475586
v 115.91000366210938 84.15390014648438 119.07599639892578
v 107.26200103759766 75.78209686279297 87.04989624023438
v 108.552001953125 72.5802001953125 88.35769653320312
v 97.52999877929688 96.92500305175781 129.6580047607422
v 96.3114013671875 98.51100158691406 129.60899353027344
v 67.5823974609375 98.60679626464844 87.74980163574219
v 116.3479995727539 82.09700012207031 117.9739990234375
v 116.38300323486328 80.34259796142578 117.14399719238281
v 105.01599884033203 67.51349639892578 127.26100158691406
v 103.9229965209961 70.89779663085938 128.8350067138672
v 106.74600219726562 61.42580032348633 114.16500091552734
v 105.75299835205078 61.737098693847656 107.98400115966797
v 98.86959838867188 63.4734992980957 112.36900329589844
v 97.48529815673828 64.28399658203125 100.73799896240234
v 66.193603515625 102.80999755859375 115.39399719238281
v 63.467899322509766 102.64700317382812 113.86900329589844
v 118.74700164794922 93.31189727783203 104.07499694824219
v 120.33000183105469 90.00370025634766 103.2760009765625
v 73.79499816894531 89.68260192871094 123.94999694824219
v 85.10880279541016 80.12950134277344 85.5739974975586
v 60.47740173339844 101.10600280761719 110.8949966430664
v 61.284000396728516 103.5989990234375 111.16799926757812
v 97.52980041503906 70.67420196533203 89.19319915771484
v 100.28800201416016 68.3395004272461 89.91909790039062
v 60.24449920654297 107.75299835205078 108.51000213623047
v 64.77279663085938 109.13099670410156 108.75900268554688
v 91.86009979248047 66.4303970336914 110.06400299072266
v 85.78209686279297 70.40740203857422 105.12799835205078
v 86.17630004882812 84.09500122070312 133.92799377441406
v 85.89710235595703 85.41790008544922 133.93800354003906
v 84.15409851074219 106.07099914550781 122.33999633789062
v 86.95960235595703 106.16500091552734 124.06099700927734
v 93.8740005493164 108.072998046875 124.14600372314453
v 107.05599975585938 104.15799713134766 95.09210205078125
v 82.92970275878906 101.7040023803711 125.18299865722656
v 86.60749816894531 98.9386978149414 129.4239959716797
v 116.21299743652344 91.14250183105469 112.9540023803711
v 114.73300170898438 93.16829681396484 112.66200256347656
v 90.52410125732422 105.46700286865234 79.12660217285156
v 92.07830047607422 103.4219970703125 78.8770980834961
v 115.43499755859375 68.9052963256836 124.33599853515625
v 116.37100219726562 78.4104995727539 117.23899841308594
v 94.7166976928711 106.39099884033203 84.97599792480469
v 96.39610290527344 104.24500274658203 84.72059631347656
v 102.64700317382812 103.83100128173828 94.46440124511719
v 74.73280334472656 77.03990173339844 119.93699645996094
v 73.43930053710938 76.993896484375 118.06900024414062
v 112.30699920654297 109.19200134277344 112.76300048828125
v 113.10099792480469 107.38300323486328 113.177001953125
v 122.63500213623047 86.73809814453125 105.27100372314453
v 122.4520034790039 87.36029815673828 109.15499877929688
v 68.87899780273438 111.8010025024414 90.79730224609375
v 71.50980377197266 112.19000244140625 93.75039672851562
v 104.6719970703125 109.02799987792969 96.6227035522461
v 116.2239990234375 98.8290023803711 109.40699768066406
v 114.86299896240234 95.58399963378906 110.55500030517578
v 85.43219757080078 76.46499633789062 128.23800659179688
v 86.27950286865234 79.82369995117188 130.21299743652344
v 98.5790023803711 96.88999938964844 91.08550262451172
v 93.53199768066406 96.25980377197266 130.38999938964844
v 92.13069915771484 100.9260025024414 129.3000030517578
v 109.83200073242188 112.2699966430664 109.35099792480469
v 111.38700103759766 111.71299743652344 106.33399963378906
v 108.17900085449219 113.53199768066406 99.7384033203125
v 107.74500274658203 114.66699981689453 101.24299621582031
v 109.5479965209961 114.3010025024414 101.06900024414062
v 88.97989654541016 75.86750030517578 127.73999786376953
v 115.06500244140625 95.2853012084961 117.81999969482422
v 114.7249984741211 94.49870300292969 118.74800109863281
v 73.09819793701172 99.32279968261719 83.69270324707031
v 70.40519714355469 99.63600158691406 85.59359741210938
v 118.22000122070312 87.8489990234375 92.91590118408203
v 120.15599822998047 87.25050354003906 95.03240203857422
v 75.22239685058594 98.62960052490234 82.69390106201172
v 84.04570007324219 112.83300018310547 108.27899932861328
v 87.88860321044922 111.43699645996094 111.23799896240234
v 110.73600006103516 74.01940155029297 128.08599853515625
v 109.80799865722656 75.54740142822266 128.60800170898438
v 59.90409851074219 95.48600006103516 95.86650085449219
v 58.55139923095703 97.42549896240234 100.49600219726562
v 97.8280029296875 107.33100128173828 123.6709976196289
v 99.404296875 106.51599884033203 120.10900115966797
v 87.05609893798828 93.42769622802734 80.51110076904297
v 89.79429626464844 92.01799774169922 82.16410064697266
v 96.3678970336914 110.8740005493164 115.61900329589844
v 100.51899719238281 111.55500030517578 114.927001953125
v 57.51580047607422 108.5770034790039 107.20899963378906
v 83.37220001220703 85.21859741210938 131.4510040283203
v 118.08000183105469 93.38179779052734 108.03099822998047
v 95.38330078125 104.86599731445312 127.1050033569336
v 96.25630187988281 106.51200103759766 126.16100311279297
v 83.3113021850586 79.41079711914062 128.93600463867188
v 118.44999694824219 65.8904037475586 100.89299774169922
v 116.51499938964844 64.9552993774414 103.10700225830078
v 65.7593994140625 113.73600006103516 105.81400299072266
v 114.0510025024414 108.8949966430664 109.98699951171875
v 113.74099731445312 108.66500091552734 112.05799865722656
v 89.01020050048828 78.43170166015625 129.0919952392578
v 95.25450134277344 76.06009674072266 126.5979995727539
v 91.49859619140625 74.1332015991211 126.7979965209961
v 110.45500183105469 103.98100280761719 113.96399688720703
v 108.82599639892578 102.56400299072266 115.72200012207031
v 123.25399780273438 83.51309967041016 105.9010009765625
v 116.91400146484375 62.02429962158203 115.56800079345703
v 115.50399780273438 61.12710189819336 113.73400115966797
v 108.63400268554688 110.81199645996094 113.49199676513672
v 107.66300201416016 112.3479995727539 112.87899780273438
v 98.68900299072266 91.2645034790039 90.51750183105469
v 99.8760986328125 93.29959869384766 91.67739868164062
v 72.23269653320312 78.9551010131836 106.20899963378906
v 69.21829986572266 81.65589904785156 105.7020034790039
v 66.0615005493164 86.07460021972656 103.31600189208984
v 63.325801849365234 90.31120300292969 104.12200164794922
v 104.04299926757812 109.79399871826172 114.86100006103516
v 105.08599853515625 107.82599639892578 116.16699981689453
v 66.61630249023438 95.5801010131836 89.08470153808594
v 68.43669891357422 93.16549682617188 89.05349731445312
v 115.66899871826172 63.00120162963867 102.5999984741211
v 113.56600189208984 61.39910125732422 106.03700256347656
v 75.1238021850586 98.51509857177734 119.08799743652344
v 117.09600067138672 93.8770980834961 109.96299743652344
v 111.63400268554688 112.7490005493164 102.72899627685547
v 103.38800048828125 111.6500015258789 114.01100158691406
v 62.28020095825195 95.41339874267578 111.08100128173828
v 55.86880111694336 105.97100067138672 94.66020202636719
v 120.50399780273438 88.83280181884766 98.33460235595703
v 93.14469909667969 104.97899627685547 127.30500030517578
v 92.22000122070312 111.46499633789062 99.25140380859375
v 96.53019714355469 113.5510025024414 103.83899688720703
v 105.72100067138672 72.33360290527344 87.67620086669922
v 84.46099853515625 83.57759857177734 132.3209991455078
v 111.64299774169922 84.30609893798828 123.00499725341797
v 98.3499984741211 85.64540100097656 87.25420379638672
v 102.78099822998047 71.0385971069336 88.36129760742188
v 101.33000183105469 75.37259674072266 86.66539764404297
v 88.7582015991211 83.88400268554688 134.65899658203125
v 93.5009994506836 83.00039672851562 133.51100158691406
v 92.90440368652344 85.23200225830078 135.6510009765625
v 99.0978012084961 99.15190124511719 91.29640197753906
v 96.98390197753906 69.15350341796875 126.25900268554688
v 93.55799865722656 68.81400299072266 125.84500122070312
v 94.6957015991211 65.86820220947266 120.5719985961914
v 90.37570190429688 68.13369750976562 121.66600036621094
v 97.90129852294922 106.36299896240234 125.61100006103516
v 82.17749786376953 102.98500061035156 78.54740142822266
v 83.54519653320312 102.75700378417969 77.2428970336914
v 66.48380279541016 107.89600372314453 88.58070373535156
v 69.14559936523438 105.94999694824219 87.85289764404297
v 120.64700317382812 86.88739776611328 112.54900360107422
v 118.17400360107422 85.6781005859375 114.27400207519531
v 56.84170150756836 102.23699951171875 99.6156005859375
v 56.74140167236328 103.85800170898438 93.54740142822266
v 113.71499633789062 68.74220275878906 92.82559967041016
v 88.02010345458984 91.32679748535156 133.32699584960938
v 92.05280303955078 93.94059753417969 132.83200073242188
v 82.57360076904297 84.13809967041016 129.3470001220703
v 80.88569641113281 82.95960235595703 126.53099822998047
v 84.9760971069336 104.04499816894531 77.53179931640625
v 104.1510009765625 74.23880004882812 86.90660095214844
v 75.1250991821289 113.71199798583984 100.30400085449219
v 115.64700317382812 88.22630310058594 90.84449768066406
v 116.65799713134766 91.06670379638672 93.3030014038086
v 68.46479797363281 114.10800170898438 106.06500244140625
v 67.26959991455078 114.68399810791016 103.05799865722656
v 110.46800231933594 106.39299774169922 96.62519836425781
v 112.27100372314453 105.14399719238281 96.72560119628906
v 104.06099700927734 62.06380081176758 116.64900207519531
v 56.03379821777344 104.51699829101562 101.48300170898438
v 55.487701416015625 106.83300018310547 98.40760040283203
v 115.87699890136719 93.23600006103516 111.39299774169922
v 101.23799896240234 76.84130096435547 127.86900329589844
v 98.49120330810547 77.8738021850586 127.11499786376953
v 104.84500122070312 63.08489990234375 95.64129638671875
v 101.74500274658203 63.60689926147461 97.04139709472656
v 113.71299743652344 69.09439849853516 125.9800033569336
v 59.5010986328125 113.41300201416016 96.26930236816406
v 58.04180145263672 111.7509994506836 93.58589935302734
v 109.58000183105469 80.86070251464844 127.01399993896484
v 108.7020034790039 78.60880279541016 128.41600036621094
v 98.60130310058594 64.81729888916016 121.08699798583984
v 95.37899780273438 64.79460144042969 116.98699951171875
v 107.68599700927734 110.83799743652344 98.32209777832031
v 108.06800079345703 107.31700134277344 96.72029876708984
v 110.28099822998047 60.80459976196289 116.68599700927734
v 82.97380065917969 98.52210235595703 78.25270080566406
v 86.65809631347656 100.552001953125 78.02279663085938
v 69.45580291748047 96.22920227050781 86.5156021118164
v 71.95600128173828 96.29290008544922 84.19329833984375
v 77.88130187988281 113.46399688720703 102.09400177001953
v 80.95210266113281 113.31800079345703 105.93800354003906
v 82.73100280761719 107.70999908447266 84.1946029663086
v 100.39199829101562 88.85780334472656 89.03459930419922
v 78.64309692382812 83.5208969116211 125.447998046875
v 116.39399719238281 66.78269958496094 109.12000274658203
v 116.78600311279297 64.96009826660156 108.99199676513672
v 82.61219787597656 75.40470123291016 90.86930084228516
v 87.07430267333984 72.29879760742188 91.7063980102539
v 93.73580169677734 67.34110260009766 123.97100067138672
v 70.20259857177734 89.07839965820312 88.5238037109375
v 71.4395980834961 90.04010009765625 85.88880157470703
v 68.31320190429688 95.54350280761719 88.25050354003906
v 73.57640075683594 104.47699737548828 85.46089935302734
v 76.21489715576172 103.98699951171875 83.84609985351562
v 112.21499633789062 67.11399841308594 126.18199920654297
v 112.62999725341797 65.56410217285156 124.59300231933594
v 116.4489974975586 106.41400146484375 103.14900207519531
v 116.63400268554688 104.3949966430664 107.96499633789062
v 84.32849884033203 73.54930114746094 126.16899871826172
v 56.617000579833984 110.76499938964844 95.59770202636719
v 119.6050033569336 68.67680358886719 101.50399780273438
v 86.09200286865234 87.64459991455078 83.56009674072266
v 82.46070098876953 87.27469635009766 83.6895980834961
v 89.13929748535156 96.06490325927734 79.43340301513672
v 86.46690368652344 95.93329620361328 79.01750183105469
v 105.7509994506836 64.03679656982422 92.8302001953125
v 105.76100158691406 66.24120330810547 90.5718994140625
v 113.59400177001953 102.69499969482422 96.2208023071289
v 121.11699676513672 75.20780181884766 103.0979995727539
v 119.25700378417969 73.42530059814453 104.01799774169922
v 95.03240203857422 89.49410247802734 135.3350067138672
v 93.63829803466797 87.43170166015625 136
v 111.05400085449219 90.69439697265625 90.12110137939453
v 112.51499938964844 88.40229797363281 89.2343978881836
v 108.75800323486328 112.8270034790039 108.84200286865234
v 110.34100341796875 112.64800262451172 106.00599670410156
v 83.56880187988281 95.2874984741211 79.4845962524414
v 85.49109649658203 97.77510070800781 78.47930145263672
v 99.72049713134766 103.65799713134766 93.7645034790039
v 82.23090362548828 111.21099853515625 111.1050033569336
v 69.64720153808594 83.39579772949219 97.9529037475586
v 70.7865982055664 83.74839782714844 93.89250183105469
v 78.3197021484375 91.26329803466797 127.05999755859375
v 75.8322982788086 88.14839935302734 125.23300170898438
v 95.6760025024414 93.39900207519531 87.8843002319336
v 96.081298828125 91.18450164794922 88.96630096435547
v 78.36940002441406 80.75550079345703 124.79199981689453
v 75.54969787597656 82.45159912109375 123.87300109863281
v 116.51499938964844 88.62409973144531 115.53299713134766
v 116.30899810791016 87.0624008178711 117.6449966430664
v 107.35099792480469 83.74150085449219 127.072998046875
v 103.98300170898438 84.04340362548828 128.91000366210938
v 118.94000244140625 90.66290283203125 95.26290130615234
v 64.95829772949219 92.32599639892578 115.92900085449219
v 64.25350189208984 94.28829956054688 115.55899810791016
v 115.94100189208984 81.30549621582031 90.45690155029297
v 118.97100067138672 81.06300354003906 93.32659912109375
v 115.06400299072266 108.53600311279297 106.03500366210938
v 113.39399719238281 110.7229995727539 103.38099670410156
v 108.31300354003906 87.93949890136719 87.9751968383789
v 90.92980194091797 69.44190216064453 125.02300262451172
v 89.68920135498047 71.67769622802734 126.02999877929688
v 97.02570343017578 102.33699798583984 85.68109893798828
v 83.6050033569336 109.72200012207031 113.30699920654297
v 84.73760223388672 109.7239990234375 116.9540023803711
v 118.77799987792969 95.05280303955078 97.09049987792969
v 119.37100219726562 93.48680114746094 99.95069885253906
v 68.27449798583984 81.61799621582031 116.03399658203125
v 69.1707992553711 81.59490203857422 118.0739974975586
v 82.30860137939453 111.46399688720703 98.66600036621094
v 87.96710205078125 110.93599700927734 99.21839904785156
v 79.96620178222656 103.71499633789062 81.29550170898438
v 73.62950134277344 81.73400115966797 92.85489654541016
v 78.13310241699219 78.68299865722656 90.58699798583984
v 115.61399841308594 92.31739807128906 114.69499969482422
v 56.048301696777344 106.29499816894531 105.64800262451172
v 110.53399658203125 100.5979995727539 114.4469985961914
v 109.14700317382812 100.22000122070312 117.0459976196289
v 80.53479766845703 100.9749984741211 79.32730102539062
v 98.73989868164062 113.43800354003906 110.74400329589844
v 98.44290161132812 114.83999633789062 105.93499755859375
v 105.96099853515625 61.847801208496094 99.95670318603516
v 107.58599853515625 90.59100341796875 89.3998031616211
v 73.74440002441406 83.88130187988281 123.13600158691406
v 72.42430114746094 86.4281997680664 122.66799926757812
v 101.22899627685547 114.39199829101562 107.76200103759766
v 101.95099639892578 113.25800323486328 112.13500213623047
v 119.37899780273438 99.9833984375 103.22599792480469
v 71.69029998779297 110.58899688720703 109.08000183105469
v 111.13099670410156 72.29640197753906 90.07029724121094
v 113.18900299072266 74.2251968383789 91.59149932861328
v 68.0009994506836 90.42479705810547 89.8373031616211
v 68.97640228271484 87.7833023071289 90.2511978149414
v 116.60900115966797 100.08100128173828 96.70989990234375
v 81.4197006225586 75.10340118408203 124.86199951171875
v 77.77870178222656 101.40599822998047 81.95379638671875
v 60.079200744628906 94.07260131835938 100.53900146484375
v 107.15799713134766 114.36799621582031 104.49500274658203
v 107.21399688720703 113.41000366210938 108.26899719238281
v 68.42009735107422 111.97100067138672 107.40499877929688
v 116.10099792480469 68.63040161132812 107.64800262451172
v 66.43460083007812 99.6144027709961 116.51799774169922
v 64.2822036743164 99.94979858398438 115.56900024414062
v 64.52549743652344 92.3407974243164 90.97489929199219
v 80.61039733886719 108.90299987792969 88.20500183105469
v 79.8104019165039 106.35600280761719 84.1852035522461
v 88.5698013305664 75.7251968383789 87.16549682617188
v 90.24819946289062 72.57420349121094 89.2833023071289
v 67.60379791259766 91.4103012084961 117.19000244140625
v 65.7311019897461 89.41889953613281 116.5250015258789
v 97.68489837646484 91.23490142822266 133.46600341796875
v 81.37049865722656 86.70719909667969 127.8479995727539
v 79.3290023803711 87.63870239257812 126.37999725341797
v 69.35199737548828 85.94940185546875 91.72969818115234
v 71.34249877929688 86.15139770507812 89.27950286865234
v 100.80699920654297 106.45500183105469 94.8197021484375
v 104.35600280761719 106.1709976196289 95.53019714355469
v 79.89959716796875 99.84040069580078 123.447998046875
v 81.11499786376953 103.9540023803711 121.25
v 116.89700317382812 84.92289733886719 90.94889831542969
v 80.36000061035156 109.09400177001953 113.03700256347656
v 95.06439971923828 86.49530029296875 87.38279724121094
v 67.47570037841797 84.1073989868164 116.73100280761719
v 66.33219909667969 86.17009735107422 116.29499816894531
v 75.472900390625 81.61930084228516 89.40989685058594
v 72.08609771728516 83.96849822998047 90.71820068359375
v 91.91680145263672 85.50289916992188 86.13030242919922
v 93.93080139160156 77.87229919433594 127.64600372314453
v 64.8948974609375 94.37480163574219 89.7699966430664
v 120.54000091552734 90.55180358886719 110.71099853515625
v 121.54399871826172 89.40599822998047 107.4540023803711
v 62.51250076293945 93.90299987792969 109.9229965209961
v 117.33300018310547 87.2113037109375 114.63700103759766
v 89.28150177001953 89.57450103759766 83.5906982421875
v 90.76090240478516 88.45269775390625 85.24079895019531
v 115.77400207519531 104.30500030517578 111.61000061035156
v 114.37799835205078 104.56999969482422 113.43399810791016
v 106.57099914550781 65.42539978027344 125.84300231933594
v 114.50499725341797 96.20279693603516 117.17400360107422
v 76.0177001953125 111.03900146484375 92.625
v 104.54900360107422 87.12419891357422 128.02200317382812
v 102.37100219726562 85.93699645996094 130.44900512695312
v 55.94300079345703 108.81999969482422 105.14700317382812
v 99.33930206298828 98.16590118408203 128.86700439453125
v 91.92420196533203 76.31189727783203 86.68990325927734
v 95.03359985351562 78.56849670410156 85.55169677734375
v 73.26090240478516 90.627197265625 84.28050231933594
v 72.47740173339844 92.94110107421875 84.01589965820312
v 67.87039947509766 85.94170379638672 95.09960174560547
v 99.55729675292969 72.43800354003906 88.0615005493164
v 98.19380187988281 76.32140350341797 86.2334976196289
v 119.87899780273438 84.64820098876953 93.78009796142578
v 81.7197036743164 73.45169830322266 101.68299865722656
v 76.0468978881836 76.57849884033203 105.08499908447266
v 101.39800262451172 98.54309844970703 92.92019653320312
v 88.58679962158203 109.19400024414062 88.03970336914062
v 89.44149780273438 108.77400207519531 84.91510009765625
v 76.5811996459961 77.61479949951172 99.52279663085938
v 63.64099884033203 105.66400146484375 111.36900329589844
v 67.52200317382812 105.87999725341797 113.9020004272461
v 113.93399810791016 94.6436996459961 112.63700103759766
v 73.49590301513672 94.78479766845703 119.5780029296875
v 88.64710235595703 101.84400177001953 128.8509979248047
v 89.43070220947266 104.58599853515625 126.80799865722656
v 118.01300048828125 76.78279876708984 113.9229965209961
v 94.55180358886719 86.12580108642578 135.94200134277344
v 82.90190124511719 90.02729797363281 130.84800720214844
v 94.9854965209961 110.93000030517578 98.12220001220703
v 71.7686996459961 105.53099822998047 115.16000366210938
v 88.24459838867188 73.36160278320312 126.72899627685547
v 86.68990325927734 74.25 127.02899932861328
v 107.87699890136719 62.72840118408203 94.8853988647461
v 73.89869689941406 84.37999725341797 88.07489776611328
v 113.99099731445312 83.50879669189453 88.65540313720703
v 113.29499816894531 79.95580291748047 88.66739654541016
v 115.77400207519531 77.1511001586914 120.76699829101562
v 117.19200134277344 76.12300109863281 115.73400115966797
v 102.1719970703125 81.25469970703125 128.8509979248047
v 98.4093017578125 79.6874008178711 128.16799926757812
v 111.02200317382812 90.0000991821289 122.56300354003906
v 108.1240005493164 89.51020050048828 123.76599884033203
v 69.44129943847656 91.47429656982422 88.71240234375
v 94.50779724121094 106.25599670410156 126.3479995727539
v 79.4572982788086 111.00299835205078 110.9489974975586
v 85.11299896240234 110.06999969482422 92.28520202636719
v 91.23600006103516 109.54000091552734 92.44249725341797
v 102.28199768066406 91.86029815673828 91.00910186767578
v 114.89600372314453 92.81269836425781 119.01899719238281
v 88.78569793701172 108.2239990234375 82.20349884033203
v 90.54299926757812 67.18399810791016 117.23799896240234
v 65.6344985961914 88.07209777832031 114.6709976196289
v 64.87550354003906 90.37979888916016 111.88400268554688
v 119.72899627685547 95.41200256347656 102.05699920654297
v 76.51730346679688 93.61260223388672 125.95899963378906
v 78.9563980102539 94.69450378417969 128.06100463867188
v 107.625 101.01699829101562 118.51300048828125
v 109.96900177001953 98.4375991821289 118.83399963378906
v 100.6520004272461 70.55580139160156 127.43800354003906
v 98.49140167236328 66.62110137939453 125.4520034790039
v 58.807498931884766 100.80000305175781 108.18900299072266
v 57.07389831542969 102.44599914550781 105.67400360107422
v 80.69850158691406 85.68319702148438 126.80799865722656
v 108.76799774169922 113.3550033569336 106.09100341796875
v 110.38600158691406 82.52429962158203 125.322998046875
v 108.35700225830078 85.79329681396484 124.81900024414062
v 99.55229949951172 112.07099914550781 99.84159851074219
v 103.36499786376953 111.13300323486328 98.19979858398438
v 82.36409759521484 87.51830291748047 129.98300170898438
v 63.241798400878906 115.35099792480469 99.46900177001953
v 63.23899841308594 114.77899932861328 96.7522964477539
v 99.35040283203125 103.02100372314453 125.73300170898438
v 97.15809631347656 104.66000366210938 126.71900177001953
v 76.8280029296875 109.20800018310547 89.26909637451172
v 104.31199645996094 89.42639923095703 88.73989868164062
v 80.63410186767578 89.10859680175781 127.2300033569336
v 93.6937026977539 109.4229965209961 94.38970184326172
v 96.11119842529297 104.9739990234375 87.88189697265625
v 94.8292007446289 107.3270034790039 91.03459930419922
v 106.14199829101562 111.08999633789062 113.78600311279297
v 56.48780059814453 109.9000015258789 92.90119934082031
v 57.227298736572266 109.44300079345703 90.98539733886719
v 77.7113037109375 108.73699951171875 112.80999755859375
v 89.4656982421875 109.53099822998047 121.18199920654297
v 94.09400177001953 71.83059692382812 89.07389831542969
v 105.5770034790039 114.51100158691406 102.20700073242188
v 116.90299987792969 73.81289672851562 119.46900177001953
v 117.13800048828125 70.72869873046875 117.62999725341797
v 113.23999786376953 110.2490005493164 100.58999633789062
v 84.71070098876953 92.8019027709961 132.1699981689453
v 81.9280014038086 95.04789733886719 130.45599365234375
v 113.93499755859375 77.92320251464844 123.92500305175781
v 111.48300170898438 78.00479888916016 126.59600067138672
v 101.5530014038086 67.68090057373047 126.40799713134766
v 116.3550033569336 64.58390045166016 119.01699829101562
v 114.85700225830078 64.95890045166016 120.65799713134766
v 111.74400329589844 81.53970336914062 87.60459899902344
v 113.7750015258789 86.20249938964844 88.93350219726562
v 119.77300262451172 76.42050170898438 105.13200378417969
v 60.97129821777344 98.37660217285156 90.0624008178711
v 64.32969665527344 98.4020004272461 88.7979965209961
v 101.16600036621094 100.91100311279297 123.93000030517578
v 100.01699829101562 99.86309814453125 126.697998046875
v 96.9365005493164 66.62660217285156 93.66470336914062
v 93.1886978149414 67.9979019165039 94.59329986572266
v 100.84700012207031 96.76750183105469 126.85199737548828
v 102.52300262451172 94.06749725341797 125.197998046875
v 117.00800323486328 63.91419982910156 112.02300262451172
v 115.7760009765625 61.876800537109375 110.30899810791016
v 105.71900177001953 76.2686996459961 129.4040069580078
v 113.83000183105469 60.66270065307617 112.95500183105469
v 110.72799682617188 60.91230010986328 113.40799713134766
v 96.43360137939453 102.7750015258789 82.9126968383789
v 113.13300323486328 94.73690032958984 119.72200012207031
v 108.51599884033203 71.67019653320312 128.68299865722656
v 93.447998046875 106.87100219726562 125.59100341796875
v 72.62760162353516 77.27559661865234 113.40899658203125
v 116.7699966430664 85.08470153808594 115.947998046875
v 115.54100036621094 106.9489974975586 110.24600219726562
v 58.729801177978516 104.69499969482422 108.96600341796875
v 103.3280029296875 90.80609893798828 127.37200164794922
v 107.51100158691406 64.18810272216797 123.1259994506836
v 99.85060119628906 95.5896987915039 129.3070068359375
v 110.70999908447266 65.30699920654297 125.73100280761719
v 109.18299865722656 65.0739974975586 125.51300048828125
v 64.01580047607422 109.68699645996094 89.20870208740234
v 84.33789825439453 109.18699645996094 87.67150115966797
v 86.6511001586914 74.20690155029297 88.87999725341797
v 70.09919738769531 114.79100036621094 99.46379852294922
v 73.59339904785156 113.51100158691406 97.74559783935547
v 104.11499786376953 96.45480346679688 122.39700317382812
v 114.16999816894531 65.96849822998047 122.94000244140625
v 58.19329833984375 99.59639739990234 104.697998046875
v 57.62799835205078 100.53500366210938 96.9301986694336
v 116.36599731445312 70.52290344238281 122.93599700927734
v 115.29299926757812 71.33519744873047 125.53299713134766
v 92.02259826660156 91.91439819335938 83.86129760742188
v 114.83799743652344 60.53160095214844 117.0199966430664
v 94.94529724121094 79.84539794921875 128.70700073242188
v 95.61080169677734 81.50630187988281 130.86000061035156
v 61.15909957885742 113.41699981689453 94.06639862060547
v 78.94950103759766 106.70600128173828 116.20500183105469
v 88.54350280761719 94.64340209960938 131.96400451660156
v 108.59200286865234 105.13800048828125 115.0719985961914
v 117.77799987792969 71.90380096435547 111.47200012207031
v 116.8290023803711 68.4636001586914 110.35800170898438
v 76.03199768066406 78.39199829101562 121.93299865722656
v 90.07160186767578 97.69239807128906 130.3979949951172
v 68.5553970336914 83.07540130615234 102.36199951171875
v 66.39209747314453 86.20429992675781 98.34100341796875
v 109.59600067138672 114.03700256347656 103.3489990234375
v 91.46320343017578 94.4634017944336 81.45539855957031
v 111.0459976196289 75.68769836425781 88.92330169677734
v 118.86299896240234 98.2354965209961 99.03299713134766
v 116.125 96.91210174560547 95.72969818115234
v 119.78199768066406 96.61640167236328 99.69000244140625
v 98.23999786376953 109.09300231933594 117.97699737548828
v 81.75240325927734 77.99569702148438 87.89089965820312
v 121.73100280761719 73.2572021484375 100.34700012207031
v 120.1969985961914 70.06680297851562 99.8501968383789
v 70.71810150146484 82.47820281982422 120.72699737548828
v 97.70359802246094 83.35790252685547 132.0399932861328
v 96.47129821777344 86.07589721679688 134.697998046875
v 81.68840026855469 90.32769775390625 82.44709777832031
v 109.35900115966797 111.60199737548828 112.61000061035156
v 91.75289916992188 108.01200103759766 83.80719757080078
v 87.53209686279297 70.36740112304688 123.55000305175781
v 88.01300048828125 71.67330169677734 125.77300262451172
v 85.39219665527344 71.96299743652344 124.63600158691406
v 63.86750030517578 89.22029876708984 98.01730346679688
v 64.43209838867188 90.27359771728516 93.89179992675781
v 107.7300033569336 66.98979949951172 127.07099914550781
v 83.12100219726562 73.76270294189453 95.47740173339844
v 113.42500305175781 95.69380187988281 119.03299713134766
v 107.91400146484375 101.48300170898438 94.41429901123047
v 111.35099792480469 100.94499969482422 94.81420135498047
v 89.23930358886719 70.03379821777344 124.42400360107422
v 70.14219665527344 79.68710327148438 117.3219985961914
v 102.7760009765625 77.58550262451172 128.7310028076172
v 105.72899627685547 80.69409942626953 128.63699340820312
v 114.75800323486328 61.968101501464844 118.7699966430664
v 74.76850128173828 91.73040008544922 124.83000183105469
v 121.84600067138672 78.3833999633789 96.16709899902344
v 122.46399688720703 75.2593994140625 98.54039764404297
v 122.07099914550781 86.2520980834961 100.41100311279297
v 102.45600128173828 73.47019958496094 129.01400756835938
v 99.5916976928711 95.52469635009766 91.9468994140625
v 98.872802734375 74.19280242919922 127.0530014038086
v 102.35800170898438 106.54299926757812 118.1500015258789
v 76.81379699707031 106.85099792480469 86.4198989868164
v 112.14600372314453 80.20760345458984 124.50499725341797
v 105.91899871826172 92.26930236816406 90.9574966430664
v 106.22699737548828 72.66719818115234 129.33399963378906
v 66.08920288085938 112.82599639892578 107.01000213623047
v 66.79850006103516 93.80470275878906 116.78299713134766
v 77.4572982788086 97.40799713134766 123.30000305175781
v 109.68099975585938 66.56999969482422 126.73899841308594
v 109.75800323486328 69.21769714355469 127.60600280761719
v 86.43099975585938 85.13739776611328 84.6438980102539
v 95.67980194091797 104.75599670410156 82.67569732666016
v 102.23799896240234 89.75420379638672 129.7899932861328
v 105.38099670410156 94.697998046875 92.61650085449219
v 119.5770034790039 87.9437026977539 112.89299774169922
v 98.35469818115234 81.07360076904297 129.697998046875
v 62.847198486328125 113.12300109863281 91.87200164794922
v 95.71150207519531 97.6061019897461 84.17350006103516
v 96.37129974365234 100.48100280761719 83.54399871826172
v 67.11150360107422 88.18609619140625 92.03099822998047
v 65.43450164794922 88.59049987792969 94.74109649658203
v 62.84659957885742 91.96900177001953 94.44770050048828
v 94.74120330810547 83.77580261230469 134.0290069580078
v 105.49299621582031 113.31700134277344 111.04199981689453
v 105.30999755859375 114.02799987792969 107.53399658203125
v 67.85009765625 88.74330139160156 117.6500015258789
v 101.61299896240234 93.53600311279297 128.03399658203125
v 100.01200103759766 91.93890380859375 131.08200073242188
v 93.22509765625 100.94999694824219 79.47029876708984
v 117.50700378417969 93.29329681396484 95.34609985351562
v 121.81600189208984 88.69920349121094 110.75199890136719
v 121.89700317382812 85.24199676513672 110.66200256347656
v 57.87289810180664 102.80999755859375 108.21600341796875
v 56.91579818725586 104.5989990234375 107.12999725341797
v 112.27100372314453 97.93509674072266 114.99800109863281
v 113.8949966430664 96.32689666748047 114.83599853515625
v 89.0250015258789 103.46900177001953 78.2699966430664
v 97.83910369873047 86.72560119628906 133.6230010986328
v 71.49199676513672 113.68800354003906 106.77400207519531
v 71.58329772949219 114.35900115966797 103.24099731445312
v 112.76499938964844 105.54499816894531 113.5999984741211
v 120.82499694824219 83.80989837646484 111.99700164794922
v 55.80739974975586 108.4219970703125 94.92310333251953
v 90.12640380859375 70.03479766845703 93.46489715576172
v 91.44159698486328 67.65299987792969 99.14969635009766
v 85.05419921875 87.5199966430664 133.1699981689453
v 119.16999816894531 83.7770004272461 113.48400115966797
v 90.17539978027344 80.57649993896484 130.62100219726562
v 92.69550323486328 108.02899932861328 87.56770324707031
v 115.16500091552734 88.46289825439453 120.00900268554688
v 85.34639739990234 76.71980285644531 87.31909942626953
v 97.65390014648438 102.29000091552734 89.04090118408203
v 123.47799682617188 78.92559814453125 98.98200225830078
v 105.0770034790039 103.24099731445312 118.8270034790039
v 105.96700286865234 99.69509887695312 119.76000213623047
v 73.24949645996094 88.41230010986328 85.05049896240234
v 86.14330291748047 69.6720962524414 114.38300323486328
v 63.310699462890625 96.35130310058594 89.60780334472656
v 58.97439956665039 98.1969985961914 94.07969665527344
v 86.59980010986328 73.03669738769531 126.40299987792969
v 112.0719985961914 92.4271011352539 121.13899993896484
v 113.80699920654297 90.0562973022461 120.51599884033203
v 94.30120086669922 94.43009948730469 84.53299713134766
v 93.80130004882812 91.37809753417969 86.45110321044922
v 96.79509735107422 108.19100189208984 121.40299987792969
v 113.65499877929688 60.74639892578125 109.5459976196289
v 86.70890045166016 71.30419921875 96.39769744873047
v 60.634700775146484 113.48400115966797 103.85800170898438
v 68.34140014648438 108.822998046875 109.96099853515625
v 72.24490356445312 88.78759765625 122.3550033569336
v 77.34760284423828 78.11309814453125 94.51429748535156
v 82.30740356445312 100.79299926757812 77.62079620361328
v 57.689701080322266 106.46900177001953 108.21499633789062
v 76.39669799804688 74.60330200195312 115.31400299072266
v 107.0270004272461 108.9469985961914 114.23899841308594
v 74.59940338134766 95.4103012084961 82.44049835205078
v 78.05509948730469 97.98989868164062 80.80770111083984
v 115.94400024414062 68.84310150146484 121.98999786376953
v 71.20790100097656 81.06880187988281 101.83300018310547
v 96.03379821777344 66.96440124511719 125.31300354003906
v 72.54280090332031 87.07589721679688 86.91790008544922
v 117.65699768066406 64.04010009765625 99.43150329589844
v 112.83100128173828 110.3010025024414 107.62300109863281
v 111.23600006103516 111.26599884033203 109.51399993896484
v 119.5979995727539 78.95899963378906 111.97000122070312
v 118.58699798583984 75.47219848632812 110.80899810791016
v 117.62100219726562 68.49970245361328 96.95989990234375
v 115.25199890136719 67.04149627685547 94.7406997680664
v 63.26060104370117 111.87999725341797 107.06700134277344
v 84.28839874267578 81.6417007446289 130.67300415039062
v 114.62799835205078 100.41000366210938 95.84329986572266
v 103.09500122070312 86.05339813232422 87.0447006225586
v 108.78700256347656 112.43800354003906 111.25
v 99.44999694824219 65.41889953613281 123.83499908447266
v 85.53939819335938 102.7979965209961 126.36799621582031
v 73.7311019897461 80.002197265625 121.76499938964844
v 59.81489944458008 112.31300354003906 91.76029968261719
v 103.38099670410156 100.4020004272461 121.30999755859375
v 115.85199737548828 67.14099884033203 105.9209976196289
v 115.70500183105469 64.57929992675781 96.85579681396484
v 75.08350372314453 101.20899963378906 83.2020034790039
v 118.63099670410156 98.48290252685547 105.60900115966797
v 98.89720153808594 101.45999908447266 91.73030090332031
v 102.59600067138672 95.31939697265625 92.60569763183594
v 120.7760009765625 72.06919860839844 102.16300201416016
v 93.90670013427734 88.97779846191406 87.34719848632812
v 112.59500122070312 107.81600189208984 98.56890106201172
v 114.61299896240234 108.375 101.2979965209961
v 95.85320281982422 102.3219985961914 128.62600708007812
v 98.2125015258789 100.38500213623047 128.79299926757812
v 117.66500091552734 100.91300201416016 107.05899810791016
v 107.25800323486328 112.93699645996094 110.98200225830078
v 57.9015998840332 105.90599822998047 90.23480224609375
v 101.74400329589844 65.65709686279297 125.1259994506836
v 65.00599670410156 101.20700073242188 88.1509017944336
v 108.63899993896484 80.54010009765625 86.75050354003906
v 110.30699920654297 78.39830017089844 87.55999755859375
v 59.49150085449219 96.4634017944336 104.73400115966797
v 86.74870300292969 110.0530014038086 118.63099670410156
v 115.5469970703125 81.24870300292969 120.83100128173828
v 74.71839904785156 95.02749633789062 122.01100158691406
v 66.51249694824219 107.12100219726562 111.322998046875
v 106.24500274658203 69.78379821777344 89.02200317382812
v 82.22560119628906 108.76000213623047 116.98699951171875
v 103.35199737548828 114.37300109863281 105.052001953125
v 97.5353012084961 99.87850189208984 87.64779663085938
v 61.487098693847656 100.34400177001953 89.14949798583984
v 62.20289993286133 102.91300201416016 88.44730377197266
v 114.59300231933594 105.43699645996094 98.91490173339844
v 119.09200286865234 67.49169921875 99.46299743652344
v 82.13159942626953 105.26300048828125 80.85330200195312
v 110.37200164794922 94.58429718017578 120.75800323486328
v 108.48400115966797 96.79620361328125 93.375
v 57.49330139160156 110.97899627685547 106.34200286865234
v 55.94179916381836 110.23200225830078 103.5770034790039
v 87.59760284423828 110.26899719238281 114.33499908447266
v 80.96820068359375 112.5009994506836 101.91000366210938
v 110.79499816894531 84.8207015991211 87.5519027709961
v 66.73200225830078 111.01699829101562 89.75530242919922
v 64.1572036743164 112.20600128173828 90.40129852294922
v 114.13400268554688 90.84459686279297 91.5177001953125
v 114.68000030517578 93.77559661865234 93.7261962890625
v 60.74470138549805 107.90699768066406 89.08200073242188
v 98.06300354003906 106.31999969482422 94.03849792480469
v 97.46849822998047 104.33300018310547 91.75700378417969
v 112.39099884033203 96.63629913330078 94.01069641113281
v 67.43009948730469 114.28399658203125 96.29100036621094
v 68.10759735107422 113.0530014038086 93.1520004272461
v 117.11100006103516 71.03379821777344 107.2770004272461
v 117.01899719238281 82.8915023803711 114.91600036621094
v 74.8926010131836 92.69450378417969 82.85459899902344
v 80.44869995117188 105.54299926757812 119.51599884033203
v 103.70800018310547 113.72899627685547 110.27799987792969
v 111.05599975585938 63.1328010559082 94.41539764404297
v 109.14800262451172 61.6614990234375 98.66840362548828
v 117.50599670410156 66.2343978881836 97.81390380859375
v 118.46600341796875 74.5302963256836 113.38999938964844
v 66.27850341796875 85.91220092773438 110.1760025024414
v 73.61060333251953 107.98699951171875 113.16300201416016
v 69.40509796142578 102.56199645996094 116.04299926757812
v 82.68550109863281 84.77110290527344 84.58689880371094
v 79.63200378417969 82.46890258789062 85.47000122070312
v 101.52200317382812 64.74520111083984 122.7979965209961
v 80.61029815673828 92.94170379638672 129.3509979248047
v 117.68599700927734 66.94159698486328 115.87100219726562
v 117.44400024414062 66.59190368652344 112.51399993896484
v 77.39949798583984 85.47689819335938 125.46900177001953
v 108.29499816894531 67.7061996459961 90.0458984375
v 108.86900329589844 64.76679992675781 91.82610321044922
v 119.83799743652344 71.9822006225586 97.3895034790039
v 94.06759643554688 103.26300048828125 79.90339660644531
v 96.05899810791016 74.47209930419922 87.3761978149414
v 101.45600128173828 97.6509017944336 124.64900207519531
v 68.83540344238281 84.3595962524414 119.09100341796875
v 68.1769027709961 86.1957015991211 118.46199798583984
v 106.41699981689453 83.54730224609375 86.52310180664062
v 72.31909942626953 81.66100311279297 96.87159729003906
v 65.32080078125 115.39199829101562 98.79149627685547
v 76.77770233154297 82.94650268554688 86.59269714355469
v 75.3364028930664 86.64179992675781 85.32589721679688
v 78.86869812011719 85.3904037475586 84.72419738769531
v 60.3671989440918 98.1875991821289 108.77799987792969
v 112.51000213623047 109.97000122070312 111.10700225830078
v 77.59359741210938 100.86900329589844 120.12200164794922
v 65.50090026855469 105.16699981689453 113.83200073242188
v 108.59700012207031 92.49569702148438 122.65399932861328
v 81.24739837646484 93.50389862060547 80.89199829101562
v 78.30010223388672 92.5958023071289 82.02519989013672
v 79.893798828125 96.48770141601562 127.31700134277344
v 110.5770034790039 103.53099822998047 95.20120239257812
v 84.34480285644531 101.45999908447266 77.23680114746094
v 88.3197021484375 105.86299896240234 79.00080108642578
v 88.94419860839844 107.17500305175781 80.19400024414062
v 71.4126968383789 108.5999984741211 111.62699890136719
v 88.43470001220703 83.41089630126953 85.10440063476562
v 84.28389739990234 109.03099822998047 119.88400268554688
v 118.73600006103516 91.67120361328125 111.47699737548828
v 113.00700378417969 97.31199645996094 117.21299743652344
v 117.81800079345703 89.63169860839844 113.33799743652344
v 98.68930053710938 79.42729949951172 85.45459747314453
v 103.16200256347656 67.69439697265625 89.86689758300781
v 114.947998046875 101.75 112.55400085449219
v 123.0780029296875 77.16449737548828 101.50499725341797
v 120.41200256347656 97.33370208740234 102.6259994506836
v 70.17639923095703 85.9469985961914 121.11199951171875
v 80.73280334472656 98.77469635009766 78.79149627685547
v 85.65409851074219 70.10800170898438 119.26300048828125
v 110.4749984741211 64.70069885253906 123.98400115966797
v 109.6259994506836 63.17639923095703 120.96600341796875
v 59.3291015625 101.88500213623047 89.61949920654297
v 82.39019775390625 81.8761978149414 128.52000427246094
v 97.08329772949219 65.97859954833984 123.76599884033203
v 107.05999755859375 106.31099700927734 115.83799743652344
v 75.4269027709961 90.08180236816406 83.72650146484375
v 100.68000030517578 63.612300872802734 119.03800201416016
v 64.70369720458984 113.6510009765625 93.82389831542969
v 88.19259643554688 98.4655990600586 78.5083999633789
v 116.01300048828125 91.15019989013672 117.54199981689453
v 114.40499877929688 106.45700073242188 112.73100280761719
v 112.9260025024414 81.46479797363281 122.91899871826172
v 78.4021987915039 112.06800079345703 96.89559936523438
v 102.27899932861328 62.42150115966797 105.7750015258789
v 61.220401763916016 94.70210266113281 92.82679748535156
v 90.27100372314453 112.63400268554688 106.31999969482422
v 94.7833023071289 113.33300018310547 108.71800231933594
v 57.68149948120117 112.86699676513672 102.8740005493164
v 105.04900360107422 112.74500274658203 112.76599884033203
v 60.21860122680664 114.80000305175781 99.18440246582031
v 101.5739974975586 108.81600189208984 116.98400115966797
v 70.46859741210938 93.15840148925781 85.77850341796875
v 65.77950286865234 104.41300201416016 88.02770233154297
v 86.92739868164062 90.35150146484375 82.158203125
v 84.54750061035156 88.83869934082031 82.6843032836914
v 110.62200164794922 111.17400360107422 111.65299987792969
v 96.34390258789062 109.0469970703125 95.22209930419922
v 97.07929992675781 88.95140075683594 88.88040161132812
v 112.56300354003906 96.65409851074219 118.87300109863281
v 98.28369903564453 102.21700286865234 127.33699798583984
v 121.35800170898438 81.33769989013672 107.90299987792969
v 120.6989974975586 81.29570007324219 110.86399841308594
v 64.2531967163086 114.55999755859375 102.5510025024414
v 90.66169738769531 85.94329833984375 136
v 116.15299987792969 79.59940338134766 120
v 116.64299774169922 96.14839935302734 107.96600341796875
v 108.98100280761719 108.09400177001953 114.072998046875
v 94.36969757080078 71.97830200195312 126.39199829101562
v 109.66799926757812 61.2505989074707 103.91200256347656
v 76.88069915771484 75.31230163574219 118.93299865722656
v 116.21600341796875 89.17330169677734 117.5780029296875
v 82.44200134277344 72.83100128173828 122.33100128173828
v 114.61599731445312 67.02330017089844 124.5989990234375
v 90.33940124511719 101.302001953125 78.4906005859375
v 106.73400115966797 69.72480010986328 128.77499389648438
v 85.45279693603516 95.46900177001953 131.52699279785156
v 93.24859619140625 69.4573974609375 91.17790222167969
v 112.43099975585938 65.55059814453125 92.52349853515625
v 113.0250015258789 88.28780364990234 121.6709976196289
v 118.75599670410156 95.65650177001953 105.02200317382812
v 121.75800323486328 84.77670288085938 96.21199798583984
v 83.45379638671875 104.3499984741211 78.36869812011719
v 96.71070098876953 90.38179779052734 134.43899536132812
v 101.00700378417969 79.40470123291016 127.77200317382812
v 78.67330169677734 88.94170379638672 83.55079650878906
v 69.38159942626953 93.47000122070312 87.73670196533203
v 70.1104965209961 91.26480102539062 87.39990234375
v 66.91310119628906 84.22039794921875 114.88800048828125
v 68.8561019897461 107.25 112.87799835205078
v 93.84919738769531 106.63600158691406 82.59850311279297
v 80.05879974365234 96.06279754638672 79.99349975585938
v 91.55570220947266 84.06710052490234 135.18099975585938
v 118.31099700927734 70.60790252685547 103.7229995727539
v 106.06600189208984 113.09500122070312 99.9220962524414
v 62.13589859008789 98.9655990600586 112.7760009765625
v 74.83709716796875 113.43299865722656 107.36799621582031
v 61.5525016784668 112.25599670410156 90.54350280761719
v 70.67169952392578 93.56649780273438 118.10299682617188
v 109.40499877929688 92.99870300292969 91.4999008178711
v 71.80229949951172 79.54540252685547 119.66400146484375
v 58.7932014465332 100.19000244140625 91.20790100097656
v 95.37079620361328 66.22570037841797 96.80039978027344
v 93.92559814453125 96.54840087890625 81.89409637451172
v 100.08699798583984 85.53720092773438 131.9530029296875
v 91.04499816894531 110.15499877929688 117.5999984741211
v 96.0886001586914 107.1259994506836 93.15399932861328
v 92.72769927978516 105.0459976196289 79.72029876708984
v 82.72879791259766 97.9623031616211 128.22999572753906
v 119.68599700927734 91.53450012207031 107.25
v 103.98600006103516 79.04180145263672 86.14089965820312
v 65.86699676513672 90.50299835205078 91.12110137939453
v 94.73760223388672 108.75199890136719 122.62699890136719
v 113.4729995727539 74.60880279541016 126.36299896240234
v 109.88300323486328 61.04249954223633 108.99400329589844
v 100.33300018310547 65.91210174560547 92.30370330810547
v 84.74549865722656 112.22000122070312 104.31199645996094
v 57.74250030517578 102.7020034790039 91.23799896240234
v 76.83329772949219 94.79460144042969 81.4896011352539
v 66.71240234375 92.72669982910156 89.71859741210938
v 93.7072982788086 111.19499969482422 113.0469970703125
v 105.40399932861328 105.72899627685547 117.64299774169922
v 99.7344970703125 104.58599853515625 123.56099700927734
v 100.86799621582031 101.28500366210938 93.47039794921875
v 122.1500015258789 81.7968978881836 95.87359619140625
v 111.96700286865234 95.78579711914062 119.77200317382812
v 107.37000274658203 103.6449966430664 117.20899963378906
v 117.47599792480469 68.83390045166016 114.03199768066406
v 56.14120101928711 108.11399841308594 92.49440002441406
v 122.91500091552734 84.01270294189453 99.25039672851562
v 96.93190002441406 68.48809814453125 90.47720336914062
v 70.6636962890625 88.92369842529297 120.33499908447266
v 116.34700012207031 70.82330322265625 94.74250030517578
v 101.05699920654297 83.08519744873047 130.52200317382812
v 72.841796875 101.77300262451172 84.25499725341797
v 61.539398193359375 110.73600006103516 89.73650360107422
v 109.66999816894531 69.99849700927734 89.79000091552734
v 116.93000030517578 68.85089874267578 118.3239974975586
v 101.62100219726562 103.59300231933594 120.34500122070312
v 112.45999908447266 61.13750076293945 101.96099853515625
v 80.00379943847656 95.0698013305664 129.28599548339844
v 57.0010986328125 112.41600036621094 98.14009857177734
v 71.26260375976562 113.48899841308594 96.15670013427734
v 94.80909729003906 99.07890319824219 81.44629669189453
v 111.2020034790039 87.3302001953125 122.68800354003906
v 109.1969985961914 97.7957992553711 119.73999786376953
v 83.80549621582031 91.73249816894531 81.32599639892578
v 99.03250122070312 110.18299865722656 97.17839813232422
v 66.0156021118164 112.88400268554688 91.48619842529297
v 91.83550262451172 70.87319946289062 126.36100006103516
v 116.25900268554688 89.90039825439453 115.19999694824219
v 113.81800079345703 86.50920104980469 121.37999725341797
v 113.66799926757812 64.35870361328125 94.7406005859375
v 119.4739990234375 92.02970123291016 96.78199768066406
v 79.69969940185547 110.59100341796875 92.8021011352539
v 111.74500274658203 71.30979919433594 127.33799743652344
v 59.6797981262207 104.58799743652344 89.10350036621094
v 55.55979919433594 109.50399780273438 98.05480194091797
v 61.91429901123047 91.55889892578125 98.2688980102539
v 61.211700439453125 93.3551025390625 95.94740295410156
v 63.02750015258789 106.21600341796875 88.38999938964844
v 115.78500366210938 65.3511962890625 106.30400085449219
v 115.65399932861328 63.151798248291016 106.9219970703125
v 116.31300354003906 101.62999725341797 110
v 114.59500122070312 79.364501953125 121.9260025024414
v 112.3219985961914 92.9917984008789 92.19979858398438
v 123.91000366210938 82.47339630126953 101.34200286865234
v 102.86699676513672 65.49610137939453 91.64900207519531

g grp1
usemtl mtl1
f 441 2 1 
f 695 1 2 
f 189 4 3 
f 902 3 4 
f 62 6 5 
f 817 5 6 
f 200 8 7 
f 375 7 8 
f 822 10 9 
f 245 9 10 
f 971 12 11 
f 294 11 12 
f 209 14 13 
f 405 13 14 
f 139 16 15 
f 377 15 16 
f 743 18 17 
f 568 17 18 
f 131 20 19 
f 332 19 20 
f 866 22 21 
f 325 21 22 
f 553 24 23 
f 174 23 24 
f 590 26 25 
f 511 25 26 
f 585 24 27 
f 51 27 24 
f 982 29 28 
f 446 28 29 
f 907 31 30 
f 79 30 31 
f 974 33 32 
f 757 32 33 
f 986 35 34 
f 142 34 35 
f 499 6 36 
f 61 36 6 
f 591 38 37 
f 820 37 38 
f 754 40 39 
f 551 39 40 
f 792 42 41 
f 310 41 42 
f 558 44 43 
f 323 43 44 
f 112 46 45 
f 197 45 46 
f 819 48 47 
f 627 47 48 
f 60 50 49 
f 419 49 50 
f 553 51 24 
f 128 53 52 
f 289 52 53 
f 274 55 54 
f 857 54 55 
f 80 57 56 
f 171 56 57 
f 705 59 58 
f 608 58 59 
f 514 60 49 
f 6 62 61 
f 261 61 62 
f 925 64 63 
f 942 63 64 
f 605 66 65 
f 556 65 66 
f 704 68 67 
f 742 67 68 
f 607 70 69 
f 325 69 70 
f 564 71 10 
f 245 10 71 
f 931 73 72 
f 330 72 73 
f 782 75 74 
f 536 74 75 
f 418 77 76 
f 108 76 77 
f 30 79 78 
f 484 78 79 
f 361 81 80 
f 57 80 81 
f 354 83 82 
f 686 82 83 
f 770 85 84 
f 551 84 85 
f 421 87 86 
f 386 86 87 
f 582 89 88 
f 828 88 89 
f 277 91 90 
f 705 90 91 
f 244 93 92 
f 860 92 93 
f 600 95 94 
f 789 94 95 
f 632 2 96 
f 918 96 2 
f 492 98 97 
f 966 97 98 
f 441 100 99 
f 296 99 100 
f 86 102 101 
f 967 101 102 
f 928 104 103 
f 756 103 104 
f 433 106 105 
f 385 105 106 
f 786 108 107 
f 77 107 108 
f 644 110 109 
f 485 109 110 
f 947 111 23 
f 940 23 111 
f 859 113 112 
f 407 112 113 
f 715 115 114 
f 880 114 115 
f 565 117 116 
f 21 116 117 
f 232 119 118 
f 947 118 119 
f 735 121 120 
f 565 120 121 
f 470 123 122 
f 194 122 123 
f 398 125 124 
f 252 124 125 
f 289 127 126 
f 212 126 127 
f 543 53 128 
f 746 130 129 
f 725 129 130 
f 849 132 131 
f 20 131 132 
f 883 134 133 
f 976 133 134 
f 852 136 135 
f 475 135 136 
f 514 137 60 
f 73 60 137 
f 198 139 138 
f 425 138 139 
f 407 140 112 
f 692 112 140 
f 694 141 132 
f 299 132 141 
f 777 142 35 
f 622 144 143 
f 271 143 144 
f 474 146 145 
f 201 145 146 
f 212 147 126 
f 772 126 147 
f 900 149 148 
f 807 148 149 
f 910 151 150 
f 563 150 151 
f 308 153 152 
f 949 152 153 
f 168 155 154 
f 879 154 155 
f 842 157 156 
f 433 156 157 
f 944 159 158 
f 397 158 159 
f 651 97 160 
f 727 160 97 
f 627 48 161 
f 668 161 48 
f 157 163 162 
f 690 162 163 
f 480 165 164 
f 965 164 165 
f 489 167 166 
f 746 166 167 
f 714 169 168 
f 702 168 169 
f 56 171 170 
f 272 170 171 
f 752 173 172 
f 51 172 173 
f 947 23 174 
f 186 175 109 
f 644 109 175 
f 943 177 176 
f 752 176 177 
f 311 179 178 
f 405 178 179 
f 942 181 180 
f 694 180 181 
f 21 70 116 
f 650 116 70 
f 908 121 182 
f 735 182 121 
f 900 183 149 
f 68 149 183 
f 547 185 184 
f 669 184 185 
f 447 175 186 
f 935 188 187 
f 905 187 188 
f 3 190 189 
f 238 189 190 
f 461 192 191 
f 244 191 192 
f 805 194 193 
f 123 193 194 
f 537 195 29 
f 447 29 195 
f 45 197 196 
f 901 196 197 
f 239 199 198 
f 233 198 199 
f 656 8 200 
f 146 202 201 
f 617 201 202 
f 741 204 203 
f 366 203 204 
f 929 206 205 
f 207 205 206 
f 263 43 207 
f 205 207 43 
f 239 198 208 
f 501 208 198 
f 643 210 209 
f 14 209 210 
f 329 212 211 
f 969 211 212 
f 383 214 213 
f 482 213 214 
f 758 215 211 
f 329 211 215 
f 370 217 216 
f 881 216 217 
f 562 219 218 
f 584 218 219 
f 427 221 220 
f 716 220 221 
f 957 223 222 
f 722 222 223 
f 621 225 224 
f 889 224 225 
f 626 227 226 
f 410 226 227 
f 791 228 129 
f 166 129 228 
f 703 229 171 
f 272 171 229 
f 915 230 158 
f 944 158 230 
f 542 232 231 
f 513 231 232 
f 16 139 233 
f 198 233 139 
f 103 235 234 
f 739 234 235 
f 425 139 15 
f 746 236 130 
f 898 130 236 
f 840 238 237 
f 588 237 238 
f 705 199 239 
f 747 233 199 
f 458 241 240 
f 903 240 241 
f 613 243 242 
f 407 242 243 
f 896 244 192 
f 607 246 245 
f 577 245 246 
f 634 248 247 
f 549 247 248 
f 8 250 249 
f 517 249 250 
f 124 252 251 
f 736 251 252 
f 815 254 253 
f 639 253 254 
f 886 256 255 
f 732 255 256 
f 342 258 257 
f 954 257 258 
f 997 260 259 
f 974 259 260 
f 841 61 261 
f 854 230 262 
f 901 262 230 
f 558 43 263 
f 227 255 264 
f 549 264 255 
f 385 106 265 
f 930 265 106 
f 963 85 266 
f 293 266 85 
f 620 263 207 
f 916 214 267 
f 383 267 214 
f 766 268 202 
f 494 202 268 
f 881 270 269 
f 498 269 270 
f 780 271 144 
f 170 272 91 
f 747 91 272 
f 877 35 273 
f 986 273 35 
f 452 274 54 
f 480 276 275 
f 300 275 276 
f 899 56 277 
f 170 277 56 
f 680 279 278 
f 927 278 279 
f 485 200 280 
f 7 280 200 
f 903 282 281 
f 737 281 282 
f 339 284 283 
f 520 283 284 
f 698 3 242 
f 613 242 3 
f 232 285 119 
f 222 119 285 
f 917 287 286 
f 729 286 287 
f 52 289 288 
f 888 288 289 
f 672 291 290 
f 704 290 291 
f 714 78 169 
f 483 169 78 
f 266 293 292 
f 603 292 293 
f 967 294 101 
f 12 101 294 
f 81 296 295 
f 612 295 296 
f 532 298 297 
f 868 297 298 
f 917 299 287 
f 848 287 299 
f 945 143 300 
f 271 300 143 
f 330 301 72 
f 697 72 301 
f 798 303 302 
f 213 302 303 
f 697 305 304 
f 236 304 305 
f 764 307 306 
f 847 306 307 
f 872 154 308 
f 879 308 154 
f 41 310 309 
f 266 309 310 
f 491 179 311 
f 919 313 312 
f 657 312 313 
f 412 315 314 
f 950 314 315 
f 634 247 4 
f 902 4 247 
f 605 316 182 
f 908 182 316 
f 610 318 317 
f 350 317 318 
f 649 320 319 
f 562 319 320 
f 283 322 321 
f 872 321 322 
f 44 324 323 
f 195 323 324 
f 389 263 204 
f 366 204 263 
f 581 69 325 
f 848 327 326 
f 368 326 327 
f 212 329 328 
f 887 328 329 
f 73 331 330 
f 794 330 331 
f 788 332 20 
f 517 333 249 
f 893 249 333 
f 532 334 298 
f 377 298 334 
f 823 336 335 
f 996 335 336 
f 597 338 337 
f 642 337 338 
f 868 298 16 
f 377 16 298 
f 391 339 282 
f 737 282 339 
f 922 341 340 
f 738 340 341 
f 257 147 342 
f 328 342 147 
f 659 344 343 
f 969 343 344 
f 593 346 345 
f 908 345 346 
f 848 299 141 
f 388 348 347 
f 76 347 348 
f 425 349 138 
f 717 138 349 
f 976 317 350 
f 928 103 351 
f 234 351 103 
f 818 353 352 
f 890 352 353 
f 224 355 354 
f 874 354 355 
f 1002 357 356 
f 826 356 357 
f 262 197 311 
f 491 311 197 
f 786 358 307 
f 847 307 358 
f 568 360 359 
f 762 359 360 
f 80 362 361 
f 96 361 362 
f 798 364 363 
f 390 363 364 
f 203 366 365 
f 533 365 366 
f 326 368 367 
f 355 367 368 
f 446 186 369 
f 958 369 186 
f 216 137 370 
f 514 370 137 
f 607 245 71 
f 479 372 371 
f 834 371 372 
f 651 374 373 
f 443 373 374 
f 8 376 375 
f 721 375 376 
f 334 378 377 
f 616 377 378 
f 906 380 379 
f 463 379 380 
f 471 382 381 
f 649 381 382 
f 457 54 136 
f 476 136 54 
f 303 383 213 
f 664 385 384 
f 462 384 385 
f 450 387 386 
f 86 386 387 
f 765 389 388 
f 740 388 389 
f 931 60 73 
f 413 363 390 
f 984 392 391 
f 646 391 392 
f 547 393 185 
f 582 185 393 
f 781 395 394 
f 793 394 395 
f 625 397 396 
f 988 396 397 
f 647 399 398 
f 453 398 399 
f 951 401 400 
f 515 400 401 
f 788 286 402 
f 409 402 286 
f 455 404 403 
f 728 403 404 
f 985 178 405 
f 691 406 309 
f 41 309 406 
f 243 408 407 
f 140 407 408 
f 426 402 409 
f 416 411 410 
f 882 410 411 
f 879 412 153 
f 904 153 412 
f 934 363 413 
f 374 415 414 
f 630 414 415 
f 410 417 416 
f 810 416 417 
f 768 418 76 
f 851 49 419 
f 622 421 420 
f 12 420 421 
f 340 423 422 
f 677 422 423 
f 107 77 424 
f 623 424 77 
f 15 31 425 
f 907 425 31 
f 402 426 344 
f 758 344 426 
f 132 299 20 
f 917 20 299 
f 775 221 427 
f 682 429 428 
f 533 428 429 
f 806 360 18 
f 568 18 360 
f 696 304 430 
f 663 430 304 
f 806 431 104 
f 756 104 431 
f 156 433 432 
f 105 432 433 
f 679 115 434 
f 459 434 115 
f 332 436 435 
f 659 435 436 
f 475 438 437 
f 597 437 438 
f 384 440 439 
f 683 439 440 
f 685 100 441 
f 545 443 442 
f 532 442 443 
f 423 445 444 
f 456 444 445 
f 29 447 446 
f 186 446 447 
f 176 449 448 
f 841 448 449 
f 458 208 241 
f 500 241 208 
f 482 387 450 
f 370 451 394 
f 781 394 451 
f 457 452 54 
f 832 454 453 
f 923 453 454 
f 403 456 455 
f 503 455 456 
f 239 208 59 
f 458 59 208 
f 901 197 262 
f 715 459 115 
f 688 461 460 
f 944 460 461 
f 522 384 462 
f 856 379 463 
f 606 465 464 
f 668 464 465 
f 876 467 466 
f 859 466 467 
f 150 38 468 
f 591 468 38 
f 643 209 469 
f 13 469 209 
f 878 470 122 
f 670 472 471 
f 382 471 472 
f 228 473 406 
f 41 406 473 
f 767 146 474 
f 136 476 475 
f 829 475 476 
f 921 258 342 
f 341 478 477 
f 808 477 478 
f 708 161 135 
f 852 135 161 
f 619 479 371 
f 829 481 480 
f 276 480 481 
f 959 387 482 
f 78 484 483 
f 488 483 484 
f 958 485 280 
f 706 487 486 
f 19 486 487 
f 736 488 484 
f 842 490 489 
f 779 489 490 
f 693 13 491 
f 179 491 13 
f 933 98 492 
f 242 407 113 
f 202 494 493 
f 752 493 494 
f 183 495 68 
f 742 68 495 
f 769 365 429 
f 533 429 365 
f 362 496 96 
f 632 96 496 
f 559 497 295 
f 703 295 497 
f 546 269 498 
f 816 499 36 
f 208 501 500 
f 717 500 501 
f 943 176 448 
f 812 314 502 
f 356 502 314 
f 836 455 503 
f 386 505 504 
f 566 504 505 
f 556 507 506 
f 183 506 507 
f 503 456 445 
f 673 509 508 
f 919 508 509 
f 843 511 510 
f 979 510 511 
f 887 478 341 
f 422 258 512 
f 921 512 258 
f 268 231 513 
f 401 516 515 
f 486 515 516 
f 761 517 250 
f 583 518 210 
f 14 210 518 
f 635 519 487 
f 19 487 519 
f 796 52 288 
f 864 520 284 
f 384 522 521 
f 815 521 522 
f 915 158 523 
f 397 523 158 
f 373 525 524 
f 665 524 525 
f 980 527 526 
f 408 526 527 
f 652 102 387 
f 86 387 102 
f 705 239 59 
f 281 529 528 
f 563 528 529 
f 875 405 14 
f 690 531 530 
f 602 530 531 
f 297 442 532 
f 792 41 473 
f 599 122 194 
f 273 535 534 
f 381 534 535 
f 75 537 536 
f 982 536 537 
f 703 538 229 
f 442 229 538 
f 835 540 539 
f 885 539 540 
f 265 462 385 
f 285 542 541 
f 895 541 542 
f 659 53 543 
f 661 544 517 
f 333 517 544 
f 708 135 437 
f 475 437 135 
f 801 28 446 
f 373 443 545 
f 269 546 516 
f 548 516 546 
f 706 548 547 
f 802 547 548 
f 884 264 549 
f 39 551 550 
f 963 550 551 
f 451 514 552 
f 49 552 514 
f 940 553 23 
f 829 164 554 
f 965 554 164 
f 428 206 555 
f 929 555 206 
f 604 557 556 
f 814 556 557 
f 263 389 558 
f 765 558 389 
f 911 560 559 
f 821 559 560 
f 660 562 561 
f 948 561 562 
f 778 261 492 
f 62 492 261 
f 151 528 563 
f 120 565 564 
f 650 564 565 
f 795 504 566 
f 623 77 418 
f 302 567 364 
f 795 364 567 
f 784 570 569 
f 715 569 570 
f 541 572 571 
f 830 571 572 
f 937 574 573 
f 912 573 574 
f 684 576 575 
f 830 575 576 
f 246 578 577 
f 336 577 578 
f 649 579 320 
f 219 320 579 
f 69 581 580 
f 723 580 581 
f 669 185 582 
f 718 518 583 
f 990 218 584 
f 118 585 513 
f 268 513 585 
f 771 38 150 
f 647 586 188 
f 731 188 586 
f 291 463 587 
f 380 587 463 
f 876 466 588 
f 348 588 466 
f 163 489 589 
f 166 589 489 
f 684 590 576 
f 25 576 590 
f 474 145 592 
f 100 592 145 
f 774 566 505 
f 666 594 593 
f 865 593 594 
f 715 570 257 
f 147 257 570 
f 796 288 595 
f 995 595 288 
f 515 596 435 
f 332 435 596 
f 708 437 597 
f 697 599 598 
f 977 598 599 
f 712 600 94 
f 173 27 51 
f 565 121 601 
f 908 601 121 
f 688 192 461 
f 958 109 485 
f 292 603 602 
f 221 602 603 
f 66 605 604 
f 182 604 605 
f 676 89 582 
f 907 349 425 
f 721 465 606 
f 650 607 71 
f 673 609 608 
f 58 608 609 
f 731 79 31 
f 754 318 610 
f 809 611 61 
f 36 61 611 
f 138 501 198 
f 66 604 556 
f 911 559 612 
f 295 612 559 
f 961 243 613 
f 962 615 614 
f 806 614 615 
f 388 237 588 
f 377 616 15 
f 905 15 616 
f 577 9 245 
f 372 444 456 
f 201 617 296 
f 612 296 617 
f 253 619 618 
f 371 618 619 
f 366 263 620 
f 938 621 82 
f 354 82 621 
f 420 144 622 
f 474 592 575 
f 684 575 592 
f 396 624 623 
f 424 623 624 
f 861 625 623 
f 396 623 625 
f 111 626 226 
f 708 337 627 
f 404 627 337 
f 264 417 227 
f 410 227 417 
f 762 629 628 
f 827 628 629 
f 753 414 630 
f 695 632 631 
f 680 631 632 
f 920 633 353 
f 890 353 633 
f 750 248 634 
f 519 635 63 
f 925 63 635 
f 646 637 636 
f 638 636 637 
f 702 155 168 
f 717 638 637 
f 677 423 444 
f 271 275 300 
f 679 640 639 
f 678 639 640 
f 150 468 641 
f 594 641 468 
f 728 337 642 
f 847 645 644 
f 790 644 645 
f 905 31 15 
f 284 646 636 
f 124 586 647 
f 579 649 648 
f 508 648 649 
f 71 564 650 
f 780 275 271 
f 778 97 651 
f 710 653 652 
f 102 652 653 
f 392 500 637 
f 717 637 500 
f 993 639 254 
f 191 654 159 
f 267 159 654 
f 648 312 655 
f 657 655 312 
f 761 250 656 
f 8 656 250 
f 655 657 528 
f 281 528 657 
f 886 658 256 
f 956 256 658 
f 53 659 343 
f 823 335 615 
f 431 615 335 
f 927 90 278 
f 58 278 90 
f 319 660 534 
f 877 534 660 
f 323 195 537 
f 934 413 661 
f 544 661 413 
f 910 584 662 
f 219 662 584 
f 167 430 663 
f 618 252 125 
f 105 664 5 
f 933 5 664 
f 846 448 665 
f 841 665 448 
f 345 667 666 
f 641 666 667 
f 852 668 465 
f 590 670 471 
f 761 671 517 
f 661 517 671 
f 495 183 507 
f 856 463 672 
f 291 672 463 
f 509 673 608 
f 873 674 610 
f 754 610 674 
f 978 676 675 
f 783 675 676 
f 249 376 8 
f 479 678 677 
f 946 677 678 
f 434 640 679 
f 609 680 278 
f 429 682 681 
f 810 681 682 
f 98 439 683 
f 292 602 531 
f 592 685 684 
f 670 684 685 
f 909 686 83 
f 624 396 687 
f 988 687 396 
f 290 689 688 
f 192 688 689 
f 639 619 253 
f 589 691 690 
f 531 690 691 
f 46 112 692 
f 580 578 246 
f 864 636 638 
f 855 693 692 
f 46 692 693 
f 909 694 181 
f 2 632 695 
f 419 696 430 
f 696 697 304 
f 22 591 37 
f 270 536 498 
f 982 498 536 
f 3 698 190 
f 876 190 698 
f 704 67 699 
f 897 699 67 
f 992 700 310 
f 266 310 700 
f 869 283 321 
f 232 542 285 
f 117 565 601 
f 574 702 701 
f 724 701 702 
f 171 57 703 
f 295 703 57 
f 724 702 169 
f 807 68 704 
f 58 90 705 
f 516 706 486 
f 986 34 707 
f 380 707 34 
f 802 709 547 
f 393 547 709 
f 124 647 398 
f 899 362 80 
f 860 710 92 
f 1001 92 710 
f 620 207 206 
f 790 661 671 
f 755 712 711 
f 526 711 712 
f 411 416 74 
f 782 74 416 
f 871 713 477 
f 341 477 713 
f 459 715 257 
f 603 716 221 
f 860 628 653 
f 827 653 628 
f 638 717 349 
f 510 719 718 
f 518 718 719 
f 375 721 720 
f 606 720 721 
f 693 469 13 
f 596 19 332 
f 947 722 111 
f 626 111 722 
f 578 580 723 
f 169 483 724 
f 642 724 483 
f 898 539 725 
f 885 725 539 
f 167 726 430 
f 419 430 726 
f 415 160 727 
f 404 337 728 
f 685 1 670 
f 472 670 1 
f 409 286 729 
f 589 730 691 
f 406 691 730 
f 120 564 10 
f 927 277 90 
f 160 374 651 
f 905 731 31 
f 123 52 193 
f 796 193 52 
f 247 549 732 
f 255 732 549 
f 215 734 733 
f 953 733 734 
f 303 687 383 
f 988 383 687 
f 486 19 596 
f 948 605 65 
f 484 251 736 
f 529 281 737 
f 341 713 738 
f 837 738 713 
f 714 30 78 
f 813 234 739 
f 204 741 740 
f 840 740 741 
f 268 585 27 
f 279 496 362 
f 945 300 276 
f 495 743 742 
f 17 742 743 
f 813 745 744 
f 967 744 745 
f 338 438 701 
f 912 701 438 
f 814 614 743 
f 18 743 614 
f 933 62 5 
f 129 166 746 
f 579 655 662 
f 151 662 655 
f 868 233 747 
f 424 748 107 
f 358 107 748 
f 333 749 274 
f 55 274 749 
f 74 536 270 
f 769 750 365 
f 203 365 750 
f 771 563 751 
f 529 751 563 
f 494 173 752 
f 935 753 630 
f 624 748 424 
f 932 754 674 
f 824 532 443 
f 450 213 482 
f 973 755 711 
f 996 235 756 
f 103 756 235 
f 987 757 33 
f 969 758 211 
f 790 671 110 
f 761 110 671 
f 833 55 749 
f 768 196 759 
f 901 759 196 
f 958 280 760 
f 783 760 280 
f 485 110 761 
f 359 762 628 
f 894 643 469 
f 470 128 123 
f 52 123 128 
f 159 461 191 
f 7 720 675 
f 938 675 720 
f 893 452 763 
f 457 763 452 
f 558 765 764 
f 786 764 765 
f 648 655 579 
f 663 236 746 
f 146 767 766 
f 895 766 767 
f 998 196 768 
f 800 770 84 
f 563 771 150 
f 888 126 772 
f 763 465 721 
f 566 774 773 
f 143 773 774 
f 839 602 775 
f 221 775 602 
f 853 776 395 
f 793 395 776 
f 284 339 391 
f 862 415 727 
f 142 777 148 
f 900 148 777 
f 215 733 329 
f 478 329 733 
f 665 778 524 
f 651 524 778 
f 489 779 167 
f 726 167 779 
f 825 357 780 
f 858 780 357 
f 912 438 554 
f 475 554 438 
f 895 572 541 
f 428 620 206 
f 7 675 783 
f 501 138 717 
f 867 785 784 
f 772 784 785 
f 516 548 706 
f 843 25 511 
f 347 108 786 
f 344 436 402 
f 788 402 436 
f 351 234 787 
f 813 787 234 
f 174 585 118 
f 332 788 436 
f 843 789 95 
f 803 790 645 
f 81 99 296 
f 883 792 791 
f 473 791 792 
f 200 485 656 
f 761 656 485 
f 940 793 776 
f 58 609 278 
f 951 794 331 
f 821 373 545 
f 891 634 4 
f 390 364 795 
f 990 584 667 
f 910 667 584 
f 797 796 595 
f 970 797 595 
f 848 326 729 
f 863 729 326 
f 436 344 659 
f 1000 799 798 
f 303 798 799 
f 817 432 5 
f 105 5 432 
f 970 595 800 
f 995 800 595 
f 369 802 801 
f 941 801 802 
f 834 488 736 
f 464 668 352 
f 818 352 668 
f 85 770 293 
f 952 293 770 
f 961 526 243 
f 408 243 526 
f 934 790 803 
f 470 543 128 
f 426 734 215 
f 936 716 603 
f 977 805 804 
f 873 804 805 
f 877 777 35 
f 928 806 104 
f 172 449 176 
f 354 621 224 
f 802 369 760 
f 958 760 369 
f 22 152 325 
f 581 325 152 
f 829 480 164 
f 799 624 687 
f 886 223 658 
f 973 658 223 
f 68 807 149 
f 426 215 758 
f 124 251 586 
f 79 586 251 
f 999 660 561 
f 733 808 478 
f 853 781 809 
f 611 809 781 
f 869 321 751 
f 820 751 321 
f 643 583 210 
f 862 630 415 
f 685 592 100 
f 421 622 87 
f 505 87 622 
f 629 351 787 
f 682 782 810 
f 416 810 782 
f 33 812 811 
f 502 811 812 
f 757 745 813 
f 691 309 531 
f 292 531 309 
f 507 556 814 
f 125 815 253 
f 458 608 59 
f 552 816 36 
f 6 499 817 
f 490 817 499 
f 646 392 637 
f 48 819 818 
f 838 818 819 
f 612 617 177 
f 493 177 617 
f 872 820 321 
f 871 477 808 
f 246 69 580 
f 933 492 62 
f 559 821 497 
f 545 497 821 
f 619 678 479 
f 9 823 822 
f 962 822 823 
f 374 414 824 
f 378 824 414 
f 591 594 468 
f 301 330 122 
f 878 122 330 
f 11 826 825 
f 357 825 826 
f 744 827 629 
f 686 828 89 
f 554 475 829 
f 40 84 551 
f 698 242 113 
f 831 399 630 
f 935 630 399 
f 575 830 572 
f 19 519 131 
f 850 131 519 
f 600 712 755 
f 862 832 831 
f 453 831 832 
f 795 773 833 
f 945 833 773 
f 728 488 834 
f 305 598 835 
f 804 835 598 
f 292 309 266 
f 503 837 836 
f 838 836 837 
f 920 353 838 
f 818 838 353 
f 426 409 734 
f 863 734 409 
f 389 204 740 
f 827 102 653 
f 930 839 265 
f 775 265 839 
f 936 569 716 
f 114 716 569 
f 891 189 840 
f 238 840 189 
f 596 515 486 
f 939 472 1 
f 36 611 552 
f 451 552 611 
f 791 473 228 
f 489 163 842 
f 157 842 163 
f 718 843 510 
f 633 845 844 
f 926 844 845 
f 771 751 820 
f 631 680 609 
f 943 448 846 
f 998 768 348 
f 76 348 768 
f 141 327 848 
f 418 768 759 
f 798 302 364 
f 914 707 719 
f 875 719 707 
f 411 74 270 
f 131 850 849 
f 180 849 850 
f 972 120 822 
f 10 822 120 
f 444 372 479 
f 744 787 813 
f 920 845 633 
f 924 851 726 
f 419 726 851 
f 879 155 315 
f 573 315 155 
f 219 562 320 
f 983 797 674 
f 932 674 797 
f 884 248 769 
f 750 769 248 
f 522 462 254 
f 427 254 462 
f 457 136 852 
f 809 449 853 
f 172 853 449 
f 672 290 688 
f 855 469 693 
f 262 311 854 
f 178 854 311 
f 460 854 856 
f 178 856 854 
f 110 644 790 
f 276 481 857 
f 476 857 481 
f 275 780 858 
f 142 587 380 
f 384 521 440 
f 454 440 521 
f 467 113 859 
f 710 860 653 
f 786 107 358 
f 44 558 764 
f 893 274 452 
f 849 180 694 
f 378 414 753 
f 623 418 861 
f 759 861 418 
f 729 863 409 
f 440 454 683 
f 832 683 454 
f 142 380 34 
f 907 30 864 
f 714 864 30 
f 764 786 307 
f 971 780 144 
f 725 791 129 
f 199 705 91 
f 831 453 399 
f 892 546 498 
f 841 809 61 
f 303 799 687 
f 857 476 54 
f 520 322 283 
f 823 9 577 
f 864 284 636 
f 966 683 832 
f 591 866 865 
f 117 865 866 
f 301 599 697 
f 936 867 784 
f 523 397 625 
f 747 297 868 
f 306 44 764 
f 619 639 678 
f 668 48 818 
f 988 267 383 
f 737 339 869 
f 283 869 339 
f 902 732 870 
f 256 870 732 
f 269 516 401 
f 837 713 871 
f 322 154 872 
f 804 873 540 
f 610 540 873 
f 909 874 327 
f 368 327 874 
f 885 540 317 
f 610 317 540 
f 740 840 237 
f 127 289 53 
f 373 524 651 
f 985 405 875 
f 238 190 876 
f 999 877 660 
f 884 769 681 
f 429 681 769 
f 736 618 371 
f 527 855 140 
f 692 140 855 
f 730 228 406 
f 924 726 779 
f 438 338 597 
f 567 450 504 
f 386 504 450 
f 165 275 858 
f 505 386 87 
f 893 376 249 
f 272 297 747 
f 931 50 60 
f 148 587 142 
f 21 117 866 
f 679 880 115 
f 217 882 881 
f 270 881 882 
f 672 688 460 
f 432 817 156 
f 490 156 817 
f 792 883 133 
f 698 467 876 
f 908 346 601 
f 117 601 346 
f 807 704 291 
f 392 241 500 
f 681 810 884 
f 417 884 810 
f 227 886 255 
f 431 335 756 
f 996 756 335 
f 921 328 887 
f 64 88 828 
f 995 288 888 
f 814 495 507 
f 765 347 786 
f 620 533 366 
f 947 174 118 
f 616 378 753 
f 919 509 313 
f 458 313 509 
f 620 428 533 
f 352 890 889 
f 981 889 890 
f 549 248 884 
f 240 657 313 
f 545 442 538 
f 265 775 462 
f 427 462 775 
f 390 833 749 
f 431 806 615 
f 4 189 891 
f 982 28 892 
f 801 892 28 
f 529 737 869 
f 763 376 893 
f 960 643 894 
f 948 562 218 
f 851 816 49 
f 552 49 816 
f 760 709 802 
f 421 101 12 
f 689 897 896 
f 17 896 897 
f 69 246 607 
f 846 665 525 
f 828 686 181 
f 909 181 686 
f 576 25 95 
f 843 95 25 
f 236 663 304 
f 42 792 133 
f 167 663 746 
f 566 773 795 
f 830 755 571 
f 973 571 755 
f 27 494 268 
f 543 435 659 
f 305 898 236 
f 520 714 168 
f 980 712 94 
f 939 1 695 
f 555 782 682 
f 927 899 277 
f 593 865 346 
f 117 346 865 
f 891 750 634 
f 657 240 903 
f 974 904 812 
f 412 812 904 
f 961 711 526 
f 162 690 530 
f 995 888 785 
f 772 785 888 
f 731 905 188 
f 707 380 906 
f 776 853 51 
f 172 51 853 
f 738 503 445 
f 328 147 212 
f 835 804 540 
f 555 75 782 
f 175 306 847 
f 924 499 816 
f 403 834 372 
f 641 667 910 
f 839 530 602 
f 177 911 612 
f 830 576 600 
f 95 600 576 
f 523 625 861 
f 421 86 101 
f 443 374 824 
f 965 573 912 
f 975 821 560 
f 987 913 745 
f 294 745 913 
f 237 388 740 
f 987 33 811 
f 986 707 914 
f 759 915 861 
f 523 861 915 
f 992 310 42 
f 275 165 480 
f 824 378 334 
f 579 662 219 
f 935 647 188 
f 361 99 81 
f 896 568 93 
f 359 93 568 
f 874 909 83 
f 214 916 482 
f 959 482 916 
f 788 917 286 
f 553 776 51 
f 441 99 918 
f 361 918 99 
f 261 665 841 
f 739 757 813 
f 22 866 591 
f 648 508 919 
f 646 284 391 
f 887 922 921 
f 512 921 922 
f 398 923 125 
f 815 125 923 
f 720 606 621 
f 225 621 606 
f 925 184 669 
f 297 229 442 
f 837 871 920 
f 845 920 871 
f 113 467 698 
f 930 157 162 
f 694 327 141 
f 915 759 901 
f 701 912 574 
f 458 509 608 
f 672 460 856 
f 599 301 122 
f 272 229 297 
f 327 694 909 
f 872 308 37 
f 22 37 308 
f 487 706 635 
f 184 635 706 
f 839 162 530 
f 64 925 669 
f 306 324 44 
f 901 230 915 
f 367 844 926 
f 899 927 279 
f 806 928 360 
f 762 360 928 
f 644 175 847 
f 875 518 719 
f 928 351 762 
f 629 762 351 
f 205 323 929 
f 537 929 323 
f 918 2 441 
f 814 557 614 
f 962 614 557 
f 951 881 401 
f 269 401 881 
f 433 157 930 
f 587 148 807 
f 739 32 757 
f 696 50 931 
f 842 156 490 
f 754 932 40 
f 970 40 932 
f 821 525 373 
f 127 53 343 
f 1000 934 803 
f 484 79 251 
f 641 910 150 
f 399 647 935 
f 26 535 511 
f 979 511 535 
f 949 581 152 
f 952 867 936 
f 70 21 325 
f 849 694 132 
f 702 574 937 
f 978 675 938 
f 985 379 856 
f 985 906 379 
f 645 847 358 
f 967 102 827 
f 56 899 80 
f 471 381 535 
f 295 57 81 
f 903 281 657 
f 446 369 801 
f 820 38 771 
f 631 939 695 
f 942 828 181 
f 689 699 897 
f 916 267 654 
f 983 873 805 
f 826 811 502 
f 984 241 392 
f 791 725 883 
f 885 883 725 
f 892 941 546 
f 548 546 941 
f 961 613 870 
f 902 870 613 
f 326 367 926 
f 803 748 624 
f 238 876 588 
f 341 922 887 
f 784 772 570 
f 147 570 772 
f 828 942 64 
f 160 415 374 
f 669 88 64 
f 911 943 560 
f 846 560 943 
f 954 434 459 
f 460 944 854 
f 230 854 944 
f 276 857 945 
f 55 945 857 
f 640 946 678 
f 119 222 722 
f 719 510 914 
f 979 914 510 
f 645 748 803 
f 146 766 202 
f 512 340 422 
f 959 652 387 
f 952 603 293 
f 130 898 725 
f 1002 165 858 
f 398 453 923 
f 1000 798 363 
f 990 948 218 
f 581 949 723 
f 260 723 949 
f 573 950 315 
f 697 598 305 
f 638 349 907 
f 331 73 137 
f 26 471 535 
f 981 224 889 
f 390 795 833 
f 400 794 951 
f 699 689 290 
f 783 280 7 
f 159 944 461 
f 439 664 384 
f 835 898 305 
f 868 16 233 
f 926 845 953 
f 808 953 845 
f 1002 950 165 
f 965 165 950 
f 258 422 954 
f 946 954 422 
f 223 626 722 
f 589 690 163 
f 907 864 638 
f 166 228 730 
f 497 538 703 
f 789 718 583 
f 289 126 888 
f 603 952 936 
f 943 911 177 
f 450 302 213 
f 217 793 955 
f 940 955 793 
f 863 326 926 
f 496 279 680 
f 711 956 658 
f 937 155 702 
f 285 957 222 
f 945 55 833 
f 964 959 916 
f 642 338 724 
f 701 724 338 
f 632 496 680 
f 708 627 161 
f 583 643 960 
f 992 42 133 
f 46 693 491 
f 626 223 886 
f 635 184 925 
f 259 739 235 
f 704 699 290 
f 711 961 956 
f 870 956 961 
f 763 721 376 
f 613 3 902 
f 968 673 508 
f 119 722 947 
f 977 194 805 
f 941 892 801 
f 544 390 749 
f 266 700 963 
f 550 963 700 
f 1001 964 191 
f 654 191 964 
f 611 781 451 
f 950 573 965 
f 727 966 862 
f 832 862 966 
f 745 294 967 
f 257 954 459 
f 869 751 529 
f 382 968 508 
f 47 404 455 
f 874 83 354 
f 455 836 47 
f 819 47 836 
f 464 352 889 
f 1001 710 959 
f 652 959 710 
f 541 957 285 
f 445 340 738 
f 884 417 264 
f 343 969 127 
f 212 127 969 
f 17 568 896 
f 891 840 741 
f 978 82 686 
f 96 918 361 
f 84 970 800 
f 689 896 192 
f 347 76 108 
f 594 591 865 
f 259 32 739 
f 385 664 105 
f 953 734 926 
f 863 926 734 
f 420 971 144 
f 962 972 822 
f 405 179 13 
f 957 973 223 
f 356 826 502 
f 655 528 151 
f 967 827 744 
f 350 318 550 
f 39 550 318 
f 79 731 586 
f 871 808 845 
f 187 616 753 
f 521 815 923 
f 350 550 700 
f 168 154 322 
f 670 590 684 
f 217 955 882 
f 410 882 955 
f 260 904 974 
f 936 784 569 
f 617 202 493 
f 940 776 553 
f 557 972 962 
f 878 794 400 
f 522 254 815 
f 187 753 935 
f 991 770 800 
f 411 270 882 
f 560 846 975 
f 525 975 846 
f 91 277 170 
f 381 319 534 
f 885 976 134 
f 974 812 33 
f 260 949 904 
f 153 904 949 
f 921 342 328 
f 598 977 804 
f 933 439 98 
f 676 978 89 
f 686 89 978 
f 885 134 883 
f 413 390 544 
f 939 631 968 
f 673 968 631 
f 994 427 220 
f 825 971 11 
f 296 100 201 
f 145 201 100 
f 956 870 256 
f 766 895 542 
f 216 331 137 
f 514 451 370 
f 919 312 648 
f 187 905 616 
f 738 837 503 
f 585 174 24 
f 894 527 980 
f 630 862 831 
f 906 875 707 
f 419 50 696 
f 324 447 195 
f 783 709 760 
f 216 951 331 
f 982 537 29 
f 844 981 633 
f 890 633 981 
f 968 472 939 
f 892 498 982 
f 194 977 599 
f 742 897 67 
f 172 176 752 
f 879 315 412 
f 175 447 324 
f 472 968 382 
f 46 491 197 
f 714 520 864 
f 495 814 743 
f 226 410 955 
f 493 752 177 
f 860 93 359 
f 805 193 983 
f 796 983 193 
f 991 867 952 
f 706 547 184 
f 742 17 897 
f 877 273 534 
f 970 932 797 
f 789 583 960 
f 554 965 912 
f 898 835 539 
f 368 874 355 
f 330 794 878 
f 825 780 971 
f 696 931 72 
f 85 963 551 
f 626 886 227 
f 718 789 843 
f 340 445 423 
f 940 111 226 
f 604 182 735 
f 178 985 856 
f 914 979 986 
f 273 986 979 
f 622 143 774 
f 594 666 641 
f 767 474 572 
f 575 572 474 
f 650 70 607 
f 267 988 397 
f 481 829 476 
f 168 322 520 
f 400 515 989 
f 435 989 515 
f 763 457 465 
f 852 465 457 
f 394 793 217 
f 605 948 990 
f 946 422 677 
f 433 930 106 
f 952 770 991 
f 976 350 992 
f 700 992 350 
f 98 683 966 
f 427 994 993 
f 679 993 994 
f 841 449 809 
f 600 755 830 
f 395 781 853 
f 180 63 942 
f 685 441 1 
f 900 506 183 
f 334 532 824 
f 983 674 873 
f 114 880 220 
f 994 220 880 
f 924 779 490 
f 677 444 479 
f 582 393 676 
f 783 676 393 
f 205 43 323 
f 999 506 900 
f 642 483 488 
f 819 836 838 
f 84 40 970 
f 72 697 696 
f 535 273 979 
f 872 37 820 
f 808 733 953 
f 987 745 757 
f 933 664 439 
f 930 162 839 
f 893 333 274 
f 879 153 308 
f 730 589 166 
f 736 371 834 
f 906 985 875 
f 375 720 7 
f 720 621 938 
f 336 997 996 
f 259 996 997 
f 555 682 428 
f 217 370 394 
f 508 649 382 
f 783 393 709 
f 1002 356 314 
f 400 989 878 
f 470 878 989 
f 855 894 469 
f 381 649 319 
f 125 253 618 
f 924 816 851 
f 11 913 826 
f 811 826 913 
f 427 993 254 
f 976 885 317 
f 571 973 957 
f 790 934 661 
f 75 555 929 
f 821 975 525 
f 880 679 994 
f 765 388 347 
f 345 908 316 
f 355 224 367 
f 981 367 224 
f 917 788 20 
f 557 604 735 
f 991 785 867 
f 960 980 94 
f 109 958 186 
f 12 971 420 
f 891 741 203 
f 631 609 673 
f 650 565 116 
f 561 948 65 
f 173 494 27 
f 324 306 175 
f 466 998 348 
f 795 567 504 
f 654 964 916 
f 471 26 590 
f 348 388 588 
f 541 571 957 
f 593 345 666 
f 114 569 715 
f 408 527 140 
f 806 18 614 
f 750 891 203 
f 112 45 859 
f 196 859 45 
f 708 597 337 
f 796 797 983 
f 287 848 729 
f 924 490 499 
f 47 627 404 
f 807 291 587 
f 642 488 728 
f 989 543 470 
f 279 362 899 
f 980 960 894 
f 512 922 340 
f 578 997 336 
f 850 519 63 
f 946 640 434 
f 557 735 972 
f 120 972 735 
f 981 844 367 
f 875 14 518 
f 75 929 537 
f 900 777 999 
f 877 999 777 
f 606 464 225 
f 889 225 464 
f 397 159 267 
f 999 561 506 
f 65 506 561 
f 622 774 505 
f 984 391 282 
f 723 997 578 
f 887 329 478 
f 316 667 345 
f 727 97 966 
f 32 259 974 
f 987 811 913 
f 679 639 993 
f 778 492 97 
f 196 998 859 
f 466 859 998 
f 151 910 662 
f 497 545 538 
f 997 723 260 
f 834 403 728 
f 669 582 88 
f 747 199 91 
f 1002 858 357 
f 155 937 573 
f 902 247 732 
f 812 412 314 
f 577 336 823 
f 991 800 995 
f 344 758 969 
f 773 143 945 
f 435 543 989 
f 63 180 850 
f 668 852 161 
f 244 896 93 
f 754 39 318 
f 802 548 941 
f 990 667 316 
f 513 232 118 
f 244 1001 191 
f 955 940 226 
f 1000 363 934 
f 526 712 980 
f 241 984 903 
f 282 903 984 
f 976 992 133 
f 562 660 319 
f 456 403 372 
f 458 240 313 
f 358 748 645 
f 572 895 767 
f 252 618 736 
f 308 152 22 
f 454 521 923 
f 959 964 1001 
f 799 803 624 
f 860 359 628 
f 82 978 938 
f 950 1002 314 
f 954 946 434 
f 333 544 749 
f 231 268 766 
f 216 881 951 
f 527 894 855 
f 787 744 629 
f 920 838 837 
f 567 302 450 
f 716 114 220 
f 778 665 261 
f 823 615 962 
f 65 556 506 
f 244 92 1001 
f 294 913 11 
f 803 799 1000 
f 960 94 789 
f 996 259 235 
f 973 711 658 
f 990 316 605 
f 231 766 542 
f 785 991 995 
