#  wavefront obj file written by the visualization toolkit

mtllib livertumor03.mtl

v 117.53800201416016 118.95800018310547 85.65679931640625
v 117.17400360107422 119.47200012207031 85.15740203857422
v 107.80400085449219 118.76200103759766 99.54429626464844
v 107.8949966430664 118.79299926757812 97.95149993896484
v 128.59500122070312 121.83499908447266 89.66590118408203
v 129.47300720214844 122.20999908447266 91.06410217285156
v 113.66000366210938 114.47899627685547 92.39510345458984
v 114.57499694824219 113.34400177001953 92.7699966430664
v 109.73999786376953 118.00499725341797 92.85359954833984
v 110.14099884033203 119.51200103759766 92.45169830322266
v 125.48799896240234 133.4980010986328 91.26860046386719
v 126.64199829101562 132.97900390625 91.86740112304688
v 110.98400115966797 120.4280014038086 102.4000015258789
v 110.73500061035156 121.33200073242188 102.4000015258789
v 116.09100341796875 119.4729995727539 85.65390014648438
v 116.00700378417969 120.26300048828125 85.07599639892578
v 124.5739974975586 126.77100372314453 105.0989990234375
v 124.00199890136719 126.77400207519531 106.11399841308594
v 116.58799743652344 119.7750015258789 85.12439727783203
v 126.93599700927734 132.82000732421875 97.73380279541016
v 126.46600341796875 133.83799743652344 96.7697982788086
v 116.7959976196289 119.14299774169922 85.64830017089844
v 117.74600219726562 119.39199829101562 85.1250991821289
v 117.10900115966797 120.19999694824219 84.87419891357422
v 117.61399841308594 119.88300323486328 84.89189910888672
v 118.39299774169922 119.22200012207031 85.47969818115234
v 118.16500091552734 119.7979965209961 84.9135971069336
v 112.49400329589844 118.3499984741211 103.12699890136719
v 111.01000213623047 117.4729995727539 102.49500274658203
v 126.41600036621094 131.30799865722656 90.11920166015625
v 127.38800048828125 130.6840057373047 90.66699981689453
v 117.64600372314453 130.34100341796875 84.98030090332031
v 117.09300231933594 129.822998046875 84.85579681396484
v 122.90799713134766 130.46600341796875 102.16999816894531
v 123.90299987792969 131.2050018310547 101.27400207519531
v 119.75199890136719 133.59300231933594 97.10759735107422
v 121.05500030517578 133.48500061035156 98.36540222167969
v 109.20700073242188 116.5770034790039 94.4977035522461
v 109.8949966430664 116.15299987792969 93.56990051269531
v 122.40799713134766 123.66200256347656 84.82569885253906
v 121.71800231933594 122.8219985961914 84.80000305175781
v 122.80799865722656 122.4489974975586 107.15799713134766
v 121.83300018310547 121.28199768066406 106.60800170898438
v 122.11699676513672 134.1320037841797 93.34220123291016
v 122.99400329589844 134.45599365234375 93.1051025390625
v 124.40899658203125 114.125 92.97209930419922
v 124.26399993896484 113.5530014038086 93.78469848632812
v 111.94000244140625 114.39199829101562 97.89659881591797
v 111.61299896240234 114.40799713134766 96.45919799804688
v 114.91000366210938 121.02100372314453 85.14730072021484
v 115.48600006103516 120.78900146484375 85.02059936523438
v 128.8730010986328 120.44200134277344 90.97209930419922
v 127.52899932861328 120.1969985961914 89.61219787597656
v 128.33399963378906 129.01199340820312 90.9634017944336
v 116.54399871826172 120.36699676513672 84.87650299072266
v 128.093994140625 117.60399627685547 92.53820037841797
v 127.19999694824219 116.77799987792969 92.48100280761719
v 128.8939971923828 118.55799865722656 92.74199676513672
v 114.4469985961914 130.46800231933594 91.03199768066406
v 113.40399932861328 129.73500061035156 90.00530242919922
v 117.85399627685547 120.59500122070312 84.80879974365234
v 118.13600158691406 120.3030014038086 84.8113021850586
v 118.77799987792969 119.8740005493164 85.00669860839844
v 118.65899658203125 120.33999633789062 84.81739807128906
v 119.53600311279297 119.74299621582031 85.49720001220703
v 119.21299743652344 120.31400299072266 84.94519805908203
v 123.8550033569336 131.51199340820312 88.50070190429688
v 125.3030014038086 131.44900512695312 89.4175033569336
v 124.92500305175781 127.7030029296875 102.65899658203125
v 124.44200134277344 129.09800720214844 102.26100158691406
v 116.2030029296875 112.05000305175781 95.20780181884766
v 115.56300354003906 112.25599670410156 95.04940032958984
v 110.12799835205078 115.76300048828125 98.8948974609375
v 110.06099700927734 116.00700378417969 100.72699737548828
v 127.25299835205078 133.13900756835938 96.9613037109375
v 107.45099639892578 120.58799743652344 98.72989654541016
v 107.64800262451172 120.96700286865234 97.89810180664062
v 118.4729995727539 133.41799926757812 91.76110076904297
v 119.23500061035156 133.34300231933594 90.2822036743164
v 116.39900207519531 130.7530059814453 97.83889770507812
v 116.7300033569336 131.4739990234375 96.27429962158203
v 115.25599670410156 120.052001953125 85.64309692382812
v 109.36399841308594 121.66300201416016 95.1541976928711
v 110.0270004272461 123.28299713134766 96.33399963378906
v 117.03099822998047 129.10400390625 84.80229949951172
v 117.40899658203125 123.97699737548828 84.80000305175781
v 117.0250015258789 122.8759994506836 84.80000305175781
v 119.9739990234375 116.0719985961914 103.89099884033203
v 120.38300323486328 118.04299926757812 104.58200073242188
v 107.80000305175781 120.33799743652344 101.30599975585938
v 107.8290023803711 120.89800262451172 101.34300231933594
v 115.96600341796875 120.93399810791016 84.85690307617188
v 116.46099853515625 120.91799926757812 84.8291015625
v 117.04399871826172 120.93599700927734 84.80850219726562
v 119.51699829101562 129.58900451660156 85.15519714355469
v 120.16600036621094 128.64700317382812 85.15409851074219
v 117.5780029296875 120.94100189208984 84.80449676513672
v 110.99199676513672 123.40499877929688 102.37000274658203
v 111.13600158691406 124.44300079345703 102.072998046875
v 110.27300262451172 123.41200256347656 102.16100311279297
v 111.21600341796875 125.07499694824219 100.82499694824219
v 108.44100189208984 121.46199798583984 97.20800018310547
v 109.41600036621094 122.4219970703125 96.9884033203125
v 118.58999633789062 120.86499786376953 84.80000305175781
v 119.21700286865234 120.86599731445312 84.81900024414062
v 125.45500183105469 122.4260025024414 106.33100128173828
v 125.48699951171875 123.34100341796875 106.89800262451172
v 114.11399841308594 114.16699981689453 101.79900360107422
v 113.46099853515625 113.99800109863281 101.18499755859375
v 119.80500030517578 120.66999816894531 85.00379943847656
v 120.56199645996094 120.3270034790039 85.46880340576172
v 114.18099975585938 114.81800079345703 102.39299774169922
v 108.84300231933594 120.74400329589844 94.73739624023438
v 109.7020034790039 121.29900360107422 93.69029998779297
v 111.34200286865234 119.95600128173828 90.7218017578125
v 112.15799713134766 119.97699737548828 88.71109771728516
v 129.26300048828125 128.43699645996094 99.7916030883789
v 128.68800354003906 127.69200134277344 100.56600189208984
v 120.37300109863281 121.25299835205078 84.90499877929688
v 117.64199829101562 133.10000610351562 91.71820068359375
v 118.1719970703125 133.1699981689453 90.5343017578125
v 121.25199890136719 120.57599639892578 85.49800109863281
v 121.10800170898438 121.2750015258789 85.00340270996094
v 129.17300415039062 127.6050033569336 91.36000061035156
v 129.98500061035156 127.33300018310547 93.66719818115234
v 121.82099914550781 120.4729995727539 85.64119720458984
v 121.7030029296875 121.06199645996094 85.11840057373047
v 122.41200256347656 120.47799682617188 85.70179748535156
v 122.2229995727539 120.96199798583984 85.21880340576172
v 125.43699645996094 116.66200256347656 102.42500305175781
v 126.84500122070312 118.30799865722656 102.26000213623047
v 116.5790023803711 124.21700286865234 104.51499938964844
v 114.7969970703125 122.64700317382812 103.7020034790039
v 116.23500061035156 114.88999938964844 91.12429809570312
v 115.34700012207031 116.38099670410156 90.05660247802734
v 127.69300079345703 132.0570068359375 92.77940368652344
v 126.8499984741211 129.46200561523438 100.95600128173828
v 125.10600280761719 130.5959930419922 101.28399658203125
v 114.3479995727539 121.51399993896484 85.14009857177734
v 114.50299835205078 120.73300170898438 85.64969635009766
v 121.2959976196289 132.82200622558594 88.45330047607422
v 122.23200225830078 131.72000122070312 87.64790344238281
v 114.80000305175781 121.81700134277344 84.8844985961914
v 115.33499908447266 121.51899719238281 84.86319732666016
v 125.16000366210938 120.59600067138672 105.22799682617188
v 125.1500015258789 121.50299835205078 105.83799743652344
v 115.87000274658203 121.44200134277344 84.82420349121094
v 116.44400024414062 121.49199676513672 84.80249786376953
v 117.2229995727539 121.73799896240234 84.80000305175781
v 117.87200164794922 121.64299774169922 84.80000305175781
v 108.94400024414062 117.11599731445312 98.03800201416016
v 109.0739974975586 116.77200317382812 96.1615982055664
v 118.33999633789062 121.33200073242188 84.80000305175781
v 124.24700164794922 114.125 99.97129821777344
v 123.84500122070312 114.13300323486328 101.31999969482422
v 119.1500015258789 121.45600128173828 84.80000305175781
v 119.77899932861328 121.39600372314453 84.81780242919922
v 111.50199890136719 125.94400024414062 90.26349639892578
v 111.69499969482422 126.9540023803711 89.08619689941406
v 120.13999938964844 113.43299865722656 92.21880340576172
v 119.13300323486328 114.00700378417969 91.60749816894531
v 130.76400756835938 125.68000030517578 97.8280029296875
v 130.75900268554688 125.88400268554688 95.9623031616211
v 120.08200073242188 112.66999816894531 92.7394027709961
v 111.98300170898438 121.48899841308594 102.40799713134766
v 112.08000183105469 114.75900268554688 92.83480072021484
v 113.41400146484375 128.06399536132812 92.42559814453125
v 114.07599639892578 128.0659942626953 96.56159973144531
v 122.16400146484375 121.87699890136719 84.8760986328125
v 122.4020004272461 121.42400360107422 84.99490356445312
v 123.03800201416016 121.06999969482422 85.53890228271484
v 108.13999938964844 118.69300079345703 101.73999786376953
v 107.85199737548828 118.96299743652344 101.072998046875
v 118.2020034790039 133.03799438476562 94.05989837646484
v 116.70800018310547 132.4010009765625 92.0176010131836
v 121.78199768066406 112.58899688720703 96.13269805908203
v 122.31999969482422 113.11399841308594 98.27079772949219
v 130.48300170898438 122.46600341796875 98.50070190429688
v 129.81399536132812 121.46700286865234 99.48079681396484
v 123.13899993896484 123.88700103759766 107.19999694824219
v 113.12300109863281 118.91600036621094 88.3677978515625
v 113.25299835205078 119.56300354003906 87.3511962890625
v 116.64800262451172 113.5479965209961 101.85399627685547
v 116.78299713134766 114.23600006103516 102.49800109863281
v 117.89900207519531 119.14299774169922 104.20600128173828
v 116.81500244140625 116.3030014038086 103.96800231933594
v 117.7509994506836 129.61199951171875 84.83920288085938
v 113.81999969482422 122.00700378417969 85.11519622802734
v 113.23699951171875 121.78800201416016 85.65399932861328
v 107.66999816894531 120.86900329589844 100.09600067138672
v 107.77400207519531 121.34200286865234 98.98079681396484
v 113.88300323486328 121.35600280761719 85.60749816894531
v 109.60700225830078 123.29900360107422 98.62049865722656
v 114.33999633789062 122.10399627685547 84.89289855957031
v 125.30899810791016 122.5989990234375 86.54730224609375
v 125.20099639892578 121.302001953125 87.10160064697266
v 125.20899963378906 123.58200073242188 86.16609954833984
v 122.38700103759766 125.56600189208984 107.19999694824219
v 121.96399688720703 124.63500213623047 107.19999694824219
v 115.31500244140625 122.30899810791016 84.80670166015625
v 115.7959976196289 122.02200317382812 84.8030014038086
v 116.37699890136719 122.08100128173828 84.80000305175781
v 116.94999694824219 122.09200286865234 84.80000305175781
v 109.37799835205078 118.71399688720703 93.01930236816406
v 115.03299713134766 129.3560028076172 95.7322006225586
v 114.82499694824219 129.88499450683594 92.70600128173828
v 107.66600036621094 119.26100158691406 98.1676025390625
v 107.59300231933594 119.37200164794922 99.76260375976562
v 110.33000183105469 122.48500061035156 102.4000015258789
v 109.68699645996094 122.58399963378906 102.3489990234375
v 107.76799774169922 119.69499969482422 101.31300354003906
v 128.1510009765625 119.01799774169922 91.3313980102539
v 129.82699584960938 124.5790023803711 100.12999725341797
v 129.7570037841797 122.88500213623047 100.25199890136719
v 128.6179962158203 122.26100158691406 102.32599639892578
v 128.7010040283203 120.99299621582031 101.97000122070312
v 130.10400390625 120.9749984741211 97.60430145263672
v 128.9149932861328 119.21600341796875 98.87830352783203
v 111.66999816894531 122.73400115966797 102.4000015258789
v 118.85399627685547 122.0250015258789 84.80000305175781
v 119.69599914550781 122.05599975585938 84.80000305175781
v 120.35099792480469 122.01799774169922 84.80349731445312
v 113.35700225830078 113.38800048828125 97.38569641113281
v 113.41799926757812 112.89399719238281 95.22360229492188
v 120.97899627685547 122.05000305175781 84.81749725341797
v 111.28600311279297 118.1500015258789 91.87339782714844
v 112.48699951171875 118.66000366210938 89.82859802246094
v 121.75800323486328 122.26799774169922 84.81600189208984
v 112.98600006103516 113.03800201416016 94.06690216064453
v 113.15799713134766 113.46299743652344 93.1272964477539
v 128.63900756835938 123.75599670410156 89.393798828125
v 117.53299713134766 127.15599822998047 84.80000305175781
v 118.96099853515625 127.13300323486328 84.83809661865234
v 113.05799865722656 120.83499908447266 103.40799713134766
v 112.20700073242188 120.85900115966797 102.5770034790039
v 111.4739990234375 120.9219970703125 89.67430114746094
v 110.91200256347656 120.92500305175781 91.30850219726562
v 124.02100372314453 134.49400329589844 96.58529663085938
v 123.27400207519531 133.9600067138672 97.6364974975586
v 112.89199829101562 116.36399841308594 102.5719985961914
v 111.7750015258789 116.24199676513672 102.37100219726562
v 111.10700225830078 115.23100280761719 93.08869934082031
v 123.04900360107422 130.6020050048828 87.20159912109375
v 123.37300109863281 129.6540069580078 86.85679626464844
v 114.97200012207031 126.88500213623047 102.27400207519531
v 115.69300079345703 128.18800354003906 101.98799896240234
v 116.61100006103516 124.49199676513672 84.80000305175781
v 120.03299713134766 117.8010025024414 87.51339721679688
v 120.80400085449219 117.03199768066406 89.13790130615234
v 124.18699645996094 121.82599639892578 85.99530029296875
v 123.2760009765625 122.08499908447266 85.15480041503906
v 112.8550033569336 122.2699966430664 85.63800048828125
v 113.2979965209961 122.19999694824219 85.23899841308594
v 113.17500305175781 122.71499633789062 85.13999938964844
v 113.67500305175781 122.59600067138672 84.93090057373047
v 114.21199798583984 122.59100341796875 84.84459686279297
v 114.75299835205078 122.53800201416016 84.8113021850586
v 121.8219985961914 117.44499969482422 104.46900177001953
v 117.14399719238281 112.43299865722656 97.54850006103516
v 116.24800109863281 112.51200103759766 97.3270034790039
v 116.01399993896484 122.80599975585938 84.80000305175781
v 111.43199920654297 114.84500122070312 99.7583999633789
v 117.56700134277344 122.54100036621094 84.80000305175781
v 124.18900299072266 116.21700286865234 103.0790023803711
v 118.24600219726562 122.46199798583984 84.80000305175781
v 119.8239974975586 112.68900299072266 98.6281967163086
v 119.35099792480469 112.16899871826172 96.439697265625
v 129.00799560546875 125.68299865722656 100.5790023803711
v 125.86900329589844 121.28800201416016 105.41300201416016
v 130.2530059814453 127.84500122070312 96.3468017578125
v 113.9000015258789 112.9540023803711 96.53079986572266
v 125.96499633789062 129.91799926757812 89.00029754638672
v 119.40599822998047 122.93199920654297 84.80000305175781
v 120.24099731445312 122.63500213623047 84.80000305175781
v 121.12899780273438 122.9520034790039 84.80020141601562
v 121.17400360107422 119.9739990234375 105.66500091552734
v 120.16400146484375 120.4209976196289 105.68299865722656
v 120.74600219726562 126.09400177001953 107.19999694824219
v 121.39299774169922 126.91000366210938 107.14299774169922
v 122.7249984741211 115.00399780273438 102.62300109863281
v 121.25 114.14800262451172 102.27899932861328
v 111.26200103759766 124.81400299072266 89.17870330810547
v 111.3239974975586 126.0199966430664 88.5447006225586
v 108.76100158691406 119.09200286865234 102.34700012207031
v 122.89299774169922 112.98200225830078 96.46070098876953
v 123.35700225830078 122.81900024414062 84.97260284423828
v 118.26699829101562 123.40699768066406 84.80000305175781
v 124.61900329589844 122.65399932861328 107.14099884033203
v 120.875 112.16500091552734 95.03700256347656
v 120.93399810791016 112.51399993896484 96.91169738769531
v 123.35700225830078 113.88999938964844 101.3280029296875
v 122.802001953125 113.73999786376953 101.72000122070312
v 124.83799743652344 127.04399871826172 103.79900360107422
v 112.69200134277344 123.01200103759766 85.53379821777344
v 124.01000213623047 120.58699798583984 86.64099884033203
v 123.72699737548828 119.49600219726562 87.33679962158203
v 113.17400360107422 123.5250015258789 84.98509979248047
v 113.62999725341797 123.19000244140625 84.86869812011719
v 114.1709976196289 123.14099884033203 84.81330108642578
v 114.72799682617188 123.14099884033203 84.8019027709961
v 115.302001953125 123.0790023803711 84.80000305175781
v 123.63400268554688 129.80799865722656 102.21099853515625
v 113.52999877929688 117.15299987792969 103.37799835205078
v 113.36000061035156 118.97599792480469 103.84300231933594
v 112.93900299072266 121.83100128173828 102.66100311279297
v 112.99299621582031 123.28099822998047 102.43599700927734
v 129.08900451660156 126.47200012207031 90.81719970703125
v 113.71900177001953 129.98899841308594 88.40010070800781
v 114.09300231933594 129.6790008544922 86.56410217285156
v 112.11799621582031 113.62100219726562 95.314697265625
v 112.69999694824219 113.58899688720703 96.56079864501953
v 128.47500610351562 117.31199645996094 93.86229705810547
v 118.93399810791016 114.15299987792969 102.43000030517578
v 117.88600158691406 113.79299926757812 102.21199798583984
v 121.57599639892578 113.03700256347656 99.56300354003906
v 128.08299255371094 129.21400451660156 100.2490005493164
v 110.427001953125 115.35399627685547 94.15869903564453
v 109.73300170898438 123.29100036621094 101.68199920654297
v 129.00999450683594 118.16000366210938 95.94889831542969
v 128.00599670410156 116.78399658203125 95.70079803466797
v 112.57099914550781 114.0739974975586 98.6259994506836
v 126.01399993896484 132.3769989013672 90.6626968383789
v 118.4209976196289 120.77799987792969 104.96900177001953
v 124.6780014038086 134.8719940185547 95.40039825439453
v 125.24099731445312 134.6199951171875 96.56680297851562
v 109.76899719238281 121.73699951171875 102.4000015258789
v 108.85900115966797 121.10600280761719 102.36599731445312
v 125.64399719238281 127.97599792480469 87.80390167236328
v 126.87899780273438 128.1009979248047 88.84940338134766
v 120.64600372314453 123.6259994506836 84.80020141601562
v 113.52799987792969 126.46800231933594 84.80000305175781
v 114.13700103759766 126.83899688720703 84.80000305175781
v 117.20600128173828 125.80799865722656 84.80000305175781
v 110.01799774169922 118.68299865722656 102.4000015258789
v 109.08300018310547 117.98500061035156 102.1760025024414
v 123.33499908447266 126.73699951171875 85.39710235595703
v 123.76000213623047 127.5250015258789 86.15950012207031
v 114.36399841308594 126.197998046875 84.80000305175781
v 115.21900177001953 126.75900268554688 84.80000305175781
v 121.68199920654297 128.9759979248047 103.51300048828125
v 122.57099914550781 128.406005859375 103.6050033569336
v 115.85600280761719 126.7300033569336 84.80000305175781
v 122.59700012207031 122.65399932861328 84.81060028076172
v 122.66000366210938 113.73200225830078 92.77670288085938
v 123.23699951171875 113.29900360107422 93.16190338134766
v 122.55899810791016 123.13899993896484 84.81099700927734
v 123.33200073242188 123.31400299072266 84.8958969116211
v 126.96199798583984 116.97699737548828 99.79419708251953
v 126.7699966430664 116.0989990234375 97.81770324707031
v 126.23799896240234 127.37899780273438 102.26200103759766
v 125.85700225830078 128.8249969482422 101.89900207519531
v 123.70999908447266 118.58300018310547 104.6259994506836
v 129.36900329589844 129.19400024414062 98.62229919433594
v 129.23500061035156 130.35499572753906 97.37079620361328
v 112.36000061035156 127.88300323486328 90.05059814453125
v 113.37300109863281 129.1540069580078 90.99079895019531
v 118.37100219726562 112.33000183105469 97.22959899902344
v 109.66100311279297 115.94400024414062 94.48259735107422
v 116.20999908447266 112.947998046875 99.92839813232422
v 115.27300262451172 113.26200103759766 100.01499938964844
v 111.72000122070312 123.37999725341797 87.32160186767578
v 111.86799621582031 123.9020004272461 86.34239959716797
v 120.9219970703125 128.19200134277344 105.09100341796875
v 121.91500091552734 128.2480010986328 105.05599975585938
v 112.7239990234375 123.74299621582031 85.181396484375
v 121.7699966430664 127.59300231933594 106.48400115966797
v 118.85099792480469 117.59500122070312 87.58599853515625
v 110.27200317382812 124.12300109863281 101.10700225830078
v 110.06700134277344 124.10299682617188 99.10649871826172
v 113.69200134277344 123.75800323486328 84.82939910888672
v 114.16500091552734 123.7030029296875 84.80590057373047
v 114.7239990234375 123.70099639892578 84.80000305175781
v 115.28500366210938 123.70099639892578 84.80000305175781
v 115.87799835205078 123.66899871826172 84.80000305175781
v 112.20600128173828 124.35800170898438 102.375
v 118.03500366210938 112.7490005493164 99.14569854736328
v 117.96199798583984 113.04299926757812 100.70600128173828
v 116.51499938964844 123.51799774169922 84.80000305175781
v 117.59200286865234 113.33899688720703 101.5530014038086
v 126.97899627685547 129.66400146484375 89.70680236816406
v 128.0800018310547 127.9000015258789 90.01619720458984
v 123.68099975585938 114.50199890136719 92.61509704589844
v 125.09100341796875 114.63200378417969 92.99189758300781
v 115.36699676513672 112.49099731445312 96.13379669189453
v 114.61299896240234 112.40399932861328 95.19650268554688
v 128.26400756835938 130.04299926757812 91.39240264892578
v 128.93299865722656 130.03199768066406 92.98799896240234
v 124.88899993896484 114.44599914550781 98.79609680175781
v 124.99299621582031 114.74099731445312 100.22000122070312
v 126.48100280761719 115.49500274658203 96.62740325927734
v 111.552001953125 124.6760025024414 86.43240356445312
v 111.4229965209961 124.2040023803711 87.51219940185547
v 114.72799682617188 114.49700164794922 102.23999786376953
v 114.58999633789062 115.27200317382812 102.65299987792969
v 122.83599853515625 113.40399932861328 99.6177978515625
v 122.35800170898438 113.44999694824219 101.16300201416016
v 126.3550033569336 134.08900451660156 92.94850158691406
v 126.59400177001953 134.32400512695312 94.52989959716797
v 114.35700225830078 113.60600280761719 100.59300231933594
v 111.4530029296875 124.39800262451172 92.98079681396484
v 110.77999877929688 122.23200225830078 92.42659759521484
v 117.25499725341797 130.80499267578125 85.48149871826172
v 116.9749984741211 130.39300537109375 85.09940338134766
v 111.70999908447266 125.68099975585938 96.2405014038086
v 111.875 125.96800231933594 92.22119903564453
v 124.75599670410156 127.0459976196289 86.68000030517578
v 125.69999694824219 126.10900115966797 87.08869934082031
v 122.58000183105469 134.0019989013672 96.85040283203125
v 122.55899810791016 134.27499389648438 95.09490203857422
v 118.06099700927734 111.84300231933594 95.29309844970703
v 108.1719970703125 118.61299896240234 96.60289764404297
v 108.35099792480469 118.052001953125 98.3573989868164
v 115.52100372314453 129.83399963378906 85.19580078125
v 116.33399963378906 130.05099487304688 85.08869934082031
v 127.47699737548828 126.72799682617188 101.46600341796875
v 121.81300354003906 112.80999755859375 93.10199737548828
v 114.37300109863281 113.22000122070312 98.4540023803711
v 122.53299713134766 127.04399871826172 106.95099639892578
v 122.73100280761719 127.49700164794922 106.07499694824219
v 119.7760009765625 126.95500183105469 106.13800048828125
v 120.46499633789062 127.33999633789062 106.40699768066406
v 127.33100128173828 116.02200317382812 94.75050354003906
v 123.5009994506836 123.91999816894531 84.99510192871094
v 121.28800201416016 119.71299743652344 86.095703125
v 119.38600158691406 133.6280059814453 93.3302993774414
v 116.5510025024414 127.177001953125 84.80000305175781
v 124.2979965209961 122.875 85.5864028930664
v 124.29900360107422 123.75800323486328 85.42569732666016
v 126.39099884033203 121.26799774169922 104.8550033569336
v 126.25 122.01200103759766 105.43499755859375
v 125.67400360107422 115.93099975585938 101.20700073242188
v 118.58499908447266 123.68299865722656 105.91699981689453
v 119.35299682617188 122.1989974975586 106.01100158691406
v 129.3800048828125 128.8209991455078 92.97450256347656
v 112.33699798583984 123.72200012207031 85.6322021484375
v 112.53600311279297 124.3759994506836 85.11270141601562
v 121.26799774169922 118.05000305175781 87.49079895019531
v 113.08699798583984 124.25800323486328 84.89510345458984
v 125.81300354003906 119.25800323486328 88.98770141601562
v 125.15299987792969 117.84600067138672 90.32679748535156
v 113.61699676513672 124.24700164794922 84.82230377197266
v 114.16500091552734 124.26399993896484 84.8019027709961
v 114.7239990234375 124.26100158691406 84.80000305175781
v 115.28500366210938 124.26100158691406 84.80000305175781
v 115.79000091552734 124.2239990234375 84.80000305175781
v 128.1199951171875 119.8550033569336 102.04299926757812
v 128.5229949951172 131.11700439453125 97.97209930419922
v 127.91100311279297 132.32899475097656 97.22489929199219
v 118.91400146484375 124.39199829101562 106.62899780273438
v 118.7030029296875 125.20600128173828 106.41300201416016
v 108.197998046875 120.56700134277344 95.27449798583984
v 129.81900024414062 123.87200164794922 91.45800018310547
v 130.46800231933594 123.2699966430664 93.28130340576172
v 108.01000213623047 119.00199890136719 95.66320037841797
v 113.5260009765625 117 90.58470153808594
v 114.1969985961914 117.81099700927734 88.89009857177734
v 120.78600311279297 112.46800231933594 93.13790130615234
v 118.89700317382812 124.75599670410156 84.80000305175781
v 119.1510009765625 116.49099731445312 89.29570007324219
v 107.7959976196289 119.20500183105469 96.7822036743164
v 112.13600158691406 117.03299713134766 102.56800079345703
v 126.32099914550781 117.0999984741211 91.65370178222656
v 127.31199645996094 117.92400360107422 91.50550079345703
v 125.49800109863281 132.52499389648438 98.88289642333984
v 123.67400360107422 132.1479949951172 99.94509887695312
v 130.16200256347656 122.0459976196289 92.73149871826172
v 121.09200286865234 133.91799926757812 90.72560119628906
v 121.91799926757812 133.98899841308594 91.21749877929688
v 130.11599731445312 126.88099670410156 99.2750015258789
v 125.84400177001953 125.75900268554688 104.79299926757812
v 125.33799743652344 125.76499938964844 106.0979995727539
v 120.58499908447266 132.57000732421875 99.61329650878906
v 122.28399658203125 132.70700073242188 99.53510284423828
v 117.8239974975586 117.0739974975586 88.33170318603516
v 123.4000015258789 116.26100158691406 91.11750030517578
v 122.06099700927734 114.43599700927734 92.03189849853516
v 116.16799926757812 117.11299896240234 88.6969985961914
v 123.49500274658203 128.33200073242188 102.70700073242188
v 122.50499725341797 129.0709991455078 102.62100219726562
v 116.9530029296875 127.18099975585938 103.14199829101562
v 130.80499267578125 123.16799926757812 96.03880310058594
v 119.44000244140625 131.5 100.7030029296875
v 124.38800048828125 133.64999389648438 90.83149719238281
v 124.4219970703125 132.69400024414062 89.8936996459961
v 128.58099365234375 123.69300079345703 101.60600280761719
v 127.51899719238281 123.75900268554688 103.2509994506836
v 123.60600280761719 124.68299865722656 85.14409637451172
v 116.67500305175781 113.0989990234375 100.87899780273438
v 115.94100189208984 113.32499694824219 101.2300033569336
v 130.9759979248047 124.21700286865234 97.30899810791016
v 112.45999908447266 119.79399871826172 103.12699890136719
v 114.76200103759766 127.02899932861328 84.80000305175781
v 130.50599670410156 127.05400085449219 97.40260314941406
v 111.99600219726562 124.42500305175781 85.66790008544922
v 122.05000305175781 113.26699829101562 100.12899780273438
v 112.19400024414062 124.89199829101562 85.16500091552734
v 112.63500213623047 124.9469985961914 84.90160369873047
v 113.06500244140625 124.85099792480469 84.84230041503906
v 113.60700225830078 124.82599639892578 84.80660247802734
v 114.16400146484375 124.822998046875 84.80000305175781
v 114.7239990234375 124.8219985961914 84.80000305175781
v 115.33200073242188 124.85399627685547 84.80000305175781
v 116.00199890136719 124.86900329589844 84.80000305175781
v 108.7969970703125 122.28700256347656 98.61799621582031
v 124.93499755859375 125.03500366210938 107.1449966430664
v 124.77200317382812 125.80500030517578 106.91999816894531
v 109.33699798583984 123.04000091552734 99.78179931640625
v 107.50700378417969 120.12699890136719 99.90750122070312
v 112.2770004272461 128.1699981689453 88.41999816894531
v 119.54199981689453 114.95600128173828 103.11100006103516
v 117.13200378417969 132.60899353027344 90.30259704589844
v 117.12699890136719 132.08099365234375 88.76219940185547
v 116.96099853515625 112.84500122070312 99.74320220947266
v 112.83200073242188 126.42500305175781 100.90499877929688
v 113.70700073242188 126.51300048828125 101.8219985961914
v 110.85700225830078 115.2300033569336 98.38020324707031
v 108.68099975585938 117.31199645996094 99.67479705810547
v 114.375 119.71399688720703 86.42790222167969
v 121.49199676513672 133.822998046875 97.25679779052734
v 121.96600341796875 134.0449981689453 95.18009948730469
v 117.22100067138672 111.92900085449219 93.51429748535156
v 116.51699829101562 111.81800079345703 94.21060180664062
v 130.375 121.30899810791016 94.67259979248047
v 121.427001953125 131.83999633789062 100.72100067138672
v 126.10900115966797 124.10900115966797 106.43299865722656
v 126.52799987792969 122.97899627685547 105.54100036621094
v 127.09300231933594 122.46199798583984 104.76799774169922
v 122.50700378417969 112.67400360107422 93.9083023071289
v 122.2239990234375 112.5479965209961 95.05799865722656
v 114.67900085449219 115.08300018310547 91.51229858398438
v 124.75499725341797 134.8249969482422 92.7947998046875
v 125.29100036621094 134.656005859375 92.8375015258789
v 127.28700256347656 124.99700164794922 102.47899627685547
v 113.55000305175781 115.4229965209961 102.4800033569336
v 123.58799743652344 115.41000366210938 102.64800262451172
v 123.13300323486328 114.41699981689453 102.20099639892578
v 112.20800018310547 115.64099884033203 102.33200073242188
v 122.12999725341797 126.75 85.01399993896484
v 122.60299682617188 125.82499694824219 84.92739868164062
v 111.58999633789062 121.58899688720703 88.76290130615234
v 123.64199829101562 113.44599914550781 97.60150146484375
v 112.60199737548828 128.39300537109375 86.98519897460938
v 123.68800354003906 113.7040023803711 99.0884017944336
v 129.17599487304688 121.75800323486328 101.0999984741211
v 114.0530014038086 125.11599731445312 102.49600219726562
v 107.5459976196289 120.31199645996094 97.21990203857422
v 107.8290023803711 120.30000305175781 95.7957992553711
v 127.06999969482422 123.55400085449219 104.5719985961914
v 122.23200225830078 124.43599700927734 84.85530090332031
v 126.11000061035156 118.73799896240234 103.46900177001953
v 124.48999786376953 117.54900360107422 103.8479995727539
v 109.88899993896484 115.74299621582031 95.63719940185547
v 108.10399627685547 118.19999694824219 100.39399719238281
v 124.43099975585938 124.61000061035156 85.56659698486328
v 111.75299835205078 125.04900360107422 85.70189666748047
v 112.06800079345703 125.43599700927734 85.16120147705078
v 112.54399871826172 125.4010009765625 84.893798828125
v 113.06199645996094 125.4000015258789 84.8125
v 113.63600158691406 125.41699981689453 84.8019027709961
v 114.19499969482422 125.41500091552734 84.80000305175781
v 114.7239990234375 125.38300323486328 84.80000305175781
v 115.33200073242188 125.41500091552734 84.80000305175781
v 116.25700378417969 125.80799865722656 84.80000305175781
v 121.61299896240234 118.71499633789062 86.73519897460938
v 122.66500091552734 118.90499877929688 87.08550262451172
v 114.24800109863281 118.7490005493164 87.40190124511719
v 122.92900085449219 119.91600036621094 86.37920379638672
v 124.81700134277344 133.79600524902344 97.70919799804688
v 118.05899810791016 125.3759994506836 84.80000305175781
v 108.0790023803711 119.3290023803711 102.04100036621094
v 119.75199890136719 133.2050018310547 98.42019653320312
v 114.76200103759766 127.72899627685547 101.43099975585938
v 125.6780014038086 115.29499816894531 92.7957992553711
v 126.43900299072266 115.3010025024414 94.23249816894531
v 113.69599914550781 112.7229995727539 93.83789825439453
v 123.96399688720703 125.50800323486328 107.15699768066406
v 120.51899719238281 118.94499969482422 86.37750244140625
v 120.09400177001953 126.23899841308594 84.83350372314453
v 121.03800201416016 125.6240005493164 84.81439971923828
v 112.73899841308594 126.9209976196289 94.17620086669922
v 125.63400268554688 115.4010009765625 99.5291976928711
v 125.30999755859375 126.7300033569336 103.63899993896484
v 126.36799621582031 125.9520034790039 103.31800079345703
v 120.83100128173828 121.60600280761719 106.38400268554688
v 120.57499694824219 123.25299835205078 106.96099853515625
v 115.85700225830078 113.77300262451172 101.98400115966797
v 115.34100341796875 113.5530014038086 101.16100311279297
v 125.77300262451172 114.58300018310547 93.89759826660156
v 125.45999908447266 114.43199920654297 96.402099609375
v 126.68099975585938 117.31400299072266 101.39199829101562
v 108.41300201416016 122.052001953125 101.177001953125
v 108.14800262451172 121.83000183105469 99.88999938964844
v 123.14199829101562 126.85600280761719 106.8479995727539
v 110.47899627685547 115.4260025024414 97.16110229492188
v 110.64800262451172 115.16899871826172 95.55840301513672
v 125.68499755859375 134.0449981689453 97.30220031738281
v 120.1719970703125 113.74299621582031 101.91100311279297
v 118.97699737548828 113.46700286865234 101.71900177001953
v 129.72000122070312 129.16600036621094 97.08769989013672
v 129.94400024414062 127.98300170898438 98.55249786376953
v 114.61599731445312 123.55599975585938 103.14299774169922
v 127.61699676513672 122.1719970703125 88.53579711914062
v 111.43699645996094 126.15899658203125 86.95539855957031
v 111.46600341796875 125.47799682617188 86.36039733886719
v 117.96600341796875 114.82599639892578 91.00189971923828
v 116.58999633789062 113.47799682617188 92.09709930419922
v 127.37699890136719 116.23300170898438 93.17739868164062
v 124.6510009765625 125.66000366210938 86.018798828125
v 111.72799682617188 125.60600280761719 85.60310363769531
v 112.0459976196289 126.00599670410156 85.17279815673828
v 112.51300048828125 125.94999694824219 84.88870239257812
v 113.0479965209961 125.94599914550781 84.80940246582031
v 113.63500213623047 126.00800323486328 84.80000305175781
v 114.76200103759766 125.94400024414062 84.80000305175781
v 115.3010025024414 126.00700378417969 84.80000305175781
v 115.88400268554688 126.11299896240234 84.80000305175781
v 110.54100036621094 116.38899993896484 101.96399688720703
v 121.4209976196289 124.88600158691406 84.8031005859375
v 121.68499755859375 133.55499267578125 89.71869659423828
v 122.94100189208984 133.593994140625 90.24549865722656
v 122.51399993896484 119.98100280761719 105.81099700927734
v 109.29900360107422 116.50499725341797 97.44450378417969
v 124.86000061035156 123.5469970703125 107.19000244140625
v 125.96099853515625 123.3290023803711 106.29399871826172
v 123.64600372314453 113.8239974975586 100.16100311279297
v 123.46600341796875 134.67300415039062 94.9280014038086
v 130.54400634765625 124.21099853515625 98.84439849853516
v 115.5739974975586 129.02999877929688 99.86489868164062
v 115.84300231933594 130.15899658203125 97.64219665527344
v 116.19999694824219 118.8030014038086 86.29129791259766
v 112.14199829101562 113.61900329589844 93.90650177001953
v 124.61399841308594 129.99899291992188 88.0011978149414
v 124.34200286865234 127.52300262451172 103.41699981689453
v 108.8280029296875 120.3219985961914 102.36399841308594
v 116.14299774169922 115.43199920654297 103.64299774169922
v 115.4990005493164 115.03199768066406 102.9000015258789
v 115.01399993896484 113.86299896240234 101.66799926757812
v 119.66500091552734 119.25399780273438 104.8489990234375
v 118.27300262451172 112.59700012207031 92.65229797363281
v 117.56700134277344 113.43499755859375 91.90969848632812
v 122.37200164794922 126.56500244140625 107.15799713134766
v 119.4520034790039 123.68299865722656 106.66300201416016
v 122.28500366210938 113.91100311279297 102.11900329589844
v 120.96299743652344 113.1719970703125 100.9729995727539
v 108.11299896240234 119.97000122070312 94.83570098876953
v 123.61399841308594 125.68000030517578 85.26329803466797
v 126.1729965209961 124.88600158691406 105.75599670410156
v 127.37799835205078 132.92300415039062 93.30570220947266
v 115.75 130.52499389648438 95.2739028930664
v 111.7020034790039 126.14700317382812 85.8031005859375
v 112.06999969482422 126.49700164794922 85.27069854736328
v 112.50199890136719 126.4990005493164 84.93550109863281
v 113.04399871826172 126.50399780273438 84.8135986328125
v 114.6969985961914 118.25 104
v 126.66899871826172 124.70500183105469 104.45899963378906
v 126.48400115966797 123.8949966430664 105.55599975585938
v 120.01499938964844 132.7519989013672 88.47039794921875
v 130.4409942626953 125.02400207519531 93.747802734375
v 122.52999877929688 134.13999938964844 91.7197036743164
v 124.66100311279297 126.36199951171875 106.2490005493164
v 111.30899810791016 121.86100006103516 90.39830017089844
v 117.72799682617188 114.85399627685547 103.0979995727539
v 125.06600189208984 113.93000030517578 94.40260314941406
v 118.51100158691406 132.53500366210938 88.80449676513672
v 114.5719985961914 112.73799896240234 96.51609802246094
v 126.7300033569336 118.61900329589844 90.43389892578125
v 117.20700073242188 115.60199737548828 103.80699920654297
v 127.01399993896484 131.88999938964844 91.19999694824219
v 110.74800109863281 115.44400024414062 100.44300079345703
v 116.28900146484375 128.95599365234375 101.44300079345703
v 115.3270034790039 119.03900146484375 86.46219635009766
v 126.41400146484375 122.34100341796875 87.52909851074219
v 126.21700286865234 120.69000244140625 88.14340209960938
v 123.95099639892578 126.36699676513672 106.88999938964844
v 109.1719970703125 117.09200286865234 102.04499816894531
v 108.5780029296875 117.48100280761719 101.13099670410156
v 110.49800109863281 124.61799621582031 99.23860168457031
v 121.58000183105469 112.34400177001953 93.85890197753906
v 115.03600311279297 131.23300170898438 90.1948013305664
v 116.14700317382812 132.0330047607422 90.33080291748047
v 113.24199676513672 114.5999984741211 101.93399810791016
v 120.9739990234375 129.8090057373047 85.83869934082031
v 110.47100067138672 122.92900085449219 93.92320251464844
v 119.7249984741211 111.87899780273438 95.10260009765625
v 109.7020034790039 119.74700164794922 102.4000015258789
v 111.8499984741211 126.73899841308594 85.9917984008789
v 112.4489974975586 127.07099914550781 85.22769927978516
v 113.03800201416016 127.05999755859375 84.85079956054688
v 113.60199737548828 127.03500366210938 84.8019027709961
v 121.0719985961914 127.60700225830078 85.12480163574219
v 125.69599914550781 134.07200622558594 92.06700134277344
v 123.34100341796875 127.27200317382812 105.79399871826172
v 129.3990020751953 130.03500366210938 95.42279815673828
v 126.79900360107422 126.46199798583984 88.08370208740234
v 129.47999572753906 118.9489974975586 94.0248031616211
v 128.90199279785156 120.27100372314453 100.62699890136719
v 125.49700164794922 114.9260025024414 98.11730194091797
v 117.0250015258789 121.33200073242188 104.15499877929688
v 115.177001953125 120.76200103759766 103.9800033569336
v 108.55500030517578 118.30799865722656 94.34549713134766
v 108.72899627685547 117.48600006103516 95.072998046875
v 120.73200225830078 131.84300231933594 87.16300201416016
v 120.68399810791016 130.7949981689453 86.29930114746094
v 115.6780014038086 113.45099639892578 92.35079956054688
v 124.8949966430664 119.94999694824219 87.77179718017578
v 122.76899719238281 131.6230010986328 101.0719985961914
v 109.86199951171875 120.61499786376953 102.4000015258789
v 122.63600158691406 127.69200134277344 85.63680267333984
v 125.23600006103516 116.22200012207031 91.910400390625
v 124.24600219726562 115.27799987792969 92.23169708251953
v 123.85199737548828 120.822998046875 106.15499877929688
v 123.14800262451172 121.3489990234375 106.9229965209961
v 111.5459976196289 122.31600189208984 89.29319763183594
v 111.41899871826172 123.09100341796875 90.81009674072266
v 127.77899932861328 125.36399841308594 88.56950378417969
v 111.27799987792969 119.73799896240234 102.48600006103516
v 109.13600158691406 116.73200225830078 99.62139892578125
v 113.96299743652344 112.62200164794922 95.24729919433594
v 121.13099670410156 113.34200286865234 92.5968017578125
v 127.64900207519531 131.75999450683594 98.37689971923828
v 118.4469985961914 132.72000122070312 97.19770050048828
v 116.56099700927734 131.59500122070312 94.09159851074219
v 123.875 127.2229995727539 104.88800048828125
v 115.73899841308594 114.34700012207031 102.40899658203125
v 112.1259994506836 127.37100219726562 86.14830017089844
v 128.8679962158203 131.2949981689453 96.59970092773438
v 112.78900146484375 127.81800079345703 85.36599731445312
v 113.06600189208984 127.5719985961914 84.93699645996094
v 113.60199737548828 127.6240005493164 84.81549835205078
v 114.16400146484375 127.59600067138672 84.80000305175781
v 114.7239990234375 127.59600067138672 84.80000305175781
v 115.28500366210938 127.59600067138672 84.80000305175781
v 108.4000015258789 118.19499969482422 101.63800048828125
v 115.89299774169922 127.55000305175781 84.80000305175781
v 115.93800354003906 112.15499877929688 93.80770111083984
v 115.46499633789062 112.56600189208984 93.11319732666016
v 112.14700317382812 126.8489990234375 91.1436996459961
v 123.83899688720703 134.3489990234375 91.68679809570312
v 127.21499633789062 133.5570068359375 94.98719787597656
v 123.13899993896484 124.8219985961914 107.19999694824219
v 123.1240005493164 125.97699737548828 107.15799713134766
v 118.48899841308594 111.79100036621094 94.04440307617188
v 112.61299896240234 128.61099243164062 89.84349822998047
v 107.98300170898438 121.4729995727539 101.31900024414062
v 123.38200378417969 113.0530014038086 94.00640106201172
v 126.88200378417969 131.15199279785156 99.44539642333984
v 107.66300201416016 119.79000091552734 96.82440185546875
v 107.86499786376953 119.5770034790039 95.543701171875
v 124.21600341796875 134.90699768066406 93.39559936523438
v 107.8010025024414 121.31500244140625 100.29199981689453
v 116.81700134277344 112.55699920654297 92.68009948730469
v 121.98100280761719 131.072998046875 101.83899688720703
v 122.6709976196289 132.71499633789062 88.91300201416016
v 112.76000213623047 128.9149932861328 88.52200317382812
v 121.40499877929688 112.2750015258789 94.779296875
v 117.04399871826172 131.60899353027344 87.4906997680664
v 118.15899658203125 131.74000549316406 87.2136001586914
v 112.37699890136719 114.48600006103516 100.74400329589844
v 109.14399719238281 117.40799713134766 93.618896484375
v 113.52899932861328 128.1300048828125 84.9738998413086
v 114.16000366210938 128.18499755859375 84.81549835205078
v 114.7239990234375 128.18800354003906 84.8019027709961
v 115.28500366210938 128.18800354003906 84.80000305175781
v 115.77200317382812 128.1510009765625 84.80000305175781
v 116.4280014038086 128.40199279785156 84.80000305175781
v 124.25199890136719 128.54400634765625 86.97260284423828
v 112.16100311279297 125.43900299072266 102.08599853515625
v 124.5739974975586 114.80599975585938 101.58999633789062
v 108.71800231933594 122.11299896240234 102.03299713134766
v 109.19100189208984 122.56800079345703 102.06099700927734
v 119.19100189208984 132.28700256347656 99.4917984008789
v 118.62200164794922 128.48599243164062 84.84049987792969
v 114.13300323486328 130.5919952392578 89.79499816894531
v 108.21399688720703 119.177001953125 94.72920227050781
v 123.1709976196289 113.61900329589844 100.48400115966797
v 109.27200317382812 122.97899627685547 100.98699951171875
v 124.5459976196289 113.88999938964844 97.57219696044922
v 125.60700225830078 124.9469985961914 106.8280029296875
v 125.21199798583984 131.48800659179688 100.01799774169922
v 109.94999694824219 120.7030029296875 92.81340026855469
v 118.38999938964844 115.78800201416016 103.9530029296875
v 116.5770034790039 115.00800323486328 103.19999694824219
v 116.04499816894531 112.51000213623047 92.97779846191406
v 109.1259994506836 122.02300262451172 102.3489990234375
v 108.4219970703125 121.58200073242188 102.10800170898438
v 128.34100341796875 121.38800048828125 103.11799621582031
v 109.63600158691406 116.68800354003906 102.02200317382812
v 109.93699645996094 117.44499969482422 102.35199737548828
v 123.14800262451172 115.94400024414062 103.41699981689453
v 113.2509994506836 128.531005859375 85.68109893798828
v 114.08100128173828 128.70799255371094 85.02300262451172
v 114.71099853515625 128.7449951171875 84.84709930419922
v 115.28399658203125 128.74899291992188 84.80660247802734
v 115.84600067138672 128.71800231933594 84.80000305175781
v 112.95600128173828 125.37999725341797 102.3499984741211
v 117.4800033569336 128.49099731445312 84.80280303955078
v 127.80599975585938 120.27100372314453 103.08300018310547
v 112.73200225830078 116.12000274658203 91.89769744873047
v 129.01699829101562 131.0070037841797 94.96720123291016
v 117.91400146484375 130.79800415039062 85.32849884033203
v 117.74800109863281 131.7740020751953 98.53160095214844
v 129.73500061035156 119.58100128173828 96.12650299072266
v 109.69499969482422 123.61599731445312 100.33300018310547
v 109.09300231933594 116.83599853515625 101.18399810791016
v 109.45800018310547 116.06600189208984 95.5291976928711
v 123.58899688720703 127.76599884033203 103.6760025024414
v 114.83399963378906 131.02099609375 88.77980041503906
v 115.95600128173828 131.6580047607422 88.93240356445312
v 126.22799682617188 123.75800323486328 86.98159790039062
v 127.39600372314453 123.87899780273438 87.98200225830078
v 127.96800231933594 126.68699645996094 89.30020141601562
v 128.01800537109375 131.15699768066406 91.91919708251953
v 113.97899627685547 120.6500015258789 86.08910369873047
v 113.3270034790039 120.322998046875 86.61589813232422
v 129.64700317382812 120.59700012207031 92.2113037109375
v 129.92999267578125 120.1449966430664 93.58270263671875
v 113.83899688720703 129.08700561523438 85.71720123291016
v 114.6449966430664 129.33900451660156 85.26229858398438
v 115.24099731445312 129.24099731445312 84.88690185546875
v 115.80999755859375 129.34300231933594 84.85369873046875
v 116.4280014038086 129.2729949951172 84.81999969482422
v 121.68599700927734 113.35800170898438 101.28600311279297
v 125.9260025024414 134.5469970703125 95.74980163574219
v 118.34300231933594 125.80000305175781 105.56099700927734
v 117.3219985961914 125.58499908447266 104.6259994506836
v 118.45899963378906 129.552001953125 84.92520141601562
v 130.37600708007812 125.41100311279297 99.33879852294922
v 128.17599487304688 117.53399658203125 97.78079986572266
v 127.8550033569336 118.62300109863281 100.93099975585938
v 124.07499694824219 126.53199768066406 85.8488998413086
v 116.90499877929688 117.69599914550781 87.50370025634766
v 123.77400207519531 122.27799987792969 107.19000244140625
v 121.76300048828125 128.7480010986328 85.80750274658203
v 108.50800323486328 120.28199768066406 94.58100128173828
v 126.10700225830078 120.06400299072266 104.24700164794922
v 108.53099822998047 119.71199798583984 94.2750015258789
v 114.96099853515625 130.04100036621094 85.98789978027344
v 110.7509994506836 124.33499908447266 96.26920318603516
v 124.51599884033203 115.62300109863281 102.37300109863281
v 121.68599700927734 129.96499633789062 102.427001953125
v 122.6520004272461 133.57000732421875 98.25679779052734
v 117.11799621582031 128.61199951171875 102.35600280761719
v 107.96299743652344 120.81500244140625 96.45709991455078
v 108.86900329589844 122.53299713134766 100.00700378417969
v 122.87799835205078 127.89800262451172 104.70700073242188
v 127.5250015258789 128.19400024414062 101.23500061035156
v 119.74199676513672 127.7760009765625 104.73899841308594
v 118.4990005493164 126.98999786376953 104.41500091552734
v 111.46499633789062 124.74600219726562 90.84619903564453
v 111.16699981689453 115.7030029296875 101.97599792480469
v 116.44400024414062 129.9499969482422 99.85679626464844
v 119.47899627685547 113.01699829101562 100.51399993896484
v 118.58799743652344 131.1179962158203 85.97109985351562
v 121.66300201416016 122.73200225830078 107.05400085449219
v 117.52200317382812 122.75900268554688 105.07099914550781
v 108.10299682617188 120.52799987792969 102.08399963378906
v 108.09100341796875 121.0199966430664 102.06199645996094
v 114.27100372314453 115.97000122070312 103.0739974975586
v 108.86000061035156 122.48300170898438 101.23400115966797
v 119.38800048828125 131.90199279785156 87.20570373535156
v 108.69999694824219 118.94599914550781 93.86920166015625
v 118.32099914550781 130.36900329589844 85.12429809570312
v 120.3489990234375 129.0659942626953 103.17400360107422
v 118.45999908447266 129.3489990234375 102.38899993896484
v 119.08599853515625 130.42999267578125 85.4646987915039
v 107.42400360107422 119.81600189208984 98.23030090332031
v 120.05000305175781 130.30499267578125 85.7489013671875
v 129.83200073242188 128.91799926757812 95.00489807128906
v 124.93599700927734 134.2949981689453 91.88079833984375
v 125.15699768066406 117.16400146484375 103.23899841308594
v 115.76100158691406 130.49200439453125 85.94400024414062
v 116.53800201416016 130.7050018310547 85.7177963256836
v 111.60800170898438 125.7770004272461 98.79460144042969
v 112.93800354003906 127.0530014038086 98.14420318603516
v 118.60800170898438 116.9229965209961 104.072998046875
v 126.63999938964844 125.09200286865234 87.45169830322266
v 111.63700103759766 126.89399719238281 87.3239974975586
v 114.88899993896484 128.57699584960938 99.25540161132812
v 117.81700134277344 124.42900085449219 105.59300231933594
v 117.63800048828125 131.21400451660156 86.131103515625
v 123.73200225830078 114.56500244140625 102.11299896240234
v 115.61100006103516 131.2830047607422 91.83000183105469
v 112.48100280761719 115.0009994506836 102.10700225830078
v 115.06099700927734 115.53800201416016 103.22599792480469
v 115.18599700927734 116.3489990234375 103.79199981689453
v 113.98300170898438 127.58300018310547 99.94869995117188
v 111.27799987792969 125.16600036621094 87.52980041503906
v 117.7490005493164 130.99600219726562 100.0479965209961
v 120.99500274658203 112.177001953125 94.0427017211914
v 123.01599884033203 128.70199584960938 86.32610321044922
v 121.81300354003906 116.56199645996094 90.40840148925781
v 121.05699920654297 114.97200012207031 91.3218994140625
v 128.44900512695312 131.98800659179688 95.8740005493164
v 129.69500732421875 120.68699645996094 98.91239929199219
v 111.29100036621094 118.71199798583984 102.6240005493164
v 117.12000274658203 111.97899627685547 95.75279998779297
v 116.88999938964844 118.4489974975586 86.46869659423828
v 119.13099670410156 118.58599853515625 86.42569732666016
v 122.01699829101562 117.58899688720703 88.97049713134766
v 121.49299621582031 115.41000366210938 103.30000305175781
v 116.33200073242188 118.802001953125 104.02100372314453
v 116.8030014038086 131.16700744628906 86.53089904785156
v 121.36399841308594 134.0399932861328 92.7406997680664
v 122.4530029296875 118.22699737548828 87.91549682617188
v 128.7760009765625 129.85400390625 98.94619750976562
v 127.89399719238281 130.5970001220703 99.2697982788086
v 115.80999755859375 125.44300079345703 103.2969970703125
v 119.04399871826172 128.51499938964844 103.21099853515625
v 117.08399963378906 129.62600708007812 101.54499816894531
v 123.0459976196289 134.38299560546875 96.43890380859375
v 125.4489974975586 134.86399841308594 95.38610076904297
v 112.49400329589844 121.19000244140625 86.69139862060547
v 113.23899841308594 121.18199920654297 86.1521987915039
v 111.6709976196289 115.13899993896484 101.66100311279297
v 116.53600311279297 122.50700378417969 104.28700256347656
v 121.48300170898438 126.09600067138672 107.19999694824219
v 117.9280014038086 118.21499633789062 86.6801986694336
v 108.31900024414062 118.44499969482422 95.4093017578125
v 120.10800170898438 126.5469970703125 106.95800018310547
v 108.28900146484375 119.86799621582031 102.13099670410156
v 121.69000244140625 130.81500244140625 86.63809967041016
v 125.0979995727539 126.40499877929688 105.0459976196289
v 122.0770034790039 119.61699676513672 86.27459716796875
v 124.0739974975586 118.73799896240234 88.47940063476562
v 117.21199798583984 116.0780029296875 89.84030151367188
v 124.47799682617188 113.53399658203125 95.58399963378906
v 128.9219970703125 125.3280029296875 90.12239837646484
v 127.8949966430664 132.58599853515625 95.44159698486328
v 112.37999725341797 120.54299926757812 87.38890075683594
v 113.4000015258789 113.7760009765625 99.77559661865234
v 109.06300354003906 118.23600006103516 93.38919830322266
v 126.38300323486328 130.5540008544922 100.31700134277344
v 127.47100067138672 130.05799865722656 100.01699829101562
v 120.25499725341797 133.86700439453125 91.45500183105469
v 120.03700256347656 115.5770034790039 90.6884994506836
v 119.3270034790039 126.35900115966797 106.36199951171875
v 129.8489990234375 124.92500305175781 91.743896484375
v 119.89399719238281 124.28900146484375 84.80000305175781
v 126.32499694824219 115.84200286865234 92.74710083007812
v 119.74199676513672 131.13999938964844 86.29329681396484
v 112.802001953125 113.20899963378906 95.23249816894531
v 124.22799682617188 124.44100189208984 107.19999694824219
v 125.47200012207031 124.20999908447266 107.0510025024414
v 124.4000015258789 121.80799865722656 106.72799682617188
v 114.56700134277344 112.5469970703125 93.3062973022461
v 115.0270004272461 112.3219985961914 93.91390228271484
v 127.7760009765625 122.50199890136719 103.68499755859375
v 112.20800018310547 126.13800048828125 100.3479995727539
v 128.4980010986328 131.60000610351562 94.01699829101562
v 129.72000122070312 126.30799865722656 92.08920288085938
v 120.1050033569336 130.25100708007812 102.27400207519531
v 120.2760009765625 131.05499267578125 101.62200164794922
v 120.5260009765625 124.96399688720703 107.19000244140625
v 125 135.01300048828125 94.13150024414062
v 115.62200164794922 118.1240005493164 87.39649963378906
v 114.24600219726562 112.39700317382812 94.10160064697266
v 116.46900177001953 112.07599639892578 93.24610137939453
v 111.62200164794922 122.85600280761719 88.506103515625
v 111.91899871826172 121.36900329589844 87.49739837646484
v 112.11699676513672 121.9280014038086 86.74610137939453
v 112.6259994506836 121.81800079345703 86.17739868164062
v 111.25900268554688 114.38700103759766 94.40480041503906
v 125.4219970703125 124.72899627685547 86.402099609375
v 111.76200103759766 122.10399627685547 87.7645034790039
v 111.97799682617188 122.60299682617188 86.91560363769531
v 112.40399932861328 122.43000030517578 86.14790344238281
v 123.74199676513672 113.1709976196289 95.31169891357422
v 123.91899871826172 123.29499816894531 107.19999694824219
v 119.3030014038086 112.1500015258789 93.32839965820312
v 118.48699951171875 130.45899963378906 101.64399719238281
v 112.21600341796875 123.11199951171875 86.22229766845703
v 120.2030029296875 112.03099822998047 93.75800323486328
v 109.78500366210938 115.9489974975586 97.38899993896484
v 120.5479965209961 133.4969940185547 89.71420288085938
v 123.34400177001953 117.64800262451172 89.74629974365234
v 115.55799865722656 112.83699798583984 97.97250366210938
v 129.281005859375 119.51799774169922 92.3563003540039
v 112.0510025024414 127.6729965209961 87.53160095214844
v 110.70800018310547 116.68099975585938 92.7885971069336
v 119.65299987792969 125.61799621582031 107.0250015258789
v 109.15599822998047 119.63999938964844 93.39559936523438
v 109.10700225830078 120.33799743652344 93.85399627685547
v 108.66400146484375 117.72200012207031 96.67379760742188
v 127.37000274658203 121.4000015258789 104.16300201416016
v 109.56500244140625 116.25900268554688 99.31639862060547
v 122.98600006103516 112.8280029296875 94.99500274658203
v 112.53700256347656 128.0019989013672 86.08660125732422
v 113.22799682617188 129.08399963378906 87.006103515625
v 111.80699920654297 120.9010009765625 88.34130096435547
v 119.0199966430664 126.66400146484375 105.4489974975586
v 108.50800323486328 120.94300079345703 95.75990295410156
v 109.46299743652344 116.43800354003906 101.02400207519531
v 123.62000274658203 133.22300720214844 98.72679901123047
v 122.33499908447266 129.8350067138672 86.40869903564453
v 126.78900146484375 132.21299743652344 98.57939910888672
v 126.11699676513672 133.1280059814453 97.94819641113281
v 114.96199798583984 130.61500549316406 87.26799774169922
v 116.03500366210938 130.9759979248047 86.71269989013672
v 125.79399871826172 134.76400756835938 94.00270080566406
v 115.96199798583984 131.3300018310547 87.75260162353516
v 120.72899627685547 133.95899963378906 94.9636001586914
v 111.4020004272461 123.7300033569336 89.1624984741211

g grp1
usemtl mtl1
f 22 2 1 
f 23 1 2 
f 207 4 3 
f 412 3 4 
f 231 6 5 
f 52 5 6 
f 530 8 7 
f 230 7 8 
f 204 10 9 
f 226 9 10 
f 691 12 11 
f 322 11 12 
f 165 14 13 
f 707 13 14 
f 82 16 15 
f 19 15 16 
f 723 18 17 
f 660 17 18 
f 22 15 19 
f 75 21 20 
f 996 20 21 
f 2 22 19 
f 24 2 19 
f 25 23 2 
f 25 2 24 
f 27 26 23 
f 1 23 26 
f 27 23 25 
f 895 29 28 
f 461 28 29 
f 63 26 27 
f 668 31 30 
f 380 30 31 
f 187 33 32 
f 403 32 33 
f 302 35 34 
f 706 34 35 
f 571 37 36 
f 519 36 37 
f 759 39 38 
f 358 38 39 
f 346 41 40 
f 275 40 41 
f 854 43 42 
f 712 42 43 
f 409 45 44 
f 659 44 45 
f 663 47 46 
f 345 46 47 
f 516 49 48 
f 311 48 49 
f 55 19 16 
f 144 51 50 
f 82 50 51 
f 212 53 52 
f 5 52 53 
f 386 54 31 
f 380 31 54 
f 24 19 55 
f 607 57 56 
f 463 56 57 
f 61 25 24 
f 312 56 58 
f 212 58 56 
f 773 60 59 
f 356 59 60 
f 62 27 25 
f 62 25 61 
f 64 63 27 
f 64 27 62 
f 66 65 63 
f 26 63 65 
f 66 63 64 
f 484 68 67 
f 632 67 68 
f 351 70 69 
f 633 69 70 
f 110 65 66 
f 260 72 71 
f 735 71 72 
f 669 74 73 
f 985 73 74 
f 448 75 20 
f 191 77 76 
f 546 76 77 
f 425 79 78 
f 121 78 79 
f 801 81 80 
f 649 80 81 
f 140 50 82 
f 103 84 83 
f 683 83 84 
f 187 85 33 
f 821 33 85 
f 287 87 86 
f 378 86 87 
f 258 89 88 
f 875 88 89 
f 856 91 90 
f 190 90 91 
f 93 16 92 
f 51 92 16 
f 55 16 93 
f 94 24 55 
f 94 55 93 
f 682 96 95 
f 772 95 96 
f 97 24 94 
f 61 24 97 
f 375 99 98 
f 100 98 99 
f 209 98 100 
f 767 101 99 
f 368 99 101 
f 104 64 62 
f 504 103 102 
f 83 102 103 
f 61 104 62 
f 105 66 64 
f 105 64 104 
f 624 107 106 
f 288 106 107 
f 110 66 105 
f 681 109 108 
f 399 108 109 
f 119 111 110 
f 65 110 111 
f 393 112 108 
f 681 108 112 
f 83 114 113 
f 982 113 114 
f 236 116 115 
f 227 115 116 
f 316 118 117 
f 469 117 118 
f 123 111 119 
f 78 121 120 
f 511 120 121 
f 111 123 122 
f 127 122 123 
f 434 125 124 
f 950 124 125 
f 122 127 126 
f 129 126 127 
f 126 129 128 
f 171 128 129 
f 590 131 130 
f 870 130 131 
f 601 133 132 
f 915 132 133 
f 530 135 134 
f 925 134 135 
f 648 136 12 
f 668 12 136 
f 932 138 137 
f 351 137 138 
f 50 140 139 
f 192 139 140 
f 143 50 139 
f 753 142 141 
f 702 141 142 
f 144 50 143 
f 269 146 145 
f 711 145 146 
f 147 51 144 
f 92 51 147 
f 148 93 92 
f 148 92 147 
f 149 94 93 
f 149 93 148 
f 150 97 94 
f 150 94 149 
f 983 152 151 
f 622 151 152 
f 153 97 150 
f 61 97 153 
f 153 104 61 
f 220 153 150 
f 768 155 154 
f 625 154 155 
f 156 105 104 
f 156 104 153 
f 157 110 105 
f 157 105 156 
f 737 159 158 
f 283 158 159 
f 119 110 157 
f 639 161 160 
f 892 160 161 
f 490 163 162 
f 493 162 163 
f 719 164 160 
f 969 160 164 
f 219 14 165 
f 169 127 123 
f 230 166 7 
f 798 7 166 
f 580 168 167 
f 205 167 168 
f 170 129 127 
f 170 127 169 
f 170 171 129 
f 570 173 172 
f 553 172 173 
f 120 175 174 
f 722 174 175 
f 285 177 176 
f 290 176 177 
f 251 171 170 
f 214 179 178 
f 217 178 179 
f 968 180 42 
f 854 42 180 
f 116 182 181 
f 566 181 182 
f 314 184 183 
f 586 183 184 
f 901 186 185 
f 875 185 186 
f 192 189 188 
f 253 188 189 
f 750 191 190 
f 76 190 191 
f 139 192 188 
f 194 139 188 
f 369 84 193 
f 103 193 84 
f 143 139 194 
f 672 196 195 
f 250 195 196 
f 200 144 143 
f 809 195 197 
f 427 197 195 
f 916 199 198 
f 740 198 199 
f 201 147 144 
f 201 144 200 
f 202 148 147 
f 202 147 201 
f 203 149 148 
f 203 148 202 
f 981 10 204 
f 649 206 205 
f 167 205 206 
f 226 10 115 
f 237 115 10 
f 3 208 207 
f 866 207 208 
f 100 210 209 
f 326 209 210 
f 173 211 208 
f 508 208 211 
f 977 212 52 
f 485 214 213 
f 627 213 214 
f 786 216 215 
f 544 215 216 
f 220 156 153 
f 894 218 217 
f 802 217 218 
f 375 98 219 
f 209 219 98 
f 221 157 156 
f 221 156 220 
f 222 119 157 
f 222 157 221 
f 941 224 223 
f 271 223 224 
f 225 119 222 
f 123 119 225 
f 115 227 226 
f 455 226 227 
f 228 123 225 
f 169 123 228 
f 631 230 229 
f 575 229 230 
f 452 6 231 
f 772 233 232 
f 333 232 233 
f 305 235 234 
f 491 234 235 
f 115 237 236 
f 661 236 237 
f 910 239 238 
f 568 238 239 
f 461 241 240 
f 537 240 241 
f 979 242 39 
f 317 39 242 
f 632 244 243 
f 994 243 244 
f 480 246 245 
f 572 245 246 
f 569 86 247 
f 378 247 86 
f 437 249 248 
f 459 248 249 
f 171 251 250 
f 427 250 251 
f 254 253 252 
f 189 252 253 
f 294 254 252 
f 255 188 253 
f 255 253 254 
f 256 194 188 
f 256 188 255 
f 257 143 194 
f 257 194 256 
f 882 59 206 
f 356 206 59 
f 200 143 257 
f 261 201 200 
f 276 89 258 
f 261 202 201 
f 513 260 259 
f 71 259 260 
f 87 203 202 
f 87 202 261 
f 516 48 262 
f 321 262 48 
f 263 203 87 
f 149 203 263 
f 870 264 130 
f 839 130 264 
f 265 149 263 
f 150 149 265 
f 265 220 150 
f 357 267 266 
f 290 266 267 
f 469 118 268 
f 415 268 118 
f 429 269 145 
f 273 220 265 
f 163 125 270 
f 868 270 125 
f 273 221 220 
f 417 223 271 
f 380 272 30 
f 68 30 272 
f 274 222 221 
f 274 221 273 
f 275 225 222 
f 275 222 274 
f 41 228 225 
f 41 225 275 
f 584 277 276 
f 638 276 277 
f 916 279 278 
f 919 278 279 
f 900 281 280 
f 643 280 281 
f 346 228 41 
f 158 283 282 
f 887 282 283 
f 570 172 284 
f 733 284 172 
f 286 251 169 
f 170 169 251 
f 541 177 285 
f 343 286 169 
f 938 273 287 
f 265 287 273 
f 944 106 288 
f 176 290 289 
f 684 289 290 
f 536 292 291 
f 775 291 292 
f 582 69 293 
f 633 293 69 
f 297 254 294 
f 705 296 295 
f 567 295 296 
f 298 255 254 
f 298 254 297 
f 299 256 255 
f 299 255 298 
f 300 257 256 
f 300 256 299 
f 301 200 257 
f 301 257 300 
f 70 138 302 
f 35 302 138 
f 261 200 301 
f 654 304 303 
f 28 303 304 
f 601 306 305 
f 165 305 306 
f 381 124 307 
f 950 307 124 
f 997 309 308 
f 988 308 309 
f 67 243 142 
f 921 142 243 
f 941 311 310 
f 49 310 311 
f 607 56 312 
f 662 314 313 
f 598 313 314 
f 287 265 263 
f 266 290 315 
f 177 315 290 
f 87 287 263 
f 644 266 315 
f 846 118 316 
f 358 39 317 
f 100 318 210 
f 770 210 318 
f 828 320 319 
f 312 319 320 
f 930 321 223 
f 311 223 321 
f 484 11 322 
f 698 185 323 
f 638 323 185 
f 330 274 273 
f 238 325 324 
f 911 324 325 
f 784 327 326 
f 707 326 327 
f 272 329 328 
f 694 328 329 
f 275 274 330 
f 689 332 331 
f 613 331 332 
f 563 232 333 
f 284 335 334 
f 788 334 335 
f 708 337 336 
f 830 336 337 
f 492 339 338 
f 614 338 339 
f 364 341 340 
f 479 340 341 
f 734 342 339 
f 615 339 342 
f 346 343 228 
f 169 228 343 
f 46 345 344 
f 416 344 345 
f 347 286 343 
f 347 343 346 
f 581 349 348 
f 828 348 349 
f 846 351 350 
f 69 350 351 
f 711 352 145 
f 835 145 352 
f 599 354 353 
f 905 353 354 
f 167 356 355 
f 743 355 356 
f 410 267 357 
f 805 38 358 
f 489 360 359 
f 976 359 360 
f 392 362 361 
f 971 361 362 
f 366 364 363 
f 340 363 364 
f 297 294 365 
f 435 365 294 
f 418 366 279 
f 421 279 366 
f 370 298 297 
f 459 367 248 
f 898 248 367 
f 677 369 368 
f 803 368 369 
f 371 299 298 
f 371 298 370 
f 372 300 299 
f 372 299 371 
f 373 301 300 
f 373 300 372 
f 374 261 301 
f 374 301 373 
f 795 375 306 
f 219 306 375 
f 378 261 374 
f 852 377 376 
f 513 376 377 
f 261 378 87 
f 598 379 377 
f 488 377 379 
f 54 381 380 
f 329 380 381 
f 710 383 382 
f 46 382 383 
f 665 385 384 
f 72 384 385 
f 812 387 386 
f 54 386 387 
f 581 389 388 
f 154 388 389 
f 697 390 349 
f 320 349 390 
f 362 392 391 
f 887 391 392 
f 931 204 9 
f 636 394 393 
f 112 393 394 
f 775 396 395 
f 495 395 396 
f 999 398 397 
f 739 397 398 
f 745 345 47 
f 637 108 399 
f 714 401 400 
f 683 400 401 
f 32 403 402 
f 872 402 403 
f 580 405 404 
f 400 404 405 
f 328 407 406 
f 608 406 407 
f 910 409 408 
f 520 408 409 
f 684 267 410 
f 983 412 411 
f 4 411 412 
f 871 414 413 
f 820 413 414 
f 583 415 350 
f 846 350 415 
f 719 344 416 
f 930 223 417 
f 593 419 418 
f 366 418 419 
f 549 40 275 
f 919 421 420 
f 847 420 421 
f 390 422 320 
f 312 320 422 
f 423 347 346 
f 423 346 40 
f 122 424 111 
f 577 111 424 
f 36 425 174 
f 78 174 425 
f 796 232 426 
f 563 426 232 
f 428 427 286 
f 251 286 427 
f 767 99 375 
f 347 428 286 
f 527 430 429 
f 269 429 430 
f 590 431 348 
f 581 348 431 
f 855 433 432 
f 642 432 433 
f 54 434 124 
f 494 436 435 
f 365 435 436 
f 577 437 248 
f 438 365 436 
f 297 365 438 
f 666 440 439 
f 924 439 440 
f 441 297 438 
f 370 297 441 
f 442 371 370 
f 442 370 441 
f 443 372 371 
f 443 371 442 
f 444 373 372 
f 444 372 443 
f 445 374 373 
f 445 373 444 
f 247 378 374 
f 247 374 445 
f 696 216 446 
f 797 446 216 
f 726 448 447 
f 720 447 448 
f 980 450 449 
f 879 449 450 
f 991 113 451 
f 834 451 113 
f 937 453 452 
f 466 452 453 
f 458 287 86 
f 918 411 454 
f 460 454 411 
f 227 456 455 
f 135 455 456 
f 719 416 457 
f 678 457 416 
f 938 287 458 
f 748 454 460 
f 303 28 461 
f 666 463 462 
f 57 462 463 
f 993 465 464 
f 779 464 465 
f 6 452 466 
f 903 468 467 
f 619 467 468 
f 602 5 53 
f 827 162 469 
f 493 469 162 
f 922 471 470 
f 647 470 471 
f 524 473 472 
f 37 472 473 
f 917 367 474 
f 459 474 367 
f 710 476 475 
f 892 475 476 
f 925 477 474 
f 831 474 477 
f 302 479 478 
f 341 478 479 
f 842 246 480 
f 490 481 163 
f 658 163 481 
f 524 472 482 
f 771 482 472 
f 366 363 421 
f 847 421 363 
f 11 484 483 
f 620 483 484 
f 533 486 485 
f 215 485 486 
f 487 423 40 
f 165 306 219 
f 549 487 40 
f 183 489 488 
f 359 488 489 
f 627 490 162 
f 234 491 304 
f 28 304 491 
f 423 428 347 
f 731 492 332 
f 338 332 492 
f 695 312 58 
f 552 358 317 
f 513 259 376 
f 357 376 259 
f 600 469 493 
f 496 436 494 
f 395 495 177 
f 315 177 495 
f 497 436 496 
f 498 438 436 
f 498 436 497 
f 499 441 438 
f 499 438 498 
f 500 442 441 
f 500 441 499 
f 501 443 442 
f 501 442 500 
f 502 444 443 
f 502 443 501 
f 503 445 444 
f 503 444 502 
f 507 193 504 
f 103 504 193 
f 247 445 503 
f 778 506 505 
f 576 505 506 
f 844 507 504 
f 866 208 508 
f 743 509 355 
f 978 355 509 
f 781 510 88 
f 900 88 510 
f 664 512 511 
f 680 511 512 
f 359 260 513 
f 662 313 510 
f 597 510 313 
f 795 515 514 
f 886 514 515 
f 669 73 516 
f 594 516 73 
f 513 488 359 
f 207 460 4 
f 411 4 460 
f 379 183 488 
f 553 412 517 
f 151 517 412 
f 140 82 518 
f 671 518 82 
f 408 520 519 
f 1001 519 520 
f 410 522 521 
f 957 521 522 
f 481 217 523 
f 802 523 217 
f 706 473 524 
f 665 417 271 
f 720 448 20 
f 943 107 525 
f 624 525 107 
f 430 527 526 
f 548 526 527 
f 986 529 528 
f 678 528 529 
f 704 8 530 
f 463 212 56 
f 954 532 531 
f 869 531 532 
f 268 533 485 
f 858 534 394 
f 112 394 534 
f 280 536 535 
f 881 535 536 
f 850 537 241 
f 336 539 538 
f 579 538 539 
f 661 540 236 
f 989 236 540 
f 967 541 285 
f 754 542 509 
f 978 509 542 
f 395 541 543 
f 777 543 541 
f 214 544 179 
f 696 179 544 
f 245 515 545 
f 795 545 515 
f 843 547 546 
f 747 546 547 
f 656 526 548 
f 330 549 275 
f 835 551 550 
f 870 550 551 
f 735 522 71 
f 896 71 522 
f 595 552 317 
f 3 412 553 
f 487 554 423 
f 428 423 554 
f 556 496 555 
f 494 555 496 
f 609 556 555 
f 557 497 496 
f 557 496 556 
f 558 498 497 
f 558 497 557 
f 559 499 498 
f 559 498 558 
f 560 500 499 
f 560 499 559 
f 561 501 500 
f 561 500 560 
f 562 502 501 
f 562 501 561 
f 563 503 502 
f 563 502 562 
f 333 247 503 
f 333 503 563 
f 923 565 564 
f 904 564 565 
f 671 566 518 
f 182 518 566 
f 565 567 296 
f 325 238 568 
f 333 569 247 
f 37 571 472 
f 771 472 571 
f 245 572 515 
f 886 515 572 
f 939 574 573 
f 588 573 574 
f 224 229 575 
f 942 505 576 
f 111 577 65 
f 898 65 577 
f 579 458 578 
f 569 578 458 
f 938 458 579 
f 874 168 580 
f 470 583 582 
f 350 582 583 
f 854 585 584 
f 433 584 585 
f 637 587 586 
f 489 586 587 
f 979 166 242 
f 962 242 166 
f 513 377 488 
f 999 397 532 
f 691 532 397 
f 574 589 588 
f 663 588 589 
f 431 590 130 
f 844 592 591 
f 744 591 592 
f 692 419 593 
f 896 522 410 
f 919 279 421 
f 552 595 594 
f 49 594 595 
f 768 154 389 
f 823 325 596 
f 568 596 325 
f 313 598 597 
f 852 597 598 
f 353 600 599 
f 270 599 600 
f 737 355 159 
f 978 159 355 
f 907 601 132 
f 213 268 485 
f 231 5 602 
f 650 604 603 
f 887 603 604 
f 640 606 605 
f 134 605 606 
f 608 554 487 
f 646 608 487 
f 610 556 609 
f 650 610 609 
f 611 557 556 
f 611 556 610 
f 612 558 557 
f 612 557 611 
f 613 559 558 
f 613 558 612 
f 338 560 559 
f 338 559 613 
f 614 561 560 
f 614 560 338 
f 615 562 561 
f 615 561 614 
f 616 563 562 
f 616 562 615 
f 461 29 617 
f 787 617 29 
f 539 549 618 
f 330 618 549 
f 468 620 619 
f 753 619 620 
f 712 43 621 
f 276 621 43 
f 717 151 622 
f 943 623 107 
f 288 107 623 
f 431 389 581 
f 382 46 344 
f 155 291 625 
f 775 625 291 
f 238 324 626 
f 749 626 324 
f 178 627 214 
f 543 154 625 
f 851 629 628 
f 205 628 629 
f 15 22 630 
f 897 630 22 
f 941 631 229 
f 928 75 448 
f 67 632 243 
f 716 491 235 
f 803 369 193 
f 17 293 633 
f 707 327 634 
f 856 634 327 
f 884 636 635 
f 782 635 636 
f 494 435 362 
f 971 362 435 
f 724 393 637 
f 108 637 393 
f 323 638 277 
f 751 640 639 
f 161 639 640 
f 593 418 641 
f 279 641 418 
f 697 581 388 
f 953 642 585 
f 433 585 642 
f 677 368 101 
f 292 643 396 
f 822 396 643 
f 100 99 368 
f 281 597 644 
f 852 644 597 
f 451 645 547 
f 748 547 645 
f 697 349 581 
f 993 464 568 
f 996 568 464 
f 646 549 539 
f 487 549 646 
f 775 292 396 
f 798 530 7 
f 778 647 471 
f 928 136 648 
f 80 649 629 
f 205 629 649 
f 651 610 650 
f 536 280 643 
f 652 611 610 
f 652 610 651 
f 653 612 611 
f 653 611 652 
f 331 613 612 
f 331 612 653 
f 332 338 613 
f 89 276 638 
f 699 304 654 
f 339 615 614 
f 753 620 484 
f 342 616 615 
f 658 125 163 
f 426 616 342 
f 563 616 426 
f 647 656 655 
f 548 655 656 
f 974 141 657 
f 702 657 141 
f 481 453 658 
f 937 658 453 
f 738 620 659 
f 468 659 620 
f 922 17 660 
f 714 661 401 
f 237 401 661 
f 741 593 641 
f 184 314 662 
f 383 663 46 
f 333 233 569 
f 578 569 233 
f 657 664 79 
f 121 79 664 
f 976 665 384 
f 440 666 462 
f 875 186 667 
f 635 667 186 
f 674 660 18 
f 322 668 30 
f 991 102 83 
f 973 552 594 
f 262 669 516 
f 433 277 584 
f 379 314 183 
f 246 670 628 
f 851 628 670 
f 206 356 167 
f 15 630 671 
f 955 671 630 
f 602 673 672 
f 196 672 673 
f 506 660 674 
f 335 676 675 
f 804 675 676 
f 618 579 539 
f 873 677 101 
f 889 457 678 
f 882 680 679 
f 808 679 680 
f 534 681 112 
f 833 96 682 
f 336 646 539 
f 984 527 429 
f 83 683 114 
f 401 114 683 
f 830 646 336 
f 267 684 290 
f 707 685 13 
f 716 13 685 
f 687 651 686 
f 650 686 651 
f 725 687 686 
f 687 652 651 
f 688 653 652 
f 688 652 687 
f 689 331 653 
f 689 653 688 
f 96 690 233 
f 578 233 690 
f 869 532 691 
f 845 419 692 
f 434 387 693 
f 799 693 387 
f 811 694 329 
f 878 205 168 
f 319 312 695 
f 894 179 696 
f 709 475 440 
f 975 440 475 
f 915 699 698 
f 901 698 699 
f 713 540 661 
f 724 636 393 
f 759 701 700 
f 918 700 701 
f 921 703 702 
f 940 702 703 
f 647 655 470 
f 583 470 655 
f 606 704 134 
f 530 134 704 
f 938 579 618 
f 8 575 230 
f 673 439 705 
f 924 705 439 
f 753 141 619 
f 974 619 141 
f 752 34 706 
f 890 337 708 
f 462 709 440 
f 709 573 710 
f 383 710 573 
f 602 53 673 
f 439 673 53 
f 738 483 620 
f 944 712 711 
f 621 711 712 
f 699 234 304 
f 661 714 713 
f 958 713 714 
f 811 715 694 
f 876 694 715 
f 181 566 456 
f 955 456 566 
f 690 538 578 
f 579 578 538 
f 13 716 235 
f 517 151 717 
f 224 575 718 
f 956 718 575 
f 476 344 719 
f 995 720 20 
f 632 68 272 
f 476 710 382 
f 174 722 721 
f 81 721 722 
f 633 723 17 
f 116 181 227 
f 456 227 181 
f 586 724 637 
f 727 687 725 
f 693 726 354 
f 447 354 726 
f 728 688 687 
f 728 687 727 
f 729 689 688 
f 729 688 728 
f 730 332 689 
f 730 689 729 
f 721 36 174 
f 731 332 730 
f 732 339 492 
f 732 492 731 
f 172 553 733 
f 676 733 553 
f 734 339 732 
f 946 736 735 
f 783 735 736 
f 426 342 734 
f 835 352 551 
f 789 551 352 
f 167 737 580 
f 405 580 737 
f 749 531 738 
f 869 738 531 
f 328 632 272 
f 648 397 739 
f 576 741 740 
f 198 740 741 
f 841 37 473 
f 410 521 742 
f 639 742 521 
f 356 60 743 
f 754 743 60 
f 857 744 91 
f 750 91 744 
f 885 635 186 
f 898 577 248 
f 967 745 47 
f 995 746 720 
f 906 720 746 
f 843 451 547 
f 547 748 747 
f 460 747 748 
f 323 277 433 
f 954 531 749 
f 846 415 118 
f 592 504 191 
f 102 191 504 
f 430 106 146 
f 944 146 106 
f 592 191 750 
f 768 389 431 
f 166 230 631 
f 606 640 751 
f 926 47 663 
f 706 524 752 
f 952 752 524 
f 665 271 718 
f 224 718 271 
f 190 76 508 
f 866 508 76 
f 355 737 167 
f 60 308 754 
f 988 754 308 
f 529 755 678 
f 889 678 755 
f 855 698 323 
f 512 757 756 
f 880 756 757 
f 914 262 758 
f 321 758 262 
f 719 160 476 
f 892 476 160 
f 674 741 576 
f 711 621 352 
f 258 352 621 
f 760 729 728 
f 38 701 759 
f 727 760 728 
f 761 730 729 
f 761 729 760 
f 762 731 730 
f 762 730 761 
f 763 732 731 
f 763 731 762 
f 764 734 732 
f 764 732 763 
f 765 426 734 
f 765 734 764 
f 632 328 766 
f 406 766 328 
f 796 426 765 
f 948 101 767 
f 839 768 431 
f 784 770 769 
f 859 769 770 
f 877 603 283 
f 887 283 603 
f 674 576 506 
f 804 517 717 
f 721 771 571 
f 921 682 703 
f 867 703 682 
f 796 772 232 
f 96 233 772 
f 126 424 122 
f 807 308 773 
f 60 773 308 
f 861 700 774 
f 918 774 700 
f 12 691 397 
f 858 303 240 
f 461 240 303 
f 625 775 543 
f 395 543 775 
f 173 570 211 
f 920 211 570 
f 803 507 776 
f 844 776 507 
f 926 777 541 
f 516 594 49 
f 350 69 582 
f 943 525 778 
f 647 778 525 
f 138 779 35 
f 465 35 779 
f 114 401 780 
f 237 780 401 
f 510 781 662 
f 667 662 781 
f 662 782 184 
f 724 184 782 
f 67 142 753 
f 606 783 704 
f 736 704 783 
f 769 785 784 
f 327 784 785 
f 947 786 215 
f 29 788 787 
f 675 787 788 
f 45 738 659 
f 790 760 727 
f 258 789 352 
f 791 761 760 
f 791 760 790 
f 792 762 761 
f 792 761 791 
f 793 763 762 
f 793 762 792 
f 794 764 763 
f 794 763 793 
f 514 767 795 
f 375 795 767 
f 765 764 794 
f 788 335 675 
f 85 796 765 
f 284 733 335 
f 676 335 733 
f 131 446 797 
f 979 226 798 
f 455 798 226 
f 726 693 799 
f 745 528 345 
f 416 345 528 
f 782 636 724 
f 973 594 73 
f 774 748 645 
f 862 32 800 
f 402 800 32 
f 710 475 709 
f 888 801 80 
f 319 695 802 
f 816 802 695 
f 777 154 543 
f 318 803 776 
f 675 804 787 
f 992 787 804 
f 785 591 744 
f 552 805 358 
f 928 648 739 
f 988 790 542 
f 987 542 790 
f 845 723 806 
f 633 806 723 
f 679 808 807 
f 1000 807 808 
f 876 810 809 
f 672 809 810 
f 927 715 811 
f 31 812 386 
f 518 814 813 
f 913 813 814 
f 466 816 815 
f 977 815 816 
f 381 307 811 
f 927 811 307 
f 817 791 790 
f 544 485 215 
f 818 792 791 
f 818 791 817 
f 819 793 792 
f 819 792 818 
f 820 794 793 
f 820 793 819 
f 821 765 794 
f 821 794 820 
f 281 644 822 
f 315 822 644 
f 85 765 821 
f 911 325 823 
f 848 825 824 
f 879 824 825 
f 796 85 187 
f 826 796 187 
f 772 796 826 
f 388 777 589 
f 663 589 777 
f 162 827 627 
f 213 627 827 
f 218 829 828 
f 348 828 829 
f 337 406 830 
f 608 830 406 
f 826 95 772 
f 989 116 236 
f 917 474 831 
f 968 42 832 
f 712 832 42 
f 994 833 682 
f 770 318 776 
f 685 334 716 
f 895 716 334 
f 650 609 604 
f 555 604 609 
f 405 737 158 
f 982 834 113 
f 489 587 360 
f 399 360 587 
f 429 145 835 
f 834 836 645 
f 774 645 836 
f 309 818 817 
f 837 818 309 
f 413 818 837 
f 84 838 683 
f 400 683 838 
f 413 819 818 
f 413 820 819 
f 988 309 817 
f 802 218 319 
f 828 319 218 
f 414 821 820 
f 33 821 414 
f 535 839 264 
f 34 840 479 
f 340 479 840 
f 37 841 519 
f 408 519 841 
f 908 842 480 
f 138 70 351 
f 77 102 843 
f 991 843 102 
f 520 409 44 
f 723 845 692 
f 908 848 847 
f 990 847 848 
f 400 849 714 
f 1002 714 849 
f 617 74 850 
f 669 850 74 
f 368 318 100 
f 478 806 633 
f 344 476 382 
f 909 851 670 
f 900 258 88 
f 860 853 757 
f 880 757 853 
f 199 854 180 
f 915 855 132 
f 879 132 855 
f 327 857 856 
f 91 856 857 
f 884 858 394 
f 692 18 723 
f 776 859 770 
f 895 334 788 
f 403 33 414 
f 664 860 757 
f 981 861 836 
f 774 836 861 
f 471 660 506 
f 949 799 387 
f 736 8 704 
f 838 404 400 
f 862 187 32 
f 826 187 862 
f 951 864 863 
f 908 863 864 
f 865 826 862 
f 95 826 865 
f 398 21 739 
f 75 739 21 
f 322 68 484 
f 546 866 76 
f 682 95 867 
f 865 867 95 
f 390 589 574 
f 693 599 868 
f 270 868 599 
f 822 643 281 
f 551 264 870 
f 872 414 871 
f 403 414 872 
f 948 874 873 
f 404 873 874 
f 422 607 312 
f 89 638 875 
f 185 875 638 
f 810 876 715 
f 800 853 862 
f 865 862 853 
f 978 725 877 
f 686 877 725 
f 628 205 878 
f 617 241 461 
f 81 722 649 
f 206 649 722 
f 432 449 879 
f 777 388 154 
f 880 800 402 
f 853 800 880 
f 536 291 881 
f 155 881 291 
f 722 882 206 
f 210 770 784 
f 534 883 681 
f 758 681 883 
f 635 885 884 
f 858 884 885 
f 456 477 135 
f 925 135 477 
f 854 584 43 
f 276 43 584 
f 878 168 886 
f 874 886 168 
f 11 869 691 
f 391 887 604 
f 482 771 888 
f 801 888 771 
f 706 465 473 
f 993 473 465 
f 972 457 889 
f 994 890 833 
f 708 833 890 
f 990 420 847 
f 475 892 891 
f 935 891 892 
f 272 380 329 
f 448 726 893 
f 799 893 726 
f 217 179 894 
f 545 306 601 
f 849 405 158 
f 210 784 326 
f 751 639 521 
f 716 895 491 
f 28 491 895 
f 360 399 417 
f 930 417 399 
f 357 896 410 
f 955 630 897 
f 797 550 131 
f 870 131 550 
f 530 798 455 
f 939 709 462 
f 977 816 695 
f 868 434 693 
f 708 690 833 
f 96 833 690 
f 26 65 898 
f 975 891 899 
f 249 899 891 
f 789 900 280 
f 654 885 901 
f 186 901 885 
f 974 467 619 
f 1000 756 902 
f 880 902 756 
f 303 885 654 
f 54 387 434 
f 44 468 903 
f 564 437 577 
f 852 598 377 
f 437 564 904 
f 593 18 692 
f 447 906 905 
f 316 905 906 
f 931 759 700 
f 493 163 270 
f 824 879 450 
f 480 907 825 
f 132 825 907 
f 864 842 908 
f 77 843 546 
f 970 909 864 
f 842 864 909 
f 341 845 806 
f 626 910 238 
f 592 844 504 
f 953 585 199 
f 854 199 585 
f 962 317 242 
f 961 913 912 
f 814 912 913 
f 834 645 451 
f 938 330 273 
f 850 669 914 
f 262 914 669 
f 897 22 1 
f 815 6 466 
f 778 471 506 
f 133 699 915 
f 279 916 641 
f 198 641 916 
f 26 917 1 
f 897 1 917 
f 898 917 26 
f 871 413 837 
f 936 919 420 
f 983 918 701 
f 523 466 453 
f 901 699 654 
f 993 239 841 
f 408 841 239 
f 284 920 570 
f 702 142 921 
f 665 718 385 
f 956 385 718 
f 564 577 424 
f 696 218 894 
f 471 922 660 
f 923 564 424 
f 276 258 621 
f 296 924 565 
f 904 565 924 
f 191 102 77 
f 923 567 565 
f 459 605 925 
f 134 925 605 
f 777 926 663 
f 937 927 307 
f 722 175 882 
f 680 882 175 
f 875 781 88 
f 814 518 182 
f 125 434 868 
f 637 399 587 
f 941 223 311 
f 981 204 861 
f 931 861 204 
f 963 608 407 
f 177 541 395 
f 54 124 381 
f 390 697 589 
f 388 589 697 
f 196 673 705 
f 989 929 116 
f 182 116 929 
f 671 82 15 
f 797 835 550 
f 376 357 266 
f 855 432 879 
f 348 829 590 
f 131 590 829 
f 982 114 780 
f 953 199 916 
f 416 528 678 
f 759 931 9 
f 137 933 932 
f 746 932 933 
f 384 72 260 
f 903 467 934 
f 974 934 467 
f 174 78 120 
f 707 634 685 
f 920 685 634 
f 161 935 892 
f 35 465 706 
f 980 936 450 
f 824 450 936 
f 381 811 329 
f 708 538 690 
f 495 396 822 
f 10 780 237 
f 452 927 937 
f 969 639 160 
f 618 330 938 
f 57 607 939 
f 574 939 607 
f 702 940 860 
f 853 860 940 
f 340 840 863 
f 951 863 840 
f 943 505 942 
f 582 293 922 
f 17 922 293 
f 942 623 943 
f 970 888 909 
f 851 909 888 
f 1001 425 36 
f 742 684 410 
f 845 341 364 
f 699 133 234 
f 305 234 133 
f 484 67 753 
f 755 289 889 
f 972 889 289 
f 855 915 698 
f 740 942 576 
f 851 80 629 
f 52 6 815 
f 146 944 711 
f 822 315 495 
f 462 57 939 
f 449 432 642 
f 874 580 404 
f 829 218 696 
f 736 946 945 
f 956 945 946 
f 883 914 758 
f 973 805 552 
f 849 400 405 
f 944 832 712 
f 857 785 744 
f 302 34 479 
f 183 586 489 
f 196 705 295 
f 912 814 929 
f 182 929 814 
f 486 947 215 
f 244 632 766 
f 514 874 948 
f 672 195 809 
f 266 852 376 
f 668 322 12 
f 990 848 824 
f 517 676 553 
f 140 518 813 
f 457 164 719 
f 928 893 949 
f 799 949 893 
f 80 851 888 
f 341 806 478 
f 937 307 950 
f 923 424 126 
f 752 952 951 
f 970 951 952 
f 923 126 128 
f 567 923 128 
f 631 941 310 
f 171 567 128 
f 295 567 171 
f 930 399 109 
f 911 954 324 
f 749 324 954 
f 470 582 922 
f 510 281 900 
f 701 38 152 
f 805 152 38 
f 908 847 863 
f 363 863 847 
f 132 879 825 
f 831 477 955 
f 456 955 477 
f 947 548 527 
f 969 742 639 
f 740 199 180 
f 575 945 956 
f 783 957 735 
f 522 735 957 
f 816 466 523 
f 948 873 101 
f 250 427 195 
f 813 192 140 
f 913 192 813 
f 884 394 636 
f 135 530 455 
f 353 117 600 
f 469 600 117 
f 459 935 605 
f 161 605 935 
f 268 213 827 
f 508 90 190 
f 601 305 133 
f 511 680 175 
f 962 595 317 
f 1002 361 958 
f 965 958 361 
f 302 478 70 
f 633 70 478 
f 964 960 959 
f 912 959 960 
f 961 912 960 
f 354 599 693 
f 961 252 189 
f 913 961 189 
f 828 349 320 
f 739 75 928 
f 49 962 310 
f 631 310 962 
f 913 189 192 
f 295 171 250 
f 608 963 554 
f 428 554 963 
f 357 259 896 
f 71 896 259 
f 295 250 196 
f 965 960 964 
f 958 965 964 
f 966 961 960 
f 966 960 965 
f 966 294 252 
f 966 252 961 
f 986 967 285 
f 708 336 538 
f 976 360 417 
f 942 180 968 
f 245 545 907 
f 601 907 545 
f 972 969 164 
f 864 951 970 
f 686 650 603 
f 971 966 965 
f 971 965 361 
f 600 493 270 
f 971 294 966 
f 984 835 797 
f 268 827 469 
f 457 972 164 
f 946 385 956 
f 985 622 973 
f 805 973 622 
f 926 967 47 
f 486 548 947 
f 415 533 268 
f 971 435 294 
f 1001 36 519 
f 428 197 427 
f 643 292 536 
f 136 928 949 
f 79 934 974 
f 109 758 930 
f 321 930 758 
f 924 440 975 
f 934 79 425 
f 992 74 617 
f 788 29 895 
f 544 214 485 
f 768 881 155 
f 180 942 740 
f 219 209 14 
f 326 14 209 
f 677 404 838 
f 667 635 782 
f 407 328 694 
f 296 705 924 
f 658 937 950 
f 572 628 878 
f 72 946 735 
f 212 666 53 
f 439 53 666 
f 391 555 494 
f 362 391 494 
f 305 165 235 
f 13 235 165 
f 197 428 963 
f 448 893 928 
f 994 682 921 
f 774 454 748 
f 68 322 30 
f 260 359 976 
f 991 451 843 
f 604 555 391 
f 3 173 208 
f 662 667 782 
f 623 968 288 
f 832 288 968 
f 695 58 977 
f 212 977 58 
f 634 856 920 
f 90 920 856 
f 808 680 512 
f 929 959 912 
f 677 838 369 
f 84 369 838 
f 260 976 384 
f 529 285 176 
f 9 226 979 
f 836 982 981 
f 780 981 982 
f 597 281 510 
f 176 755 529 
f 905 354 447 
f 755 176 289 
f 407 876 963 
f 809 963 876 
f 751 783 606 
f 158 282 849 
f 1002 849 282 
f 480 245 907 
f 943 778 505 
f 411 918 983 
f 646 830 608 
f 780 10 981 
f 786 984 797 
f 668 812 31 
f 655 486 533 
f 918 454 774 
f 161 640 605 
f 973 73 985 
f 79 974 657 
f 975 899 904 
f 437 904 899 
f 603 877 686 
f 45 626 749 
f 919 936 980 
f 986 745 967 
f 534 240 537 
f 842 670 246 
f 700 861 931 
f 91 750 190 
f 836 834 982 
f 474 459 925 
f 529 986 285 
f 903 520 44 
f 803 193 507 
f 831 955 897 
f 964 540 713 
f 832 944 288 
f 950 125 658 
f 490 178 481 
f 217 481 178 
f 940 703 867 
f 798 166 979 
f 835 984 429 
f 908 480 848 
f 825 848 480 
f 766 406 337 
f 751 521 957 
f 987 978 542 
f 725 978 987 
f 572 878 886 
f 727 725 987 
f 244 766 890 
f 337 890 766 
f 850 914 537 
f 883 537 914 
f 397 648 12 
f 574 607 422 
f 769 859 591 
f 844 591 859 
f 583 655 533 
f 3 553 173 
f 779 138 932 
f 933 906 746 
f 449 642 953 
f 721 571 36 
f 727 987 790 
f 852 266 644 
f 514 886 874 
f 988 542 754 
f 875 667 781 
f 407 694 876 
f 936 420 990 
f 408 239 910 
f 840 752 951 
f 902 880 402 
f 588 663 383 
f 823 596 21 
f 996 21 596 
f 790 988 817 
f 178 490 627 
f 831 897 917 
f 617 787 992 
f 684 742 969 
f 526 656 624 
f 525 624 656 
f 417 665 976 
f 906 447 720 
f 751 957 783 
f 412 983 151 
f 841 473 993 
f 997 308 807 
f 758 109 681 
f 545 795 306 
f 1001 903 934 
f 106 526 624 
f 869 483 738 
f 840 34 752 
f 244 890 994 
f 955 566 671 
f 977 52 815 
f 86 569 458 
f 979 39 759 
f 647 525 656 
f 940 867 865 
f 724 586 184 
f 996 995 20 
f 398 823 21 
f 655 548 486 
f 514 948 767 
f 995 996 464 
f 917 898 367 
f 231 810 715 
f 837 997 871 
f 998 871 997 
f 850 241 617 
f 998 872 871 
f 902 402 872 
f 902 872 998 
f 810 231 602 
f 212 463 666 
f 954 999 532 
f 430 146 269 
f 698 901 185 
f 243 994 921 
f 932 746 779 
f 464 779 746 
f 939 573 709 
f 803 318 368 
f 829 696 446 
f 771 721 801 
f 81 801 721 
f 120 511 175 
f 858 885 303 
f 865 853 940 
f 972 684 969 
f 804 717 992 
f 985 992 717 
f 468 44 659 
f 231 927 452 
f 992 985 74 
f 59 679 773 
f 807 773 679 
f 935 459 249 
f 137 351 846 
f 701 152 983 
f 670 842 909 
f 592 750 744 
f 975 475 891 
f 390 574 422 
f 972 289 684 
f 1002 392 361 
f 952 524 482 
f 137 846 316 
f 789 264 551 
f 207 747 460 
f 383 573 588 
f 962 49 595 
f 926 541 967 
f 1000 998 997 
f 756 1000 808 
f 284 334 685 
f 246 628 572 
f 749 738 45 
f 962 166 631 
f 90 211 920 
f 991 83 113 
f 707 14 326 
f 528 745 986 
f 316 906 933 
f 437 899 249 
f 786 797 216 
f 953 980 449 
f 72 385 946 
f 916 278 953 
f 980 953 278 
f 676 517 804 
f 741 641 198 
f 509 743 754 
f 508 211 90 
f 231 715 927 
f 526 106 430 
f 82 51 16 
f 364 419 845 
f 975 904 924 
f 747 207 866 
f 464 746 995 
f 881 768 839 
f 812 136 949 
f 309 997 837 
f 152 805 622 
f 622 985 717 
f 482 888 970 
f 672 810 602 
f 229 224 941 
f 535 264 789 
f 1001 934 425 
f 696 544 216 
f 314 379 598 
f 353 905 117 
f 316 117 905 
f 812 668 136 
f 756 808 512 
f 568 996 596 
f 736 945 8 
f 575 8 945 
f 984 947 527 
f 121 664 511 
f 593 674 18 
f 823 398 999 
f 910 626 409 
f 45 409 626 
f 446 131 829 
f 785 769 591 
f 980 278 919 
f 404 677 873 
f 989 959 929 
f 415 583 533 
f 900 789 258 
f 860 664 657 
f 540 964 959 
f 989 540 959 
f 657 702 860 
f 327 785 857 
f 920 284 685 
f 481 523 453 
f 963 809 197 
f 713 958 964 
f 824 936 990 
f 844 859 776 
f 1002 958 714 
f 942 968 623 
f 59 882 679 
f 364 366 419 
f 970 952 482 
f 863 363 340 
f 9 979 759 
f 282 392 1002 
f 935 249 891 
f 130 839 431 
f 512 664 757 
f 282 887 392 
f 911 999 954 
f 877 283 159 
f 883 534 537 
f 280 535 789 
f 741 674 593 
f 911 823 999 
f 902 998 1000 
f 240 534 858 
f 881 839 535 
f 159 978 877 
f 933 137 316 
f 984 786 947 
f 1001 520 903 
f 747 866 546 
f 816 523 802 
f 993 568 239 
f 323 433 855 
f 311 321 48 
f 807 1000 997 
f 11 483 869 
f 387 812 949 
