#  wavefront obj file written by the visualization toolkit

mtllib livertumor01.mtl

v 186.23699951171875 125.72599792480469 178.36300659179688
v 186.38600158691406 126.56500244140625 178.6179962158203
v 189.3070068359375 127.88800048828125 171.6909942626953
v 188.9949951171875 127.51300048828125 172.25100708007812
v 191.66700744628906 129.53900146484375 173.3459930419922
v 192.00100708007812 129.25599670410156 175.08700561523438
v 189.67599487304688 131.10800170898438 175.85699462890625
v 189.0540008544922 130.16900634765625 175.9550018310547
v 190.7740020751953 127.33699798583984 171.9810028076172
v 190.68899536132812 127.7770004272461 171.52099609375
v 193.45799255371094 123.80799865722656 175.11500549316406
v 192.45899963378906 123.61499786376953 175.68099975585938
v 195.57000732421875 125.16799926757812 177.26600646972656
v 194.8280029296875 125.56999969482422 177.83999633789062
v 191.16900634765625 127.77200317382812 171.5279998779297
v 186.37100219726562 131.4080047607422 173.45399475097656
v 186.26300048828125 131.74899291992188 174.35699462890625
v 190.3249969482422 129.0659942626953 172.23599243164062
v 190.37899780273438 128.71400451660156 171.49000549316406
v 189.41799926757812 124.95999908447266 180.25100708007812
v 189.08900451660156 124.63400268554688 179.8679962158203
v 188.27499389648438 125.52100372314453 180.51699829101562
v 187.77499389648438 126.24500274658203 180.48599243164062
v 188.48399353027344 128.19200134277344 172.0019989013672
v 194.81300354003906 128.77999877929688 178.79400634765625
v 195.20599365234375 130.04800415039062 177.80799865722656
v 189.03500366210938 128.3209991455078 171.4949951171875
v 187.83999633789062 131.50999450683594 172.70399475097656
v 187.60299682617188 130.89300537109375 172.41000366210938
v 186.9320068359375 131.69400024414062 176.76199340820312
v 186.60400390625 131.68099975585938 176.26300048828125
v 197.156005859375 130.83799743652344 175.6060028076172
v 196.80499267578125 130.46400451660156 176.24400329589844
v 190.77000427246094 132.28399658203125 177.35400390625
v 191.39999389648438 133.11300659179688 177.3280029296875
v 189.7220001220703 128.27499389648438 171.3990020751953
v 190.00599670410156 127.62699890136719 171.77000427246094
v 190.47000122070312 128.2030029296875 171.35699462890625
v 191.0709991455078 128.2169952392578 171.2899932861328
v 188.11399841308594 129.44700622558594 178.8520050048828
v 188.04299926757812 129.91299438476562 178.15199279785156
v 191.65499877929688 128.2100067138672 171.3260040283203
v 185.71200561523438 125.31800079345703 176.31199645996094
v 186.3280029296875 125.83300018310547 175.88499450683594
v 191.63699340820312 127.51599884033203 171.86000061035156
v 192.20199584960938 128.18099975585938 171.4550018310547
v 192.49899291992188 128.5989990234375 180.4929962158203
v 191.61300659179688 128.6199951171875 180.7519989013672
v 189.48699951171875 129.72500610351562 179.80299377441406
v 189.16799926757812 129.5959930419922 178.6840057373047
v 192.531005859375 127.69000244140625 172.01300048828125
v 192.1840057373047 127.7959976196289 180.5590057373047
v 188.2449951171875 123.5530014038086 177.11199951171875
v 187.61599731445312 123.7040023803711 177.60000610351562
v 188.3040008544922 133.656005859375 175.39999389648438
v 188.59100341796875 133.66600036621094 174.60800170898438
v 196.1320037841797 130.6510009765625 176.8000030517578
v 195.77499389648438 132.16700744628906 174.01199340820312
v 196.23500061035156 131.7519989013672 174.27000427246094
v 194.95799255371094 132.89199829101562 175.76400756835938
v 194.51600646972656 132.76199340820312 176.1929931640625
v 196.0399932861328 126.6259994506836 177.5449981689453
v 196.27099609375 125.81300354003906 176.8679962158203
v 189.2209930419922 128.68299865722656 171.37100219726562
v 187.35000610351562 131.6439971923828 177.30499267578125
v 189.09100341796875 125.4280014038086 180.69700622558594
v 189.6699981689453 125.94400024414062 180.75900268554688
v 185.13699340820312 128.7740020751953 176.197998046875
v 185.2270050048828 129.32400512695312 176.47300720214844
v 191.01400756835938 128.74000549316406 171.30099487304688
v 191.61700439453125 128.76699829101562 171.2209930419922
v 192.406005859375 128.8820037841797 171.26300048828125
v 192.97300720214844 128.5260009765625 171.68099975585938
v 185.89199829101562 128.48800659179688 173.02099609375
v 185.83700561523438 127.63300323486328 173.37899780273438
v 189.48899841308594 133.32400512695312 176.24400329589844
v 189.35699462890625 133.68099975585938 175.75999450683594
v 196.1999969482422 125.0770034790039 175.57000732421875
v 195.22999572753906 124.42400360107422 175.28700256347656
v 193.11300659179688 131.4709930419922 177.55799865722656
v 193.2259979248047 132.61900329589844 177.34500122070312
v 185.85299682617188 126.16899871826172 177.81300354003906
v 185.93899536132812 127.07599639892578 177.9199981689453
v 190.20399475097656 133.42599487304688 176.49200439453125
v 190.4949951171875 133.7779998779297 176.00599670410156
v 193.65899658203125 129.19200134277344 179.10899353027344
v 186.83900451660156 130.46600341796875 177.54600524902344
v 187.79600524902344 129.01499938964844 172.01100158691406
v 188.58700561523438 128.94500732421875 171.53500366210938
v 195.16000366210938 127.90399932861328 172.7969970703125
v 196.0189971923828 127.8030014038086 173.00100708007812
v 185.74200439453125 127.91200256347656 177.76400756835938
v 187.09500122070312 132.1790008544922 176.23399353027344
v 189.8520050048828 129.24600219726562 173.29800415039062
v 189.78599548339844 129.468994140625 174.5709991455078
v 194.77000427246094 133.4250030517578 175.10499572753906
v 194.38099670410156 133.42599487304688 175.77999877929688
v 195.88999938964844 132.29800415039062 175.0229949951172
v 188.3260040283203 132.8300018310547 176.38900756835938
v 187.71800231933594 132.7310028076172 176.13800048828125
v 189.68699645996094 128.86300659179688 171.56900024414062
v 189.30799865722656 129.44200134277344 172.1719970703125
v 189.11099243164062 129.1750030517578 171.5229949951172
v 190.83299255371094 123.55899810791016 178.2209930419922
v 190.58999633789062 123.97699737548828 178.93800354003906
v 195.78700256347656 131.4709930419922 173.2469940185547
v 190.99099731445312 129.18299865722656 171.61599731445312
v 191.572998046875 129.28599548339844 171.3040008544922
v 192.14100646972656 129.3260040283203 171.21400451660156
v 189.9250030517578 124.33699798583984 179.2270050048828
v 189.802001953125 124.7249984741211 179.56300354003906
v 185.9810028076172 125.27999877929688 177.73599243164062
v 188.8489990234375 130.50399780273438 177.14599609375
v 188.78900146484375 131.64700317382812 177.5
v 187.7790069580078 123.8280029296875 176.44900512695312
v 188.54100036621094 123.85900115966797 178.9530029296875
v 187.9010009765625 124.28900146484375 179.1719970703125
v 189.05299377441406 132.927001953125 176.69200134277344
v 188.84100341796875 133.27099609375 176.1439971923828
v 197.20199584960938 126.5250015258789 175.656005859375
v 196.86399841308594 125.85199737548828 175.32000732421875
v 193.2310028076172 129.25100708007812 171.40899658203125
v 188.33900451660156 124.9990005493164 179.97999572753906
v 185.28399658203125 127.03600311279297 177.281005859375
v 186.93899536132812 125.64099884033203 179.19700622558594
v 186.55799865722656 125.06300354003906 178.62399291992188
v 188.81399536132812 127.14099884033203 180.8000030517578
v 188.6269989013672 127.66500091552734 180.8000030517578
v 185.9080047607422 124.86799621582031 176.94400024414062
v 192.447998046875 130.58999633789062 176.41600036621094
v 191.69200134277344 131.48300170898438 176.5709991455078
v 185.56700134277344 125.5009994506836 176.95700073242188
v 192.46099853515625 129.61500549316406 176.33999633789062
v 192.9239959716797 130.62399291992188 174.83900451660156
v 189.52499389648438 127.62699890136719 180.8000030517578
v 196.9499969482422 127.05400085449219 174.2310028076172
v 196.43899536132812 126.50599670410156 174.19000244140625
v 188.625 129.7010040283203 171.6479949951172
v 192.06399536132812 133.99400329589844 174.0959930419922
v 192.99899291992188 133.85000610351562 174.1739959716797
v 185.46099853515625 130.09300231933594 176.43899536132812
v 185.86300659179688 130.75799560546875 176.31500244140625
v 187.63699340820312 125.74600219726562 179.97999572753906
v 187.11500549316406 124.36699676513672 178.8159942626953
v 186.40499877929688 124.61900329589844 177.96400451660156
v 190.2729949951172 128.468994140625 180.8000030517578
v 189.9219970703125 129.34500122070312 180.61399841308594
v 191.54299926757812 129.6699981689453 171.56399536132812
v 191.15499877929688 129.44900512695312 172.23699951171875
v 192.15499877929688 129.8679962158203 171.3179931640625
v 188.23500061035156 130.875 172.2570037841797
v 188.21099853515625 130.25399780273438 171.73399353027344
v 192.9010009765625 129.7949981689453 171.2259979248047
v 196.34300231933594 127.5999984741211 177.60899353027344
v 195.80499267578125 128.8679962158203 178.00799560546875
v 185.14500427246094 127.00399780273438 176.28599548339844
v 192.18699645996094 133.5019989013672 176.697998046875
v 193.94700622558594 129.10299682617188 172.0570068359375
v 193.73500061035156 129.86700439453125 171.4929962158203
v 191.05299377441406 129.2429962158203 180.7480010986328
v 190.96600341796875 129.67599487304688 180.03900146484375
v 185.5399932861328 130.6750030517578 175.20599365234375
v 197.79100036621094 129.97000122070312 175.13699340820312
v 197.822998046875 129.11099243164062 175.1959991455078
v 187.8939971923828 128.23199462890625 180.32000732421875
v 187.6820068359375 128.85299682617188 179.44200134277344
v 197.1009979248047 126.46700286865234 174.73699951171875
v 197.60800170898438 127.1449966430664 175.00599670410156
v 191.0030059814453 131.875 176.4290008544922
v 196.3780059814453 131.17599487304688 176.04800415039062
v 195.5709991455078 131.21200561523438 176.8000030517578
v 187.718994140625 130.39100646972656 171.9530029296875
v 187.99600219726562 129.69400024414062 171.63099670410156
v 187.06500244140625 126.61699676513672 179.80999755859375
v 187.10800170898438 127.69999694824219 179.96099853515625
v 188.66900634765625 130.1790008544922 172.2530059814453
v 189.67999267578125 126.81700134277344 180.8000030517578
v 190.802001953125 125.70500183105469 179.9739990234375
v 191.81700134277344 125.62000274658203 179.4250030517578
v 193.03900146484375 128.62399291992188 179.72500610351562
v 192.75799560546875 127.88700103759766 180.1179962158203
v 186.62899780273438 124.42900085449219 176.45799255371094
v 187.23699951171875 124.50800323486328 176.1529998779297
v 185.9340057373047 130.843994140625 173.3489990234375
v 194.46099853515625 123.78600311279297 176.16600036621094
v 194.21800231933594 123.82599639892578 175.4219970703125
v 196.6490020751953 125.74500274658203 176.06500244140625
v 191.9250030517578 130.17799377441406 171.86300659179688
v 192.7100067138672 130.61000061035156 171.38099670410156
v 190.47900390625 123.5270004272461 177.18899536132812
v 189.71200561523438 123.54499816894531 178.1230010986328
v 186.32699584960938 124.48799896240234 177.00900268554688
v 185.78700256347656 129.38800048828125 177.36099243164062
v 194.53599548339844 130.08900451660156 172.16000366210938
v 193.44000244140625 130.4219970703125 171.343994140625
v 194.01300048828125 130.6719970703125 171.802001953125
v 193.9320068359375 125.61199951171875 178.697998046875
v 192.8459930419922 125.34700012207031 179.15699768066406
v 189.9029998779297 133.47900390625 173.7100067138672
v 190.73500061035156 133.7209930419922 173.86500549316406
v 185.30299377441406 127.66799926757812 175.593994140625
v 185.14199829101562 128.2480010986328 175.1719970703125
v 191.41099548339844 123.63500213623047 176.25999450683594
v 191.572998046875 124.0469970703125 174.99000549316406
v 193.4709930419922 123.53900146484375 176.38900756835938
v 192.42599487304688 123.5459976196289 176.9029998779297
v 192.27699279785156 130.92799377441406 171.82699584960938
v 192.64100646972656 131.2790069580078 171.718994140625
v 197.41700744628906 130.38800048828125 175.7209930419922
v 187.63600158691406 130.1959991455078 177.80799865722656
v 188.7760009765625 123.54499816894531 178.1230010986328
v 188.1020050048828 123.59300231933594 178.20399475097656
v 193.25900268554688 123.81099700927734 177.30099487304688
v 193.20599365234375 124.21900177001953 177.77200317382812
v 195.70899963378906 125.9229965209961 177.4770050048828
v 186.60899353027344 132.1009979248047 175.697998046875
v 186.718994140625 132.33900451660156 174.88499450683594
v 191.5229949951172 131.88299560546875 175.81500244140625
v 192.1269989013672 131.77200317382812 174.5970001220703
v 197.427001953125 129.82899475097656 176.00599670410156
v 186.25999450683594 131.8979949951172 175.16700744628906
v 186.75 124.2300033569336 177.61000061035156
v 195.48800659179688 130.8350067138672 177.322998046875
v 189.927001953125 133.71499633789062 175.79299926757812
v 194.35299682617188 132.5030059814453 176.63600158691406
v 194.1320037841797 132.14700317382812 177.26699829101562
v 188.19500732421875 132.08200073242188 177.3769989013672
v 185.84100341796875 131.1999969482422 175.14700317382812
v 194.01300048828125 133.822998046875 175.1719970703125
v 193.7830047607422 133.55799865722656 174.14500427246094
v 190.94400024414062 126.68599700927734 172.60699462890625
v 192.0399932861328 126.70500183105469 172.5590057373047
v 188.57400512695312 132.90899658203125 173.52499389648438
v 189.09500122070312 132.5469970703125 172.9980010986328
v 193.61700439453125 127.86799621582031 179.3520050048828
v 195.83099365234375 128.6580047607422 172.8419952392578
v 187.6020050048828 123.90799713134766 178.74600219726562
v 185.60899353027344 126.06700134277344 176.1959991455078
v 190.01300048828125 131.58299255371094 173.86700439453125
v 190.60499572753906 131.8300018310547 175.13600158691406
v 191.70899963378906 132.07400512695312 177.3300018310547
v 197.38499450683594 127.66799926757812 174.3979949951172
v 195.64500427246094 131.67300415039062 176.2209930419922
v 190.54600524902344 124.85600280761719 174.30799865722656
v 189.78500366210938 125.91200256347656 173.33999633789062
v 190.5070037841797 133.01300048828125 177.23699951171875
v 189.281005859375 124.24700164794922 179.33700561523438
v 192.37100219726562 131.29400634765625 172.44000244140625
v 192.93099975585938 131.7209930419922 172.30299377441406
v 193.30499267578125 131.10800170898438 171.6490020751953
v 192.96499633789062 124.68299865722656 178.52200317382812
v 197.3769989013672 130.39199829101562 174.0330047607422
v 197.5570068359375 129.97799682617188 174.2100067138672
v 193.6300048828125 132.92300415039062 176.8000030517578
v 197.65899658203125 129.3350067138672 174.4459991455078
v 189.031005859375 129.91799926757812 173.2519989013672
v 191.69900512695312 126.75299835205078 180.34100341796875
v 190.55799865722656 126.21199798583984 180.6219940185547
v 188.2469940185547 133.24000549316406 175.98899841308594
v 193.80999755859375 124.572998046875 177.7969970703125
v 194.3719940185547 133.5189971923828 174.4669952392578
v 195.08700561523438 132.83599853515625 174.12899780273438
v 194.01300048828125 133.1179962158203 176.26499938964844
v 191.7550048828125 128.968994140625 177.23699951171875
v 195.71499633789062 124.99700164794922 174.7550048828125
v 188.26499938964844 130.8159942626953 177.5800018310547
v 193.58299255371094 132.95700073242188 173.18099975585938
v 185.20399475097656 128.80099487304688 174.57000732421875
v 185.52099609375 129.0290069580078 173.35400390625
v 194.92599487304688 126.37799835205078 178.61599731445312
v 194.0590057373047 126.71399688720703 179.14700317382812
v 192.24899291992188 133.86300659179688 175.84500122070312
v 191.94200134277344 134.13499450683594 174.9810028076172
v 187.7010040283203 131.29400634765625 177.5469970703125
v 186.16099548339844 124.86100006103516 176.32699584960938
v 187.39199829101562 126.68099975585938 173.09300231933594
v 188.41600036621094 126.34100341796875 173.13999938964844
v 189.0850067138672 123.54499816894531 177.07699584960938
v 191.1439971923828 134.12399291992188 174.52499389648438
v 187.83900451660156 133.30599975585938 174.8979949951172
v 196.1790008544922 129.86399841308594 177.3730010986328
v 191.3679962158203 126.13999938964844 180.04600524902344
v 187.25900268554688 126.28500366210938 173.81100463867188
v 189.0679931640625 133.8459930419922 175.20399475097656
v 189.875 133.88800048828125 175.16000366210938
v 193.9600067138672 125.76200103759766 173.1020050048828
v 193.26699829101562 124.7959976196289 173.6300048828125
v 187.76499938964844 132.29200744628906 176.7519989013672
v 196.093994140625 131.95199584960938 175.5850067138672
v 195.51499938964844 132.33399963378906 175.75399780273438
v 195.03500366210938 132.18499755859375 176.26600646972656
v 190.33999633789062 133.86700439453125 174.45899963378906
v 190.65899658203125 124.98400115966797 179.41299438476562
v 194.97000122070312 125.96299743652344 173.4149932861328
v 195.3679962158203 125.37999725341797 174.16700744628906
v 192.2530059814453 129.19200134277344 178.5540008544922
v 192.75999450683594 129.33900451660156 179.06300354003906
v 188.6219940185547 132.53799438476562 177.0709991455078
v 187.39500427246094 132.73899841308594 174.38600158691406
v 188.2010040283203 133.16799926757812 174.17100524902344
v 189.68099975585938 126.88899993896484 172.5590057373047
v 186.45700073242188 131.08799743652344 176.9199981689453
v 186.1719970703125 131.43299865722656 175.92100524902344
v 196.64100646972656 127.66200256347656 173.57400512695312
v 195.677001953125 127.67900085449219 178.45399475097656
v 188.9149932861328 133.34800720214844 173.94500732421875
v 188.66000366210938 126.29499816894531 180.76300048828125
v 189.32699584960938 130.4219970703125 178.3699951171875
v 189.34800720214844 130.4219970703125 178.31100463867188
v 185.2239990234375 129.96800231933594 175.2169952392578
v 194.7259979248047 130.6479949951172 177.6999969482422
v 192.5659942626953 133.9669952392578 174.98599243164062
v 188.781005859375 125.02899932861328 180.447998046875
v 186.56399536132812 127.02899932861328 173.23199462890625
v 191.76699829101562 123.93800354003906 178.58599853515625
v 191.61000061035156 123.5479965209961 177.68099975585938
v 191.4199981689453 133.71200561523438 173.56399536132812
v 185.01400756835938 128.0489959716797 176.7100067138672
v 187.8520050048828 132.61199951171875 173.6269989013672
v 195.9550018310547 130.13499450683594 172.843994140625
v 196.51499938964844 130.03799438476562 172.94700622558594
v 192.41400146484375 130.04200744628906 177.88800048828125
v 193.46400451660156 130.3000030517578 178.2480010986328
v 188.5570068359375 129.41299438476562 179.4980010986328
v 187.55099487304688 125.78900146484375 174.7259979248047
v 187.2899932861328 124.80999755859375 179.1699981689453
v 185.9969940185547 129.51499938964844 172.89700317382812
v 186.58799743652344 130.11199951171875 172.75399780273438
v 193.56300354003906 133.53599548339844 175.97900390625
v 195.49400329589844 132.68099975585938 174.9040069580078
v 191.26199340820312 132.11399841308594 174.677001953125
v 191.26499938964844 125.76000213623047 173.1959991455078
v 190.25100708007812 131.74400329589844 176.7519989013672
v 192.81500244140625 133.70700073242188 175.95199584960938
v 187.73599243164062 133.177001953125 175.7429962158203
v 192.63499450683594 125.6449966430664 173.0489959716797
v 187.15699768066406 132.66299438476562 175.5050048828125
v 191.96400451660156 129.26400756835938 179.3560028076172
v 186.21099853515625 127.4489974975586 178.34100341796875
v 188.60400390625 124.3550033569336 179.43600463867188
v 193.1929931640625 126.802001953125 172.6540069580078
v 195.23599243164062 124.45099639892578 176.67100524902344
v 192.1439971923828 131.1479949951172 177.26800537109375
v 193.7760009765625 128.0240020751953 172.43099975585938
v 189.8070068359375 133.03199768066406 176.90699768066406
v 195.48300170898438 126.9209976196289 173.11399841308594
v 195.72799682617188 126.19499969482422 173.80599975585938
v 194.51800537109375 126.91799926757812 172.86599731445312
v 192.5240020751953 123.88400268554688 177.75999450683594
v 195.00999450683594 131.7729949951172 176.8000030517578
v 187.2050018310547 129.1719970703125 178.33900451660156
v 186.82899475097656 129.5070037841797 177.7530059814453
v 192.1479949951172 132.95199584960938 172.9770050048828
v 192.80799865722656 132.97300720214844 173.05099487304688
v 195.08799743652344 129.6280059814453 172.6060028076172
v 194.83700561523438 128.77499389648438 172.6719970703125
v 187.20799255371094 127.38800048828125 172.83700561523438
v 188.2010040283203 127.0469970703125 172.7550048828125
v 192.68600463867188 126.14700317382812 179.4290008544922
v 193.66799926757812 124.34700012207031 174.23199462890625
v 196.75100708007812 130.08700561523438 176.71299743652344
v 187.16700744628906 128.2830047607422 179.47300720214844
v 187.0279998779297 128.54600524902344 178.9709930419922
v 190.6230010986328 124.1510009765625 175.2760009765625
v 189.4759979248047 124.55500030517578 175.14999389648438
v 196.08299255371094 125.08799743652344 176.51699829101562
v 193.30999755859375 133.468994140625 173.57400512695312
v 194.88499450683594 127.3479995727539 178.9739990234375
v 196.33099365234375 125.74700164794922 174.62100219726562
v 188.0260009765625 127.71399688720703 172.5540008544922
v 192.57400512695312 129.00799560546875 179.77200317382812
v 188.34300231933594 124.98799896240234 175.197998046875
v 191.9759979248047 132.0919952392578 173.7310028076172
v 189.48699951171875 123.83899688720703 178.91099548339844
v 190.66900634765625 129.22300720214844 178.25900268554688
v 190.8350067138672 129.0449981689453 173.4929962158203
v 194.45399475097656 129.8800048828125 178.38499450683594
v 189.3350067138672 131.34300231933594 173.18899536132812
v 189.46200561523438 133.7310028076172 174.4550018310547
v 192.64500427246094 124.09700012207031 174.53500366210938
v 185.46499633789062 127.68399810791016 174.32899475097656
v 186.13099670410156 127.03099822998047 174.01800537109375
v 189.79400634765625 123.91799926757812 176.02000427246094
v 185.2899932861328 126.21299743652344 176.92799377441406
v 188.53900146484375 123.83200073242188 176.28500366210938
v 193.06700134277344 133.19400024414062 176.7830047607422
v 191.04600524902344 133.5019989013672 176.75999450683594
v 195.44700622558594 126.54900360107422 178.14300537109375
v 189.99600219726562 125.3740005493164 180.2209930419922
v 193.2220001220703 133.89599609375 175.06900024414062
v 189.68499755859375 129.3090057373047 176.76100158691406
v 187.4669952392578 129.7779998779297 172.06399536132812
v 196.6820068359375 126.58999633789062 176.64599609375
v 194.92300415039062 131.39100646972656 177.322998046875
v 192.3939971923828 133.531005859375 173.35299682617188
v 189.31100463867188 132.41099548339844 177.34500122070312
v 191.95799255371094 129.22000122070312 180.34100341796875
v 197.4949951171875 127.48600006103516 175.98399353027344
v 189.8990020751953 132.27499389648438 177.43299865722656
v 188.61399841308594 129.06500244140625 180.23399353027344
v 196.1230010986328 126.99199676513672 173.5469970703125
v 185.7530059814453 127.30999755859375 174.93099975585938
v 185.40199279785156 128.2259979248047 173.75900268554688
v 190.6020050048828 133.2100067138672 173.17599487304688
v 186.4550018310547 127.87300109863281 172.8820037841797
v 194.8040008544922 131.16700744628906 172.58399963378906
v 190.41400146484375 134.0030059814453 175.2220001220703
v 186.63299560546875 127.56900024414062 179.11099243164062
v 187.3800048828125 128.33599853515625 172.5590057373047
v 194.10800170898438 123.95899963378906 177.2270050048828
v 192.47000122070312 132.8769989013672 177.33999633789062
v 187.29800415039062 125.45099639892578 175.66700744628906
v 187.93699645996094 124.39700317382812 175.99200439453125
v 194.67100524902344 124.73500061035156 177.5850067138672
v 194.42100524902344 131.95799255371094 172.8000030517578
v 194.63600158691406 124.51200103759766 174.55299377441406
v 186.58900451660156 126.51899719238281 175.00799560546875
v 187.03900146484375 132.1510009765625 173.75999450683594
v 191.16000366210938 128.72799682617188 175.2469940185547
v 187.11099243164062 129.41900634765625 172.4929962158203
v 185.9669952392578 130.26199340820312 177.18499755859375
v 187.1510009765625 124.00199890136719 178.1510009765625
v 196.5709991455078 128.51100158691406 173.15199279785156
v 189.08799743652344 128.343994140625 180.8000030517578
v 197.0590057373047 129.3260040283203 177.01400756835938
v 192.35699462890625 131.32400512695312 175.41299438476562
v 197.18800354003906 128.47500610351562 173.92100524902344
v 197.66200256347656 128.51300048828125 174.64500427246094
v 191.85400390625 124.73100280761719 179.14599609375
v 197.63299560546875 128.8350067138672 176.10400390625
v 190.88299560546875 127.51699829101562 180.8000030517578
v 192.7899932861328 126.9489974975586 179.68899536132812
v 185.91400146484375 126.91300201416016 175.677001953125
v 196.75 131.40699768066406 175.01800537109375
v 196.78599548339844 131.10899353027344 173.8979949951172
v 187.83900451660156 127.22899627685547 180.62600708007812
v 188.3780059814453 125.70600128173828 173.96800231933594
v 186.22900390625 128.80499267578125 177.80799865722656
v 188.7449951171875 124.26899719238281 175.7830047607422
v 187.14700317382812 123.98200225830078 176.927001953125
v 189.50399780273438 133.0679931640625 173.26199340820312
v 195.51800537109375 130.59300231933594 172.76600646972656
v 192.54100036621094 130.2310028076172 174.02999877929688
v 191.3300018310547 133.96099853515625 175.76400756835938
v 195.7949981689453 129.3990020751953 172.80099487304688
v 197.8070068359375 128.01199340820312 175.21600341796875
v 193.66200256347656 132.26199340820312 172.7310028076172
v 193.82000732421875 131.5240020751953 172.2729949951172
v 196.53599548339844 129.29600524902344 172.9600067138672
v 194.28700256347656 131.19400024414062 177.5970001220703
v 185.281005859375 129.35800170898438 173.94700622558594
v 185.56199645996094 129.80099487304688 173.2570037841797
v 186.55599975585938 128.93800354003906 172.76199340820312
v 192.54800415039062 131.98500061035156 177.531005859375
v 187.81900024414062 125.0009994506836 179.45799255371094
v 189.3780059814453 131.3800048828125 177.3459930419922
v 188.7030029296875 129.94200134277344 177.64599609375
v 186.7449951171875 125.01899719238281 176.02999877929688
v 189.34800720214844 130.4219970703125 178.3699951171875
v 195.18899536132812 132.05499267578125 173.2530059814453
v 197.16200256347656 129.2469940185547 173.5330047607422
v 197.06199645996094 129.88800048828125 173.30799865722656
v 185.27699279785156 129.86500549316406 174.0290069580078
v 185.59100341796875 130.33799743652344 173.3780059814453
v 185.99899291992188 130.35000610351562 172.96299743652344
v 189.2530059814453 130.63600158691406 174.07699584960938
v 187.18299865722656 130.31900024414062 172.45700073242188
v 188.75 133.6320037841797 175.7949981689453
v 186.43600463867188 128.1820068359375 178.4080047607422
v 188.87600708007812 130.72000122070312 172.9250030517578
v 194.38999938964844 132.75900268554688 173.39100646972656
v 190.67999267578125 132.19400024414062 173.48899841308594
v 197.58599853515625 130.57699584960938 175.02699279785156
v 185.46499633789062 130.5 174.08799743652344
v 196.63999938964844 128.6820068359375 177.5780029296875
v 189.66900634765625 132.0570068359375 173
v 197.05299377441406 128.01100158691406 177.01199340820312
v 197.24000549316406 130.8209991455078 174.5500030517578
v 196.94700622558594 130.52000427246094 173.45799255371094
v 186.50399780273438 130.9340057373047 172.9320068359375
v 187.11500549316406 130.93800354003906 172.72300720214844
v 188.75999450683594 131.6840057373047 172.77099609375
v 192.552001953125 131.1439971923828 173.81900024414062
v 192.46400451660156 131.73899841308594 173.26600646972656
v 192.17799377441406 130.5800018310547 172.68499755859375
v 191.60800170898438 132.53500366210938 173.24099731445312
v 189.25399780273438 125.1760025024414 174.35499572753906
v 196.3679962158203 130.87600708007812 173.22900390625
v 185.7830047607422 131.0590057373047 174.14500427246094
v 187.0760040283203 131.5330047607422 173.0019989013672
v 188.24899291992188 132.28500366210938 173.0749969482422
v 185.4010009765625 128.78199768066406 177.2779998779297
v 194.3979949951172 125.05400085449219 173.79299926757812
v 187.5919952392578 132.052001953125 173.13600158691406
v 192.30799865722656 132.3769989013672 173.1179962158203
v 192.9499969482422 132.3560028076172 172.85400390625
v 190.11000061035156 132.65499877929688 172.96400451660156
v 190.98300170898438 132.73599243164062 172.97500610351562
v 191.5500030517578 133.16200256347656 173.01600646972656
v 189.32699584960938 130.4010009765625 178.3699951171875
v 191.92300415039062 124.75299835205078 173.88900756835938
v 185.1479949951172 129.3159942626953 175.16200256347656

g grp1
usemtl mtl1
f 125 2 1 
f 82 1 2 
f 37 4 3 
f 24 3 4 
f 419 6 5 
f 443 5 6 
f 113 8 7 
f 466 7 8 
f 37 10 9 
f 15 9 10 
f 205 12 11 
f 380 11 12 
f 215 14 13 
f 414 13 14 
f 45 9 15 
f 489 17 16 
f 418 16 17 
f 107 19 18 
f 101 18 19 
f 313 21 20 
f 111 20 21 
f 307 23 22 
f 143 22 23 
f 27 3 24 
f 155 26 25 
f 377 25 26 
f 36 3 27 
f 151 29 28 
f 481 28 29 
f 93 31 30 
f 302 30 31 
f 170 33 32 
f 209 32 33 
f 241 35 34 
f 246 34 35 
f 38 37 36 
f 3 36 37 
f 10 37 38 
f 39 15 10 
f 39 10 38 
f 457 41 40 
f 351 40 41 
f 42 15 39 
f 45 15 42 
f 238 44 43 
f 275 43 44 
f 46 45 42 
f 51 45 46 
f 397 48 47 
f 52 47 48 
f 375 50 49 
f 324 49 50 
f 73 51 46 
f 431 52 48 
f 212 54 53 
f 115 53 54 
f 284 56 55 
f 280 55 56 
f 170 57 33 
f 361 33 57 
f 98 59 58 
f 106 58 59 
f 97 61 60 
f 291 60 61 
f 64 36 27 
f 215 63 62 
f 393 62 63 
f 89 64 27 
f 288 30 65 
f 302 65 30 
f 101 36 64 
f 389 67 66 
f 307 66 67 
f 19 38 36 
f 492 69 68 
f 502 68 69 
f 101 19 36 
f 70 39 38 
f 70 38 19 
f 71 42 39 
f 71 39 70 
f 72 46 42 
f 72 42 71 
f 72 73 46 
f 405 75 74 
f 403 74 75 
f 224 77 76 
f 119 76 77 
f 342 79 78 
f 265 78 79 
f 226 81 80 
f 454 80 81 
f 2 83 82 
f 124 82 83 
f 387 85 84 
f 224 84 85 
f 377 86 25 
f 235 25 86 
f 274 65 87 
f 302 87 65 
f 173 89 88 
f 24 88 89 
f 236 91 90 
f 346 90 91 
f 339 92 83 
f 124 83 92 
f 216 31 93 
f 256 95 94 
f 376 94 95 
f 229 97 96 
f 60 96 97 
f 103 64 89 
f 330 98 58 
f 259 100 99 
f 288 99 100 
f 103 102 101 
f 18 101 102 
f 101 64 103 
f 315 105 104 
f 191 104 105 
f 488 106 59 
f 149 107 18 
f 107 70 19 
f 108 71 70 
f 108 70 107 
f 109 72 71 
f 109 71 108 
f 293 111 110 
f 247 110 111 
f 1 82 112 
f 132 112 82 
f 293 110 105 
f 374 105 110 
f 456 114 113 
f 266 113 114 
f 385 53 115 
f 340 117 116 
f 237 116 117 
f 76 119 118 
f 99 118 119 
f 187 121 120 
f 167 120 121 
f 158 73 122 
f 72 122 73 
f 313 123 21 
f 340 21 123 
f 1 126 125 
f 326 125 126 
f 89 27 24 
f 135 128 127 
f 436 127 128 
f 275 129 43 
f 132 43 129 
f 343 131 130 
f 426 130 131 
f 112 132 129 
f 130 134 133 
f 443 133 134 
f 177 135 127 
f 167 137 136 
f 401 136 137 
f 103 89 138 
f 173 138 89 
f 312 140 139 
f 395 139 140 
f 102 103 138 
f 421 142 141 
f 162 141 142 
f 22 143 123 
f 455 123 143 
f 126 145 144 
f 222 144 145 
f 160 147 146 
f 424 146 147 
f 107 149 148 
f 188 148 149 
f 148 108 107 
f 150 109 108 
f 150 108 148 
f 176 152 151 
f 172 151 152 
f 153 109 150 
f 72 109 153 
f 475 155 154 
f 305 154 155 
f 318 156 124 
f 384 124 156 
f 411 157 35 
f 387 35 157 
f 159 158 122 
f 159 122 153 
f 72 153 122 
f 397 161 160 
f 147 160 161 
f 310 141 162 
f 194 158 159 
f 220 164 163 
f 255 163 164 
f 400 166 165 
f 362 165 166 
f 136 168 167 
f 120 167 168 
f 241 34 169 
f 333 169 34 
f 243 171 170 
f 57 170 171 
f 152 173 172 
f 392 172 173 
f 436 175 174 
f 408 174 175 
f 152 176 138 
f 102 138 176 
f 392 173 88 
f 307 177 127 
f 173 152 138 
f 293 179 178 
f 282 178 179 
f 47 181 180 
f 235 180 181 
f 458 183 182 
f 440 182 183 
f 480 184 16 
f 489 16 184 
f 205 186 185 
f 79 185 186 
f 188 150 148 
f 121 187 78 
f 366 78 187 
f 189 153 150 
f 189 150 188 
f 104 191 190 
f 278 190 191 
f 195 153 189 
f 222 145 192 
f 129 192 145 
f 195 159 153 
f 69 193 141 
f 421 141 193 
f 181 47 52 
f 196 194 159 
f 196 159 195 
f 359 198 197 
f 251 197 198 
f 292 200 199 
f 404 199 200 
f 318 202 201 
f 381 201 202 
f 364 204 203 
f 12 203 204 
f 213 206 205 
f 12 205 206 
f 248 208 207 
f 189 207 208 
f 473 32 209 
f 266 210 41 
f 351 41 210 
f 116 212 211 
f 53 211 212 
f 260 214 213 
f 349 213 214 
f 13 63 215 
f 337 217 216 
f 221 216 217 
f 331 219 218 
f 426 218 219 
f 209 33 220 
f 361 220 33 
f 303 216 221 
f 182 222 192 
f 322 130 133 
f 344 51 73 
f 17 221 217 
f 281 223 26 
f 311 26 223 
f 285 77 224 
f 254 226 225 
f 350 225 226 
f 250 196 195 
f 298 227 114 
f 266 114 227 
f 142 228 162 
f 489 162 228 
f 261 230 229 
f 390 229 230 
f 45 232 231 
f 332 231 232 
f 441 234 233 
f 491 233 234 
f 368 25 235 
f 356 236 90 
f 188 207 189 
f 422 54 237 
f 212 237 54 
f 384 238 132 
f 43 132 238 
f 472 240 239 
f 7 239 240 
f 250 189 208 
f 411 35 241 
f 168 136 242 
f 304 242 136 
f 289 243 170 
f 487 245 244 
f 332 244 245 
f 324 40 166 
f 363 166 40 
f 399 34 246 
f 237 212 116 
f 111 21 247 
f 340 247 21 
f 344 73 158 
f 249 208 248 
f 250 208 249 
f 448 250 249 
f 260 251 214 
f 349 214 251 
f 223 57 171 
f 473 253 252 
f 462 252 253 
f 126 1 112 
f 263 254 225 
f 163 255 253 
f 461 253 255 
f 102 176 256 
f 470 256 176 
f 431 258 257 
f 282 257 258 
f 263 225 61 
f 291 61 225 
f 468 259 119 
f 99 119 259 
f 96 262 261 
f 471 261 262 
f 329 263 97 
f 61 97 263 
f 296 133 264 
f 6 264 133 
f 369 78 265 
f 274 266 227 
f 367 230 267 
f 471 267 230 
f 389 20 111 
f 451 269 268 
f 403 268 269 
f 368 271 270 
f 197 270 271 
f 312 273 272 
f 444 272 273 
f 227 65 274 
f 326 144 117 
f 237 117 144 
f 358 277 276 
f 283 276 277 
f 383 190 278 
f 273 139 279 
f 317 279 139 
f 335 55 280 
f 26 155 281 
f 475 281 155 
f 258 178 282 
f 314 276 283 
f 77 285 284 
f 379 284 285 
f 368 235 271 
f 432 271 235 
f 493 287 286 
f 336 286 287 
f 316 190 203 
f 383 203 190 
f 93 30 288 
f 333 240 169 
f 331 169 240 
f 98 290 289 
f 243 289 290 
f 290 291 243 
f 350 243 291 
f 174 125 143 
f 455 143 125 
f 330 58 262 
f 460 262 58 
f 279 200 292 
f 389 111 293 
f 347 295 294 
f 493 294 295 
f 210 266 274 
f 371 297 296 
f 322 296 297 
f 118 99 298 
f 288 298 99 
f 280 300 299 
f 319 299 300 
f 408 2 174 
f 125 174 2 
f 358 301 277 
f 245 277 301 
f 426 131 218 
f 169 218 131 
f 31 303 302 
f 142 302 303 
f 434 289 170 
f 401 304 136 
f 154 305 62 
f 388 62 305 
f 348 294 286 
f 493 286 294 
f 379 199 306 
f 441 306 199 
f 66 307 22 
f 459 309 308 
f 500 308 309 
f 474 310 162 
f 377 26 311 
f 390 140 312 
f 20 66 313 
f 22 313 66 
f 382 314 283 
f 104 316 315 
f 349 315 316 
f 279 317 200 
f 404 200 317 
f 201 156 318 
f 300 233 319 
f 491 319 233 
f 488 321 320 
f 445 320 321 
f 297 323 322 
f 80 322 323 
f 400 49 324 
f 417 283 325 
f 437 325 283 
f 455 326 117 
f 436 23 307 
f 429 179 293 
f 436 165 175 
f 362 175 165 
f 465 328 327 
f 453 327 328 
f 229 329 97 
f 290 98 330 
f 218 169 331 
f 231 332 245 
f 7 240 333 
f 301 231 245 
f 386 334 157 
f 272 157 334 
f 60 291 290 
f 384 132 82 
f 429 293 105 
f 55 335 259 
f 100 259 335 
f 232 336 332 
f 501 332 336 
f 359 197 271 
f 335 337 100 
f 93 100 337 
f 341 336 232 
f 375 338 264 
f 296 264 338 
f 469 92 339 
f 116 247 340 
f 348 286 341 
f 336 341 286 
f 410 185 342 
f 79 342 185 
f 424 165 128 
f 436 128 165 
f 104 190 316 
f 454 241 343 
f 131 343 241 
f 356 344 158 
f 118 345 76 
f 84 76 345 
f 401 347 346 
f 294 346 347 
f 366 63 13 
f 346 294 348 
f 419 264 6 
f 258 177 67 
f 307 67 177 
f 394 171 350 
f 243 350 171 
f 357 276 314 
f 210 352 351 
f 438 351 352 
f 395 354 353 
f 495 353 354 
f 445 356 355 
f 158 355 356 
f 358 276 357 
f 303 228 142 
f 179 198 359 
f 432 235 181 
f 416 11 360 
f 380 360 11 
f 166 363 362 
f 408 362 363 
f 388 215 62 
f 383 365 364 
f 244 364 365 
f 13 342 366 
f 78 366 342 
f 186 205 11 
f 230 367 140 
f 395 140 367 
f 347 369 295 
f 265 295 369 
f 56 300 280 
f 87 210 274 
f 409 370 357 
f 358 357 370 
f 384 82 124 
f 442 320 355 
f 445 355 320 
f 133 296 322 
f 410 205 185 
f 338 371 296 
f 418 299 319 
f 439 372 365 
f 487 365 372 
f 180 235 86 
f 331 373 219 
f 484 219 373 
f 116 211 374 
f 191 374 211 
f 349 206 213 
f 49 161 375 
f 338 375 161 
f 419 376 95 
f 57 223 281 
f 323 377 311 
f 476 239 378 
f 466 378 239 
f 56 379 306 
f 163 209 220 
f 247 116 374 
f 456 113 7 
f 268 202 68 
f 318 68 202 
f 9 45 231 
f 24 4 370 
f 358 370 4 
f 382 381 75 
f 403 75 381 
f 406 194 196 
f 314 382 75 
f 405 314 75 
f 280 337 335 
f 364 203 383 
f 408 339 2 
f 83 2 339 
f 386 254 329 
f 263 329 254 
f 9 231 301 
f 485 188 5 
f 149 5 188 
f 413 385 115 
f 425 220 361 
f 334 386 329 
f 444 387 157 
f 389 66 20 
f 189 250 195 
f 344 90 348 
f 346 348 90 
f 393 187 120 
f 4 301 358 
f 301 4 37 
f 407 292 285 
f 379 285 292 
f 329 229 390 
f 95 8 391 
f 457 391 8 
f 334 329 390 
f 301 37 9 
f 398 393 120 
f 311 223 394 
f 171 394 223 
f 450 311 394 
f 354 395 367 
f 323 297 86 
f 180 86 297 
f 341 232 51 
f 45 51 232 
f 87 352 210 
f 396 345 118 
f 455 117 340 
f 224 76 84 
f 298 396 118 
f 389 178 258 
f 105 374 191 
f 145 112 129 
f 371 338 397 
f 161 397 338 
f 306 300 56 
f 126 112 145 
f 191 211 278 
f 53 278 211 
f 477 393 398 
f 345 396 399 
f 456 399 396 
f 139 273 312 
f 187 63 366 
f 401 346 91 
f 324 166 400 
f 304 401 91 
f 371 180 297 
f 417 402 382 
f 381 382 402 
f 499 404 317 
f 442 194 406 
f 85 407 224 
f 285 224 407 
f 288 100 93 
f 453 405 74 
f 362 408 175 
f 409 357 405 
f 314 405 357 
f 368 388 305 
f 453 409 405 
f 452 327 269 
f 74 269 327 
f 414 260 410 
f 213 410 260 
f 157 411 386 
f 81 386 411 
f 444 85 387 
f 372 413 412 
f 183 412 413 
f 260 414 14 
f 202 403 381 
f 460 406 415 
f 448 415 406 
f 401 137 347 
f 369 347 137 
f 380 12 204 
f 213 205 410 
f 265 416 295 
f 493 295 416 
f 47 371 397 
f 351 363 40 
f 341 51 344 
f 288 227 298 
f 246 35 387 
f 433 417 44 
f 412 44 417 
f 217 299 418 
f 422 144 222 
f 440 115 54 
f 67 389 258 
f 180 371 47 
f 341 344 348 
f 376 419 5 
f 298 114 396 
f 456 396 114 
f 390 312 334 
f 272 334 312 
f 303 221 228 
f 17 228 221 
f 467 392 420 
f 88 420 392 
f 69 141 310 
f 423 304 91 
f 440 422 222 
f 427 304 423 
f 433 402 417 
f 400 165 424 
f 74 403 269 
f 429 315 251 
f 349 251 315 
f 416 186 11 
f 430 220 425 
f 409 24 370 
f 342 414 410 
f 409 88 24 
f 255 428 427 
f 242 427 428 
f 105 315 429 
f 433 201 402 
f 381 402 201 
f 48 397 160 
f 483 426 219 
f 472 331 240 
f 477 430 425 
f 299 337 280 
f 60 290 330 
f 356 90 344 
f 468 284 55 
f 48 146 431 
f 135 431 146 
f 388 368 270 
f 423 91 236 
f 478 435 434 
f 59 434 435 
f 206 349 316 
f 453 74 327 
f 245 437 277 
f 283 277 437 
f 409 420 88 
f 453 420 409 
f 257 359 432 
f 271 432 359 
f 502 268 68 
f 229 96 261 
f 391 419 95 
f 247 374 110 
f 469 351 438 
f 18 102 94 
f 256 94 102 
f 383 385 439 
f 413 439 385 
f 442 355 194 
f 158 194 355 
f 59 289 434 
f 418 17 217 
f 115 440 183 
f 18 376 149 
f 5 149 376 
f 94 376 18 
f 417 325 412 
f 372 412 325 
f 307 127 436 
f 497 234 441 
f 106 442 406 
f 375 264 419 
f 6 133 443 
f 407 85 444 
f 445 236 356 
f 288 65 227 
f 430 446 164 
f 428 164 446 
f 415 448 447 
f 249 447 448 
f 449 423 236 
f 445 449 236 
f 220 430 164 
f 461 423 449 
f 323 311 450 
f 452 269 451 
f 463 452 451 
f 322 343 130 
f 135 177 431 
f 258 431 177 
f 466 239 7 
f 379 292 199 
f 238 384 156 
f 420 453 328 
f 411 241 454 
f 49 400 147 
f 424 147 400 
f 123 455 340 
f 246 345 399 
f 333 399 456 
f 113 266 457 
f 41 457 266 
f 323 86 377 
f 393 63 187 
f 487 372 437 
f 325 437 372 
f 428 446 242 
f 168 242 446 
f 135 424 128 
f 115 183 413 
f 44 458 275 
f 182 275 458 
f 275 192 129 
f 352 193 438 
f 492 438 193 
f 241 169 131 
f 422 440 54 
f 500 459 308 
f 81 254 386 
f 106 406 460 
f 305 25 368 
f 305 155 25 
f 488 320 442 
f 146 48 160 
f 321 449 445 
f 462 461 449 
f 462 449 321 
f 253 461 462 
f 464 452 463 
f 474 464 463 
f 465 327 452 
f 465 452 464 
f 278 53 385 
f 467 420 328 
f 333 456 7 
f 436 174 23 
f 143 23 174 
f 172 392 467 
f 259 468 55 
f 429 198 179 
f 339 408 469 
f 363 469 408 
f 455 125 326 
f 466 95 256 
f 439 413 372 
f 466 256 470 
f 230 261 471 
f 486 331 472 
f 34 399 333 
f 209 163 473 
f 253 473 163 
f 463 310 474 
f 281 475 425 
f 477 425 475 
f 230 140 390 
f 154 62 393 
f 450 80 323 
f 482 476 378 
f 303 31 216 
f 14 215 388 
f 398 430 477 
f 479 462 321 
f 479 435 478 
f 252 462 479 
f 412 183 458 
f 464 474 184 
f 489 184 474 
f 184 465 464 
f 480 328 465 
f 480 465 184 
f 98 289 59 
f 481 328 480 
f 467 328 481 
f 147 161 49 
f 29 172 467 
f 481 29 467 
f 424 135 146 
f 151 470 176 
f 482 470 151 
f 378 470 482 
f 466 470 378 
f 219 484 483 
f 248 483 484 
f 188 485 207 
f 248 207 485 
f 483 485 443 
f 5 443 485 
f 248 485 483 
f 403 202 268 
f 499 353 486 
f 495 486 353 
f 433 44 238 
f 446 430 398 
f 234 476 482 
f 204 364 244 
f 434 170 32 
f 255 164 428 
f 365 487 244 
f 488 435 479 
f 479 321 488 
f 433 156 201 
f 252 479 478 
f 28 482 151 
f 490 481 480 
f 490 480 16 
f 28 481 490 
f 426 134 130 
f 222 182 440 
f 172 29 151 
f 365 383 439 
f 494 319 491 
f 454 81 411 
f 92 492 318 
f 68 318 492 
f 203 206 316 
f 337 299 217 
f 406 196 448 
f 250 448 196 
f 40 324 50 
f 360 493 416 
f 435 488 59 
f 429 251 198 
f 106 488 442 
f 418 490 16 
f 494 28 490 
f 494 490 418 
f 491 28 494 
f 422 237 144 
f 87 302 421 
f 142 421 302 
f 472 239 476 
f 444 273 279 
f 460 471 262 
f 484 249 248 
f 242 304 427 
f 496 249 484 
f 93 337 216 
f 496 484 495 
f 373 495 484 
f 447 249 496 
f 491 482 28 
f 80 454 343 
f 77 468 119 
f 473 252 478 
f 124 92 318 
f 477 154 393 
f 457 40 50 
f 193 87 421 
f 460 58 106 
f 492 193 69 
f 17 489 228 
f 418 319 494 
f 234 482 491 
f 483 443 134 
f 282 359 257 
f 192 275 182 
f 293 178 389 
f 497 476 234 
f 497 472 476 
f 498 472 497 
f 13 414 342 
f 226 450 394 
f 498 486 472 
f 373 331 486 
f 495 373 486 
f 354 496 495 
f 471 415 447 
f 361 57 281 
f 375 419 391 
f 471 460 415 
f 306 441 233 
f 77 284 468 
f 369 121 78 
f 32 478 434 
f 404 497 441 
f 14 197 260 
f 251 260 197 
f 404 498 497 
f 407 279 292 
f 499 486 498 
f 499 498 404 
f 425 361 281 
f 473 478 32 
f 466 8 95 
f 354 267 496 
f 447 496 267 
f 471 447 267 
f 287 380 501 
f 204 501 380 
f 444 157 272 
f 199 404 441 
f 444 279 407 
f 395 353 499 
f 395 499 317 
f 459 500 309 
f 438 492 92 
f 282 179 359 
f 267 354 367 
f 379 56 284 
f 139 395 317 
f 322 80 343 
f 255 427 461 
f 423 461 427 
f 450 226 80 
f 87 193 352 
f 81 226 254 
f 502 451 268 
f 501 204 244 
f 52 431 257 
f 489 474 162 
f 92 469 438 
f 79 186 416 
f 244 332 501 
f 233 300 306 
f 287 501 336 
f 375 391 50 
f 457 50 391 
f 330 96 60 
f 483 134 426 
f 469 363 351 
f 360 380 287 
f 156 433 238 
f 154 477 475 
f 287 493 360 
f 432 181 52 
f 84 345 246 
f 168 446 398 
f 84 246 387 
f 69 310 502 
f 463 502 310 
f 12 206 203 
f 168 398 120 
f 457 8 113 
f 79 416 265 
f 326 126 144 
f 487 437 245 
f 270 197 14 
f 350 226 394 
f 458 44 412 
f 383 278 385 
f 96 330 262 
f 417 382 283 
f 270 14 388 
f 137 167 369 
f 121 369 167 
f 432 52 257 
f 313 22 123 
f 225 350 291 
f 502 463 451 
