#  wavefront obj file written by the visualization toolkit

mtllib livertumor02.mtl

v 165.33900451660156 69.03289794921875 71.07959747314453
v 165.18800354003906 68.58319854736328 71.85050201416016
v 165.52499389648438 68.74639892578125 71.61499786376953
v 164.71800231933594 68.98179626464844 71.29299926757812
v 157.9980010986328 68.02069854736328 83.58399963378906
v 158.06900024414062 68.0885009765625 82.01139831542969
v 157.12899780273438 68.28160095214844 82.54029846191406
v 159.3040008544922 67.82959747314453 83.54959869384766
v 164.8509979248047 69.46640014648438 70.739501953125
v 166.7830047607422 72.35079956054688 103.29399871826172
v 167.25100708007812 71.11699676513672 102.73600006103516
v 166.21800231933594 71.07270050048828 103.72899627685547
v 168.36000061035156 72.76170349121094 102.41200256347656
v 165.6060028076172 69.70819854736328 70.6227035522461
v 165.81300354003906 68.95770263671875 71.74579620361328
v 165.87399291992188 69.36199951171875 71.04920196533203
v 166.1060028076172 69.23629760742188 71.66130065917969
v 164.25999450683594 69.93840026855469 70.77749633789062
v 163.9550018310547 69.62930297851562 71.29149627685547
v 164.343994140625 69.39070129394531 71.12039947509766
v 163.64199829101562 70.05889892578125 71.26219940185547
v 164.8159942626953 69.97830200195312 70.50360107421875
v 165.22799682617188 69.92340087890625 70.47129821777344
v 164.1909942626953 70.98809814453125 105.0979995727539
v 163.6179962158203 69.96260070800781 104.41699981689453
v 163.16200256347656 70.63929748535156 105.30699920654297
v 164.80999755859375 70.01709747314453 104.0979995727539
v 157.82699584960938 68.82170104980469 80.60160064697266
v 158.6820068359375 68.10910034179688 80.69319915771484
v 156.99400329589844 68.86720275878906 81.66529846191406
v 163.83200073242188 77.50350189208984 85.22260284423828
v 163.20199584960938 77.3550033569336 83.39579772949219
v 164.20700073242188 76.39250183105469 82.98049926757812
v 162.8040008544922 78.28710174560547 84.69850158691406
v 166.35000610351562 69.50959777832031 71.71420288085938
v 166.21499633789062 69.8469009399414 70.9937973022461
v 162.72900390625 68.19960021972656 99.38970184326172
v 162.0850067138672 68.46279907226562 101.92400360107422
v 163.0540008544922 68.50140380859375 101.57499694824219
v 160.89999389648438 68.03849792480469 100.3740005493164
v 166.5800018310547 69.86409759521484 71.63739776611328
v 169.12100219726562 70.29720306396484 90.28630065917969
v 166.96099853515625 69.43810272216797 91.51000213623047
v 168.72300720214844 69.56670379638672 93.08869934082031
v 168.2949981689453 69.72940063476562 89.73560333251953
v 163.82699584960938 70.4406967163086 70.88249969482422
v 168.75100708007812 77.90440368652344 93.11640167236328
v 169.67999267578125 78.51249694824219 92.86519622802734
v 169.0260009765625 79.26809692382812 93.89939880371094
v 169.7169952392578 77.04940032958984 92.02349853515625
v 164.2550048828125 70.52559661865234 70.55979919433594
v 164.70599365234375 70.44219970703125 70.45770263671875
v 165.2310028076172 70.42279815673828 70.42030334472656
v 164.00399780273438 67.73799896240234 76.62699890136719
v 163.12399291992188 67.77239990234375 75.93450164794922
v 163.79100036621094 67.86109924316406 78.14769744873047
v 163.68299865722656 67.70169830322266 74.7979965209961
v 165.72300720214844 70.37920379638672 70.49340057373047
v 166.1909942626953 70.3395004272461 70.7822036743164
v 166.58399963378906 70.28589630126953 71.37429809570312
v 163.45399475097656 70.49939727783203 71.30979919433594
v 163.625 70.91729736328125 71.08149719238281
v 164.093994140625 71.03990173339844 70.63770294189453
v 156.87899780273438 68.46920013427734 83.39199829101562
v 156.35400390625 68.9531021118164 82.51640319824219
v 164.6540069580078 71.01110076904297 70.44629669189453
v 165.18899536132812 70.9800033569336 70.4198989868164
v 165.7100067138672 70.95059967041016 70.49500274658203
v 166.18600463867188 70.91349792480469 70.76170349121094
v 166.5330047607422 70.76570129394531 71.2052001953125
v 163.77000427246094 71.47720336914062 70.91929626464844
v 163.43699645996094 71.27510070800781 71.32340240478516
v 163.45799255371094 71.6227035522461 71.34600067138672
v 172.83900451660156 80.81590270996094 99.14469909667969
v 173.05299377441406 81.41120147705078 98.8102035522461
v 173.5709991455078 80.91619873046875 98.88009643554688
v 172.26400756835938 81.73100280761719 98.8541030883789
v 164.218994140625 71.6187973022461 70.57569885253906
v 164.57000732421875 71.4968032836914 70.46289825439453
v 165.0959930419922 71.66960144042969 70.4906005859375
v 165.59100341796875 71.4374008178711 70.51519775390625
v 166.0399932861328 71.45989990234375 70.77559661865234
v 166.49600219726562 71.29660034179688 71.30039978027344
v 163.71200561523438 71.89830017089844 71.1852035522461
v 164.11599731445312 72.0363998413086 70.85359954833984
v 164.0260009765625 72.44229888916016 71.41459655761719
v 164.62399291992188 72.00240325927734 70.56549835205078
v 163.0330047607422 69.01959991455078 103.2300033569336
v 162.48199462890625 69.81629943847656 104.36900329589844
v 163.91299438476562 69.00700378417969 103.04299926757812
v 159.03500366210938 83.26809692382812 90.79239654541016
v 159.83799743652344 82.88310241699219 89.81539916992188
v 160.26199340820312 83.29440307617188 91.25830078125
v 158.73699951171875 81.97550201416016 89.74810028076172
v 165.6479949951172 71.9468002319336 70.76570129394531
v 161.2949981689453 67.69740295410156 77.7219009399414
v 161.01400756835938 67.54290008544922 79.10060119628906
v 162.5019989013672 67.62200164794922 78.8644027709961
v 159.9320068359375 67.8208999633789 78.32250213623047
v 162.281005859375 73.51799774169922 105.5999984741211
v 162.52099609375 74.5154037475586 105.55500030517578
v 163.50999450683594 73.94290161132812 105.51699829101562
v 161.072998046875 74.00800323486328 105.27799987792969
v 164.2830047607422 75.55789947509766 78.64469909667969
v 164.82899475097656 74.9800033569336 78.15670013427734
v 165.3260040283203 74.96029663085938 79.70189666748047
v 164.17100524902344 75.1061019897461 76.94490051269531
v 166.19700622558594 71.86519622802734 71.25559997558594
v 169.93800354003906 70.08999633789062 84.16480255126953
v 169.31700134277344 70.03070068359375 84.98979949951172
v 170.35299682617188 70.56849670410156 84.7947998046875
v 168.91200256347656 69.88870239257812 83.69960021972656
v 164.26300048828125 72.41899871826172 71.09210205078125
v 164.53500366210938 72.39129638671875 70.85250091552734
v 164.61700439453125 72.69439697265625 71.2573013305664
v 165.0850067138672 72.3905029296875 70.86289978027344
v 173.0030059814453 74.96739959716797 93.97679901123047
v 173.36900329589844 73.7134017944336 94.91230010986328
v 174.13600158691406 74.82610321044922 95.11859893798828
v 171.4949951171875 73.47660064697266 92.94819641113281
v 156.14999389648438 69.68389892578125 81.89459991455078
v 165.70599365234375 72.38400268554688 71.24859619140625
v 159.97900390625 82.13719940185547 89.34349822998047
v 160.7689971923828 81.92320251464844 89.18779754638672
v 160.87399291992188 82.32530212402344 89.73760223388672
v 160.27499389648438 81.2865982055664 88.5188980102539
v 171.6300048828125 70.78710174560547 96.46549987792969
v 171.3090057373047 70.70030212402344 99.2416000366211
v 172.6929931640625 71.28410339355469 98.26309967041016
v 170.12100219726562 69.67259979248047 97.2145004272461
v 161.29100036621094 80.99700164794922 88.6426010131836
v 162.33900451660156 80.33309936523438 89.00340270996094
v 161.61300659179688 81.4375 89.45110321044922
v 161.66799926757812 80.31220245361328 87.88030242919922
v 165.22999572753906 72.93699645996094 71.59960174560547
v 162.89199829101562 68.07039642333984 73.02999877929688
v 162.6230010986328 68.48670196533203 72.43990325927734
v 162.38600158691406 68.20989990234375 73.35800170898438
v 163.197998046875 68.30120086669922 72.46820068359375
v 169.9340057373047 71.90029907226562 90.91010284423828
v 169.91799926757812 71.33560180664062 89.8021011352539
v 169.85699462890625 70.92060089111328 91.93070220947266
v 169.70899963378906 72.08550262451172 89.44750213623047
v 163.5240020751953 67.97339630126953 73.20580291748047
v 163.81300354003906 68.4708023071289 72.23380279541016
v 155.447998046875 69.8147964477539 92.17960357666016
v 156.1490020751953 71.17720031738281 91.72090148925781
v 155.46499633789062 70.2957992553711 93.52310180664062
v 155.9929962158203 70.11239624023438 90.42790222167969
v 164.19000244140625 68.16210174560547 72.6167984008789
v 154.7010040283203 81.60549926757812 91.4197998046875
v 155.78599548339844 82.75489807128906 91.43109893798828
v 155.0260009765625 82.84420013427734 91.91320037841797
v 155.6719970703125 81.02169799804688 90.90540313720703
v 154.35699462890625 70.91790008544922 99.55470275878906
v 154.8300018310547 71.9801025390625 98.44120025634766
v 154.01400756835938 72.27989959716797 99.77950286865234
v 154.9340057373047 70.7615966796875 98.4906005859375
v 169.8939971923828 78.28510284423828 101.08699798583984
v 170.03799438476562 76.70760345458984 101.99800109863281
v 168.08799743652344 77.79940032958984 101.5479965209961
v 171.58700561523438 77.17980194091797 100.86900329589844
v 173.31300354003906 72.01380157470703 99.03849792480469
v 172.19000244140625 71.67369842529297 99.99929809570312
v 172.65499877929688 72.50189971923828 100.06199645996094
v 157.51800537109375 68.58100128173828 84.72899627685547
v 156.3280029296875 69.20089721679688 83.84269714355469
v 156.89100646972656 69.27279663085938 85.38500213623047
v 161.9969940185547 68.75879669189453 72.61579895019531
v 161.86300659179688 68.5479965209961 73.55750274658203
v 161.47900390625 69.05180358886719 73.2428970336914
v 166.57899475097656 77.9104995727539 96.74120330810547
v 168.1179962158203 79.34290313720703 96.26740264892578
v 167.22000122070312 79.61630249023438 98.0114974975586
v 166.88499450683594 77.33149719238281 95.55180358886719
v 162.2969970703125 69.17859649658203 72.14080047607422
v 163.21200561523438 68.95600128173828 72.02780151367188
v 153.42999267578125 76.88069915771484 99.93229675292969
v 153.13099670410156 78.0166015625 99.52239990234375
v 154.2779998779297 78.10710144042969 100.43499755859375
v 152.49000549316406 76.7970962524414 99.0697021484375
v 167.1529998779297 69.2854995727539 86.28260040283203
v 168.31100463867188 69.44390106201172 87.32219696044922
v 168.64700317382812 69.71309661865234 86.20459747314453
v 167.01199340820312 69.22850036621094 88.36499786376953
v 154.7689971923828 69.731201171875 100.33799743652344
v 154.40499877929688 70.9813003540039 100.54299926757812
v 154.74899291992188 69.97139739990234 98.92440032958984
v 158.01699829101562 73.79609680175781 103.10199737548828
v 157.10800170898438 74.49510192871094 102.60199737548828
v 158.02999877929688 75.41239929199219 103.36499786376953
v 156.87600708007812 73.31410217285156 102.4800033569336
v 159.7030029296875 67.75520324707031 79.81410217285156
v 159.78500366210938 67.77680206298828 82.05359649658203
v 160.93800354003906 67.65070343017578 80.73729705810547
v 164.80099487304688 68.177001953125 72.70819854736328
v 164.52200317382812 68.57520294189453 71.91339874267578
v 164.2550048828125 67.84200286865234 73.70179748535156
v 171.8000030517578 73.80670166015625 101.80899810791016
v 171.36399841308594 75.3582992553711 101.94200134277344
v 172.42799377441406 75.43990325927734 101.09200286865234
v 170.37899780273438 73.72899627685547 102.37699890136719
v 156.30099487304688 68.18779754638672 96.847900390625
v 157.14599609375 67.99400329589844 98.88189697265625
v 158.35000610351562 67.83560180664062 97.00489807128906
v 156.14599609375 68.21730041503906 98.51129913330078
v 165.1649932861328 77.11959838867188 93.88279724121094
v 166.3070068359375 76.35669708251953 92.84100341796875
v 166.4010009765625 76.57260131835938 94.4717025756836
v 165.06700134277344 77.36409759521484 92.0188980102539
v 169.91099548339844 69.68550109863281 94.4552001953125
v 169.22799682617188 68.779296875 96.0824966430664
v 170.72900390625 70.20390319824219 95.23809814453125
v 168.6739959716797 68.57440185546875 95.16259765625
v 158.3090057373047 70.76570129394531 102.94000244140625
v 157.87100219726562 71.66210174560547 102.927001953125
v 159.34800720214844 72.12999725341797 104.24600219726562
v 157.17100524902344 69.77570343017578 102.3550033569336
v 165.656005859375 68.61319732666016 72.46900177001953
v 165.33200073242188 68.252197265625 73.29389953613281
v 162.156005859375 70.72720336914062 105.1989974975586
v 162.0449981689453 72.19550323486328 105.58899688720703
v 163.21099853515625 71.85399627685547 105.58300018310547
v 160.85299682617188 71.46260070800781 104.95600128173828
v 161.38600158691406 82.37429809570312 92.0022964477539
v 161.96099853515625 81.7385025024414 94.90619659423828
v 161.23500061035156 82.71630096435547 94.58149719238281
v 161.73599243164062 81.82379913330078 90.71080017089844
v 169.84100341796875 81.5425033569336 98.56659698486328
v 169.41400146484375 81.2322006225586 97.8634033203125
v 170.197998046875 81.64399719238281 97.83439636230469
v 169.29400634765625 81.0873031616211 98.94010162353516
v 161.62600708007812 69.39099884033203 72.44219970703125
v 156 69.06749725341797 89.64949798583984
v 156.20199584960938 69.72879791259766 89.68090057373047
v 155.4929962158203 69.49210357666016 90.81069946289062
v 156.69500732421875 69.2761001586914 88.668701171875
v 169.75399780273438 70.37580108642578 86.0781021118164
v 168.06199645996094 69.6177978515625 84.92140197753906
v 158.26300048828125 68.9906997680664 79.15670013427734
v 158.29299926757812 69.65080261230469 78.5718002319336
v 157.5279998779297 69.71330261230469 79.86299896240234
v 159.0449981689453 68.63770294189453 78.04319763183594
v 155.9029998779297 73.6072006225586 101.94300079345703
v 156.07699584960938 75.09770202636719 101.50599670410156
v 169.13499450683594 72.84950256347656 88.24310302734375
v 169.80799865722656 72.1895980834961 87.6238021850586
v 168.36199951171875 73.90850067138672 90.09320068359375
v 156.63800048828125 75.29129791259766 90.24459838867188
v 156.67599487304688 76.87239837646484 88.92179870605469
v 155.76699829101562 77.9072036743164 90.09259796142578
v 157.31199645996094 74.32029724121094 88.23760223388672
v 166.18699645996094 68.70790100097656 100.19599914550781
v 167.01400756835938 69.31269836425781 101.1500015258789
v 167.82699584960938 69.043701171875 99.80229949951172
v 165.6179962158203 68.9364013671875 101.83699798583984
v 156.80299377441406 69.75060272216797 87.3727035522461
v 156.7989959716797 70.74720001220703 88.58070373535156
v 156.9600067138672 68.62960052490234 88.08090209960938
v 170.73300170898438 71.29789733886719 93.58899688720703
v 171.78500366210938 71.55500030517578 94.7217025756836
v 168.85000610351562 74.37830352783203 102.40599822998047
v 166.44700622558594 73.17559814453125 103.46900177001953
v 154.38900756835938 73.71849822998047 98.31199645996094
v 155.08599853515625 74.27059936523438 101.08599853515625
v 155.0449981689453 72.74700164794922 101.11100006103516
v 155.51300048828125 71.62799835205078 82.50849914550781
v 155.65699768066406 72.31300354003906 81.80660247802734
v 155.718994140625 72.33589935302734 83.418701171875
v 155.69900512695312 71.44529724121094 81.35230255126953
v 164.04400634765625 69.10440063476562 71.64409637451172
v 165.59800720214844 72.4634017944336 104.69200134277344
v 165.56100463867188 68.3373031616211 76.06700134277344
v 164.86700439453125 68.0602035522461 77.25330352783203
v 165.8459930419922 68.63849639892578 77.40950012207031
v 165.1929931640625 68.04759979248047 75.23829650878906
v 165.0760040283203 71.75579833984375 104.89900207519531
v 153.90499877929688 82.97799682617188 95.37680053710938
v 154.12100219726562 82.96029663085938 94.17070007324219
v 154.94700622558594 84.17569732666016 95.13590240478516
v 153.6750030517578 82.19660186767578 95.19950103759766
v 166.2030029296875 69.08039855957031 72.58560180664062
v 166.31199645996094 69.28289794921875 72.14569854736328
v 166.01800537109375 68.77989959716797 73.28170013427734
v 172.08700561523438 80.07710266113281 99.36920166015625
v 171.90199279785156 81.19840240478516 99.17459869384766
v 173.36300659179688 79.44599914550781 99.1989974975586
v 166.55599975585938 69.32230377197266 73.18209838867188
v 161.13699340820312 69.77200317382812 73.060302734375
v 161.47000122070312 70.1686019897461 72.32129669189453
v 152.0780029296875 77.25409698486328 97.82929992675781
v 152.08700561523438 76.55280303955078 97.83989715576172
v 152.6580047607422 76.66919708251953 97.643798828125
v 152.1020050048828 76.34950256347656 98.29419708251953
v 161.94700622558594 69.79810333251953 72.1063003540039
v 158.69200134277344 70.51789855957031 78.1218032836914
v 157.6580047607422 70.53240203857422 79.04660034179688
v 159.45799255371094 69.29769897460938 77.40670013427734
v 162.6750030517578 69.74579620361328 71.94730377197266
v 153.22300720214844 75.0645980834961 99.80509948730469
v 153.1269989013672 75.95050048828125 99.73269653320312
v 153.78700256347656 75.47090148925781 100.56199645996094
v 152.86000061035156 75.53790283203125 98.8855972290039
v 157.17599487304688 68.17960357666016 92.11710357666016
v 156.90699768066406 68.33830261230469 93.75759887695312
v 158.78599548339844 68.26709747314453 92.72419738769531
v 156.2740020751953 68.44080352783203 92.377197265625
v 171.22900390625 71.28089904785156 101.12799835205078
v 170.42599487304688 70.45439910888672 101.08000183105469
v 168.73300170898438 68.9801025390625 97.9219970703125
v 167.48899841308594 68.52510070800781 97.69740295410156
v 163.45799255371094 69.6552963256836 71.68199920654297
v 175.18800354003906 75.29080200195312 99.21690368652344
v 175.38699340820312 76.08920288085938 99.16329956054688
v 176.2969970703125 75.60659790039062 98.73889923095703
v 174.19000244140625 75.82890319824219 99.37640380859375
v 161.56399536132812 67.84649658203125 96.63480377197266
v 160.35499572753906 67.87920379638672 98.6698989868164
v 156.10800170898438 70.34329986572266 84.71769714355469
v 156.0240020751953 71.93270111083984 85.06649780273438
v 156.47300720214844 71.11190032958984 86.40119934082031
v 155.64700317382812 71.0656967163086 83.66729736328125
v 166.74099731445312 69.67459869384766 72.62049865722656
v 166.8520050048828 70.10759735107422 72.27120208740234
v 167.03399658203125 69.90679931640625 73.33599853515625
v 156.5500030517578 73.58779907226562 84.12989807128906
v 158.24200439453125 75.28399658203125 82.69499969482422
v 157.75 75.51519775390625 85.2063980102539
v 157.2310028076172 73.98069763183594 81.59369659423828
v 162.177001953125 70.3584976196289 72.01180267333984
v 158.79600524902344 76.70010375976562 103.14700317382812
v 157.7790069580078 76.34290313720703 101.88099670410156
v 159.53199768066406 76.06189727783203 103.9219970703125
v 168.13800048828125 69.85769653320312 81.77169799804688
v 166.7830047607422 69.11599731445312 82.03720092773438
v 167.7519989013672 69.4303970336914 83.50559997558594
v 167.5070037841797 69.61720275878906 80.22650146484375
v 172.16000366210938 78.84339904785156 99.8363037109375
v 172.21299743652344 77.8646011352539 100.13500213623047
v 171.13600158691406 78.7041015625 100.61499786376953
v 173.14700317382812 78.19719696044922 99.39520263671875
v 160.93800354003906 82.75789642333984 90.60919952392578
v 163.03700256347656 70.31050109863281 71.7208023071289
v 170.58599853515625 70.33979797363281 83.96389770507812
v 156.68600463867188 68.03919982910156 95.32599639892578
v 158.8419952392578 67.91390228271484 94.79550170898438
v 170.46600341796875 79.09130096435547 93.29429626464844
v 169.8159942626953 79.83329772949219 93.79900360107422
v 170.60800170898438 77.70059967041016 92.4583969116211
v 161.51199340820312 82.26899719238281 97.2344970703125
v 162.3489990234375 81.45559692382812 98.04609680175781
v 153.3260040283203 79.57060241699219 99.418701171875
v 154.32000732421875 79.89769744873047 100.1449966430664
v 154.06399536132812 78.82569885253906 100.26200103759766
v 153.49000549316406 80.5022964477539 98.84950256347656
v 166.82400512695312 70.81809997558594 72.0248031616211
v 167.11599731445312 70.5082015991211 73.38700103759766
v 169.98899841308594 70.3488998413086 83.46700286865234
v 170.73800659179688 70.53710174560547 83.6521987915039
v 170.53799438476562 70.99359893798828 83.53730010986328
v 152.9669952392578 77.69969940185547 97.61689758300781
v 154.02000427246094 76.68090057373047 97.1802978515625
v 162.3990020751953 79.66320037841797 87.49140167236328
v 161.24400329589844 79.84709930419922 86.52790069580078
v 154.08999633789062 81.93789672851562 98.17350006103516
v 153.7220001220703 81.67350006103516 96.64360046386719
v 153.58399963378906 82.3823013305664 96.7477035522461
v 153.7480010986328 81.10790252685547 98.13909912109375
v 162.74899291992188 81.53199768066406 100.05799865722656
v 162.7899932861328 81.28739929199219 98.94319915771484
v 163.4510040283203 80.7489013671875 99.20030212402344
v 162.0399932861328 81.94619750976562 98.75769805908203
v 170.56399536132812 80.98580169677734 96.34359741210938
v 170.8509979248047 81.56890106201172 97.29499816894531
v 169.97799682617188 81.16439819335938 97.26170349121094
v 171.61199951171875 81.41580200195312 96.42230224609375
v 169.15499877929688 70.53079986572266 101.98200225830078
v 170.75599670410156 71.37110137939453 102.00900268554688
v 169.42300415039062 71.8196029663086 102.37899780273438
v 168.6230010986328 70.51640319824219 80.83380126953125
v 168.98599243164062 70.4354019165039 82.45829772949219
v 168.2989959716797 70.31680297851562 79.49169921875
v 161.76800537109375 70.92649841308594 72.11139678955078
v 162.61199951171875 70.91729736328125 71.8949966430664
v 156.7519989013672 71.80059814453125 102.45899963378906
v 155.86700439453125 72.59339904785156 101.9729995727539
v 155.54200744628906 71.6604995727539 101.71900177001953
v 157.072998046875 71.94349670410156 89.3855972290039
v 157.03399658203125 73.08820343017578 90.98400115966797
v 171.44400024414062 78.67610168457031 93.83049774169922
v 172.78599548339844 79.30819702148438 94.42559814453125
v 171.93800354003906 80.06680297851562 94.61360168457031
v 173.1649932861328 78.2782974243164 94.40709686279297
v 163.24200439453125 70.88899993896484 71.5530014038086
v 156.93600463867188 83.864501953125 91.90699768066406
v 158.11599731445312 84.36519622802734 92.46929931640625
v 157.3459930419922 84.5 92.83550262451172
v 158.30799865722656 83.73590087890625 91.67780303955078
v 159.593994140625 83.05149841308594 100.63200378417969
v 159.68600463867188 83.36730194091797 99.57779693603516
v 160.4340057373047 82.93509674072266 100.09200286865234
v 159.11199951171875 83.57460021972656 100.4280014038086
v 166.93699645996094 71.27559661865234 72.8582992553711
v 166.6280059814453 69.08429718017578 84.40119934082031
v 167.27099609375 75.40540313720703 102.76499938964844
v 165.46600341796875 73.61070251464844 104.36699676513672
v 174.5780029296875 76.58509826660156 99.22959899902344
v 160.71099853515625 70.81559753417969 74.04879760742188
v 160.93600463867188 71.4834976196289 72.80220031738281
v 160.69500732421875 71.60040283203125 74.27230072021484
v 161.04200744628906 70.72350311279297 72.75029754638672
v 161.5489959716797 71.50250244140625 72.16580200195312
v 171.6649932861328 81.97820281982422 97.59200286865234
v 171.18699645996094 82.0343017578125 98.21170043945312
v 165.38499450683594 78.53089904785156 101.06099700927734
v 164.4340057373047 77.05220031738281 102.56099700927734
v 162.08999633789062 77.51619720458984 102.51000213623047
v 166.7239990234375 77.10430145263672 101.92400360107422
v 169 69.78140258789062 88.39910125732422
v 169.98699951171875 70.73069763183594 88.51170349121094
v 169.55299377441406 70.0082015991211 87.277099609375
v 162.36099243164062 71.51180267333984 71.97149658203125
v 160.81100463867188 70.0696029663086 104.00399780273438
v 159.12899780273438 69.9906997680664 102.98999786376953
v 159.64599609375 70.9937973022461 103.90899658203125
v 160.0959930419922 68.78959655761719 102.1729965209961
v 165.9949951171875 73.12409973144531 74.37770080566406
v 166.3939971923828 72.51280212402344 74.56800079345703
v 166.11099243164062 73.07620239257812 75.62190246582031
v 166.08700561523438 72.9406967163086 73.26380157470703
v 163.08099365234375 71.4636001586914 71.72209930419922
v 165.1820068359375 75.42279815673828 103.50199890136719
v 155.80299377441406 69.83390045166016 83.1082992553711
v 166.34300231933594 68.98719787597656 79.69139862060547
v 165.53900146484375 68.61699676513672 81.2155990600586
v 166.65699768066406 71.64720153808594 72.00170135498047
v 170.25 71.17240142822266 85.67780303955078
v 171.73599243164062 75.16929626464844 92.34320068359375
v 172.44400024414062 76.21489715576172 93.62550354003906
v 171.1750030517578 76.75060272216797 92.15149688720703
v 160.99200439453125 72.19609832763672 73.16670227050781
v 161.38800048828125 72.08219909667969 72.30619812011719
v 173.24099731445312 76.12470245361328 100.0770034790039
v 172.8769989013672 73.90139770507812 100.69000244140625
v 165.81900024414062 80.07440185546875 100.52200317382812
v 167.19000244140625 79.55909729003906 100.76799774169922
v 163.4149932861328 79.21530151367188 101.01699829101562
v 162.1300048828125 72.08380126953125 72.0333023071289
v 154.2270050048828 74.57350158691406 100.7760009765625
v 153.58399963378906 74.19609832763672 100.51499938964844
v 154.197998046875 73.55799865722656 100.7750015258789
v 156.6320037841797 69.94439697265625 86.02770233154297
v 166.67799377441406 69.16729736328125 77.881103515625
v 166.55599975585938 69.04060363769531 76.07080078125
v 162.94200134277344 72.10009765625 71.92140197753906
v 163.4770050048828 72.05500030517578 71.62879943847656
v 157.28199768066406 84.73880004882812 93.82279968261719
v 156.40699768066406 84.2145004272461 92.82019805908203
v 156.15699768066406 84.57319641113281 93.90619659423828
v 166.2449951171875 72.247802734375 71.83309936523438
v 166.5030059814453 73.90630340576172 79.15039825439453
v 167.5989990234375 73.30020141601562 79.93280029296875
v 166.56399536132812 74.3501968383789 80.94940185546875
v 167.01600646972656 73.07140350341797 78.13819885253906
v 166.5679931640625 72.18299865722656 72.91780090332031
v 169.2740020751953 72.9072036743164 86.09020233154297
v 167.55299377441406 74.4186019897461 87.53410339355469
v 155.68600463867188 83.49369812011719 92.12319946289062
v 161.41200256347656 72.62120056152344 72.39510345458984
v 161.35400390625 72.9540023803711 72.81790161132812
v 161.9530029296875 72.64730072021484 72.08439636230469
v 159.07899475097656 74.87670135498047 80.66000366210938
v 160.51100158691406 76.41850280761719 81.25789642333984
v 162.78199768066406 72.70860290527344 71.99539947509766
v 161.64700317382812 78.79930114746094 84.41470336914062
v 162.13900756835938 79.2261962890625 85.74720001220703
v 160.94700622558594 79.3489990234375 85.2583999633789
v 157.97999572753906 83.4968032836914 100.38400268554688
v 158.8520050048828 83.8147964477539 99.70339965820312
v 158.04800415039062 82.32440185546875 100.77100372314453
v 160.83900451660156 83.27749633789062 93.36430358886719
v 160.43699645996094 84.02570343017578 95.22730255126953
v 160.0709991455078 84.39459991455078 94.01809692382812
v 163.69700622558594 72.83509826660156 71.88179779052734
v 157.6269989013672 76.98870086669922 87.19989776611328
v 160.39700317382812 84.76899719238281 96.9384994506836
v 160.84300231933594 83.35800170898438 97.14759826660156
v 159.71800231933594 83.86669921875 97.90509796142578
v 175.56700134277344 76.21910095214844 96.79840087890625
v 176.10400390625 75.44090270996094 97.76219940185547
v 176.34300231933594 76.089599609375 98.13420104980469
v 175.30099487304688 75.3906021118164 96.75800323486328
v 154.23599243164062 72.4291000366211 100.63300323486328
v 153.73800659179688 73.26740264892578 100.08699798583984
v 156.7969970703125 82.7979965209961 91.23809814453125
v 174.22300720214844 76.21189880371094 94.63639831542969
v 165.802001953125 72.69539642333984 71.79419708251953
v 153.89100646972656 75.20220184326172 97.88590240478516
v 153.45399475097656 74.28500366210938 99.30650329589844
v 153.1739959716797 75.01139831542969 98.67379760742188
v 166.13499450683594 72.68910217285156 72.3489990234375
v 169.8769989013672 81.14610290527344 99.3989028930664
v 168.77099609375 80.841796875 98.17289733886719
v 169.16600036621094 80.79409790039062 97.08709716796875
v 158.77499389648438 84.98750305175781 95.2603988647461
v 159.24600219726562 84.8405990600586 94.47560119628906
v 159.5959930419922 85.21489715576172 95.743896484375
v 158.4739990234375 84.98059844970703 94.27680206298828
v 156.47300720214844 70.0199966430664 102.33999633789062
v 156.27699279785156 68.96279907226562 102.05899810791016
v 155.8419952392578 70.73380279541016 101.93199920654297
v 155.36099243164062 70.10260009765625 101.43299865722656
v 161.88999938964844 73.17140197753906 72.18879699707031
v 155.94500732421875 84.27339935302734 97.7791976928711
v 155.677001953125 84.99150085449219 97.5999984741211
v 156.375 85.42150115966797 97.58550262451172
v 155.03900146484375 84.6884994506836 97.48210144042969
v 162.5970001220703 73.2385025024414 72.01799774169922
v 160.5279998779297 72.11840057373047 76.3447036743164
v 161.33999633789062 73.39990234375 76.49739837646484
v 160.14599609375 73.1708984375 78.01499938964844
v 160.95199584960938 72.381103515625 74.80889892578125
v 167.4010009765625 71.23979949951172 76.02950286865234
v 167.1219940185547 71.92230224609375 76.4822006225586
v 166.83099365234375 71.89810180664062 75.49700164794922
v 167.80299377441406 71.61129760742188 77.37529754638672
v 163.4530029296875 73.52220153808594 72.00789642333984
v 161.45899963378906 68.86009979248047 74.47059631347656
v 161.07000732421875 69.46379852294922 74.29209899902344
v 161.60699462890625 68.53669738769531 75.62329864501953
v 161.10499572753906 69.118896484375 75.60320281982422
v 161.84500122070312 68.43949890136719 74.67469787597656
v 166.19200134277344 80.23709869384766 99.73310089111328
v 166.968994140625 80.43080139160156 100.18299865722656
v 154.1320037841797 83.81719970703125 96.17449951171875
v 155.1269989013672 85.12770080566406 96.47350311279297
v 164.53700256347656 73.10859680175781 71.77230072021484
v 164.76300048828125 76.98509979248047 86.40249633789062
v 165.1479949951172 76.96269989013672 88.8281021118164
v 163.82899475097656 78.31289672851562 88.4573974609375
v 166.1490020751953 75.63690185546875 85.87909698486328
v 161.39999389648438 77.61509704589844 82.4905014038086
v 162.30599975585938 78.05280303955078 83.47049713134766
v 161.12899780273438 78.27780151367188 83.568603515625
v 162.4340057373047 77.49479675292969 82.32379913330078
v 157.17300415039062 68.91310119628906 86.96880340576172
v 158.2830047607422 68.38289642333984 86.86530303955078
v 157.6060028076172 68.158203125 88.63780212402344
v 161.06199645996094 74.4281005859375 78.00990295410156
v 163.05599975585938 78.77890014648438 86.91639709472656
v 168.99099731445312 71.74759674072266 80.881103515625
v 169.00399780273438 71.13800048828125 81.57589721679688
v 169.25999450683594 71.92919921875 82.36090087890625
v 168.78799438476562 71.05049896240234 79.87319946289062
v 161.4320068359375 73.15270233154297 74.91110229492188
v 161.88099670410156 73.72440338134766 75.51480102539062
v 165.6649932861328 73.18689727783203 72.44650268554688
v 157.68299865722656 84.87740325927734 94.99600219726562
v 172.83799743652344 81.30619812011719 96.22989654541016
v 173.91099548339844 80.84290313720703 96.58719635009766
v 173.33099365234375 81.46330261230469 97.28510284423828
v 173.46400451660156 80.79319763183594 95.52729797363281
v 155.93299865722656 81.12560272216797 100.65799713134766
v 156.71800231933594 82.77940368652344 100.40799713134766
v 156.53199768066406 79.80889892578125 100.80000305175781
v 161.0489959716797 68.0698013305664 85.47440338134766
v 159.3000030517578 68.13970184326172 85.40619659423828
v 160.26699829101562 68.11470031738281 88.1719970703125
v 161.85699462890625 73.62629699707031 72.51139831542969
v 161.50900268554688 73.39019775390625 73.50309753417969
v 162.4320068359375 73.74490356445312 72.12120056152344
v 167.3520050048828 70.71050262451172 74.92330169677734
v 167.58599853515625 70.49710083007812 76.09410095214844
v 166.97799682617188 71.43949890136719 74.23709869384766
v 162.99899291992188 73.79959869384766 72.02279663085938
v 165.53399658203125 68.16590118408203 97.5718994140625
v 164.27999877929688 68.345703125 99.4988021850586
v 164.16299438476562 68.0010986328125 96.88749694824219
v 171.7689971923828 77.49669647216797 93.43920135498047
v 173.4980010986328 77.27210235595703 94.41829681396484
v 164.13299560546875 78.53990173339844 93.36289978027344
v 164.4969940185547 78.23560333251953 95.49099731445312
v 163.72500610351562 79.50360107421875 95.747802734375
v 160.22300720214844 83.03450012207031 98.12300109863281
v 160.7830047607422 82.72370147705078 98.63849639892578
v 175.677001953125 76.75 99.01789855957031
v 176.26199340820312 76.34100341796875 98.87660217285156
v 164.26199340820312 73.6532974243164 72.05829620361328
v 158.86399841308594 68.2925033569336 79.23179626464844
v 159.30599975585938 74.6272964477539 104.05799865722656
v 159.47900390625 73.19010162353516 104.44300079345703
v 165.00999450683594 73.6261978149414 72.30719757080078
v 165.4340057373047 73.65070343017578 73.02020263671875
v 165.75100708007812 73.39469909667969 73.56439971923828
v 161.9669952392578 73.97380065917969 73.06649780273438
v 162.38800048828125 74.18599700927734 72.48200225830078
v 162.39700317382812 74.40799713134766 73.4209976196289
v 162.9239959716797 74.27420043945312 72.16619873046875
v 163.47000122070312 74.24120330810547 72.10489654541016
v 172.39999389648438 81.831298828125 97.22470092773438
v 163.95799255371094 74.13480377197266 72.12159729003906
v 164.46600341796875 74.25520324707031 72.50460052490234
v 159.19700622558594 80.96630096435547 88.67569732666016
v 165.03799438476562 74.06580352783203 73.3313980102539
v 162.9429931640625 80.45030212402344 100.50800323486328
v 164.78799438476562 80.2020034790039 99.90579986572266
v 161.03500366210938 78.78489685058594 101.51699829101562
v 157.92599487304688 84.09860229492188 99.48370361328125
v 157.29100036621094 83.7113037109375 99.88150024414062
v 162.822998046875 74.59339904785156 72.58979797363281
v 163.00999450683594 74.83159637451172 73.36260223388672
v 163.32699584960938 74.69609832763672 72.45189666748047
v 163.9029998779297 74.64510345458984 72.47450256347656
v 164.2429962158203 74.6948013305664 72.92669677734375
v 164.5330047607422 74.53070068359375 73.52909851074219
v 159.66400146484375 74.14009857177734 79.26689910888672
v 160.88400268554688 75.45020294189453 79.38310241699219
v 163.57400512695312 74.9301986694336 73.01640319824219
v 163.94200134277344 74.90129852294922 73.33580017089844
v 175.5919952392578 74.0261001586914 98.92870330810547
v 174.49400329589844 73.68900299072266 99.25589752197266
v 174.80499267578125 74.41349792480469 99.31610107421875
v 175.05299377441406 73.24400329589844 98.75340270996094
v 162.5290069580078 77.17259979248047 80.90029907226562
v 163.31500244140625 76.9115982055664 81.9916000366211
v 161.75100708007812 77.22979736328125 81.277099609375
v 156.78599548339844 72.86129760742188 86.88349914550781
v 170.04800415039062 71.71749877929688 88.54239654541016
v 162.97999572753906 67.87059783935547 74.14830017089844
v 162.52999877929688 67.97969818115234 74.67610168457031
v 162.14300537109375 68.21279907226562 74.25759887695312
v 165.17100524902344 68.75630187988281 86.14219665527344
v 164.40499877929688 69.07769775390625 89.81680297851562
v 163.07400512695312 68.40709686279297 86.345703125
v 171.781005859375 72.39689636230469 101.33100128173828
v 170.98899841308594 72.75589752197266 102.2030029296875
v 161.0070037841797 82.88310241699219 92.1448974609375
v 164.86900329589844 67.89769744873047 74.10179901123047
v 164.47500610351562 67.73789978027344 75.49019622802734
v 155.9669952392578 85.21829986572266 95.79750061035156
v 156.04800415039062 84.73690032958984 94.97419738769531
v 157.01300048828125 85.22000122070312 95.65290069580078
v 163.00799560546875 73.06089782714844 105.5999984741211
v 166.093994140625 68.68409729003906 75.23410034179688
v 158.74400329589844 68.68109893798828 101.60299682617188
v 159.24000549316406 67.90129852294922 99.96900177001953
v 156.55499267578125 79.88099670410156 89.85330200195312
v 157.093994140625 78.62740325927734 88.86199951171875
v 155.03900146484375 79.002197265625 90.81220245361328
v 160.84300231933594 68.2146987915039 92.95760345458984
v 163.27699279785156 68.4468002319336 93.8113021850586
v 162.9499969482422 80.66010284423828 97.4468002319336
v 158.3419952392578 86.27729797363281 96.91190338134766
v 158.89100646972656 85.74130249023438 96.19190216064453
v 159.25599670410156 85.80670166015625 96.98179626464844
v 158.3070068359375 86.00160217285156 96.21530151367188
v 160.9149932861328 72.88790130615234 105.44100189208984
v 155.63699340820312 69.31939697265625 101.5270004272461
v 165.72999572753906 68.44239807128906 74.22709655761719
v 156.85499572753906 72.3843994140625 80.06439971923828
v 157.59800720214844 72.2416000366211 79.51899719238281
v 158.01100158691406 73.48269653320312 80.02999877929688
v 156.76600646972656 71.35749816894531 79.98210144042969
v 156.1929931640625 68.51219940185547 90.1531982421875
v 155.71400451660156 68.86669921875 90.99909973144531
v 156.6790008544922 68.41840362548828 89.16780090332031
v 173.27099609375 80.35459899902344 94.7654037475586
v 174.05499267578125 80.39969635009766 95.57019805908203
v 172.4530029296875 80.84390258789062 95.3010025024414
v 170.6219940185547 71.3239974975586 84.72949981689453
v 170.18899536132812 71.92610168457031 85.5156021118164
v 170.593994140625 71.5969009399414 84.13240051269531
v 166.4199981689453 69.00530242919922 74.23650360107422
v 166.85899353027344 69.34200286865234 75.1603012084961
v 175.9929962158203 77.25749969482422 98.57510375976562
v 175.38699340820312 77.61000061035156 99.02680206298828
v 175.79299926757812 78.02469635009766 97.89209747314453
v 162.5780029296875 67.72850036621094 77.19450378417969
v 161.6999969482422 68.07080078125 76.57749938964844
v 167.8489990234375 76.53939819335938 93.00019836425781
v 151.89199829101562 77.68379974365234 98.27940368652344
v 152.26600646972656 78.2490005493164 98.06529998779297
v 151.8040008544922 77.20850372314453 98.5376968383789
v 166.99200439453125 69.62169647216797 74.19329833984375
v 167.31700134277344 70.11370086669922 74.66500091552734
v 156.33200073242188 68.25029754638672 99.97899627685547
v 160.1999969482422 77.12950134277344 103.17400360107422
v 161.79800415039062 76.5927963256836 103.81400299072266
v 160.822998046875 70.1613998413086 73.90670013427734
v 174.3000030517578 78.03829956054688 94.68049621582031
v 174.6540069580078 77.18450164794922 94.74539947509766
v 172.85800170898438 81.74759674072266 98.10679626464844
v 172.2270050048828 82.01129913330078 98.1227035522461
v 161.95599365234375 75.58580017089844 78.30449676513672
v 161.83599853515625 76.5542984008789 79.89749908447266
v 174.08299255371094 74.80509948730469 99.7073974609375
v 157.11599731445312 68.86730194091797 102.11299896240234
v 154.9409942626953 71.32389831542969 101.0469970703125
v 157.94900512695312 69.4489974975586 102.36000061035156
v 157.81199645996094 68.56950378417969 101.5479965209961
v 158.00100708007812 80.58679962158203 89.23269653320312
v 158.406005859375 79.12969970703125 87.7957992553711
v 155.5260009765625 69.17150115966797 92.26419830322266
v 166.48500061035156 70.45610046386719 103.18099975585938
v 156.7949981689453 84.77749633789062 94.7969970703125
v 166.98300170898438 68.28890228271484 95.60030364990234
v 168.07000732421875 72.28489685058594 78.72889709472656
v 168.77499389648438 71.80950164794922 79.69400024414062
v 168.6540069580078 72.5718002319336 81.00340270996094
v 168.4250030517578 71.14620208740234 78.51429748535156
v 153.7480010986328 81.05729675292969 93.65229797363281
v 153.82699584960938 81.6395034790039 92.76280212402344
v 153.72900390625 81.63629913330078 94.44539642333984
v 153.85699462890625 80.88619995117188 92.20829772949219
v 166.11700439453125 69.71540069580078 102.85399627685547
v 165.10299682617188 69.21880340576172 103.04100036621094
v 165.83599853515625 70.15350341796875 103.68800354003906
v 170.8260040283203 79.9395980834961 94.29429626464844
v 158.76400756835938 72.87629699707031 79.03589630126953
v 159.45399475097656 71.66510009765625 77.77169799804688
v 158.12100219726562 71.56710052490234 78.760498046875
v 164.21600341796875 79.85340118408203 98.18779754638672
v 175.40199279785156 74.518798828125 97.41459655761719
v 168.6580047607422 80.60310363769531 99.87239837646484
v 168.43099975585938 79.38420104980469 100.8219985961914
v 167.70899963378906 80.3604965209961 100.51799774169922
v 169.5 79.87899780273438 100.64299774169922
v 158.29600524902344 67.89700317382812 98.6332015991211
v 158.24200439453125 68.052001953125 100.16699981689453
v 171.69000244140625 72.33190155029297 93.8375015258789
v 168.5189971923828 79.0990982055664 95.21160125732422
v 169.47799682617188 80.02690124511719 94.93319702148438
v 169.63499450683594 80.56230163574219 96.1709976196289
v 161.13699340820312 72.722900390625 73.8948974609375
v 156.6479949951172 86.24939727783203 96.30229949951172
v 157.5590057373047 85.88749694824219 96.0656967163086
v 154.25599670410156 81.0280990600586 99.43070220947266
v 167.81900024414062 77.55249786376953 94.24720001220703
v 162.24400329589844 68.4354019165039 89.68550109863281
v 164.25599670410156 68.54850006103516 101.51200103759766
v 152.7169952392578 78.76470184326172 98.91459655761719
v 155.9709930419922 77.64510345458984 100.80000305175781
v 155.1909942626953 78.18470001220703 100.80000305175781
v 154.4409942626953 76.98290252685547 100.6780014038086
v 156.85000610351562 69.7615966796875 80.97450256347656
v 156.98399353027344 70.52279663085938 79.96820068359375
v 155.19900512695312 70.06909942626953 97.24610137939453
v 155.1540069580078 69.31800079345703 98.10089874267578
v 155.9600067138672 85.95379638671875 96.46530151367188
v 156.23199462890625 86.32360076904297 96.85030364990234
v 155.76300048828125 85.74030303955078 97.34100341796875
v 157.31500244140625 71.24569702148438 79.27050018310547
v 173.5590057373047 73.66169738769531 99.79389953613281
v 165.47500610351562 73.7511978149414 74.11129760742188
v 165.78399658203125 73.45659637451172 74.92500305175781
v 161.9040069580078 73.86160278320312 74.2354965209961
v 162.31199645996094 74.27839660644531 74.91310119628906
v 159.40199279785156 83.48600006103516 98.74749755859375
v 165.2169952392578 74.0470962524414 74.8727035522461
v 164.89500427246094 74.3228988647461 74.2750015258789
v 162.63699340820312 74.63500213623047 74.31819915771484
v 170.26100158691406 80.46949768066406 95.0989990234375
v 170.41099548339844 79.58149719238281 100.59200286865234
v 163.06500244140625 74.88729858398438 74.53679656982422
v 164.2050018310547 74.79419708251953 73.51309967041016
v 164.1179962158203 74.8156967163086 74.39350128173828
v 164.6020050048828 74.55280303955078 74.720703125
v 156.2899932861328 86.13739776611328 97.31449890136719
v 165.39500427246094 68.87770080566406 93.34649658203125
v 167.3780059814453 68.65540313720703 94.04399871826172
v 163.54200744628906 74.9832992553711 74.0343017578125
v 171.1739959716797 81.87519836425781 98.9374008178711
v 162.67799377441406 80.72339630126953 93.53610229492188
v 163.50999450683594 79.53710174560547 92.29669952392578
v 162.6479949951172 80.48040008544922 90.4301986694336
v 153.8179931640625 82.17070007324219 93.62120056152344
v 158.9290008544922 77.9854965209961 85.62779998779297
v 164.22300720214844 68.20600128173828 81.79769897460938
v 163.6009979248047 68.26699829101562 83.99510192871094
v 165.25100708007812 68.58110046386719 83.35910034179688
v 162.5850067138672 67.8646011352539 81.72850036621094
v 156.67999267578125 68.51139831542969 101.34700012207031
v 157.2729949951172 68.27010345458984 100.63400268554688
v 155.8470001220703 68.68900299072266 100.76699829101562
v 175.72900390625 73.7927017211914 98.1583023071289
v 176.18600463867188 74.69719696044922 98.33920288085938
v 174.99099731445312 73.76409912109375 97.45189666748047
v 163.44000244140625 67.89669799804688 80.20760345458984
v 164.95899963378906 68.34649658203125 79.4490966796875
v 167.89599609375 80.59480285644531 99.07080078125
v 152.87899780273438 75.81279754638672 97.94670104980469
v 167.92599487304688 70.84600067138672 77.26920318603516
v 162.86399841308594 75.76840209960938 77.88829803466797
v 163.14199829101562 75.16339874267578 76.66069793701172
v 163.6739959716797 75.67400360107422 77.67870330810547
v 162.11300659179688 74.76689910888672 77.12229919433594
v 162.2310028076172 68.06430053710938 75.60099792480469
v 173.9550018310547 79.10690307617188 94.61470031738281
v 174.9949951171875 75.86669921875 95.45909881591797
v 174.9810028076172 76.74539947509766 95.37059783935547
v 167.322998046875 69.85299682617188 75.86129760742188
v 167.10000610351562 69.52649688720703 76.82430267333984
v 167.63499450683594 70.17400360107422 77.18360137939453
v 158.2030029296875 85.17579650878906 95.75659942626953
v 155.67999267578125 68.73370361328125 97.60420227050781
v 155.5780029296875 68.66000366210938 98.90869903564453
v 155.30299377441406 79.28800201416016 100.80000305175781
v 174.5570068359375 74.1530990600586 96.55280303955078
v 174.05999755859375 73.1344985961914 96.64559936523438
v 155.3730010986328 71.70649719238281 95.91130065917969
v 157.29299926757812 86.55829620361328 96.6082992553711
v 157.6750030517578 86.4363021850586 97.01940155029297
v 156.8489990234375 86.32489776611328 97.34700012207031
v 158.24200439453125 78.04730224609375 100.84200286865234
v 158.20199584960938 79.75550079345703 100.80000305175781
v 160.04400634765625 79.69319915771484 100.80799865722656
v 155.802001953125 68.95570373535156 93.72489929199219
v 155.71200561523438 68.65840148925781 95.08830261230469
v 155.4499969482422 69.29910278320312 95.27680206298828
v 167.39999389648438 75.5436019897461 91.76069641113281
v 166.41000366210938 75.86009979248047 90.5156021118164
v 153.95799255371094 83.19879913330078 97.31620025634766
v 167.3509979248047 70.14009857177734 102.10800170898438
v 160.72000122070312 69.94550323486328 75.46019744873047
v 173.9709930419922 80.84510040283203 97.88159942626953
v 174.20399475097656 80.26570129394531 98.45130157470703
v 174.52999877929688 80.20850372314453 96.91510009765625
v 154.95599365234375 78.06490325927734 91.20030212402344
v 155.9199981689453 76.30970001220703 91.4375991821289
v 175.27000427246094 78.69090270996094 98.80390167236328
v 175.08999633789062 79.347900390625 98.0250015258789
v 175.36300659179688 79.02230072021484 97.16590118408203
v 174.50100708007812 79.0365982055664 98.98609924316406
v 159.91299438476562 70.2239990234375 76.9636001586914
v 173.3990020751953 81.40129852294922 98.25160217285156
v 159.3350067138672 77.68550109863281 101.59400177001953
v 160.4219970703125 70.98159790039062 75.93199920654297
v 155.08999633789062 84.00499725341797 93.92949676513672
v 153.28799438476562 78.71289825439453 97.55339813232422
v 155.11599731445312 75.9354019165039 100.80000305175781
v 156.7259979248047 76.87930297851562 100.81500244140625
v 156.197998046875 83.36949920654297 99.06909942626953
v 159.17599487304688 84.8093032836914 97.75289916992188
v 158.67999267578125 84.02749633789062 98.69339752197266
v 172.87899780273438 72.34040069580078 95.2302017211914
v 175.4969940185547 78.42890167236328 96.37149810791016
v 175.48899841308594 77.393798828125 96.56770324707031
v 174.40699768066406 77.75060272216797 99.19740295410156
v 173.34800720214844 77.0291976928711 99.4749984741211
v 154.2220001220703 78.12640380859375 96.92610168457031
v 154.70700073242188 78.34200286865234 94.93350219726562
v 154.25100708007812 79.80509948730469 95.64540100097656
v 171.26100158691406 79.78669738769531 100
v 170.90499877929688 80.9447021484375 99.38009643554688
v 170.28199768066406 80.41069793701172 100.1259994506836
v 173.906005859375 72.90640258789062 99.25969696044922
v 164.2050018310547 76.0261001586914 80.84529876708984
v 155.7740020751953 71.935302734375 93.36000061035156
v 155.41200256347656 70.1343994140625 95.06759643554688
v 163.2790069580078 79.31529998779297 89.76219940185547
v 163.968994140625 78.67019653320312 91.13300323486328
v 159.68600463867188 77.19920349121094 83.38300323486328
v 160.01699829101562 79.29319763183594 85.98799896240234
v 159.51699829101562 79.79969787597656 87.37249755859375
v 160.19500732421875 78.56580352783203 84.51020050048828
v 162.69200134277344 76.50789642333984 79.39790344238281
v 170.28799438476562 81.63600158691406 99.01239776611328
v 170.38600158691406 81.88999938964844 98.47109985351562
v 156.5749969482422 86.529296875 96.90769958496094
v 154.19400024414062 79.45120239257812 92.53309631347656
v 154.32699584960938 80.10929870605469 91.43990325927734
v 154.31700134277344 78.82559967041016 91.59369659423828
v 164.27699279785156 72.95980072021484 105.4739990234375
v 165.59500122070312 68.11090087890625 95.14409637451172
v 169.6699981689453 69.73829650878906 99.5031967163086
v 168.718994140625 69.72419738769531 100.87100219726562
v 170.71800231933594 75.8416976928711 91.51180267333984
v 169.19400024414062 75.15440368652344 91.67440032958984
v 156.13699340820312 73.1095962524414 81.96659851074219
v 158.70700073242188 81.62550354003906 100.80000305175781
v 165.53900146484375 73.75080108642578 75.4531021118164
v 165.8719940185547 73.4977035522461 76.302001953125
v 167.7779998779297 69.85449981689453 78.97260284423828
v 167.1300048828125 69.4072036743164 79.14550018310547
v 167.3939971923828 69.7051010131836 78.1073989868164
v 165.13600158691406 76.12689971923828 84.28520202636719
v 157.5970001220703 82.15139770507812 90.65740203857422
v 159.81500244140625 83.60679626464844 92.25810241699219
v 164.9409942626953 74.35590362548828 75.67030334472656
v 165.43800354003906 73.9979019165039 76.62889862060547
v 162.8520050048828 74.75060272216797 75.47760009765625
v 159.97500610351562 68.21389770507812 77.45480346679688
v 154.9199981689453 83.31050109863281 97.96530151367188
v 154.3470001220703 83.972900390625 97.42790222167969
v 168.27999877929688 80.34159851074219 97.26380157470703
v 155.58399963378906 68.856201171875 96.42569732666016
v 164.4219970703125 74.71700286865234 75.80950164794922
v 163.6280059814453 74.96949768066406 75.44960021972656
v 156.49899291992188 70.55970001220703 80.67769622802734
v 160.67599487304688 68.40789794921875 76.94190216064453
v 155.2519989013672 82.34040069580078 99.51580047607422
v 153.83099365234375 81.1218032836914 96.02269744873047
v 161.82200622558594 67.95390319824219 83.30619812011719
v 165.5489959716797 74.36229705810547 78.2645034790039
v 158.14700317382812 68.10099792480469 90.65650177001953
v 160.218994140625 84.23889923095703 93.36830139160156
v 159.29400634765625 85.0365982055664 93.7155990600586
v 155.15699768066406 77.39309692382812 92.78099822998047
v 152.19900512695312 77.89520263671875 98.9114990234375
v 154.4429931640625 83.05690002441406 93.17389678955078
v 174.3040008544922 79.60769653320312 95.0166015625
v 174.63600158691406 79.87049865722656 95.70960235595703
v 174.52200317382812 78.66310119628906 95.11519622802734
v 160.53199768066406 80.26000213623047 87.47160339355469
v 157.06700134277344 84.0425033569336 98.71829986572266
v 157.0919952392578 84.86869812011719 97.74960327148438
v 157.9199981689453 84.53250122070312 98.30139923095703
v 158.73399353027344 68.01470184326172 88.88079833984375
v 160.0489959716797 68.14430236816406 90.69730377197266
v 164.97999572753906 78.54900360107422 97.2489013671875
v 163.572998046875 75.96659851074219 104.0479965209961
v 162.52499389648438 75.57160186767578 104.76899719238281
v 155.41200256347656 69.32669830322266 96.62149810791016
v 153.46499633789062 80.04129791259766 97.95130157470703
v 160.3730010986328 81.80599975585938 100.78399658203125
v 174.92300415039062 77.95110321044922 95.4802017211914
v 161.1750030517578 68.627197265625 76.34919738769531
v 170.3000030517578 72.08110046386719 92.131103515625
v 156.99000549316406 68.08399963378906 90.37139892578125
v 160.5279998779297 69.2426986694336 76.53399658203125
v 170.08799743652344 71.21240234375 87.04540252685547
v 155.60800170898438 74.26180267333984 94.97740173339844
v 165.34100341796875 70.80699920654297 104.34200286865234
v 156.06100463867188 70.45349884033203 81.36389923095703
v 156.16900634765625 71.32679748535156 80.60169982910156
v 175.94900512695312 74.78790283203125 99.0208969116211
v 173.49000549316406 72.1344985961914 97.0979995727539
v 173.3249969482422 71.72239685058594 98.0602035522461
v 174.2030029296875 72.385498046875 98.47029876708984
v 172.55299377441406 71.50140380859375 96.30840301513672
v 161.69900512695312 69.12429809570312 103.30400085449219
v 153.8719940185547 80.35420227050781 93.58679962158203
v 174.4080047607422 75.49210357666016 94.73570251464844
v 174.76800537109375 75.0000991821289 95.9655990600586
v 164.93499755859375 74.56849670410156 77.11640167236328
v 174.76699829101562 73.01270294189453 97.80950164794922
v 156.13900756835938 73.7699966430664 92.51730346679688
v 159.23300170898438 84.44270324707031 92.75489807128906
v 155.14199829101562 69.20950317382812 99.77549743652344
v 165.28399658203125 75.35700225830078 81.81909942626953
v 171.3179931640625 80.77839660644531 95.32510375976562
v 158.20899963378906 85.47669982910156 97.58920288085938
v 165.43099975585938 77.25 95.58670043945312
v 174.97300720214844 79.72850036621094 96.63079833984375
v 165.84100341796875 79.29170227050781 98.6167984008789
v 156.34300231933594 68.2260971069336 91.23799896240234
v 169.38699340820312 72.83529663085938 90.7677993774414
v 163.5540008544922 76.1969985961914 79.22010040283203
v 163.56500244140625 74.88480377197266 105.02999877929688
v 174.91000366210938 79.13130187988281 95.73259735107422
v 163.32699584960938 76.76270294189453 80.6052017211914
v 166.43899536132812 74.90779876708984 83.40450286865234
v 167.97999572753906 73.61540222167969 82.54180145263672
v 155.46299743652344 69.635498046875 93.7208023071289
v 167.15199279785156 72.43190002441406 77.2396011352539
v 154.3260040283203 82.50070190429688 92.6073989868164
v 155.11099243164062 75.95989990234375 96.11710357666016
v 169.89199829101562 72.35919952392578 84.3635025024414
v 170.01100158691406 71.79070281982422 83.45330047607422
v 169.20700073242188 72.65910339355469 83.07340240478516
v 166.56399536132812 72.51820373535156 76.0967025756836
v 169.56900024414062 80.74449920654297 99.94409942626953
v 166.4010009765625 73.07109832763672 76.85220336914062
v 166.12600708007812 73.61930084228516 77.61239624023438
v 161.5709991455078 82.31050109863281 100.06900024414062
v 162.3000030517578 74.3230972290039 76.17859649658203
v 170.2790069580078 73.49019622802734 91.41169738769531
v 155.39700317382812 83.86100006103516 92.97239685058594
v 154.24400329589844 81.94840240478516 91.96119689941406
v 170.87399291992188 70.86840057373047 84.04889678955078
v 167.88499450683594 74.06839752197266 85.11239624023438
v 168.99000549316406 73.14399719238281 84.32240295410156
v 160.9429931640625 75.25080108642578 104.58300018310547
v 173.63800048828125 80.2605972290039 99.12249755859375
v 174.23199462890625 79.74120330810547 98.94629669189453
v 156.822998046875 73.22830200195312 80.5250015258789
v 157.48399353027344 85.92489624023438 97.54679870605469
v 174.7239990234375 79.75869750976562 97.981201171875
v 176.2949981689453 76.66419982910156 98.4520034790039
v 164.38600158691406 74.21309661865234 104.91899871826172
v 176.02699279785156 76.83869934082031 97.79070281982422
v 161.76600646972656 81.1593017578125 100.75499725341797
v 169.62399291992188 71.0916976928711 82.93370056152344
v 162.01400756835938 67.63929748535156 80.07260131835938
v 168.0229949951172 70.35859680175781 78.16899871826172
v 154.2530059814453 84.44609832763672 96.7969970703125
v 158.35499572753906 84.85299682617188 93.2844009399414
v 158.36399841308594 86.06950378417969 97.38200378417969
v 155.64100646972656 70.62020111083984 82.33329772949219
v 156.1009979248047 72.39559936523438 80.6895980834961
v 155.0030059814453 83.24490356445312 92.52980041503906
v 171.94500732421875 81.14430236816406 95.77780151367188

g grp1
usemtl mtl1
f 3 2 1 
f 4 1 2 
f 7 6 5 
f 8 5 6 
f 9 1 4 
f 12 11 10 
f 13 10 11 
f 14 1 9 
f 15 3 1 
f 16 15 1 
f 16 1 14 
f 17 15 16 
f 20 19 18 
f 21 18 19 
f 18 9 20 
f 4 20 9 
f 22 9 18 
f 23 14 9 
f 23 9 22 
f 26 25 24 
f 27 24 25 
f 29 6 28 
f 30 28 6 
f 33 32 31 
f 34 31 32 
f 35 17 16 
f 36 35 16 
f 39 38 37 
f 40 37 38 
f 14 36 16 
f 41 35 36 
f 44 43 42 
f 45 42 43 
f 46 18 21 
f 49 48 47 
f 50 47 48 
f 51 18 46 
f 52 22 18 
f 52 18 51 
f 53 23 22 
f 53 22 52 
f 56 55 54 
f 57 54 55 
f 58 23 53 
f 14 23 58 
f 59 36 14 
f 59 14 58 
f 60 41 36 
f 60 36 59 
f 62 46 61 
f 21 61 46 
f 63 46 62 
f 5 64 7 
f 65 7 64 
f 63 51 46 
f 66 52 51 
f 66 51 63 
f 67 53 52 
f 67 52 66 
f 68 58 53 
f 68 53 67 
f 69 59 58 
f 69 58 68 
f 70 60 59 
f 70 59 69 
f 62 72 71 
f 73 71 72 
f 76 75 74 
f 77 74 75 
f 63 62 71 
f 78 63 71 
f 79 66 63 
f 79 63 78 
f 80 67 66 
f 80 66 79 
f 81 68 67 
f 81 67 80 
f 82 69 68 
f 82 68 81 
f 83 70 69 
f 83 69 82 
f 84 71 73 
f 85 71 84 
f 86 85 84 
f 85 78 71 
f 87 79 78 
f 87 78 85 
f 89 88 25 
f 90 25 88 
f 80 79 87 
f 93 92 91 
f 94 91 92 
f 95 81 80 
f 98 97 96 
f 99 96 97 
f 102 101 100 
f 103 100 101 
f 106 105 104 
f 107 104 105 
f 82 81 95 
f 108 82 95 
f 111 110 109 
f 112 109 110 
f 108 83 82 
f 113 85 86 
f 114 85 113 
f 115 114 113 
f 114 87 85 
f 116 80 87 
f 116 87 114 
f 119 118 117 
f 120 117 118 
f 95 80 116 
f 121 30 65 
f 7 65 30 
f 122 95 116 
f 125 124 123 
f 126 123 124 
f 122 108 95 
f 129 128 127 
f 130 127 128 
f 133 132 131 
f 134 131 132 
f 115 116 114 
f 135 116 115 
f 122 116 135 
f 138 137 136 
f 139 136 137 
f 142 141 140 
f 143 140 141 
f 136 139 144 
f 145 144 139 
f 148 147 146 
f 149 146 147 
f 150 144 145 
f 153 152 151 
f 154 151 152 
f 157 156 155 
f 158 155 156 
f 161 160 159 
f 162 159 160 
f 165 164 163 
f 129 163 164 
f 168 167 166 
f 64 166 167 
f 138 170 169 
f 171 169 170 
f 174 173 172 
f 175 172 173 
f 137 138 169 
f 176 137 169 
f 177 139 137 
f 177 137 176 
f 177 145 139 
f 180 179 178 
f 181 178 179 
f 184 183 182 
f 185 182 183 
f 187 155 186 
f 188 186 155 
f 191 190 189 
f 192 189 190 
f 195 194 193 
f 29 193 194 
f 197 196 150 
f 198 150 196 
f 201 200 199 
f 202 199 200 
f 145 197 150 
f 197 4 2 
f 196 197 2 
f 205 204 203 
f 206 203 204 
f 209 208 207 
f 210 207 208 
f 213 212 211 
f 214 211 212 
f 217 216 215 
f 218 215 216 
f 219 2 3 
f 220 2 219 
f 220 196 2 
f 223 222 221 
f 224 221 222 
f 227 226 225 
f 228 225 226 
f 231 230 229 
f 232 229 230 
f 233 169 171 
f 236 235 234 
f 237 234 235 
f 176 169 233 
f 238 184 110 
f 239 110 184 
f 242 241 240 
f 243 240 241 
f 245 244 190 
f 192 190 244 
f 247 246 143 
f 248 143 246 
f 251 250 249 
f 252 249 250 
f 255 254 253 
f 256 253 254 
f 258 257 237 
f 259 237 257 
f 261 213 260 
f 211 260 213 
f 13 262 10 
f 263 10 262 
f 264 156 157 
f 245 265 244 
f 266 244 265 
f 269 268 267 
f 270 267 268 
f 271 20 4 
f 197 271 4 
f 145 271 197 
f 177 271 145 
f 272 10 263 
f 275 274 273 
f 276 273 274 
f 277 223 24 
f 26 24 223 
f 280 279 278 
f 281 278 279 
f 219 3 15 
f 15 17 282 
f 283 282 17 
f 284 15 282 
f 284 219 15 
f 286 285 74 
f 287 74 285 
f 288 282 283 
f 290 233 289 
f 171 289 233 
f 293 292 291 
f 294 291 292 
f 295 176 233 
f 295 233 290 
f 297 296 241 
f 298 241 296 
f 299 176 295 
f 302 301 300 
f 303 300 301 
f 306 305 304 
f 307 304 305 
f 125 123 92 
f 94 92 123 
f 164 308 128 
f 309 128 308 
f 255 311 310 
f 212 310 311 
f 312 177 299 
f 176 299 177 
f 315 314 313 
f 316 313 314 
f 312 21 19 
f 271 312 19 
f 177 312 271 
f 37 318 317 
f 205 317 318 
f 321 320 319 
f 322 319 320 
f 271 19 20 
f 35 283 17 
f 35 41 323 
f 324 323 41 
f 288 35 323 
f 288 283 35 
f 325 323 324 
f 328 327 326 
f 329 326 327 
f 330 295 290 
f 332 191 331 
f 333 331 191 
f 330 299 295 
f 336 335 334 
f 337 334 335 
f 340 339 338 
f 341 338 339 
f 342 92 93 
f 343 299 330 
f 344 111 109 
f 343 61 21 
f 312 343 21 
f 299 343 312 
f 203 345 205 
f 346 205 345 
f 348 347 48 
f 349 48 347 
f 351 226 350 
f 227 350 226 
f 354 353 352 
f 355 352 353 
f 60 324 41 
f 356 324 60 
f 357 325 324 
f 357 324 356 
f 360 359 358 
f 344 358 359 
f 362 293 361 
f 291 361 293 
f 132 363 134 
f 364 134 363 
f 367 366 365 
f 368 365 366 
f 371 370 369 
f 372 369 370 
f 375 374 373 
f 376 373 374 
f 309 378 377 
f 379 377 378 
f 381 334 380 
f 382 380 334 
f 384 330 383 
f 290 383 330 
f 192 386 385 
f 387 385 386 
f 384 343 330 
f 389 388 147 
f 149 147 388 
f 392 391 390 
f 393 390 391 
f 394 62 61 
f 343 394 61 
f 384 394 343 
f 397 396 395 
f 398 395 396 
f 129 164 128 
f 70 356 60 
f 401 400 399 
f 402 399 400 
f 403 357 356 
f 404 335 336 
f 406 263 405 
f 262 405 263 
f 407 316 314 
f 410 409 408 
f 411 408 409 
f 412 383 411 
f 290 411 383 
f 412 411 409 
f 376 374 413 
f 414 413 374 
f 417 416 415 
f 418 415 416 
f 421 420 419 
f 42 419 420 
f 422 384 383 
f 425 424 423 
f 426 423 424 
f 412 422 383 
f 429 428 427 
f 430 427 428 
f 431 384 422 
f 416 432 418 
f 405 418 432 
f 431 73 72 
f 394 431 72 
f 384 431 394 
f 168 319 167 
f 433 167 319 
f 394 72 62 
f 42 45 419 
f 185 419 45 
f 337 335 434 
f 435 434 335 
f 70 83 356 
f 436 356 83 
f 110 111 238 
f 437 238 111 
f 403 356 436 
f 440 439 438 
f 117 438 439 
f 441 409 410 
f 442 409 441 
f 162 201 443 
f 444 443 201 
f 442 412 409 
f 446 445 415 
f 447 415 445 
f 448 412 442 
f 302 450 449 
f 451 449 450 
f 448 422 412 
f 452 319 168 
f 434 275 453 
f 454 453 275 
f 455 431 422 
f 455 422 448 
f 456 84 73 
f 431 456 73 
f 455 456 431 
f 456 86 84 
f 397 458 457 
f 459 457 458 
f 436 83 108 
f 460 436 108 
f 463 462 461 
f 464 461 462 
f 465 436 460 
f 465 403 436 
f 467 246 466 
f 247 466 246 
f 458 395 468 
f 152 468 395 
f 470 469 441 
f 442 441 469 
f 471 448 442 
f 471 442 469 
f 473 472 327 
f 329 327 472 
f 474 448 471 
f 477 476 475 
f 34 475 476 
f 474 455 448 
f 479 478 402 
f 480 402 478 
f 483 482 481 
f 227 481 482 
f 484 456 455 
f 484 455 474 
f 485 252 250 
f 488 487 486 
f 482 486 487 
f 491 490 489 
f 492 489 490 
f 266 451 493 
f 494 493 451 
f 86 456 484 
f 86 115 113 
f 398 495 395 
f 152 395 495 
f 496 117 439 
f 460 108 122 
f 26 89 25 
f 497 460 122 
f 264 499 498 
f 500 498 499 
f 501 460 497 
f 502 229 232 
f 465 460 501 
f 504 503 230 
f 232 230 503 
f 507 506 505 
f 508 505 506 
f 216 509 218 
f 510 218 509 
f 385 511 509 
f 512 509 511 
f 513 471 469 
f 516 515 514 
f 517 514 515 
f 470 513 469 
f 518 474 471 
f 518 471 513 
f 521 520 519 
f 522 519 520 
f 525 524 523 
f 526 523 524 
f 278 281 367 
f 366 367 281 
f 527 484 474 
f 328 252 485 
f 518 527 474 
f 529 171 528 
f 170 528 171 
f 531 528 530 
f 532 530 528 
f 445 534 533 
f 174 533 534 
f 536 280 535 
f 278 535 280 
f 537 115 86 
f 484 537 86 
f 540 539 538 
f 541 538 539 
f 544 543 542 
f 545 542 543 
f 168 547 546 
f 548 546 547 
f 549 520 521 
f 497 122 135 
f 364 363 476 
f 550 476 363 
f 553 552 551 
f 554 551 552 
f 556 555 520 
f 522 520 555 
f 544 475 543 
f 34 543 475 
f 557 430 501 
f 465 501 430 
f 501 497 557 
f 135 557 497 
f 505 508 558 
f 457 558 508 
f 561 560 559 
f 562 559 560 
f 564 563 480 
f 565 480 563 
f 568 567 566 
f 8 566 567 
f 569 513 470 
f 570 569 470 
f 571 518 513 
f 571 513 569 
f 573 572 523 
f 574 523 572 
f 575 518 571 
f 253 577 576 
f 578 576 577 
f 580 579 393 
f 390 393 579 
f 426 40 38 
f 583 582 581 
f 207 581 582 
f 487 584 350 
f 585 350 584 
f 537 135 115 
f 587 586 314 
f 407 314 586 
f 588 537 484 
f 589 29 28 
f 191 189 590 
f 591 590 189 
f 592 135 537 
f 592 537 588 
f 592 593 557 
f 594 557 593 
f 557 135 592 
f 430 557 594 
f 336 334 112 
f 381 112 334 
f 596 569 595 
f 570 595 569 
f 597 596 595 
f 596 571 569 
f 598 575 571 
f 598 571 596 
f 599 527 575 
f 518 575 527 
f 599 575 598 
f 600 376 413 
f 601 527 599 
f 588 527 601 
f 189 385 216 
f 509 216 385 
f 602 588 601 
f 317 205 346 
f 302 178 301 
f 181 301 178 
f 603 123 126 
f 602 592 588 
f 604 592 602 
f 574 525 523 
f 604 593 592 
f 606 605 447 
f 607 447 605 
f 479 608 478 
f 609 478 608 
f 596 597 610 
f 611 610 597 
f 610 598 596 
f 612 599 598 
f 612 598 610 
f 613 601 599 
f 613 599 612 
f 613 614 602 
f 615 602 614 
f 602 601 613 
f 604 602 615 
f 185 45 43 
f 617 549 616 
f 521 616 549 
f 611 612 610 
f 618 612 611 
f 613 612 618 
f 619 613 618 
f 614 613 619 
f 622 621 620 
f 623 620 621 
f 625 624 545 
f 626 545 624 
f 252 627 388 
f 258 388 627 
f 628 141 420 
f 42 420 141 
f 629 138 136 
f 629 630 138 
f 631 138 630 
f 185 633 632 
f 634 632 633 
f 199 636 635 
f 378 635 636 
f 136 144 629 
f 57 629 144 
f 637 227 225 
f 276 639 638 
f 198 638 639 
f 642 641 640 
f 280 640 641 
f 150 198 144 
f 57 144 198 
f 100 222 643 
f 223 643 222 
f 644 275 273 
f 424 645 426 
f 646 426 645 
f 606 445 533 
f 648 251 647 
f 649 647 251 
f 346 650 317 
f 651 317 650 
f 372 370 351 
f 652 351 370 
f 349 390 579 
f 655 654 653 
f 656 653 654 
f 100 657 222 
f 224 222 657 
f 220 638 196 
f 198 196 638 
f 276 638 220 
f 532 528 170 
f 509 512 658 
f 186 658 512 
f 631 170 138 
f 532 170 631 
f 659 276 220 
f 659 220 219 
f 662 661 660 
f 663 660 661 
f 284 659 219 
f 644 659 284 
f 289 171 529 
f 287 338 341 
f 665 234 664 
f 666 664 234 
f 668 667 562 
f 669 562 667 
f 672 671 670 
f 437 670 671 
f 673 644 284 
f 673 284 282 
f 673 282 288 
f 674 673 288 
f 677 676 675 
f 586 675 676 
f 98 96 678 
f 679 678 96 
f 680 47 50 
f 682 291 681 
f 683 681 291 
f 684 674 288 
f 684 288 323 
f 684 323 325 
f 685 684 325 
f 686 206 204 
f 688 417 687 
f 607 687 417 
f 689 411 289 
f 290 289 411 
f 393 690 580 
f 691 580 690 
f 75 692 77 
f 693 77 692 
f 414 77 693 
f 695 694 617 
f 549 617 694 
f 696 313 316 
f 685 325 357 
f 697 218 510 
f 266 698 387 
f 511 387 698 
f 218 697 699 
f 700 699 697 
f 454 275 644 
f 695 626 624 
f 221 224 423 
f 425 423 224 
f 94 603 701 
f 702 701 603 
f 146 236 703 
f 665 703 236 
f 704 11 12 
f 574 572 357 
f 685 357 572 
f 403 574 357 
f 685 572 573 
f 705 558 457 
f 576 706 311 
f 214 311 706 
f 709 708 707 
f 710 707 708 
f 713 712 711 
f 714 711 712 
f 579 580 439 
f 496 439 580 
f 717 716 715 
f 256 715 716 
f 348 718 347 
f 390 347 718 
f 521 720 719 
f 721 719 720 
f 605 606 371 
f 722 371 606 
f 723 492 490 
f 726 725 724 
f 727 724 725 
f 729 204 728 
f 205 728 204 
f 161 405 160 
f 262 160 405 
f 676 407 586 
f 730 261 260 
f 574 403 465 
f 90 88 39 
f 38 39 88 
f 27 25 90 
f 733 732 731 
f 49 731 732 
f 721 296 297 
f 328 326 627 
f 320 627 326 
f 388 258 149 
f 235 149 258 
f 373 733 375 
f 504 375 733 
f 470 441 734 
f 522 734 441 
f 736 642 735 
f 640 735 642 
f 166 567 547 
f 568 547 567 
f 737 365 368 
f 589 193 29 
f 625 32 33 
f 680 738 47 
f 49 47 738 
f 739 568 566 
f 183 421 419 
f 570 470 734 
f 555 570 734 
f 27 90 716 
f 740 716 90 
f 720 521 519 
f 428 465 430 
f 534 445 446 
f 221 89 26 
f 352 741 354 
f 179 354 741 
f 565 743 742 
f 744 742 743 
f 28 745 242 
f 746 242 745 
f 158 747 188 
f 748 188 747 
f 751 750 749 
f 735 749 750 
f 719 721 661 
f 752 661 721 
f 443 444 696 
f 753 696 444 
f 754 594 593 
f 755 594 754 
f 427 430 594 
f 427 594 755 
f 452 321 319 
f 595 570 756 
f 555 756 570 
f 597 595 756 
f 757 597 756 
f 479 400 758 
f 584 758 400 
f 754 593 604 
f 754 604 759 
f 760 759 604 
f 761 597 757 
f 373 762 733 
f 732 733 762 
f 417 415 447 
f 763 159 340 
f 162 340 159 
f 761 611 597 
f 764 611 761 
f 765 615 614 
f 766 615 765 
f 654 655 507 
f 486 507 655 
f 767 615 766 
f 760 604 615 
f 768 750 751 
f 760 615 767 
f 550 34 476 
f 770 769 43 
f 633 43 769 
f 771 618 611 
f 764 771 611 
f 772 286 77 
f 74 77 286 
f 583 774 773 
f 775 773 774 
f 771 766 619 
f 765 619 766 
f 619 618 771 
f 619 765 614 
f 279 776 281 
f 713 281 776 
f 125 133 124 
f 131 124 133 
f 702 777 485 
f 328 485 777 
f 780 779 778 
f 781 778 779 
f 639 54 57 
f 783 782 686 
f 784 686 782 
f 786 785 723 
f 787 723 785 
f 652 583 773 
f 94 123 603 
f 789 788 56 
f 98 56 788 
f 232 503 724 
f 790 724 503 
f 293 362 791 
f 498 791 362 
f 526 792 523 
f 573 523 792 
f 795 794 793 
f 796 793 794 
f 797 631 630 
f 55 630 629 
f 797 630 55 
f 55 629 57 
f 667 798 391 
f 393 391 798 
f 112 110 239 
f 800 489 799 
f 492 799 489 
f 564 480 478 
f 57 198 639 
f 773 228 226 
f 800 496 691 
f 580 691 496 
f 803 802 801 
f 674 801 802 
f 804 642 736 
f 797 530 532 
f 203 206 805 
f 806 805 206 
f 807 565 563 
f 751 749 536 
f 640 536 749 
f 532 631 797 
f 787 809 808 
f 118 808 809 
f 273 276 659 
f 354 180 807 
f 743 807 180 
f 156 810 158 
f 747 158 810 
f 813 812 811 
f 656 811 812 
f 644 273 659 
f 816 815 814 
f 742 814 815 
f 321 627 320 
f 710 792 526 
f 531 529 528 
f 305 818 817 
f 819 817 818 
f 648 485 250 
f 818 305 345 
f 346 345 305 
f 306 650 346 
f 332 190 191 
f 680 820 208 
f 821 208 820 
f 705 457 459 
f 454 673 674 
f 644 673 454 
f 821 467 539 
f 541 539 467 
f 535 367 822 
f 365 822 367 
f 259 546 548 
f 254 823 715 
f 704 715 823 
f 529 824 689 
f 408 689 824 
f 798 690 393 
f 531 824 529 
f 125 92 342 
f 76 826 825 
f 827 825 826 
f 649 251 828 
f 829 828 251 
f 801 684 685 
f 674 684 801 
f 479 402 400 
f 832 831 830 
f 833 830 831 
f 308 164 635 
f 165 635 164 
f 834 298 296 
f 835 692 75 
f 39 740 90 
f 333 687 331 
f 836 331 687 
f 837 408 824 
f 560 668 562 
f 838 280 641 
f 361 682 839 
f 741 839 682 
f 173 733 731 
f 316 443 696 
f 841 742 840 
f 744 840 742 
f 478 609 564 
f 842 564 609 
f 486 843 488 
f 844 488 843 
f 709 707 462 
f 464 462 707 
f 809 845 118 
f 730 118 845 
f 832 677 846 
f 847 846 677 
f 617 616 472 
f 662 472 616 
f 833 341 848 
f 849 848 341 
f 801 685 573 
f 540 31 550 
f 34 550 31 
f 852 851 850 
f 362 850 851 
f 408 837 410 
f 519 410 837 
f 265 840 449 
f 302 449 840 
f 285 854 853 
f 855 853 854 
f 623 621 856 
f 753 856 621 
f 209 680 208 
f 56 678 55 
f 797 55 678 
f 407 848 849 
f 814 841 332 
f 245 332 841 
f 857 625 33 
f 536 640 280 
f 859 858 148 
f 147 148 858 
f 861 540 860 
f 550 860 540 
f 777 862 328 
f 327 328 862 
f 789 56 274 
f 54 274 56 
f 517 751 536 
f 646 728 318 
f 205 318 728 
f 864 863 777 
f 865 777 863 
f 624 866 695 
f 694 695 866 
f 154 647 649 
f 633 651 739 
f 650 739 651 
f 519 522 410 
f 441 410 522 
f 854 772 867 
f 868 867 772 
f 555 734 522 
f 527 588 484 
f 315 587 314 
f 187 157 155 
f 736 735 811 
f 869 811 735 
f 652 370 371 
f 213 127 130 
f 714 871 870 
f 872 870 871 
f 272 873 277 
f 223 277 873 
f 578 651 874 
f 769 874 651 
f 727 159 763 
f 605 371 369 
f 581 210 861 
f 539 861 210 
f 386 244 266 
f 725 159 727 
f 578 37 317 
f 120 438 117 
f 516 768 751 
f 876 875 309 
f 128 309 875 
f 789 434 435 
f 440 877 50 
f 878 50 877 
f 162 339 340 
f 30 6 7 
f 269 326 879 
f 329 879 326 
f 662 329 472 
f 399 480 880 
f 565 880 480 
f 382 334 337 
f 881 755 754 
f 882 755 881 
f 429 427 755 
f 429 755 882 
f 556 756 555 
f 844 758 488 
f 584 488 758 
f 337 884 883 
f 885 883 884 
f 541 886 538 
f 31 538 886 
f 372 351 350 
f 738 731 49 
f 887 398 91 
f 888 91 398 
f 889 759 760 
f 890 759 889 
f 881 754 759 
f 881 759 890 
f 33 31 886 
f 891 764 761 
f 243 892 99 
f 96 99 892 
f 514 517 893 
f 894 893 517 
f 245 841 840 
f 733 173 504 
f 895 504 173 
f 166 5 567 
f 8 567 5 
f 805 896 203 
f 818 203 896 
f 285 338 287 
f 897 767 766 
f 827 668 560 
f 450 302 300 
f 889 760 767 
f 889 767 897 
f 740 39 577 
f 37 577 39 
f 882 881 890 
f 839 850 361 
f 362 361 850 
f 516 751 515 
f 517 515 751 
f 898 771 764 
f 891 898 764 
f 898 766 771 
f 495 398 887 
f 752 746 663 
f 899 663 746 
f 900 96 892 
f 564 901 563 
f 737 563 901 
f 215 218 699 
f 368 366 902 
f 713 902 366 
f 739 566 634 
f 903 634 566 
f 105 106 904 
f 461 904 106 
f 260 211 142 
f 44 142 211 
f 119 808 118 
f 494 499 264 
f 185 43 633 
f 905 306 304 
f 451 450 494 
f 499 494 450 
f 387 386 266 
f 184 182 239 
f 404 239 182 
f 718 392 390 
f 907 483 906 
f 481 906 483 
f 368 355 737 
f 353 737 355 
f 395 458 397 
f 320 326 269 
f 908 828 829 
f 838 279 280 
f 741 909 179 
f 181 179 909 
f 910 776 279 
f 692 600 693 
f 413 693 600 
f 797 678 679 
f 900 679 96 
f 149 236 146 
f 247 143 628 
f 141 628 143 
f 389 252 388 
f 912 911 668 
f 667 668 911 
f 487 350 227 
f 667 911 798 
f 913 798 911 
f 124 131 126 
f 914 126 131 
f 833 287 341 
f 853 855 763 
f 727 763 855 
f 878 680 50 
f 634 903 779 
f 781 779 903 
f 697 782 700 
f 783 700 782 
f 585 584 400 
f 276 274 639 
f 54 639 274 
f 632 779 780 
f 917 916 915 
f 514 915 916 
f 568 919 918 
f 905 918 919 
f 920 582 583 
f 922 921 688 
f 416 688 921 
f 748 747 923 
f 859 923 747 
f 242 297 241 
f 574 465 428 
f 657 217 224 
f 425 224 217 
f 368 924 355 
f 352 355 924 
f 718 348 762 
f 732 762 348 
f 399 880 925 
f 815 925 880 
f 210 208 821 
f 353 354 807 
f 926 846 847 
f 900 927 679 
f 530 679 927 
f 743 565 807 
f 250 251 648 
f 679 530 797 
f 820 680 878 
f 120 730 928 
f 260 928 730 
f 929 548 905 
f 918 905 548 
f 863 477 865 
f 475 865 477 
f 930 298 834 
f 358 109 112 
f 775 132 133 
f 112 239 336 
f 404 336 239 
f 192 385 189 
f 247 931 671 
f 437 671 931 
f 210 821 539 
f 924 368 902 
f 930 900 298 
f 892 298 900 
f 932 156 264 
f 621 622 753 
f 696 753 622 
f 277 24 933 
f 27 933 24 
f 496 800 799 
f 900 930 927 
f 531 927 930 
f 935 899 934 
f 745 934 899 
f 426 646 40 
f 318 40 646 
f 927 531 530 
f 786 936 620 
f 622 620 936 
f 10 277 12 
f 933 12 277 
f 423 89 221 
f 131 134 914 
f 364 914 134 
f 181 909 683 
f 681 683 909 
f 933 27 717 
f 716 717 27 
f 939 938 937 
f 940 937 938 
f 802 453 454 
f 225 228 342 
f 125 342 228 
f 674 802 454 
f 423 426 941 
f 38 941 426 
f 637 481 227 
f 852 924 902 
f 538 31 540 
f 652 371 722 
f 49 732 348 
f 785 620 623 
f 711 942 852 
f 851 852 942 
f 496 799 943 
f 944 943 799 
f 930 824 531 
f 200 160 262 
f 945 897 107 
f 898 107 897 
f 946 785 623 
f 825 827 560 
f 858 947 389 
f 249 389 947 
f 907 906 948 
f 888 948 906 
f 949 748 806 
f 805 806 748 
f 950 33 886 
f 589 99 193 
f 97 193 99 
f 857 950 106 
f 463 106 950 
f 345 203 818 
f 915 514 842 
f 893 842 514 
f 358 344 109 
f 392 718 951 
f 762 951 718 
f 103 657 100 
f 942 714 870 
f 576 578 874 
f 834 837 824 
f 834 824 930 
f 655 952 843 
f 917 843 952 
f 683 291 294 
f 202 200 262 
f 888 906 481 
f 546 452 168 
f 803 801 573 
f 735 640 749 
f 487 488 584 
f 953 175 209 
f 738 209 175 
f 954 912 827 
f 668 827 912 
f 873 643 223 
f 493 187 698 
f 512 698 187 
f 955 174 172 
f 506 483 907 
f 956 665 664 
f 957 143 248 
f 857 104 958 
f 795 958 104 
f 792 803 573 
f 500 791 498 
f 837 720 519 
f 257 452 546 
f 834 720 837 
f 533 955 606 
f 722 606 955 
f 104 107 795 
f 794 795 107 
f 101 959 922 
f 921 922 959 
f 823 254 876 
f 255 876 254 
f 261 127 213 
f 386 192 244 
f 722 920 583 
f 590 333 191 
f 835 825 561 
f 560 561 825 
f 600 561 559 
f 731 738 175 
f 911 960 913 
f 926 913 960 
f 849 443 316 
f 624 961 866 
f 958 866 961 
f 221 26 223 
f 654 505 804 
f 558 804 505 
f 337 434 884 
f 453 884 434 
f 950 962 463 
f 963 463 962 
f 374 231 414 
f 868 414 231 
f 48 349 50 
f 440 50 349 
f 44 214 770 
f 706 770 214 
f 902 711 852 
f 964 859 148 
f 89 941 88 
f 38 88 941 
f 433 319 322 
f 804 656 654 
f 413 414 693 
f 816 814 836 
f 332 836 814 
f 929 666 548 
f 259 548 666 
f 965 526 524 
f 544 865 475 
f 648 701 702 
f 910 966 776 
f 712 776 966 
f 583 652 722 
f 670 437 111 
f 942 711 714 
f 264 967 932 
f 908 932 967 
f 940 127 261 
f 315 786 490 
f 723 490 786 
f 672 969 968 
f 970 968 969 
f 226 652 773 
f 524 525 971 
f 428 971 525 
f 868 231 229 
f 972 502 232 
f 817 703 307 
f 665 307 703 
f 167 65 64 
f 261 730 845 
f 257 321 452 
f 794 898 891 
f 175 173 731 
f 189 216 591 
f 217 591 216 
f 795 793 958 
f 866 958 793 
f 12 717 704 
f 715 704 717 
f 662 616 719 
f 521 719 616 
f 28 240 589 
f 243 589 240 
f 866 793 694 
f 796 694 793 
f 628 931 247 
f 482 507 486 
f 446 161 725 
f 159 725 161 
f 229 502 867 
f 854 867 502 
f 428 429 971 
f 973 971 429 
f 965 971 973 
f 524 971 965 
f 464 965 973 
f 806 206 686 
f 698 266 493 
f 617 472 473 
f 811 869 813 
f 768 813 869 
f 943 119 117 
f 822 893 894 
f 821 820 248 
f 878 248 820 
f 974 882 890 
f 973 429 882 
f 974 973 882 
f 933 717 12 
f 152 495 154 
f 887 154 495 
f 464 973 974 
f 720 296 721 
f 382 337 883 
f 875 130 128 
f 647 701 648 
f 975 372 585 
f 350 585 372 
f 976 757 556 
f 756 556 757 
f 520 976 556 
f 796 976 520 
f 867 868 229 
f 305 306 346 
f 891 757 976 
f 945 890 889 
f 260 142 928 
f 140 928 142 
f 953 172 175 
f 300 303 500 
f 791 500 303 
f 931 420 421 
f 435 780 778 
f 928 140 977 
f 957 977 140 
f 944 808 119 
f 210 581 207 
f 566 194 903 
f 195 903 194 
f 459 978 838 
f 910 838 978 
f 174 955 533 
f 794 891 976 
f 796 794 976 
f 766 898 897 
f 744 178 302 
f 298 892 243 
f 945 889 897 
f 202 379 636 
f 378 636 379 
f 622 313 696 
f 817 307 305 
f 838 910 279 
f 951 762 373 
f 129 940 938 
f 347 390 349 
f 709 551 708 
f 554 708 551 
f 647 887 701 
f 94 701 887 
f 321 257 258 
f 153 151 979 
f 714 979 151 
f 661 752 663 
f 905 304 929 
f 956 929 304 
f 450 300 499 
f 500 499 300 
f 547 168 166 
f 549 796 520 
f 670 980 672 
f 360 672 980 
f 107 898 794 
f 111 980 670 
f 953 582 920 
f 753 165 856 
f 163 856 165 
f 945 107 105 
f 913 926 690 
f 691 690 926 
f 449 451 265 
f 266 265 451 
f 962 981 963 
f 982 963 981 
f 983 103 101 
f 151 154 871 
f 649 871 154 
f 111 344 980 
f 359 980 344 
f 297 752 721 
f 967 851 908 
f 870 908 851 
f 406 873 272 
f 255 310 875 
f 130 875 310 
f 76 984 826 
f 985 826 984 
f 986 329 662 
f 803 885 802 
f 453 802 885 
f 360 980 359 
f 228 773 775 
f 574 428 525 
f 142 42 141 
f 683 294 181 
f 303 181 294 
f 862 865 544 
f 419 185 183 
f 810 947 858 
f 804 558 642 
f 705 642 558 
f 871 649 872 
f 828 872 649 
f 768 869 750 
f 735 750 869 
f 925 975 401 
f 585 401 975 
f 256 716 740 
f 948 888 398 
f 987 653 812 
f 656 812 653 
f 291 682 361 
f 255 253 311 
f 576 311 253 
f 214 44 211 
f 243 99 589 
f 988 827 826 
f 849 316 407 
f 713 776 712 
f 127 940 129 
f 341 339 849 
f 443 849 339 
f 901 842 893 
f 635 378 308 
f 309 308 378 
f 965 464 707 
f 365 901 893 
f 953 209 207 
f 333 688 687 
f 692 561 600 
f 864 914 863 
f 364 863 914 
f 432 406 405 
f 916 516 514 
f 93 888 481 
f 688 333 983 
f 590 983 333 
f 789 274 275 
f 872 908 870 
f 507 505 654 
f 434 789 275 
f 89 423 941 
f 831 832 954 
f 960 954 832 
f 963 982 970 
f 968 970 982 
f 298 243 241 
f 202 636 199 
f 989 586 587 
f 296 720 834 
f 990 102 873 
f 643 873 102 
f 677 991 847 
f 489 847 991 
f 399 925 401 
f 651 578 317 
f 975 992 369 
f 605 369 992 
f 992 975 925 
f 739 634 633 
f 335 780 435 
f 385 387 511 
f 591 103 590 
f 983 590 103 
f 552 993 381 
f 358 381 993 
f 884 453 885 
f 641 642 705 
f 187 186 512 
f 990 873 406 
f 904 890 945 
f 362 967 498 
f 264 498 967 
f 994 98 788 
f 924 839 741 
f 888 93 91 
f 130 212 213 
f 102 100 643 
f 852 850 839 
f 860 132 775 
f 667 392 669 
f 951 669 392 
f 978 459 458 
f 700 783 729 
f 204 729 783 
f 106 463 461 
f 995 885 803 
f 883 885 995 
f 946 939 937 
f 226 351 652 
f 382 883 995 
f 367 535 278 
f 536 535 996 
f 822 996 535 
f 56 98 678 
f 746 752 297 
f 364 476 477 
f 997 396 397 
f 655 998 952 
f 987 952 998 
f 791 294 292 
f 310 212 130 
f 620 785 786 
f 918 547 568 
f 414 772 77 
f 842 901 564 
f 744 743 180 
f 792 995 803 
f 332 331 836 
f 231 375 230 
f 504 230 375 
f 382 995 710 
f 792 710 995 
f 554 382 710 
f 380 382 554 
f 543 34 32 
f 227 482 487 
f 864 603 126 
f 787 785 946 
f 977 120 928 
f 912 954 960 
f 406 432 990 
f 959 990 432 
f 864 702 603 
f 707 710 526 
f 708 554 710 
f 632 404 182 
f 44 42 142 
f 777 865 862 
f 909 682 681 
f 645 700 729 
f 745 28 30 
f 477 863 364 
f 93 637 342 
f 225 342 637 
f 709 963 970 
f 968 671 672 
f 745 899 746 
f 989 491 991 
f 489 991 491 
f 833 848 830 
f 676 830 848 
f 811 656 736 
f 804 736 656 
f 147 858 389 
f 745 121 934 
f 999 934 121 
f 117 496 943 
f 363 860 550 
f 547 918 548 
f 689 408 411 
f 153 979 966 
f 712 966 979 
f 625 961 624 
f 808 723 787 
f 161 446 415 
f 781 195 994 
f 97 994 195 
f 800 691 926 
f 541 467 981 
f 466 981 467 
f 516 813 768 
f 936 313 622 
f 294 791 303 
f 925 816 992 
f 607 992 816 
f 874 706 576 
f 586 989 675 
f 991 675 989 
f 377 11 823 
f 704 823 11 
f 526 965 707 
f 506 507 482 
f 895 503 504 
f 153 468 152 
f 686 204 783 
f 653 998 655 
f 106 104 857 
f 13 202 262 
f 437 931 238 
f 421 238 931 
f 887 647 154 
f 937 845 809 
f 896 805 923 
f 748 923 805 
f 626 473 542 
f 862 542 473 
f 919 568 739 
f 664 666 929 
f 151 871 714 
f 254 715 256 
f 443 339 162 
f 878 977 957 
f 166 64 5 
f 199 444 201 
f 253 740 577 
f 744 302 840 
f 874 769 770 
f 289 529 689 
f 904 974 890 
f 545 626 542 
f 433 65 167 
f 464 974 461 
f 904 461 974 
f 772 414 868 
f 929 956 664 
f 658 949 784 
f 806 784 949 
f 258 237 235 
f 988 954 827 
f 255 875 876 
f 872 828 908 
f 658 186 949 
f 188 949 186 
f 829 251 249 
f 891 761 757 
f 286 772 854 
f 74 984 76 
f 699 700 645 
f 915 609 608 
f 199 635 444 
f 165 444 635 
f 814 742 841 
f 993 552 553 
f 623 856 939 
f 163 939 856 
f 919 739 650 
f 908 829 932 
f 947 932 829 
f 847 800 926 
f 120 118 730 
f 404 780 335 
f 236 234 665 
f 810 859 747 
f 997 397 457 
f 160 200 162 
f 201 162 200 
f 977 878 877 
f 242 746 297 
f 491 989 587 
f 879 1000 268 
f 270 268 1000 
f 158 188 155 
f 473 327 862 
f 30 121 745 
f 904 945 105 
f 318 37 40 
f 677 830 676 
f 358 112 381 
f 779 632 634 
f 819 923 859 
f 277 10 272 
f 923 819 896 
f 818 896 819 
f 121 65 433 
f 830 677 832 
f 967 362 851 
f 939 163 938 
f 129 938 163 
f 922 688 983 
f 248 246 467 
f 972 855 502 
f 854 502 855 
f 195 193 97 
f 328 627 252 
f 545 543 32 
f 269 322 320 
f 994 97 98 
f 699 645 424 
f 365 737 901 
f 541 981 962 
f 559 376 600 
f 161 418 405 
f 998 653 987 
f 790 503 895 
f 925 815 816 
f 566 8 194 
f 6 194 8 
f 726 790 534 
f 174 534 790 
f 836 687 607 
f 506 907 508 
f 997 508 907 
f 447 607 417 
f 228 133 125 
f 231 374 375 
f 774 583 581 
f 781 994 788 
f 553 709 970 
f 978 468 1001 
f 153 1001 468 
f 694 796 549 
f 353 563 737 
f 847 489 800 
f 94 887 91 
f 829 249 947 
f 625 857 961 
f 958 961 857 
f 788 789 778 
f 435 778 789 
f 591 217 657 
f 937 940 845 
f 261 845 940 
f 675 991 677 
f 459 838 641 
f 821 248 467 
f 956 307 665 
f 832 846 960 
f 926 960 846 
f 964 817 819 
f 267 322 269 
f 366 281 713 
f 329 986 879 
f 1000 879 986 
f 911 912 960 
f 851 942 870 
f 446 725 726 
f 76 825 835 
f 626 695 473 
f 617 473 695 
f 32 625 545 
f 962 886 541 
f 844 843 917 
f 270 934 999 
f 712 979 714 
f 844 479 758 
f 493 494 157 
f 264 157 494 
f 628 420 931 
f 483 506 482 
f 648 702 485 
f 791 292 293 
f 559 669 1002 
f 951 1002 669 
f 259 666 237 
f 234 237 666 
f 253 256 740 
f 893 822 365 
f 935 663 899 
f 878 957 248 
f 363 132 860 
f 468 978 458 
f 396 948 398 
f 552 380 554 
f 340 338 853 
f 285 853 338 
f 195 781 903 
f 724 790 726 
f 671 466 247 
f 209 738 680 
f 126 914 864 
f 417 688 416 
f 877 438 977 
f 120 977 438 
f 935 270 1000 
f 660 935 1000 
f 663 935 660 
f 582 953 207 
f 252 389 249 
f 964 146 703 
f 781 788 778 
f 959 101 102 
f 658 784 510 
f 782 510 784 
f 705 459 641 
f 816 836 607 
f 608 479 844 
f 303 301 181 
f 955 172 920 
f 953 920 172 
f 421 184 238 
f 492 944 799 
f 987 813 516 
f 287 833 985 
f 988 985 833 
f 215 699 424 
f 609 915 842 
f 174 790 895 
f 43 44 770 
f 877 440 438 
f 353 807 563 
f 660 1000 986 
f 950 886 962 
f 946 937 809 
f 986 662 660 
f 853 763 340 
f 722 955 920 
f 719 661 662 
f 407 676 848 
f 352 924 741 
f 810 858 859 
f 874 770 706 
f 729 646 645 
f 348 48 49 
f 304 307 956 
f 997 907 948 
f 713 711 902 
f 932 810 156 
f 826 985 988 
f 360 993 969 
f 553 969 993 
f 425 215 424 
f 510 782 697 
f 517 536 996 
f 13 379 202 
f 481 637 93 
f 978 1001 910 
f 966 910 1001 
f 183 184 421 
f 321 258 627 
f 951 373 376 
f 1001 153 966 
f 753 444 165 
f 418 161 415 
f 894 996 822 
f 265 245 840 
f 854 285 286 
f 416 921 432 
f 959 432 921 
f 924 852 839 
f 950 857 33 
f 969 553 970 
f 287 984 74 
f 605 992 607 
f 404 632 780 
f 655 843 486 
f 272 263 406 
f 399 402 480 
f 585 400 401 
f 944 723 808 
f 146 964 148 
f 606 447 445 
f 777 702 864 
f 748 949 188 
f 964 703 817 
f 257 546 259 
f 509 658 510 
f 28 242 240 
f 916 987 516 
f 463 963 462 
f 709 462 963 
f 946 623 939 
f 376 1002 951 
f 306 919 650 
f 608 844 917 
f 709 553 551 
f 936 786 315 
f 11 379 13 
f 149 235 236 
f 391 392 667 
f 76 835 75 
f 726 534 446 
f 157 187 493 
f 287 985 984 
f 997 948 396 
f 508 997 457 
f 29 194 6 
f 729 728 646 
f 228 775 133 
f 657 103 591 
f 861 774 581 
f 972 727 855 
f 306 905 919 
f 380 552 381 
f 559 1002 376 
f 987 916 952 
f 917 952 916 
f 511 698 512 
f 212 311 214 
f 813 987 812 
f 724 972 232 
f 542 862 544 
f 539 540 861 
f 831 988 833 
f 798 913 690 
f 579 440 349 
f 880 565 815 
f 742 815 565 
f 315 491 587 
f 831 954 988 
f 917 915 608 
f 727 972 724 
f 562 669 559 
f 37 578 577 
f 651 633 769 
f 999 121 433 
f 270 935 934 
f 741 682 909 
f 377 876 309 
f 517 996 894 
f 876 377 823 
f 819 859 964 
f 173 174 895 
f 810 932 947 
f 774 861 860 
f 466 982 981 
f 999 267 270 
f 579 439 440 
f 425 217 215 
f 140 143 957 
f 975 369 372 
f 315 490 491 
f 322 999 433 
f 268 269 879 
f 180 178 744 
f 993 360 358 
f 999 322 267 
f 313 936 315 
f 806 686 784 
f 982 466 968 
f 671 968 466 
f 946 809 787 
f 561 692 835 
f 101 922 983 
f 119 943 944 
f 377 379 11 
f 102 990 959 
f 774 860 775 
f 180 354 179 
f 632 182 185 
f 723 944 492 
f 245 190 332 
f 969 672 360 
