v 76.9616981953188 102.903419184701 -102.903419184701
vn 0.9994385242 0.0038381035 0.0332859270
v 61.1317109659888 124.310466730687 -90.2523478794546
vn -0.5112237334 0.8540702462 -0.0959912390
v 75.2973678274067 108.897635357844 -100.284058961551
vn 0.9269235730 0.3748687804 0.0169144645
v 63.553896257978 96.0285676363158 -115.024454014325
vn -0.3591727614 -0.3928457201 -0.8465619683
v 67.7331086479869 114.642851588217 -111.512316194239
vn 0.0662520677 0.7793453932 -0.6230822206
v 67.7293953157519 118.150485312345 -106.771986787008
vn 0.1861074269 0.6638899446 -0.7243025303
v 79.1164520912427 101.117773983066 -88.4601971946482
vn 0.0919923037 -0.9945740104 -0.0485792011
v 84.362872030292 107.008515929463 -66.1453472131361
vn -0.2427062541 -0.4793210924 0.8434126973
v 47.742749090391 110.044673343244 -95.0393904165885
vn -0.9745767713 0.2238127887 -0.0103921378
v 69.04701661505 103.371872582397 -115.540611084243
vn 0.0000000000 0.0000000000 -1.0000000000
v 76.8420148776513 110.255611337584 -65.2185955049553
vn -0.0101221325 -0.3246912360 0.9457659125
v 81.6390677757432 101.088627351119 -88.7248561576461
vn -0.2448100150 -0.9666007757 -0.0758354515
v 95.9801080241692 113.747247230922 -66.9934916703143
vn 0.4572381973 0.6098251343 0.6473380327
v 61.62320232038 115.172979010521 -107.362034022934
vn -0.4110665023 0.5913000107 -0.6938217282
v 85.0469657099603 98.7642961016385 -82.7620824414379
vn -0.2185771465 -0.9610851407 0.1689358801
v 63.2519446339219 120.8938535101 -76.6115405437548
vn -0.5169720054 0.3987868726 0.7574357986
v 71.8018395803608 94.3274601653591 -111.317479443503
vn 0.5517447591 -0.8235068917 -0.1319625676
v 69.3314023973384 92.9132674386781 -111.434839938652
vn 0.5513032675 -0.5976655483 -0.5821173191
v 70.2748912656035 93.5856693368127 -102.064815532692
vn 0.9070565701 -0.4209643900 0.0061117848
v 64.2076247855232 114.428432246597 -109.594348494549
vn -0.3896354437 0.7477282882 -0.5376678109
v 69.0228306835309 89.811813179688 -101.532887727421
vn 0.8262331486 -0.5558972955 0.0911975279
v 92.7233403423917 108.437524115536 -65.2185955049553
vn 0.2934149504 -0.4202537537 0.8586585522
v 95.036489179877 109.619688223747 -86.2312383765126
vn 0.6667200327 -0.4921470582 -0.5597103834
v 61.6357386783045 98.4950968402608 -75.0141637124559
vn -0.1931895316 -0.4728203118 0.8597201705
v 69.8126958118913 94.1008656253336 -112.285288541796
vn 0.3857563138 -0.6151257157 -0.6876135468
v 66.3055629886202 113.788400942399 -113.746389886562
vn 0.1266773194 0.7814070582 -0.6110284925
v 72.5594216191382 109.364113377818 -113.909344597002
vn 0.6100431681 0.6060812473 -0.5104046464
v 57.3350942877247 93.8700425770063 -84.7062870997909
vn -0.6960576773 -0.6949566603 0.1803854555
v 65.0292004819449 93.8745590233777 -81.9349256876412
vn 0.6006197929 -0.7792571187 0.1789253056
v 58.5489489737512 93.9647058592727 -107.408375991975
vn -0.6075132489 -0.5824585557 -0.5400645733
v 63.106524721562 122.750153766155 -99.859653408861
vn -0.4937726557 0.8258245587 -0.2724011540
v 72.0267970764538 107.329068793062 -67.3767572609707
vn -0.2376959920 -0.5554405451 0.7968603373
v 80.1647090813146 110.141487219835 -65.2185955049553
vn -0.0180568025 -0.3046439588 0.9522951245
v 75.0034615270335 107.349338656052 -67.2844167740165
vn -0.0078877499 -0.7087666392 0.7053989172
v 66.8492411398815 95.5386767736565 -84.3230407689037
vn 0.6726726294 -0.7358279228 0.0779027417
v 61.2222192430282 86.0455625025042 -102.638243580573
vn -0.2780164182 -0.9597985148 0.0386478789
v 78.346229782519 107.377254046146 -67.1572466635872
vn -0.0244644042 -0.7120240331 0.7017287612
v 78.1019801697984 126.650485358891 -89.0079301663852
vn 0.2854901850 0.8781485558 -0.3838625848
v 61.2117794282118 96.2180425552031 -112.160675593443
vn -0.6922271848 -0.4398881495 -0.5721188188
v 93.5680346602394 116.473533716198 -88.8716566874
vn 0.6198197603 0.2594098151 -0.7406281233
v 74.3453282255702 108.986031806691 -108.820733872712
vn 0.9697216153 0.2330064029 -0.0731303319
v 54.0413484503405 111.537945684978 -83.5188642891129
vn -0.9045814276 0.2341659367 0.3562285006
v 89.0465119277024 98.2484076769535 -84.1729102010834
vn 0.1707312167 -0.9720975161 0.1608642340
v 77.0766936306166 100.031322153283 -93.4046599352732
vn 0.7198364139 -0.6754886508 -0.1598456949
v 87.5542730635936 117.787301545841 -75.5264977326921
vn 0.5240762234 0.7732102275 0.3570574820
v 68.6562533718273 122.384306242676 -101.751927057712
vn 0.5350968242 0.7700521350 -0.3474062085
v 55.8976208526826 118.13036571023 -96.452544795686
vn -0.5202332735 0.7833292484 -0.3402243853
v 70.7455951240193 117.714763345684 -98.2865039629152
vn 0.8267080188 0.4175626934 -0.3770879209
v 68.3989502889108 117.237831327746 -109.233690663628
vn 0.1715544164 0.8009977937 -0.5735604763
v 66.5050238234725 105.969800316022 -115.540611084243
vn 0.0000000000 0.0000000000 -1.0000000000
v 74.3098769645684 126.805162688811 -89.6773936472825
vn 0.1384097338 0.9446972609 -0.2973042727
v 85.4379610744139 98.3419447849009 -85.725356792597
vn -0.2479697168 -0.9516355395 -0.1813858151
v 83.9418476949629 100.208333197992 -89.927098449724
vn -0.2257674634 -0.7373743057 -0.6366382241
v 68.4632380562697 120.241689809364 -104.913889443979
vn 0.4053064585 0.6380870938 -0.6546537280
v 87.9705415839471 106.843671999418 -65.248568618022
vn -0.0320268907 -0.4222351015 0.9059204459
v 73.0889636034901 99.3624456359728 -103.305048910432
vn 0.8335826397 -0.5342313051 -0.1404881030
v 73.5824808938235 100.10994084197 -77.2887306327852
vn 0.2769943178 -0.9123350978 0.3015274107
v 64.217226776452 113.767024216263 -112.39976942754
vn -0.4444686770 0.8175936937 -0.3660439551
v 50.0951833659448 111.646021120495 -99.1315570195939
vn -0.6995292306 0.5712385178 -0.4293546379
v 70.4470580074666 97.7462476889206 -88.9014529409835
vn 0.5184194446 -0.8515924215 0.0776636600
v 69.7169435005727 103.762374515843 -70.7706041411988
vn 0.1559880972 -0.6722497344 0.7237043977
v 62.985639409168 125.187647578264 -87.1395327657902
vn -0.4413782358 0.8866540790 0.1379486322
v 75.9843839682612 101.087184454865 -83.5790356579872
vn 0.3187354505 -0.9478281140 0.0054342356
v 71.1751975975023 110.825921038254 -112.759491827721
vn 0.5452736020 0.5979847908 -0.5874444246
v 81.3714790020884 101.606593143059 -82.5753556877231
vn -0.2036092281 -0.9772541523 -0.0593096055
v 77.8038903219738 126.399684065684 -80.4331005922591
vn 0.1336268932 0.9738269448 0.1838610470
v 75.8368081912876 118.797424921375 -68.2257145694293
vn -0.2806521654 0.7129839659 0.6425637603
v 64.0640036264842 115.574415591787 -74.7019800061091
vn -0.5577479005 0.3452530503 0.7547964454
v 78.6780128331429 101.491130852762 -84.0075052656269
vn 0.0636524707 -0.9963364601 0.0571138822
v 82.4476497578708 122.131662897844 -91.5573576744247
vn 0.2240782529 0.5376768708 -0.8128299713
v 62.0383182759532 123.804609252591 -84.5306947037428
vn -0.5213131905 0.8367695808 0.1674790978
v 69.9359582230891 101.480633093272 -73.4255746412162
vn 0.2544731498 -0.7743049860 0.5793920755
v 50.7088077466128 105.342986684189 -87.9549771993591
vn -0.8981935978 -0.0792386010 0.4323997200
v 65.307849645835 88.587560414255 -107.802811617553
vn 0.4815243185 -0.7277595997 -0.4883648753
v 53.3922827489115 109.178315952701 -81.6361554677342
vn -0.9410911798 0.1921014339 0.2782883048
v 65.6763957679661 86.2628716379909 -102.765497384461
vn 0.7100998759 -0.6199854016 -0.3337307572
v 65.3432827058301 91.6478622579809 -88.1430767325218
vn 0.7688131332 -0.6342151761 0.0818382427
v 74.4348512346424 100.228129819032 -86.0457604640025
vn 0.4258183241 -0.9009929895 0.0830084682
v 80.8521087131649 101.79112074438 -91.1403190474269
vn 0.1236808151 -0.7891570926 -0.6016096473
v 73.8691174725687 111.896035019518 -99.7924180676662
vn 0.8789511919 0.2555149496 0.4026871324
v 86.9363706446924 121.918602605581 -89.7723560719477
vn 0.3627735376 0.7786394358 -0.5119726062
v 49.0422486760174 103.804237672896 -99.7325361421019
vn -0.8868569136 -0.3661135137 -0.2818611562
v 63.1007585935305 105.420415049417 -115.540611084243
vn -0.1033372506 0.0693184510 -0.9922279716
v 56.213321013613 116.679488924631 -83.5527981676283
vn -0.7737176418 0.4480842948 0.4478631914
v 51.5769735260935 111.76633360444 -101.319446862071
vn -0.7132647634 0.6065520048 -0.3512093723
v 52.9498721727183 102.391770711197 -82.6660632311178
vn -0.9428251982 -0.1341660619 0.3050903082
v 65.3519629722505 113.846373818701 -72.2354123776119
vn -0.7081364989 0.3145555258 0.6321372390
v 53.8087740463786 114.819218228075 -85.0587163847144
vn -0.8013535142 0.3308596313 0.4983617663
v 65.4091360688486 92.3610922693695 -90.8966922602659
vn 0.8009012341 -0.5822640061 0.1397348046
v 52.3142406584435 104.190550454014 -85.2819244820439
vn -0.9407747388 -0.0501210093 0.3353070021
v 54.190174091631 103.976435164648 -79.6922167451981
vn -0.8682579398 -0.0450730398 0.4940612912
v 65.1315905328597 85.8883180388553 -103.310302619567
vn -0.2271162570 -0.7975222468 -0.5589064360
v 63.8038389472924 124.584115225925 -81.8271143569183
vn -0.4805461764 0.8532539606 0.2025660425
v 66.8504049330822 126.640677586346 -91.9533243691767
vn -0.2610234916 0.9634761810 -0.0598361120
v 84.8610225988738 123.889494818272 -79.6328266781595
vn 0.4037626684 0.8784461021 0.2555546165
v 96.0561610973723 111.227147413984 -86.4915195438804
vn 0.6665285826 -0.2122335285 -0.7146303654
v 66.9229641401707 126.535723023336 -84.3901732473861
vn -0.2965438962 0.9542512894 0.0382909924
v 71.7453289880525 126.417992076435 -80.1456357294205
vn -0.0250175465 0.9645755887 0.2626176178
v 75.2061273845092 126.66817747789 -82.0291832014714
vn 0.0259074643 0.9951059222 0.0953571498
v 75.6523371391186 126.805162688811 -85.9122846049401
vn 0.0585438199 0.9981517196 0.0163023602
v 82.2355391167906 112.842367541317 -65.2185955049553
vn 0.0000000000 0.0000000000 1.0000000000
v 80.8942694532515 125.715340567354 -83.4566247209174
vn 0.3393233716 0.9380183816 0.0705769956
v 91.8163341679385 118.162682023322 -80.666736952751
vn 0.5366564393 0.6502029300 0.5378066301
v 75.9016340494977 101.701863739834 -102.840135754022
vn 0.8281399012 -0.4977421165 -0.2577538788
v 94.6943543401268 110.847102768715 -87.7122474730446
vn 0.5606738329 -0.2267384529 -0.7963884473
v 90.9002687214255 100.36287598867 -80.6972574938946
vn 0.7033597231 -0.7104059458 0.0246689599
v 70.155938000929 93.1748600299305 -106.005150954488
vn 0.9350365400 -0.3529168665 0.0340045467
v 55.5438448005252 95.1286504840686 -87.1330363521538
vn -0.7307276726 -0.6628300548 0.1633810103
v 56.0847992910889 94.300034375906 -90.4456914537381
vn -0.7302781940 -0.6814615130 0.0480000190
v 58.9590394760756 90.5236969753015 -94.5674778610687
vn -0.6094591022 -0.7514573336 0.2527279258
v 63.4124623231734 103.257812503519 -71.6969846811782
vn -0.4350613058 -0.3047798574 0.8472490311
v 86.2946178258797 102.874512314499 -91.8534698596828
vn 0.0880129635 -0.3100114167 -0.9466502070
v 57.8608286091117 110.384162035377 -76.4831471095239
vn -0.4668301046 0.2736217380 0.8409523368
v 61.9231162006012 109.174427008775 -73.4524622947915
vn -0.5683977008 0.2602444887 0.7805106044
v 64.9474883249598 92.7133651837549 -85.1160181673949
vn 0.7274917364 -0.6287180781 0.2747168541
v 65.0758989857031 88.5708332798904 -95.9291315115438
vn 0.4517856538 -0.7030130029 0.5492380857
v 94.17762198963 104.403983488866 -73.4685242697769
vn 0.6662793159 -0.7180821896 -0.2010717392
v 53.4833575148384 97.575351626837 -86.1940488548765
vn -0.8289342523 -0.5140556693 0.2204875052
v 95.5900937923812 105.326370364011 -70.4350777030944
vn 0.6228575110 -0.6874366999 0.3734692931
v 60.9592908069282 88.9286386163846 -105.239344509441
vn -0.4279952943 -0.6384762526 -0.6396625042
v 90.6434053742276 116.344327238157 -66.1873818799298
vn 0.3642467558 0.7338675261 0.5733783841
v 68.7810874391995 96.6976944404858 -86.5932564978612
vn 0.5764921308 -0.8162622452 0.0370507389
v 81.600139684826 107.434260648452 -66.8975499197503
vn -0.1459215730 -0.6625382304 0.7346768379
v 87.7207063882422 104.400742134653 -91.8017100193883
vn 0.3287217915 -0.1339181364 -0.9348838925
v 56.5307052915752 116.420447142838 -102.156257493356
vn -0.5885338187 0.7423119545 -0.3203136623
v 89.7309638390674 116.907046424952 -70.0099697607745
vn 0.3894327879 0.9177829623 -0.0775666162
v 73.4046743826018 111.734343450867 -104.596579066766
vn 0.9083679318 0.4064200521 -0.0984402448
v 89.1441845149259 100.986824848663 -90.3695084311047
vn 0.4565421343 -0.5373952985 -0.7090666890
v 95.9847095602623 117.909325206699 -82.9440245245145
vn 0.7202003598 0.6188609004 0.3135644495
v 58.6987532040009 110.136381325386 -109.020373739073
vn -0.4465447962 0.6239826679 -0.6412825584
v 67.0920160804876 96.6934699108423 -115.509272705569
vn 0.1221888810 -0.3622968793 -0.9240188599
v 98.4131366302305 109.196299459761 -74.1144329870678
vn 0.9615774155 -0.2741496265 0.0145223904
v 93.8810092769039 106.729634500936 -84.9708787750494
vn 0.7718428969 -0.5552477241 -0.3097716272
v 85.91392687298 99.588861442398 -90.12109994814
vn 0.0303507131 -0.6394171119 -0.7682607770
v 60.9572144795511 90.2338880534352 -92.2670201107428
vn -0.2575622797 -0.9439239502 0.2065653056
v 98.8731258121417 112.496302393652 -70.196656837253
vn 0.9958665967 0.0903969333 -0.0088364640
v 53.3101242189472 96.643579535013 -97.3257264261007
vn -0.8373891115 -0.5444769263 0.0482117683
v 67.6951183783154 96.3364719436117 -80.9239994150755
vn 0.5928766727 -0.7969902158 0.1153423563
v 68.2894631734441 126.805162688811 -88.7708972622141
vn -0.1172649935 0.9929147959 0.0192129314
v 74.0280737448323 99.0878405123627 -94.0089662700641
vn 0.4205987453 -0.9066625237 0.0325535461
v 56.558051060233 93.3273415648653 -93.6140081318081
vn -0.7438425422 -0.6539370418 0.1380747408
v 74.8778832631627 99.1769288668947 -112.799796492883
vn 0.9496293068 -0.3133195043 -0.0059251334
v 64.6990572832779 110.608697982705 -71.8448379561153
vn -0.6347072124 0.2161630243 0.7419031858
v 63.785149752112 107.403353750076 -71.5449999057692
vn -0.5938690901 0.1222571582 0.7952186465
v 51.1421860743296 115.421134220711 -95.3344969822026
vn -0.6680245399 0.6823930740 -0.2967876494
v 87.2167684865671 122.444284888634 -80.1839963278189
vn 0.6236588955 0.7305701375 0.2780589759
v 66.7651562116347 108.696844176525 -69.7187376021587
vn -0.5655915141 0.0702560022 0.8216874599
v 54.4085925129958 95.9784352171553 -92.7338332008164
vn -0.7614367604 -0.6464492679 0.0481397957
v 87.7357550087459 120.418576546625 -78.1122511218976
vn 0.5912168622 0.5886201262 0.5513519645
v 71.2395883275874 97.4453454728156 -94.52154198369
vn 0.6067181230 -0.7776939273 0.1645760834
v 80.9676006950999 115.813008158154 -65.2185955049553
vn 0.0418432057 0.2817260921 0.9585820436
v 48.5355493384716 109.662142098929 -91.7904993715011
vn -0.9127427936 0.0681891963 0.4028037190
v 94.2213659634434 109.178277640696 -87.1543076859248
vn 0.7011059523 -0.3433172703 -0.6249669194
v 48.4747424217311 109.892786090224 -97.948702216025
vn -0.8863938451 0.3238371611 -0.3308103383
v 50.877367684833 100.52789715116 -94.1693273081341
vn -0.8332981467 -0.5459951758 0.0866228044
v 61.6007010400294 112.16463424749 -110.06958550091
vn -0.5717930794 0.6701474190 -0.4732389748
v 75.3804032011331 104.826014266539 -72.0972000552192
vn 0.1214633584 -0.8173208237 0.5632346869
v 93.5444121772168 118.271262460816 -88.8004605462951
vn 0.6025403142 0.6791573763 -0.4191543758
v 72.6943753402307 124.746546802795 -76.5732124204758
vn -0.0268385112 0.8554493785 0.5171905160
v 83.4448322106041 110.381138141668 -91.8534698596828
vn 0.0000000000 0.0000000000 -1.0000000000
v 81.8390067600562 104.055191554706 -71.2070282548663
vn -0.3328954577 -0.7555902004 0.5641489625
v 97.429195202448 112.238466792059 -66.779942833784
vn 0.6647629738 0.0801223665 0.7427452803
v 97.1224569725208 106.957904951891 -80.5635058541977
vn 0.8083203435 -0.5873625875 -0.0402918719
v 69.7515218623069 106.676687949148 -115.540611084243
vn 0.0760230199 0.0655773506 -0.9949473143
v 77.4610193470528 101.115751119151 -86.1279611413679
vn 0.1493436843 -0.9839426279 0.0977410376
v 98.7480461266292 113.488739245429 -80.6546525112531
vn 0.9601781964 0.2790504396 0.0137346406
v 75.8166913542448 100.072352334393 -96.8740583520022
vn 0.7575150132 -0.6255907416 -0.1865670830
v 72.8857716866776 107.264706872924 -114.943760799095
vn 0.6148044467 0.2031279206 -0.7620725036
v 86.4463968634458 118.242232063323 -91.8222598418742
vn 0.1862664372 0.0511102192 -0.9811689854
v 57.1668684566292 101.820427409358 -111.422233205092
vn -0.7480094433 -0.2903839052 -0.5967906117
v 89.7746714218032 99.1813889118433 -85.2592941410297
vn 0.5631048679 -0.7867800593 -0.2527647614
v 97.5755997045589 112.935159369973 -69.113640498277
vn 0.6676263213 0.7309171557 0.1415457428
v 64.855204448874 86.9866518506912 -97.5473802758325
vn -0.0628511012 -0.9187829494 0.3897276223
v 53.7443227570234 96.6757750892863 -89.5156444677878
vn -0.7917386889 -0.6076923609 0.0621276014
v 91.7233574473837 104.196709943842 -87.0999494753127
vn 0.8468063474 -0.3760482371 -0.3761737943
v 62.6997054263933 93.1838821009503 -112.397990574665
vn -0.5674171448 -0.5786185861 -0.5858654380
v 51.0537414307173 116.001608852456 -91.6958384609027
vn -0.7794873118 0.6140468121 0.1238790303
v 88.9569750403628 99.0634886295084 -76.4831471095239
vn 0.2700685263 -0.9627844691 0.0104445089
v 50.5125802878218 108.977893050802 -88.7212288870133
vn -0.8654148579 0.0427115895 0.4992322624
v 60.0703776312979 87.6922398872161 -102.372694164664
vn -0.7415670753 -0.6356108189 -0.2146560550
v 59.7075636355786 104.749916273297 -115.179410266149
vn -0.4323672652 0.1304961741 -0.8922047615
v 87.5177477368398 115.126887515745 -65.2185955049553
vn 0.0853646770 0.2206863463 0.9716019630
v 66.9368970859934 112.098834209204 -69.9002424175155
vn -0.6338787079 0.1881140918 0.7502071857
v 90.943938666521 107.271599273975 -89.5804151913769
vn 0.6932478547 -0.1382766664 -0.7073096633
v 74.7563624969433 101.600718817125 -115.132469564967
vn 0.6645310521 -0.0143400747 -0.7471230030
v 57.7654286732532 103.977111339708 -113.101787585176
vn -0.7779206634 -0.0128399348 -0.6282313466
v 56.1270250350187 104.835206347924 -111.341133493013
vn -0.7952511311 0.0475983508 -0.6044088006
v 74.788594742385 99.2199333558336 -99.8196579132189
vn 0.8272712827 -0.5492806435 -0.1179533377
v 79.6048176580203 119.202585726786 -66.8253737268822
vn -0.0059621204 0.7615026236 0.6481344104
v 74.9394045338822 106.326816938926 -110.092698539937
vn 0.9508534670 0.3018992245 -0.0688080639
v 50.1275092651277 112.650167798637 -89.7648314592733
vn -0.8557201624 0.2583624423 0.4483211637
v 66.1149493115249 86.5643771991876 -102.326943840902
vn 0.3601899445 -0.9273793101 0.1011475325
v 69.0732556662754 126.805162688811 -85.7272500807763
vn -0.0769268498 0.9969919324 0.0094506303
v 56.2058215504259 99.0279730084653 -109.318436246049
vn -0.6878446937 -0.3449931741 -0.6386308670
v 91.9718174246616 110.665278327888 -89.0213020532355
vn 0.5944552422 -0.1516929120 -0.7896912694
v 98.0426979574709 107.525298062313 -71.8146417213946
vn 0.9240099788 -0.3749998808 -0.0747035369
v 79.9236457834935 106.961113414213 -92.5461326802313
vn 0.4253555834 0.0603205934 -0.9030138850
v 56.7622888668948 94.9506034534492 -81.594171601342
vn -0.7154992819 -0.6627022028 0.2211031169
v 74.3672338747828 111.45662729422 -100.493098204234
vn 0.9062815905 0.4226259291 -0.0064045335
v 93.5313015621185 103.435823404861 -70.4396015657828
vn 0.5302872658 -0.7492418289 0.3967771232
v 47.9082030697115 107.041222541767 -93.9503252466909
vn -0.9642965198 -0.1242816225 0.2338511050
v 69.5086515562457 113.043464563118 -68.8661318471131
vn -0.5387142897 0.3171895444 0.7804983854
v 86.0213510327933 122.304774412384 -78.04811163978
vn 0.5378130078 0.6192748547 0.5720627904
v 96.8413190891387 112.59766650664 -74.5298114265509
vn 0.7000575662 0.7086596489 -0.0878689289
v 94.9440562499429 114.526613811486 -68.8755272883425
vn 0.5186200738 0.8542158604 0.0367215835
v 76.9158333583687 102.502753488021 -96.2997035003218
vn 0.8946667314 -0.2084844410 -0.3951020837
v 92.3410364361895 102.64952842799 -72.9516241996988
vn 0.6490292549 -0.7441318035 -0.1582051516
v 73.5381554671746 112.064157736736 -110.279141224468
vn 0.7819615602 0.4351029396 -0.4463424683
v 69.0727789208054 106.390976230737 -68.7940832974166
vn -0.1900632381 -0.4185413718 0.8880873322
v 77.1176093753908 121.034068731568 -92.2941388164034
vn 0.4523829818 0.1106439084 -0.8849336505
v 91.1285746442051 106.05539740868 -66.5212133697519
vn 0.2334627211 -0.5947229266 0.7692852616
v 85.9179938312604 99.3494516625727 -88.9344698599878
vn 0.1090486348 -0.9492692947 -0.2949511707
v 81.3886473618133 101.167681957045 -86.0946938414508
vn -0.1588334888 -0.9848533869 0.0695396364
v 98.8915710515015 109.359153042161 -75.6707744116759
vn 0.9740312099 -0.2183240056 0.0599823743
v 70.3775988954905 91.2701554607211 -106.519477090299
vn 0.5373912454 -0.7882867455 -0.2996909618
v 87.2573875367051 118.339323000053 -66.5747423916891
vn 0.2254084647 0.8194124103 0.5270239711
v 67.1996926452896 115.415308963426 -70.5375637211299
vn -0.5767530203 0.3535570502 0.7364464402
v 91.0417144053751 101.065135891456 -76.4961302506277
vn 0.6559530497 -0.7245321870 0.2116097808
v 59.4632052563471 118.319046325253 -102.441755622971
vn -0.5736145377 0.7020101547 -0.4220760167
v 79.2530153422763 113.228775466457 -91.9764428481697
vn 0.3765008152 0.1197534055 -0.9186437130
v 82.8629233242888 107.483554639954 -91.8534698596828
vn 0.0799650028 0.0176805705 -0.9966408610
v 52.5709715786494 100.821513855121 -85.5215621790592
vn -0.9357981682 -0.2422731966 0.2560966611
v 82.5244718192411 113.202682396117 -91.8534698596828
vn 0.0135712968 -0.0008432362 -0.9999075532
v 73.4552619389012 116.223277129545 -67.0471628450147
vn -0.4218521118 0.4831012487 0.7672379017
v 58.3789470810384 89.34797958021 -102.59433615611
vn -0.7544117570 -0.6038671732 -0.2573078871
v 65.1204315561727 91.1235959599802 -111.464581789164
vn -0.0208773427 -0.9294018745 -0.3684783578
v 96.9103124711979 108.548314366327 -67.5533165133296
vn 0.4740055203 -0.4493654370 0.7572248578
v 92.4525536793856 115.294175483019 -72.7041368737136
vn 0.4433510005 0.8840899467 -0.1477325112
v 57.5396509325576 92.6931174760583 -88.0557707501148
vn -0.6771765351 -0.7262316942 0.1184039786
v 86.6345461820717 118.297393049227 -69.2206775633719
vn 0.2351859063 0.9683320522 -0.0837892741
v 78.3937845230857 117.568362251913 -91.8534698596828
vn 0.3923137486 0.0703728795 -0.9171355367
v 59.3298797158428 109.7290087762 -111.462997790518
vn -0.6162010431 0.6599620581 -0.4298213124
v 76.7304678430453 101.035484079297 -78.4546953797391
vn 0.1685720980 -0.9787854552 0.1164580658
v 72.5056141008472 118.65077708596 -69.6650519009074
vn -0.3648840189 0.6130215526 0.7007597685
v 74.7921037102611 120.826771901075 -71.1608165736107
vn -0.1378102899 0.8038114309 0.5787015557
v 87.9912540056206 115.568249433528 -91.5804705545589
vn 0.3175130188 0.0756155699 -0.9452342391
v 80.3442856599626 120.862544326006 -72.635744192733
vn 0.2484872788 0.8603215218 0.4450853169
v 52.9781311496522 117.717124439816 -90.0106399982299
vn -0.7325657606 0.6724194288 0.1058277860
v 82.8075505819129 119.944878769148 -72.2031168056638
vn 0.3465501666 0.8565868139 0.3823114038
v 59.3040140382594 121.907162700604 -84.4007755895945
vn -0.6379759312 0.7424579263 0.2043109238
v 81.4499787414907 116.607174489197 -91.8534698596828
vn 0.0088320244 0.0083566206 -0.9999260902
v 52.1567959993502 115.417749397378 -88.2700998985638
vn -0.8211216927 0.3923603594 0.4145027101
v 85.5482765391377 123.882404612429 -82.5624572352589
vn 0.4648840725 0.8844245076 0.0409400165
v 84.5245982961254 118.559893501368 -70.543124092896
vn 0.3163023591 0.9366881251 0.1502268761
v 56.9991054929595 120.006344952936 -93.3944274303305
vn -0.5573821664 0.7739776969 -0.3004723489
v 60.0191657637125 122.571547830623 -93.4347369262331
vn -0.5726953745 0.7557502389 -0.3175871372
v 61.6778045821435 117.92283466457 -105.214636140637
vn -0.4943059683 0.5861821175 -0.6419128776
v 59.9823360891879 123.233613897654 -87.30962354634
vn -0.5754950047 0.8039714694 0.1497844011
v 56.7981439733496 91.4075521584994 -100.257846436801
vn -0.7817372680 -0.6235772371 0.0061885151
v 96.8430192978439 113.569830971151 -79.1504275771093
vn 0.6833164096 0.5287779570 0.5034606457
v 67.8838523105665 126.578059521304 -95.3656460739648
vn -0.0390873402 0.8496270776 -0.5259334445
v 79.4743003262031 123.362425093465 -91.626871523365
vn 0.2834172249 0.4750998318 -0.8330395222
v 89.8575822283677 116.406959670875 -73.617577948299
vn 0.4374102056 0.8989893794 0.0221439172
v 58.2959124954037 91.9285031098141 -91.3403772081007
vn -0.6457157731 -0.7587152123 0.0860368237
v 49.2729862004923 106.078793907948 -90.9725605666453
vn -0.9005067348 -0.1489839256 0.4085234404
v 66.8821103621671 102.025063520186 -72.0313861085579
vn 0.0145304389 -0.6782355905 0.7347008586
v 69.7097267673325 93.1775599182835 -111.434839938652
vn 0.8030958176 -0.5830223560 -0.1229717806
v 61.2213578930963 102.053411226093 -73.4301377961361
vn -0.4571156502 -0.2791842818 0.8444533348
v 64.2356150184824 100.489051846801 -73.561525385268
vn -0.0599228926 -0.6135436296 0.7873839140
v 93.392558591415 106.727092568326 -87.1662265468877
vn 0.7675744891 -0.3589974642 -0.5309898257
v 93.126054918686 115.056136587687 -66.3313122947182
vn 0.3558610082 0.5387737751 0.7636005282
v 67.5260584643572 99.6562623337081 -74.636651718797
vn 0.2445640117 -0.7328440547 0.6349236369
v 57.1016574368797 118.393447422272 -81.9523747289052
vn -0.8563013077 0.3902989626 0.3382526040
v 67.5346906223993 109.0958412004 -115.540611084243
vn 0.0935214162 0.1958513707 -0.9761639237
v 62.7620743833651 91.9375236740657 -109.71396608661
vn -0.5567560196 -0.7244240642 -0.4064880610
v 60.9610534671194 91.6751211795947 -107.494886510924
vn -0.5355756879 -0.6080445051 -0.5860379934
v 64.7074245721408 90.1842791642545 -93.4818295107255
vn 0.4751239717 -0.7733393312 0.4197660089
v 78.6628610752216 101.51932663064 -76.2509915014459
vn -0.0753527209 -0.9305838346 0.3582396507
v 52.2655082789627 99.730774153916 -88.5526711660201
vn -0.8967342377 -0.4071485698 0.1734871417
v 71.7710483420241 95.4806548993729 -107.325076870687
vn 0.7441883087 -0.6236830354 0.2391718775
v 73.3000694579613 125.166358398528 -92.9839293375401
vn 0.4077887535 0.7111885548 -0.5726422668
v 72.5888776319866 97.4116252320537 -107.290291213102
vn 0.8739917278 -0.4597413838 0.1574050933
v 52.2407079264358 113.862501227544 -98.4921246452494
vn -0.6037057638 0.6694799066 -0.4328232706
v 61.6962199392992 88.5709303861546 -95.3219889486825
vn -0.2030656040 -0.8878448009 0.4129115641
v 83.2928372272268 125.004197220191 -85.2244411800056
vn 0.4066094458 0.9056993723 -0.1199057922
v 81.6429490821496 123.61889741339 -76.4965245506024
vn 0.3133316040 0.7663583159 0.5608193278
v 83.2131769882755 100.290410363685 -80.7733767141073
vn -0.4749459624 -0.8776882887 -0.0639496148
v 87.8977415708515 120.217776422501 -91.1044585385081
vn 0.5495244265 0.4369207025 -0.7121258378
v 75.5744270093884 101.632086882461 -75.7781923748327
vn 0.1858270913 -0.8528909683 0.4878987968
v 59.0556437024271 101.77071105818 -114.769192653051
vn -0.6436710358 -0.2612962723 -0.7193134427
v 69.7876560966166 123.230396328927 -74.3104204969284
vn -0.2008955181 0.6841409206 0.7011364102
v 85.8486079868087 108.606443401723 -91.8534698596828
vn 0.0536112711 0.0018821957 -0.9985601306
v 67.3242109287303 94.7978848301374 -91.5536813780254
vn 0.7163903713 -0.6599224806 0.2264666408
v 77.1526630704545 103.157398361021 -74.0932850139803
vn -0.0076189945 -0.7778640389 0.6283864379
v 75.6409376437617 104.433973754505 -108.960580171616
vn 0.9954943061 -0.0629988611 0.0708673894
v 78.5315318856751 104.902836524408 -71.836004378466
vn -0.1376263797 -0.8272262216 0.5447529554
v 80.3616072323828 102.731857742345 -73.9910719920374
vn -0.2339852303 -0.8098555207 0.5379451513
v 55.2371252104691 97.4370112257018 -80.7507823744634
vn -0.8305119276 -0.4667159319 0.3040167689
v 59.167380424866 99.2344959991665 -112.035599899731
vn -0.6854550838 -0.4353322983 -0.5836412907
v 81.2753462188671 124.647000932796 -88.680610396695
vn 0.3999214768 0.8165934086 -0.4162187576
v 54.7029129166972 94.2391675943281 -98.686988784563
vn -0.8243874311 -0.5613192320 0.0728427172
v 69.1337347255515 126.713225597453 -82.7499531144842
vn -0.0777330920 0.9915128946 0.1042102426
v 56.7950291918182 92.039274425358 -96.8672380068586
vn -0.7530478835 -0.6337686181 0.1767943650
v 65.6224375197607 102.672333503139 -115.540611084243
vn 0.0000000000 0.0000000000 -1.0000000000
v 88.3560654214595 100.895541221891 -70.6891720486081
vn -0.0575029440 -0.8256297708 0.5612744093
v 64.2078326712094 108.717607341324 -115.540611084243
vn -0.2039702833 0.1769438088 -0.9628535509
v 69.0808474541507 110.462854845932 -67.7865291591394
vn -0.5471740365 -0.0192731060 0.8367969394
v 61.1743062386675 105.664666654873 -73.3799604801554
vn -0.5499119759 0.0457323864 0.8339696527
v 54.9158192339363 93.9133871583142 -102.107841084194
vn -0.8157743812 -0.5478384495 -0.1854325384
v 51.7801767574404 99.1846058198955 -97.2923148951162
vn -0.8376386166 -0.5453850031 -0.0302787367
v 54.8806287385785 95.0254307707087 -95.7058654785152
vn -0.7817857862 -0.6071764827 0.1419427097
v 69.0014671977758 95.1509335507326 -94.4553387143501
vn 0.7053986788 -0.6442828178 0.2954867184
v 80.0045489405916 106.09672778139 -69.3485028796465
vn -0.1329353005 -0.8346728683 0.5344618559
v 69.7829558585531 97.3957928243339 -83.4449798147136
vn 0.5356355309 -0.8424402475 0.0582153648
v 49.6653668944762 102.051969667347 -96.9048866619169
vn -0.8409714103 -0.5394746661 -0.0416429564
v 72.0895173863288 114.856145903507 -105.850746336708
vn 0.8186838031 0.5728134513 -0.0405165888
v 73.131412492598 98.2613473615366 -97.2183824876753
vn 0.6206039786 -0.7645626068 0.1740537882
v 89.6302888286218 100.658083287052 -73.5173542358445
vn 0.4338542521 -0.8873251081 0.1562837958
v 51.0228444196932 100.839620830429 -100.109934687856
vn -0.8407917619 -0.4972792566 -0.2139686346
v 80.2848667264569 125.809531340766 -80.9439441888644
vn 0.3336280286 0.9319898486 0.1417296678
v 51.3840598763259 105.976548641813 -105.187530457197
vn -0.8055931330 -0.0719410926 -0.5880851746
v 68.1411583107269 99.9503805664072 -115.540611084243
vn 0.0221514534 -0.0289744455 -0.9993346930
v 61.9537107305414 95.9321740480046 -76.4971938215468
vn 0.0017575725 -0.6166338325 0.7872481346
v 76.6721269029254 105.966186842019 -69.557368382639
vn 0.0137913423 -0.8841403127 0.4670179188
v 69.5009701783529 91.2018038825746 -100.003040260762
vn 0.8832862973 -0.3905236423 0.2594159245
v 48.2164717249426 107.077473048107 -99.0671427450836
vn -0.9475877881 0.0332095958 -0.3177647889
v 73.4394990565098 111.248971735487 -98.336354973218
vn 0.9067637920 0.2414120585 -0.3456871510
v 51.9708332348316 111.992631304333 -86.5762473235247
vn -0.8342427015 0.1701876372 0.5244761705
v 90.2321489639399 116.893686437014 -76.2712654156291
vn 0.5228046179 0.7943915129 0.3092207611
v 58.4327379888213 108.06167549496 -75.1212517106411
vn -0.5412002206 0.1754141003 0.8223941922
v 49.6158393236616 109.462760234657 -100.623250657757
vn -0.8323917389 0.3644558787 -0.4174876511
v 83.7215195655794 100.321474669838 -84.2841591260344
vn -0.5888243318 -0.8080910444 -0.0165771786
v 90.8258311240863 101.833588970406 -85.5477736296281
vn 0.8984353542 -0.4346319139 -0.0625219420
v 72.4999730724658 114.847308497137 -103.034206565432
vn 0.8777332306 0.4610819221 -0.1303374320
v 72.7783128298274 114.181182540635 -99.4470942562006
vn 0.9063904881 0.3818027973 -0.1807840168
v 55.0828382872827 116.000083824993 -99.0350949034185
vn -0.6197676063 0.7041188478 -0.3465613127
v 70.586493444536 126.805162688811 -91.3715549417422
vn 0.0923976079 0.9898301959 -0.1081610620
v 65.318388283292 111.906324888658 -115.059272023792
vn -0.1356722713 0.4419367015 -0.8867270947
v 66.0910911603813 124.77854945338 -79.3494388951599
vn -0.4016331732 0.8220967054 0.4035440981
v 97.3578042725591 114.737663496331 -85.5500875892831
vn 0.8509215117 0.3077828884 -0.4256786406
v 73.9304116559471 95.878585067953 -109.848634283343
vn 0.8665839434 -0.4781787395 0.1427491456
v 88.4675885716878 121.617847121914 -88.0503058649257
vn 0.5460122824 0.7695882916 -0.3310656250
v 52.7960058849638 97.6962980284076 -94.8275320369555
vn -0.8035488129 -0.5926710367 0.0552297272
v 57.1918007795939 119.508181719554 -84.3685261243027
vn -0.7444610596 0.5714300871 0.3453193307
v 88.5300581827907 99.2154335520137 -75.5183774760615
vn 0.2274644822 -0.8908452392 0.3932616413
v 74.628319862131 100.349720790297 -80.6459800771982
vn 0.3718455732 -0.9282374382 0.0103038307
v 51.5001581963067 102.409631463825 -87.4749159165569
vn -0.9113152027 -0.2400781512 0.3344653547
v 71.3739680137063 95.8100869691782 -103.49389375632
vn 0.8892707825 -0.4573807418 -0.0006029247
v 84.6060473782357 115.85636077095 -91.8534698596828
vn 0.0292868018 0.0010031870 -0.9995705485
v 56.9955939137161 120.911465467879 -87.2230868373939
vn -0.6364614964 0.7449333668 0.1999775767
v 58.4177417951638 96.1883791953665 -109.689436615142
vn -0.6146833301 -0.4811622202 -0.6250178814
v 64.797518043315 125.273739403328 -84.4890402834994
vn -0.4574177861 0.8812353015 0.1191354915
v 59.2271258693361 92.9065628779766 -82.1969927716577
vn -0.4809550643 -0.8402894139 0.2501917481
v 82.8254016051361 124.661419787459 -81.7874600757748
vn 0.3513177633 0.9303209186 0.1052560210
v 86.6358742339563 122.935502482206 -85.3732119820718
vn 0.4795590639 0.8696526289 -0.1171642095
v 69.1966241770789 112.188873533687 -113.841547533471
vn 0.3611349761 0.5414553285 -0.7592151761
v 52.9643755338687 108.839142408311 -106.705172448165
vn -0.6971085072 0.2803751826 -0.6598708034
v 52.2545177209336 98.6911359048131 -91.7583238862165
vn -0.8409497738 -0.5328926444 0.0939624235
v 65.7064788785832 94.9868161589949 -78.674693389986
vn 0.4435391426 -0.7437287569 0.5001405478
v 66.1250455170959 126.178522544962 -86.7525214209903
vn -0.2910705507 0.9547007084 0.0618422143
v 70.1247883986309 126.805162688811 -93.7432106299625
vn 0.4076456726 0.7668989897 -0.4956722260
v 71.7249708450462 126.805162688811 -87.4973300073926
vn 0.0000342141 0.9999992847 0.0012165146
v 70.0915974097264 93.9431529901513 -99.2907214517626
vn 0.8415636420 -0.4668424428 0.2717145979
v 68.6222479595347 126.805162688811 -93.3752314241361
vn -0.0592467450 0.9981042743 -0.0166621041
v 75.3071583492027 108.863620726284 -103.358214830896
vn 0.9360901117 0.3349680901 -0.1073857695
v 72.2326104007296 98.4706499878274 -91.4582195925751
vn 0.4618865550 -0.8812568188 0.1002359316
v 78.376360694086 120.556968831446 -70.1528925321153
vn 0.0490563996 0.9106075764 0.4103502631
v 93.299000936915 102.390425962721 -76.6417546975457
vn 0.6686697006 -0.7416230440 -0.0536294654
v 73.2794367598411 110.306471070153 -65.2185955049553
vn -0.2953823209 -0.1935892105 0.9355599880
v 57.6640708384042 118.255929974085 -99.3718674919734
vn -0.6020622253 0.7491033673 -0.2763426602
v 75.210547635175 113.206528239062 -65.2185955049553
vn -0.2110487074 0.1611354202 0.9641026258
v 57.0636163997385 116.194973210942 -80.7339156033815
vn -0.7925378084 0.3721135557 0.4831307232
v 80.1836338577917 101.065135891456 -79.3166596594039
vn -0.1280415654 -0.9908742309 -0.0421136245
v 71.3028276915068 117.746134571667 -101.393933680717
vn 0.8990151882 0.4301361144 -0.0821862966
v 58.2868615734164 104.008360551688 -75.0968499709904
vn -0.5803306699 -0.0668209717 0.8116348982
v 85.8365449488345 105.051136815895 -67.4998363483674
vn -0.2947114706 -0.6938980818 0.6570012569
v 75.0483232891074 103.111996649754 -106.23670557253
vn 0.9703888893 -0.2220236361 -0.0951360166
v 88.3783271939259 104.071119754888 -67.7340656966778
vn -0.0318996310 -0.6987535954 0.7146508098
v 89.899237337953 121.360691698321 -84.7473631135719
vn 0.4527146220 0.8915517926 -0.0135978572
v 80.3791243038624 119.995012188235 -91.8534698596828
vn 0.0642795563 0.0337862931 -0.9973598123
v 64.5899785061429 124.143875715186 -97.2733245982993
vn -0.2959304750 0.8711282611 -0.3918682635
v 98.3419053945878 109.270031757857 -68.5944551351913
vn 0.9226606488 -0.1774524450 0.3423565328
v 54.944759590667 114.251463283541 -82.0841456149029
vn -0.8204935193 0.4135670066 0.3946552277
v 66.3530475742346 94.5185586978552 -87.9467690920773
vn 0.8017293215 -0.5890976191 0.1009657979
v 78.729615296165 113.064406702491 -65.2185955049553
vn 0.0000000000 0.0000000000 1.0000000000
v 83.4892077189835 110.004525659535 -65.2185955049553
vn -0.0532261208 -0.2107557654 0.9760886431
v 84.5297112032967 115.553897998836 -65.2185955049553
vn -0.0022473708 0.2784219384 0.9604562521
v 85.6823608810967 112.679824363172 -65.2185955049553
vn 0.0000000000 0.0000000000 1.0000000000
v 86.1285586118624 100.501915677371 -73.1587237995479
vn -0.2221616656 -0.8674862385 0.4450975358
v 62.0645867815011 91.6007145781219 -83.2757627179918
vn 0.1323508173 -0.9238573909 0.3591250777
v 77.2768531051203 116.078304030924 -65.2185955049553
vn -0.1979199499 0.3835594356 0.9020586610
v 81.5261543340403 119.493181389355 -69.8888321952949
vn 0.2738029957 0.9285466671 0.2506652176
v 83.7629853954635 118.500597032791 -67.0833758795528
vn 0.1146188900 0.8413850069 0.5281418562
v 83.4280333519716 118.9222643532 -91.8534698596828
vn 0.0070603830 0.0372878648 -0.9992796183
v 47.9059176418772 105.192114793774 -96.6282126610968
vn -0.9545753002 -0.2951259911 -0.0410685241
v 68.2397190036797 91.8215840450195 -111.434839938652
vn 0.3750620186 -0.8042845130 -0.4609282911
v 56.4344001900266 93.9718399162363 -104.933136150047
vn -0.6855874658 -0.5685368180 -0.4546820521
v 91.7948551151697 116.261704275957 -78.0693446259005
vn 0.5763309002 0.7049440145 0.4133965075
v 68.3093683282772 96.281514764822 -89.285375587203
vn 0.6297134757 -0.7687755227 0.1115577966
v 66.0820475892189 86.6542861479137 -99.8546335659372
vn 0.2946651280 -0.9384054542 0.1804649681
v 61.9165009593574 111.363713845827 -113.399570255244
vn -0.5527837276 0.5797456503 -0.5986026525
v 74.7469651566336 112.863219654875 -95.5234966217946
vn 0.7624422312 0.1681119949 -0.6248361468
v 91.0704601902834 102.519554621613 -87.7505455634546
vn 0.9294577837 -0.2733028829 -0.2478180975
v 63.6165675930015 124.839246645127 -93.741568470636
vn -0.4757652283 0.8472405672 -0.2362855226
v 77.9741806139444 101.156692901253 -91.050179312107
vn 0.4692570865 -0.8658627868 -0.1734342426
v 66.5670650176825 105.26182063301 -69.3243666505457
vn -0.2992973924 -0.3030238450 0.9047638774
v 72.5361261300404 103.333861149249 -72.4677383791319
vn 0.2810051441 -0.7279862761 0.6253575683
v 54.3458563013353 100.569259854256 -80.0346101561811
vn -0.8680259585 -0.2235108763 0.4433664382
v 67.4025639016542 88.5825481235491 -99.3479230321487
vn 0.7307242751 -0.5735525489 0.3702424169
v 62.2487802876376 102.102650490375 -115.540611084243
vn -0.1140460595 -0.0427878536 -0.9925536513
v 67.4227834006228 87.8344266617117 -100.641970966138
vn 0.7713032961 -0.6296129227 0.0931598544
v 71.0225801346914 98.6050885223183 -79.8900186888699
vn 0.4688100219 -0.8614297509 0.1953353584
v 57.8690087684896 106.890815236489 -112.704189258037
vn -0.6816563010 0.3492332697 -0.6429469585
v 53.0519926586871 97.3093139751793 -100.416100267489
vn -0.8811945915 -0.4562716782 -0.1237428412
v 61.1045481758442 122.898541407542 -81.7498760560435
vn -0.5933730602 0.7602568269 0.2644200623
v 85.351543826477 99.2125967577963 -76.0858966996681
vn -0.2782637477 -0.9222750664 0.2682870626
v 56.0825505509497 105.711701358759 -76.9846175383379
vn -0.7309910059 0.0027547546 0.6823815107
v 60.8126830970923 93.9056828627718 -109.828470577279
vn -0.6401820779 -0.5641530752 -0.5214385986
v 90.4462341376855 109.261000806267 -65.2185955049553
vn 0.0348392688 -0.1119949222 0.9930978417
v 71.55764525907 100.662651843147 -115.540611084243
vn 0.1341130435 -0.1181741133 -0.9838945866
v 72.8270425940791 99.3870652427338 -83.2349169114324
vn 0.5001981258 -0.8651655912 0.0359219536
v 88.3319276951588 106.477365988649 -91.6532089811075
vn 0.3959166110 -0.0350875258 -0.9176158905
v 65.3381545044673 86.0303307693354 -103.10373864796
vn 0.0000000000 0.0000000000 0.0000000000
v 58.6749622144032 91.6126261126467 -105.094135230271
vn -0.6541599035 -0.5388835073 -0.5307347775
v 61.8867329129657 92.6147682689422 -79.4571208443451
vn 0.0790110156 -0.8727791905 0.4816780686
v 75.9041350460589 105.971911813032 -104.433973754505
vn 0.9667734504 0.1277121902 -0.2214466929
v 88.9404804348402 109.68280889197 -91.4889963370664
vn 0.4125988483 -0.0401637331 -0.9100269675
v 59.2787670259544 88.7176673817242 -98.8089802024374
vn -0.5747661591 -0.7863675952 0.2264284045
v 76.2768112831929 124.250115557682 -92.0419791670146
vn 0.3558601737 0.5816120505 -0.7314990759
v 97.5457898335846 110.430686059935 -84.5904914196734
vn 0.8897413015 -0.2347073108 -0.3915007710
v 91.645398359287 101.580691598733 -80.6459795069133
vn 0.7184525132 -0.6740399599 -0.1717443913
v 52.9609811387647 105.844574110565 -82.3105763176346
vn -0.9493079782 0.0100149112 0.3141878545
v 65.2018610356158 122.311081010971 -103.300445051963
vn -0.1271918267 0.8405352831 -0.5266143680
v 77.9026824898499 101.248840120483 -81.4475928488319
vn 0.1273787171 -0.9889960885 -0.0752421692
v 85.473329525688 105.480831005443 -91.8534698596828
vn 0.0218909904 0.0057340022 -0.9997439384
v 95.8713900515375 107.519099706132 -83.6177883527893
vn 0.6063179374 -0.6223999262 -0.4949716330
v 57.017996949181 92.1047567583177 -102.900761499617
vn -0.7495464683 -0.5694507957 -0.3374994397
v 59.8608007213442 90.7327078629402 -89.1104718938653
vn -0.4578725100 -0.8854152560 0.0799535587
v 70.6125756763126 109.321828008673 -115.021939686937
vn 0.2991837859 0.4040710032 -0.8644163609
v 72.2323545023085 96.0514841814248 -100.349454643567
vn 0.7975399494 -0.6032022238 0.0087804422
v 90.4484308460035 116.218352734088 -89.4953443363353
vn 0.4678898454 0.1698356867 -0.8673147559
v 83.9476967404589 100.205329634089 -87.1875703061157
vn -0.4891123176 -0.8698806167 -0.0638500452
v 75.1907507489167 99.5626827860997 -91.123311816489
vn 0.3903850317 -0.9119122624 0.1265523881
v 88.8722971074186 121.799012883611 -82.8652825739709
vn 0.5313009620 0.8324720263 0.1571929306
v 78.4867695375309 103.890500493714 -93.7839869045683
vn 0.7044165134 -0.1959489435 -0.6822033525
v 71.619162245418 113.649084769038 -66.82029437803
vn -0.5258623362 0.3038556874 0.7944435477
v 54.1488197284663 96.6415778793529 -104.283432723523
vn -0.8363061547 -0.4374122024 -0.3305489123
v 54.591712405726 109.765123286062 -79.1563652810508
vn -0.8458922505 0.1486074477 0.5122325420
v 87.3336301930417 117.574690258325 -71.994778662112
vn 0.4264942110 0.9044206142 0.0112281749
v 54.5313070814403 111.749404576877 -80.3858070647692
vn -0.8596417308 0.3660131991 0.3564413190
v 90.6254648241594 100.881268642489 -71.7609322002893
vn 0.4331046939 -0.8278778195 0.3564247787
v 54.3257356790788 118.462981431878 -86.9165567000583
vn -0.7327063680 0.5562515259 0.3920785189
v 82.3775468221952 104.040372876072 -91.8534698596828
vn 0.1600970179 -0.2095160931 -0.9646097422
v 58.7719497595264 115.61846851378 -78.078406335001
vn -0.6407377720 0.3296632767 0.6933810115
v 55.6222968012766 96.4589723730937 -83.9961709949665
vn -0.7757056355 -0.6004736423 0.1941962391
v 50.544904520466 102.303492804298 -90.5925341717047
vn -0.8894788027 -0.3768475354 0.2584829032
v 70.4569791001338 115.93126771356 -69.3333859012921
vn -0.4957000017 0.4066564143 0.7674060464
v 60.4549531243038 108.344735556131 -114.36571186232
vn -0.4653990865 0.3633110821 -0.8070989847
v 74.6573300197887 102.885753682515 -73.8982043295285
vn 0.2187783122 -0.7352147698 0.6415569186
v 83.2367197819664 105.646273535595 -68.7018730388259
vn -0.3330813944 -0.7291384935 0.5978410244
v 50.7888073455407 103.197132459196 -102.741697610702
vn -0.8275163174 -0.3453940451 -0.4426281452
v 68.602995504786 93.0035460174719 -96.8013221024586
vn 0.7981519699 -0.4403719008 0.4111277759
v 82.3014695391942 100.632896286721 -76.7342166110058
vn -0.3457725346 -0.9122281075 0.2197298557
v 72.8225269491541 105.630240105792 -69.8426100821123
vn 0.1093179360 -0.7924141288 0.6001078486
v 52.8809995054123 102.754808414615 -105.686182720571
vn -0.8364023566 -0.2091847658 -0.5066289306
v 48.9335395696841 103.579189576553 -93.6387787819243
vn -0.8928126097 -0.4016357660 0.2038978338
v 86.1407008940142 112.32029479381 -91.8534698596828
vn 0.0780053660 0.0072038039 -0.9969269037
v 94.7946094592706 114.199145103234 -78.3942621916046
vn 0.5016623735 0.7853339314 0.3627470434
v 56.6023319756966 113.614839624263 -79.4002961232192
vn -0.6991804838 0.4586553574 0.5484358668
v 76.7098866946422 104.689289135474 -96.3814926180354
vn 0.9286265373 0.1133112982 -0.3532893062
v 55.2913139424031 119.832786150285 -90.1487550143339
vn -0.6288244724 0.7752923369 -0.0591741689
v 62.6135424006089 89.8709081451975 -86.0467599976298
vn 0.1152641773 -0.9574069977 0.2647375464
v 50.9396475333386 109.26017182518 -103.538440710662
vn -0.8186715245 0.3263719380 -0.4725021422
v 70.4980597159362 95.7978493686743 -97.3032878402709
vn 0.7270256877 -0.6207336783 0.2934677005
v 90.189875425395 103.646476240501 -89.932285033306
vn 0.7092155814 -0.1528898031 -0.6882135868
v 71.1116819047966 97.3861189871979 -115.151245914008
vn 0.3042343855 -0.4524540007 -0.8382880092
v 61.3654262555537 98.8181541466299 -115.033732076194
vn -0.5024729371 -0.3546034992 -0.7885285616
v 73.2298628094775 99.2119692486654 -88.6571143635436
vn 0.4356460869 -0.8927391171 0.1150191575
v 89.851496157587 118.209665309443 -78.0439486845301
vn 0.5911729336 0.6556237936 0.4697574377
v 52.872749713147 111.959670327253 -104.309996015199
vn -0.6932973862 0.5399903655 -0.4772307277
v 73.3191449311584 96.7828566876709 -112.360977311805
vn 0.7757363915 -0.5258778334 -0.3488345742
v 96.2830489984496 114.974810856419 -80.4665525654656
vn 0.6596018672 0.6482517719 0.3803879917
v 58.6858153061967 120.700908742859 -81.8130624977264
vn -0.7161589861 0.6144020557 0.3310987949
v 60.7285852465687 120.802842908627 -79.0975301036986
vn -0.6351271868 0.5293063521 0.5625373721
v 69.0245216834561 118.522460787372 -71.2756224923853
vn -0.4831757843 0.5263755322 0.6996213198
v 95.3213164618511 113.968954023359 -71.4988321320737
vn 0.4722735584 0.8694923520 -0.1447092742
v 89.6069599545623 120.072901432909 -80.6717666100593
vn 0.5961017609 0.6709147096 0.4410625696
v 55.5513300941024 114.490054073476 -104.998543904762
vn -0.5287966132 0.6502035856 -0.5455359221
v 68.478470271116 126.21002431205 -80.1684002503729
vn -0.2114425898 0.9322253466 0.2936800122
v 59.6300579780191 91.8610719748533 -85.4095729326259
vn -0.5161504149 -0.8189291358 0.2508861423
v 52.3742816259651 108.125345016277 -85.2092873131893
vn -0.9116451144 0.1000596210 0.3986116052
v 75.7907168268317 106.062411103984 -100.012553054114
vn 0.9861118197 0.1619652063 -0.0367529318
v 85.3051226794395 120.657429324611 -91.7518283500053
vn 0.1998760849 0.4823508859 -0.8528699279
v 58.8422233527682 116.037902271451 -105.041373221015
vn -0.4214370549 0.6759212017 -0.6045835614
v 48.8322001963806 113.160587176245 -93.3143160782335
vn -0.8907552361 0.4461355209 0.0867073461
v 91.3718275002077 118.617890718059 -88.7912305364993
vn 0.4531687200 0.5880997777 -0.6699080467
v 85.1737873682828 103.052927165993 -70.1337971756884
vn -0.3756370246 -0.7160481215 0.5883637071
v 83.8126569358888 122.828421294609 -76.9830711379043
vn 0.4440446496 0.6917124391 0.5695246458
v 68.8490273310653 112.820243495083 -112.43640804038
vn 0.4833642840 0.6907190681 -0.5378346443
v 90.4447637907166 100.875954437772 -88.2331463843939
vn 0.6733050346 -0.6610289812 -0.3312113881
v 71.5260490480539 98.4472721889799 -86.0797517354805
vn 0.5215811133 -0.8523813486 0.0374066010
v 89.9426133629959 112.883727928066 -65.2185955049553
vn 0.0786399022 0.1069789901 0.9911464453
v 54.6422838968062 102.13010344346 -108.713460009082
vn -0.8054049015 -0.1590815932 -0.5709781051
v 93.1552865440022 115.785042195875 -69.3729821607062
vn 0.4329904914 0.9011218548 -0.0223302618
v 72.0963608353587 103.802096174606 -115.540611084243
vn 0.3462516963 0.1279153973 -0.9293801188
v 64.2580919368819 119.787770612468 -105.69297803441
vn -0.2146769762 0.6360448003 -0.7411887646
v 66.3371749988148 126.057891475234 -82.1406386494524
vn -0.3814576864 0.9036802053 0.1945560724
v 69.9853381665127 119.750087693665 -102.593211267538
vn 0.8393091559 0.4457199872 -0.3112777472
v 58.8198067861477 94.5230473250754 -78.7920261113867
vn -0.4551168084 -0.6884191632 0.5647546053
v 93.7400670070071 110.540199423951 -65.2185955049553
vn 0.2961863279 -0.0355443954 0.9544685483
v 95.1377596628359 104.433973754505 -76.5591126874123
vn 0.7259147763 -0.6778158545 0.1166765690
v 52.5285624587856 100.043115438605 -103.320180804716
vn -0.8769547939 -0.3603940308 -0.3179093897
v 47.742749090391 107.852008722717 -96.5177442182642
vn -0.9933836460 0.0369775333 -0.1087271869
v 73.5834497861272 112.197474128913 -107.432546636565
vn 0.9307024479 0.3649304211 0.0248735398
v 95.9627437307967 105.524349770119 -80.5378331723183
vn 0.6180281639 -0.7093042135 -0.3390114307
v 69.654055490532 96.6695788340665 -91.6734626850812
vn 0.6039223075 -0.7753497958 0.1846902817
v 54.0503002883178 113.994486097407 -101.706272235319
vn -0.6743797064 0.6902899742 -0.2621293068
v 56.2972546839716 98.9252059084915 -78.0319273844771
vn -0.6893149018 -0.3147979081 0.6524931192
v 81.0439251451315 110.072025686919 -91.8534698596828
vn 0.2456558943 0.0715269446 -0.9667145610
v 59.0277368535958 97.4034233001744 -76.5426539660711
vn -0.4545950890 -0.4318842590 0.7789860964
v 69.3922531343231 117.338971661599 -107.250830264206
vn 0.4909690619 0.8495510221 -0.1929051578
v 64.8443006335799 97.7661681806735 -75.9748054759987
vn 0.1933375746 -0.6412730217 0.7425560355
v 85.0732848876507 123.059217385471 -88.7843736333871
vn 0.3772612214 0.8458890915 -0.3770220578
v 66.6120921484006 116.374123377201 -108.648773828899
vn -0.2744680047 0.7552286386 -0.5952284932
v 67.038413213405 90.3859559935201 -96.2445576448742
vn 0.7369186878 -0.4804545343 0.4755147099
v 98.7367530409407 109.430753287056 -79.7945503176627
vn 0.9993581772 -0.0252716951 -0.0253892038
v 68.1139755391581 97.470815388785 -77.6017527840054
vn 0.4827393889 -0.7371583581 0.4728215635
v 60.5629813652006 110.751900200185 -75.4521997772925
vn -0.4923235476 0.3158373535 0.8110883236
v 64.7482253509268 125.983746466923 -89.7163853405928
vn -0.3506683707 0.9359385967 -0.0324135274
v 62.968431561266 112.377961175272 -73.9161145956186
vn -0.6246231794 0.3078088760 0.7177043557
v 58.6352175471588 100.399374617975 -75.7839345076716
vn -0.5313743353 -0.2724779248 0.8021203876
v 66.7018664372518 92.8883010909071 -94.0344947332012
vn 0.7540277243 -0.5254124403 0.3941877186
v 72.092635366491 114.972261703458 -108.967269841417
vn 0.6299890280 0.6550278068 -0.4171957970
v 95.793920528572 106.119870387142 -73.9035511309586
vn 0.7012601495 -0.7128613591 -0.0079311319
v 60.4602178479677 120.581764767504 -99.5894031616599
vn -0.6322942972 0.7355291247 -0.2433122098
v 72.1313276430906 126.792319718854 -84.0154590568913
vn -0.0000331014 0.9989590645 0.0456156731
v 59.0405663123518 120.093919692471 -96.4052398605095
vn -0.5796164870 0.7621598840 -0.2883696258
v 87.0730853867987 109.807146703905 -65.2185955049553
vn -0.0438196436 -0.0663833171 0.9968315363
v 76.1637065526396 100.581782719479 -88.6125175628622
vn 0.3345573545 -0.9366265535 0.1039332300
v 94.5832483935906 113.680331914034 -75.2089372919673
vn 0.4902912974 0.8715215325 -0.0080446610
v 53.836609324755 99.0233573832858 -83.1753573986819
vn -0.8751537204 -0.4021312296 0.2690658271
v 73.8168982671794 101.131585168547 -105.295818105116
vn 0.8454476595 -0.5236871243 -0.1047378853
v 94.0624203126551 106.376894309718 -67.8658639148235
vn 0.4244751930 -0.6112657785 0.6679633260
v 56.928364433938 96.4263251366586 -79.0194535701952
vn -0.6695320606 -0.5046533346 0.5450246334
v 66.5948265705313 116.971367527896 -73.0669575226089
vn -0.6827826500 0.4313375652 0.5897081494
v 70.947793902347 123.435494282953 -95.9592410052732
vn 0.4732857347 0.4462843239 -0.7594938278
v 49.4263065159042 106.429134969114 -102.105477424042
vn -0.8898745179 -0.0147043960 -0.4559683502
v 92.0501061293593 115.268098167871 -75.7244885423199
vn 0.5390443802 0.8333752155 0.1221350729
v 66.1082143348074 93.2144968756702 -113.767723477127
vn 0.0798235238 -0.6036013365 -0.7932803035
v 93.9533218964447 116.457983858853 -80.4075005866335
vn 0.4448893964 0.6547139883 0.6110834479
v 71.3142787379947 120.711592060134 -72.2798797177106
vn -0.2624427974 0.6500515938 0.7131316066
v 77.233724454159 121.911142581699 -73.3230469957494
vn 0.1043704599 0.8273226619 0.5519456267
v 78.3285422846455 126.471062084708 -83.1016940832126
vn 0.1704473346 0.9847822785 0.0339347310
v 78.6144722350436 109.635483375026 -93.4996442963869
vn 0.5987196565 0.1172117740 -0.7923358679
v 82.6258786963879 121.400210141309 -74.6992213052887
vn 0.4091170728 0.7385426760 0.5358898640
v 65.3396192167504 118.924594052996 -75.4215360933327
vn -0.4966757596 0.2900927365 0.8180216551
v 68.0247777937918 120.195891081314 -73.6349559638604
vn -0.5266032815 0.4214168191 0.7383067608
v 73.7128244489968 122.643208971714 -73.8077036839141
vn -0.0141879506 0.7609101534 0.6487020850
v 76.3309130072112 124.354314760628 -75.7083895949623
vn 0.0659560189 0.7956097722 0.6022083163
v 79.5739065590296 122.957387875594 -75.0532901333231
vn 0.2117489129 0.7473189235 0.6298228502
v 53.4163496184868 116.43612847319 -96.7044469626675
vn -0.5397784710 0.7215148211 -0.4336538017
v 93.1795190922854 113.709560201753 -88.9080800218957
vn 0.5496818423 -0.0101337023 -0.8353126049
v 66.0919113457573 123.653499750955 -99.8672775257647
vn 0.0378085412 0.9631570578 -0.2662687004
v 94.5988763545992 118.575525585742 -84.2209465762135
vn 0.7071998715 0.6467562914 -0.2856126428
v 73.9892250550522 108.569588108539 -111.879367578738
vn 0.8580772877 0.3716013134 -0.3544231951
v 97.00320792958 106.986302887211 -69.6946225450892
vn 0.6337922215 -0.6884591579 0.3526066244
v 69.9961511148266 121.097063214111 -96.8233753429181
vn 0.7382786274 0.3240453601 -0.5915566683
v 92.7189881326281 119.553929170721 -82.6209837031941
vn 0.4682671726 0.7757625580 0.4229874015
v 62.9636970579771 89.9772276486698 -90.428145278089
vn 0.2676416934 -0.9630876184 0.0288132634
v 97.3539802199627 107.922742046086 -81.2164487005357
vn 0.7796723247 -0.5148110390 -0.3564837575
v 79.6861797226624 126.222988168739 -85.9206986177826
vn 0.3007046282 0.9512786865 -0.0681584924
v 69.2522473023631 90.5963621043172 -103.830456205115
vn 0.8211069107 -0.5683222413 -0.0528517365
v 56.1573042742439 96.4954003920635 -107.338416977552
vn -0.6947792172 -0.4967875481 -0.5200806856
v 70.3056355864685 100.044169109573 -76.6144412577918
vn 0.3395323753 -0.8140085936 0.4712831080
v 74.1409478256858 99.7571783691195 -107.329068793062
vn 0.9369592071 -0.3006477654 0.1780964881
v 89.7906626301287 112.960768856393 -91.2595820938934
vn 0.4598703384 0.0568363369 -0.8861652613
v 73.7734602215306 110.127761406389 -99.047221204775
vn 0.8204976916 0.5623011589 0.1029609367
v 74.9556022914013 106.448998172883 -107.568274290927
vn 0.9813443422 0.1733863652 -0.0830688328
v 53.9028370919469 105.523612282006 -107.833274439852
vn -0.7836630344 0.0162286833 -0.6209741831
v 56.0758629146983 108.735522079427 -109.471513769913
vn -0.6331143379 0.4273980558 -0.6453658938
v 55.7676461301028 111.242344876663 -107.329068793062
vn -0.4565537870 0.5073121190 -0.7308851480
v 63.761213754361 90.1786230416205 -107.698879260241
vn -0.2091430426 -0.7783913016 -0.5919173956
v 74.4614744507748 109.009704091611 -106.074632351486
vn 0.9416021705 0.3128360808 -0.1245752051
v 75.645537692085 103.901014966536 -112.163966283367
vn 0.9665791392 0.0629347414 -0.2485236526
v 58.6646954798143 113.220413347837 -107.329068793062
vn -0.3918612301 0.5392289758 -0.7454373837
v 64.279156134615 117.015022761764 -107.412909647275
vn -0.2846121490 0.5931478143 -0.7531079650
v 53.8129801082618 99.5265610231192 -106.543031516777
vn -0.8314311504 -0.3055245578 -0.4640872777
v 92.4649189930162 120.124904665926 -84.5410708402099
vn 0.5024142861 0.8367579579 -0.2177520543
v 89.0528815205892 118.327784713539 -90.6527094790143
vn 0.5943421125 0.2621301115 -0.7602928877
v 89.8971608632393 99.7406026553845 -82.0060262074319
vn 0.5022127032 -0.8646851182 0.0101040388
v 55.9906714144406 102.15923280653 -77.1957740078061
vn -0.7198345661 -0.1363750249 0.6806173921
v 72.784461114311 101.42065523861 -74.8307137722578
vn 0.2245350927 -0.8083037138 0.5442693830
v 97.2092367232136 112.540393921344 -77.2831305315239
vn 0.7563974857 0.6475291252 0.0925680622
v 83.5356601877845 101.733705881764 -73.4377510463289
vn -0.3939449191 -0.7867179513 0.4752707481
v 92.6547509336927 103.444666417119 -74.6286135712379
vn 0.6479760408 -0.7450853586 0.1580341011
v 92.42561496933 103.950472654353 -83.5203508128292
vn 0.8244567513 -0.5256485343 -0.2096776515
v 54.2824157666137 107.21919013266 -79.4057820702517
vn -0.8617978692 0.0175480898 0.5069482327
v 68.1859941648194 88.8640561230321 -102.339407575226
vn 0.7279195786 -0.6474147439 -0.2258035094
v 93.6200857295816 103.686988708531 -80.6048345483891
vn 0.7038296461 -0.6568959355 -0.2703915238
v 56.0480787036722 108.815216491912 -77.1594697567397
vn -0.6944153309 0.1216961667 0.7092090249
v 93.5113548745904 105.716245106849 -82.4750607330065
vn 0.6227408648 -0.6567538977 -0.4252859056
v 55.9133333752088 111.345080481524 -77.972402947063
vn -0.6694577932 0.3520479500 0.6541318893
v 58.2908521679302 112.873880152234 -76.8152194514474
vn -0.5070114136 0.3454185128 0.7896996140
v 61.1978791333595 114.184840563599 -76.0569455513567
vn -0.5038492680 0.2684775293 0.8210089803
v 58.7049239955131 118.485326675432 -79.4250289160169
vn -0.7003255486 0.3869589567 0.5998390317
v 61.7391946432604 117.804295894832 -76.4831471095239
vn -0.5277520418 0.2877432108 0.7991755605
v 85.0504714286612 119.320037254196 -73.4502618207022
vn 0.5257030129 0.8060131669 0.2719909251
v 63.2866946320199 123.185956860743 -78.8917511617884
vn -0.5162811875 0.7232759595 0.4586127400
v 85.1067021749365 120.322158165717 -76.2122965748451
vn 0.5543518066 0.6207388639 0.5544161797
v 66.0067449299369 122.716801667298 -75.948141216386
vn -0.4512828588 0.5789495111 0.6790885329
v 68.9857948073303 125.229583573634 -77.5917521140793
vn -0.2008517236 0.8570764661 0.4744243920
v 75.510079783056 126.049296499682 -78.6708534224092
vn 0.0087023778 0.9301224351 0.3671464920
v 79.1963921549768 125.327457436613 -77.8758290288644
vn 0.2086550146 0.8715113401 0.4437691867
v 82.1072577634994 124.634412323389 -78.9654685436985
vn 0.3546157181 0.8878607154 0.2931741476
v 75.7423470275719 103.06243811413 -99.2406667750822
vn 0.9805927277 -0.1821181029 -0.0726006180
v 78.3181039177491 106.865005798401 -93.7928289815391
vn 0.6430132985 0.0235940330 -0.7654914856
v 77.1840224130505 111.789125627671 -94.1493168800915
vn 0.5946443081 0.1830170006 -0.7828812003
v 76.1090152201765 108.275309387806 -95.7099182261346
vn 0.8275306821 0.2619367838 -0.4965703189
v 70.1734633437388 120.335343217401 -99.7131893953487
vn 0.9086258411 0.4137106836 -0.0569429845
v 49.4041540410273 112.63394305749 -96.7595892801529
vn -0.7645305395 0.5462712646 -0.3421706259
v 76.4663351303264 115.160791726553 -93.9374872422422
vn 0.6285653710 0.1289614290 -0.7669905424
v 53.5800572565973 117.907098959373 -93.4747106829805
vn -0.5752065778 0.7894127965 -0.2143940032
v 73.778529844325 116.455977340295 -95.9802349516946
vn 0.7051302195 0.2269189805 -0.6717880368
v 75.6782406625472 118.788160231961 -94.1114598562341
vn 0.6441994309 0.1097695753 -0.7569397092
v 62.0382908114564 120.526304165676 -102.911439727754
vn -0.5643568635 0.6893253922 -0.4542376101
v 72.8620810144224 119.884508602706 -96.0375130035635
vn 0.5081689954 0.2107028961 -0.8350859880
v 75.0354173501802 122.260781721795 -94.3337096297204
vn 0.5533455610 0.3222574890 -0.7680877447
v 61.846881602565 122.282625225 -96.7021244466337
vn -0.5868461728 0.7672770619 -0.2586454749
v 68.7922434908442 123.149148397101 -98.014274498286
vn 0.5034433603 0.7223539948 -0.4740774930
v 58.1574983837527 122.123614432501 -90.3632739291279
vn -0.6142513752 0.7823741436 -0.1028880030
v 95.4379859704423 105.320383574312 -72.1046745819711
vn 0.6744632125 -0.7346824408 -0.0730828717
v 70.0271766801489 117.385349174 -104.590538957655
vn 0.7628438473 0.5515645742 -0.3374104798
v 85.1711431939963 99.0904071471186 -79.5582239570351
vn -0.1301860064 -0.9914804697 0.0042518065
v 70.5355380218597 113.061585363391 -111.441404223095
vn 0.4056773484 0.5696318746 -0.7148044705
v 73.7915073217836 98.6856114106426 -114.062181417417
vn 0.5166071057 -0.4376668036 -0.7359108925
v 64.6799229396537 99.3662054477321 -115.540611084243
vn -0.0630109310 -0.0584789179 -0.9962980747
v 98.0002476654058 112.6710882524 -72.306399326917
vn 0.8470778465 0.4943739474 -0.1950730532
v 90.6631570186107 103.616806662002 -69.0657140376245
vn 0.2955345809 -0.6810750961 0.6699224114
f 198//198 343//343 499//499
f 250//250 458//458 583//583
f 614//614 613//613 616//616
f 299//299 404//404 437//437
f 39//39 467//467 4//4
f 542//542 357//357 237//237
f 626//626 4//4 467//467
f 421//421 586//586 589//589
f 19//19 107//107 338//338
f 25//25 466//466 471//471
f 222//222 90//90 337//337
f 294//294 626//626 400//400
f 451//451 502//502 309//309
f 361//361 11//11 375//375
f 25//25 18//18 386//386
f 33//33 11//11 37//37
f 587//587 75//75 422//422
f 10//10 50//50 164//164
f 10//10 495//495 410//410
f 63//63 78//78 165//165
f 411//411 78//78 63//63
f 14//14 156//156 575//575
f 264//264 429//429 164//164
f 247//247 14//14 484//484
f 264//264 50//50 296//296
f 181//181 448//448 83//83
f 573//573 127//127 355//355
f 423//423 46//46 54//54
f 74//74 76//76 92//92
f 65//65 424//424 69//69
f 448//448 391//391 296//296
f 275//275 102//102 344//344
f 196//196 132//132 627//627
f 588//588 401//401 192//192
f 102//102 275//275 561//561
f 556//556 372//372 227//227
f 338//338 56//56 430//430
f 368//368 628//628 211//211
f 279//279 233//233 268//268
f 162//162 500//500 227//227
f 283//283 374//374 89//89
f 415//415 499//499 343//343
f 171//171 490//490 323//323
f 414//414 30//30 266//266
f 28//28 343//343 198//198
f 189//189 151//151 383//383
f 480//480 380//380 343//343
f 148//148 348//348 333//333
f 406//406 178//178 335//335
f 67//67 381//381 189//189
f 115//115 35//35 29//29
f 476//476 172//172 627//627
f 174//174 348//348 148//148
f 578//578 369//369 558//558
f 178//178 218//218 335//335
f 575//575 484//484 14//14
f 293//293 418//418 110//110
f 28//28 198//198 445//445
f 383//383 230//230 244//244
f 132//132 214//214 204//204
f 338//338 270//270 272//272
f 408//408 39//39 176//176
f 15//15 623//623 277//277
f 291//291 293//293 301//301
f 122//122 304//304 35//35
f 89//89 559//559 267//267
f 323//323 175//175 586//586
f 135//135 267//267 559//559
f 138//138 35//35 304//304
f 35//35 138//138 29//29
f 89//89 267//267 522//522
f 117//117 524//524 621//621
f 513//513 70//70 290//290
f 265//265 572//572 266//266
f 56//56 272//272 565//565
f 279//279 57//57 233//233
f 394//394 94//94 251//251
f 32//32 297//297 209//209
f 531//531 398//398 86//86
f 187//187 493//493 569//569
f 105//105 23//23 153//153
f 605//605 1//1 482//482
f 209//209 61//61 454//454
f 261//261 205//205 494//494
f 271//271 536//536 351//351
f 149//149 203//203 599//599
f 277//277 65//65 322//322
f 448//448 232//232 391//391
f 330//330 166//166 420//420
f 62//62 71//71 342//342
f 501//501 132//132 524//524
f 277//277 363//363 65//65
f 520//520 68//68 594//594
f 627//627 136//136 196//196
f 543//543 310//310 102//102
f 607//607 544//544 608//608
f 411//411 304//304 491//491
f 532//532 56//56 565//565
f 394//394 246//246 2//2
f 425//425 124//124 112//112
f 75//75 587//587 438//438
f 481//481 422//422 75//75
f 503//503 154//154 316//316
f 371//371 251//251 619//619
f 227//227 533//533 556//556
f 410//410 625//625 466//466
f 153//153 23//23 133//133
f 363//363 233//233 424//424
f 391//391 58//58 328//328
f 173//173 399//399 116//116
f 312//312 10//10 410//410
f 559//559 462//462 428//428
f 490//490 465//465 393//393
f 385//385 82//82 305//305
f 334//334 473//473 240//240
f 84//84 263//263 334//334
f 521//521 508//508 510//510
f 25//25 539//539 131//131
f 260//260 153//153 133//133
f 240//240 473//473 405//405
f 87//87 143//143 183//183
f 202//202 297//297 436//436
f 407//407 91//91 581//581
f 100//100 51//51 352//352
f 243//243 95//95 146//146
f 546//546 68//68 535//535
f 477//477 434//434 146//146
f 57//57 336//336 233//233
f 337//337 73//73 446//446
f 342//342 93//93 497//497
f 97//97 342//342 497//497
f 479//479 292//292 497//497
f 497//497 292//292 97//97
f 98//98 99//99 526//526
f 443//443 112//112 53//53
f 422//422 91//91 587//587
f 140//140 44//44 433//433
f 243//243 344//344 95//95
f 603//603 276//276 604//604
f 55//55 366//366 368//368
f 179//179 73//73 481//481
f 91//91 86//86 398//398
f 365//365 258//258 298//298
f 129//129 540//540 472//472
f 320//320 407//407 365//365
f 254//254 229//229 109//109
f 399//399 173//173 390//390
f 254//254 135//135 428//428
f 374//374 389//389 122//122
f 107//107 215//215 257//257
f 15//15 43//43 580//580
f 61//61 209//209 396//396
f 622//622 498//498 364//364
f 568//568 190//190 41//41
f 290//290 38//38 561//561
f 316//316 154//154 321//321
f 485//485 191//191 177//177
f 70//70 513//513 483//483
f 394//394 618//618 246//246
f 54//54 6//6 496//496
f 270//270 107//107 257//257
f 476//476 204//204 530//530
f 522//522 267//267 515//515
f 592//592 113//113 593//593
f 485//485 9//9 152//152
f 622//622 324//324 306//306
f 487//487 368//368 366//366
f 3//3 567//567 608//608
f 160//160 223//223 457//457
f 389//389 60//60 122//122
f 372//372 136//136 172//172
f 302//302 506//506 283//283
f 501//501 358//358 589//589
f 625//625 410//410 185//185
f 567//567 317//317 608//608
f 444//444 596//596 595//595
f 62//62 2//2 248//248
f 13//13 162//162 172//172
f 539//539 176//176 4//4
f 52//52 171//171 43//43
f 572//572 92//92 120//120
f 512//512 24//24 313//313
f 308//308 207//207 441//441
f 226//226 539//539 386//386
f 443//443 79//79 435//435
f 229//229 254//254 428//428
f 269//269 174//174 118//118
f 218//218 178//178 106//106
f 486//486 158//158 40//40
f 476//476 205//205 172//172
f 121//121 261//261 494//494
f 433//433 468//468 356//356
f 419//419 271//271 51//51
f 140//140 356//356 150//150
f 360//360 47//47 527//527
f 401//401 588//588 399//399
f 257//257 25//25 17//17
f 336//336 424//424 233//233
f 177//177 145//145 485//485
f 17//17 471//471 331//331
f 167//167 44//44 140//140
f 147//147 396//396 209//209
f 437//437 387//387 299//299
f 469//469 477//477 149//149
f 435//435 606//606 197//197
f 412//412 124//124 425//425
f 330//330 129//129 472//472
f 558//558 129//129 554//554
f 366//366 55//55 8//8
f 343//343 28//28 480//480
f 391//391 232//232 156//156
f 618//618 31//31 525//525
f 151//151 189//189 381//381
f 585//585 308//308 218//218
f 220//220 544//544 607//607
f 421//421 589//589 358//358
f 628//628 295//295 441//441
f 39//39 341//341 289//289
f 21//21 399//399 588//588
f 176//176 39//39 4//4
f 155//155 348//348 446//446
f 32//32 454//454 34//34
f 289//289 467//467 39//39
f 348//348 155//155 333//333
f 303//303 314//314 286//286
f 157//157 286//286 314//314
f 602//602 159//159 549//549
f 450//450 303//303 161//161
f 307//307 140//140 150//150
f 565//565 331//331 471//471
f 192//192 401//401 390//390
f 353//353 430//430 464//464
f 286//286 161//161 303//303
f 356//356 140//140 433//433
f 101//101 378//378 377//377
f 434//434 558//558 369//369
f 83//83 294//294 400//400
f 576//576 20//20 14//14
f 529//529 433//433 395//395
f 574//574 185//185 495//495
f 317//317 80//80 325//325
f 165//165 7//7 213//213
f 79//79 395//395 435//435
f 319//319 253//253 538//538
f 487//487 450//450 161//161
f 12//12 213//213 7//7
f 527//527 618//618 525//525
f 383//383 151//151 377//377
f 528//528 492//492 378//378
f 280//280 289//289 170//170
f 225//225 120//120 180//180
f 623//623 406//406 453//453
f 201//201 9//9 503//503
f 440//440 592//592 459//459
f 423//423 553//553 46//46
f 465//465 112//112 124//124
f 441//441 200//200 628//628
f 135//135 254//254 110//110
f 126//126 216//216 121//121
f 549//549 159//159 548//548
f 456//456 201//201 385//385
f 495//495 10//10 164//164
f 387//387 427//427 299//299
f 336//336 402//402 411//411
f 155//155 446//446 456//456
f 543//543 66//66 310//310
f 110//110 418//418 274//274
f 460//460 435//435 206//206
f 308//308 295//295 379//379
f 322//322 432//432 52//52
f 465//465 175//175 393//393
f 569//569 311//311 347//347
f 619//619 46//46 553//553
f 175//175 184//184 260//260
f 186//186 170//170 187//187
f 586//586 421//421 580//580
f 183//183 297//297 202//202
f 236//236 339//339 169//169
f 174//174 269//269 348//348
f 289//289 280//280 467//467
f 151//151 101//101 377//377
f 73//73 255//255 446//446
f 403//403 181//181 186//186
f 580//580 323//323 586//586
f 572//572 265//265 226//226
f 595//595 362//362 444//444
f 352//352 193//193 526//526
f 381//381 361//361 375//375
f 97//97 193//193 350//350
f 238//238 177//177 242//242
f 178//178 406//406 623//623
f 319//319 388//388 469//469
f 607//607 608//608 392//392
f 577//577 194//194 563//563
f 201//201 503//503 385//385
f 388//388 538//538 458//458
f 277//277 453//453 363//363
f 195//195 552//552 105//105
f 371//371 553//553 31//31
f 445//445 198//198 288//288
f 414//414 120//120 225//225
f 403//403 186//186 187//187
f 229//229 480//480 28//28
f 483//483 81//81 278//278
f 177//177 191//191 242//242
f 197//197 606//606 544//544
f 443//443 221//221 425//425
f 474//474 16//16 598//598
f 148//148 301//301 141//141
f 346//346 64//64 429//429
f 409//409 500//500 492//492
f 124//124 412//412 465//465
f 621//621 207//207 117//117
f 68//68 520//520 87//87
f 239//239 597//597 545//545
f 412//412 184//184 465//465
f 327//327 94//94 139//139
f 435//435 197//197 443//443
f 35//35 374//374 122//122
f 325//325 80//80 199//199
f 534//534 198//198 499//499
f 399//399 21//21 315//315
f 183//183 202//202 217//217
f 30//30 414//414 387//387
f 330//330 40//40 554//554
f 239//239 545//545 237//237
f 355//355 127//127 199//199
f 242//242 318//318 88//88
f 297//297 183//183 147//147
f 201//201 152//152 9//9
f 326//326 47//47 360//360
f 260//260 586//586 175//175
f 179//179 318//318 191//191
f 621//621 196//196 556//556
f 544//544 509//509 197//197
f 132//132 501//501 214//214
f 578//578 558//558 554//554
f 432//432 322//322 213//213
f 64//64 346//346 489//489
f 96//96 426//426 23//23
f 68//68 546//546 596//596
f 160//160 221//221 509//509
f 221//221 160//160 282//282
f 417//417 195//195 184//184
f 7//7 79//79 12//12
f 457//457 417//417 282//282
f 516//516 166//166 250//250
f 466//466 25//25 131//131
f 135//135 559//559 428//428
f 285//285 190//190 568//568
f 447//447 475//475 217//217
f 447//447 217//217 202//202
f 612//612 551//551 145//145
f 147//147 209//209 297//297
f 431//431 40//40 552//552
f 142//142 185//185 574//574
f 278//278 579//579 169//169
f 275//275 513//513 290//290
f 533//533 500//500 22//22
f 249//249 291//291 299//299
f 475//475 447//447 234//234
f 29//29 380//380 115//115
f 509//509 221//221 197//197
f 232//232 448//448 403//403
f 415//415 380//380 29//29
f 23//23 426//426 133//133
f 251//251 536//536 619//619
f 617//617 271//271 419//419
f 431//431 236//236 579//579
f 295//295 487//487 379//379
f 505//505 589//589 591//591
f 46//46 619//619 609//609
f 253//253 126//126 228//228
f 476//476 530//530 228//228
f 536//536 251//251 351//351
f 222//222 118//118 531//531
f 145//145 610//610 485//485
f 231//231 611//611 614//614
f 335//335 379//379 406//406
f 611//611 392//392 613//613
f 592//592 440//440 438//438
f 223//223 339//339 457//457
f 339//339 241//241 384//384
f 107//107 270//270 338//338
f 384//384 169//169 339//339
f 67//67 234//234 224//224
f 44//44 435//435 395//395
f 360//360 219//219 125//125
f 323//323 580//580 171//171
f 235//235 357//357 542//542
f 608//608 317//317 392//392
f 548//548 235//235 542//542
f 597//597 239//239 244//244
f 244//244 382//382 383//383
f 382//382 239//239 237//237
f 152//152 191//191 485//485
f 461//461 245//245 612//612
f 274//274 173//173 116//116
f 114//114 320//320 298//298
f 361//361 224//224 436//436
f 246//246 245//245 620//620
f 419//419 210//210 617//617
f 210//210 614//614 617//617
f 70//70 370//370 252//252
f 419//419 38//38 252//252
f 538//538 253//253 228//228
f 555//555 208//208 41//41
f 332//332 513//513 345//345
f 20//20 5//5 58//58
f 88//88 442//442 242//242
f 2//2 620//620 248//248
f 272//272 56//56 338//338
f 205//205 13//13 172//172
f 533//533 119//119 556//556
f 227//227 372//372 162//162
f 5//5 49//49 523//523
f 570//570 187//187 569//569
f 187//187 570//570 403//403
f 555//555 27//27 64//64
f 182//182 121//121 216//216
f 622//622 6//6 54//54
f 386//386 257//257 215//215
f 72//72 256//256 262//262
f 123//123 8//8 376//376
f 262//262 256//256 259//259
f 262//262 259//259 512//512
f 477//477 469//469 103//103
f 335//335 308//308 379//379
f 65//65 213//213 322//322
f 394//394 371//371 618//618
f 376//376 378//378 101//101
f 253//253 319//319 45//45
f 558//558 434//434 477//477
f 320//320 518//518 113//113
f 190//190 574//574 555//555
f 453//453 268//268 363//363
f 533//533 200//200 119//119
f 573//573 355//355 416//416
f 159//159 281//281 548//548
f 496//496 6//6 576//576
f 212//212 171//171 52//52
f 175//175 323//323 393//393
f 24//24 512//512 259//259
f 445//445 108//108 28//28
f 90//90 422//422 481//481
f 436//436 447//447 202//202
f 60//60 491//491 122//122
f 252//252 38//38 290//290
f 109//109 229//229 108//108
f 609//609 48//48 364//364
f 258//258 111//111 298//298
f 259//259 256//256 111//111
f 61//61 396//396 256//256
f 61//61 72//72 397//397
f 34//34 359//359 32//32
f 175//175 465//465 184//184
f 374//374 35//35 115//115
f 397//397 582//582 449//449
f 146//146 149//149 477//477
f 186//186 280//280 170//170
f 582//582 397//397 72//72
f 286//286 284//284 287//287
f 129//129 330//330 554//554
f 610//610 273//273 59//59
f 287//287 161//161 286//286
f 556//556 119//119 621//621
f 584//584 161//161 287//287
f 450//450 487//487 366//366
f 315//315 562//562 19//19
f 531//531 445//445 288//288
f 93//93 598//598 329//329
f 392//392 317//317 325//325
f 593//593 518//518 594//594
f 304//304 122//122 491//491
f 249//249 418//418 293//293
f 131//131 539//539 4//4
f 244//244 230//230 439//439
f 574//574 565//565 142//142
f 92//92 76//76 413//413
f 15//15 277//277 322//322
f 627//627 132//132 204//204
f 92//92 413//413 192//192
f 295//295 628//628 368//368
f 610//610 59//59 154//154
f 520//520 114//114 143//143
f 567//567 80//80 317//317
f 293//293 291//291 249//249
f 114//114 298//298 144//144
f 214//214 501//501 163//163
f 128//128 112//112 465//465
f 445//445 531//531 118//118
f 337//337 269//269 222//222
f 74//74 215//215 562//562
f 574//574 190//190 285//285
f 546//546 16//16 596//596
f 221//221 443//443 197//197
f 464//464 150//150 302//302
f 132//132 196//196 524//524
f 409//409 22//22 500//500
f 220//220 611//611 231//231
f 325//325 199//199 324//324
f 582//582 72//72 564//564
f 309//309 300//300 305//305
f 402//402 138//138 304//304
f 290//290 70//70 252//252
f 314//314 303//303 37//37
f 330//330 420//420 96//96
f 459//459 362//362 373//373
f 207//207 621//621 200//200
f 591//591 589//589 586//586
f 324//324 364//364 325//325
f 451//451 82//82 537//537
f 316//316 537//537 82//82
f 588//588 74//74 562//562
f 433//433 44//44 395//395
f 560//560 420//420 516//516
f 416//416 367//367 568//568
f 73//73 337//337 90//90
f 282//282 425//425 221//221
f 491//491 60//60 468//468
f 69//69 63//63 165//165
f 235//235 67//67 357//357
f 69//69 165//165 213//213
f 49//49 514//514 511//511
f 463//463 311//311 537//537
f 574//574 168//168 555//555
f 572//572 226//226 215//215
f 27//27 168//168 429//429
f 454//454 314//314 34//34
f 626//626 312//312 131//131
f 355//355 3//3 482//482
f 313//313 510//510 499//499
f 181//181 403//403 448//448
f 14//14 20//20 156//156
f 619//619 553//553 371//371
f 318//318 42//42 88//88
f 9//9 154//154 503//503
f 199//199 80//80 567//567
f 208//208 64//64 624//624
f 78//78 529//529 165//165
f 139//139 94//94 519//519
f 73//73 90//90 481//481
f 37//37 123//123 33//33
f 206//206 605//605 460//460
f 154//154 59//59 321//321
f 586//586 260//260 133//133
f 470//470 85//85 507//507
f 273//273 85//85 59//59
f 303//303 123//123 37//37
f 76//76 74//74 588//588
f 131//131 4//4 626//626
f 42//42 481//481 75//75
f 318//318 179//179 481//481
f 52//52 15//15 322//322
f 125//125 326//326 360//360
f 490//490 171//171 212//212
f 338//338 430//430 19//19
f 31//31 553//553 423//423
f 191//191 318//318 242//242
f 134//134 53//53 112//112
f 391//391 328//328 296//296
f 84//84 362//362 263//263
f 97//97 350//350 342//342
f 133//133 591//591 586//586
f 208//208 555//555 64//64
f 622//622 306//306 511//511
f 452//452 353//353 464//464
f 17//17 25//25 471//471
f 116//116 399//399 515//515
f 373//373 42//42 440//440
f 5//5 20//20 514//514
f 334//334 263//263 473//473
f 583//583 516//516 250//250
f 430//430 56//56 188//188
f 564//564 57//57 582//582
f 3//3 199//199 567//567
f 212//212 128//128 490//490
f 443//443 53//53 79//79
f 340//340 334//334 240//240
f 248//248 240//240 71//71
f 405//405 71//71 240//240
f 30//30 341//341 408//408
f 375//375 101//101 151//151
f 275//275 243//243 345//345
f 339//339 223//223 241//241
f 217//217 87//87 183//183
f 105//105 552//552 96//96
f 369//369 345//345 434//434
f 383//383 216//216 230//230
f 15//15 52//52 43//43
f 571//571 347//347 470//470
f 470//470 347//347 463//463
f 156//156 20//20 58//58
f 405//405 473//473 474//474
f 143//143 114//114 144//144
f 62//62 350//350 519//519
f 292//292 193//193 97//97
f 251//251 354//354 351//351
f 99//99 543//543 100//100
f 543//543 561//561 100//100
f 243//243 275//275 344//344
f 69//69 213//213 65//65
f 344//344 102//102 310//310
f 521//521 24//24 258//258
f 55//55 409//409 528//528
f 309//309 502//502 404//404
f 393//393 323//323 490//490
f 220//220 607//607 611//611
f 427//427 249//249 299//299
f 507//507 478//478 470//470
f 48//48 325//325 364//364
f 167//167 605//605 206//206
f 525//525 360//360 527//527
f 60//60 506//506 356//356
f 51//51 271//271 327//327
f 525//525 219//219 360//360
f 11//11 359//359 34//34
f 31//31 615//615 525//525
f 34//34 37//37 11//11
f 359//359 11//11 361//361
f 218//218 358//358 501//501
f 77//77 559//559 89//89
f 11//11 33//33 375//375
f 8//8 123//123 450//450
f 101//101 33//33 376//376
f 409//409 55//55 211//211
f 169//169 384//384 483//483
f 579//579 332//332 486//486
f 569//569 493//493 455//455
f 108//108 229//229 28//28
f 340//340 248//248 620//620
f 585//585 501//501 524//524
f 185//185 410//410 495//495
f 528//528 409//409 492//492
f 182//182 377//377 378//378
f 492//492 500//500 261//261
f 583//583 204//204 214//214
f 361//361 436//436 359//359
f 342//342 350//350 62//62
f 136//136 627//627 172//172
f 486//486 431//431 579//579
f 192//192 36//36 92//92
f 418//418 36//36 173//173
f 296//296 328//328 264//264
f 305//305 456//456 385//385
f 367//367 104//104 532//532
f 246//246 527//527 245//245
f 201//201 255//255 152//152
f 482//482 608//608 460//460
f 168//168 574//574 495//495
f 515//515 315//315 452//452
f 388//388 319//319 538//538
f 33//33 101//101 375//375
f 326//326 273//273 551//551
f 378//378 376//376 528//528
f 381//381 375//375 151//151
f 225//225 249//249 427//427
f 261//261 121//121 492//492
f 150//150 506//506 302//302
f 308//308 585//585 207//207
f 189//189 357//357 67//67
f 231//231 241//241 220//220
f 577//577 455//455 493//493
f 223//223 220//220 241//241
f 320//320 365//365 298//298
f 415//415 343//343 380//380
f 397//397 449//449 157//157
f 284//284 286//286 157//157
f 188//188 104//104 605//605
f 558//558 103//103 540//540
f 138//138 402//402 517//517
f 442//442 84//84 334//334
f 426//426 505//505 591//591
f 514//514 6//6 511//511
f 177//177 612//612 145//145
f 442//442 461//461 238//238
f 426//426 96//96 420//420
f 280//280 186//186 181//181
f 364//364 498//498 609//609
f 284//284 268//268 287//287
f 604//604 276//276 488//488
f 44//44 167//167 206//206
f 312//312 294//294 10//10
f 508//508 398//398 288//288
f 398//398 508//508 581//581
f 458//458 250//250 472//472
f 216//216 126//126 230//230
f 213//213 12//12 432//432
f 421//421 106//106 580//580
f 295//295 308//308 441//441
f 42//42 373//373 88//88
f 23//23 105//105 96//96
f 549//549 542//542 550//550
f 414//414 427//427 387//387
f 472//472 166//166 330//330
f 439//439 230//230 126//126
f 103//103 558//558 477//477
f 283//283 89//89 522//522
f 429//429 168//168 164//164
f 120//120 266//266 572//572
f 560//560 163//163 505//505
f 367//367 565//565 285//285
f 238//238 461//461 612//612
f 1//1 104//104 416//416
f 65//65 363//363 424//424
f 250//250 166//166 472//472
f 374//374 115//115 77//77
f 223//223 160//160 509//509
f 190//190 555//555 41//41
f 600//600 281//281 601//601
f 104//104 367//367 416//416
f 418//418 225//225 180//180
f 462//462 380//380 480//480
f 444//444 362//362 459//459
f 441//441 207//207 200//200
f 406//406 584//584 453//453
f 191//191 152//152 179//179
f 203//203 95//95 488//488
f 194//194 341//341 563//563
f 581//581 91//91 398//398
f 86//86 91//91 422//422
f 612//612 177//177 238//238
f 599//599 203//203 488//488
f 617//617 536//536 271//271
f 225//225 427//427 414//414
f 215//215 74//74 572//572
f 45//45 439//439 253//253
f 182//182 492//492 121//121
f 554//554 158//158 578//578
f 145//145 551//551 273//273
f 415//415 313//313 499//499
f 13//13 205//205 261//261
f 267//267 135//135 274//274
f 142//142 565//565 471//471
f 341//341 194//194 289//289
f 510//510 313//313 24//24
f 529//529 78//78 468//468
f 274//274 135//135 110//110
f 523//523 511//511 306//306
f 289//289 194//194 170//170
f 236//236 457//457 339//339
f 262//262 564//564 72//72
f 104//104 56//56 532//532
f 306//306 127//127 504//504
f 137//137 291//291 301//301
f 31//31 618//618 371//371
f 387//387 437//437 563//563
f 489//489 26//26 5//5
f 53//53 134//134 212//212
f 90//90 86//86 422//422
f 224//224 361//361 381//381
f 75//75 440//440 42//42
f 74//74 92//92 572//572
f 58//58 26//26 328//328
f 382//382 189//189 383//383
f 568//568 41//41 573//573
f 437//437 404//404 502//502
f 446//446 269//269 337//337
f 256//256 72//72 61//61
f 64//64 27//27 429//429
f 40//40 431//431 486//486
f 66//66 543//543 99//99
f 157//157 449//449 284//284
f 278//278 332//332 579//579
f 390//390 401//401 399//399
f 86//86 222//222 531//531
f 234//234 447//447 224//224
f 284//284 449//449 279//279
f 346//346 26//26 489//489
f 82//82 451//451 309//309
f 112//112 443//443 425//425
f 296//296 50//50 83//83
f 324//324 622//622 364//364
f 349//349 517//517 512//512
f 108//108 445//445 118//118
f 315//315 515//515 399//399
f 459//459 592//592 593//593
f 374//374 77//77 89//89
f 70//70 483//483 384//384
f 529//529 468//468 433//433
f 435//435 44//44 206//206
f 625//625 471//471 466//466
f 321//321 537//537 316//316
f 603//603 310//310 66//66
f 347//347 571//571 570//570
f 45//45 469//469 149//149
f 612//612 47//47 551//551
f 209//209 454//454 32//32
f 452//452 464//464 302//302
f 332//332 81//81 513//513
f 472//472 540//540 458//458
f 500//500 13//13 261//261
f 156//156 130//130 575//575
f 196//196 136//136 372//372
f 494//494 126//126 121//121
f 85//85 463//463 321//321
f 365//365 407//407 581//581
f 536//536 557//557 619//619
f 504//504 573//573 41//41
f 176//176 226//226 265//265
f 481//481 42//42 318//318
f 373//373 84//84 88//88
f 416//416 355//355 482//482
f 45//45 319//319 469//469
f 305//305 82//82 309//309
f 430//430 353//353 19//19
f 584//584 379//379 487//487
f 212//212 134//134 128//128
f 478//478 507//507 125//125
f 547//547 475//475 541//541
f 463//463 85//85 470//470
f 580//580 106//106 178//178
f 194//194 493//493 170//170
f 170//170 493//493 187//187
f 332//332 278//278 81//81
f 214//214 516//516 583//583
f 388//388 103//103 469//469
f 396//396 147//147 144//144
f 421//421 358//358 218//218
f 500//500 162//162 13//13
f 172//172 162//162 372//372
f 480//480 428//428 462//462
f 434//434 243//243 146//146
f 619//619 557//557 609//609
f 554//554 40//40 158//158
f 36//36 120//120 92//92
f 513//513 275//275 345//345
f 386//386 215//215 226//226
f 598//598 405//405 474//474
f 125//125 484//484 478//478
f 484//484 125//125 219//219
f 326//326 125//125 507//507
f 219//219 247//247 484//484
f 570//570 232//232 403//403
f 488//488 95//95 604//604
f 130//130 232//232 570//570
f 266//266 120//120 414//414
f 496//496 247//247 615//615
f 149//149 146//146 203//203
f 482//482 460//460 605//605
f 516//516 163//163 560//560
f 218//218 501//501 585//585
f 111//111 396//396 144//144
f 473//473 263//263 595//595
f 325//325 48//48 613//613
f 228//228 494//494 476//476
f 452//452 522//522 515//515
f 496//496 615//615 423//423
f 428//428 480//480 229//229
f 426//426 560//560 505//505
f 389//389 283//283 506//506
f 609//609 498//498 46//46
f 95//95 203//203 146//146
f 280//280 400//400 467//467
f 193//193 292//292 526//526
f 505//505 501//501 589//589
f 118//118 174//174 108//108
f 332//332 578//578 486//486
f 225//225 418//418 249//249
f 108//108 174//174 109//109
f 100//100 526//526 99//99
f 614//614 210//210 231//231
f 294//294 83//83 50//50
f 601//601 329//329 600//600
f 418//418 173//173 274//274
f 329//329 601//601 479//479
f 565//565 272//272 270//270
f 8//8 55//55 528//528
f 534//534 508//508 288//288
f 329//329 479//479 497//497
f 510//510 508//508 534//534
f 118//118 222//222 269//269
f 313//313 415//415 349//349
f 98//98 602//602 99//99
f 601//601 98//98 479//479
f 568//568 367//367 285//285
f 580//580 43//43 171//171
f 195//195 153//153 260//260
f 67//67 224//224 381//381
f 345//345 369//369 332//332
f 602//602 66//66 99//99
f 603//603 604//604 310//310
f 158//158 486//486 578//578
f 614//614 616//616 617//617
f 344//344 604//604 95//95
f 608//608 482//482 3//3
f 53//53 12//12 79//79
f 141//141 109//109 148//148
f 114//114 520//520 518//518
f 93//93 71//71 405//405
f 110//110 141//141 293//293
f 540//540 103//103 388//388
f 425//425 282//282 412//412
f 522//522 452//452 302//302
f 557//557 536//536 616//616
f 49//49 5//5 514//514
f 116//116 515//515 267//267
f 51//51 38//38 419//419
f 144//144 298//298 111//111
f 432//432 212//212 52//52
f 373//373 440//440 459//459
f 6//6 514//514 576//576
f 487//487 295//295 368//368
f 143//143 87//87 520//520
f 263//263 362//362 595//595
f 205//205 476//476 494//494
f 41//41 208//208 504//504
f 204//204 476//476 627//627
f 53//53 212//212 432//432
f 454//454 61//61 397//397
f 566//566 552//552 195//195
f 561//561 543//543 102//102
f 156//156 58//58 391//391
f 68//68 87//87 535//535
f 270//270 257//257 17//17
f 217//217 475//475 535//535
f 439//439 597//597 244//244
f 451//451 537//537 311//311
f 571//571 130//130 570//570
f 90//90 222//222 86//86
f 228//228 530//530 538//538
f 126//126 253//253 439//439
f 160//160 457//457 282//282
f 547//547 535//535 475//475
f 234//234 235//235 541//541
f 235//235 548//548 541//541
f 312//312 466//466 131//131
f 406//406 379//379 584//584
f 541//541 475//475 234//234
f 585//585 117//117 207//207
f 237//237 545//545 550//550
f 530//530 583//583 458//458
f 419//419 252//252 210//210
f 107//107 19//19 562//562
f 535//535 547//547 546//546
f 513//513 81//81 483//483
f 281//281 541//541 548//548
f 549//549 548//548 542//542
f 458//458 540//540 388//388
f 584//584 487//487 161//161
f 307//307 188//188 167//167
f 10//10 294//294 50//50
f 340//340 442//442 334//334
f 275//275 290//290 561//561
f 78//78 491//491 468//468
f 366//366 8//8 450//450
f 504//504 523//523 306//306
f 196//196 621//621 524//524
f 236//236 431//431 566//566
f 301//301 333//333 137//137
f 505//505 163//163 501//501
f 370//370 384//384 241//241
f 255//255 456//456 446//446
f 36//36 418//418 180//180
f 62//62 519//519 2//2
f 620//620 461//461 340//340
f 442//442 340//340 461//461
f 494//494 228//228 126//126
f 236//236 169//169 579//579
f 211//211 22//22 409//409
f 127//127 306//306 324//324
f 115//115 462//462 77//77
f 352//352 139//139 193//193
f 371//371 394//394 251//251
f 390//390 36//36 192//192
f 333//333 301//301 148//148
f 2//2 519//519 394//394
f 534//534 288//288 198//198
f 137//137 333//333 300//300
f 145//145 273//273 610//610
f 64//64 489//489 624//624
f 544//544 220//220 509//509
f 240//240 248//248 340//340
f 461//461 620//620 245//245
f 294//294 312//312 626//626
f 408//408 266//266 30//30
f 39//39 408//408 341//341
f 30//30 387//387 563//563
f 58//58 5//5 26//26
f 524//524 117//117 585//585
f 624//624 523//523 208//208
f 370//370 70//70 384//384
f 556//556 196//196 372//372
f 7//7 529//529 395//395
f 500//500 533//533 227//227
f 1//1 416//416 482//482
f 504//504 208//208 523//523
f 462//462 115//115 380//380
f 615//615 31//31 423//423
f 12//12 53//53 432//432
f 341//341 30//30 563//563
f 331//331 565//565 270//270
f 420//420 560//560 426//426
f 127//127 573//573 504//504
f 327//327 354//354 94//94
f 71//71 62//62 248//248
f 264//264 346//346 429//429
f 512//512 313//313 349//349
f 139//139 519//519 350//350
f 46//46 498//498 54//54
f 354//354 327//327 351//351
f 271//271 351//351 327//327
f 38//38 100//100 561//561
f 352//352 51//51 327//327
f 437//437 502//502 577//577
f 438//438 440//440 75//75
f 577//577 563//563 437//437
f 194//194 577//577 493//493
f 57//57 564//564 402//402
f 591//591 133//133 426//426
f 192//192 413//413 76//76
f 94//94 354//354 251//251
f 192//192 76//76 588//588
f 5//5 624//624 489//489
f 455//455 502//502 451//451
f 292//292 479//479 98//98
f 104//104 1//1 605//605
f 25//25 386//386 539//539
f 569//569 347//347 570//570
f 311//311 569//569 455//455
f 159//159 98//98 601//601
f 565//565 574//574 285//285
f 106//106 421//421 218//218
f 48//48 557//557 616//616
f 520//520 594//594 518//518
f 69//69 424//424 63//63
f 130//130 156//156 232//232
f 608//608 544//544 606//606
f 571//571 470//470 478//478
f 571//571 478//478 575//575
f 33//33 123//123 376//376
f 211//211 628//628 533//533
f 365//365 521//521 258//258
f 600//600 546//546 547//547
f 181//181 400//400 280//280
f 283//283 522//522 302//302
f 496//496 423//423 54//54
f 195//195 105//105 153//153
f 484//484 575//575 478//478
f 214//214 163//163 516//516
f 321//321 59//59 85//85
f 20//20 576//576 514//514
f 204//204 583//583 530//530
f 327//327 139//139 352//352
f 352//352 526//526 100//100
f 376//376 8//8 528//528
f 255//255 73//73 179//179
f 164//164 168//168 495//495
f 496//496 576//576 247//247
f 83//83 448//448 296//296
f 417//417 566//566 195//195
f 236//236 566//566 457//457
f 498//498 622//622 54//54
f 575//575 130//130 571//571
f 315//315 353//353 452//452
f 256//256 396//396 111//111
f 141//141 254//254 109//109
f 176//176 265//265 408//408
f 14//14 247//247 576//576
f 565//565 367//367 532//532
f 395//395 79//79 7//7
f 606//606 435//435 608//608
f 300//300 404//404 137//137
f 93//93 329//329 497//497
f 111//111 258//258 259//259
f 24//24 259//259 258//258
f 508//508 521//521 581//581
f 330//330 96//96 552//552
f 195//195 260//260 184//184
f 517//517 262//262 512//512
f 564//564 517//517 402//402
f 262//262 517//517 564//564
f 40//40 330//330 552//552
f 344//344 310//310 604//604
f 71//71 93//93 342//342
f 287//287 453//453 584//584
f 168//168 27//27 555//555
f 55//55 368//368 211//211
f 424//424 336//336 63//63
f 299//299 291//291 404//404
f 468//468 60//60 356//356
f 453//453 277//277 623//623
f 386//386 18//18 257//257
f 29//29 349//349 415//415
f 291//291 137//137 404//404
f 282//282 417//417 412//412
f 389//389 506//506 60//60
f 535//535 87//87 217//217
f 365//365 581//581 521//521
f 210//210 252//252 370//370
f 449//449 582//582 279//279
f 402//402 336//336 57//57
f 300//300 309//309 404//404
f 57//57 279//279 582//582
f 32//32 359//359 297//297
f 233//233 363//363 268//268
f 279//279 268//268 284//284
f 268//268 453//453 287//287
f 265//265 266//266 408//408
f 200//200 533//533 628//628
f 600//600 16//16 546//546
f 199//199 127//127 324//324
f 566//566 431//431 552//552
f 412//412 417//417 184//184
f 26//26 346//346 328//328
f 587//587 590//590 438//438
f 91//91 407//407 587//587
f 407//407 590//590 587//587
f 2//2 246//246 620//620
f 315//315 19//19 353//353
f 526//526 292//292 98//98
f 185//185 142//142 625//625
f 348//348 269//269 446//446
f 154//154 9//9 610//610
f 592//592 438//438 590//590
f 518//518 320//320 114//114
f 407//407 320//320 590//590
f 590//590 113//113 592//592
f 47//47 326//326 551//551
f 166//166 516//516 420//420
f 436//436 224//224 447//447
f 462//462 559//559 77//77
f 242//242 442//442 238//238
f 464//464 430//430 307//307
f 444//444 593//593 594//594
f 455//455 577//577 502//502
f 518//518 593//593 113//113
f 6//6 622//622 511//511
f 530//530 458//458 538//538
f 566//566 417//417 457//457
f 182//182 378//378 492//492
f 216//216 377//377 182//182
f 517//517 349//349 138//138
f 215//215 107//107 562//562
f 593//593 444//444 459//459
f 311//311 455//455 451//451
f 610//610 9//9 485//485
f 596//596 594//594 68//68
f 120//120 36//36 180//180
f 491//491 78//78 411//411
f 21//21 588//588 562//562
f 439//439 45//45 597//597
f 398//398 531//531 288//288
f 596//596 444//444 594//594
f 474//474 595//595 596//596
f 616//616 536//536 617//617
f 456//456 255//255 201//201
f 110//110 254//254 141//141
f 597//597 599//599 545//545
f 463//463 537//537 321//321
f 597//597 45//45 599//599
f 247//247 219//219 615//615
f 329//329 598//598 600//600
f 193//193 139//139 350//350
f 16//16 600//600 598//598
f 281//281 600//600 547//547
f 541//541 281//281 547//547
f 281//281 159//159 601//601
f 98//98 159//159 602//602
f 602//602 603//603 66//66
f 549//549 550//550 603//603
f 276//276 545//545 488//488
f 545//545 276//276 550//550
f 550//550 276//276 603//603
f 488//488 545//545 599//599
f 509//509 220//220 223//223
f 150//150 464//464 307//307
f 580//580 623//623 15//15
f 392//392 325//325 613//613
f 603//603 602//602 549//549
f 578//578 332//332 369//369
f 359//359 436//436 297//297
f 471//471 625//625 142//142
f 590//590 320//320 113//113
f 293//293 141//141 301//301
f 50//50 264//264 164//164
f 506//506 150//150 356//356
f 200//200 621//621 119//119
f 307//307 167//167 140//140
f 336//336 411//411 63//63
f 349//349 29//29 138//138
f 155//155 300//300 333//333
f 300//300 155//155 305//305
f 450//450 123//123 303//303
f 558//558 540//540 129//129
f 434//434 345//345 243//243
f 188//188 307//307 430//430
f 274//274 116//116 267//267
f 456//456 305//305 155//155
f 82//82 385//385 316//316
f 34//34 314//314 37//37
f 390//390 173//173 36//36
f 357//357 189//189 382//382
f 316//316 385//385 503//503
f 347//347 311//311 463//463
f 405//405 598//598 93//93
f 199//199 3//3 355//355
f 608//608 435//435 460//460
f 148//148 109//109 174//174
f 605//605 167//167 188//188
f 211//211 533//533 22//22
f 85//85 273//273 507//507
f 607//607 392//392 611//611
f 308//308 335//335 218//218
f 94//94 394//394 519//519
f 550//550 542//542 237//237
f 234//234 67//67 235//235
f 273//273 326//326 507//507
f 134//134 112//112 128//128
f 483//483 278//278 169//169
f 611//611 613//613 614//614
f 314//314 454//454 157//157
f 400//400 181//181 83//83
f 382//382 244//244 239//239
f 410//410 466//466 312//312
f 47//47 245//245 527//527
f 245//245 47//47 612//612
f 48//48 616//616 613//613
f 237//237 357//357 382//382
f 152//152 255//255 179//179
f 562//562 315//315 21//21
f 157//157 454//454 397//397
f 16//16 474//474 596//596
f 84//84 442//442 88//88
f 539//539 226//226 176//176
f 568//568 573//573 416//416
f 210//210 370//370 231//231
f 362//362 84//84 373//373
f 523//523 49//49 511//511
f 557//557 48//48 609//609
f 219//219 525//525 615//615
f 231//231 370//370 241//241
f 45//45 149//149 599//599
f 216//216 383//383 377//377
f 623//623 580//580 178//178
f 304//304 411//411 402//402
f 618//618 527//527 246//246
f 56//56 104//104 188//188
f 510//510 24//24 521//521
f 374//374 283//283 389//389
f 474//474 473//473 595//595
f 183//183 143//143 147//147
f 147//147 143//143 144//144
f 346//346 264//264 328//328
f 490//490 128//128 465//465
f 499//499 510//510 534//534
f 5//5 523//523 624//624
f 400//400 626//626 467//467
f 25//25 257//257 18//18
f 165//165 529//529 7//7
f 100//100 38//38 51//51
f 17//17 331//331 270//270
